M48
;DRILL file {KiCad 5.0.2-bee76a0~70~ubuntu18.04.1} date Mon 04 Mar 2019 11:14:49 PM EST
;FORMAT={-:-/ absolute / metric / decimal}
FMAT,2
METRIC,TZ
T1C0.400
T2C1.000
%
G90
G05
T1
X183.225Y-134.5
X185.5Y-136.
X190.Y-130.
X197.3Y-54.6
X199.Y-79.5
X201.75Y-76.75
X202.013Y-72.013
X202.75Y-80.75
X203.362Y-79.362
X203.5Y-78.
X204.Y-69.5
X204.Y-81.5
X204.5Y-75.
X205.5Y-74.
X205.5Y-76.
X206.5Y-75.
X208.158Y-72.921
X208.5Y-78.25
X209.Y-72.
X219.Y-114.
X219.Y-116.
X219.Y-118.
X221.Y-114.
X221.Y-116.
X221.Y-118.
X221.5Y-108.
X223.Y-114.
X223.Y-116.
X223.Y-118.
X223.5Y-106.25
X225.Y-116.
X225.Y-118.
X225.5Y-113.
X227.Y-116.
X227.Y-118.
X228.5Y-55.5
X228.5Y-60.5
X228.5Y-65.5
X228.5Y-70.5
X228.5Y-75.5
X228.5Y-80.5
X228.5Y-85.5
X228.5Y-90.5
X228.5Y-95.5
T2
X204.06Y-51.9
X206.6Y-51.9
X186.5Y-115.
X186.5Y-117.54
X186.5Y-120.08
X189.04Y-115.
X189.04Y-117.54
X189.04Y-120.08
T0
M30
