G04 #@! TF.GenerationSoftware,KiCad,Pcbnew,5.0.2-bee76a0~70~ubuntu18.04.1*
G04 #@! TF.CreationDate,2019-03-04T23:14:44-05:00*
G04 #@! TF.ProjectId,BalancingBusinessCardLights,42616c61-6e63-4696-9e67-427573696e65,rev?*
G04 #@! TF.SameCoordinates,Original*
G04 #@! TF.FileFunction,Profile,NP*
%FSLAX46Y46*%
G04 Gerber Fmt 4.6, Leading zero omitted, Abs format (unit mm)*
G04 Created by KiCad (PCBNEW 5.0.2-bee76a0~70~ubuntu18.04.1) date Mon 04 Mar 2019 11:14:44 PM EST*
%MOMM*%
%LPD*%
G01*
G04 APERTURE LIST*
%ADD10C,0.150000*%
%ADD11C,0.100000*%
G04 APERTURE END LIST*
D10*
X231000000Y-136000000D02*
G75*
G02X228000000Y-139000000I-3000000J0D01*
G01*
X183000000Y-139000000D02*
G75*
G02X180000000Y-136000000I0J3000000D01*
G01*
X228000000Y-50000000D02*
G75*
G02X231000000Y-53000000I0J-3000000D01*
G01*
X180000000Y-53000000D02*
G75*
G02X183000000Y-50000000I3000000J0D01*
G01*
D11*
X201000000Y-104500000D02*
G75*
G02X205500000Y-100000000I4500000J0D01*
G01*
X209000000Y-128500000D02*
X209000000Y-104500000D01*
X215000000Y-126500000D02*
G75*
G02X210000000Y-126500000I-2500000J0D01*
G01*
X196000000Y-100000000D02*
X195000000Y-100000000D01*
X195000000Y-100000000D02*
X195000000Y-128500000D01*
X202000000Y-104500000D02*
G75*
G02X209000000Y-104500000I3500000J0D01*
G01*
X201000000Y-104500000D02*
X201000000Y-126500000D01*
X201000000Y-126500000D02*
G75*
G02X196000000Y-126500000I-2500000J0D01*
G01*
X202000000Y-128500000D02*
X202000000Y-104500000D01*
X210000000Y-104500000D02*
X210000000Y-126500000D01*
X215000000Y-126500000D02*
X215000000Y-100000000D01*
X215000000Y-100000000D02*
X216000000Y-100000000D01*
X198500000Y-132000000D02*
G75*
G02X195000000Y-128500000I0J3500000D01*
G01*
X216000000Y-100000000D02*
X216000000Y-128500000D01*
X202000000Y-128500000D02*
G75*
G02X198500000Y-132000000I-3500000J0D01*
G01*
X205500000Y-100000000D02*
G75*
G02X210000000Y-104500000I0J-4500000D01*
G01*
X216000000Y-128500000D02*
G75*
G02X212500000Y-132000000I-3500000J0D01*
G01*
X212500000Y-132000000D02*
G75*
G02X209000000Y-128500000I0J3500000D01*
G01*
X196000000Y-126500000D02*
X196000000Y-100000000D01*
D10*
X228000000Y-50000000D02*
X183000000Y-50000000D01*
X231000000Y-136000000D02*
X231000000Y-53000000D01*
X183000000Y-139000000D02*
X228000000Y-139000000D01*
X180000000Y-53000000D02*
X180000000Y-136000000D01*
M02*
