G04 #@! TF.GenerationSoftware,KiCad,Pcbnew,5.0.2-bee76a0~70~ubuntu18.04.1*
G04 #@! TF.CreationDate,2019-03-04T23:14:44-05:00*
G04 #@! TF.ProjectId,BalancingBusinessCardLights,42616c61-6e63-4696-9e67-427573696e65,rev?*
G04 #@! TF.SameCoordinates,Original*
G04 #@! TF.FileFunction,Other,Fab,Top*
%FSLAX46Y46*%
G04 Gerber Fmt 4.6, Leading zero omitted, Abs format (unit mm)*
G04 Created by KiCad (PCBNEW 5.0.2-bee76a0~70~ubuntu18.04.1) date Mon 04 Mar 2019 11:14:44 PM EST*
%MOMM*%
%LPD*%
G01*
G04 APERTURE LIST*
%ADD10C,0.100000*%
%ADD11C,0.152400*%
%ADD12C,0.150000*%
%ADD13C,0.080000*%
%ADD14C,0.060000*%
%ADD15C,0.075000*%
G04 APERTURE END LIST*
D10*
G04 #@! TO.C,C101*
X200000000Y-78400000D02*
X202000000Y-78400000D01*
X200000000Y-79600000D02*
X200000000Y-78400000D01*
X202000000Y-79600000D02*
X200000000Y-79600000D01*
X202000000Y-78400000D02*
X202000000Y-79600000D01*
G04 #@! TO.C,C401*
X188500000Y-130600000D02*
X186500000Y-130600000D01*
X188500000Y-129400000D02*
X188500000Y-130600000D01*
X186500000Y-129400000D02*
X188500000Y-129400000D01*
X186500000Y-130600000D02*
X186500000Y-129400000D01*
G04 #@! TO.C,C402*
X188300000Y-128400000D02*
X186700000Y-128400000D01*
X188300000Y-127600000D02*
X188300000Y-128400000D01*
X186700000Y-127600000D02*
X188300000Y-127600000D01*
X186700000Y-128400000D02*
X186700000Y-127600000D01*
G04 #@! TO.C,D301*
X227200000Y-53600000D02*
X227200000Y-54400000D01*
X228800000Y-53600000D02*
X227200000Y-53600000D01*
X228800000Y-54100000D02*
X228800000Y-53600000D01*
X228500000Y-54400000D02*
X228800000Y-54100000D01*
X227200000Y-54400000D02*
X228500000Y-54400000D01*
G04 #@! TO.C,D302*
X227200000Y-58600000D02*
X227200000Y-59400000D01*
X228800000Y-58600000D02*
X227200000Y-58600000D01*
X228800000Y-59100000D02*
X228800000Y-58600000D01*
X228500000Y-59400000D02*
X228800000Y-59100000D01*
X227200000Y-59400000D02*
X228500000Y-59400000D01*
G04 #@! TO.C,D303*
X227200000Y-63600000D02*
X227200000Y-64400000D01*
X228800000Y-63600000D02*
X227200000Y-63600000D01*
X228800000Y-64100000D02*
X228800000Y-63600000D01*
X228500000Y-64400000D02*
X228800000Y-64100000D01*
X227200000Y-64400000D02*
X228500000Y-64400000D01*
G04 #@! TO.C,D304*
X227200000Y-68600000D02*
X227200000Y-69400000D01*
X228800000Y-68600000D02*
X227200000Y-68600000D01*
X228800000Y-69100000D02*
X228800000Y-68600000D01*
X228500000Y-69400000D02*
X228800000Y-69100000D01*
X227200000Y-69400000D02*
X228500000Y-69400000D01*
G04 #@! TO.C,D305*
X227200000Y-73600000D02*
X227200000Y-74400000D01*
X228800000Y-73600000D02*
X227200000Y-73600000D01*
X228800000Y-74100000D02*
X228800000Y-73600000D01*
X228500000Y-74400000D02*
X228800000Y-74100000D01*
X227200000Y-74400000D02*
X228500000Y-74400000D01*
G04 #@! TO.C,D306*
X227200000Y-78600000D02*
X227200000Y-79400000D01*
X228800000Y-78600000D02*
X227200000Y-78600000D01*
X228800000Y-79100000D02*
X228800000Y-78600000D01*
X228500000Y-79400000D02*
X228800000Y-79100000D01*
X227200000Y-79400000D02*
X228500000Y-79400000D01*
G04 #@! TO.C,D307*
X227200000Y-83600000D02*
X227200000Y-84400000D01*
X228800000Y-83600000D02*
X227200000Y-83600000D01*
X228800000Y-84100000D02*
X228800000Y-83600000D01*
X228500000Y-84400000D02*
X228800000Y-84100000D01*
X227200000Y-84400000D02*
X228500000Y-84400000D01*
G04 #@! TO.C,D308*
X227200000Y-88600000D02*
X227200000Y-89400000D01*
X228800000Y-88600000D02*
X227200000Y-88600000D01*
X228800000Y-89100000D02*
X228800000Y-88600000D01*
X228500000Y-89400000D02*
X228800000Y-89100000D01*
X227200000Y-89400000D02*
X228500000Y-89400000D01*
G04 #@! TO.C,D309*
X227200000Y-93600000D02*
X227200000Y-94400000D01*
X228800000Y-93600000D02*
X227200000Y-93600000D01*
X228800000Y-94100000D02*
X228800000Y-93600000D01*
X228500000Y-94400000D02*
X228800000Y-94100000D01*
X227200000Y-94400000D02*
X228500000Y-94400000D01*
G04 #@! TO.C,ICSP1*
X185230000Y-115000000D02*
X186500000Y-113730000D01*
X185230000Y-121350000D02*
X185230000Y-115000000D01*
X190310000Y-121350000D02*
X185230000Y-121350000D01*
X190310000Y-113730000D02*
X190310000Y-121350000D01*
X186500000Y-113730000D02*
X190310000Y-113730000D01*
D11*
G04 #@! TO.C,U401*
X183500201Y-131680201D02*
X183500201Y-134829801D01*
X186649801Y-131680201D02*
X183500201Y-131680201D01*
X186649801Y-134829801D02*
X186649801Y-131680201D01*
X183500201Y-134829801D02*
X186649801Y-134829801D01*
X183500201Y-132950201D02*
X184770201Y-131680201D01*
D10*
G04 #@! TO.C,C403*
X221100000Y-109700000D02*
X221900000Y-109700000D01*
X221100000Y-111300000D02*
X221100000Y-109700000D01*
X221900000Y-111300000D02*
X221100000Y-111300000D01*
X221900000Y-109700000D02*
X221900000Y-111300000D01*
G04 #@! TO.C,C404*
X227900000Y-109700000D02*
X227900000Y-111300000D01*
X227900000Y-111300000D02*
X227100000Y-111300000D01*
X227100000Y-111300000D02*
X227100000Y-109700000D01*
X227100000Y-109700000D02*
X227900000Y-109700000D01*
G04 #@! TO.C,L401*
X219100000Y-111300000D02*
X219100000Y-109700000D01*
X219100000Y-109700000D02*
X219900000Y-109700000D01*
X219900000Y-109700000D02*
X219900000Y-111300000D01*
X219900000Y-111300000D02*
X219100000Y-111300000D01*
G04 #@! TO.C,R201*
X223700000Y-53600000D02*
X225300000Y-53600000D01*
X225300000Y-53600000D02*
X225300000Y-54400000D01*
X225300000Y-54400000D02*
X223700000Y-54400000D01*
X223700000Y-54400000D02*
X223700000Y-53600000D01*
G04 #@! TO.C,R202*
X223700000Y-59400000D02*
X223700000Y-58600000D01*
X225300000Y-59400000D02*
X223700000Y-59400000D01*
X225300000Y-58600000D02*
X225300000Y-59400000D01*
X223700000Y-58600000D02*
X225300000Y-58600000D01*
G04 #@! TO.C,R203*
X223700000Y-63600000D02*
X225300000Y-63600000D01*
X225300000Y-63600000D02*
X225300000Y-64400000D01*
X225300000Y-64400000D02*
X223700000Y-64400000D01*
X223700000Y-64400000D02*
X223700000Y-63600000D01*
G04 #@! TO.C,R204*
X223700000Y-69400000D02*
X223700000Y-68600000D01*
X225300000Y-69400000D02*
X223700000Y-69400000D01*
X225300000Y-68600000D02*
X225300000Y-69400000D01*
X223700000Y-68600000D02*
X225300000Y-68600000D01*
G04 #@! TO.C,R205*
X223700000Y-73600000D02*
X225300000Y-73600000D01*
X225300000Y-73600000D02*
X225300000Y-74400000D01*
X225300000Y-74400000D02*
X223700000Y-74400000D01*
X223700000Y-74400000D02*
X223700000Y-73600000D01*
G04 #@! TO.C,R206*
X223700000Y-79400000D02*
X223700000Y-78600000D01*
X225300000Y-79400000D02*
X223700000Y-79400000D01*
X225300000Y-78600000D02*
X225300000Y-79400000D01*
X223700000Y-78600000D02*
X225300000Y-78600000D01*
G04 #@! TO.C,R207*
X223700000Y-83600000D02*
X225300000Y-83600000D01*
X225300000Y-83600000D02*
X225300000Y-84400000D01*
X225300000Y-84400000D02*
X223700000Y-84400000D01*
X223700000Y-84400000D02*
X223700000Y-83600000D01*
G04 #@! TO.C,R208*
X223700000Y-89400000D02*
X223700000Y-88600000D01*
X225300000Y-89400000D02*
X223700000Y-89400000D01*
X225300000Y-88600000D02*
X225300000Y-89400000D01*
X223700000Y-88600000D02*
X225300000Y-88600000D01*
G04 #@! TO.C,R209*
X223700000Y-94400000D02*
X223700000Y-93600000D01*
X225300000Y-94400000D02*
X223700000Y-94400000D01*
X225300000Y-93600000D02*
X225300000Y-94400000D01*
X223700000Y-93600000D02*
X225300000Y-93600000D01*
G04 #@! TO.C,R401*
X227300000Y-107900000D02*
X225700000Y-107900000D01*
X225700000Y-107900000D02*
X225700000Y-107100000D01*
X225700000Y-107100000D02*
X227300000Y-107100000D01*
X227300000Y-107100000D02*
X227300000Y-107900000D01*
G04 #@! TO.C,R402*
X224800000Y-107100000D02*
X224800000Y-107900000D01*
X223200000Y-107100000D02*
X224800000Y-107100000D01*
X223200000Y-107900000D02*
X223200000Y-107100000D01*
X224800000Y-107900000D02*
X223200000Y-107900000D01*
D12*
G04 #@! TO.C,U101*
X202671573Y-75707107D02*
X202671573Y-74292893D01*
X205500000Y-78535534D02*
X202671573Y-75707107D01*
X209035534Y-75000000D02*
X205500000Y-78535534D01*
X205500000Y-71464466D02*
X209035534Y-75000000D01*
X202671573Y-74292893D02*
X205500000Y-71464466D01*
D10*
G04 #@! TO.C,U402*
X222950000Y-109600000D02*
X226050000Y-109600000D01*
X226050000Y-109600000D02*
X226050000Y-111400000D01*
X223600000Y-111400000D02*
X226050000Y-111400000D01*
X222950000Y-109600000D02*
X222950000Y-110750000D01*
X223600000Y-111400000D02*
X222950000Y-110750000D01*
G04 #@! TO.C,R102*
X206800000Y-68900000D02*
X205200000Y-68900000D01*
X205200000Y-68900000D02*
X205200000Y-68100000D01*
X205200000Y-68100000D02*
X206800000Y-68100000D01*
X206800000Y-68100000D02*
X206800000Y-68900000D01*
G04 #@! TO.C,R103*
X198700000Y-70400000D02*
X198700000Y-69600000D01*
X200300000Y-70400000D02*
X198700000Y-70400000D01*
X200300000Y-69600000D02*
X200300000Y-70400000D01*
X198700000Y-69600000D02*
X200300000Y-69600000D01*
G04 #@! TO.C,J101*
X207870000Y-51265000D02*
X207870000Y-53170000D01*
X207870000Y-53170000D02*
X202790000Y-53170000D01*
X202790000Y-53170000D02*
X202790000Y-50630000D01*
X202790000Y-50630000D02*
X207235000Y-50630000D01*
X207235000Y-50630000D02*
X207870000Y-51265000D01*
G04 #@! TO.C,R101*
X198312500Y-52500000D02*
X198312500Y-51700000D01*
X198312500Y-51700000D02*
X199912500Y-51700000D01*
X199912500Y-51700000D02*
X199912500Y-52500000D01*
X199912500Y-52500000D02*
X198312500Y-52500000D01*
G04 #@! TD*
G04 #@! TO.C,BT101*
D12*
X205928571Y-118071428D02*
X205976190Y-117928571D01*
X206023809Y-117880952D01*
X206119047Y-117833333D01*
X206261904Y-117833333D01*
X206357142Y-117880952D01*
X206404761Y-117928571D01*
X206452380Y-118023809D01*
X206452380Y-118404761D01*
X205452380Y-118404761D01*
X205452380Y-118071428D01*
X205500000Y-117976190D01*
X205547619Y-117928571D01*
X205642857Y-117880952D01*
X205738095Y-117880952D01*
X205833333Y-117928571D01*
X205880952Y-117976190D01*
X205928571Y-118071428D01*
X205928571Y-118404761D01*
X206452380Y-116976190D02*
X205928571Y-116976190D01*
X205833333Y-117023809D01*
X205785714Y-117119047D01*
X205785714Y-117309523D01*
X205833333Y-117404761D01*
X206404761Y-116976190D02*
X206452380Y-117071428D01*
X206452380Y-117309523D01*
X206404761Y-117404761D01*
X206309523Y-117452380D01*
X206214285Y-117452380D01*
X206119047Y-117404761D01*
X206071428Y-117309523D01*
X206071428Y-117071428D01*
X206023809Y-116976190D01*
X205785714Y-116642857D02*
X205785714Y-116261904D01*
X205452380Y-116500000D02*
X206309523Y-116500000D01*
X206404761Y-116452380D01*
X206452380Y-116357142D01*
X206452380Y-116261904D01*
X205785714Y-116071428D02*
X205785714Y-115690476D01*
X205452380Y-115928571D02*
X206309523Y-115928571D01*
X206404761Y-115880952D01*
X206452380Y-115785714D01*
X206452380Y-115690476D01*
X206404761Y-114976190D02*
X206452380Y-115071428D01*
X206452380Y-115261904D01*
X206404761Y-115357142D01*
X206309523Y-115404761D01*
X205928571Y-115404761D01*
X205833333Y-115357142D01*
X205785714Y-115261904D01*
X205785714Y-115071428D01*
X205833333Y-114976190D01*
X205928571Y-114928571D01*
X206023809Y-114928571D01*
X206119047Y-115404761D01*
X206452380Y-114500000D02*
X205785714Y-114500000D01*
X205976190Y-114500000D02*
X205880952Y-114452380D01*
X205833333Y-114404761D01*
X205785714Y-114309523D01*
X205785714Y-114214285D01*
X205785714Y-113976190D02*
X206452380Y-113738095D01*
X205785714Y-113500000D02*
X206452380Y-113738095D01*
X206690476Y-113833333D01*
X206738095Y-113880952D01*
X206785714Y-113976190D01*
G04 #@! TO.C,C101*
X199928571Y-77802380D02*
X199357142Y-77802380D01*
X199642857Y-77802380D02*
X199642857Y-76802380D01*
X199547619Y-76945238D01*
X199452380Y-77040476D01*
X199357142Y-77088095D01*
X200547619Y-76802380D02*
X200642857Y-76802380D01*
X200738095Y-76850000D01*
X200785714Y-76897619D01*
X200833333Y-76992857D01*
X200880952Y-77183333D01*
X200880952Y-77421428D01*
X200833333Y-77611904D01*
X200785714Y-77707142D01*
X200738095Y-77754761D01*
X200642857Y-77802380D01*
X200547619Y-77802380D01*
X200452380Y-77754761D01*
X200404761Y-77707142D01*
X200357142Y-77611904D01*
X200309523Y-77421428D01*
X200309523Y-77183333D01*
X200357142Y-76992857D01*
X200404761Y-76897619D01*
X200452380Y-76850000D01*
X200547619Y-76802380D01*
X201738095Y-77135714D02*
X201738095Y-77802380D01*
X201309523Y-77135714D02*
X201309523Y-77659523D01*
X201357142Y-77754761D01*
X201452380Y-77802380D01*
X201595238Y-77802380D01*
X201690476Y-77754761D01*
X201738095Y-77707142D01*
X202547619Y-77278571D02*
X202214285Y-77278571D01*
X202214285Y-77802380D02*
X202214285Y-76802380D01*
X202690476Y-76802380D01*
D13*
X200440476Y-79178571D02*
X200416666Y-79202380D01*
X200345238Y-79226190D01*
X200297619Y-79226190D01*
X200226190Y-79202380D01*
X200178571Y-79154761D01*
X200154761Y-79107142D01*
X200130952Y-79011904D01*
X200130952Y-78940476D01*
X200154761Y-78845238D01*
X200178571Y-78797619D01*
X200226190Y-78750000D01*
X200297619Y-78726190D01*
X200345238Y-78726190D01*
X200416666Y-78750000D01*
X200440476Y-78773809D01*
X200916666Y-79226190D02*
X200630952Y-79226190D01*
X200773809Y-79226190D02*
X200773809Y-78726190D01*
X200726190Y-78797619D01*
X200678571Y-78845238D01*
X200630952Y-78869047D01*
X201226190Y-78726190D02*
X201273809Y-78726190D01*
X201321428Y-78750000D01*
X201345238Y-78773809D01*
X201369047Y-78821428D01*
X201392857Y-78916666D01*
X201392857Y-79035714D01*
X201369047Y-79130952D01*
X201345238Y-79178571D01*
X201321428Y-79202380D01*
X201273809Y-79226190D01*
X201226190Y-79226190D01*
X201178571Y-79202380D01*
X201154761Y-79178571D01*
X201130952Y-79130952D01*
X201107142Y-79035714D01*
X201107142Y-78916666D01*
X201130952Y-78821428D01*
X201154761Y-78773809D01*
X201178571Y-78750000D01*
X201226190Y-78726190D01*
X201869047Y-79226190D02*
X201583333Y-79226190D01*
X201726190Y-79226190D02*
X201726190Y-78726190D01*
X201678571Y-78797619D01*
X201630952Y-78845238D01*
X201583333Y-78869047D01*
G04 #@! TO.C,C401*
D12*
X186428571Y-132102380D02*
X185857142Y-132102380D01*
X186142857Y-132102380D02*
X186142857Y-131102380D01*
X186047619Y-131245238D01*
X185952380Y-131340476D01*
X185857142Y-131388095D01*
X187047619Y-131102380D02*
X187142857Y-131102380D01*
X187238095Y-131150000D01*
X187285714Y-131197619D01*
X187333333Y-131292857D01*
X187380952Y-131483333D01*
X187380952Y-131721428D01*
X187333333Y-131911904D01*
X187285714Y-132007142D01*
X187238095Y-132054761D01*
X187142857Y-132102380D01*
X187047619Y-132102380D01*
X186952380Y-132054761D01*
X186904761Y-132007142D01*
X186857142Y-131911904D01*
X186809523Y-131721428D01*
X186809523Y-131483333D01*
X186857142Y-131292857D01*
X186904761Y-131197619D01*
X186952380Y-131150000D01*
X187047619Y-131102380D01*
X188238095Y-131435714D02*
X188238095Y-132102380D01*
X187809523Y-131435714D02*
X187809523Y-131959523D01*
X187857142Y-132054761D01*
X187952380Y-132102380D01*
X188095238Y-132102380D01*
X188190476Y-132054761D01*
X188238095Y-132007142D01*
X189047619Y-131578571D02*
X188714285Y-131578571D01*
X188714285Y-132102380D02*
X188714285Y-131102380D01*
X189190476Y-131102380D01*
D13*
X186940476Y-130178571D02*
X186916666Y-130202380D01*
X186845238Y-130226190D01*
X186797619Y-130226190D01*
X186726190Y-130202380D01*
X186678571Y-130154761D01*
X186654761Y-130107142D01*
X186630952Y-130011904D01*
X186630952Y-129940476D01*
X186654761Y-129845238D01*
X186678571Y-129797619D01*
X186726190Y-129750000D01*
X186797619Y-129726190D01*
X186845238Y-129726190D01*
X186916666Y-129750000D01*
X186940476Y-129773809D01*
X187369047Y-129892857D02*
X187369047Y-130226190D01*
X187250000Y-129702380D02*
X187130952Y-130059523D01*
X187440476Y-130059523D01*
X187726190Y-129726190D02*
X187773809Y-129726190D01*
X187821428Y-129750000D01*
X187845238Y-129773809D01*
X187869047Y-129821428D01*
X187892857Y-129916666D01*
X187892857Y-130035714D01*
X187869047Y-130130952D01*
X187845238Y-130178571D01*
X187821428Y-130202380D01*
X187773809Y-130226190D01*
X187726190Y-130226190D01*
X187678571Y-130202380D01*
X187654761Y-130178571D01*
X187630952Y-130130952D01*
X187607142Y-130035714D01*
X187607142Y-129916666D01*
X187630952Y-129821428D01*
X187654761Y-129773809D01*
X187678571Y-129750000D01*
X187726190Y-129726190D01*
X188369047Y-130226190D02*
X188083333Y-130226190D01*
X188226190Y-130226190D02*
X188226190Y-129726190D01*
X188178571Y-129797619D01*
X188130952Y-129845238D01*
X188083333Y-129869047D01*
G04 #@! TO.C,C402*
D12*
X185952380Y-129882380D02*
X185380952Y-129882380D01*
X185666666Y-129882380D02*
X185666666Y-128882380D01*
X185571428Y-129025238D01*
X185476190Y-129120476D01*
X185380952Y-129168095D01*
X186571428Y-128882380D02*
X186666666Y-128882380D01*
X186761904Y-128930000D01*
X186809523Y-128977619D01*
X186857142Y-129072857D01*
X186904761Y-129263333D01*
X186904761Y-129501428D01*
X186857142Y-129691904D01*
X186809523Y-129787142D01*
X186761904Y-129834761D01*
X186666666Y-129882380D01*
X186571428Y-129882380D01*
X186476190Y-129834761D01*
X186428571Y-129787142D01*
X186380952Y-129691904D01*
X186333333Y-129501428D01*
X186333333Y-129263333D01*
X186380952Y-129072857D01*
X186428571Y-128977619D01*
X186476190Y-128930000D01*
X186571428Y-128882380D01*
X187523809Y-128882380D02*
X187619047Y-128882380D01*
X187714285Y-128930000D01*
X187761904Y-128977619D01*
X187809523Y-129072857D01*
X187857142Y-129263333D01*
X187857142Y-129501428D01*
X187809523Y-129691904D01*
X187761904Y-129787142D01*
X187714285Y-129834761D01*
X187619047Y-129882380D01*
X187523809Y-129882380D01*
X187428571Y-129834761D01*
X187380952Y-129787142D01*
X187333333Y-129691904D01*
X187285714Y-129501428D01*
X187285714Y-129263333D01*
X187333333Y-129072857D01*
X187380952Y-128977619D01*
X187428571Y-128930000D01*
X187523809Y-128882380D01*
X188285714Y-129215714D02*
X188285714Y-129882380D01*
X188285714Y-129310952D02*
X188333333Y-129263333D01*
X188428571Y-129215714D01*
X188571428Y-129215714D01*
X188666666Y-129263333D01*
X188714285Y-129358571D01*
X188714285Y-129882380D01*
X189523809Y-129358571D02*
X189190476Y-129358571D01*
X189190476Y-129882380D02*
X189190476Y-128882380D01*
X189666666Y-128882380D01*
D14*
X187052380Y-128142857D02*
X187033333Y-128161904D01*
X186976190Y-128180952D01*
X186938095Y-128180952D01*
X186880952Y-128161904D01*
X186842857Y-128123809D01*
X186823809Y-128085714D01*
X186804761Y-128009523D01*
X186804761Y-127952380D01*
X186823809Y-127876190D01*
X186842857Y-127838095D01*
X186880952Y-127800000D01*
X186938095Y-127780952D01*
X186976190Y-127780952D01*
X187033333Y-127800000D01*
X187052380Y-127819047D01*
X187395238Y-127914285D02*
X187395238Y-128180952D01*
X187300000Y-127761904D02*
X187204761Y-128047619D01*
X187452380Y-128047619D01*
X187680952Y-127780952D02*
X187719047Y-127780952D01*
X187757142Y-127800000D01*
X187776190Y-127819047D01*
X187795238Y-127857142D01*
X187814285Y-127933333D01*
X187814285Y-128028571D01*
X187795238Y-128104761D01*
X187776190Y-128142857D01*
X187757142Y-128161904D01*
X187719047Y-128180952D01*
X187680952Y-128180952D01*
X187642857Y-128161904D01*
X187623809Y-128142857D01*
X187604761Y-128104761D01*
X187585714Y-128028571D01*
X187585714Y-127933333D01*
X187604761Y-127857142D01*
X187623809Y-127819047D01*
X187642857Y-127800000D01*
X187680952Y-127780952D01*
X187966666Y-127819047D02*
X187985714Y-127800000D01*
X188023809Y-127780952D01*
X188119047Y-127780952D01*
X188157142Y-127800000D01*
X188176190Y-127819047D01*
X188195238Y-127857142D01*
X188195238Y-127895238D01*
X188176190Y-127952380D01*
X187947619Y-128180952D01*
X188195238Y-128180952D01*
G04 #@! TO.C,D301*
D12*
X227357142Y-53022380D02*
X226880952Y-53022380D01*
X226880952Y-52022380D01*
X227690476Y-52498571D02*
X228023809Y-52498571D01*
X228166666Y-53022380D02*
X227690476Y-53022380D01*
X227690476Y-52022380D01*
X228166666Y-52022380D01*
X228595238Y-53022380D02*
X228595238Y-52022380D01*
X228833333Y-52022380D01*
X228976190Y-52070000D01*
X229071428Y-52165238D01*
X229119047Y-52260476D01*
X229166666Y-52450952D01*
X229166666Y-52593809D01*
X229119047Y-52784285D01*
X229071428Y-52879523D01*
X228976190Y-52974761D01*
X228833333Y-53022380D01*
X228595238Y-53022380D01*
D14*
X227323809Y-54180952D02*
X227323809Y-53780952D01*
X227419047Y-53780952D01*
X227476190Y-53800000D01*
X227514285Y-53838095D01*
X227533333Y-53876190D01*
X227552380Y-53952380D01*
X227552380Y-54009523D01*
X227533333Y-54085714D01*
X227514285Y-54123809D01*
X227476190Y-54161904D01*
X227419047Y-54180952D01*
X227323809Y-54180952D01*
X227685714Y-53780952D02*
X227933333Y-53780952D01*
X227800000Y-53933333D01*
X227857142Y-53933333D01*
X227895238Y-53952380D01*
X227914285Y-53971428D01*
X227933333Y-54009523D01*
X227933333Y-54104761D01*
X227914285Y-54142857D01*
X227895238Y-54161904D01*
X227857142Y-54180952D01*
X227742857Y-54180952D01*
X227704761Y-54161904D01*
X227685714Y-54142857D01*
X228180952Y-53780952D02*
X228219047Y-53780952D01*
X228257142Y-53800000D01*
X228276190Y-53819047D01*
X228295238Y-53857142D01*
X228314285Y-53933333D01*
X228314285Y-54028571D01*
X228295238Y-54104761D01*
X228276190Y-54142857D01*
X228257142Y-54161904D01*
X228219047Y-54180952D01*
X228180952Y-54180952D01*
X228142857Y-54161904D01*
X228123809Y-54142857D01*
X228104761Y-54104761D01*
X228085714Y-54028571D01*
X228085714Y-53933333D01*
X228104761Y-53857142D01*
X228123809Y-53819047D01*
X228142857Y-53800000D01*
X228180952Y-53780952D01*
X228695238Y-54180952D02*
X228466666Y-54180952D01*
X228580952Y-54180952D02*
X228580952Y-53780952D01*
X228542857Y-53838095D01*
X228504761Y-53876190D01*
X228466666Y-53895238D01*
G04 #@! TO.C,D302*
D12*
X227357142Y-58022380D02*
X226880952Y-58022380D01*
X226880952Y-57022380D01*
X227690476Y-57498571D02*
X228023809Y-57498571D01*
X228166666Y-58022380D02*
X227690476Y-58022380D01*
X227690476Y-57022380D01*
X228166666Y-57022380D01*
X228595238Y-58022380D02*
X228595238Y-57022380D01*
X228833333Y-57022380D01*
X228976190Y-57070000D01*
X229071428Y-57165238D01*
X229119047Y-57260476D01*
X229166666Y-57450952D01*
X229166666Y-57593809D01*
X229119047Y-57784285D01*
X229071428Y-57879523D01*
X228976190Y-57974761D01*
X228833333Y-58022380D01*
X228595238Y-58022380D01*
D14*
X227323809Y-59180952D02*
X227323809Y-58780952D01*
X227419047Y-58780952D01*
X227476190Y-58800000D01*
X227514285Y-58838095D01*
X227533333Y-58876190D01*
X227552380Y-58952380D01*
X227552380Y-59009523D01*
X227533333Y-59085714D01*
X227514285Y-59123809D01*
X227476190Y-59161904D01*
X227419047Y-59180952D01*
X227323809Y-59180952D01*
X227685714Y-58780952D02*
X227933333Y-58780952D01*
X227800000Y-58933333D01*
X227857142Y-58933333D01*
X227895238Y-58952380D01*
X227914285Y-58971428D01*
X227933333Y-59009523D01*
X227933333Y-59104761D01*
X227914285Y-59142857D01*
X227895238Y-59161904D01*
X227857142Y-59180952D01*
X227742857Y-59180952D01*
X227704761Y-59161904D01*
X227685714Y-59142857D01*
X228180952Y-58780952D02*
X228219047Y-58780952D01*
X228257142Y-58800000D01*
X228276190Y-58819047D01*
X228295238Y-58857142D01*
X228314285Y-58933333D01*
X228314285Y-59028571D01*
X228295238Y-59104761D01*
X228276190Y-59142857D01*
X228257142Y-59161904D01*
X228219047Y-59180952D01*
X228180952Y-59180952D01*
X228142857Y-59161904D01*
X228123809Y-59142857D01*
X228104761Y-59104761D01*
X228085714Y-59028571D01*
X228085714Y-58933333D01*
X228104761Y-58857142D01*
X228123809Y-58819047D01*
X228142857Y-58800000D01*
X228180952Y-58780952D01*
X228466666Y-58819047D02*
X228485714Y-58800000D01*
X228523809Y-58780952D01*
X228619047Y-58780952D01*
X228657142Y-58800000D01*
X228676190Y-58819047D01*
X228695238Y-58857142D01*
X228695238Y-58895238D01*
X228676190Y-58952380D01*
X228447619Y-59180952D01*
X228695238Y-59180952D01*
G04 #@! TO.C,D303*
D12*
X227357142Y-63022380D02*
X226880952Y-63022380D01*
X226880952Y-62022380D01*
X227690476Y-62498571D02*
X228023809Y-62498571D01*
X228166666Y-63022380D02*
X227690476Y-63022380D01*
X227690476Y-62022380D01*
X228166666Y-62022380D01*
X228595238Y-63022380D02*
X228595238Y-62022380D01*
X228833333Y-62022380D01*
X228976190Y-62070000D01*
X229071428Y-62165238D01*
X229119047Y-62260476D01*
X229166666Y-62450952D01*
X229166666Y-62593809D01*
X229119047Y-62784285D01*
X229071428Y-62879523D01*
X228976190Y-62974761D01*
X228833333Y-63022380D01*
X228595238Y-63022380D01*
D14*
X227323809Y-64180952D02*
X227323809Y-63780952D01*
X227419047Y-63780952D01*
X227476190Y-63800000D01*
X227514285Y-63838095D01*
X227533333Y-63876190D01*
X227552380Y-63952380D01*
X227552380Y-64009523D01*
X227533333Y-64085714D01*
X227514285Y-64123809D01*
X227476190Y-64161904D01*
X227419047Y-64180952D01*
X227323809Y-64180952D01*
X227685714Y-63780952D02*
X227933333Y-63780952D01*
X227800000Y-63933333D01*
X227857142Y-63933333D01*
X227895238Y-63952380D01*
X227914285Y-63971428D01*
X227933333Y-64009523D01*
X227933333Y-64104761D01*
X227914285Y-64142857D01*
X227895238Y-64161904D01*
X227857142Y-64180952D01*
X227742857Y-64180952D01*
X227704761Y-64161904D01*
X227685714Y-64142857D01*
X228180952Y-63780952D02*
X228219047Y-63780952D01*
X228257142Y-63800000D01*
X228276190Y-63819047D01*
X228295238Y-63857142D01*
X228314285Y-63933333D01*
X228314285Y-64028571D01*
X228295238Y-64104761D01*
X228276190Y-64142857D01*
X228257142Y-64161904D01*
X228219047Y-64180952D01*
X228180952Y-64180952D01*
X228142857Y-64161904D01*
X228123809Y-64142857D01*
X228104761Y-64104761D01*
X228085714Y-64028571D01*
X228085714Y-63933333D01*
X228104761Y-63857142D01*
X228123809Y-63819047D01*
X228142857Y-63800000D01*
X228180952Y-63780952D01*
X228447619Y-63780952D02*
X228695238Y-63780952D01*
X228561904Y-63933333D01*
X228619047Y-63933333D01*
X228657142Y-63952380D01*
X228676190Y-63971428D01*
X228695238Y-64009523D01*
X228695238Y-64104761D01*
X228676190Y-64142857D01*
X228657142Y-64161904D01*
X228619047Y-64180952D01*
X228504761Y-64180952D01*
X228466666Y-64161904D01*
X228447619Y-64142857D01*
G04 #@! TO.C,D304*
D12*
X227357142Y-68022380D02*
X226880952Y-68022380D01*
X226880952Y-67022380D01*
X227690476Y-67498571D02*
X228023809Y-67498571D01*
X228166666Y-68022380D02*
X227690476Y-68022380D01*
X227690476Y-67022380D01*
X228166666Y-67022380D01*
X228595238Y-68022380D02*
X228595238Y-67022380D01*
X228833333Y-67022380D01*
X228976190Y-67070000D01*
X229071428Y-67165238D01*
X229119047Y-67260476D01*
X229166666Y-67450952D01*
X229166666Y-67593809D01*
X229119047Y-67784285D01*
X229071428Y-67879523D01*
X228976190Y-67974761D01*
X228833333Y-68022380D01*
X228595238Y-68022380D01*
D14*
X227323809Y-69180952D02*
X227323809Y-68780952D01*
X227419047Y-68780952D01*
X227476190Y-68800000D01*
X227514285Y-68838095D01*
X227533333Y-68876190D01*
X227552380Y-68952380D01*
X227552380Y-69009523D01*
X227533333Y-69085714D01*
X227514285Y-69123809D01*
X227476190Y-69161904D01*
X227419047Y-69180952D01*
X227323809Y-69180952D01*
X227685714Y-68780952D02*
X227933333Y-68780952D01*
X227800000Y-68933333D01*
X227857142Y-68933333D01*
X227895238Y-68952380D01*
X227914285Y-68971428D01*
X227933333Y-69009523D01*
X227933333Y-69104761D01*
X227914285Y-69142857D01*
X227895238Y-69161904D01*
X227857142Y-69180952D01*
X227742857Y-69180952D01*
X227704761Y-69161904D01*
X227685714Y-69142857D01*
X228180952Y-68780952D02*
X228219047Y-68780952D01*
X228257142Y-68800000D01*
X228276190Y-68819047D01*
X228295238Y-68857142D01*
X228314285Y-68933333D01*
X228314285Y-69028571D01*
X228295238Y-69104761D01*
X228276190Y-69142857D01*
X228257142Y-69161904D01*
X228219047Y-69180952D01*
X228180952Y-69180952D01*
X228142857Y-69161904D01*
X228123809Y-69142857D01*
X228104761Y-69104761D01*
X228085714Y-69028571D01*
X228085714Y-68933333D01*
X228104761Y-68857142D01*
X228123809Y-68819047D01*
X228142857Y-68800000D01*
X228180952Y-68780952D01*
X228657142Y-68914285D02*
X228657142Y-69180952D01*
X228561904Y-68761904D02*
X228466666Y-69047619D01*
X228714285Y-69047619D01*
G04 #@! TO.C,D305*
D12*
X227357142Y-73022380D02*
X226880952Y-73022380D01*
X226880952Y-72022380D01*
X227690476Y-72498571D02*
X228023809Y-72498571D01*
X228166666Y-73022380D02*
X227690476Y-73022380D01*
X227690476Y-72022380D01*
X228166666Y-72022380D01*
X228595238Y-73022380D02*
X228595238Y-72022380D01*
X228833333Y-72022380D01*
X228976190Y-72070000D01*
X229071428Y-72165238D01*
X229119047Y-72260476D01*
X229166666Y-72450952D01*
X229166666Y-72593809D01*
X229119047Y-72784285D01*
X229071428Y-72879523D01*
X228976190Y-72974761D01*
X228833333Y-73022380D01*
X228595238Y-73022380D01*
D14*
X227323809Y-74180952D02*
X227323809Y-73780952D01*
X227419047Y-73780952D01*
X227476190Y-73800000D01*
X227514285Y-73838095D01*
X227533333Y-73876190D01*
X227552380Y-73952380D01*
X227552380Y-74009523D01*
X227533333Y-74085714D01*
X227514285Y-74123809D01*
X227476190Y-74161904D01*
X227419047Y-74180952D01*
X227323809Y-74180952D01*
X227685714Y-73780952D02*
X227933333Y-73780952D01*
X227800000Y-73933333D01*
X227857142Y-73933333D01*
X227895238Y-73952380D01*
X227914285Y-73971428D01*
X227933333Y-74009523D01*
X227933333Y-74104761D01*
X227914285Y-74142857D01*
X227895238Y-74161904D01*
X227857142Y-74180952D01*
X227742857Y-74180952D01*
X227704761Y-74161904D01*
X227685714Y-74142857D01*
X228180952Y-73780952D02*
X228219047Y-73780952D01*
X228257142Y-73800000D01*
X228276190Y-73819047D01*
X228295238Y-73857142D01*
X228314285Y-73933333D01*
X228314285Y-74028571D01*
X228295238Y-74104761D01*
X228276190Y-74142857D01*
X228257142Y-74161904D01*
X228219047Y-74180952D01*
X228180952Y-74180952D01*
X228142857Y-74161904D01*
X228123809Y-74142857D01*
X228104761Y-74104761D01*
X228085714Y-74028571D01*
X228085714Y-73933333D01*
X228104761Y-73857142D01*
X228123809Y-73819047D01*
X228142857Y-73800000D01*
X228180952Y-73780952D01*
X228676190Y-73780952D02*
X228485714Y-73780952D01*
X228466666Y-73971428D01*
X228485714Y-73952380D01*
X228523809Y-73933333D01*
X228619047Y-73933333D01*
X228657142Y-73952380D01*
X228676190Y-73971428D01*
X228695238Y-74009523D01*
X228695238Y-74104761D01*
X228676190Y-74142857D01*
X228657142Y-74161904D01*
X228619047Y-74180952D01*
X228523809Y-74180952D01*
X228485714Y-74161904D01*
X228466666Y-74142857D01*
G04 #@! TO.C,D306*
D12*
X227357142Y-78022380D02*
X226880952Y-78022380D01*
X226880952Y-77022380D01*
X227690476Y-77498571D02*
X228023809Y-77498571D01*
X228166666Y-78022380D02*
X227690476Y-78022380D01*
X227690476Y-77022380D01*
X228166666Y-77022380D01*
X228595238Y-78022380D02*
X228595238Y-77022380D01*
X228833333Y-77022380D01*
X228976190Y-77070000D01*
X229071428Y-77165238D01*
X229119047Y-77260476D01*
X229166666Y-77450952D01*
X229166666Y-77593809D01*
X229119047Y-77784285D01*
X229071428Y-77879523D01*
X228976190Y-77974761D01*
X228833333Y-78022380D01*
X228595238Y-78022380D01*
D14*
X227323809Y-79180952D02*
X227323809Y-78780952D01*
X227419047Y-78780952D01*
X227476190Y-78800000D01*
X227514285Y-78838095D01*
X227533333Y-78876190D01*
X227552380Y-78952380D01*
X227552380Y-79009523D01*
X227533333Y-79085714D01*
X227514285Y-79123809D01*
X227476190Y-79161904D01*
X227419047Y-79180952D01*
X227323809Y-79180952D01*
X227685714Y-78780952D02*
X227933333Y-78780952D01*
X227800000Y-78933333D01*
X227857142Y-78933333D01*
X227895238Y-78952380D01*
X227914285Y-78971428D01*
X227933333Y-79009523D01*
X227933333Y-79104761D01*
X227914285Y-79142857D01*
X227895238Y-79161904D01*
X227857142Y-79180952D01*
X227742857Y-79180952D01*
X227704761Y-79161904D01*
X227685714Y-79142857D01*
X228180952Y-78780952D02*
X228219047Y-78780952D01*
X228257142Y-78800000D01*
X228276190Y-78819047D01*
X228295238Y-78857142D01*
X228314285Y-78933333D01*
X228314285Y-79028571D01*
X228295238Y-79104761D01*
X228276190Y-79142857D01*
X228257142Y-79161904D01*
X228219047Y-79180952D01*
X228180952Y-79180952D01*
X228142857Y-79161904D01*
X228123809Y-79142857D01*
X228104761Y-79104761D01*
X228085714Y-79028571D01*
X228085714Y-78933333D01*
X228104761Y-78857142D01*
X228123809Y-78819047D01*
X228142857Y-78800000D01*
X228180952Y-78780952D01*
X228657142Y-78780952D02*
X228580952Y-78780952D01*
X228542857Y-78800000D01*
X228523809Y-78819047D01*
X228485714Y-78876190D01*
X228466666Y-78952380D01*
X228466666Y-79104761D01*
X228485714Y-79142857D01*
X228504761Y-79161904D01*
X228542857Y-79180952D01*
X228619047Y-79180952D01*
X228657142Y-79161904D01*
X228676190Y-79142857D01*
X228695238Y-79104761D01*
X228695238Y-79009523D01*
X228676190Y-78971428D01*
X228657142Y-78952380D01*
X228619047Y-78933333D01*
X228542857Y-78933333D01*
X228504761Y-78952380D01*
X228485714Y-78971428D01*
X228466666Y-79009523D01*
G04 #@! TO.C,D307*
D12*
X227357142Y-83022380D02*
X226880952Y-83022380D01*
X226880952Y-82022380D01*
X227690476Y-82498571D02*
X228023809Y-82498571D01*
X228166666Y-83022380D02*
X227690476Y-83022380D01*
X227690476Y-82022380D01*
X228166666Y-82022380D01*
X228595238Y-83022380D02*
X228595238Y-82022380D01*
X228833333Y-82022380D01*
X228976190Y-82070000D01*
X229071428Y-82165238D01*
X229119047Y-82260476D01*
X229166666Y-82450952D01*
X229166666Y-82593809D01*
X229119047Y-82784285D01*
X229071428Y-82879523D01*
X228976190Y-82974761D01*
X228833333Y-83022380D01*
X228595238Y-83022380D01*
D14*
X227323809Y-84180952D02*
X227323809Y-83780952D01*
X227419047Y-83780952D01*
X227476190Y-83800000D01*
X227514285Y-83838095D01*
X227533333Y-83876190D01*
X227552380Y-83952380D01*
X227552380Y-84009523D01*
X227533333Y-84085714D01*
X227514285Y-84123809D01*
X227476190Y-84161904D01*
X227419047Y-84180952D01*
X227323809Y-84180952D01*
X227685714Y-83780952D02*
X227933333Y-83780952D01*
X227800000Y-83933333D01*
X227857142Y-83933333D01*
X227895238Y-83952380D01*
X227914285Y-83971428D01*
X227933333Y-84009523D01*
X227933333Y-84104761D01*
X227914285Y-84142857D01*
X227895238Y-84161904D01*
X227857142Y-84180952D01*
X227742857Y-84180952D01*
X227704761Y-84161904D01*
X227685714Y-84142857D01*
X228180952Y-83780952D02*
X228219047Y-83780952D01*
X228257142Y-83800000D01*
X228276190Y-83819047D01*
X228295238Y-83857142D01*
X228314285Y-83933333D01*
X228314285Y-84028571D01*
X228295238Y-84104761D01*
X228276190Y-84142857D01*
X228257142Y-84161904D01*
X228219047Y-84180952D01*
X228180952Y-84180952D01*
X228142857Y-84161904D01*
X228123809Y-84142857D01*
X228104761Y-84104761D01*
X228085714Y-84028571D01*
X228085714Y-83933333D01*
X228104761Y-83857142D01*
X228123809Y-83819047D01*
X228142857Y-83800000D01*
X228180952Y-83780952D01*
X228447619Y-83780952D02*
X228714285Y-83780952D01*
X228542857Y-84180952D01*
G04 #@! TO.C,D308*
D12*
X227357142Y-88022380D02*
X226880952Y-88022380D01*
X226880952Y-87022380D01*
X227690476Y-87498571D02*
X228023809Y-87498571D01*
X228166666Y-88022380D02*
X227690476Y-88022380D01*
X227690476Y-87022380D01*
X228166666Y-87022380D01*
X228595238Y-88022380D02*
X228595238Y-87022380D01*
X228833333Y-87022380D01*
X228976190Y-87070000D01*
X229071428Y-87165238D01*
X229119047Y-87260476D01*
X229166666Y-87450952D01*
X229166666Y-87593809D01*
X229119047Y-87784285D01*
X229071428Y-87879523D01*
X228976190Y-87974761D01*
X228833333Y-88022380D01*
X228595238Y-88022380D01*
D14*
X227323809Y-89180952D02*
X227323809Y-88780952D01*
X227419047Y-88780952D01*
X227476190Y-88800000D01*
X227514285Y-88838095D01*
X227533333Y-88876190D01*
X227552380Y-88952380D01*
X227552380Y-89009523D01*
X227533333Y-89085714D01*
X227514285Y-89123809D01*
X227476190Y-89161904D01*
X227419047Y-89180952D01*
X227323809Y-89180952D01*
X227685714Y-88780952D02*
X227933333Y-88780952D01*
X227800000Y-88933333D01*
X227857142Y-88933333D01*
X227895238Y-88952380D01*
X227914285Y-88971428D01*
X227933333Y-89009523D01*
X227933333Y-89104761D01*
X227914285Y-89142857D01*
X227895238Y-89161904D01*
X227857142Y-89180952D01*
X227742857Y-89180952D01*
X227704761Y-89161904D01*
X227685714Y-89142857D01*
X228180952Y-88780952D02*
X228219047Y-88780952D01*
X228257142Y-88800000D01*
X228276190Y-88819047D01*
X228295238Y-88857142D01*
X228314285Y-88933333D01*
X228314285Y-89028571D01*
X228295238Y-89104761D01*
X228276190Y-89142857D01*
X228257142Y-89161904D01*
X228219047Y-89180952D01*
X228180952Y-89180952D01*
X228142857Y-89161904D01*
X228123809Y-89142857D01*
X228104761Y-89104761D01*
X228085714Y-89028571D01*
X228085714Y-88933333D01*
X228104761Y-88857142D01*
X228123809Y-88819047D01*
X228142857Y-88800000D01*
X228180952Y-88780952D01*
X228542857Y-88952380D02*
X228504761Y-88933333D01*
X228485714Y-88914285D01*
X228466666Y-88876190D01*
X228466666Y-88857142D01*
X228485714Y-88819047D01*
X228504761Y-88800000D01*
X228542857Y-88780952D01*
X228619047Y-88780952D01*
X228657142Y-88800000D01*
X228676190Y-88819047D01*
X228695238Y-88857142D01*
X228695238Y-88876190D01*
X228676190Y-88914285D01*
X228657142Y-88933333D01*
X228619047Y-88952380D01*
X228542857Y-88952380D01*
X228504761Y-88971428D01*
X228485714Y-88990476D01*
X228466666Y-89028571D01*
X228466666Y-89104761D01*
X228485714Y-89142857D01*
X228504761Y-89161904D01*
X228542857Y-89180952D01*
X228619047Y-89180952D01*
X228657142Y-89161904D01*
X228676190Y-89142857D01*
X228695238Y-89104761D01*
X228695238Y-89028571D01*
X228676190Y-88990476D01*
X228657142Y-88971428D01*
X228619047Y-88952380D01*
G04 #@! TO.C,D309*
D12*
X227357142Y-93022380D02*
X226880952Y-93022380D01*
X226880952Y-92022380D01*
X227690476Y-92498571D02*
X228023809Y-92498571D01*
X228166666Y-93022380D02*
X227690476Y-93022380D01*
X227690476Y-92022380D01*
X228166666Y-92022380D01*
X228595238Y-93022380D02*
X228595238Y-92022380D01*
X228833333Y-92022380D01*
X228976190Y-92070000D01*
X229071428Y-92165238D01*
X229119047Y-92260476D01*
X229166666Y-92450952D01*
X229166666Y-92593809D01*
X229119047Y-92784285D01*
X229071428Y-92879523D01*
X228976190Y-92974761D01*
X228833333Y-93022380D01*
X228595238Y-93022380D01*
D14*
X227323809Y-94180952D02*
X227323809Y-93780952D01*
X227419047Y-93780952D01*
X227476190Y-93800000D01*
X227514285Y-93838095D01*
X227533333Y-93876190D01*
X227552380Y-93952380D01*
X227552380Y-94009523D01*
X227533333Y-94085714D01*
X227514285Y-94123809D01*
X227476190Y-94161904D01*
X227419047Y-94180952D01*
X227323809Y-94180952D01*
X227685714Y-93780952D02*
X227933333Y-93780952D01*
X227800000Y-93933333D01*
X227857142Y-93933333D01*
X227895238Y-93952380D01*
X227914285Y-93971428D01*
X227933333Y-94009523D01*
X227933333Y-94104761D01*
X227914285Y-94142857D01*
X227895238Y-94161904D01*
X227857142Y-94180952D01*
X227742857Y-94180952D01*
X227704761Y-94161904D01*
X227685714Y-94142857D01*
X228180952Y-93780952D02*
X228219047Y-93780952D01*
X228257142Y-93800000D01*
X228276190Y-93819047D01*
X228295238Y-93857142D01*
X228314285Y-93933333D01*
X228314285Y-94028571D01*
X228295238Y-94104761D01*
X228276190Y-94142857D01*
X228257142Y-94161904D01*
X228219047Y-94180952D01*
X228180952Y-94180952D01*
X228142857Y-94161904D01*
X228123809Y-94142857D01*
X228104761Y-94104761D01*
X228085714Y-94028571D01*
X228085714Y-93933333D01*
X228104761Y-93857142D01*
X228123809Y-93819047D01*
X228142857Y-93800000D01*
X228180952Y-93780952D01*
X228504761Y-94180952D02*
X228580952Y-94180952D01*
X228619047Y-94161904D01*
X228638095Y-94142857D01*
X228676190Y-94085714D01*
X228695238Y-94009523D01*
X228695238Y-93857142D01*
X228676190Y-93819047D01*
X228657142Y-93800000D01*
X228619047Y-93780952D01*
X228542857Y-93780952D01*
X228504761Y-93800000D01*
X228485714Y-93819047D01*
X228466666Y-93857142D01*
X228466666Y-93952380D01*
X228485714Y-93990476D01*
X228504761Y-94009523D01*
X228542857Y-94028571D01*
X228619047Y-94028571D01*
X228657142Y-94009523D01*
X228676190Y-93990476D01*
X228695238Y-93952380D01*
G04 #@! TO.C,ICSP1*
D12*
X180127142Y-122767142D02*
X180079523Y-122814761D01*
X179936666Y-122862380D01*
X179841428Y-122862380D01*
X179698571Y-122814761D01*
X179603333Y-122719523D01*
X179555714Y-122624285D01*
X179508095Y-122433809D01*
X179508095Y-122290952D01*
X179555714Y-122100476D01*
X179603333Y-122005238D01*
X179698571Y-121910000D01*
X179841428Y-121862380D01*
X179936666Y-121862380D01*
X180079523Y-121910000D01*
X180127142Y-121957619D01*
X180698571Y-122862380D02*
X180603333Y-122814761D01*
X180555714Y-122767142D01*
X180508095Y-122671904D01*
X180508095Y-122386190D01*
X180555714Y-122290952D01*
X180603333Y-122243333D01*
X180698571Y-122195714D01*
X180841428Y-122195714D01*
X180936666Y-122243333D01*
X180984285Y-122290952D01*
X181031904Y-122386190D01*
X181031904Y-122671904D01*
X180984285Y-122767142D01*
X180936666Y-122814761D01*
X180841428Y-122862380D01*
X180698571Y-122862380D01*
X181460476Y-122195714D02*
X181460476Y-122862380D01*
X181460476Y-122290952D02*
X181508095Y-122243333D01*
X181603333Y-122195714D01*
X181746190Y-122195714D01*
X181841428Y-122243333D01*
X181889047Y-122338571D01*
X181889047Y-122862380D01*
X182365238Y-122195714D02*
X182365238Y-122862380D01*
X182365238Y-122290952D02*
X182412857Y-122243333D01*
X182508095Y-122195714D01*
X182650952Y-122195714D01*
X182746190Y-122243333D01*
X182793809Y-122338571D01*
X182793809Y-122862380D01*
X183031904Y-122957619D02*
X183793809Y-122957619D01*
X184222380Y-121862380D02*
X184317619Y-121862380D01*
X184412857Y-121910000D01*
X184460476Y-121957619D01*
X184508095Y-122052857D01*
X184555714Y-122243333D01*
X184555714Y-122481428D01*
X184508095Y-122671904D01*
X184460476Y-122767142D01*
X184412857Y-122814761D01*
X184317619Y-122862380D01*
X184222380Y-122862380D01*
X184127142Y-122814761D01*
X184079523Y-122767142D01*
X184031904Y-122671904D01*
X183984285Y-122481428D01*
X183984285Y-122243333D01*
X184031904Y-122052857D01*
X184079523Y-121957619D01*
X184127142Y-121910000D01*
X184222380Y-121862380D01*
X184936666Y-121957619D02*
X184984285Y-121910000D01*
X185079523Y-121862380D01*
X185317619Y-121862380D01*
X185412857Y-121910000D01*
X185460476Y-121957619D01*
X185508095Y-122052857D01*
X185508095Y-122148095D01*
X185460476Y-122290952D01*
X184889047Y-122862380D01*
X185508095Y-122862380D01*
X185841428Y-122862380D02*
X186365238Y-122195714D01*
X185841428Y-122195714D02*
X186365238Y-122862380D01*
X186936666Y-121862380D02*
X187031904Y-121862380D01*
X187127142Y-121910000D01*
X187174761Y-121957619D01*
X187222380Y-122052857D01*
X187270000Y-122243333D01*
X187270000Y-122481428D01*
X187222380Y-122671904D01*
X187174761Y-122767142D01*
X187127142Y-122814761D01*
X187031904Y-122862380D01*
X186936666Y-122862380D01*
X186841428Y-122814761D01*
X186793809Y-122767142D01*
X186746190Y-122671904D01*
X186698571Y-122481428D01*
X186698571Y-122243333D01*
X186746190Y-122052857D01*
X186793809Y-121957619D01*
X186841428Y-121910000D01*
X186936666Y-121862380D01*
X187603333Y-121862380D02*
X188222380Y-121862380D01*
X187889047Y-122243333D01*
X188031904Y-122243333D01*
X188127142Y-122290952D01*
X188174761Y-122338571D01*
X188222380Y-122433809D01*
X188222380Y-122671904D01*
X188174761Y-122767142D01*
X188127142Y-122814761D01*
X188031904Y-122862380D01*
X187746190Y-122862380D01*
X187650952Y-122814761D01*
X187603333Y-122767142D01*
X188412857Y-122957619D02*
X189174761Y-122957619D01*
X189603333Y-121862380D02*
X189793809Y-121862380D01*
X189889047Y-121910000D01*
X189984285Y-122005238D01*
X190031904Y-122195714D01*
X190031904Y-122529047D01*
X189984285Y-122719523D01*
X189889047Y-122814761D01*
X189793809Y-122862380D01*
X189603333Y-122862380D01*
X189508095Y-122814761D01*
X189412857Y-122719523D01*
X189365238Y-122529047D01*
X189365238Y-122195714D01*
X189412857Y-122005238D01*
X189508095Y-121910000D01*
X189603333Y-121862380D01*
X190889047Y-122862380D02*
X190889047Y-121862380D01*
X190889047Y-122814761D02*
X190793809Y-122862380D01*
X190603333Y-122862380D01*
X190508095Y-122814761D01*
X190460476Y-122767142D01*
X190412857Y-122671904D01*
X190412857Y-122386190D01*
X190460476Y-122290952D01*
X190508095Y-122243333D01*
X190603333Y-122195714D01*
X190793809Y-122195714D01*
X190889047Y-122243333D01*
X191793809Y-122862380D02*
X191793809Y-121862380D01*
X191793809Y-122814761D02*
X191698571Y-122862380D01*
X191508095Y-122862380D01*
X191412857Y-122814761D01*
X191365238Y-122767142D01*
X191317619Y-122671904D01*
X191317619Y-122386190D01*
X191365238Y-122290952D01*
X191412857Y-122243333D01*
X191508095Y-122195714D01*
X191698571Y-122195714D01*
X191793809Y-122243333D01*
X192031904Y-122957619D02*
X192793809Y-122957619D01*
X193031904Y-122338571D02*
X193365238Y-122338571D01*
X193508095Y-122862380D02*
X193031904Y-122862380D01*
X193031904Y-121862380D01*
X193508095Y-121862380D01*
X193841428Y-122195714D02*
X194079523Y-122862380D01*
X194317619Y-122195714D01*
X195079523Y-122814761D02*
X194984285Y-122862380D01*
X194793809Y-122862380D01*
X194698571Y-122814761D01*
X194650952Y-122719523D01*
X194650952Y-122338571D01*
X194698571Y-122243333D01*
X194793809Y-122195714D01*
X194984285Y-122195714D01*
X195079523Y-122243333D01*
X195127142Y-122338571D01*
X195127142Y-122433809D01*
X194650952Y-122529047D01*
X195555714Y-122195714D02*
X195555714Y-122862380D01*
X195555714Y-122290952D02*
X195603333Y-122243333D01*
X195698571Y-122195714D01*
X195841428Y-122195714D01*
X195936666Y-122243333D01*
X195984285Y-122338571D01*
X195984285Y-122862380D01*
X187317619Y-115587619D02*
X188317619Y-115587619D01*
X187412857Y-116635238D02*
X187365238Y-116587619D01*
X187317619Y-116444761D01*
X187317619Y-116349523D01*
X187365238Y-116206666D01*
X187460476Y-116111428D01*
X187555714Y-116063809D01*
X187746190Y-116016190D01*
X187889047Y-116016190D01*
X188079523Y-116063809D01*
X188174761Y-116111428D01*
X188270000Y-116206666D01*
X188317619Y-116349523D01*
X188317619Y-116444761D01*
X188270000Y-116587619D01*
X188222380Y-116635238D01*
X187365238Y-117016190D02*
X187317619Y-117159047D01*
X187317619Y-117397142D01*
X187365238Y-117492380D01*
X187412857Y-117540000D01*
X187508095Y-117587619D01*
X187603333Y-117587619D01*
X187698571Y-117540000D01*
X187746190Y-117492380D01*
X187793809Y-117397142D01*
X187841428Y-117206666D01*
X187889047Y-117111428D01*
X187936666Y-117063809D01*
X188031904Y-117016190D01*
X188127142Y-117016190D01*
X188222380Y-117063809D01*
X188270000Y-117111428D01*
X188317619Y-117206666D01*
X188317619Y-117444761D01*
X188270000Y-117587619D01*
X187317619Y-118016190D02*
X188317619Y-118016190D01*
X188317619Y-118397142D01*
X188270000Y-118492380D01*
X188222380Y-118540000D01*
X188127142Y-118587619D01*
X187984285Y-118587619D01*
X187889047Y-118540000D01*
X187841428Y-118492380D01*
X187793809Y-118397142D01*
X187793809Y-118016190D01*
X187317619Y-119540000D02*
X187317619Y-118968571D01*
X187317619Y-119254285D02*
X188317619Y-119254285D01*
X188174761Y-119159047D01*
X188079523Y-119063809D01*
X188031904Y-118968571D01*
G04 #@! TO.C,U401*
X183906601Y-131076381D02*
X183906601Y-131314477D01*
X183668505Y-131219239D02*
X183906601Y-131314477D01*
X184144696Y-131219239D01*
X183763743Y-131504953D02*
X183906601Y-131314477D01*
X184049458Y-131504953D01*
G04 #@! TO.C,C403*
X219785714Y-111904761D02*
X220452380Y-111904761D01*
X219404761Y-112142857D02*
X220119047Y-112380952D01*
X220119047Y-111761904D01*
X220357142Y-111380952D02*
X220404761Y-111333333D01*
X220452380Y-111380952D01*
X220404761Y-111428571D01*
X220357142Y-111380952D01*
X220452380Y-111380952D01*
X219452380Y-111000000D02*
X219452380Y-110333333D01*
X220452380Y-110761904D01*
X219785714Y-109523809D02*
X220452380Y-109523809D01*
X219785714Y-109952380D02*
X220309523Y-109952380D01*
X220404761Y-109904761D01*
X220452380Y-109809523D01*
X220452380Y-109666666D01*
X220404761Y-109571428D01*
X220357142Y-109523809D01*
X219928571Y-108714285D02*
X219928571Y-109047619D01*
X220452380Y-109047619D02*
X219452380Y-109047619D01*
X219452380Y-108571428D01*
D15*
X221607142Y-110835714D02*
X221621428Y-110850000D01*
X221635714Y-110892857D01*
X221635714Y-110921428D01*
X221621428Y-110964285D01*
X221592857Y-110992857D01*
X221564285Y-111007142D01*
X221507142Y-111021428D01*
X221464285Y-111021428D01*
X221407142Y-111007142D01*
X221378571Y-110992857D01*
X221350000Y-110964285D01*
X221335714Y-110921428D01*
X221335714Y-110892857D01*
X221350000Y-110850000D01*
X221364285Y-110835714D01*
X221435714Y-110578571D02*
X221635714Y-110578571D01*
X221321428Y-110650000D02*
X221535714Y-110721428D01*
X221535714Y-110535714D01*
X221335714Y-110364285D02*
X221335714Y-110335714D01*
X221350000Y-110307142D01*
X221364285Y-110292857D01*
X221392857Y-110278571D01*
X221450000Y-110264285D01*
X221521428Y-110264285D01*
X221578571Y-110278571D01*
X221607142Y-110292857D01*
X221621428Y-110307142D01*
X221635714Y-110335714D01*
X221635714Y-110364285D01*
X221621428Y-110392857D01*
X221607142Y-110407142D01*
X221578571Y-110421428D01*
X221521428Y-110435714D01*
X221450000Y-110435714D01*
X221392857Y-110421428D01*
X221364285Y-110407142D01*
X221350000Y-110392857D01*
X221335714Y-110364285D01*
X221335714Y-110164285D02*
X221335714Y-109978571D01*
X221450000Y-110078571D01*
X221450000Y-110035714D01*
X221464285Y-110007142D01*
X221478571Y-109992857D01*
X221507142Y-109978571D01*
X221578571Y-109978571D01*
X221607142Y-109992857D01*
X221621428Y-110007142D01*
X221635714Y-110035714D01*
X221635714Y-110121428D01*
X221621428Y-110150000D01*
X221607142Y-110164285D01*
G04 #@! TO.C,C404*
D12*
X226452380Y-111571428D02*
X226452380Y-112142857D01*
X226452380Y-111857142D02*
X225452380Y-111857142D01*
X225595238Y-111952380D01*
X225690476Y-112047619D01*
X225738095Y-112142857D01*
X225452380Y-110952380D02*
X225452380Y-110857142D01*
X225500000Y-110761904D01*
X225547619Y-110714285D01*
X225642857Y-110666666D01*
X225833333Y-110619047D01*
X226071428Y-110619047D01*
X226261904Y-110666666D01*
X226357142Y-110714285D01*
X226404761Y-110761904D01*
X226452380Y-110857142D01*
X226452380Y-110952380D01*
X226404761Y-111047619D01*
X226357142Y-111095238D01*
X226261904Y-111142857D01*
X226071428Y-111190476D01*
X225833333Y-111190476D01*
X225642857Y-111142857D01*
X225547619Y-111095238D01*
X225500000Y-111047619D01*
X225452380Y-110952380D01*
X225785714Y-109761904D02*
X226452380Y-109761904D01*
X225785714Y-110190476D02*
X226309523Y-110190476D01*
X226404761Y-110142857D01*
X226452380Y-110047619D01*
X226452380Y-109904761D01*
X226404761Y-109809523D01*
X226357142Y-109761904D01*
X225928571Y-108952380D02*
X225928571Y-109285714D01*
X226452380Y-109285714D02*
X225452380Y-109285714D01*
X225452380Y-108809523D01*
D15*
X227607142Y-110835714D02*
X227621428Y-110850000D01*
X227635714Y-110892857D01*
X227635714Y-110921428D01*
X227621428Y-110964285D01*
X227592857Y-110992857D01*
X227564285Y-111007142D01*
X227507142Y-111021428D01*
X227464285Y-111021428D01*
X227407142Y-111007142D01*
X227378571Y-110992857D01*
X227350000Y-110964285D01*
X227335714Y-110921428D01*
X227335714Y-110892857D01*
X227350000Y-110850000D01*
X227364285Y-110835714D01*
X227435714Y-110578571D02*
X227635714Y-110578571D01*
X227321428Y-110650000D02*
X227535714Y-110721428D01*
X227535714Y-110535714D01*
X227335714Y-110364285D02*
X227335714Y-110335714D01*
X227350000Y-110307142D01*
X227364285Y-110292857D01*
X227392857Y-110278571D01*
X227450000Y-110264285D01*
X227521428Y-110264285D01*
X227578571Y-110278571D01*
X227607142Y-110292857D01*
X227621428Y-110307142D01*
X227635714Y-110335714D01*
X227635714Y-110364285D01*
X227621428Y-110392857D01*
X227607142Y-110407142D01*
X227578571Y-110421428D01*
X227521428Y-110435714D01*
X227450000Y-110435714D01*
X227392857Y-110421428D01*
X227364285Y-110407142D01*
X227350000Y-110392857D01*
X227335714Y-110364285D01*
X227435714Y-110007142D02*
X227635714Y-110007142D01*
X227321428Y-110078571D02*
X227535714Y-110150000D01*
X227535714Y-109964285D01*
G04 #@! TO.C,L401*
D12*
X221185714Y-112000000D02*
X221852380Y-112000000D01*
X220804761Y-112238095D02*
X221519047Y-112476190D01*
X221519047Y-111857142D01*
X221757142Y-111476190D02*
X221804761Y-111428571D01*
X221852380Y-111476190D01*
X221804761Y-111523809D01*
X221757142Y-111476190D01*
X221852380Y-111476190D01*
X220852380Y-111095238D02*
X220852380Y-110428571D01*
X221852380Y-110857142D01*
X221185714Y-109619047D02*
X221852380Y-109619047D01*
X221185714Y-110047619D02*
X221709523Y-110047619D01*
X221804761Y-110000000D01*
X221852380Y-109904761D01*
X221852380Y-109761904D01*
X221804761Y-109666666D01*
X221757142Y-109619047D01*
X221852380Y-109142857D02*
X220852380Y-109142857D01*
X221328571Y-109142857D02*
X221328571Y-108571428D01*
X221852380Y-108571428D02*
X220852380Y-108571428D01*
D15*
X219680952Y-110947619D02*
X219680952Y-111138095D01*
X219280952Y-111138095D01*
X219414285Y-110642857D02*
X219680952Y-110642857D01*
X219261904Y-110738095D02*
X219547619Y-110833333D01*
X219547619Y-110585714D01*
X219280952Y-110357142D02*
X219280952Y-110319047D01*
X219300000Y-110280952D01*
X219319047Y-110261904D01*
X219357142Y-110242857D01*
X219433333Y-110223809D01*
X219528571Y-110223809D01*
X219604761Y-110242857D01*
X219642857Y-110261904D01*
X219661904Y-110280952D01*
X219680952Y-110319047D01*
X219680952Y-110357142D01*
X219661904Y-110395238D01*
X219642857Y-110414285D01*
X219604761Y-110433333D01*
X219528571Y-110452380D01*
X219433333Y-110452380D01*
X219357142Y-110433333D01*
X219319047Y-110414285D01*
X219300000Y-110395238D01*
X219280952Y-110357142D01*
X219680952Y-109842857D02*
X219680952Y-110071428D01*
X219680952Y-109957142D02*
X219280952Y-109957142D01*
X219338095Y-109995238D01*
X219376190Y-110033333D01*
X219395238Y-110071428D01*
G04 #@! TO.C,R201*
D12*
X223333333Y-55952380D02*
X222761904Y-55952380D01*
X223047619Y-55952380D02*
X223047619Y-54952380D01*
X222952380Y-55095238D01*
X222857142Y-55190476D01*
X222761904Y-55238095D01*
X224238095Y-54952380D02*
X223761904Y-54952380D01*
X223714285Y-55428571D01*
X223761904Y-55380952D01*
X223857142Y-55333333D01*
X224095238Y-55333333D01*
X224190476Y-55380952D01*
X224238095Y-55428571D01*
X224285714Y-55523809D01*
X224285714Y-55761904D01*
X224238095Y-55857142D01*
X224190476Y-55904761D01*
X224095238Y-55952380D01*
X223857142Y-55952380D01*
X223761904Y-55904761D01*
X223714285Y-55857142D01*
X224904761Y-54952380D02*
X225000000Y-54952380D01*
X225095238Y-55000000D01*
X225142857Y-55047619D01*
X225190476Y-55142857D01*
X225238095Y-55333333D01*
X225238095Y-55571428D01*
X225190476Y-55761904D01*
X225142857Y-55857142D01*
X225095238Y-55904761D01*
X225000000Y-55952380D01*
X224904761Y-55952380D01*
X224809523Y-55904761D01*
X224761904Y-55857142D01*
X224714285Y-55761904D01*
X224666666Y-55571428D01*
X224666666Y-55333333D01*
X224714285Y-55142857D01*
X224761904Y-55047619D01*
X224809523Y-55000000D01*
X224904761Y-54952380D01*
X226238095Y-55952380D02*
X225904761Y-55476190D01*
X225666666Y-55952380D02*
X225666666Y-54952380D01*
X226047619Y-54952380D01*
X226142857Y-55000000D01*
X226190476Y-55047619D01*
X226238095Y-55142857D01*
X226238095Y-55285714D01*
X226190476Y-55380952D01*
X226142857Y-55428571D01*
X226047619Y-55476190D01*
X225666666Y-55476190D01*
D15*
X224052380Y-54180952D02*
X223919047Y-53990476D01*
X223823809Y-54180952D02*
X223823809Y-53780952D01*
X223976190Y-53780952D01*
X224014285Y-53800000D01*
X224033333Y-53819047D01*
X224052380Y-53857142D01*
X224052380Y-53914285D01*
X224033333Y-53952380D01*
X224014285Y-53971428D01*
X223976190Y-53990476D01*
X223823809Y-53990476D01*
X224204761Y-53819047D02*
X224223809Y-53800000D01*
X224261904Y-53780952D01*
X224357142Y-53780952D01*
X224395238Y-53800000D01*
X224414285Y-53819047D01*
X224433333Y-53857142D01*
X224433333Y-53895238D01*
X224414285Y-53952380D01*
X224185714Y-54180952D01*
X224433333Y-54180952D01*
X224680952Y-53780952D02*
X224719047Y-53780952D01*
X224757142Y-53800000D01*
X224776190Y-53819047D01*
X224795238Y-53857142D01*
X224814285Y-53933333D01*
X224814285Y-54028571D01*
X224795238Y-54104761D01*
X224776190Y-54142857D01*
X224757142Y-54161904D01*
X224719047Y-54180952D01*
X224680952Y-54180952D01*
X224642857Y-54161904D01*
X224623809Y-54142857D01*
X224604761Y-54104761D01*
X224585714Y-54028571D01*
X224585714Y-53933333D01*
X224604761Y-53857142D01*
X224623809Y-53819047D01*
X224642857Y-53800000D01*
X224680952Y-53780952D01*
X225195238Y-54180952D02*
X224966666Y-54180952D01*
X225080952Y-54180952D02*
X225080952Y-53780952D01*
X225042857Y-53838095D01*
X225004761Y-53876190D01*
X224966666Y-53895238D01*
G04 #@! TO.C,R202*
D12*
X223333333Y-60952380D02*
X222761904Y-60952380D01*
X223047619Y-60952380D02*
X223047619Y-59952380D01*
X222952380Y-60095238D01*
X222857142Y-60190476D01*
X222761904Y-60238095D01*
X224238095Y-59952380D02*
X223761904Y-59952380D01*
X223714285Y-60428571D01*
X223761904Y-60380952D01*
X223857142Y-60333333D01*
X224095238Y-60333333D01*
X224190476Y-60380952D01*
X224238095Y-60428571D01*
X224285714Y-60523809D01*
X224285714Y-60761904D01*
X224238095Y-60857142D01*
X224190476Y-60904761D01*
X224095238Y-60952380D01*
X223857142Y-60952380D01*
X223761904Y-60904761D01*
X223714285Y-60857142D01*
X224904761Y-59952380D02*
X225000000Y-59952380D01*
X225095238Y-60000000D01*
X225142857Y-60047619D01*
X225190476Y-60142857D01*
X225238095Y-60333333D01*
X225238095Y-60571428D01*
X225190476Y-60761904D01*
X225142857Y-60857142D01*
X225095238Y-60904761D01*
X225000000Y-60952380D01*
X224904761Y-60952380D01*
X224809523Y-60904761D01*
X224761904Y-60857142D01*
X224714285Y-60761904D01*
X224666666Y-60571428D01*
X224666666Y-60333333D01*
X224714285Y-60142857D01*
X224761904Y-60047619D01*
X224809523Y-60000000D01*
X224904761Y-59952380D01*
X226238095Y-60952380D02*
X225904761Y-60476190D01*
X225666666Y-60952380D02*
X225666666Y-59952380D01*
X226047619Y-59952380D01*
X226142857Y-60000000D01*
X226190476Y-60047619D01*
X226238095Y-60142857D01*
X226238095Y-60285714D01*
X226190476Y-60380952D01*
X226142857Y-60428571D01*
X226047619Y-60476190D01*
X225666666Y-60476190D01*
D15*
X224052380Y-59180952D02*
X223919047Y-58990476D01*
X223823809Y-59180952D02*
X223823809Y-58780952D01*
X223976190Y-58780952D01*
X224014285Y-58800000D01*
X224033333Y-58819047D01*
X224052380Y-58857142D01*
X224052380Y-58914285D01*
X224033333Y-58952380D01*
X224014285Y-58971428D01*
X223976190Y-58990476D01*
X223823809Y-58990476D01*
X224204761Y-58819047D02*
X224223809Y-58800000D01*
X224261904Y-58780952D01*
X224357142Y-58780952D01*
X224395238Y-58800000D01*
X224414285Y-58819047D01*
X224433333Y-58857142D01*
X224433333Y-58895238D01*
X224414285Y-58952380D01*
X224185714Y-59180952D01*
X224433333Y-59180952D01*
X224680952Y-58780952D02*
X224719047Y-58780952D01*
X224757142Y-58800000D01*
X224776190Y-58819047D01*
X224795238Y-58857142D01*
X224814285Y-58933333D01*
X224814285Y-59028571D01*
X224795238Y-59104761D01*
X224776190Y-59142857D01*
X224757142Y-59161904D01*
X224719047Y-59180952D01*
X224680952Y-59180952D01*
X224642857Y-59161904D01*
X224623809Y-59142857D01*
X224604761Y-59104761D01*
X224585714Y-59028571D01*
X224585714Y-58933333D01*
X224604761Y-58857142D01*
X224623809Y-58819047D01*
X224642857Y-58800000D01*
X224680952Y-58780952D01*
X224966666Y-58819047D02*
X224985714Y-58800000D01*
X225023809Y-58780952D01*
X225119047Y-58780952D01*
X225157142Y-58800000D01*
X225176190Y-58819047D01*
X225195238Y-58857142D01*
X225195238Y-58895238D01*
X225176190Y-58952380D01*
X224947619Y-59180952D01*
X225195238Y-59180952D01*
G04 #@! TO.C,R203*
D12*
X223333333Y-65952380D02*
X222761904Y-65952380D01*
X223047619Y-65952380D02*
X223047619Y-64952380D01*
X222952380Y-65095238D01*
X222857142Y-65190476D01*
X222761904Y-65238095D01*
X224238095Y-64952380D02*
X223761904Y-64952380D01*
X223714285Y-65428571D01*
X223761904Y-65380952D01*
X223857142Y-65333333D01*
X224095238Y-65333333D01*
X224190476Y-65380952D01*
X224238095Y-65428571D01*
X224285714Y-65523809D01*
X224285714Y-65761904D01*
X224238095Y-65857142D01*
X224190476Y-65904761D01*
X224095238Y-65952380D01*
X223857142Y-65952380D01*
X223761904Y-65904761D01*
X223714285Y-65857142D01*
X224904761Y-64952380D02*
X225000000Y-64952380D01*
X225095238Y-65000000D01*
X225142857Y-65047619D01*
X225190476Y-65142857D01*
X225238095Y-65333333D01*
X225238095Y-65571428D01*
X225190476Y-65761904D01*
X225142857Y-65857142D01*
X225095238Y-65904761D01*
X225000000Y-65952380D01*
X224904761Y-65952380D01*
X224809523Y-65904761D01*
X224761904Y-65857142D01*
X224714285Y-65761904D01*
X224666666Y-65571428D01*
X224666666Y-65333333D01*
X224714285Y-65142857D01*
X224761904Y-65047619D01*
X224809523Y-65000000D01*
X224904761Y-64952380D01*
X226238095Y-65952380D02*
X225904761Y-65476190D01*
X225666666Y-65952380D02*
X225666666Y-64952380D01*
X226047619Y-64952380D01*
X226142857Y-65000000D01*
X226190476Y-65047619D01*
X226238095Y-65142857D01*
X226238095Y-65285714D01*
X226190476Y-65380952D01*
X226142857Y-65428571D01*
X226047619Y-65476190D01*
X225666666Y-65476190D01*
D15*
X224052380Y-64180952D02*
X223919047Y-63990476D01*
X223823809Y-64180952D02*
X223823809Y-63780952D01*
X223976190Y-63780952D01*
X224014285Y-63800000D01*
X224033333Y-63819047D01*
X224052380Y-63857142D01*
X224052380Y-63914285D01*
X224033333Y-63952380D01*
X224014285Y-63971428D01*
X223976190Y-63990476D01*
X223823809Y-63990476D01*
X224204761Y-63819047D02*
X224223809Y-63800000D01*
X224261904Y-63780952D01*
X224357142Y-63780952D01*
X224395238Y-63800000D01*
X224414285Y-63819047D01*
X224433333Y-63857142D01*
X224433333Y-63895238D01*
X224414285Y-63952380D01*
X224185714Y-64180952D01*
X224433333Y-64180952D01*
X224680952Y-63780952D02*
X224719047Y-63780952D01*
X224757142Y-63800000D01*
X224776190Y-63819047D01*
X224795238Y-63857142D01*
X224814285Y-63933333D01*
X224814285Y-64028571D01*
X224795238Y-64104761D01*
X224776190Y-64142857D01*
X224757142Y-64161904D01*
X224719047Y-64180952D01*
X224680952Y-64180952D01*
X224642857Y-64161904D01*
X224623809Y-64142857D01*
X224604761Y-64104761D01*
X224585714Y-64028571D01*
X224585714Y-63933333D01*
X224604761Y-63857142D01*
X224623809Y-63819047D01*
X224642857Y-63800000D01*
X224680952Y-63780952D01*
X224947619Y-63780952D02*
X225195238Y-63780952D01*
X225061904Y-63933333D01*
X225119047Y-63933333D01*
X225157142Y-63952380D01*
X225176190Y-63971428D01*
X225195238Y-64009523D01*
X225195238Y-64104761D01*
X225176190Y-64142857D01*
X225157142Y-64161904D01*
X225119047Y-64180952D01*
X225004761Y-64180952D01*
X224966666Y-64161904D01*
X224947619Y-64142857D01*
G04 #@! TO.C,R204*
D12*
X223333333Y-70952380D02*
X222761904Y-70952380D01*
X223047619Y-70952380D02*
X223047619Y-69952380D01*
X222952380Y-70095238D01*
X222857142Y-70190476D01*
X222761904Y-70238095D01*
X224238095Y-69952380D02*
X223761904Y-69952380D01*
X223714285Y-70428571D01*
X223761904Y-70380952D01*
X223857142Y-70333333D01*
X224095238Y-70333333D01*
X224190476Y-70380952D01*
X224238095Y-70428571D01*
X224285714Y-70523809D01*
X224285714Y-70761904D01*
X224238095Y-70857142D01*
X224190476Y-70904761D01*
X224095238Y-70952380D01*
X223857142Y-70952380D01*
X223761904Y-70904761D01*
X223714285Y-70857142D01*
X224904761Y-69952380D02*
X225000000Y-69952380D01*
X225095238Y-70000000D01*
X225142857Y-70047619D01*
X225190476Y-70142857D01*
X225238095Y-70333333D01*
X225238095Y-70571428D01*
X225190476Y-70761904D01*
X225142857Y-70857142D01*
X225095238Y-70904761D01*
X225000000Y-70952380D01*
X224904761Y-70952380D01*
X224809523Y-70904761D01*
X224761904Y-70857142D01*
X224714285Y-70761904D01*
X224666666Y-70571428D01*
X224666666Y-70333333D01*
X224714285Y-70142857D01*
X224761904Y-70047619D01*
X224809523Y-70000000D01*
X224904761Y-69952380D01*
X226238095Y-70952380D02*
X225904761Y-70476190D01*
X225666666Y-70952380D02*
X225666666Y-69952380D01*
X226047619Y-69952380D01*
X226142857Y-70000000D01*
X226190476Y-70047619D01*
X226238095Y-70142857D01*
X226238095Y-70285714D01*
X226190476Y-70380952D01*
X226142857Y-70428571D01*
X226047619Y-70476190D01*
X225666666Y-70476190D01*
D15*
X224052380Y-69180952D02*
X223919047Y-68990476D01*
X223823809Y-69180952D02*
X223823809Y-68780952D01*
X223976190Y-68780952D01*
X224014285Y-68800000D01*
X224033333Y-68819047D01*
X224052380Y-68857142D01*
X224052380Y-68914285D01*
X224033333Y-68952380D01*
X224014285Y-68971428D01*
X223976190Y-68990476D01*
X223823809Y-68990476D01*
X224204761Y-68819047D02*
X224223809Y-68800000D01*
X224261904Y-68780952D01*
X224357142Y-68780952D01*
X224395238Y-68800000D01*
X224414285Y-68819047D01*
X224433333Y-68857142D01*
X224433333Y-68895238D01*
X224414285Y-68952380D01*
X224185714Y-69180952D01*
X224433333Y-69180952D01*
X224680952Y-68780952D02*
X224719047Y-68780952D01*
X224757142Y-68800000D01*
X224776190Y-68819047D01*
X224795238Y-68857142D01*
X224814285Y-68933333D01*
X224814285Y-69028571D01*
X224795238Y-69104761D01*
X224776190Y-69142857D01*
X224757142Y-69161904D01*
X224719047Y-69180952D01*
X224680952Y-69180952D01*
X224642857Y-69161904D01*
X224623809Y-69142857D01*
X224604761Y-69104761D01*
X224585714Y-69028571D01*
X224585714Y-68933333D01*
X224604761Y-68857142D01*
X224623809Y-68819047D01*
X224642857Y-68800000D01*
X224680952Y-68780952D01*
X225157142Y-68914285D02*
X225157142Y-69180952D01*
X225061904Y-68761904D02*
X224966666Y-69047619D01*
X225214285Y-69047619D01*
G04 #@! TO.C,R205*
D12*
X223333333Y-75952380D02*
X222761904Y-75952380D01*
X223047619Y-75952380D02*
X223047619Y-74952380D01*
X222952380Y-75095238D01*
X222857142Y-75190476D01*
X222761904Y-75238095D01*
X224238095Y-74952380D02*
X223761904Y-74952380D01*
X223714285Y-75428571D01*
X223761904Y-75380952D01*
X223857142Y-75333333D01*
X224095238Y-75333333D01*
X224190476Y-75380952D01*
X224238095Y-75428571D01*
X224285714Y-75523809D01*
X224285714Y-75761904D01*
X224238095Y-75857142D01*
X224190476Y-75904761D01*
X224095238Y-75952380D01*
X223857142Y-75952380D01*
X223761904Y-75904761D01*
X223714285Y-75857142D01*
X224904761Y-74952380D02*
X225000000Y-74952380D01*
X225095238Y-75000000D01*
X225142857Y-75047619D01*
X225190476Y-75142857D01*
X225238095Y-75333333D01*
X225238095Y-75571428D01*
X225190476Y-75761904D01*
X225142857Y-75857142D01*
X225095238Y-75904761D01*
X225000000Y-75952380D01*
X224904761Y-75952380D01*
X224809523Y-75904761D01*
X224761904Y-75857142D01*
X224714285Y-75761904D01*
X224666666Y-75571428D01*
X224666666Y-75333333D01*
X224714285Y-75142857D01*
X224761904Y-75047619D01*
X224809523Y-75000000D01*
X224904761Y-74952380D01*
X226238095Y-75952380D02*
X225904761Y-75476190D01*
X225666666Y-75952380D02*
X225666666Y-74952380D01*
X226047619Y-74952380D01*
X226142857Y-75000000D01*
X226190476Y-75047619D01*
X226238095Y-75142857D01*
X226238095Y-75285714D01*
X226190476Y-75380952D01*
X226142857Y-75428571D01*
X226047619Y-75476190D01*
X225666666Y-75476190D01*
D15*
X224052380Y-74180952D02*
X223919047Y-73990476D01*
X223823809Y-74180952D02*
X223823809Y-73780952D01*
X223976190Y-73780952D01*
X224014285Y-73800000D01*
X224033333Y-73819047D01*
X224052380Y-73857142D01*
X224052380Y-73914285D01*
X224033333Y-73952380D01*
X224014285Y-73971428D01*
X223976190Y-73990476D01*
X223823809Y-73990476D01*
X224204761Y-73819047D02*
X224223809Y-73800000D01*
X224261904Y-73780952D01*
X224357142Y-73780952D01*
X224395238Y-73800000D01*
X224414285Y-73819047D01*
X224433333Y-73857142D01*
X224433333Y-73895238D01*
X224414285Y-73952380D01*
X224185714Y-74180952D01*
X224433333Y-74180952D01*
X224680952Y-73780952D02*
X224719047Y-73780952D01*
X224757142Y-73800000D01*
X224776190Y-73819047D01*
X224795238Y-73857142D01*
X224814285Y-73933333D01*
X224814285Y-74028571D01*
X224795238Y-74104761D01*
X224776190Y-74142857D01*
X224757142Y-74161904D01*
X224719047Y-74180952D01*
X224680952Y-74180952D01*
X224642857Y-74161904D01*
X224623809Y-74142857D01*
X224604761Y-74104761D01*
X224585714Y-74028571D01*
X224585714Y-73933333D01*
X224604761Y-73857142D01*
X224623809Y-73819047D01*
X224642857Y-73800000D01*
X224680952Y-73780952D01*
X225176190Y-73780952D02*
X224985714Y-73780952D01*
X224966666Y-73971428D01*
X224985714Y-73952380D01*
X225023809Y-73933333D01*
X225119047Y-73933333D01*
X225157142Y-73952380D01*
X225176190Y-73971428D01*
X225195238Y-74009523D01*
X225195238Y-74104761D01*
X225176190Y-74142857D01*
X225157142Y-74161904D01*
X225119047Y-74180952D01*
X225023809Y-74180952D01*
X224985714Y-74161904D01*
X224966666Y-74142857D01*
G04 #@! TO.C,R206*
D12*
X223333333Y-80952380D02*
X222761904Y-80952380D01*
X223047619Y-80952380D02*
X223047619Y-79952380D01*
X222952380Y-80095238D01*
X222857142Y-80190476D01*
X222761904Y-80238095D01*
X224238095Y-79952380D02*
X223761904Y-79952380D01*
X223714285Y-80428571D01*
X223761904Y-80380952D01*
X223857142Y-80333333D01*
X224095238Y-80333333D01*
X224190476Y-80380952D01*
X224238095Y-80428571D01*
X224285714Y-80523809D01*
X224285714Y-80761904D01*
X224238095Y-80857142D01*
X224190476Y-80904761D01*
X224095238Y-80952380D01*
X223857142Y-80952380D01*
X223761904Y-80904761D01*
X223714285Y-80857142D01*
X224904761Y-79952380D02*
X225000000Y-79952380D01*
X225095238Y-80000000D01*
X225142857Y-80047619D01*
X225190476Y-80142857D01*
X225238095Y-80333333D01*
X225238095Y-80571428D01*
X225190476Y-80761904D01*
X225142857Y-80857142D01*
X225095238Y-80904761D01*
X225000000Y-80952380D01*
X224904761Y-80952380D01*
X224809523Y-80904761D01*
X224761904Y-80857142D01*
X224714285Y-80761904D01*
X224666666Y-80571428D01*
X224666666Y-80333333D01*
X224714285Y-80142857D01*
X224761904Y-80047619D01*
X224809523Y-80000000D01*
X224904761Y-79952380D01*
X226238095Y-80952380D02*
X225904761Y-80476190D01*
X225666666Y-80952380D02*
X225666666Y-79952380D01*
X226047619Y-79952380D01*
X226142857Y-80000000D01*
X226190476Y-80047619D01*
X226238095Y-80142857D01*
X226238095Y-80285714D01*
X226190476Y-80380952D01*
X226142857Y-80428571D01*
X226047619Y-80476190D01*
X225666666Y-80476190D01*
D15*
X224052380Y-79180952D02*
X223919047Y-78990476D01*
X223823809Y-79180952D02*
X223823809Y-78780952D01*
X223976190Y-78780952D01*
X224014285Y-78800000D01*
X224033333Y-78819047D01*
X224052380Y-78857142D01*
X224052380Y-78914285D01*
X224033333Y-78952380D01*
X224014285Y-78971428D01*
X223976190Y-78990476D01*
X223823809Y-78990476D01*
X224204761Y-78819047D02*
X224223809Y-78800000D01*
X224261904Y-78780952D01*
X224357142Y-78780952D01*
X224395238Y-78800000D01*
X224414285Y-78819047D01*
X224433333Y-78857142D01*
X224433333Y-78895238D01*
X224414285Y-78952380D01*
X224185714Y-79180952D01*
X224433333Y-79180952D01*
X224680952Y-78780952D02*
X224719047Y-78780952D01*
X224757142Y-78800000D01*
X224776190Y-78819047D01*
X224795238Y-78857142D01*
X224814285Y-78933333D01*
X224814285Y-79028571D01*
X224795238Y-79104761D01*
X224776190Y-79142857D01*
X224757142Y-79161904D01*
X224719047Y-79180952D01*
X224680952Y-79180952D01*
X224642857Y-79161904D01*
X224623809Y-79142857D01*
X224604761Y-79104761D01*
X224585714Y-79028571D01*
X224585714Y-78933333D01*
X224604761Y-78857142D01*
X224623809Y-78819047D01*
X224642857Y-78800000D01*
X224680952Y-78780952D01*
X225157142Y-78780952D02*
X225080952Y-78780952D01*
X225042857Y-78800000D01*
X225023809Y-78819047D01*
X224985714Y-78876190D01*
X224966666Y-78952380D01*
X224966666Y-79104761D01*
X224985714Y-79142857D01*
X225004761Y-79161904D01*
X225042857Y-79180952D01*
X225119047Y-79180952D01*
X225157142Y-79161904D01*
X225176190Y-79142857D01*
X225195238Y-79104761D01*
X225195238Y-79009523D01*
X225176190Y-78971428D01*
X225157142Y-78952380D01*
X225119047Y-78933333D01*
X225042857Y-78933333D01*
X225004761Y-78952380D01*
X224985714Y-78971428D01*
X224966666Y-79009523D01*
G04 #@! TO.C,R207*
D12*
X223333333Y-85952380D02*
X222761904Y-85952380D01*
X223047619Y-85952380D02*
X223047619Y-84952380D01*
X222952380Y-85095238D01*
X222857142Y-85190476D01*
X222761904Y-85238095D01*
X224238095Y-84952380D02*
X223761904Y-84952380D01*
X223714285Y-85428571D01*
X223761904Y-85380952D01*
X223857142Y-85333333D01*
X224095238Y-85333333D01*
X224190476Y-85380952D01*
X224238095Y-85428571D01*
X224285714Y-85523809D01*
X224285714Y-85761904D01*
X224238095Y-85857142D01*
X224190476Y-85904761D01*
X224095238Y-85952380D01*
X223857142Y-85952380D01*
X223761904Y-85904761D01*
X223714285Y-85857142D01*
X224904761Y-84952380D02*
X225000000Y-84952380D01*
X225095238Y-85000000D01*
X225142857Y-85047619D01*
X225190476Y-85142857D01*
X225238095Y-85333333D01*
X225238095Y-85571428D01*
X225190476Y-85761904D01*
X225142857Y-85857142D01*
X225095238Y-85904761D01*
X225000000Y-85952380D01*
X224904761Y-85952380D01*
X224809523Y-85904761D01*
X224761904Y-85857142D01*
X224714285Y-85761904D01*
X224666666Y-85571428D01*
X224666666Y-85333333D01*
X224714285Y-85142857D01*
X224761904Y-85047619D01*
X224809523Y-85000000D01*
X224904761Y-84952380D01*
X226238095Y-85952380D02*
X225904761Y-85476190D01*
X225666666Y-85952380D02*
X225666666Y-84952380D01*
X226047619Y-84952380D01*
X226142857Y-85000000D01*
X226190476Y-85047619D01*
X226238095Y-85142857D01*
X226238095Y-85285714D01*
X226190476Y-85380952D01*
X226142857Y-85428571D01*
X226047619Y-85476190D01*
X225666666Y-85476190D01*
D15*
X224052380Y-84180952D02*
X223919047Y-83990476D01*
X223823809Y-84180952D02*
X223823809Y-83780952D01*
X223976190Y-83780952D01*
X224014285Y-83800000D01*
X224033333Y-83819047D01*
X224052380Y-83857142D01*
X224052380Y-83914285D01*
X224033333Y-83952380D01*
X224014285Y-83971428D01*
X223976190Y-83990476D01*
X223823809Y-83990476D01*
X224204761Y-83819047D02*
X224223809Y-83800000D01*
X224261904Y-83780952D01*
X224357142Y-83780952D01*
X224395238Y-83800000D01*
X224414285Y-83819047D01*
X224433333Y-83857142D01*
X224433333Y-83895238D01*
X224414285Y-83952380D01*
X224185714Y-84180952D01*
X224433333Y-84180952D01*
X224680952Y-83780952D02*
X224719047Y-83780952D01*
X224757142Y-83800000D01*
X224776190Y-83819047D01*
X224795238Y-83857142D01*
X224814285Y-83933333D01*
X224814285Y-84028571D01*
X224795238Y-84104761D01*
X224776190Y-84142857D01*
X224757142Y-84161904D01*
X224719047Y-84180952D01*
X224680952Y-84180952D01*
X224642857Y-84161904D01*
X224623809Y-84142857D01*
X224604761Y-84104761D01*
X224585714Y-84028571D01*
X224585714Y-83933333D01*
X224604761Y-83857142D01*
X224623809Y-83819047D01*
X224642857Y-83800000D01*
X224680952Y-83780952D01*
X224947619Y-83780952D02*
X225214285Y-83780952D01*
X225042857Y-84180952D01*
G04 #@! TO.C,R208*
D12*
X223333333Y-90952380D02*
X222761904Y-90952380D01*
X223047619Y-90952380D02*
X223047619Y-89952380D01*
X222952380Y-90095238D01*
X222857142Y-90190476D01*
X222761904Y-90238095D01*
X224238095Y-89952380D02*
X223761904Y-89952380D01*
X223714285Y-90428571D01*
X223761904Y-90380952D01*
X223857142Y-90333333D01*
X224095238Y-90333333D01*
X224190476Y-90380952D01*
X224238095Y-90428571D01*
X224285714Y-90523809D01*
X224285714Y-90761904D01*
X224238095Y-90857142D01*
X224190476Y-90904761D01*
X224095238Y-90952380D01*
X223857142Y-90952380D01*
X223761904Y-90904761D01*
X223714285Y-90857142D01*
X224904761Y-89952380D02*
X225000000Y-89952380D01*
X225095238Y-90000000D01*
X225142857Y-90047619D01*
X225190476Y-90142857D01*
X225238095Y-90333333D01*
X225238095Y-90571428D01*
X225190476Y-90761904D01*
X225142857Y-90857142D01*
X225095238Y-90904761D01*
X225000000Y-90952380D01*
X224904761Y-90952380D01*
X224809523Y-90904761D01*
X224761904Y-90857142D01*
X224714285Y-90761904D01*
X224666666Y-90571428D01*
X224666666Y-90333333D01*
X224714285Y-90142857D01*
X224761904Y-90047619D01*
X224809523Y-90000000D01*
X224904761Y-89952380D01*
X226238095Y-90952380D02*
X225904761Y-90476190D01*
X225666666Y-90952380D02*
X225666666Y-89952380D01*
X226047619Y-89952380D01*
X226142857Y-90000000D01*
X226190476Y-90047619D01*
X226238095Y-90142857D01*
X226238095Y-90285714D01*
X226190476Y-90380952D01*
X226142857Y-90428571D01*
X226047619Y-90476190D01*
X225666666Y-90476190D01*
D15*
X224052380Y-89180952D02*
X223919047Y-88990476D01*
X223823809Y-89180952D02*
X223823809Y-88780952D01*
X223976190Y-88780952D01*
X224014285Y-88800000D01*
X224033333Y-88819047D01*
X224052380Y-88857142D01*
X224052380Y-88914285D01*
X224033333Y-88952380D01*
X224014285Y-88971428D01*
X223976190Y-88990476D01*
X223823809Y-88990476D01*
X224204761Y-88819047D02*
X224223809Y-88800000D01*
X224261904Y-88780952D01*
X224357142Y-88780952D01*
X224395238Y-88800000D01*
X224414285Y-88819047D01*
X224433333Y-88857142D01*
X224433333Y-88895238D01*
X224414285Y-88952380D01*
X224185714Y-89180952D01*
X224433333Y-89180952D01*
X224680952Y-88780952D02*
X224719047Y-88780952D01*
X224757142Y-88800000D01*
X224776190Y-88819047D01*
X224795238Y-88857142D01*
X224814285Y-88933333D01*
X224814285Y-89028571D01*
X224795238Y-89104761D01*
X224776190Y-89142857D01*
X224757142Y-89161904D01*
X224719047Y-89180952D01*
X224680952Y-89180952D01*
X224642857Y-89161904D01*
X224623809Y-89142857D01*
X224604761Y-89104761D01*
X224585714Y-89028571D01*
X224585714Y-88933333D01*
X224604761Y-88857142D01*
X224623809Y-88819047D01*
X224642857Y-88800000D01*
X224680952Y-88780952D01*
X225042857Y-88952380D02*
X225004761Y-88933333D01*
X224985714Y-88914285D01*
X224966666Y-88876190D01*
X224966666Y-88857142D01*
X224985714Y-88819047D01*
X225004761Y-88800000D01*
X225042857Y-88780952D01*
X225119047Y-88780952D01*
X225157142Y-88800000D01*
X225176190Y-88819047D01*
X225195238Y-88857142D01*
X225195238Y-88876190D01*
X225176190Y-88914285D01*
X225157142Y-88933333D01*
X225119047Y-88952380D01*
X225042857Y-88952380D01*
X225004761Y-88971428D01*
X224985714Y-88990476D01*
X224966666Y-89028571D01*
X224966666Y-89104761D01*
X224985714Y-89142857D01*
X225004761Y-89161904D01*
X225042857Y-89180952D01*
X225119047Y-89180952D01*
X225157142Y-89161904D01*
X225176190Y-89142857D01*
X225195238Y-89104761D01*
X225195238Y-89028571D01*
X225176190Y-88990476D01*
X225157142Y-88971428D01*
X225119047Y-88952380D01*
G04 #@! TO.C,R209*
D12*
X223333333Y-95952380D02*
X222761904Y-95952380D01*
X223047619Y-95952380D02*
X223047619Y-94952380D01*
X222952380Y-95095238D01*
X222857142Y-95190476D01*
X222761904Y-95238095D01*
X224238095Y-94952380D02*
X223761904Y-94952380D01*
X223714285Y-95428571D01*
X223761904Y-95380952D01*
X223857142Y-95333333D01*
X224095238Y-95333333D01*
X224190476Y-95380952D01*
X224238095Y-95428571D01*
X224285714Y-95523809D01*
X224285714Y-95761904D01*
X224238095Y-95857142D01*
X224190476Y-95904761D01*
X224095238Y-95952380D01*
X223857142Y-95952380D01*
X223761904Y-95904761D01*
X223714285Y-95857142D01*
X224904761Y-94952380D02*
X225000000Y-94952380D01*
X225095238Y-95000000D01*
X225142857Y-95047619D01*
X225190476Y-95142857D01*
X225238095Y-95333333D01*
X225238095Y-95571428D01*
X225190476Y-95761904D01*
X225142857Y-95857142D01*
X225095238Y-95904761D01*
X225000000Y-95952380D01*
X224904761Y-95952380D01*
X224809523Y-95904761D01*
X224761904Y-95857142D01*
X224714285Y-95761904D01*
X224666666Y-95571428D01*
X224666666Y-95333333D01*
X224714285Y-95142857D01*
X224761904Y-95047619D01*
X224809523Y-95000000D01*
X224904761Y-94952380D01*
X226238095Y-95952380D02*
X225904761Y-95476190D01*
X225666666Y-95952380D02*
X225666666Y-94952380D01*
X226047619Y-94952380D01*
X226142857Y-95000000D01*
X226190476Y-95047619D01*
X226238095Y-95142857D01*
X226238095Y-95285714D01*
X226190476Y-95380952D01*
X226142857Y-95428571D01*
X226047619Y-95476190D01*
X225666666Y-95476190D01*
D15*
X224052380Y-94180952D02*
X223919047Y-93990476D01*
X223823809Y-94180952D02*
X223823809Y-93780952D01*
X223976190Y-93780952D01*
X224014285Y-93800000D01*
X224033333Y-93819047D01*
X224052380Y-93857142D01*
X224052380Y-93914285D01*
X224033333Y-93952380D01*
X224014285Y-93971428D01*
X223976190Y-93990476D01*
X223823809Y-93990476D01*
X224204761Y-93819047D02*
X224223809Y-93800000D01*
X224261904Y-93780952D01*
X224357142Y-93780952D01*
X224395238Y-93800000D01*
X224414285Y-93819047D01*
X224433333Y-93857142D01*
X224433333Y-93895238D01*
X224414285Y-93952380D01*
X224185714Y-94180952D01*
X224433333Y-94180952D01*
X224680952Y-93780952D02*
X224719047Y-93780952D01*
X224757142Y-93800000D01*
X224776190Y-93819047D01*
X224795238Y-93857142D01*
X224814285Y-93933333D01*
X224814285Y-94028571D01*
X224795238Y-94104761D01*
X224776190Y-94142857D01*
X224757142Y-94161904D01*
X224719047Y-94180952D01*
X224680952Y-94180952D01*
X224642857Y-94161904D01*
X224623809Y-94142857D01*
X224604761Y-94104761D01*
X224585714Y-94028571D01*
X224585714Y-93933333D01*
X224604761Y-93857142D01*
X224623809Y-93819047D01*
X224642857Y-93800000D01*
X224680952Y-93780952D01*
X225004761Y-94180952D02*
X225080952Y-94180952D01*
X225119047Y-94161904D01*
X225138095Y-94142857D01*
X225176190Y-94085714D01*
X225195238Y-94009523D01*
X225195238Y-93857142D01*
X225176190Y-93819047D01*
X225157142Y-93800000D01*
X225119047Y-93780952D01*
X225042857Y-93780952D01*
X225004761Y-93800000D01*
X224985714Y-93819047D01*
X224966666Y-93857142D01*
X224966666Y-93952380D01*
X224985714Y-93990476D01*
X225004761Y-94009523D01*
X225042857Y-94028571D01*
X225119047Y-94028571D01*
X225157142Y-94009523D01*
X225176190Y-93990476D01*
X225195238Y-93952380D01*
G04 #@! TO.C,R401*
D12*
X224952380Y-106452380D02*
X225142857Y-106452380D01*
X225238095Y-106404761D01*
X225285714Y-106357142D01*
X225380952Y-106214285D01*
X225428571Y-106023809D01*
X225428571Y-105642857D01*
X225380952Y-105547619D01*
X225333333Y-105500000D01*
X225238095Y-105452380D01*
X225047619Y-105452380D01*
X224952380Y-105500000D01*
X224904761Y-105547619D01*
X224857142Y-105642857D01*
X224857142Y-105880952D01*
X224904761Y-105976190D01*
X224952380Y-106023809D01*
X225047619Y-106071428D01*
X225238095Y-106071428D01*
X225333333Y-106023809D01*
X225380952Y-105976190D01*
X225428571Y-105880952D01*
X225761904Y-105452380D02*
X226428571Y-105452380D01*
X226000000Y-106452380D01*
X227238095Y-105452380D02*
X227047619Y-105452380D01*
X226952380Y-105500000D01*
X226904761Y-105547619D01*
X226809523Y-105690476D01*
X226761904Y-105880952D01*
X226761904Y-106261904D01*
X226809523Y-106357142D01*
X226857142Y-106404761D01*
X226952380Y-106452380D01*
X227142857Y-106452380D01*
X227238095Y-106404761D01*
X227285714Y-106357142D01*
X227333333Y-106261904D01*
X227333333Y-106023809D01*
X227285714Y-105928571D01*
X227238095Y-105880952D01*
X227142857Y-105833333D01*
X226952380Y-105833333D01*
X226857142Y-105880952D01*
X226809523Y-105928571D01*
X226761904Y-106023809D01*
X227761904Y-106452380D02*
X227761904Y-105452380D01*
X227857142Y-106071428D02*
X228142857Y-106452380D01*
X228142857Y-105785714D02*
X227761904Y-106166666D01*
D15*
X226052380Y-107680952D02*
X225919047Y-107490476D01*
X225823809Y-107680952D02*
X225823809Y-107280952D01*
X225976190Y-107280952D01*
X226014285Y-107300000D01*
X226033333Y-107319047D01*
X226052380Y-107357142D01*
X226052380Y-107414285D01*
X226033333Y-107452380D01*
X226014285Y-107471428D01*
X225976190Y-107490476D01*
X225823809Y-107490476D01*
X226395238Y-107414285D02*
X226395238Y-107680952D01*
X226300000Y-107261904D02*
X226204761Y-107547619D01*
X226452380Y-107547619D01*
X226680952Y-107280952D02*
X226719047Y-107280952D01*
X226757142Y-107300000D01*
X226776190Y-107319047D01*
X226795238Y-107357142D01*
X226814285Y-107433333D01*
X226814285Y-107528571D01*
X226795238Y-107604761D01*
X226776190Y-107642857D01*
X226757142Y-107661904D01*
X226719047Y-107680952D01*
X226680952Y-107680952D01*
X226642857Y-107661904D01*
X226623809Y-107642857D01*
X226604761Y-107604761D01*
X226585714Y-107528571D01*
X226585714Y-107433333D01*
X226604761Y-107357142D01*
X226623809Y-107319047D01*
X226642857Y-107300000D01*
X226680952Y-107280952D01*
X227195238Y-107680952D02*
X226966666Y-107680952D01*
X227080952Y-107680952D02*
X227080952Y-107280952D01*
X227042857Y-107338095D01*
X227004761Y-107376190D01*
X226966666Y-107395238D01*
G04 #@! TO.C,R402*
D12*
X222880952Y-105452380D02*
X222404761Y-105452380D01*
X222357142Y-105928571D01*
X222404761Y-105880952D01*
X222500000Y-105833333D01*
X222738095Y-105833333D01*
X222833333Y-105880952D01*
X222880952Y-105928571D01*
X222928571Y-106023809D01*
X222928571Y-106261904D01*
X222880952Y-106357142D01*
X222833333Y-106404761D01*
X222738095Y-106452380D01*
X222500000Y-106452380D01*
X222404761Y-106404761D01*
X222357142Y-106357142D01*
X223785714Y-105452380D02*
X223595238Y-105452380D01*
X223500000Y-105500000D01*
X223452380Y-105547619D01*
X223357142Y-105690476D01*
X223309523Y-105880952D01*
X223309523Y-106261904D01*
X223357142Y-106357142D01*
X223404761Y-106404761D01*
X223500000Y-106452380D01*
X223690476Y-106452380D01*
X223785714Y-106404761D01*
X223833333Y-106357142D01*
X223880952Y-106261904D01*
X223880952Y-106023809D01*
X223833333Y-105928571D01*
X223785714Y-105880952D01*
X223690476Y-105833333D01*
X223500000Y-105833333D01*
X223404761Y-105880952D01*
X223357142Y-105928571D01*
X223309523Y-106023809D01*
X224261904Y-105547619D02*
X224309523Y-105500000D01*
X224404761Y-105452380D01*
X224642857Y-105452380D01*
X224738095Y-105500000D01*
X224785714Y-105547619D01*
X224833333Y-105642857D01*
X224833333Y-105738095D01*
X224785714Y-105880952D01*
X224214285Y-106452380D01*
X224833333Y-106452380D01*
X225261904Y-106452380D02*
X225261904Y-105452380D01*
X225357142Y-106071428D02*
X225642857Y-106452380D01*
X225642857Y-105785714D02*
X225261904Y-106166666D01*
D15*
X223552380Y-107680952D02*
X223419047Y-107490476D01*
X223323809Y-107680952D02*
X223323809Y-107280952D01*
X223476190Y-107280952D01*
X223514285Y-107300000D01*
X223533333Y-107319047D01*
X223552380Y-107357142D01*
X223552380Y-107414285D01*
X223533333Y-107452380D01*
X223514285Y-107471428D01*
X223476190Y-107490476D01*
X223323809Y-107490476D01*
X223895238Y-107414285D02*
X223895238Y-107680952D01*
X223800000Y-107261904D02*
X223704761Y-107547619D01*
X223952380Y-107547619D01*
X224180952Y-107280952D02*
X224219047Y-107280952D01*
X224257142Y-107300000D01*
X224276190Y-107319047D01*
X224295238Y-107357142D01*
X224314285Y-107433333D01*
X224314285Y-107528571D01*
X224295238Y-107604761D01*
X224276190Y-107642857D01*
X224257142Y-107661904D01*
X224219047Y-107680952D01*
X224180952Y-107680952D01*
X224142857Y-107661904D01*
X224123809Y-107642857D01*
X224104761Y-107604761D01*
X224085714Y-107528571D01*
X224085714Y-107433333D01*
X224104761Y-107357142D01*
X224123809Y-107319047D01*
X224142857Y-107300000D01*
X224180952Y-107280952D01*
X224466666Y-107319047D02*
X224485714Y-107300000D01*
X224523809Y-107280952D01*
X224619047Y-107280952D01*
X224657142Y-107300000D01*
X224676190Y-107319047D01*
X224695238Y-107357142D01*
X224695238Y-107395238D01*
X224676190Y-107452380D01*
X224447619Y-107680952D01*
X224695238Y-107680952D01*
G04 #@! TO.C,U101*
D12*
X204346742Y-81692260D02*
X204683459Y-81355542D01*
X204481429Y-81961634D02*
X204010024Y-81018825D01*
X204952833Y-81490229D01*
X204380413Y-80648435D02*
X204784474Y-80244374D01*
X205289551Y-81153512D02*
X204582444Y-80446405D01*
X205154864Y-80345390D02*
X205424238Y-80076016D01*
X205020177Y-80008672D02*
X205626268Y-80614764D01*
X205727283Y-80648435D01*
X205828299Y-80614764D01*
X205895642Y-80547420D01*
X206131344Y-80311718D02*
X205659940Y-79840313D01*
X205424238Y-79604611D02*
X205424238Y-79671955D01*
X205491581Y-79671955D01*
X205491581Y-79604611D01*
X205424238Y-79604611D01*
X205491581Y-79671955D01*
X205996657Y-79503596D02*
X206468062Y-79975000D01*
X206064001Y-79570939D02*
X206064001Y-79503596D01*
X206097673Y-79402581D01*
X206198688Y-79301565D01*
X206299703Y-79267894D01*
X206400718Y-79301565D01*
X206771108Y-79671955D01*
X206569077Y-78931176D02*
X207208840Y-79234222D01*
X206905795Y-78594459D02*
X207208840Y-79234222D01*
X207309856Y-79469924D01*
X207309856Y-79537268D01*
X207276184Y-79638283D01*
X206973138Y-78190398D02*
X206973138Y-78123054D01*
X207006810Y-78022039D01*
X207175169Y-77853680D01*
X207276184Y-77820008D01*
X207343527Y-77820008D01*
X207444543Y-77853680D01*
X207511886Y-77921024D01*
X207579230Y-78055711D01*
X207579230Y-78863833D01*
X208016962Y-78426100D01*
X207915947Y-77112901D02*
X207781260Y-77247588D01*
X207747588Y-77348604D01*
X207747588Y-77415947D01*
X207781260Y-77584306D01*
X207882275Y-77752665D01*
X208151650Y-78022039D01*
X208252665Y-78055711D01*
X208320008Y-78055711D01*
X208421024Y-78022039D01*
X208555711Y-77887352D01*
X208589382Y-77786337D01*
X208589382Y-77718993D01*
X208555711Y-77617978D01*
X208387352Y-77449619D01*
X208286337Y-77415947D01*
X208218993Y-77415947D01*
X208117978Y-77449619D01*
X207983291Y-77584306D01*
X207949619Y-77685321D01*
X207949619Y-77752665D01*
X207983291Y-77853680D01*
X209363833Y-77079230D02*
X208959772Y-77483291D01*
X209161802Y-77281260D02*
X208454695Y-76574153D01*
X208488367Y-76742512D01*
X208488367Y-76877199D01*
X208454695Y-76978214D01*
X209431176Y-76607825D02*
X209767894Y-76271108D01*
X209565863Y-76877199D02*
X209094459Y-75934390D01*
X210037268Y-76405795D01*
X210003596Y-75900718D02*
X210542344Y-75361970D01*
X211148435Y-75294627D02*
X210441329Y-74587520D01*
X211182107Y-74856894D01*
X210912733Y-74116116D01*
X211619840Y-74823222D01*
X211249451Y-73779398D02*
X211821870Y-74351818D01*
X211922886Y-74385490D01*
X211990229Y-74385490D01*
X212091244Y-74351818D01*
X212225931Y-74217131D01*
X212259603Y-74116116D01*
X212259603Y-74048772D01*
X212225931Y-73947757D01*
X211653512Y-73375337D01*
G04 #@! TO.C,U402*
X227852380Y-115261904D02*
X226852380Y-115261904D01*
X227566666Y-114928571D01*
X226852380Y-114595238D01*
X227852380Y-114595238D01*
X227757142Y-113547619D02*
X227804761Y-113595238D01*
X227852380Y-113738095D01*
X227852380Y-113833333D01*
X227804761Y-113976190D01*
X227709523Y-114071428D01*
X227614285Y-114119047D01*
X227423809Y-114166666D01*
X227280952Y-114166666D01*
X227090476Y-114119047D01*
X226995238Y-114071428D01*
X226900000Y-113976190D01*
X226852380Y-113833333D01*
X226852380Y-113738095D01*
X226900000Y-113595238D01*
X226947619Y-113547619D01*
X227852380Y-113119047D02*
X226852380Y-113119047D01*
X226852380Y-112738095D01*
X226900000Y-112642857D01*
X226947619Y-112595238D01*
X227042857Y-112547619D01*
X227185714Y-112547619D01*
X227280952Y-112595238D01*
X227328571Y-112642857D01*
X227376190Y-112738095D01*
X227376190Y-113119047D01*
X227852380Y-111595238D02*
X227852380Y-112166666D01*
X227852380Y-111880952D02*
X226852380Y-111880952D01*
X226995238Y-111976190D01*
X227090476Y-112071428D01*
X227138095Y-112166666D01*
X226852380Y-110738095D02*
X226852380Y-110928571D01*
X226900000Y-111023809D01*
X226947619Y-111071428D01*
X227090476Y-111166666D01*
X227280952Y-111214285D01*
X227661904Y-111214285D01*
X227757142Y-111166666D01*
X227804761Y-111119047D01*
X227852380Y-111023809D01*
X227852380Y-110833333D01*
X227804761Y-110738095D01*
X227757142Y-110690476D01*
X227661904Y-110642857D01*
X227423809Y-110642857D01*
X227328571Y-110690476D01*
X227280952Y-110738095D01*
X227233333Y-110833333D01*
X227233333Y-111023809D01*
X227280952Y-111119047D01*
X227328571Y-111166666D01*
X227423809Y-111214285D01*
X227185714Y-109785714D02*
X227852380Y-109785714D01*
X226804761Y-110023809D02*
X227519047Y-110261904D01*
X227519047Y-109642857D01*
X226852380Y-109071428D02*
X226852380Y-108976190D01*
X226900000Y-108880952D01*
X226947619Y-108833333D01*
X227042857Y-108785714D01*
X227233333Y-108738095D01*
X227471428Y-108738095D01*
X227661904Y-108785714D01*
X227757142Y-108833333D01*
X227804761Y-108880952D01*
X227852380Y-108976190D01*
X227852380Y-109071428D01*
X227804761Y-109166666D01*
X227757142Y-109214285D01*
X227661904Y-109261904D01*
X227471428Y-109309523D01*
X227233333Y-109309523D01*
X227042857Y-109261904D01*
X226947619Y-109214285D01*
X226900000Y-109166666D01*
X226852380Y-109071428D01*
X227852380Y-108309523D02*
X226852380Y-108309523D01*
X226852380Y-108071428D01*
X226900000Y-107928571D01*
X226995238Y-107833333D01*
X227090476Y-107785714D01*
X227280952Y-107738095D01*
X227423809Y-107738095D01*
X227614285Y-107785714D01*
X227709523Y-107833333D01*
X227804761Y-107928571D01*
X227852380Y-108071428D01*
X227852380Y-108309523D01*
X227757142Y-106738095D02*
X227804761Y-106785714D01*
X227852380Y-106928571D01*
X227852380Y-107023809D01*
X227804761Y-107166666D01*
X227709523Y-107261904D01*
X227614285Y-107309523D01*
X227423809Y-107357142D01*
X227280952Y-107357142D01*
X227090476Y-107309523D01*
X226995238Y-107261904D01*
X226900000Y-107166666D01*
X226852380Y-107023809D01*
X226852380Y-106928571D01*
X226900000Y-106785714D01*
X226947619Y-106738095D01*
X227852380Y-106309523D02*
X226852380Y-106309523D01*
X227328571Y-106309523D02*
X227328571Y-105738095D01*
X227852380Y-105738095D02*
X226852380Y-105738095D01*
D15*
X223642857Y-110226190D02*
X223642857Y-110630952D01*
X223666666Y-110678571D01*
X223690476Y-110702380D01*
X223738095Y-110726190D01*
X223833333Y-110726190D01*
X223880952Y-110702380D01*
X223904761Y-110678571D01*
X223928571Y-110630952D01*
X223928571Y-110226190D01*
X224380952Y-110392857D02*
X224380952Y-110726190D01*
X224261904Y-110202380D02*
X224142857Y-110559523D01*
X224452380Y-110559523D01*
X224738095Y-110226190D02*
X224785714Y-110226190D01*
X224833333Y-110250000D01*
X224857142Y-110273809D01*
X224880952Y-110321428D01*
X224904761Y-110416666D01*
X224904761Y-110535714D01*
X224880952Y-110630952D01*
X224857142Y-110678571D01*
X224833333Y-110702380D01*
X224785714Y-110726190D01*
X224738095Y-110726190D01*
X224690476Y-110702380D01*
X224666666Y-110678571D01*
X224642857Y-110630952D01*
X224619047Y-110535714D01*
X224619047Y-110416666D01*
X224642857Y-110321428D01*
X224666666Y-110273809D01*
X224690476Y-110250000D01*
X224738095Y-110226190D01*
X225095238Y-110273809D02*
X225119047Y-110250000D01*
X225166666Y-110226190D01*
X225285714Y-110226190D01*
X225333333Y-110250000D01*
X225357142Y-110273809D01*
X225380952Y-110321428D01*
X225380952Y-110369047D01*
X225357142Y-110440476D01*
X225071428Y-110726190D01*
X225380952Y-110726190D01*
G04 #@! TO.C,R102*
D12*
X205404761Y-67452380D02*
X204833333Y-67452380D01*
X205119047Y-67452380D02*
X205119047Y-66452380D01*
X205023809Y-66595238D01*
X204928571Y-66690476D01*
X204833333Y-66738095D01*
X206023809Y-66452380D02*
X206119047Y-66452380D01*
X206214285Y-66500000D01*
X206261904Y-66547619D01*
X206309523Y-66642857D01*
X206357142Y-66833333D01*
X206357142Y-67071428D01*
X206309523Y-67261904D01*
X206261904Y-67357142D01*
X206214285Y-67404761D01*
X206119047Y-67452380D01*
X206023809Y-67452380D01*
X205928571Y-67404761D01*
X205880952Y-67357142D01*
X205833333Y-67261904D01*
X205785714Y-67071428D01*
X205785714Y-66833333D01*
X205833333Y-66642857D01*
X205880952Y-66547619D01*
X205928571Y-66500000D01*
X206023809Y-66452380D01*
X206785714Y-67452380D02*
X206785714Y-66452380D01*
X206880952Y-67071428D02*
X207166666Y-67452380D01*
X207166666Y-66785714D02*
X206785714Y-67166666D01*
D15*
X205552380Y-68680952D02*
X205419047Y-68490476D01*
X205323809Y-68680952D02*
X205323809Y-68280952D01*
X205476190Y-68280952D01*
X205514285Y-68300000D01*
X205533333Y-68319047D01*
X205552380Y-68357142D01*
X205552380Y-68414285D01*
X205533333Y-68452380D01*
X205514285Y-68471428D01*
X205476190Y-68490476D01*
X205323809Y-68490476D01*
X205933333Y-68680952D02*
X205704761Y-68680952D01*
X205819047Y-68680952D02*
X205819047Y-68280952D01*
X205780952Y-68338095D01*
X205742857Y-68376190D01*
X205704761Y-68395238D01*
X206180952Y-68280952D02*
X206219047Y-68280952D01*
X206257142Y-68300000D01*
X206276190Y-68319047D01*
X206295238Y-68357142D01*
X206314285Y-68433333D01*
X206314285Y-68528571D01*
X206295238Y-68604761D01*
X206276190Y-68642857D01*
X206257142Y-68661904D01*
X206219047Y-68680952D01*
X206180952Y-68680952D01*
X206142857Y-68661904D01*
X206123809Y-68642857D01*
X206104761Y-68604761D01*
X206085714Y-68528571D01*
X206085714Y-68433333D01*
X206104761Y-68357142D01*
X206123809Y-68319047D01*
X206142857Y-68300000D01*
X206180952Y-68280952D01*
X206466666Y-68319047D02*
X206485714Y-68300000D01*
X206523809Y-68280952D01*
X206619047Y-68280952D01*
X206657142Y-68300000D01*
X206676190Y-68319047D01*
X206695238Y-68357142D01*
X206695238Y-68395238D01*
X206676190Y-68452380D01*
X206447619Y-68680952D01*
X206695238Y-68680952D01*
G04 #@! TO.C,R103*
D12*
X198904761Y-71952380D02*
X198333333Y-71952380D01*
X198619047Y-71952380D02*
X198619047Y-70952380D01*
X198523809Y-71095238D01*
X198428571Y-71190476D01*
X198333333Y-71238095D01*
X199523809Y-70952380D02*
X199619047Y-70952380D01*
X199714285Y-71000000D01*
X199761904Y-71047619D01*
X199809523Y-71142857D01*
X199857142Y-71333333D01*
X199857142Y-71571428D01*
X199809523Y-71761904D01*
X199761904Y-71857142D01*
X199714285Y-71904761D01*
X199619047Y-71952380D01*
X199523809Y-71952380D01*
X199428571Y-71904761D01*
X199380952Y-71857142D01*
X199333333Y-71761904D01*
X199285714Y-71571428D01*
X199285714Y-71333333D01*
X199333333Y-71142857D01*
X199380952Y-71047619D01*
X199428571Y-71000000D01*
X199523809Y-70952380D01*
X200285714Y-71952380D02*
X200285714Y-70952380D01*
X200380952Y-71571428D02*
X200666666Y-71952380D01*
X200666666Y-71285714D02*
X200285714Y-71666666D01*
D15*
X199052380Y-70180952D02*
X198919047Y-69990476D01*
X198823809Y-70180952D02*
X198823809Y-69780952D01*
X198976190Y-69780952D01*
X199014285Y-69800000D01*
X199033333Y-69819047D01*
X199052380Y-69857142D01*
X199052380Y-69914285D01*
X199033333Y-69952380D01*
X199014285Y-69971428D01*
X198976190Y-69990476D01*
X198823809Y-69990476D01*
X199433333Y-70180952D02*
X199204761Y-70180952D01*
X199319047Y-70180952D02*
X199319047Y-69780952D01*
X199280952Y-69838095D01*
X199242857Y-69876190D01*
X199204761Y-69895238D01*
X199680952Y-69780952D02*
X199719047Y-69780952D01*
X199757142Y-69800000D01*
X199776190Y-69819047D01*
X199795238Y-69857142D01*
X199814285Y-69933333D01*
X199814285Y-70028571D01*
X199795238Y-70104761D01*
X199776190Y-70142857D01*
X199757142Y-70161904D01*
X199719047Y-70180952D01*
X199680952Y-70180952D01*
X199642857Y-70161904D01*
X199623809Y-70142857D01*
X199604761Y-70104761D01*
X199585714Y-70028571D01*
X199585714Y-69933333D01*
X199604761Y-69857142D01*
X199623809Y-69819047D01*
X199642857Y-69800000D01*
X199680952Y-69780952D01*
X199947619Y-69780952D02*
X200195238Y-69780952D01*
X200061904Y-69933333D01*
X200119047Y-69933333D01*
X200157142Y-69952380D01*
X200176190Y-69971428D01*
X200195238Y-70009523D01*
X200195238Y-70104761D01*
X200176190Y-70142857D01*
X200157142Y-70161904D01*
X200119047Y-70180952D01*
X200004761Y-70180952D01*
X199966666Y-70161904D01*
X199947619Y-70142857D01*
G04 #@! TO.C,J101*
D12*
X202087142Y-55638095D02*
X202134761Y-55685714D01*
X202182380Y-55828571D01*
X202182380Y-55923809D01*
X202134761Y-56066666D01*
X202039523Y-56161904D01*
X201944285Y-56209523D01*
X201753809Y-56257142D01*
X201610952Y-56257142D01*
X201420476Y-56209523D01*
X201325238Y-56161904D01*
X201230000Y-56066666D01*
X201182380Y-55923809D01*
X201182380Y-55828571D01*
X201230000Y-55685714D01*
X201277619Y-55638095D01*
X202182380Y-55066666D02*
X202134761Y-55161904D01*
X202087142Y-55209523D01*
X201991904Y-55257142D01*
X201706190Y-55257142D01*
X201610952Y-55209523D01*
X201563333Y-55161904D01*
X201515714Y-55066666D01*
X201515714Y-54923809D01*
X201563333Y-54828571D01*
X201610952Y-54780952D01*
X201706190Y-54733333D01*
X201991904Y-54733333D01*
X202087142Y-54780952D01*
X202134761Y-54828571D01*
X202182380Y-54923809D01*
X202182380Y-55066666D01*
X201515714Y-54304761D02*
X202182380Y-54304761D01*
X201610952Y-54304761D02*
X201563333Y-54257142D01*
X201515714Y-54161904D01*
X201515714Y-54019047D01*
X201563333Y-53923809D01*
X201658571Y-53876190D01*
X202182380Y-53876190D01*
X201515714Y-53400000D02*
X202182380Y-53400000D01*
X201610952Y-53400000D02*
X201563333Y-53352380D01*
X201515714Y-53257142D01*
X201515714Y-53114285D01*
X201563333Y-53019047D01*
X201658571Y-52971428D01*
X202182380Y-52971428D01*
X202277619Y-52733333D02*
X202277619Y-51971428D01*
X201182380Y-51542857D02*
X201182380Y-51447619D01*
X201230000Y-51352380D01*
X201277619Y-51304761D01*
X201372857Y-51257142D01*
X201563333Y-51209523D01*
X201801428Y-51209523D01*
X201991904Y-51257142D01*
X202087142Y-51304761D01*
X202134761Y-51352380D01*
X202182380Y-51447619D01*
X202182380Y-51542857D01*
X202134761Y-51638095D01*
X202087142Y-51685714D01*
X201991904Y-51733333D01*
X201801428Y-51780952D01*
X201563333Y-51780952D01*
X201372857Y-51733333D01*
X201277619Y-51685714D01*
X201230000Y-51638095D01*
X201182380Y-51542857D01*
X201277619Y-50828571D02*
X201230000Y-50780952D01*
X201182380Y-50685714D01*
X201182380Y-50447619D01*
X201230000Y-50352380D01*
X201277619Y-50304761D01*
X201372857Y-50257142D01*
X201468095Y-50257142D01*
X201610952Y-50304761D01*
X202182380Y-50876190D01*
X202182380Y-50257142D01*
X202182380Y-49923809D02*
X201515714Y-49400000D01*
X201515714Y-49923809D02*
X202182380Y-49400000D01*
X201182380Y-48828571D02*
X201182380Y-48733333D01*
X201230000Y-48638095D01*
X201277619Y-48590476D01*
X201372857Y-48542857D01*
X201563333Y-48495238D01*
X201801428Y-48495238D01*
X201991904Y-48542857D01*
X202087142Y-48590476D01*
X202134761Y-48638095D01*
X202182380Y-48733333D01*
X202182380Y-48828571D01*
X202134761Y-48923809D01*
X202087142Y-48971428D01*
X201991904Y-49019047D01*
X201801428Y-49066666D01*
X201563333Y-49066666D01*
X201372857Y-49019047D01*
X201277619Y-48971428D01*
X201230000Y-48923809D01*
X201182380Y-48828571D01*
X202182380Y-47542857D02*
X202182380Y-48114285D01*
X202182380Y-47828571D02*
X201182380Y-47828571D01*
X201325238Y-47923809D01*
X201420476Y-48019047D01*
X201468095Y-48114285D01*
X204044285Y-51352380D02*
X204044285Y-52066666D01*
X203996666Y-52209523D01*
X203901428Y-52304761D01*
X203758571Y-52352380D01*
X203663333Y-52352380D01*
X205044285Y-52352380D02*
X204472857Y-52352380D01*
X204758571Y-52352380D02*
X204758571Y-51352380D01*
X204663333Y-51495238D01*
X204568095Y-51590476D01*
X204472857Y-51638095D01*
X205663333Y-51352380D02*
X205758571Y-51352380D01*
X205853809Y-51400000D01*
X205901428Y-51447619D01*
X205949047Y-51542857D01*
X205996666Y-51733333D01*
X205996666Y-51971428D01*
X205949047Y-52161904D01*
X205901428Y-52257142D01*
X205853809Y-52304761D01*
X205758571Y-52352380D01*
X205663333Y-52352380D01*
X205568095Y-52304761D01*
X205520476Y-52257142D01*
X205472857Y-52161904D01*
X205425238Y-51971428D01*
X205425238Y-51733333D01*
X205472857Y-51542857D01*
X205520476Y-51447619D01*
X205568095Y-51400000D01*
X205663333Y-51352380D01*
X206949047Y-52352380D02*
X206377619Y-52352380D01*
X206663333Y-52352380D02*
X206663333Y-51352380D01*
X206568095Y-51495238D01*
X206472857Y-51590476D01*
X206377619Y-51638095D01*
G04 #@! TO.C,R101*
X197564880Y-53982380D02*
X197755357Y-53982380D01*
X197850595Y-53934761D01*
X197898214Y-53887142D01*
X197993452Y-53744285D01*
X198041071Y-53553809D01*
X198041071Y-53172857D01*
X197993452Y-53077619D01*
X197945833Y-53030000D01*
X197850595Y-52982380D01*
X197660119Y-52982380D01*
X197564880Y-53030000D01*
X197517261Y-53077619D01*
X197469642Y-53172857D01*
X197469642Y-53410952D01*
X197517261Y-53506190D01*
X197564880Y-53553809D01*
X197660119Y-53601428D01*
X197850595Y-53601428D01*
X197945833Y-53553809D01*
X197993452Y-53506190D01*
X198041071Y-53410952D01*
X198374404Y-52982380D02*
X199041071Y-52982380D01*
X198612500Y-53982380D01*
X199850595Y-52982380D02*
X199660119Y-52982380D01*
X199564880Y-53030000D01*
X199517261Y-53077619D01*
X199422023Y-53220476D01*
X199374404Y-53410952D01*
X199374404Y-53791904D01*
X199422023Y-53887142D01*
X199469642Y-53934761D01*
X199564880Y-53982380D01*
X199755357Y-53982380D01*
X199850595Y-53934761D01*
X199898214Y-53887142D01*
X199945833Y-53791904D01*
X199945833Y-53553809D01*
X199898214Y-53458571D01*
X199850595Y-53410952D01*
X199755357Y-53363333D01*
X199564880Y-53363333D01*
X199469642Y-53410952D01*
X199422023Y-53458571D01*
X199374404Y-53553809D01*
X200374404Y-53982380D02*
X200374404Y-52982380D01*
X200469642Y-53601428D02*
X200755357Y-53982380D01*
X200755357Y-53315714D02*
X200374404Y-53696666D01*
D14*
X198664880Y-52280952D02*
X198531547Y-52090476D01*
X198436309Y-52280952D02*
X198436309Y-51880952D01*
X198588690Y-51880952D01*
X198626785Y-51900000D01*
X198645833Y-51919047D01*
X198664880Y-51957142D01*
X198664880Y-52014285D01*
X198645833Y-52052380D01*
X198626785Y-52071428D01*
X198588690Y-52090476D01*
X198436309Y-52090476D01*
X199045833Y-52280952D02*
X198817261Y-52280952D01*
X198931547Y-52280952D02*
X198931547Y-51880952D01*
X198893452Y-51938095D01*
X198855357Y-51976190D01*
X198817261Y-51995238D01*
X199293452Y-51880952D02*
X199331547Y-51880952D01*
X199369642Y-51900000D01*
X199388690Y-51919047D01*
X199407738Y-51957142D01*
X199426785Y-52033333D01*
X199426785Y-52128571D01*
X199407738Y-52204761D01*
X199388690Y-52242857D01*
X199369642Y-52261904D01*
X199331547Y-52280952D01*
X199293452Y-52280952D01*
X199255357Y-52261904D01*
X199236309Y-52242857D01*
X199217261Y-52204761D01*
X199198214Y-52128571D01*
X199198214Y-52033333D01*
X199217261Y-51957142D01*
X199236309Y-51919047D01*
X199255357Y-51900000D01*
X199293452Y-51880952D01*
X199807738Y-52280952D02*
X199579166Y-52280952D01*
X199693452Y-52280952D02*
X199693452Y-51880952D01*
X199655357Y-51938095D01*
X199617261Y-51976190D01*
X199579166Y-51995238D01*
G04 #@! TO.C,SW101*
D12*
X186927380Y-52654761D02*
X187070238Y-52702380D01*
X187308333Y-52702380D01*
X187403571Y-52654761D01*
X187451190Y-52607142D01*
X187498809Y-52511904D01*
X187498809Y-52416666D01*
X187451190Y-52321428D01*
X187403571Y-52273809D01*
X187308333Y-52226190D01*
X187117857Y-52178571D01*
X187022619Y-52130952D01*
X186975000Y-52083333D01*
X186927380Y-51988095D01*
X186927380Y-51892857D01*
X186975000Y-51797619D01*
X187022619Y-51750000D01*
X187117857Y-51702380D01*
X187355952Y-51702380D01*
X187498809Y-51750000D01*
X187832142Y-51702380D02*
X188070238Y-52702380D01*
X188260714Y-51988095D01*
X188451190Y-52702380D01*
X188689285Y-51702380D01*
X188832142Y-52797619D02*
X189594047Y-52797619D01*
X189832142Y-52702380D02*
X189832142Y-51702380D01*
X190213095Y-51702380D01*
X190308333Y-51750000D01*
X190355952Y-51797619D01*
X190403571Y-51892857D01*
X190403571Y-52035714D01*
X190355952Y-52130952D01*
X190308333Y-52178571D01*
X190213095Y-52226190D01*
X189832142Y-52226190D01*
X191260714Y-52035714D02*
X191260714Y-52702380D01*
X190832142Y-52035714D02*
X190832142Y-52559523D01*
X190879761Y-52654761D01*
X190975000Y-52702380D01*
X191117857Y-52702380D01*
X191213095Y-52654761D01*
X191260714Y-52607142D01*
X191689285Y-52654761D02*
X191784523Y-52702380D01*
X191975000Y-52702380D01*
X192070238Y-52654761D01*
X192117857Y-52559523D01*
X192117857Y-52511904D01*
X192070238Y-52416666D01*
X191975000Y-52369047D01*
X191832142Y-52369047D01*
X191736904Y-52321428D01*
X191689285Y-52226190D01*
X191689285Y-52178571D01*
X191736904Y-52083333D01*
X191832142Y-52035714D01*
X191975000Y-52035714D01*
X192070238Y-52083333D01*
X192546428Y-52702380D02*
X192546428Y-51702380D01*
X192975000Y-52702380D02*
X192975000Y-52178571D01*
X192927380Y-52083333D01*
X192832142Y-52035714D01*
X192689285Y-52035714D01*
X192594047Y-52083333D01*
X192546428Y-52130952D01*
G04 #@! TO.C,TP101*
X180866666Y-73702380D02*
X181438095Y-73702380D01*
X181152380Y-74702380D02*
X181152380Y-73702380D01*
X182152380Y-74654761D02*
X182057142Y-74702380D01*
X181866666Y-74702380D01*
X181771428Y-74654761D01*
X181723809Y-74559523D01*
X181723809Y-74178571D01*
X181771428Y-74083333D01*
X181866666Y-74035714D01*
X182057142Y-74035714D01*
X182152380Y-74083333D01*
X182200000Y-74178571D01*
X182200000Y-74273809D01*
X181723809Y-74369047D01*
X182580952Y-74654761D02*
X182676190Y-74702380D01*
X182866666Y-74702380D01*
X182961904Y-74654761D01*
X183009523Y-74559523D01*
X183009523Y-74511904D01*
X182961904Y-74416666D01*
X182866666Y-74369047D01*
X182723809Y-74369047D01*
X182628571Y-74321428D01*
X182580952Y-74226190D01*
X182580952Y-74178571D01*
X182628571Y-74083333D01*
X182723809Y-74035714D01*
X182866666Y-74035714D01*
X182961904Y-74083333D01*
X183295238Y-74035714D02*
X183676190Y-74035714D01*
X183438095Y-73702380D02*
X183438095Y-74559523D01*
X183485714Y-74654761D01*
X183580952Y-74702380D01*
X183676190Y-74702380D01*
X184009523Y-74702380D02*
X184009523Y-73702380D01*
X184390476Y-73702380D01*
X184485714Y-73750000D01*
X184533333Y-73797619D01*
X184580952Y-73892857D01*
X184580952Y-74035714D01*
X184533333Y-74130952D01*
X184485714Y-74178571D01*
X184390476Y-74226190D01*
X184009523Y-74226190D01*
X185152380Y-74702380D02*
X185057142Y-74654761D01*
X185009523Y-74607142D01*
X184961904Y-74511904D01*
X184961904Y-74226190D01*
X185009523Y-74130952D01*
X185057142Y-74083333D01*
X185152380Y-74035714D01*
X185295238Y-74035714D01*
X185390476Y-74083333D01*
X185438095Y-74130952D01*
X185485714Y-74226190D01*
X185485714Y-74511904D01*
X185438095Y-74607142D01*
X185390476Y-74654761D01*
X185295238Y-74702380D01*
X185152380Y-74702380D01*
X185914285Y-74702380D02*
X185914285Y-74035714D01*
X185914285Y-73702380D02*
X185866666Y-73750000D01*
X185914285Y-73797619D01*
X185961904Y-73750000D01*
X185914285Y-73702380D01*
X185914285Y-73797619D01*
X186390476Y-74035714D02*
X186390476Y-74702380D01*
X186390476Y-74130952D02*
X186438095Y-74083333D01*
X186533333Y-74035714D01*
X186676190Y-74035714D01*
X186771428Y-74083333D01*
X186819047Y-74178571D01*
X186819047Y-74702380D01*
X187152380Y-74035714D02*
X187533333Y-74035714D01*
X187295238Y-73702380D02*
X187295238Y-74559523D01*
X187342857Y-74654761D01*
X187438095Y-74702380D01*
X187533333Y-74702380D01*
X181985714Y-68752380D02*
X182557142Y-68752380D01*
X182271428Y-69752380D02*
X182271428Y-68752380D01*
X182890476Y-69752380D02*
X182890476Y-68752380D01*
X183271428Y-68752380D01*
X183366666Y-68800000D01*
X183414285Y-68847619D01*
X183461904Y-68942857D01*
X183461904Y-69085714D01*
X183414285Y-69180952D01*
X183366666Y-69228571D01*
X183271428Y-69276190D01*
X182890476Y-69276190D01*
X184414285Y-69752380D02*
X183842857Y-69752380D01*
X184128571Y-69752380D02*
X184128571Y-68752380D01*
X184033333Y-68895238D01*
X183938095Y-68990476D01*
X183842857Y-69038095D01*
X185033333Y-68752380D02*
X185128571Y-68752380D01*
X185223809Y-68800000D01*
X185271428Y-68847619D01*
X185319047Y-68942857D01*
X185366666Y-69133333D01*
X185366666Y-69371428D01*
X185319047Y-69561904D01*
X185271428Y-69657142D01*
X185223809Y-69704761D01*
X185128571Y-69752380D01*
X185033333Y-69752380D01*
X184938095Y-69704761D01*
X184890476Y-69657142D01*
X184842857Y-69561904D01*
X184795238Y-69371428D01*
X184795238Y-69133333D01*
X184842857Y-68942857D01*
X184890476Y-68847619D01*
X184938095Y-68800000D01*
X185033333Y-68752380D01*
X186319047Y-69752380D02*
X185747619Y-69752380D01*
X186033333Y-69752380D02*
X186033333Y-68752380D01*
X185938095Y-68895238D01*
X185842857Y-68990476D01*
X185747619Y-69038095D01*
G04 #@! TO.C,TP102*
X181066666Y-80802380D02*
X181638095Y-80802380D01*
X181352380Y-81802380D02*
X181352380Y-80802380D01*
X182352380Y-81754761D02*
X182257142Y-81802380D01*
X182066666Y-81802380D01*
X181971428Y-81754761D01*
X181923809Y-81659523D01*
X181923809Y-81278571D01*
X181971428Y-81183333D01*
X182066666Y-81135714D01*
X182257142Y-81135714D01*
X182352380Y-81183333D01*
X182400000Y-81278571D01*
X182400000Y-81373809D01*
X181923809Y-81469047D01*
X182780952Y-81754761D02*
X182876190Y-81802380D01*
X183066666Y-81802380D01*
X183161904Y-81754761D01*
X183209523Y-81659523D01*
X183209523Y-81611904D01*
X183161904Y-81516666D01*
X183066666Y-81469047D01*
X182923809Y-81469047D01*
X182828571Y-81421428D01*
X182780952Y-81326190D01*
X182780952Y-81278571D01*
X182828571Y-81183333D01*
X182923809Y-81135714D01*
X183066666Y-81135714D01*
X183161904Y-81183333D01*
X183495238Y-81135714D02*
X183876190Y-81135714D01*
X183638095Y-80802380D02*
X183638095Y-81659523D01*
X183685714Y-81754761D01*
X183780952Y-81802380D01*
X183876190Y-81802380D01*
X184209523Y-81802380D02*
X184209523Y-80802380D01*
X184590476Y-80802380D01*
X184685714Y-80850000D01*
X184733333Y-80897619D01*
X184780952Y-80992857D01*
X184780952Y-81135714D01*
X184733333Y-81230952D01*
X184685714Y-81278571D01*
X184590476Y-81326190D01*
X184209523Y-81326190D01*
X185352380Y-81802380D02*
X185257142Y-81754761D01*
X185209523Y-81707142D01*
X185161904Y-81611904D01*
X185161904Y-81326190D01*
X185209523Y-81230952D01*
X185257142Y-81183333D01*
X185352380Y-81135714D01*
X185495238Y-81135714D01*
X185590476Y-81183333D01*
X185638095Y-81230952D01*
X185685714Y-81326190D01*
X185685714Y-81611904D01*
X185638095Y-81707142D01*
X185590476Y-81754761D01*
X185495238Y-81802380D01*
X185352380Y-81802380D01*
X186114285Y-81802380D02*
X186114285Y-81135714D01*
X186114285Y-80802380D02*
X186066666Y-80850000D01*
X186114285Y-80897619D01*
X186161904Y-80850000D01*
X186114285Y-80802380D01*
X186114285Y-80897619D01*
X186590476Y-81135714D02*
X186590476Y-81802380D01*
X186590476Y-81230952D02*
X186638095Y-81183333D01*
X186733333Y-81135714D01*
X186876190Y-81135714D01*
X186971428Y-81183333D01*
X187019047Y-81278571D01*
X187019047Y-81802380D01*
X187352380Y-81135714D02*
X187733333Y-81135714D01*
X187495238Y-80802380D02*
X187495238Y-81659523D01*
X187542857Y-81754761D01*
X187638095Y-81802380D01*
X187733333Y-81802380D01*
X182185714Y-75852380D02*
X182757142Y-75852380D01*
X182471428Y-76852380D02*
X182471428Y-75852380D01*
X183090476Y-76852380D02*
X183090476Y-75852380D01*
X183471428Y-75852380D01*
X183566666Y-75900000D01*
X183614285Y-75947619D01*
X183661904Y-76042857D01*
X183661904Y-76185714D01*
X183614285Y-76280952D01*
X183566666Y-76328571D01*
X183471428Y-76376190D01*
X183090476Y-76376190D01*
X184614285Y-76852380D02*
X184042857Y-76852380D01*
X184328571Y-76852380D02*
X184328571Y-75852380D01*
X184233333Y-75995238D01*
X184138095Y-76090476D01*
X184042857Y-76138095D01*
X185233333Y-75852380D02*
X185328571Y-75852380D01*
X185423809Y-75900000D01*
X185471428Y-75947619D01*
X185519047Y-76042857D01*
X185566666Y-76233333D01*
X185566666Y-76471428D01*
X185519047Y-76661904D01*
X185471428Y-76757142D01*
X185423809Y-76804761D01*
X185328571Y-76852380D01*
X185233333Y-76852380D01*
X185138095Y-76804761D01*
X185090476Y-76757142D01*
X185042857Y-76661904D01*
X184995238Y-76471428D01*
X184995238Y-76233333D01*
X185042857Y-76042857D01*
X185090476Y-75947619D01*
X185138095Y-75900000D01*
X185233333Y-75852380D01*
X185947619Y-75947619D02*
X185995238Y-75900000D01*
X186090476Y-75852380D01*
X186328571Y-75852380D01*
X186423809Y-75900000D01*
X186471428Y-75947619D01*
X186519047Y-76042857D01*
X186519047Y-76138095D01*
X186471428Y-76280952D01*
X185900000Y-76852380D01*
X186519047Y-76852380D01*
G04 #@! TD*
M02*
