G04 #@! TF.GenerationSoftware,KiCad,Pcbnew,5.0.2-bee76a0~70~ubuntu18.04.1*
G04 #@! TF.CreationDate,2019-03-04T23:14:44-05:00*
G04 #@! TF.ProjectId,BalancingBusinessCardLights,42616c61-6e63-4696-9e67-427573696e65,rev?*
G04 #@! TF.SameCoordinates,Original*
G04 #@! TF.FileFunction,Legend,Top*
G04 #@! TF.FilePolarity,Positive*
%FSLAX46Y46*%
G04 Gerber Fmt 4.6, Leading zero omitted, Abs format (unit mm)*
G04 Created by KiCad (PCBNEW 5.0.2-bee76a0~70~ubuntu18.04.1) date Mon 04 Mar 2019 11:14:44 PM EST*
%MOMM*%
%LPD*%
G01*
G04 APERTURE LIST*
%ADD10C,0.300000*%
%ADD11C,0.150000*%
%ADD12C,0.120000*%
%ADD13C,0.152400*%
G04 APERTURE END LIST*
D10*
X211457142Y-103014285D02*
X213742857Y-103014285D01*
X212600000Y-104157142D02*
X212600000Y-101871428D01*
X197257142Y-103014285D02*
X199542857Y-103014285D01*
X198400000Y-104157142D02*
X198400000Y-101871428D01*
D11*
X191140595Y-115071428D02*
X191902500Y-115071428D01*
X191521547Y-115452380D02*
X191521547Y-114690476D01*
X192283452Y-114452380D02*
X192902500Y-114452380D01*
X192569166Y-114833333D01*
X192712023Y-114833333D01*
X192807261Y-114880952D01*
X192854880Y-114928571D01*
X192902500Y-115023809D01*
X192902500Y-115261904D01*
X192854880Y-115357142D01*
X192807261Y-115404761D01*
X192712023Y-115452380D01*
X192426309Y-115452380D01*
X192331071Y-115404761D01*
X192283452Y-115357142D01*
X193188214Y-114452380D02*
X193521547Y-115452380D01*
X193854880Y-114452380D01*
X194092976Y-114452380D02*
X194712023Y-114452380D01*
X194378690Y-114833333D01*
X194521547Y-114833333D01*
X194616785Y-114880952D01*
X194664404Y-114928571D01*
X194712023Y-115023809D01*
X194712023Y-115261904D01*
X194664404Y-115357142D01*
X194616785Y-115404761D01*
X194521547Y-115452380D01*
X194235833Y-115452380D01*
X194140595Y-115404761D01*
X194092976Y-115357142D01*
X191121547Y-118052380D02*
X191121547Y-117052380D01*
X191454880Y-117766666D01*
X191788214Y-117052380D01*
X191788214Y-118052380D01*
X192454880Y-117052380D02*
X192645357Y-117052380D01*
X192740595Y-117100000D01*
X192835833Y-117195238D01*
X192883452Y-117385714D01*
X192883452Y-117719047D01*
X192835833Y-117909523D01*
X192740595Y-118004761D01*
X192645357Y-118052380D01*
X192454880Y-118052380D01*
X192359642Y-118004761D01*
X192264404Y-117909523D01*
X192216785Y-117719047D01*
X192216785Y-117385714D01*
X192264404Y-117195238D01*
X192359642Y-117100000D01*
X192454880Y-117052380D01*
X193264404Y-118004761D02*
X193407261Y-118052380D01*
X193645357Y-118052380D01*
X193740595Y-118004761D01*
X193788214Y-117957142D01*
X193835833Y-117861904D01*
X193835833Y-117766666D01*
X193788214Y-117671428D01*
X193740595Y-117623809D01*
X193645357Y-117576190D01*
X193454880Y-117528571D01*
X193359642Y-117480952D01*
X193312023Y-117433333D01*
X193264404Y-117338095D01*
X193264404Y-117242857D01*
X193312023Y-117147619D01*
X193359642Y-117100000D01*
X193454880Y-117052380D01*
X193692976Y-117052380D01*
X193835833Y-117100000D01*
X194264404Y-118052380D02*
X194264404Y-117052380D01*
X191616785Y-119700000D02*
X191521547Y-119652380D01*
X191378690Y-119652380D01*
X191235833Y-119700000D01*
X191140595Y-119795238D01*
X191092976Y-119890476D01*
X191045357Y-120080952D01*
X191045357Y-120223809D01*
X191092976Y-120414285D01*
X191140595Y-120509523D01*
X191235833Y-120604761D01*
X191378690Y-120652380D01*
X191473928Y-120652380D01*
X191616785Y-120604761D01*
X191664404Y-120557142D01*
X191664404Y-120223809D01*
X191473928Y-120223809D01*
X192092976Y-120652380D02*
X192092976Y-119652380D01*
X192664404Y-120652380D01*
X192664404Y-119652380D01*
X193140595Y-120652380D02*
X193140595Y-119652380D01*
X193378690Y-119652380D01*
X193521547Y-119700000D01*
X193616785Y-119795238D01*
X193664404Y-119890476D01*
X193712023Y-120080952D01*
X193712023Y-120223809D01*
X193664404Y-120414285D01*
X193616785Y-120509523D01*
X193521547Y-120604761D01*
X193378690Y-120652380D01*
X193140595Y-120652380D01*
X180907023Y-120652380D02*
X180573690Y-120176190D01*
X180335595Y-120652380D02*
X180335595Y-119652380D01*
X180716547Y-119652380D01*
X180811785Y-119700000D01*
X180859404Y-119747619D01*
X180907023Y-119842857D01*
X180907023Y-119985714D01*
X180859404Y-120080952D01*
X180811785Y-120128571D01*
X180716547Y-120176190D01*
X180335595Y-120176190D01*
X181335595Y-120128571D02*
X181668928Y-120128571D01*
X181811785Y-120652380D02*
X181335595Y-120652380D01*
X181335595Y-119652380D01*
X181811785Y-119652380D01*
X182192738Y-120604761D02*
X182335595Y-120652380D01*
X182573690Y-120652380D01*
X182668928Y-120604761D01*
X182716547Y-120557142D01*
X182764166Y-120461904D01*
X182764166Y-120366666D01*
X182716547Y-120271428D01*
X182668928Y-120223809D01*
X182573690Y-120176190D01*
X182383214Y-120128571D01*
X182287976Y-120080952D01*
X182240357Y-120033333D01*
X182192738Y-119938095D01*
X182192738Y-119842857D01*
X182240357Y-119747619D01*
X182287976Y-119700000D01*
X182383214Y-119652380D01*
X182621309Y-119652380D01*
X182764166Y-119700000D01*
X183192738Y-120128571D02*
X183526071Y-120128571D01*
X183668928Y-120652380D02*
X183192738Y-120652380D01*
X183192738Y-119652380D01*
X183668928Y-119652380D01*
X183954642Y-119652380D02*
X184526071Y-119652380D01*
X184240357Y-120652380D02*
X184240357Y-119652380D01*
X181887976Y-118004761D02*
X182030833Y-118052380D01*
X182268928Y-118052380D01*
X182364166Y-118004761D01*
X182411785Y-117957142D01*
X182459404Y-117861904D01*
X182459404Y-117766666D01*
X182411785Y-117671428D01*
X182364166Y-117623809D01*
X182268928Y-117576190D01*
X182078452Y-117528571D01*
X181983214Y-117480952D01*
X181935595Y-117433333D01*
X181887976Y-117338095D01*
X181887976Y-117242857D01*
X181935595Y-117147619D01*
X181983214Y-117100000D01*
X182078452Y-117052380D01*
X182316547Y-117052380D01*
X182459404Y-117100000D01*
X183459404Y-117957142D02*
X183411785Y-118004761D01*
X183268928Y-118052380D01*
X183173690Y-118052380D01*
X183030833Y-118004761D01*
X182935595Y-117909523D01*
X182887976Y-117814285D01*
X182840357Y-117623809D01*
X182840357Y-117480952D01*
X182887976Y-117290476D01*
X182935595Y-117195238D01*
X183030833Y-117100000D01*
X183173690Y-117052380D01*
X183268928Y-117052380D01*
X183411785Y-117100000D01*
X183459404Y-117147619D01*
X183887976Y-118052380D02*
X183887976Y-117052380D01*
X184459404Y-118052380D02*
X184030833Y-117480952D01*
X184459404Y-117052380D02*
X183887976Y-117623809D01*
X181335595Y-115452380D02*
X181335595Y-114452380D01*
X181668928Y-115166666D01*
X182002261Y-114452380D01*
X182002261Y-115452380D01*
X182478452Y-115452380D02*
X182478452Y-114452380D01*
X182907023Y-115404761D02*
X183049880Y-115452380D01*
X183287976Y-115452380D01*
X183383214Y-115404761D01*
X183430833Y-115357142D01*
X183478452Y-115261904D01*
X183478452Y-115166666D01*
X183430833Y-115071428D01*
X183383214Y-115023809D01*
X183287976Y-114976190D01*
X183097500Y-114928571D01*
X183002261Y-114880952D01*
X182954642Y-114833333D01*
X182907023Y-114738095D01*
X182907023Y-114642857D01*
X182954642Y-114547619D01*
X183002261Y-114500000D01*
X183097500Y-114452380D01*
X183335595Y-114452380D01*
X183478452Y-114500000D01*
X184097500Y-114452380D02*
X184287976Y-114452380D01*
X184383214Y-114500000D01*
X184478452Y-114595238D01*
X184526071Y-114785714D01*
X184526071Y-115119047D01*
X184478452Y-115309523D01*
X184383214Y-115404761D01*
X184287976Y-115452380D01*
X184097500Y-115452380D01*
X184002261Y-115404761D01*
X183907023Y-115309523D01*
X183859404Y-115119047D01*
X183859404Y-114785714D01*
X183907023Y-114595238D01*
X184002261Y-114500000D01*
X184097500Y-114452380D01*
G04 #@! TO.C,BT101*
X215500000Y-116000000D02*
G75*
G03X215500000Y-116000000I-10000000J0D01*
G01*
D12*
G04 #@! TO.C,C101*
X201258578Y-78290000D02*
X200741422Y-78290000D01*
X201258578Y-79710000D02*
X200741422Y-79710000D01*
G04 #@! TO.C,C401*
X187241422Y-130710000D02*
X187758578Y-130710000D01*
X187241422Y-129290000D02*
X187758578Y-129290000D01*
G04 #@! TO.C,C402*
X187337221Y-128510000D02*
X187662779Y-128510000D01*
X187337221Y-127490000D02*
X187662779Y-127490000D01*
G04 #@! TO.C,D301*
X229485000Y-53265000D02*
X227200000Y-53265000D01*
X229485000Y-54735000D02*
X229485000Y-53265000D01*
X227200000Y-54735000D02*
X229485000Y-54735000D01*
G04 #@! TO.C,D302*
X229485000Y-58265000D02*
X227200000Y-58265000D01*
X229485000Y-59735000D02*
X229485000Y-58265000D01*
X227200000Y-59735000D02*
X229485000Y-59735000D01*
G04 #@! TO.C,D303*
X229485000Y-63265000D02*
X227200000Y-63265000D01*
X229485000Y-64735000D02*
X229485000Y-63265000D01*
X227200000Y-64735000D02*
X229485000Y-64735000D01*
G04 #@! TO.C,D304*
X229485000Y-68265000D02*
X227200000Y-68265000D01*
X229485000Y-69735000D02*
X229485000Y-68265000D01*
X227200000Y-69735000D02*
X229485000Y-69735000D01*
G04 #@! TO.C,D305*
X229485000Y-73265000D02*
X227200000Y-73265000D01*
X229485000Y-74735000D02*
X229485000Y-73265000D01*
X227200000Y-74735000D02*
X229485000Y-74735000D01*
G04 #@! TO.C,D306*
X229485000Y-78265000D02*
X227200000Y-78265000D01*
X229485000Y-79735000D02*
X229485000Y-78265000D01*
X227200000Y-79735000D02*
X229485000Y-79735000D01*
G04 #@! TO.C,D307*
X229485000Y-83265000D02*
X227200000Y-83265000D01*
X229485000Y-84735000D02*
X229485000Y-83265000D01*
X227200000Y-84735000D02*
X229485000Y-84735000D01*
G04 #@! TO.C,D308*
X229485000Y-88265000D02*
X227200000Y-88265000D01*
X229485000Y-89735000D02*
X229485000Y-88265000D01*
X227200000Y-89735000D02*
X229485000Y-89735000D01*
G04 #@! TO.C,D309*
X229485000Y-93265000D02*
X227200000Y-93265000D01*
X229485000Y-94735000D02*
X229485000Y-93265000D01*
X227200000Y-94735000D02*
X229485000Y-94735000D01*
G04 #@! TO.C,ICSP1*
X185170000Y-113670000D02*
X186500000Y-113670000D01*
X185170000Y-115000000D02*
X185170000Y-113670000D01*
X187770000Y-113670000D02*
X190370000Y-113670000D01*
X187770000Y-116270000D02*
X187770000Y-113670000D01*
X185170000Y-116270000D02*
X187770000Y-116270000D01*
X190370000Y-113670000D02*
X190370000Y-121410000D01*
X185170000Y-116270000D02*
X185170000Y-121410000D01*
X185170000Y-121410000D02*
X190370000Y-121410000D01*
D13*
G04 #@! TO.C,U401*
X186853001Y-133564500D02*
X187107001Y-133564500D01*
X186853001Y-133945500D02*
X186853001Y-133564500D01*
X187107001Y-133945500D02*
X186853001Y-133945500D01*
X187107001Y-133564500D02*
X187107001Y-133945500D01*
X184166749Y-131553201D02*
X183373201Y-131553201D01*
X186776801Y-131846748D02*
X186776801Y-131553201D01*
X185983253Y-134956801D02*
X186776801Y-134956801D01*
X183373201Y-134663254D02*
X183373201Y-134956801D01*
X183373201Y-131553201D02*
X183373201Y-131846748D01*
X186776801Y-131553201D02*
X185983253Y-131553201D01*
X186776801Y-134956801D02*
X186776801Y-134663254D01*
X183373201Y-134956801D02*
X184166749Y-134956801D01*
D12*
G04 #@! TO.C,C403*
X222100000Y-110150000D02*
X222100000Y-110850000D01*
X220900000Y-110850000D02*
X220900000Y-110150000D01*
G04 #@! TO.C,C404*
X226900000Y-110850000D02*
X226900000Y-110150000D01*
X228100000Y-110150000D02*
X228100000Y-110850000D01*
G04 #@! TO.C,L401*
X218820000Y-111000000D02*
X218820000Y-110000000D01*
X220180000Y-110000000D02*
X220180000Y-111000000D01*
G04 #@! TO.C,R201*
X224000000Y-53320000D02*
X225000000Y-53320000D01*
X225000000Y-54680000D02*
X224000000Y-54680000D01*
G04 #@! TO.C,R202*
X225000000Y-59680000D02*
X224000000Y-59680000D01*
X224000000Y-58320000D02*
X225000000Y-58320000D01*
G04 #@! TO.C,R203*
X224000000Y-63320000D02*
X225000000Y-63320000D01*
X225000000Y-64680000D02*
X224000000Y-64680000D01*
G04 #@! TO.C,R204*
X225000000Y-69680000D02*
X224000000Y-69680000D01*
X224000000Y-68320000D02*
X225000000Y-68320000D01*
G04 #@! TO.C,R205*
X224000000Y-73320000D02*
X225000000Y-73320000D01*
X225000000Y-74680000D02*
X224000000Y-74680000D01*
G04 #@! TO.C,R206*
X225000000Y-79680000D02*
X224000000Y-79680000D01*
X224000000Y-78320000D02*
X225000000Y-78320000D01*
G04 #@! TO.C,R207*
X224000000Y-83320000D02*
X225000000Y-83320000D01*
X225000000Y-84680000D02*
X224000000Y-84680000D01*
G04 #@! TO.C,R208*
X225000000Y-89680000D02*
X224000000Y-89680000D01*
X224000000Y-88320000D02*
X225000000Y-88320000D01*
G04 #@! TO.C,R209*
X225000000Y-94680000D02*
X224000000Y-94680000D01*
X224000000Y-93320000D02*
X225000000Y-93320000D01*
G04 #@! TO.C,R401*
X227000000Y-108180000D02*
X226000000Y-108180000D01*
X226000000Y-106820000D02*
X227000000Y-106820000D01*
G04 #@! TO.C,R402*
X223500000Y-106820000D02*
X224500000Y-106820000D01*
X224500000Y-108180000D02*
X223500000Y-108180000D01*
D11*
G04 #@! TO.C,U101*
X205500000Y-71287689D02*
X205128769Y-71658920D01*
X209212311Y-75000000D02*
X208841080Y-75371231D01*
X205500000Y-78712311D02*
X205871231Y-78341080D01*
X201787689Y-75000000D02*
X202158920Y-74628769D01*
X209212311Y-75000000D02*
X208841080Y-74628769D01*
X205500000Y-78712311D02*
X205128769Y-78341080D01*
X205500000Y-71287689D02*
X205871231Y-71658920D01*
D12*
G04 #@! TO.C,U402*
X222890000Y-109600000D02*
X222890000Y-112050000D01*
X226110000Y-111400000D02*
X226110000Y-109600000D01*
G04 #@! TO.C,R102*
X206500000Y-69180000D02*
X205500000Y-69180000D01*
X205500000Y-67820000D02*
X206500000Y-67820000D01*
G04 #@! TO.C,R103*
X200000000Y-70680000D02*
X199000000Y-70680000D01*
X199000000Y-69320000D02*
X200000000Y-69320000D01*
G04 #@! TO.C,J101*
X202730000Y-50570000D02*
X202730000Y-53230000D01*
X205330000Y-50570000D02*
X202730000Y-50570000D01*
X205330000Y-53230000D02*
X202730000Y-53230000D01*
X205330000Y-50570000D02*
X205330000Y-53230000D01*
X206600000Y-50570000D02*
X207930000Y-50570000D01*
X207930000Y-50570000D02*
X207930000Y-51900000D01*
G04 #@! TO.C,R101*
X198949721Y-51590000D02*
X199275279Y-51590000D01*
X198949721Y-52610000D02*
X199275279Y-52610000D01*
G04 #@! TO.C,TP101*
X185950000Y-71700000D02*
G75*
G03X185950000Y-71700000I-1750000J0D01*
G01*
G04 #@! TO.C,TP102*
X186150000Y-78800000D02*
G75*
G03X186150000Y-78800000I-1750000J0D01*
G01*
G04 #@! TO.C,BT101*
D11*
X204928571Y-117738095D02*
X204976190Y-117595238D01*
X205023809Y-117547619D01*
X205119047Y-117500000D01*
X205261904Y-117500000D01*
X205357142Y-117547619D01*
X205404761Y-117595238D01*
X205452380Y-117690476D01*
X205452380Y-118071428D01*
X204452380Y-118071428D01*
X204452380Y-117738095D01*
X204500000Y-117642857D01*
X204547619Y-117595238D01*
X204642857Y-117547619D01*
X204738095Y-117547619D01*
X204833333Y-117595238D01*
X204880952Y-117642857D01*
X204928571Y-117738095D01*
X204928571Y-118071428D01*
X204452380Y-117214285D02*
X204452380Y-116642857D01*
X205452380Y-116928571D02*
X204452380Y-116928571D01*
X205452380Y-115785714D02*
X205452380Y-116357142D01*
X205452380Y-116071428D02*
X204452380Y-116071428D01*
X204595238Y-116166666D01*
X204690476Y-116261904D01*
X204738095Y-116357142D01*
X204452380Y-115166666D02*
X204452380Y-115071428D01*
X204500000Y-114976190D01*
X204547619Y-114928571D01*
X204642857Y-114880952D01*
X204833333Y-114833333D01*
X205071428Y-114833333D01*
X205261904Y-114880952D01*
X205357142Y-114928571D01*
X205404761Y-114976190D01*
X205452380Y-115071428D01*
X205452380Y-115166666D01*
X205404761Y-115261904D01*
X205357142Y-115309523D01*
X205261904Y-115357142D01*
X205071428Y-115404761D01*
X204833333Y-115404761D01*
X204642857Y-115357142D01*
X204547619Y-115309523D01*
X204500000Y-115261904D01*
X204452380Y-115166666D01*
X205452380Y-113880952D02*
X205452380Y-114452380D01*
X205452380Y-114166666D02*
X204452380Y-114166666D01*
X204595238Y-114261904D01*
X204690476Y-114357142D01*
X204738095Y-114452380D01*
G04 #@! TO.C,C101*
X199480952Y-81157142D02*
X199433333Y-81204761D01*
X199290476Y-81252380D01*
X199195238Y-81252380D01*
X199052380Y-81204761D01*
X198957142Y-81109523D01*
X198909523Y-81014285D01*
X198861904Y-80823809D01*
X198861904Y-80680952D01*
X198909523Y-80490476D01*
X198957142Y-80395238D01*
X199052380Y-80300000D01*
X199195238Y-80252380D01*
X199290476Y-80252380D01*
X199433333Y-80300000D01*
X199480952Y-80347619D01*
X200433333Y-81252380D02*
X199861904Y-81252380D01*
X200147619Y-81252380D02*
X200147619Y-80252380D01*
X200052380Y-80395238D01*
X199957142Y-80490476D01*
X199861904Y-80538095D01*
X201052380Y-80252380D02*
X201147619Y-80252380D01*
X201242857Y-80300000D01*
X201290476Y-80347619D01*
X201338095Y-80442857D01*
X201385714Y-80633333D01*
X201385714Y-80871428D01*
X201338095Y-81061904D01*
X201290476Y-81157142D01*
X201242857Y-81204761D01*
X201147619Y-81252380D01*
X201052380Y-81252380D01*
X200957142Y-81204761D01*
X200909523Y-81157142D01*
X200861904Y-81061904D01*
X200814285Y-80871428D01*
X200814285Y-80633333D01*
X200861904Y-80442857D01*
X200909523Y-80347619D01*
X200957142Y-80300000D01*
X201052380Y-80252380D01*
X202338095Y-81252380D02*
X201766666Y-81252380D01*
X202052380Y-81252380D02*
X202052380Y-80252380D01*
X201957142Y-80395238D01*
X201861904Y-80490476D01*
X201766666Y-80538095D01*
G04 #@! TO.C,C401*
X182680952Y-130357142D02*
X182633333Y-130404761D01*
X182490476Y-130452380D01*
X182395238Y-130452380D01*
X182252380Y-130404761D01*
X182157142Y-130309523D01*
X182109523Y-130214285D01*
X182061904Y-130023809D01*
X182061904Y-129880952D01*
X182109523Y-129690476D01*
X182157142Y-129595238D01*
X182252380Y-129500000D01*
X182395238Y-129452380D01*
X182490476Y-129452380D01*
X182633333Y-129500000D01*
X182680952Y-129547619D01*
X183538095Y-129785714D02*
X183538095Y-130452380D01*
X183300000Y-129404761D02*
X183061904Y-130119047D01*
X183680952Y-130119047D01*
X184252380Y-129452380D02*
X184347619Y-129452380D01*
X184442857Y-129500000D01*
X184490476Y-129547619D01*
X184538095Y-129642857D01*
X184585714Y-129833333D01*
X184585714Y-130071428D01*
X184538095Y-130261904D01*
X184490476Y-130357142D01*
X184442857Y-130404761D01*
X184347619Y-130452380D01*
X184252380Y-130452380D01*
X184157142Y-130404761D01*
X184109523Y-130357142D01*
X184061904Y-130261904D01*
X184014285Y-130071428D01*
X184014285Y-129833333D01*
X184061904Y-129642857D01*
X184109523Y-129547619D01*
X184157142Y-129500000D01*
X184252380Y-129452380D01*
X185538095Y-130452380D02*
X184966666Y-130452380D01*
X185252380Y-130452380D02*
X185252380Y-129452380D01*
X185157142Y-129595238D01*
X185061904Y-129690476D01*
X184966666Y-129738095D01*
G04 #@! TO.C,C402*
X182680952Y-128357142D02*
X182633333Y-128404761D01*
X182490476Y-128452380D01*
X182395238Y-128452380D01*
X182252380Y-128404761D01*
X182157142Y-128309523D01*
X182109523Y-128214285D01*
X182061904Y-128023809D01*
X182061904Y-127880952D01*
X182109523Y-127690476D01*
X182157142Y-127595238D01*
X182252380Y-127500000D01*
X182395238Y-127452380D01*
X182490476Y-127452380D01*
X182633333Y-127500000D01*
X182680952Y-127547619D01*
X183538095Y-127785714D02*
X183538095Y-128452380D01*
X183300000Y-127404761D02*
X183061904Y-128119047D01*
X183680952Y-128119047D01*
X184252380Y-127452380D02*
X184347619Y-127452380D01*
X184442857Y-127500000D01*
X184490476Y-127547619D01*
X184538095Y-127642857D01*
X184585714Y-127833333D01*
X184585714Y-128071428D01*
X184538095Y-128261904D01*
X184490476Y-128357142D01*
X184442857Y-128404761D01*
X184347619Y-128452380D01*
X184252380Y-128452380D01*
X184157142Y-128404761D01*
X184109523Y-128357142D01*
X184061904Y-128261904D01*
X184014285Y-128071428D01*
X184014285Y-127833333D01*
X184061904Y-127642857D01*
X184109523Y-127547619D01*
X184157142Y-127500000D01*
X184252380Y-127452380D01*
X184966666Y-127547619D02*
X185014285Y-127500000D01*
X185109523Y-127452380D01*
X185347619Y-127452380D01*
X185442857Y-127500000D01*
X185490476Y-127547619D01*
X185538095Y-127642857D01*
X185538095Y-127738095D01*
X185490476Y-127880952D01*
X184919047Y-128452380D01*
X185538095Y-128452380D01*
G04 #@! TO.C,D301*
X227109523Y-52882380D02*
X227109523Y-51882380D01*
X227347619Y-51882380D01*
X227490476Y-51930000D01*
X227585714Y-52025238D01*
X227633333Y-52120476D01*
X227680952Y-52310952D01*
X227680952Y-52453809D01*
X227633333Y-52644285D01*
X227585714Y-52739523D01*
X227490476Y-52834761D01*
X227347619Y-52882380D01*
X227109523Y-52882380D01*
X228014285Y-51882380D02*
X228633333Y-51882380D01*
X228300000Y-52263333D01*
X228442857Y-52263333D01*
X228538095Y-52310952D01*
X228585714Y-52358571D01*
X228633333Y-52453809D01*
X228633333Y-52691904D01*
X228585714Y-52787142D01*
X228538095Y-52834761D01*
X228442857Y-52882380D01*
X228157142Y-52882380D01*
X228061904Y-52834761D01*
X228014285Y-52787142D01*
X229252380Y-51882380D02*
X229347619Y-51882380D01*
X229442857Y-51930000D01*
X229490476Y-51977619D01*
X229538095Y-52072857D01*
X229585714Y-52263333D01*
X229585714Y-52501428D01*
X229538095Y-52691904D01*
X229490476Y-52787142D01*
X229442857Y-52834761D01*
X229347619Y-52882380D01*
X229252380Y-52882380D01*
X229157142Y-52834761D01*
X229109523Y-52787142D01*
X229061904Y-52691904D01*
X229014285Y-52501428D01*
X229014285Y-52263333D01*
X229061904Y-52072857D01*
X229109523Y-51977619D01*
X229157142Y-51930000D01*
X229252380Y-51882380D01*
X230538095Y-52882380D02*
X229966666Y-52882380D01*
X230252380Y-52882380D02*
X230252380Y-51882380D01*
X230157142Y-52025238D01*
X230061904Y-52120476D01*
X229966666Y-52168095D01*
G04 #@! TO.C,D302*
X227109523Y-57882380D02*
X227109523Y-56882380D01*
X227347619Y-56882380D01*
X227490476Y-56930000D01*
X227585714Y-57025238D01*
X227633333Y-57120476D01*
X227680952Y-57310952D01*
X227680952Y-57453809D01*
X227633333Y-57644285D01*
X227585714Y-57739523D01*
X227490476Y-57834761D01*
X227347619Y-57882380D01*
X227109523Y-57882380D01*
X228014285Y-56882380D02*
X228633333Y-56882380D01*
X228300000Y-57263333D01*
X228442857Y-57263333D01*
X228538095Y-57310952D01*
X228585714Y-57358571D01*
X228633333Y-57453809D01*
X228633333Y-57691904D01*
X228585714Y-57787142D01*
X228538095Y-57834761D01*
X228442857Y-57882380D01*
X228157142Y-57882380D01*
X228061904Y-57834761D01*
X228014285Y-57787142D01*
X229252380Y-56882380D02*
X229347619Y-56882380D01*
X229442857Y-56930000D01*
X229490476Y-56977619D01*
X229538095Y-57072857D01*
X229585714Y-57263333D01*
X229585714Y-57501428D01*
X229538095Y-57691904D01*
X229490476Y-57787142D01*
X229442857Y-57834761D01*
X229347619Y-57882380D01*
X229252380Y-57882380D01*
X229157142Y-57834761D01*
X229109523Y-57787142D01*
X229061904Y-57691904D01*
X229014285Y-57501428D01*
X229014285Y-57263333D01*
X229061904Y-57072857D01*
X229109523Y-56977619D01*
X229157142Y-56930000D01*
X229252380Y-56882380D01*
X229966666Y-56977619D02*
X230014285Y-56930000D01*
X230109523Y-56882380D01*
X230347619Y-56882380D01*
X230442857Y-56930000D01*
X230490476Y-56977619D01*
X230538095Y-57072857D01*
X230538095Y-57168095D01*
X230490476Y-57310952D01*
X229919047Y-57882380D01*
X230538095Y-57882380D01*
G04 #@! TO.C,D303*
X227109523Y-62882380D02*
X227109523Y-61882380D01*
X227347619Y-61882380D01*
X227490476Y-61930000D01*
X227585714Y-62025238D01*
X227633333Y-62120476D01*
X227680952Y-62310952D01*
X227680952Y-62453809D01*
X227633333Y-62644285D01*
X227585714Y-62739523D01*
X227490476Y-62834761D01*
X227347619Y-62882380D01*
X227109523Y-62882380D01*
X228014285Y-61882380D02*
X228633333Y-61882380D01*
X228300000Y-62263333D01*
X228442857Y-62263333D01*
X228538095Y-62310952D01*
X228585714Y-62358571D01*
X228633333Y-62453809D01*
X228633333Y-62691904D01*
X228585714Y-62787142D01*
X228538095Y-62834761D01*
X228442857Y-62882380D01*
X228157142Y-62882380D01*
X228061904Y-62834761D01*
X228014285Y-62787142D01*
X229252380Y-61882380D02*
X229347619Y-61882380D01*
X229442857Y-61930000D01*
X229490476Y-61977619D01*
X229538095Y-62072857D01*
X229585714Y-62263333D01*
X229585714Y-62501428D01*
X229538095Y-62691904D01*
X229490476Y-62787142D01*
X229442857Y-62834761D01*
X229347619Y-62882380D01*
X229252380Y-62882380D01*
X229157142Y-62834761D01*
X229109523Y-62787142D01*
X229061904Y-62691904D01*
X229014285Y-62501428D01*
X229014285Y-62263333D01*
X229061904Y-62072857D01*
X229109523Y-61977619D01*
X229157142Y-61930000D01*
X229252380Y-61882380D01*
X229919047Y-61882380D02*
X230538095Y-61882380D01*
X230204761Y-62263333D01*
X230347619Y-62263333D01*
X230442857Y-62310952D01*
X230490476Y-62358571D01*
X230538095Y-62453809D01*
X230538095Y-62691904D01*
X230490476Y-62787142D01*
X230442857Y-62834761D01*
X230347619Y-62882380D01*
X230061904Y-62882380D01*
X229966666Y-62834761D01*
X229919047Y-62787142D01*
G04 #@! TO.C,D304*
X227109523Y-67882380D02*
X227109523Y-66882380D01*
X227347619Y-66882380D01*
X227490476Y-66930000D01*
X227585714Y-67025238D01*
X227633333Y-67120476D01*
X227680952Y-67310952D01*
X227680952Y-67453809D01*
X227633333Y-67644285D01*
X227585714Y-67739523D01*
X227490476Y-67834761D01*
X227347619Y-67882380D01*
X227109523Y-67882380D01*
X228014285Y-66882380D02*
X228633333Y-66882380D01*
X228300000Y-67263333D01*
X228442857Y-67263333D01*
X228538095Y-67310952D01*
X228585714Y-67358571D01*
X228633333Y-67453809D01*
X228633333Y-67691904D01*
X228585714Y-67787142D01*
X228538095Y-67834761D01*
X228442857Y-67882380D01*
X228157142Y-67882380D01*
X228061904Y-67834761D01*
X228014285Y-67787142D01*
X229252380Y-66882380D02*
X229347619Y-66882380D01*
X229442857Y-66930000D01*
X229490476Y-66977619D01*
X229538095Y-67072857D01*
X229585714Y-67263333D01*
X229585714Y-67501428D01*
X229538095Y-67691904D01*
X229490476Y-67787142D01*
X229442857Y-67834761D01*
X229347619Y-67882380D01*
X229252380Y-67882380D01*
X229157142Y-67834761D01*
X229109523Y-67787142D01*
X229061904Y-67691904D01*
X229014285Y-67501428D01*
X229014285Y-67263333D01*
X229061904Y-67072857D01*
X229109523Y-66977619D01*
X229157142Y-66930000D01*
X229252380Y-66882380D01*
X230442857Y-67215714D02*
X230442857Y-67882380D01*
X230204761Y-66834761D02*
X229966666Y-67549047D01*
X230585714Y-67549047D01*
G04 #@! TO.C,D305*
X227109523Y-72882380D02*
X227109523Y-71882380D01*
X227347619Y-71882380D01*
X227490476Y-71930000D01*
X227585714Y-72025238D01*
X227633333Y-72120476D01*
X227680952Y-72310952D01*
X227680952Y-72453809D01*
X227633333Y-72644285D01*
X227585714Y-72739523D01*
X227490476Y-72834761D01*
X227347619Y-72882380D01*
X227109523Y-72882380D01*
X228014285Y-71882380D02*
X228633333Y-71882380D01*
X228300000Y-72263333D01*
X228442857Y-72263333D01*
X228538095Y-72310952D01*
X228585714Y-72358571D01*
X228633333Y-72453809D01*
X228633333Y-72691904D01*
X228585714Y-72787142D01*
X228538095Y-72834761D01*
X228442857Y-72882380D01*
X228157142Y-72882380D01*
X228061904Y-72834761D01*
X228014285Y-72787142D01*
X229252380Y-71882380D02*
X229347619Y-71882380D01*
X229442857Y-71930000D01*
X229490476Y-71977619D01*
X229538095Y-72072857D01*
X229585714Y-72263333D01*
X229585714Y-72501428D01*
X229538095Y-72691904D01*
X229490476Y-72787142D01*
X229442857Y-72834761D01*
X229347619Y-72882380D01*
X229252380Y-72882380D01*
X229157142Y-72834761D01*
X229109523Y-72787142D01*
X229061904Y-72691904D01*
X229014285Y-72501428D01*
X229014285Y-72263333D01*
X229061904Y-72072857D01*
X229109523Y-71977619D01*
X229157142Y-71930000D01*
X229252380Y-71882380D01*
X230490476Y-71882380D02*
X230014285Y-71882380D01*
X229966666Y-72358571D01*
X230014285Y-72310952D01*
X230109523Y-72263333D01*
X230347619Y-72263333D01*
X230442857Y-72310952D01*
X230490476Y-72358571D01*
X230538095Y-72453809D01*
X230538095Y-72691904D01*
X230490476Y-72787142D01*
X230442857Y-72834761D01*
X230347619Y-72882380D01*
X230109523Y-72882380D01*
X230014285Y-72834761D01*
X229966666Y-72787142D01*
G04 #@! TO.C,D306*
X227109523Y-77882380D02*
X227109523Y-76882380D01*
X227347619Y-76882380D01*
X227490476Y-76930000D01*
X227585714Y-77025238D01*
X227633333Y-77120476D01*
X227680952Y-77310952D01*
X227680952Y-77453809D01*
X227633333Y-77644285D01*
X227585714Y-77739523D01*
X227490476Y-77834761D01*
X227347619Y-77882380D01*
X227109523Y-77882380D01*
X228014285Y-76882380D02*
X228633333Y-76882380D01*
X228300000Y-77263333D01*
X228442857Y-77263333D01*
X228538095Y-77310952D01*
X228585714Y-77358571D01*
X228633333Y-77453809D01*
X228633333Y-77691904D01*
X228585714Y-77787142D01*
X228538095Y-77834761D01*
X228442857Y-77882380D01*
X228157142Y-77882380D01*
X228061904Y-77834761D01*
X228014285Y-77787142D01*
X229252380Y-76882380D02*
X229347619Y-76882380D01*
X229442857Y-76930000D01*
X229490476Y-76977619D01*
X229538095Y-77072857D01*
X229585714Y-77263333D01*
X229585714Y-77501428D01*
X229538095Y-77691904D01*
X229490476Y-77787142D01*
X229442857Y-77834761D01*
X229347619Y-77882380D01*
X229252380Y-77882380D01*
X229157142Y-77834761D01*
X229109523Y-77787142D01*
X229061904Y-77691904D01*
X229014285Y-77501428D01*
X229014285Y-77263333D01*
X229061904Y-77072857D01*
X229109523Y-76977619D01*
X229157142Y-76930000D01*
X229252380Y-76882380D01*
X230442857Y-76882380D02*
X230252380Y-76882380D01*
X230157142Y-76930000D01*
X230109523Y-76977619D01*
X230014285Y-77120476D01*
X229966666Y-77310952D01*
X229966666Y-77691904D01*
X230014285Y-77787142D01*
X230061904Y-77834761D01*
X230157142Y-77882380D01*
X230347619Y-77882380D01*
X230442857Y-77834761D01*
X230490476Y-77787142D01*
X230538095Y-77691904D01*
X230538095Y-77453809D01*
X230490476Y-77358571D01*
X230442857Y-77310952D01*
X230347619Y-77263333D01*
X230157142Y-77263333D01*
X230061904Y-77310952D01*
X230014285Y-77358571D01*
X229966666Y-77453809D01*
G04 #@! TO.C,D307*
X227109523Y-82882380D02*
X227109523Y-81882380D01*
X227347619Y-81882380D01*
X227490476Y-81930000D01*
X227585714Y-82025238D01*
X227633333Y-82120476D01*
X227680952Y-82310952D01*
X227680952Y-82453809D01*
X227633333Y-82644285D01*
X227585714Y-82739523D01*
X227490476Y-82834761D01*
X227347619Y-82882380D01*
X227109523Y-82882380D01*
X228014285Y-81882380D02*
X228633333Y-81882380D01*
X228300000Y-82263333D01*
X228442857Y-82263333D01*
X228538095Y-82310952D01*
X228585714Y-82358571D01*
X228633333Y-82453809D01*
X228633333Y-82691904D01*
X228585714Y-82787142D01*
X228538095Y-82834761D01*
X228442857Y-82882380D01*
X228157142Y-82882380D01*
X228061904Y-82834761D01*
X228014285Y-82787142D01*
X229252380Y-81882380D02*
X229347619Y-81882380D01*
X229442857Y-81930000D01*
X229490476Y-81977619D01*
X229538095Y-82072857D01*
X229585714Y-82263333D01*
X229585714Y-82501428D01*
X229538095Y-82691904D01*
X229490476Y-82787142D01*
X229442857Y-82834761D01*
X229347619Y-82882380D01*
X229252380Y-82882380D01*
X229157142Y-82834761D01*
X229109523Y-82787142D01*
X229061904Y-82691904D01*
X229014285Y-82501428D01*
X229014285Y-82263333D01*
X229061904Y-82072857D01*
X229109523Y-81977619D01*
X229157142Y-81930000D01*
X229252380Y-81882380D01*
X229919047Y-81882380D02*
X230585714Y-81882380D01*
X230157142Y-82882380D01*
G04 #@! TO.C,D308*
X227109523Y-87882380D02*
X227109523Y-86882380D01*
X227347619Y-86882380D01*
X227490476Y-86930000D01*
X227585714Y-87025238D01*
X227633333Y-87120476D01*
X227680952Y-87310952D01*
X227680952Y-87453809D01*
X227633333Y-87644285D01*
X227585714Y-87739523D01*
X227490476Y-87834761D01*
X227347619Y-87882380D01*
X227109523Y-87882380D01*
X228014285Y-86882380D02*
X228633333Y-86882380D01*
X228300000Y-87263333D01*
X228442857Y-87263333D01*
X228538095Y-87310952D01*
X228585714Y-87358571D01*
X228633333Y-87453809D01*
X228633333Y-87691904D01*
X228585714Y-87787142D01*
X228538095Y-87834761D01*
X228442857Y-87882380D01*
X228157142Y-87882380D01*
X228061904Y-87834761D01*
X228014285Y-87787142D01*
X229252380Y-86882380D02*
X229347619Y-86882380D01*
X229442857Y-86930000D01*
X229490476Y-86977619D01*
X229538095Y-87072857D01*
X229585714Y-87263333D01*
X229585714Y-87501428D01*
X229538095Y-87691904D01*
X229490476Y-87787142D01*
X229442857Y-87834761D01*
X229347619Y-87882380D01*
X229252380Y-87882380D01*
X229157142Y-87834761D01*
X229109523Y-87787142D01*
X229061904Y-87691904D01*
X229014285Y-87501428D01*
X229014285Y-87263333D01*
X229061904Y-87072857D01*
X229109523Y-86977619D01*
X229157142Y-86930000D01*
X229252380Y-86882380D01*
X230157142Y-87310952D02*
X230061904Y-87263333D01*
X230014285Y-87215714D01*
X229966666Y-87120476D01*
X229966666Y-87072857D01*
X230014285Y-86977619D01*
X230061904Y-86930000D01*
X230157142Y-86882380D01*
X230347619Y-86882380D01*
X230442857Y-86930000D01*
X230490476Y-86977619D01*
X230538095Y-87072857D01*
X230538095Y-87120476D01*
X230490476Y-87215714D01*
X230442857Y-87263333D01*
X230347619Y-87310952D01*
X230157142Y-87310952D01*
X230061904Y-87358571D01*
X230014285Y-87406190D01*
X229966666Y-87501428D01*
X229966666Y-87691904D01*
X230014285Y-87787142D01*
X230061904Y-87834761D01*
X230157142Y-87882380D01*
X230347619Y-87882380D01*
X230442857Y-87834761D01*
X230490476Y-87787142D01*
X230538095Y-87691904D01*
X230538095Y-87501428D01*
X230490476Y-87406190D01*
X230442857Y-87358571D01*
X230347619Y-87310952D01*
G04 #@! TO.C,D309*
X227109523Y-92882380D02*
X227109523Y-91882380D01*
X227347619Y-91882380D01*
X227490476Y-91930000D01*
X227585714Y-92025238D01*
X227633333Y-92120476D01*
X227680952Y-92310952D01*
X227680952Y-92453809D01*
X227633333Y-92644285D01*
X227585714Y-92739523D01*
X227490476Y-92834761D01*
X227347619Y-92882380D01*
X227109523Y-92882380D01*
X228014285Y-91882380D02*
X228633333Y-91882380D01*
X228300000Y-92263333D01*
X228442857Y-92263333D01*
X228538095Y-92310952D01*
X228585714Y-92358571D01*
X228633333Y-92453809D01*
X228633333Y-92691904D01*
X228585714Y-92787142D01*
X228538095Y-92834761D01*
X228442857Y-92882380D01*
X228157142Y-92882380D01*
X228061904Y-92834761D01*
X228014285Y-92787142D01*
X229252380Y-91882380D02*
X229347619Y-91882380D01*
X229442857Y-91930000D01*
X229490476Y-91977619D01*
X229538095Y-92072857D01*
X229585714Y-92263333D01*
X229585714Y-92501428D01*
X229538095Y-92691904D01*
X229490476Y-92787142D01*
X229442857Y-92834761D01*
X229347619Y-92882380D01*
X229252380Y-92882380D01*
X229157142Y-92834761D01*
X229109523Y-92787142D01*
X229061904Y-92691904D01*
X229014285Y-92501428D01*
X229014285Y-92263333D01*
X229061904Y-92072857D01*
X229109523Y-91977619D01*
X229157142Y-91930000D01*
X229252380Y-91882380D01*
X230061904Y-92882380D02*
X230252380Y-92882380D01*
X230347619Y-92834761D01*
X230395238Y-92787142D01*
X230490476Y-92644285D01*
X230538095Y-92453809D01*
X230538095Y-92072857D01*
X230490476Y-91977619D01*
X230442857Y-91930000D01*
X230347619Y-91882380D01*
X230157142Y-91882380D01*
X230061904Y-91930000D01*
X230014285Y-91977619D01*
X229966666Y-92072857D01*
X229966666Y-92310952D01*
X230014285Y-92406190D01*
X230061904Y-92453809D01*
X230157142Y-92501428D01*
X230347619Y-92501428D01*
X230442857Y-92453809D01*
X230490476Y-92406190D01*
X230538095Y-92310952D01*
G04 #@! TO.C,ICSP1*
X185817619Y-113122380D02*
X185817619Y-112122380D01*
X186865238Y-113027142D02*
X186817619Y-113074761D01*
X186674761Y-113122380D01*
X186579523Y-113122380D01*
X186436666Y-113074761D01*
X186341428Y-112979523D01*
X186293809Y-112884285D01*
X186246190Y-112693809D01*
X186246190Y-112550952D01*
X186293809Y-112360476D01*
X186341428Y-112265238D01*
X186436666Y-112170000D01*
X186579523Y-112122380D01*
X186674761Y-112122380D01*
X186817619Y-112170000D01*
X186865238Y-112217619D01*
X187246190Y-113074761D02*
X187389047Y-113122380D01*
X187627142Y-113122380D01*
X187722380Y-113074761D01*
X187770000Y-113027142D01*
X187817619Y-112931904D01*
X187817619Y-112836666D01*
X187770000Y-112741428D01*
X187722380Y-112693809D01*
X187627142Y-112646190D01*
X187436666Y-112598571D01*
X187341428Y-112550952D01*
X187293809Y-112503333D01*
X187246190Y-112408095D01*
X187246190Y-112312857D01*
X187293809Y-112217619D01*
X187341428Y-112170000D01*
X187436666Y-112122380D01*
X187674761Y-112122380D01*
X187817619Y-112170000D01*
X188246190Y-113122380D02*
X188246190Y-112122380D01*
X188627142Y-112122380D01*
X188722380Y-112170000D01*
X188770000Y-112217619D01*
X188817619Y-112312857D01*
X188817619Y-112455714D01*
X188770000Y-112550952D01*
X188722380Y-112598571D01*
X188627142Y-112646190D01*
X188246190Y-112646190D01*
X189770000Y-113122380D02*
X189198571Y-113122380D01*
X189484285Y-113122380D02*
X189484285Y-112122380D01*
X189389047Y-112265238D01*
X189293809Y-112360476D01*
X189198571Y-112408095D01*
G04 #@! TO.C,U401*
X187452380Y-134914285D02*
X188261904Y-134914285D01*
X188357142Y-134866666D01*
X188404761Y-134819047D01*
X188452380Y-134723809D01*
X188452380Y-134533333D01*
X188404761Y-134438095D01*
X188357142Y-134390476D01*
X188261904Y-134342857D01*
X187452380Y-134342857D01*
X187785714Y-133438095D02*
X188452380Y-133438095D01*
X187404761Y-133676190D02*
X188119047Y-133914285D01*
X188119047Y-133295238D01*
X187452380Y-132723809D02*
X187452380Y-132628571D01*
X187500000Y-132533333D01*
X187547619Y-132485714D01*
X187642857Y-132438095D01*
X187833333Y-132390476D01*
X188071428Y-132390476D01*
X188261904Y-132438095D01*
X188357142Y-132485714D01*
X188404761Y-132533333D01*
X188452380Y-132628571D01*
X188452380Y-132723809D01*
X188404761Y-132819047D01*
X188357142Y-132866666D01*
X188261904Y-132914285D01*
X188071428Y-132961904D01*
X187833333Y-132961904D01*
X187642857Y-132914285D01*
X187547619Y-132866666D01*
X187500000Y-132819047D01*
X187452380Y-132723809D01*
X188452380Y-131438095D02*
X188452380Y-132009523D01*
X188452380Y-131723809D02*
X187452380Y-131723809D01*
X187595238Y-131819047D01*
X187690476Y-131914285D01*
X187738095Y-132009523D01*
X182414285Y-137652380D02*
X181938095Y-137652380D01*
X181938095Y-136652380D01*
X182747619Y-137652380D02*
X182747619Y-136652380D01*
X183176190Y-137604761D02*
X183319047Y-137652380D01*
X183557142Y-137652380D01*
X183652380Y-137604761D01*
X183700000Y-137557142D01*
X183747619Y-137461904D01*
X183747619Y-137366666D01*
X183700000Y-137271428D01*
X183652380Y-137223809D01*
X183557142Y-137176190D01*
X183366666Y-137128571D01*
X183271428Y-137080952D01*
X183223809Y-137033333D01*
X183176190Y-136938095D01*
X183176190Y-136842857D01*
X183223809Y-136747619D01*
X183271428Y-136700000D01*
X183366666Y-136652380D01*
X183604761Y-136652380D01*
X183747619Y-136700000D01*
X184080952Y-136652380D02*
X184700000Y-136652380D01*
X184366666Y-137033333D01*
X184509523Y-137033333D01*
X184604761Y-137080952D01*
X184652380Y-137128571D01*
X184700000Y-137223809D01*
X184700000Y-137461904D01*
X184652380Y-137557142D01*
X184604761Y-137604761D01*
X184509523Y-137652380D01*
X184223809Y-137652380D01*
X184128571Y-137604761D01*
X184080952Y-137557142D01*
X185128571Y-137652380D02*
X185128571Y-136652380D01*
X185366666Y-136652380D01*
X185509523Y-136700000D01*
X185604761Y-136795238D01*
X185652380Y-136890476D01*
X185700000Y-137080952D01*
X185700000Y-137223809D01*
X185652380Y-137414285D01*
X185604761Y-137509523D01*
X185509523Y-137604761D01*
X185366666Y-137652380D01*
X185128571Y-137652380D01*
X186128571Y-137652380D02*
X186128571Y-136652380D01*
X186128571Y-137128571D02*
X186700000Y-137128571D01*
X186700000Y-137652380D02*
X186700000Y-136652380D01*
X187033333Y-136652380D02*
X187604761Y-136652380D01*
X187319047Y-137652380D02*
X187319047Y-136652380D01*
X188509523Y-137652380D02*
X188176190Y-137176190D01*
X187938095Y-137652380D02*
X187938095Y-136652380D01*
X188319047Y-136652380D01*
X188414285Y-136700000D01*
X188461904Y-136747619D01*
X188509523Y-136842857D01*
X188509523Y-136985714D01*
X188461904Y-137080952D01*
X188414285Y-137128571D01*
X188319047Y-137176190D01*
X187938095Y-137176190D01*
X182916001Y-131076381D02*
X182916001Y-131314477D01*
X182677905Y-131219239D02*
X182916001Y-131314477D01*
X183154096Y-131219239D01*
X182773143Y-131504953D02*
X182916001Y-131314477D01*
X183058858Y-131504953D01*
G04 #@! TO.C,C403*
X219680952Y-113357142D02*
X219633333Y-113404761D01*
X219490476Y-113452380D01*
X219395238Y-113452380D01*
X219252380Y-113404761D01*
X219157142Y-113309523D01*
X219109523Y-113214285D01*
X219061904Y-113023809D01*
X219061904Y-112880952D01*
X219109523Y-112690476D01*
X219157142Y-112595238D01*
X219252380Y-112500000D01*
X219395238Y-112452380D01*
X219490476Y-112452380D01*
X219633333Y-112500000D01*
X219680952Y-112547619D01*
X220538095Y-112785714D02*
X220538095Y-113452380D01*
X220300000Y-112404761D02*
X220061904Y-113119047D01*
X220680952Y-113119047D01*
X221252380Y-112452380D02*
X221347619Y-112452380D01*
X221442857Y-112500000D01*
X221490476Y-112547619D01*
X221538095Y-112642857D01*
X221585714Y-112833333D01*
X221585714Y-113071428D01*
X221538095Y-113261904D01*
X221490476Y-113357142D01*
X221442857Y-113404761D01*
X221347619Y-113452380D01*
X221252380Y-113452380D01*
X221157142Y-113404761D01*
X221109523Y-113357142D01*
X221061904Y-113261904D01*
X221014285Y-113071428D01*
X221014285Y-112833333D01*
X221061904Y-112642857D01*
X221109523Y-112547619D01*
X221157142Y-112500000D01*
X221252380Y-112452380D01*
X221919047Y-112452380D02*
X222538095Y-112452380D01*
X222204761Y-112833333D01*
X222347619Y-112833333D01*
X222442857Y-112880952D01*
X222490476Y-112928571D01*
X222538095Y-113023809D01*
X222538095Y-113261904D01*
X222490476Y-113357142D01*
X222442857Y-113404761D01*
X222347619Y-113452380D01*
X222061904Y-113452380D01*
X221966666Y-113404761D01*
X221919047Y-113357142D01*
G04 #@! TO.C,C404*
X229357142Y-111619047D02*
X229404761Y-111666666D01*
X229452380Y-111809523D01*
X229452380Y-111904761D01*
X229404761Y-112047619D01*
X229309523Y-112142857D01*
X229214285Y-112190476D01*
X229023809Y-112238095D01*
X228880952Y-112238095D01*
X228690476Y-112190476D01*
X228595238Y-112142857D01*
X228500000Y-112047619D01*
X228452380Y-111904761D01*
X228452380Y-111809523D01*
X228500000Y-111666666D01*
X228547619Y-111619047D01*
X228785714Y-110761904D02*
X229452380Y-110761904D01*
X228404761Y-111000000D02*
X229119047Y-111238095D01*
X229119047Y-110619047D01*
X228452380Y-110047619D02*
X228452380Y-109952380D01*
X228500000Y-109857142D01*
X228547619Y-109809523D01*
X228642857Y-109761904D01*
X228833333Y-109714285D01*
X229071428Y-109714285D01*
X229261904Y-109761904D01*
X229357142Y-109809523D01*
X229404761Y-109857142D01*
X229452380Y-109952380D01*
X229452380Y-110047619D01*
X229404761Y-110142857D01*
X229357142Y-110190476D01*
X229261904Y-110238095D01*
X229071428Y-110285714D01*
X228833333Y-110285714D01*
X228642857Y-110238095D01*
X228547619Y-110190476D01*
X228500000Y-110142857D01*
X228452380Y-110047619D01*
X228785714Y-108857142D02*
X229452380Y-108857142D01*
X228404761Y-109095238D02*
X229119047Y-109333333D01*
X229119047Y-108714285D01*
G04 #@! TO.C,L401*
X218052380Y-111619047D02*
X218052380Y-112095238D01*
X217052380Y-112095238D01*
X217385714Y-110857142D02*
X218052380Y-110857142D01*
X217004761Y-111095238D02*
X217719047Y-111333333D01*
X217719047Y-110714285D01*
X217052380Y-110142857D02*
X217052380Y-110047619D01*
X217100000Y-109952380D01*
X217147619Y-109904761D01*
X217242857Y-109857142D01*
X217433333Y-109809523D01*
X217671428Y-109809523D01*
X217861904Y-109857142D01*
X217957142Y-109904761D01*
X218004761Y-109952380D01*
X218052380Y-110047619D01*
X218052380Y-110142857D01*
X218004761Y-110238095D01*
X217957142Y-110285714D01*
X217861904Y-110333333D01*
X217671428Y-110380952D01*
X217433333Y-110380952D01*
X217242857Y-110333333D01*
X217147619Y-110285714D01*
X217100000Y-110238095D01*
X217052380Y-110142857D01*
X218052380Y-108857142D02*
X218052380Y-109428571D01*
X218052380Y-109142857D02*
X217052380Y-109142857D01*
X217195238Y-109238095D01*
X217290476Y-109333333D01*
X217338095Y-109428571D01*
G04 #@! TO.C,R201*
X223380952Y-53002380D02*
X223047619Y-52526190D01*
X222809523Y-53002380D02*
X222809523Y-52002380D01*
X223190476Y-52002380D01*
X223285714Y-52050000D01*
X223333333Y-52097619D01*
X223380952Y-52192857D01*
X223380952Y-52335714D01*
X223333333Y-52430952D01*
X223285714Y-52478571D01*
X223190476Y-52526190D01*
X222809523Y-52526190D01*
X223761904Y-52097619D02*
X223809523Y-52050000D01*
X223904761Y-52002380D01*
X224142857Y-52002380D01*
X224238095Y-52050000D01*
X224285714Y-52097619D01*
X224333333Y-52192857D01*
X224333333Y-52288095D01*
X224285714Y-52430952D01*
X223714285Y-53002380D01*
X224333333Y-53002380D01*
X224952380Y-52002380D02*
X225047619Y-52002380D01*
X225142857Y-52050000D01*
X225190476Y-52097619D01*
X225238095Y-52192857D01*
X225285714Y-52383333D01*
X225285714Y-52621428D01*
X225238095Y-52811904D01*
X225190476Y-52907142D01*
X225142857Y-52954761D01*
X225047619Y-53002380D01*
X224952380Y-53002380D01*
X224857142Y-52954761D01*
X224809523Y-52907142D01*
X224761904Y-52811904D01*
X224714285Y-52621428D01*
X224714285Y-52383333D01*
X224761904Y-52192857D01*
X224809523Y-52097619D01*
X224857142Y-52050000D01*
X224952380Y-52002380D01*
X226238095Y-53002380D02*
X225666666Y-53002380D01*
X225952380Y-53002380D02*
X225952380Y-52002380D01*
X225857142Y-52145238D01*
X225761904Y-52240476D01*
X225666666Y-52288095D01*
G04 #@! TO.C,R202*
X223380952Y-58002380D02*
X223047619Y-57526190D01*
X222809523Y-58002380D02*
X222809523Y-57002380D01*
X223190476Y-57002380D01*
X223285714Y-57050000D01*
X223333333Y-57097619D01*
X223380952Y-57192857D01*
X223380952Y-57335714D01*
X223333333Y-57430952D01*
X223285714Y-57478571D01*
X223190476Y-57526190D01*
X222809523Y-57526190D01*
X223761904Y-57097619D02*
X223809523Y-57050000D01*
X223904761Y-57002380D01*
X224142857Y-57002380D01*
X224238095Y-57050000D01*
X224285714Y-57097619D01*
X224333333Y-57192857D01*
X224333333Y-57288095D01*
X224285714Y-57430952D01*
X223714285Y-58002380D01*
X224333333Y-58002380D01*
X224952380Y-57002380D02*
X225047619Y-57002380D01*
X225142857Y-57050000D01*
X225190476Y-57097619D01*
X225238095Y-57192857D01*
X225285714Y-57383333D01*
X225285714Y-57621428D01*
X225238095Y-57811904D01*
X225190476Y-57907142D01*
X225142857Y-57954761D01*
X225047619Y-58002380D01*
X224952380Y-58002380D01*
X224857142Y-57954761D01*
X224809523Y-57907142D01*
X224761904Y-57811904D01*
X224714285Y-57621428D01*
X224714285Y-57383333D01*
X224761904Y-57192857D01*
X224809523Y-57097619D01*
X224857142Y-57050000D01*
X224952380Y-57002380D01*
X225666666Y-57097619D02*
X225714285Y-57050000D01*
X225809523Y-57002380D01*
X226047619Y-57002380D01*
X226142857Y-57050000D01*
X226190476Y-57097619D01*
X226238095Y-57192857D01*
X226238095Y-57288095D01*
X226190476Y-57430952D01*
X225619047Y-58002380D01*
X226238095Y-58002380D01*
G04 #@! TO.C,R203*
X223380952Y-63002380D02*
X223047619Y-62526190D01*
X222809523Y-63002380D02*
X222809523Y-62002380D01*
X223190476Y-62002380D01*
X223285714Y-62050000D01*
X223333333Y-62097619D01*
X223380952Y-62192857D01*
X223380952Y-62335714D01*
X223333333Y-62430952D01*
X223285714Y-62478571D01*
X223190476Y-62526190D01*
X222809523Y-62526190D01*
X223761904Y-62097619D02*
X223809523Y-62050000D01*
X223904761Y-62002380D01*
X224142857Y-62002380D01*
X224238095Y-62050000D01*
X224285714Y-62097619D01*
X224333333Y-62192857D01*
X224333333Y-62288095D01*
X224285714Y-62430952D01*
X223714285Y-63002380D01*
X224333333Y-63002380D01*
X224952380Y-62002380D02*
X225047619Y-62002380D01*
X225142857Y-62050000D01*
X225190476Y-62097619D01*
X225238095Y-62192857D01*
X225285714Y-62383333D01*
X225285714Y-62621428D01*
X225238095Y-62811904D01*
X225190476Y-62907142D01*
X225142857Y-62954761D01*
X225047619Y-63002380D01*
X224952380Y-63002380D01*
X224857142Y-62954761D01*
X224809523Y-62907142D01*
X224761904Y-62811904D01*
X224714285Y-62621428D01*
X224714285Y-62383333D01*
X224761904Y-62192857D01*
X224809523Y-62097619D01*
X224857142Y-62050000D01*
X224952380Y-62002380D01*
X225619047Y-62002380D02*
X226238095Y-62002380D01*
X225904761Y-62383333D01*
X226047619Y-62383333D01*
X226142857Y-62430952D01*
X226190476Y-62478571D01*
X226238095Y-62573809D01*
X226238095Y-62811904D01*
X226190476Y-62907142D01*
X226142857Y-62954761D01*
X226047619Y-63002380D01*
X225761904Y-63002380D01*
X225666666Y-62954761D01*
X225619047Y-62907142D01*
G04 #@! TO.C,R204*
X223380952Y-68002380D02*
X223047619Y-67526190D01*
X222809523Y-68002380D02*
X222809523Y-67002380D01*
X223190476Y-67002380D01*
X223285714Y-67050000D01*
X223333333Y-67097619D01*
X223380952Y-67192857D01*
X223380952Y-67335714D01*
X223333333Y-67430952D01*
X223285714Y-67478571D01*
X223190476Y-67526190D01*
X222809523Y-67526190D01*
X223761904Y-67097619D02*
X223809523Y-67050000D01*
X223904761Y-67002380D01*
X224142857Y-67002380D01*
X224238095Y-67050000D01*
X224285714Y-67097619D01*
X224333333Y-67192857D01*
X224333333Y-67288095D01*
X224285714Y-67430952D01*
X223714285Y-68002380D01*
X224333333Y-68002380D01*
X224952380Y-67002380D02*
X225047619Y-67002380D01*
X225142857Y-67050000D01*
X225190476Y-67097619D01*
X225238095Y-67192857D01*
X225285714Y-67383333D01*
X225285714Y-67621428D01*
X225238095Y-67811904D01*
X225190476Y-67907142D01*
X225142857Y-67954761D01*
X225047619Y-68002380D01*
X224952380Y-68002380D01*
X224857142Y-67954761D01*
X224809523Y-67907142D01*
X224761904Y-67811904D01*
X224714285Y-67621428D01*
X224714285Y-67383333D01*
X224761904Y-67192857D01*
X224809523Y-67097619D01*
X224857142Y-67050000D01*
X224952380Y-67002380D01*
X226142857Y-67335714D02*
X226142857Y-68002380D01*
X225904761Y-66954761D02*
X225666666Y-67669047D01*
X226285714Y-67669047D01*
G04 #@! TO.C,R205*
X223380952Y-73002380D02*
X223047619Y-72526190D01*
X222809523Y-73002380D02*
X222809523Y-72002380D01*
X223190476Y-72002380D01*
X223285714Y-72050000D01*
X223333333Y-72097619D01*
X223380952Y-72192857D01*
X223380952Y-72335714D01*
X223333333Y-72430952D01*
X223285714Y-72478571D01*
X223190476Y-72526190D01*
X222809523Y-72526190D01*
X223761904Y-72097619D02*
X223809523Y-72050000D01*
X223904761Y-72002380D01*
X224142857Y-72002380D01*
X224238095Y-72050000D01*
X224285714Y-72097619D01*
X224333333Y-72192857D01*
X224333333Y-72288095D01*
X224285714Y-72430952D01*
X223714285Y-73002380D01*
X224333333Y-73002380D01*
X224952380Y-72002380D02*
X225047619Y-72002380D01*
X225142857Y-72050000D01*
X225190476Y-72097619D01*
X225238095Y-72192857D01*
X225285714Y-72383333D01*
X225285714Y-72621428D01*
X225238095Y-72811904D01*
X225190476Y-72907142D01*
X225142857Y-72954761D01*
X225047619Y-73002380D01*
X224952380Y-73002380D01*
X224857142Y-72954761D01*
X224809523Y-72907142D01*
X224761904Y-72811904D01*
X224714285Y-72621428D01*
X224714285Y-72383333D01*
X224761904Y-72192857D01*
X224809523Y-72097619D01*
X224857142Y-72050000D01*
X224952380Y-72002380D01*
X226190476Y-72002380D02*
X225714285Y-72002380D01*
X225666666Y-72478571D01*
X225714285Y-72430952D01*
X225809523Y-72383333D01*
X226047619Y-72383333D01*
X226142857Y-72430952D01*
X226190476Y-72478571D01*
X226238095Y-72573809D01*
X226238095Y-72811904D01*
X226190476Y-72907142D01*
X226142857Y-72954761D01*
X226047619Y-73002380D01*
X225809523Y-73002380D01*
X225714285Y-72954761D01*
X225666666Y-72907142D01*
G04 #@! TO.C,R206*
X223380952Y-78002380D02*
X223047619Y-77526190D01*
X222809523Y-78002380D02*
X222809523Y-77002380D01*
X223190476Y-77002380D01*
X223285714Y-77050000D01*
X223333333Y-77097619D01*
X223380952Y-77192857D01*
X223380952Y-77335714D01*
X223333333Y-77430952D01*
X223285714Y-77478571D01*
X223190476Y-77526190D01*
X222809523Y-77526190D01*
X223761904Y-77097619D02*
X223809523Y-77050000D01*
X223904761Y-77002380D01*
X224142857Y-77002380D01*
X224238095Y-77050000D01*
X224285714Y-77097619D01*
X224333333Y-77192857D01*
X224333333Y-77288095D01*
X224285714Y-77430952D01*
X223714285Y-78002380D01*
X224333333Y-78002380D01*
X224952380Y-77002380D02*
X225047619Y-77002380D01*
X225142857Y-77050000D01*
X225190476Y-77097619D01*
X225238095Y-77192857D01*
X225285714Y-77383333D01*
X225285714Y-77621428D01*
X225238095Y-77811904D01*
X225190476Y-77907142D01*
X225142857Y-77954761D01*
X225047619Y-78002380D01*
X224952380Y-78002380D01*
X224857142Y-77954761D01*
X224809523Y-77907142D01*
X224761904Y-77811904D01*
X224714285Y-77621428D01*
X224714285Y-77383333D01*
X224761904Y-77192857D01*
X224809523Y-77097619D01*
X224857142Y-77050000D01*
X224952380Y-77002380D01*
X226142857Y-77002380D02*
X225952380Y-77002380D01*
X225857142Y-77050000D01*
X225809523Y-77097619D01*
X225714285Y-77240476D01*
X225666666Y-77430952D01*
X225666666Y-77811904D01*
X225714285Y-77907142D01*
X225761904Y-77954761D01*
X225857142Y-78002380D01*
X226047619Y-78002380D01*
X226142857Y-77954761D01*
X226190476Y-77907142D01*
X226238095Y-77811904D01*
X226238095Y-77573809D01*
X226190476Y-77478571D01*
X226142857Y-77430952D01*
X226047619Y-77383333D01*
X225857142Y-77383333D01*
X225761904Y-77430952D01*
X225714285Y-77478571D01*
X225666666Y-77573809D01*
G04 #@! TO.C,R207*
X223380952Y-83002380D02*
X223047619Y-82526190D01*
X222809523Y-83002380D02*
X222809523Y-82002380D01*
X223190476Y-82002380D01*
X223285714Y-82050000D01*
X223333333Y-82097619D01*
X223380952Y-82192857D01*
X223380952Y-82335714D01*
X223333333Y-82430952D01*
X223285714Y-82478571D01*
X223190476Y-82526190D01*
X222809523Y-82526190D01*
X223761904Y-82097619D02*
X223809523Y-82050000D01*
X223904761Y-82002380D01*
X224142857Y-82002380D01*
X224238095Y-82050000D01*
X224285714Y-82097619D01*
X224333333Y-82192857D01*
X224333333Y-82288095D01*
X224285714Y-82430952D01*
X223714285Y-83002380D01*
X224333333Y-83002380D01*
X224952380Y-82002380D02*
X225047619Y-82002380D01*
X225142857Y-82050000D01*
X225190476Y-82097619D01*
X225238095Y-82192857D01*
X225285714Y-82383333D01*
X225285714Y-82621428D01*
X225238095Y-82811904D01*
X225190476Y-82907142D01*
X225142857Y-82954761D01*
X225047619Y-83002380D01*
X224952380Y-83002380D01*
X224857142Y-82954761D01*
X224809523Y-82907142D01*
X224761904Y-82811904D01*
X224714285Y-82621428D01*
X224714285Y-82383333D01*
X224761904Y-82192857D01*
X224809523Y-82097619D01*
X224857142Y-82050000D01*
X224952380Y-82002380D01*
X225619047Y-82002380D02*
X226285714Y-82002380D01*
X225857142Y-83002380D01*
G04 #@! TO.C,R208*
X223380952Y-88002380D02*
X223047619Y-87526190D01*
X222809523Y-88002380D02*
X222809523Y-87002380D01*
X223190476Y-87002380D01*
X223285714Y-87050000D01*
X223333333Y-87097619D01*
X223380952Y-87192857D01*
X223380952Y-87335714D01*
X223333333Y-87430952D01*
X223285714Y-87478571D01*
X223190476Y-87526190D01*
X222809523Y-87526190D01*
X223761904Y-87097619D02*
X223809523Y-87050000D01*
X223904761Y-87002380D01*
X224142857Y-87002380D01*
X224238095Y-87050000D01*
X224285714Y-87097619D01*
X224333333Y-87192857D01*
X224333333Y-87288095D01*
X224285714Y-87430952D01*
X223714285Y-88002380D01*
X224333333Y-88002380D01*
X224952380Y-87002380D02*
X225047619Y-87002380D01*
X225142857Y-87050000D01*
X225190476Y-87097619D01*
X225238095Y-87192857D01*
X225285714Y-87383333D01*
X225285714Y-87621428D01*
X225238095Y-87811904D01*
X225190476Y-87907142D01*
X225142857Y-87954761D01*
X225047619Y-88002380D01*
X224952380Y-88002380D01*
X224857142Y-87954761D01*
X224809523Y-87907142D01*
X224761904Y-87811904D01*
X224714285Y-87621428D01*
X224714285Y-87383333D01*
X224761904Y-87192857D01*
X224809523Y-87097619D01*
X224857142Y-87050000D01*
X224952380Y-87002380D01*
X225857142Y-87430952D02*
X225761904Y-87383333D01*
X225714285Y-87335714D01*
X225666666Y-87240476D01*
X225666666Y-87192857D01*
X225714285Y-87097619D01*
X225761904Y-87050000D01*
X225857142Y-87002380D01*
X226047619Y-87002380D01*
X226142857Y-87050000D01*
X226190476Y-87097619D01*
X226238095Y-87192857D01*
X226238095Y-87240476D01*
X226190476Y-87335714D01*
X226142857Y-87383333D01*
X226047619Y-87430952D01*
X225857142Y-87430952D01*
X225761904Y-87478571D01*
X225714285Y-87526190D01*
X225666666Y-87621428D01*
X225666666Y-87811904D01*
X225714285Y-87907142D01*
X225761904Y-87954761D01*
X225857142Y-88002380D01*
X226047619Y-88002380D01*
X226142857Y-87954761D01*
X226190476Y-87907142D01*
X226238095Y-87811904D01*
X226238095Y-87621428D01*
X226190476Y-87526190D01*
X226142857Y-87478571D01*
X226047619Y-87430952D01*
G04 #@! TO.C,R209*
X223380952Y-93002380D02*
X223047619Y-92526190D01*
X222809523Y-93002380D02*
X222809523Y-92002380D01*
X223190476Y-92002380D01*
X223285714Y-92050000D01*
X223333333Y-92097619D01*
X223380952Y-92192857D01*
X223380952Y-92335714D01*
X223333333Y-92430952D01*
X223285714Y-92478571D01*
X223190476Y-92526190D01*
X222809523Y-92526190D01*
X223761904Y-92097619D02*
X223809523Y-92050000D01*
X223904761Y-92002380D01*
X224142857Y-92002380D01*
X224238095Y-92050000D01*
X224285714Y-92097619D01*
X224333333Y-92192857D01*
X224333333Y-92288095D01*
X224285714Y-92430952D01*
X223714285Y-93002380D01*
X224333333Y-93002380D01*
X224952380Y-92002380D02*
X225047619Y-92002380D01*
X225142857Y-92050000D01*
X225190476Y-92097619D01*
X225238095Y-92192857D01*
X225285714Y-92383333D01*
X225285714Y-92621428D01*
X225238095Y-92811904D01*
X225190476Y-92907142D01*
X225142857Y-92954761D01*
X225047619Y-93002380D01*
X224952380Y-93002380D01*
X224857142Y-92954761D01*
X224809523Y-92907142D01*
X224761904Y-92811904D01*
X224714285Y-92621428D01*
X224714285Y-92383333D01*
X224761904Y-92192857D01*
X224809523Y-92097619D01*
X224857142Y-92050000D01*
X224952380Y-92002380D01*
X225761904Y-93002380D02*
X225952380Y-93002380D01*
X226047619Y-92954761D01*
X226095238Y-92907142D01*
X226190476Y-92764285D01*
X226238095Y-92573809D01*
X226238095Y-92192857D01*
X226190476Y-92097619D01*
X226142857Y-92050000D01*
X226047619Y-92002380D01*
X225857142Y-92002380D01*
X225761904Y-92050000D01*
X225714285Y-92097619D01*
X225666666Y-92192857D01*
X225666666Y-92430952D01*
X225714285Y-92526190D01*
X225761904Y-92573809D01*
X225857142Y-92621428D01*
X226047619Y-92621428D01*
X226142857Y-92573809D01*
X226190476Y-92526190D01*
X226238095Y-92430952D01*
G04 #@! TO.C,R401*
X226880952Y-106452380D02*
X226547619Y-105976190D01*
X226309523Y-106452380D02*
X226309523Y-105452380D01*
X226690476Y-105452380D01*
X226785714Y-105500000D01*
X226833333Y-105547619D01*
X226880952Y-105642857D01*
X226880952Y-105785714D01*
X226833333Y-105880952D01*
X226785714Y-105928571D01*
X226690476Y-105976190D01*
X226309523Y-105976190D01*
X227738095Y-105785714D02*
X227738095Y-106452380D01*
X227500000Y-105404761D02*
X227261904Y-106119047D01*
X227880952Y-106119047D01*
X228452380Y-105452380D02*
X228547619Y-105452380D01*
X228642857Y-105500000D01*
X228690476Y-105547619D01*
X228738095Y-105642857D01*
X228785714Y-105833333D01*
X228785714Y-106071428D01*
X228738095Y-106261904D01*
X228690476Y-106357142D01*
X228642857Y-106404761D01*
X228547619Y-106452380D01*
X228452380Y-106452380D01*
X228357142Y-106404761D01*
X228309523Y-106357142D01*
X228261904Y-106261904D01*
X228214285Y-106071428D01*
X228214285Y-105833333D01*
X228261904Y-105642857D01*
X228309523Y-105547619D01*
X228357142Y-105500000D01*
X228452380Y-105452380D01*
X229738095Y-106452380D02*
X229166666Y-106452380D01*
X229452380Y-106452380D02*
X229452380Y-105452380D01*
X229357142Y-105595238D01*
X229261904Y-105690476D01*
X229166666Y-105738095D01*
G04 #@! TO.C,R402*
X222480952Y-105652380D02*
X222147619Y-105176190D01*
X221909523Y-105652380D02*
X221909523Y-104652380D01*
X222290476Y-104652380D01*
X222385714Y-104700000D01*
X222433333Y-104747619D01*
X222480952Y-104842857D01*
X222480952Y-104985714D01*
X222433333Y-105080952D01*
X222385714Y-105128571D01*
X222290476Y-105176190D01*
X221909523Y-105176190D01*
X223338095Y-104985714D02*
X223338095Y-105652380D01*
X223100000Y-104604761D02*
X222861904Y-105319047D01*
X223480952Y-105319047D01*
X224052380Y-104652380D02*
X224147619Y-104652380D01*
X224242857Y-104700000D01*
X224290476Y-104747619D01*
X224338095Y-104842857D01*
X224385714Y-105033333D01*
X224385714Y-105271428D01*
X224338095Y-105461904D01*
X224290476Y-105557142D01*
X224242857Y-105604761D01*
X224147619Y-105652380D01*
X224052380Y-105652380D01*
X223957142Y-105604761D01*
X223909523Y-105557142D01*
X223861904Y-105461904D01*
X223814285Y-105271428D01*
X223814285Y-105033333D01*
X223861904Y-104842857D01*
X223909523Y-104747619D01*
X223957142Y-104700000D01*
X224052380Y-104652380D01*
X224766666Y-104747619D02*
X224814285Y-104700000D01*
X224909523Y-104652380D01*
X225147619Y-104652380D01*
X225242857Y-104700000D01*
X225290476Y-104747619D01*
X225338095Y-104842857D01*
X225338095Y-104938095D01*
X225290476Y-105080952D01*
X224719047Y-105652380D01*
X225338095Y-105652380D01*
G04 #@! TO.C,U101*
X201248941Y-73173307D02*
X201821361Y-73745727D01*
X201922376Y-73779399D01*
X201989720Y-73779399D01*
X202090735Y-73745727D01*
X202225422Y-73611040D01*
X202259094Y-73510025D01*
X202259094Y-73442681D01*
X202225422Y-73341666D01*
X201653002Y-72769246D01*
X203067216Y-72769246D02*
X202663155Y-73173307D01*
X202865185Y-72971277D02*
X202158079Y-72264170D01*
X202191750Y-72432529D01*
X202191750Y-72567216D01*
X202158079Y-72668231D01*
X202797842Y-71624407D02*
X202865185Y-71557063D01*
X202966201Y-71523392D01*
X203033544Y-71523392D01*
X203134559Y-71557063D01*
X203302918Y-71658079D01*
X203471277Y-71826437D01*
X203572292Y-71994796D01*
X203605964Y-72095811D01*
X203605964Y-72163155D01*
X203572292Y-72264170D01*
X203504949Y-72331514D01*
X203403933Y-72365185D01*
X203336590Y-72365185D01*
X203235575Y-72331514D01*
X203067216Y-72230498D01*
X202898857Y-72062140D01*
X202797842Y-71893781D01*
X202764170Y-71792766D01*
X202764170Y-71725422D01*
X202797842Y-71624407D01*
X204414086Y-71422376D02*
X204010025Y-71826437D01*
X204212055Y-71624407D02*
X203504949Y-70917300D01*
X203538620Y-71085659D01*
X203538620Y-71220346D01*
X203504949Y-71321361D01*
G04 #@! TO.C,U402*
X226085714Y-112652380D02*
X226085714Y-113461904D01*
X226133333Y-113557142D01*
X226180952Y-113604761D01*
X226276190Y-113652380D01*
X226466666Y-113652380D01*
X226561904Y-113604761D01*
X226609523Y-113557142D01*
X226657142Y-113461904D01*
X226657142Y-112652380D01*
X227561904Y-112985714D02*
X227561904Y-113652380D01*
X227323809Y-112604761D02*
X227085714Y-113319047D01*
X227704761Y-113319047D01*
X228276190Y-112652380D02*
X228371428Y-112652380D01*
X228466666Y-112700000D01*
X228514285Y-112747619D01*
X228561904Y-112842857D01*
X228609523Y-113033333D01*
X228609523Y-113271428D01*
X228561904Y-113461904D01*
X228514285Y-113557142D01*
X228466666Y-113604761D01*
X228371428Y-113652380D01*
X228276190Y-113652380D01*
X228180952Y-113604761D01*
X228133333Y-113557142D01*
X228085714Y-113461904D01*
X228038095Y-113271428D01*
X228038095Y-113033333D01*
X228085714Y-112842857D01*
X228133333Y-112747619D01*
X228180952Y-112700000D01*
X228276190Y-112652380D01*
X228990476Y-112747619D02*
X229038095Y-112700000D01*
X229133333Y-112652380D01*
X229371428Y-112652380D01*
X229466666Y-112700000D01*
X229514285Y-112747619D01*
X229561904Y-112842857D01*
X229561904Y-112938095D01*
X229514285Y-113080952D01*
X228942857Y-113652380D01*
X229561904Y-113652380D01*
G04 #@! TO.C,R102*
X204880952Y-70402380D02*
X204547619Y-69926190D01*
X204309523Y-70402380D02*
X204309523Y-69402380D01*
X204690476Y-69402380D01*
X204785714Y-69450000D01*
X204833333Y-69497619D01*
X204880952Y-69592857D01*
X204880952Y-69735714D01*
X204833333Y-69830952D01*
X204785714Y-69878571D01*
X204690476Y-69926190D01*
X204309523Y-69926190D01*
X205833333Y-70402380D02*
X205261904Y-70402380D01*
X205547619Y-70402380D02*
X205547619Y-69402380D01*
X205452380Y-69545238D01*
X205357142Y-69640476D01*
X205261904Y-69688095D01*
X206452380Y-69402380D02*
X206547619Y-69402380D01*
X206642857Y-69450000D01*
X206690476Y-69497619D01*
X206738095Y-69592857D01*
X206785714Y-69783333D01*
X206785714Y-70021428D01*
X206738095Y-70211904D01*
X206690476Y-70307142D01*
X206642857Y-70354761D01*
X206547619Y-70402380D01*
X206452380Y-70402380D01*
X206357142Y-70354761D01*
X206309523Y-70307142D01*
X206261904Y-70211904D01*
X206214285Y-70021428D01*
X206214285Y-69783333D01*
X206261904Y-69592857D01*
X206309523Y-69497619D01*
X206357142Y-69450000D01*
X206452380Y-69402380D01*
X207166666Y-69497619D02*
X207214285Y-69450000D01*
X207309523Y-69402380D01*
X207547619Y-69402380D01*
X207642857Y-69450000D01*
X207690476Y-69497619D01*
X207738095Y-69592857D01*
X207738095Y-69688095D01*
X207690476Y-69830952D01*
X207119047Y-70402380D01*
X207738095Y-70402380D01*
G04 #@! TO.C,R103*
X198380952Y-69002380D02*
X198047619Y-68526190D01*
X197809523Y-69002380D02*
X197809523Y-68002380D01*
X198190476Y-68002380D01*
X198285714Y-68050000D01*
X198333333Y-68097619D01*
X198380952Y-68192857D01*
X198380952Y-68335714D01*
X198333333Y-68430952D01*
X198285714Y-68478571D01*
X198190476Y-68526190D01*
X197809523Y-68526190D01*
X199333333Y-69002380D02*
X198761904Y-69002380D01*
X199047619Y-69002380D02*
X199047619Y-68002380D01*
X198952380Y-68145238D01*
X198857142Y-68240476D01*
X198761904Y-68288095D01*
X199952380Y-68002380D02*
X200047619Y-68002380D01*
X200142857Y-68050000D01*
X200190476Y-68097619D01*
X200238095Y-68192857D01*
X200285714Y-68383333D01*
X200285714Y-68621428D01*
X200238095Y-68811904D01*
X200190476Y-68907142D01*
X200142857Y-68954761D01*
X200047619Y-69002380D01*
X199952380Y-69002380D01*
X199857142Y-68954761D01*
X199809523Y-68907142D01*
X199761904Y-68811904D01*
X199714285Y-68621428D01*
X199714285Y-68383333D01*
X199761904Y-68192857D01*
X199809523Y-68097619D01*
X199857142Y-68050000D01*
X199952380Y-68002380D01*
X200619047Y-68002380D02*
X201238095Y-68002380D01*
X200904761Y-68383333D01*
X201047619Y-68383333D01*
X201142857Y-68430952D01*
X201190476Y-68478571D01*
X201238095Y-68573809D01*
X201238095Y-68811904D01*
X201190476Y-68907142D01*
X201142857Y-68954761D01*
X201047619Y-69002380D01*
X200761904Y-69002380D01*
X200666666Y-68954761D01*
X200619047Y-68907142D01*
G04 #@! TO.C,J101*
X208382380Y-53185714D02*
X209096666Y-53185714D01*
X209239523Y-53233333D01*
X209334761Y-53328571D01*
X209382380Y-53471428D01*
X209382380Y-53566666D01*
X209382380Y-52185714D02*
X209382380Y-52757142D01*
X209382380Y-52471428D02*
X208382380Y-52471428D01*
X208525238Y-52566666D01*
X208620476Y-52661904D01*
X208668095Y-52757142D01*
X208382380Y-51566666D02*
X208382380Y-51471428D01*
X208430000Y-51376190D01*
X208477619Y-51328571D01*
X208572857Y-51280952D01*
X208763333Y-51233333D01*
X209001428Y-51233333D01*
X209191904Y-51280952D01*
X209287142Y-51328571D01*
X209334761Y-51376190D01*
X209382380Y-51471428D01*
X209382380Y-51566666D01*
X209334761Y-51661904D01*
X209287142Y-51709523D01*
X209191904Y-51757142D01*
X209001428Y-51804761D01*
X208763333Y-51804761D01*
X208572857Y-51757142D01*
X208477619Y-51709523D01*
X208430000Y-51661904D01*
X208382380Y-51566666D01*
X209382380Y-50280952D02*
X209382380Y-50852380D01*
X209382380Y-50566666D02*
X208382380Y-50566666D01*
X208525238Y-50661904D01*
X208620476Y-50757142D01*
X208668095Y-50852380D01*
G04 #@! TO.C,R101*
X197993452Y-51122380D02*
X197660119Y-50646190D01*
X197422023Y-51122380D02*
X197422023Y-50122380D01*
X197802976Y-50122380D01*
X197898214Y-50170000D01*
X197945833Y-50217619D01*
X197993452Y-50312857D01*
X197993452Y-50455714D01*
X197945833Y-50550952D01*
X197898214Y-50598571D01*
X197802976Y-50646190D01*
X197422023Y-50646190D01*
X198945833Y-51122380D02*
X198374404Y-51122380D01*
X198660119Y-51122380D02*
X198660119Y-50122380D01*
X198564880Y-50265238D01*
X198469642Y-50360476D01*
X198374404Y-50408095D01*
X199564880Y-50122380D02*
X199660119Y-50122380D01*
X199755357Y-50170000D01*
X199802976Y-50217619D01*
X199850595Y-50312857D01*
X199898214Y-50503333D01*
X199898214Y-50741428D01*
X199850595Y-50931904D01*
X199802976Y-51027142D01*
X199755357Y-51074761D01*
X199660119Y-51122380D01*
X199564880Y-51122380D01*
X199469642Y-51074761D01*
X199422023Y-51027142D01*
X199374404Y-50931904D01*
X199326785Y-50741428D01*
X199326785Y-50503333D01*
X199374404Y-50312857D01*
X199422023Y-50217619D01*
X199469642Y-50170000D01*
X199564880Y-50122380D01*
X200850595Y-51122380D02*
X200279166Y-51122380D01*
X200564880Y-51122380D02*
X200564880Y-50122380D01*
X200469642Y-50265238D01*
X200374404Y-50360476D01*
X200279166Y-50408095D01*
G04 #@! TO.C,SW101*
X187689285Y-51354761D02*
X187832142Y-51402380D01*
X188070238Y-51402380D01*
X188165476Y-51354761D01*
X188213095Y-51307142D01*
X188260714Y-51211904D01*
X188260714Y-51116666D01*
X188213095Y-51021428D01*
X188165476Y-50973809D01*
X188070238Y-50926190D01*
X187879761Y-50878571D01*
X187784523Y-50830952D01*
X187736904Y-50783333D01*
X187689285Y-50688095D01*
X187689285Y-50592857D01*
X187736904Y-50497619D01*
X187784523Y-50450000D01*
X187879761Y-50402380D01*
X188117857Y-50402380D01*
X188260714Y-50450000D01*
X188594047Y-50402380D02*
X188832142Y-51402380D01*
X189022619Y-50688095D01*
X189213095Y-51402380D01*
X189451190Y-50402380D01*
X190355952Y-51402380D02*
X189784523Y-51402380D01*
X190070238Y-51402380D02*
X190070238Y-50402380D01*
X189975000Y-50545238D01*
X189879761Y-50640476D01*
X189784523Y-50688095D01*
X190975000Y-50402380D02*
X191070238Y-50402380D01*
X191165476Y-50450000D01*
X191213095Y-50497619D01*
X191260714Y-50592857D01*
X191308333Y-50783333D01*
X191308333Y-51021428D01*
X191260714Y-51211904D01*
X191213095Y-51307142D01*
X191165476Y-51354761D01*
X191070238Y-51402380D01*
X190975000Y-51402380D01*
X190879761Y-51354761D01*
X190832142Y-51307142D01*
X190784523Y-51211904D01*
X190736904Y-51021428D01*
X190736904Y-50783333D01*
X190784523Y-50592857D01*
X190832142Y-50497619D01*
X190879761Y-50450000D01*
X190975000Y-50402380D01*
X192260714Y-51402380D02*
X191689285Y-51402380D01*
X191975000Y-51402380D02*
X191975000Y-50402380D01*
X191879761Y-50545238D01*
X191784523Y-50640476D01*
X191689285Y-50688095D01*
G04 #@! TO.C,TP101*
X181985714Y-68754380D02*
X182557142Y-68754380D01*
X182271428Y-69754380D02*
X182271428Y-68754380D01*
X182890476Y-69754380D02*
X182890476Y-68754380D01*
X183271428Y-68754380D01*
X183366666Y-68802000D01*
X183414285Y-68849619D01*
X183461904Y-68944857D01*
X183461904Y-69087714D01*
X183414285Y-69182952D01*
X183366666Y-69230571D01*
X183271428Y-69278190D01*
X182890476Y-69278190D01*
X184414285Y-69754380D02*
X183842857Y-69754380D01*
X184128571Y-69754380D02*
X184128571Y-68754380D01*
X184033333Y-68897238D01*
X183938095Y-68992476D01*
X183842857Y-69040095D01*
X185033333Y-68754380D02*
X185128571Y-68754380D01*
X185223809Y-68802000D01*
X185271428Y-68849619D01*
X185319047Y-68944857D01*
X185366666Y-69135333D01*
X185366666Y-69373428D01*
X185319047Y-69563904D01*
X185271428Y-69659142D01*
X185223809Y-69706761D01*
X185128571Y-69754380D01*
X185033333Y-69754380D01*
X184938095Y-69706761D01*
X184890476Y-69659142D01*
X184842857Y-69563904D01*
X184795238Y-69373428D01*
X184795238Y-69135333D01*
X184842857Y-68944857D01*
X184890476Y-68849619D01*
X184938095Y-68802000D01*
X185033333Y-68754380D01*
X186319047Y-69754380D02*
X185747619Y-69754380D01*
X186033333Y-69754380D02*
X186033333Y-68754380D01*
X185938095Y-68897238D01*
X185842857Y-68992476D01*
X185747619Y-69040095D01*
G04 #@! TO.C,TP102*
X182185714Y-75854380D02*
X182757142Y-75854380D01*
X182471428Y-76854380D02*
X182471428Y-75854380D01*
X183090476Y-76854380D02*
X183090476Y-75854380D01*
X183471428Y-75854380D01*
X183566666Y-75902000D01*
X183614285Y-75949619D01*
X183661904Y-76044857D01*
X183661904Y-76187714D01*
X183614285Y-76282952D01*
X183566666Y-76330571D01*
X183471428Y-76378190D01*
X183090476Y-76378190D01*
X184614285Y-76854380D02*
X184042857Y-76854380D01*
X184328571Y-76854380D02*
X184328571Y-75854380D01*
X184233333Y-75997238D01*
X184138095Y-76092476D01*
X184042857Y-76140095D01*
X185233333Y-75854380D02*
X185328571Y-75854380D01*
X185423809Y-75902000D01*
X185471428Y-75949619D01*
X185519047Y-76044857D01*
X185566666Y-76235333D01*
X185566666Y-76473428D01*
X185519047Y-76663904D01*
X185471428Y-76759142D01*
X185423809Y-76806761D01*
X185328571Y-76854380D01*
X185233333Y-76854380D01*
X185138095Y-76806761D01*
X185090476Y-76759142D01*
X185042857Y-76663904D01*
X184995238Y-76473428D01*
X184995238Y-76235333D01*
X185042857Y-76044857D01*
X185090476Y-75949619D01*
X185138095Y-75902000D01*
X185233333Y-75854380D01*
X185947619Y-75949619D02*
X185995238Y-75902000D01*
X186090476Y-75854380D01*
X186328571Y-75854380D01*
X186423809Y-75902000D01*
X186471428Y-75949619D01*
X186519047Y-76044857D01*
X186519047Y-76140095D01*
X186471428Y-76282952D01*
X185900000Y-76854380D01*
X186519047Y-76854380D01*
G04 #@! TD*
M02*
