G04 #@! TF.GenerationSoftware,KiCad,Pcbnew,5.0.2-bee76a0~70~ubuntu18.04.1*
G04 #@! TF.CreationDate,2019-03-04T23:14:44-05:00*
G04 #@! TF.ProjectId,BalancingBusinessCardLights,42616c61-6e63-4696-9e67-427573696e65,rev?*
G04 #@! TF.SameCoordinates,Original*
G04 #@! TF.FileFunction,Soldermask,Top*
G04 #@! TF.FilePolarity,Negative*
%FSLAX46Y46*%
G04 Gerber Fmt 4.6, Leading zero omitted, Abs format (unit mm)*
G04 Created by KiCad (PCBNEW 5.0.2-bee76a0~70~ubuntu18.04.1) date Mon 04 Mar 2019 11:14:44 PM EST*
%MOMM*%
%LPD*%
G01*
G04 APERTURE LIST*
%ADD10C,0.100000*%
G04 APERTURE END LIST*
D10*
G36*
X185753000Y-134830001D02*
X184397002Y-134830001D01*
X184397002Y-134372401D01*
X185753000Y-134372401D01*
X185753000Y-134830001D01*
X185753000Y-134830001D01*
G37*
G36*
X186650001Y-134433002D02*
X186192401Y-134433002D01*
X186192401Y-132077000D01*
X186650001Y-132077000D01*
X186650001Y-134433002D01*
X186650001Y-134433002D01*
G37*
G36*
X183957601Y-134433002D02*
X183500001Y-134433002D01*
X183500001Y-132077000D01*
X183957601Y-132077000D01*
X183957601Y-134433002D01*
X183957601Y-134433002D01*
G37*
G36*
X185753000Y-132137601D02*
X184397002Y-132137601D01*
X184397002Y-131680001D01*
X185753000Y-131680001D01*
X185753000Y-132137601D01*
X185753000Y-132137601D01*
G37*
G36*
X188809466Y-129253565D02*
X188848137Y-129265296D01*
X188883779Y-129284348D01*
X188915017Y-129309983D01*
X188940652Y-129341221D01*
X188959704Y-129376863D01*
X188971435Y-129415534D01*
X188976000Y-129461888D01*
X188976000Y-130538112D01*
X188971435Y-130584466D01*
X188959704Y-130623137D01*
X188940652Y-130658779D01*
X188915017Y-130690017D01*
X188883779Y-130715652D01*
X188848137Y-130734704D01*
X188809466Y-130746435D01*
X188763112Y-130751000D01*
X188111888Y-130751000D01*
X188065534Y-130746435D01*
X188026863Y-130734704D01*
X187991221Y-130715652D01*
X187959983Y-130690017D01*
X187934348Y-130658779D01*
X187915296Y-130623137D01*
X187903565Y-130584466D01*
X187899000Y-130538112D01*
X187899000Y-129461888D01*
X187903565Y-129415534D01*
X187915296Y-129376863D01*
X187934348Y-129341221D01*
X187959983Y-129309983D01*
X187991221Y-129284348D01*
X188026863Y-129265296D01*
X188065534Y-129253565D01*
X188111888Y-129249000D01*
X188763112Y-129249000D01*
X188809466Y-129253565D01*
X188809466Y-129253565D01*
G37*
G36*
X186934466Y-129253565D02*
X186973137Y-129265296D01*
X187008779Y-129284348D01*
X187040017Y-129309983D01*
X187065652Y-129341221D01*
X187084704Y-129376863D01*
X187096435Y-129415534D01*
X187101000Y-129461888D01*
X187101000Y-130538112D01*
X187096435Y-130584466D01*
X187084704Y-130623137D01*
X187065652Y-130658779D01*
X187040017Y-130690017D01*
X187008779Y-130715652D01*
X186973137Y-130734704D01*
X186934466Y-130746435D01*
X186888112Y-130751000D01*
X186236888Y-130751000D01*
X186190534Y-130746435D01*
X186151863Y-130734704D01*
X186116221Y-130715652D01*
X186084983Y-130690017D01*
X186059348Y-130658779D01*
X186040296Y-130623137D01*
X186028565Y-130584466D01*
X186024000Y-130538112D01*
X186024000Y-129461888D01*
X186028565Y-129415534D01*
X186040296Y-129376863D01*
X186059348Y-129341221D01*
X186084983Y-129309983D01*
X186116221Y-129284348D01*
X186151863Y-129265296D01*
X186190534Y-129253565D01*
X186236888Y-129249000D01*
X186888112Y-129249000D01*
X186934466Y-129253565D01*
X186934466Y-129253565D01*
G37*
G36*
X188629591Y-127478085D02*
X188663569Y-127488393D01*
X188694887Y-127505133D01*
X188722339Y-127527661D01*
X188744867Y-127555113D01*
X188761607Y-127586431D01*
X188771915Y-127620409D01*
X188776000Y-127661890D01*
X188776000Y-128338110D01*
X188771915Y-128379591D01*
X188761607Y-128413569D01*
X188744867Y-128444887D01*
X188722339Y-128472339D01*
X188694887Y-128494867D01*
X188663569Y-128511607D01*
X188629591Y-128521915D01*
X188588110Y-128526000D01*
X187986890Y-128526000D01*
X187945409Y-128521915D01*
X187911431Y-128511607D01*
X187880113Y-128494867D01*
X187852661Y-128472339D01*
X187830133Y-128444887D01*
X187813393Y-128413569D01*
X187803085Y-128379591D01*
X187799000Y-128338110D01*
X187799000Y-127661890D01*
X187803085Y-127620409D01*
X187813393Y-127586431D01*
X187830133Y-127555113D01*
X187852661Y-127527661D01*
X187880113Y-127505133D01*
X187911431Y-127488393D01*
X187945409Y-127478085D01*
X187986890Y-127474000D01*
X188588110Y-127474000D01*
X188629591Y-127478085D01*
X188629591Y-127478085D01*
G37*
G36*
X187054591Y-127478085D02*
X187088569Y-127488393D01*
X187119887Y-127505133D01*
X187147339Y-127527661D01*
X187169867Y-127555113D01*
X187186607Y-127586431D01*
X187196915Y-127620409D01*
X187201000Y-127661890D01*
X187201000Y-128338110D01*
X187196915Y-128379591D01*
X187186607Y-128413569D01*
X187169867Y-128444887D01*
X187147339Y-128472339D01*
X187119887Y-128494867D01*
X187088569Y-128511607D01*
X187054591Y-128521915D01*
X187013110Y-128526000D01*
X186411890Y-128526000D01*
X186370409Y-128521915D01*
X186336431Y-128511607D01*
X186305113Y-128494867D01*
X186277661Y-128472339D01*
X186255133Y-128444887D01*
X186238393Y-128413569D01*
X186228085Y-128379591D01*
X186224000Y-128338110D01*
X186224000Y-127661890D01*
X186228085Y-127620409D01*
X186238393Y-127586431D01*
X186255133Y-127555113D01*
X186277661Y-127527661D01*
X186305113Y-127505133D01*
X186336431Y-127488393D01*
X186370409Y-127478085D01*
X186411890Y-127474000D01*
X187013110Y-127474000D01*
X187054591Y-127478085D01*
X187054591Y-127478085D01*
G37*
G36*
X201051000Y-126551000D02*
X195949000Y-126551000D01*
X195949000Y-105449000D01*
X201051000Y-105449000D01*
X201051000Y-126551000D01*
X201051000Y-126551000D01*
G37*
G36*
X215051000Y-126551000D02*
X209949000Y-126551000D01*
X209949000Y-105449000D01*
X215051000Y-105449000D01*
X215051000Y-126551000D01*
X215051000Y-126551000D01*
G37*
G36*
X186610443Y-119185519D02*
X186676627Y-119192037D01*
X186789853Y-119226384D01*
X186846467Y-119243557D01*
X186985087Y-119317652D01*
X187002991Y-119327222D01*
X187038729Y-119356552D01*
X187140186Y-119439814D01*
X187223448Y-119541271D01*
X187252778Y-119577009D01*
X187252779Y-119577011D01*
X187336443Y-119733533D01*
X187336443Y-119733534D01*
X187387963Y-119903373D01*
X187405359Y-120080000D01*
X187387963Y-120256627D01*
X187353616Y-120369853D01*
X187336443Y-120426467D01*
X187262348Y-120565087D01*
X187252778Y-120582991D01*
X187223448Y-120618729D01*
X187140186Y-120720186D01*
X187038729Y-120803448D01*
X187002991Y-120832778D01*
X187002989Y-120832779D01*
X186846467Y-120916443D01*
X186789853Y-120933616D01*
X186676627Y-120967963D01*
X186610443Y-120974481D01*
X186544260Y-120981000D01*
X186455740Y-120981000D01*
X186389557Y-120974481D01*
X186323373Y-120967963D01*
X186210147Y-120933616D01*
X186153533Y-120916443D01*
X185997011Y-120832779D01*
X185997009Y-120832778D01*
X185961271Y-120803448D01*
X185859814Y-120720186D01*
X185776552Y-120618729D01*
X185747222Y-120582991D01*
X185737652Y-120565087D01*
X185663557Y-120426467D01*
X185646384Y-120369853D01*
X185612037Y-120256627D01*
X185594641Y-120080000D01*
X185612037Y-119903373D01*
X185663557Y-119733534D01*
X185663557Y-119733533D01*
X185747221Y-119577011D01*
X185747222Y-119577009D01*
X185776552Y-119541271D01*
X185859814Y-119439814D01*
X185961271Y-119356552D01*
X185997009Y-119327222D01*
X186014913Y-119317652D01*
X186153533Y-119243557D01*
X186210147Y-119226384D01*
X186323373Y-119192037D01*
X186389557Y-119185519D01*
X186455740Y-119179000D01*
X186544260Y-119179000D01*
X186610443Y-119185519D01*
X186610443Y-119185519D01*
G37*
G36*
X189150443Y-119185519D02*
X189216627Y-119192037D01*
X189329853Y-119226384D01*
X189386467Y-119243557D01*
X189525087Y-119317652D01*
X189542991Y-119327222D01*
X189578729Y-119356552D01*
X189680186Y-119439814D01*
X189763448Y-119541271D01*
X189792778Y-119577009D01*
X189792779Y-119577011D01*
X189876443Y-119733533D01*
X189876443Y-119733534D01*
X189927963Y-119903373D01*
X189945359Y-120080000D01*
X189927963Y-120256627D01*
X189893616Y-120369853D01*
X189876443Y-120426467D01*
X189802348Y-120565087D01*
X189792778Y-120582991D01*
X189763448Y-120618729D01*
X189680186Y-120720186D01*
X189578729Y-120803448D01*
X189542991Y-120832778D01*
X189542989Y-120832779D01*
X189386467Y-120916443D01*
X189329853Y-120933616D01*
X189216627Y-120967963D01*
X189150443Y-120974481D01*
X189084260Y-120981000D01*
X188995740Y-120981000D01*
X188929557Y-120974481D01*
X188863373Y-120967963D01*
X188750147Y-120933616D01*
X188693533Y-120916443D01*
X188537011Y-120832779D01*
X188537009Y-120832778D01*
X188501271Y-120803448D01*
X188399814Y-120720186D01*
X188316552Y-120618729D01*
X188287222Y-120582991D01*
X188277652Y-120565087D01*
X188203557Y-120426467D01*
X188186384Y-120369853D01*
X188152037Y-120256627D01*
X188134641Y-120080000D01*
X188152037Y-119903373D01*
X188203557Y-119733534D01*
X188203557Y-119733533D01*
X188287221Y-119577011D01*
X188287222Y-119577009D01*
X188316552Y-119541271D01*
X188399814Y-119439814D01*
X188501271Y-119356552D01*
X188537009Y-119327222D01*
X188554913Y-119317652D01*
X188693533Y-119243557D01*
X188750147Y-119226384D01*
X188863373Y-119192037D01*
X188929557Y-119185519D01*
X188995740Y-119179000D01*
X189084260Y-119179000D01*
X189150443Y-119185519D01*
X189150443Y-119185519D01*
G37*
G36*
X186610442Y-116645518D02*
X186676627Y-116652037D01*
X186789853Y-116686384D01*
X186846467Y-116703557D01*
X186985087Y-116777652D01*
X187002991Y-116787222D01*
X187038729Y-116816552D01*
X187140186Y-116899814D01*
X187223448Y-117001271D01*
X187252778Y-117037009D01*
X187252779Y-117037011D01*
X187336443Y-117193533D01*
X187336443Y-117193534D01*
X187387963Y-117363373D01*
X187405359Y-117540000D01*
X187387963Y-117716627D01*
X187353616Y-117829853D01*
X187336443Y-117886467D01*
X187262348Y-118025087D01*
X187252778Y-118042991D01*
X187223448Y-118078729D01*
X187140186Y-118180186D01*
X187038729Y-118263448D01*
X187002991Y-118292778D01*
X187002989Y-118292779D01*
X186846467Y-118376443D01*
X186789853Y-118393616D01*
X186676627Y-118427963D01*
X186610442Y-118434482D01*
X186544260Y-118441000D01*
X186455740Y-118441000D01*
X186389558Y-118434482D01*
X186323373Y-118427963D01*
X186210147Y-118393616D01*
X186153533Y-118376443D01*
X185997011Y-118292779D01*
X185997009Y-118292778D01*
X185961271Y-118263448D01*
X185859814Y-118180186D01*
X185776552Y-118078729D01*
X185747222Y-118042991D01*
X185737652Y-118025087D01*
X185663557Y-117886467D01*
X185646384Y-117829853D01*
X185612037Y-117716627D01*
X185594641Y-117540000D01*
X185612037Y-117363373D01*
X185663557Y-117193534D01*
X185663557Y-117193533D01*
X185747221Y-117037011D01*
X185747222Y-117037009D01*
X185776552Y-117001271D01*
X185859814Y-116899814D01*
X185961271Y-116816552D01*
X185997009Y-116787222D01*
X186014913Y-116777652D01*
X186153533Y-116703557D01*
X186210147Y-116686384D01*
X186323373Y-116652037D01*
X186389558Y-116645518D01*
X186455740Y-116639000D01*
X186544260Y-116639000D01*
X186610442Y-116645518D01*
X186610442Y-116645518D01*
G37*
G36*
X189150442Y-116645518D02*
X189216627Y-116652037D01*
X189329853Y-116686384D01*
X189386467Y-116703557D01*
X189525087Y-116777652D01*
X189542991Y-116787222D01*
X189578729Y-116816552D01*
X189680186Y-116899814D01*
X189763448Y-117001271D01*
X189792778Y-117037009D01*
X189792779Y-117037011D01*
X189876443Y-117193533D01*
X189876443Y-117193534D01*
X189927963Y-117363373D01*
X189945359Y-117540000D01*
X189927963Y-117716627D01*
X189893616Y-117829853D01*
X189876443Y-117886467D01*
X189802348Y-118025087D01*
X189792778Y-118042991D01*
X189763448Y-118078729D01*
X189680186Y-118180186D01*
X189578729Y-118263448D01*
X189542991Y-118292778D01*
X189542989Y-118292779D01*
X189386467Y-118376443D01*
X189329853Y-118393616D01*
X189216627Y-118427963D01*
X189150442Y-118434482D01*
X189084260Y-118441000D01*
X188995740Y-118441000D01*
X188929558Y-118434482D01*
X188863373Y-118427963D01*
X188750147Y-118393616D01*
X188693533Y-118376443D01*
X188537011Y-118292779D01*
X188537009Y-118292778D01*
X188501271Y-118263448D01*
X188399814Y-118180186D01*
X188316552Y-118078729D01*
X188287222Y-118042991D01*
X188277652Y-118025087D01*
X188203557Y-117886467D01*
X188186384Y-117829853D01*
X188152037Y-117716627D01*
X188134641Y-117540000D01*
X188152037Y-117363373D01*
X188203557Y-117193534D01*
X188203557Y-117193533D01*
X188287221Y-117037011D01*
X188287222Y-117037009D01*
X188316552Y-117001271D01*
X188399814Y-116899814D01*
X188501271Y-116816552D01*
X188537009Y-116787222D01*
X188554913Y-116777652D01*
X188693533Y-116703557D01*
X188750147Y-116686384D01*
X188863373Y-116652037D01*
X188929558Y-116645518D01*
X188995740Y-116639000D01*
X189084260Y-116639000D01*
X189150442Y-116645518D01*
X189150442Y-116645518D01*
G37*
G36*
X187401000Y-115901000D02*
X185599000Y-115901000D01*
X185599000Y-114099000D01*
X187401000Y-114099000D01*
X187401000Y-115901000D01*
X187401000Y-115901000D01*
G37*
G36*
X189150443Y-114105519D02*
X189216627Y-114112037D01*
X189329853Y-114146384D01*
X189386467Y-114163557D01*
X189525087Y-114237652D01*
X189542991Y-114247222D01*
X189578729Y-114276552D01*
X189680186Y-114359814D01*
X189763448Y-114461271D01*
X189792778Y-114497009D01*
X189792779Y-114497011D01*
X189876443Y-114653533D01*
X189876443Y-114653534D01*
X189927963Y-114823373D01*
X189945359Y-115000000D01*
X189927963Y-115176627D01*
X189893616Y-115289853D01*
X189876443Y-115346467D01*
X189802348Y-115485087D01*
X189792778Y-115502991D01*
X189763448Y-115538729D01*
X189680186Y-115640186D01*
X189578729Y-115723448D01*
X189542991Y-115752778D01*
X189542989Y-115752779D01*
X189386467Y-115836443D01*
X189329853Y-115853616D01*
X189216627Y-115887963D01*
X189150443Y-115894481D01*
X189084260Y-115901000D01*
X188995740Y-115901000D01*
X188929557Y-115894481D01*
X188863373Y-115887963D01*
X188750147Y-115853616D01*
X188693533Y-115836443D01*
X188537011Y-115752779D01*
X188537009Y-115752778D01*
X188501271Y-115723448D01*
X188399814Y-115640186D01*
X188316552Y-115538729D01*
X188287222Y-115502991D01*
X188277652Y-115485087D01*
X188203557Y-115346467D01*
X188186384Y-115289853D01*
X188152037Y-115176627D01*
X188134641Y-115000000D01*
X188152037Y-114823373D01*
X188203557Y-114653534D01*
X188203557Y-114653533D01*
X188287221Y-114497011D01*
X188287222Y-114497009D01*
X188316552Y-114461271D01*
X188399814Y-114359814D01*
X188501271Y-114276552D01*
X188537009Y-114247222D01*
X188554913Y-114237652D01*
X188693533Y-114163557D01*
X188750147Y-114146384D01*
X188863373Y-114112037D01*
X188929557Y-114105519D01*
X188995740Y-114099000D01*
X189084260Y-114099000D01*
X189150443Y-114105519D01*
X189150443Y-114105519D01*
G37*
G36*
X225826000Y-112181000D02*
X223174000Y-112181000D01*
X223174000Y-111019000D01*
X225826000Y-111019000D01*
X225826000Y-112181000D01*
X225826000Y-112181000D01*
G37*
G36*
X221926000Y-111701000D02*
X221074000Y-111701000D01*
X221074000Y-110799000D01*
X221926000Y-110799000D01*
X221926000Y-111701000D01*
X221926000Y-111701000D01*
G37*
G36*
X227926000Y-111701000D02*
X227074000Y-111701000D01*
X227074000Y-110799000D01*
X227926000Y-110799000D01*
X227926000Y-111701000D01*
X227926000Y-111701000D01*
G37*
G36*
X220001000Y-111551000D02*
X218999000Y-111551000D01*
X218999000Y-110949000D01*
X220001000Y-110949000D01*
X220001000Y-111551000D01*
X220001000Y-111551000D01*
G37*
G36*
X221926000Y-110201000D02*
X221074000Y-110201000D01*
X221074000Y-109299000D01*
X221926000Y-109299000D01*
X221926000Y-110201000D01*
X221926000Y-110201000D01*
G37*
G36*
X227926000Y-110201000D02*
X227074000Y-110201000D01*
X227074000Y-109299000D01*
X227926000Y-109299000D01*
X227926000Y-110201000D01*
X227926000Y-110201000D01*
G37*
G36*
X220001000Y-110051000D02*
X218999000Y-110051000D01*
X218999000Y-109449000D01*
X220001000Y-109449000D01*
X220001000Y-110051000D01*
X220001000Y-110051000D01*
G37*
G36*
X225826000Y-109981000D02*
X223174000Y-109981000D01*
X223174000Y-108819000D01*
X225826000Y-108819000D01*
X225826000Y-109981000D01*
X225826000Y-109981000D01*
G37*
G36*
X226051000Y-108001000D02*
X225449000Y-108001000D01*
X225449000Y-106999000D01*
X226051000Y-106999000D01*
X226051000Y-108001000D01*
X226051000Y-108001000D01*
G37*
G36*
X225051000Y-108001000D02*
X224449000Y-108001000D01*
X224449000Y-106999000D01*
X225051000Y-106999000D01*
X225051000Y-108001000D01*
X225051000Y-108001000D01*
G37*
G36*
X223551000Y-108001000D02*
X222949000Y-108001000D01*
X222949000Y-106999000D01*
X223551000Y-106999000D01*
X223551000Y-108001000D01*
X223551000Y-108001000D01*
G37*
G36*
X227551000Y-108001000D02*
X226949000Y-108001000D01*
X226949000Y-106999000D01*
X227551000Y-106999000D01*
X227551000Y-108001000D01*
X227551000Y-108001000D01*
G37*
G36*
X229129591Y-93478085D02*
X229163569Y-93488393D01*
X229194887Y-93505133D01*
X229222339Y-93527661D01*
X229244867Y-93555113D01*
X229261607Y-93586431D01*
X229271915Y-93620409D01*
X229276000Y-93661890D01*
X229276000Y-94338110D01*
X229271915Y-94379591D01*
X229261607Y-94413569D01*
X229244867Y-94444887D01*
X229222339Y-94472339D01*
X229194887Y-94494867D01*
X229163569Y-94511607D01*
X229129591Y-94521915D01*
X229088110Y-94526000D01*
X228486890Y-94526000D01*
X228445409Y-94521915D01*
X228411431Y-94511607D01*
X228380113Y-94494867D01*
X228352661Y-94472339D01*
X228330133Y-94444887D01*
X228313393Y-94413569D01*
X228303085Y-94379591D01*
X228299000Y-94338110D01*
X228299000Y-93661890D01*
X228303085Y-93620409D01*
X228313393Y-93586431D01*
X228330133Y-93555113D01*
X228352661Y-93527661D01*
X228380113Y-93505133D01*
X228411431Y-93488393D01*
X228445409Y-93478085D01*
X228486890Y-93474000D01*
X229088110Y-93474000D01*
X229129591Y-93478085D01*
X229129591Y-93478085D01*
G37*
G36*
X227554591Y-93478085D02*
X227588569Y-93488393D01*
X227619887Y-93505133D01*
X227647339Y-93527661D01*
X227669867Y-93555113D01*
X227686607Y-93586431D01*
X227696915Y-93620409D01*
X227701000Y-93661890D01*
X227701000Y-94338110D01*
X227696915Y-94379591D01*
X227686607Y-94413569D01*
X227669867Y-94444887D01*
X227647339Y-94472339D01*
X227619887Y-94494867D01*
X227588569Y-94511607D01*
X227554591Y-94521915D01*
X227513110Y-94526000D01*
X226911890Y-94526000D01*
X226870409Y-94521915D01*
X226836431Y-94511607D01*
X226805113Y-94494867D01*
X226777661Y-94472339D01*
X226755133Y-94444887D01*
X226738393Y-94413569D01*
X226728085Y-94379591D01*
X226724000Y-94338110D01*
X226724000Y-93661890D01*
X226728085Y-93620409D01*
X226738393Y-93586431D01*
X226755133Y-93555113D01*
X226777661Y-93527661D01*
X226805113Y-93505133D01*
X226836431Y-93488393D01*
X226870409Y-93478085D01*
X226911890Y-93474000D01*
X227513110Y-93474000D01*
X227554591Y-93478085D01*
X227554591Y-93478085D01*
G37*
G36*
X225551000Y-94501000D02*
X224949000Y-94501000D01*
X224949000Y-93499000D01*
X225551000Y-93499000D01*
X225551000Y-94501000D01*
X225551000Y-94501000D01*
G37*
G36*
X224051000Y-94501000D02*
X223449000Y-94501000D01*
X223449000Y-93499000D01*
X224051000Y-93499000D01*
X224051000Y-94501000D01*
X224051000Y-94501000D01*
G37*
G36*
X229129591Y-88478085D02*
X229163569Y-88488393D01*
X229194887Y-88505133D01*
X229222339Y-88527661D01*
X229244867Y-88555113D01*
X229261607Y-88586431D01*
X229271915Y-88620409D01*
X229276000Y-88661890D01*
X229276000Y-89338110D01*
X229271915Y-89379591D01*
X229261607Y-89413569D01*
X229244867Y-89444887D01*
X229222339Y-89472339D01*
X229194887Y-89494867D01*
X229163569Y-89511607D01*
X229129591Y-89521915D01*
X229088110Y-89526000D01*
X228486890Y-89526000D01*
X228445409Y-89521915D01*
X228411431Y-89511607D01*
X228380113Y-89494867D01*
X228352661Y-89472339D01*
X228330133Y-89444887D01*
X228313393Y-89413569D01*
X228303085Y-89379591D01*
X228299000Y-89338110D01*
X228299000Y-88661890D01*
X228303085Y-88620409D01*
X228313393Y-88586431D01*
X228330133Y-88555113D01*
X228352661Y-88527661D01*
X228380113Y-88505133D01*
X228411431Y-88488393D01*
X228445409Y-88478085D01*
X228486890Y-88474000D01*
X229088110Y-88474000D01*
X229129591Y-88478085D01*
X229129591Y-88478085D01*
G37*
G36*
X227554591Y-88478085D02*
X227588569Y-88488393D01*
X227619887Y-88505133D01*
X227647339Y-88527661D01*
X227669867Y-88555113D01*
X227686607Y-88586431D01*
X227696915Y-88620409D01*
X227701000Y-88661890D01*
X227701000Y-89338110D01*
X227696915Y-89379591D01*
X227686607Y-89413569D01*
X227669867Y-89444887D01*
X227647339Y-89472339D01*
X227619887Y-89494867D01*
X227588569Y-89511607D01*
X227554591Y-89521915D01*
X227513110Y-89526000D01*
X226911890Y-89526000D01*
X226870409Y-89521915D01*
X226836431Y-89511607D01*
X226805113Y-89494867D01*
X226777661Y-89472339D01*
X226755133Y-89444887D01*
X226738393Y-89413569D01*
X226728085Y-89379591D01*
X226724000Y-89338110D01*
X226724000Y-88661890D01*
X226728085Y-88620409D01*
X226738393Y-88586431D01*
X226755133Y-88555113D01*
X226777661Y-88527661D01*
X226805113Y-88505133D01*
X226836431Y-88488393D01*
X226870409Y-88478085D01*
X226911890Y-88474000D01*
X227513110Y-88474000D01*
X227554591Y-88478085D01*
X227554591Y-88478085D01*
G37*
G36*
X224051000Y-89501000D02*
X223449000Y-89501000D01*
X223449000Y-88499000D01*
X224051000Y-88499000D01*
X224051000Y-89501000D01*
X224051000Y-89501000D01*
G37*
G36*
X225551000Y-89501000D02*
X224949000Y-89501000D01*
X224949000Y-88499000D01*
X225551000Y-88499000D01*
X225551000Y-89501000D01*
X225551000Y-89501000D01*
G37*
G36*
X227554591Y-83478085D02*
X227588569Y-83488393D01*
X227619887Y-83505133D01*
X227647339Y-83527661D01*
X227669867Y-83555113D01*
X227686607Y-83586431D01*
X227696915Y-83620409D01*
X227701000Y-83661890D01*
X227701000Y-84338110D01*
X227696915Y-84379591D01*
X227686607Y-84413569D01*
X227669867Y-84444887D01*
X227647339Y-84472339D01*
X227619887Y-84494867D01*
X227588569Y-84511607D01*
X227554591Y-84521915D01*
X227513110Y-84526000D01*
X226911890Y-84526000D01*
X226870409Y-84521915D01*
X226836431Y-84511607D01*
X226805113Y-84494867D01*
X226777661Y-84472339D01*
X226755133Y-84444887D01*
X226738393Y-84413569D01*
X226728085Y-84379591D01*
X226724000Y-84338110D01*
X226724000Y-83661890D01*
X226728085Y-83620409D01*
X226738393Y-83586431D01*
X226755133Y-83555113D01*
X226777661Y-83527661D01*
X226805113Y-83505133D01*
X226836431Y-83488393D01*
X226870409Y-83478085D01*
X226911890Y-83474000D01*
X227513110Y-83474000D01*
X227554591Y-83478085D01*
X227554591Y-83478085D01*
G37*
G36*
X229129591Y-83478085D02*
X229163569Y-83488393D01*
X229194887Y-83505133D01*
X229222339Y-83527661D01*
X229244867Y-83555113D01*
X229261607Y-83586431D01*
X229271915Y-83620409D01*
X229276000Y-83661890D01*
X229276000Y-84338110D01*
X229271915Y-84379591D01*
X229261607Y-84413569D01*
X229244867Y-84444887D01*
X229222339Y-84472339D01*
X229194887Y-84494867D01*
X229163569Y-84511607D01*
X229129591Y-84521915D01*
X229088110Y-84526000D01*
X228486890Y-84526000D01*
X228445409Y-84521915D01*
X228411431Y-84511607D01*
X228380113Y-84494867D01*
X228352661Y-84472339D01*
X228330133Y-84444887D01*
X228313393Y-84413569D01*
X228303085Y-84379591D01*
X228299000Y-84338110D01*
X228299000Y-83661890D01*
X228303085Y-83620409D01*
X228313393Y-83586431D01*
X228330133Y-83555113D01*
X228352661Y-83527661D01*
X228380113Y-83505133D01*
X228411431Y-83488393D01*
X228445409Y-83478085D01*
X228486890Y-83474000D01*
X229088110Y-83474000D01*
X229129591Y-83478085D01*
X229129591Y-83478085D01*
G37*
G36*
X225551000Y-84501000D02*
X224949000Y-84501000D01*
X224949000Y-83499000D01*
X225551000Y-83499000D01*
X225551000Y-84501000D01*
X225551000Y-84501000D01*
G37*
G36*
X224051000Y-84501000D02*
X223449000Y-84501000D01*
X223449000Y-83499000D01*
X224051000Y-83499000D01*
X224051000Y-84501000D01*
X224051000Y-84501000D01*
G37*
G36*
X184717828Y-77281834D02*
X184852410Y-77308604D01*
X185134674Y-77425521D01*
X185388705Y-77595259D01*
X185604741Y-77811295D01*
X185774479Y-78065326D01*
X185889285Y-78342494D01*
X185891396Y-78347591D01*
X185946533Y-78624780D01*
X185951000Y-78647240D01*
X185951000Y-78952760D01*
X185891396Y-79252410D01*
X185774479Y-79534674D01*
X185604741Y-79788705D01*
X185388705Y-80004741D01*
X185134674Y-80174479D01*
X184852410Y-80291396D01*
X184752527Y-80311264D01*
X184552762Y-80351000D01*
X184247238Y-80351000D01*
X184047473Y-80311264D01*
X183947590Y-80291396D01*
X183665326Y-80174479D01*
X183411295Y-80004741D01*
X183195259Y-79788705D01*
X183025521Y-79534674D01*
X182908604Y-79252410D01*
X182849000Y-78952760D01*
X182849000Y-78647240D01*
X182853468Y-78624780D01*
X182908604Y-78347591D01*
X182910715Y-78342494D01*
X183025521Y-78065326D01*
X183195259Y-77811295D01*
X183411295Y-77595259D01*
X183665326Y-77425521D01*
X183947590Y-77308604D01*
X184082172Y-77281834D01*
X184247238Y-77249000D01*
X184552762Y-77249000D01*
X184717828Y-77281834D01*
X184717828Y-77281834D01*
G37*
G36*
X200434466Y-78253565D02*
X200473137Y-78265296D01*
X200508779Y-78284348D01*
X200540017Y-78309983D01*
X200565652Y-78341221D01*
X200584704Y-78376863D01*
X200596435Y-78415534D01*
X200601000Y-78461888D01*
X200601000Y-79538112D01*
X200596435Y-79584466D01*
X200584704Y-79623137D01*
X200565652Y-79658779D01*
X200540017Y-79690017D01*
X200508779Y-79715652D01*
X200473137Y-79734704D01*
X200434466Y-79746435D01*
X200388112Y-79751000D01*
X199736888Y-79751000D01*
X199690534Y-79746435D01*
X199651863Y-79734704D01*
X199616221Y-79715652D01*
X199584983Y-79690017D01*
X199559348Y-79658779D01*
X199540296Y-79623137D01*
X199528565Y-79584466D01*
X199524000Y-79538112D01*
X199524000Y-78461888D01*
X199528565Y-78415534D01*
X199540296Y-78376863D01*
X199559348Y-78341221D01*
X199584983Y-78309983D01*
X199616221Y-78284348D01*
X199651863Y-78265296D01*
X199690534Y-78253565D01*
X199736888Y-78249000D01*
X200388112Y-78249000D01*
X200434466Y-78253565D01*
X200434466Y-78253565D01*
G37*
G36*
X202309466Y-78253565D02*
X202348137Y-78265296D01*
X202383779Y-78284348D01*
X202415017Y-78309983D01*
X202440652Y-78341221D01*
X202459704Y-78376863D01*
X202471435Y-78415534D01*
X202476000Y-78461888D01*
X202476000Y-79538112D01*
X202471435Y-79584466D01*
X202459704Y-79623137D01*
X202440652Y-79658779D01*
X202415017Y-79690017D01*
X202383779Y-79715652D01*
X202348137Y-79734704D01*
X202309466Y-79746435D01*
X202263112Y-79751000D01*
X201611888Y-79751000D01*
X201565534Y-79746435D01*
X201526863Y-79734704D01*
X201491221Y-79715652D01*
X201459983Y-79690017D01*
X201434348Y-79658779D01*
X201415296Y-79623137D01*
X201403565Y-79584466D01*
X201399000Y-79538112D01*
X201399000Y-78461888D01*
X201403565Y-78415534D01*
X201415296Y-78376863D01*
X201434348Y-78341221D01*
X201459983Y-78309983D01*
X201491221Y-78284348D01*
X201526863Y-78265296D01*
X201565534Y-78253565D01*
X201611888Y-78249000D01*
X202263112Y-78249000D01*
X202309466Y-78253565D01*
X202309466Y-78253565D01*
G37*
G36*
X229129591Y-78478085D02*
X229163569Y-78488393D01*
X229194887Y-78505133D01*
X229222339Y-78527661D01*
X229244867Y-78555113D01*
X229261607Y-78586431D01*
X229271915Y-78620409D01*
X229276000Y-78661890D01*
X229276000Y-79338110D01*
X229271915Y-79379591D01*
X229261607Y-79413569D01*
X229244867Y-79444887D01*
X229222339Y-79472339D01*
X229194887Y-79494867D01*
X229163569Y-79511607D01*
X229129591Y-79521915D01*
X229088110Y-79526000D01*
X228486890Y-79526000D01*
X228445409Y-79521915D01*
X228411431Y-79511607D01*
X228380113Y-79494867D01*
X228352661Y-79472339D01*
X228330133Y-79444887D01*
X228313393Y-79413569D01*
X228303085Y-79379591D01*
X228299000Y-79338110D01*
X228299000Y-78661890D01*
X228303085Y-78620409D01*
X228313393Y-78586431D01*
X228330133Y-78555113D01*
X228352661Y-78527661D01*
X228380113Y-78505133D01*
X228411431Y-78488393D01*
X228445409Y-78478085D01*
X228486890Y-78474000D01*
X229088110Y-78474000D01*
X229129591Y-78478085D01*
X229129591Y-78478085D01*
G37*
G36*
X227554591Y-78478085D02*
X227588569Y-78488393D01*
X227619887Y-78505133D01*
X227647339Y-78527661D01*
X227669867Y-78555113D01*
X227686607Y-78586431D01*
X227696915Y-78620409D01*
X227701000Y-78661890D01*
X227701000Y-79338110D01*
X227696915Y-79379591D01*
X227686607Y-79413569D01*
X227669867Y-79444887D01*
X227647339Y-79472339D01*
X227619887Y-79494867D01*
X227588569Y-79511607D01*
X227554591Y-79521915D01*
X227513110Y-79526000D01*
X226911890Y-79526000D01*
X226870409Y-79521915D01*
X226836431Y-79511607D01*
X226805113Y-79494867D01*
X226777661Y-79472339D01*
X226755133Y-79444887D01*
X226738393Y-79413569D01*
X226728085Y-79379591D01*
X226724000Y-79338110D01*
X226724000Y-78661890D01*
X226728085Y-78620409D01*
X226738393Y-78586431D01*
X226755133Y-78555113D01*
X226777661Y-78527661D01*
X226805113Y-78505133D01*
X226836431Y-78488393D01*
X226870409Y-78478085D01*
X226911890Y-78474000D01*
X227513110Y-78474000D01*
X227554591Y-78478085D01*
X227554591Y-78478085D01*
G37*
G36*
X224051000Y-79501000D02*
X223449000Y-79501000D01*
X223449000Y-78499000D01*
X224051000Y-78499000D01*
X224051000Y-79501000D01*
X224051000Y-79501000D01*
G37*
G36*
X225551000Y-79501000D02*
X224949000Y-79501000D01*
X224949000Y-78499000D01*
X225551000Y-78499000D01*
X225551000Y-79501000D01*
X225551000Y-79501000D01*
G37*
G36*
X206383884Y-71922672D02*
X206383890Y-71922677D01*
X206809557Y-72348344D01*
X206809562Y-72348350D01*
X207090991Y-72629779D01*
X207090997Y-72629784D01*
X207870217Y-73409004D01*
X207870222Y-73409010D01*
X208151651Y-73690439D01*
X208151657Y-73690444D01*
X208577324Y-74116111D01*
X208577329Y-74116117D01*
X208842494Y-74381282D01*
X208312164Y-74911612D01*
X208296618Y-74930554D01*
X208285067Y-74952165D01*
X208277954Y-74975614D01*
X208275552Y-75000000D01*
X208277954Y-75024386D01*
X208285067Y-75047835D01*
X208296618Y-75069446D01*
X208312164Y-75088388D01*
X208842494Y-75618718D01*
X208577329Y-75883884D01*
X206383884Y-78077329D01*
X206118718Y-78342494D01*
X205588388Y-77812164D01*
X205569446Y-77796618D01*
X205547835Y-77785067D01*
X205524386Y-77777954D01*
X205500000Y-77775552D01*
X205475614Y-77777954D01*
X205452165Y-77785067D01*
X205430554Y-77796618D01*
X205411612Y-77812164D01*
X204881282Y-78342494D01*
X204616117Y-78077329D01*
X204616111Y-78077324D01*
X204190444Y-77651657D01*
X204190439Y-77651651D01*
X203909010Y-77370222D01*
X203909004Y-77370217D01*
X203129784Y-76590997D01*
X203129779Y-76590991D01*
X202848350Y-76309562D01*
X202848344Y-76309557D01*
X202422677Y-75883890D01*
X202422672Y-75883884D01*
X202157506Y-75618718D01*
X202687836Y-75088388D01*
X202703382Y-75069446D01*
X202714933Y-75047835D01*
X202722046Y-75024386D01*
X202724448Y-75000000D01*
X202722046Y-74975614D01*
X202714933Y-74952165D01*
X202703382Y-74930554D01*
X202687836Y-74911612D01*
X202157506Y-74381282D01*
X202406408Y-74132380D01*
X202422672Y-74116117D01*
X202422681Y-74116106D01*
X202848339Y-73690448D01*
X202848350Y-73690439D01*
X202864614Y-73674176D01*
X202864613Y-73674175D01*
X203113515Y-73425273D01*
X203113516Y-73425274D01*
X203129779Y-73409010D01*
X203129788Y-73408999D01*
X203908999Y-72629788D01*
X203909010Y-72629779D01*
X203925274Y-72613516D01*
X203925273Y-72613515D01*
X204174175Y-72364613D01*
X204174176Y-72364614D01*
X204190439Y-72348350D01*
X204190448Y-72348339D01*
X204616106Y-71922681D01*
X204616117Y-71922672D01*
X204632380Y-71906408D01*
X204881282Y-71657506D01*
X205411612Y-72187836D01*
X205430554Y-72203382D01*
X205452165Y-72214933D01*
X205475614Y-72222046D01*
X205500000Y-72224448D01*
X205524386Y-72222046D01*
X205547835Y-72214933D01*
X205569446Y-72203382D01*
X205588388Y-72187836D01*
X206118718Y-71657506D01*
X206383884Y-71922672D01*
X206383884Y-71922672D01*
G37*
G36*
X227554591Y-73478085D02*
X227588569Y-73488393D01*
X227619887Y-73505133D01*
X227647339Y-73527661D01*
X227669867Y-73555113D01*
X227686607Y-73586431D01*
X227696915Y-73620409D01*
X227701000Y-73661890D01*
X227701000Y-74338110D01*
X227696915Y-74379591D01*
X227686607Y-74413569D01*
X227669867Y-74444887D01*
X227647339Y-74472339D01*
X227619887Y-74494867D01*
X227588569Y-74511607D01*
X227554591Y-74521915D01*
X227513110Y-74526000D01*
X226911890Y-74526000D01*
X226870409Y-74521915D01*
X226836431Y-74511607D01*
X226805113Y-74494867D01*
X226777661Y-74472339D01*
X226755133Y-74444887D01*
X226738393Y-74413569D01*
X226728085Y-74379591D01*
X226724000Y-74338110D01*
X226724000Y-73661890D01*
X226728085Y-73620409D01*
X226738393Y-73586431D01*
X226755133Y-73555113D01*
X226777661Y-73527661D01*
X226805113Y-73505133D01*
X226836431Y-73488393D01*
X226870409Y-73478085D01*
X226911890Y-73474000D01*
X227513110Y-73474000D01*
X227554591Y-73478085D01*
X227554591Y-73478085D01*
G37*
G36*
X229129591Y-73478085D02*
X229163569Y-73488393D01*
X229194887Y-73505133D01*
X229222339Y-73527661D01*
X229244867Y-73555113D01*
X229261607Y-73586431D01*
X229271915Y-73620409D01*
X229276000Y-73661890D01*
X229276000Y-74338110D01*
X229271915Y-74379591D01*
X229261607Y-74413569D01*
X229244867Y-74444887D01*
X229222339Y-74472339D01*
X229194887Y-74494867D01*
X229163569Y-74511607D01*
X229129591Y-74521915D01*
X229088110Y-74526000D01*
X228486890Y-74526000D01*
X228445409Y-74521915D01*
X228411431Y-74511607D01*
X228380113Y-74494867D01*
X228352661Y-74472339D01*
X228330133Y-74444887D01*
X228313393Y-74413569D01*
X228303085Y-74379591D01*
X228299000Y-74338110D01*
X228299000Y-73661890D01*
X228303085Y-73620409D01*
X228313393Y-73586431D01*
X228330133Y-73555113D01*
X228352661Y-73527661D01*
X228380113Y-73505133D01*
X228411431Y-73488393D01*
X228445409Y-73478085D01*
X228486890Y-73474000D01*
X229088110Y-73474000D01*
X229129591Y-73478085D01*
X229129591Y-73478085D01*
G37*
G36*
X224051000Y-74501000D02*
X223449000Y-74501000D01*
X223449000Y-73499000D01*
X224051000Y-73499000D01*
X224051000Y-74501000D01*
X224051000Y-74501000D01*
G37*
G36*
X225551000Y-74501000D02*
X224949000Y-74501000D01*
X224949000Y-73499000D01*
X225551000Y-73499000D01*
X225551000Y-74501000D01*
X225551000Y-74501000D01*
G37*
G36*
X184552527Y-70188736D02*
X184652410Y-70208604D01*
X184934674Y-70325521D01*
X185188705Y-70495259D01*
X185404741Y-70711295D01*
X185574479Y-70965326D01*
X185691396Y-71247590D01*
X185691396Y-71247591D01*
X185751000Y-71547238D01*
X185751000Y-71852762D01*
X185711264Y-72052527D01*
X185691396Y-72152410D01*
X185574479Y-72434674D01*
X185404741Y-72688705D01*
X185188705Y-72904741D01*
X184934674Y-73074479D01*
X184652410Y-73191396D01*
X184552527Y-73211264D01*
X184352762Y-73251000D01*
X184047238Y-73251000D01*
X183847473Y-73211264D01*
X183747590Y-73191396D01*
X183465326Y-73074479D01*
X183211295Y-72904741D01*
X182995259Y-72688705D01*
X182825521Y-72434674D01*
X182708604Y-72152410D01*
X182688736Y-72052527D01*
X182649000Y-71852762D01*
X182649000Y-71547238D01*
X182708604Y-71247591D01*
X182708604Y-71247590D01*
X182825521Y-70965326D01*
X182995259Y-70711295D01*
X183211295Y-70495259D01*
X183465326Y-70325521D01*
X183747590Y-70208604D01*
X183847473Y-70188736D01*
X184047238Y-70149000D01*
X184352762Y-70149000D01*
X184552527Y-70188736D01*
X184552527Y-70188736D01*
G37*
G36*
X199051000Y-70501000D02*
X198449000Y-70501000D01*
X198449000Y-69499000D01*
X199051000Y-69499000D01*
X199051000Y-70501000D01*
X199051000Y-70501000D01*
G37*
G36*
X200551000Y-70501000D02*
X199949000Y-70501000D01*
X199949000Y-69499000D01*
X200551000Y-69499000D01*
X200551000Y-70501000D01*
X200551000Y-70501000D01*
G37*
G36*
X227554591Y-68478085D02*
X227588569Y-68488393D01*
X227619887Y-68505133D01*
X227647339Y-68527661D01*
X227669867Y-68555113D01*
X227686607Y-68586431D01*
X227696915Y-68620409D01*
X227701000Y-68661890D01*
X227701000Y-69338110D01*
X227696915Y-69379591D01*
X227686607Y-69413569D01*
X227669867Y-69444887D01*
X227647339Y-69472339D01*
X227619887Y-69494867D01*
X227588569Y-69511607D01*
X227554591Y-69521915D01*
X227513110Y-69526000D01*
X226911890Y-69526000D01*
X226870409Y-69521915D01*
X226836431Y-69511607D01*
X226805113Y-69494867D01*
X226777661Y-69472339D01*
X226755133Y-69444887D01*
X226738393Y-69413569D01*
X226728085Y-69379591D01*
X226724000Y-69338110D01*
X226724000Y-68661890D01*
X226728085Y-68620409D01*
X226738393Y-68586431D01*
X226755133Y-68555113D01*
X226777661Y-68527661D01*
X226805113Y-68505133D01*
X226836431Y-68488393D01*
X226870409Y-68478085D01*
X226911890Y-68474000D01*
X227513110Y-68474000D01*
X227554591Y-68478085D01*
X227554591Y-68478085D01*
G37*
G36*
X229129591Y-68478085D02*
X229163569Y-68488393D01*
X229194887Y-68505133D01*
X229222339Y-68527661D01*
X229244867Y-68555113D01*
X229261607Y-68586431D01*
X229271915Y-68620409D01*
X229276000Y-68661890D01*
X229276000Y-69338110D01*
X229271915Y-69379591D01*
X229261607Y-69413569D01*
X229244867Y-69444887D01*
X229222339Y-69472339D01*
X229194887Y-69494867D01*
X229163569Y-69511607D01*
X229129591Y-69521915D01*
X229088110Y-69526000D01*
X228486890Y-69526000D01*
X228445409Y-69521915D01*
X228411431Y-69511607D01*
X228380113Y-69494867D01*
X228352661Y-69472339D01*
X228330133Y-69444887D01*
X228313393Y-69413569D01*
X228303085Y-69379591D01*
X228299000Y-69338110D01*
X228299000Y-68661890D01*
X228303085Y-68620409D01*
X228313393Y-68586431D01*
X228330133Y-68555113D01*
X228352661Y-68527661D01*
X228380113Y-68505133D01*
X228411431Y-68488393D01*
X228445409Y-68478085D01*
X228486890Y-68474000D01*
X229088110Y-68474000D01*
X229129591Y-68478085D01*
X229129591Y-68478085D01*
G37*
G36*
X224051000Y-69501000D02*
X223449000Y-69501000D01*
X223449000Y-68499000D01*
X224051000Y-68499000D01*
X224051000Y-69501000D01*
X224051000Y-69501000D01*
G37*
G36*
X225551000Y-69501000D02*
X224949000Y-69501000D01*
X224949000Y-68499000D01*
X225551000Y-68499000D01*
X225551000Y-69501000D01*
X225551000Y-69501000D01*
G37*
G36*
X205551000Y-69001000D02*
X204949000Y-69001000D01*
X204949000Y-67999000D01*
X205551000Y-67999000D01*
X205551000Y-69001000D01*
X205551000Y-69001000D01*
G37*
G36*
X207051000Y-69001000D02*
X206449000Y-69001000D01*
X206449000Y-67999000D01*
X207051000Y-67999000D01*
X207051000Y-69001000D01*
X207051000Y-69001000D01*
G37*
G36*
X229129591Y-63478085D02*
X229163569Y-63488393D01*
X229194887Y-63505133D01*
X229222339Y-63527661D01*
X229244867Y-63555113D01*
X229261607Y-63586431D01*
X229271915Y-63620409D01*
X229276000Y-63661890D01*
X229276000Y-64338110D01*
X229271915Y-64379591D01*
X229261607Y-64413569D01*
X229244867Y-64444887D01*
X229222339Y-64472339D01*
X229194887Y-64494867D01*
X229163569Y-64511607D01*
X229129591Y-64521915D01*
X229088110Y-64526000D01*
X228486890Y-64526000D01*
X228445409Y-64521915D01*
X228411431Y-64511607D01*
X228380113Y-64494867D01*
X228352661Y-64472339D01*
X228330133Y-64444887D01*
X228313393Y-64413569D01*
X228303085Y-64379591D01*
X228299000Y-64338110D01*
X228299000Y-63661890D01*
X228303085Y-63620409D01*
X228313393Y-63586431D01*
X228330133Y-63555113D01*
X228352661Y-63527661D01*
X228380113Y-63505133D01*
X228411431Y-63488393D01*
X228445409Y-63478085D01*
X228486890Y-63474000D01*
X229088110Y-63474000D01*
X229129591Y-63478085D01*
X229129591Y-63478085D01*
G37*
G36*
X227554591Y-63478085D02*
X227588569Y-63488393D01*
X227619887Y-63505133D01*
X227647339Y-63527661D01*
X227669867Y-63555113D01*
X227686607Y-63586431D01*
X227696915Y-63620409D01*
X227701000Y-63661890D01*
X227701000Y-64338110D01*
X227696915Y-64379591D01*
X227686607Y-64413569D01*
X227669867Y-64444887D01*
X227647339Y-64472339D01*
X227619887Y-64494867D01*
X227588569Y-64511607D01*
X227554591Y-64521915D01*
X227513110Y-64526000D01*
X226911890Y-64526000D01*
X226870409Y-64521915D01*
X226836431Y-64511607D01*
X226805113Y-64494867D01*
X226777661Y-64472339D01*
X226755133Y-64444887D01*
X226738393Y-64413569D01*
X226728085Y-64379591D01*
X226724000Y-64338110D01*
X226724000Y-63661890D01*
X226728085Y-63620409D01*
X226738393Y-63586431D01*
X226755133Y-63555113D01*
X226777661Y-63527661D01*
X226805113Y-63505133D01*
X226836431Y-63488393D01*
X226870409Y-63478085D01*
X226911890Y-63474000D01*
X227513110Y-63474000D01*
X227554591Y-63478085D01*
X227554591Y-63478085D01*
G37*
G36*
X225551000Y-64501000D02*
X224949000Y-64501000D01*
X224949000Y-63499000D01*
X225551000Y-63499000D01*
X225551000Y-64501000D01*
X225551000Y-64501000D01*
G37*
G36*
X224051000Y-64501000D02*
X223449000Y-64501000D01*
X223449000Y-63499000D01*
X224051000Y-63499000D01*
X224051000Y-64501000D01*
X224051000Y-64501000D01*
G37*
G36*
X191422066Y-52793447D02*
X191437612Y-52812389D01*
X191456554Y-52827935D01*
X191478165Y-52839486D01*
X191501614Y-52846599D01*
X191526000Y-52849001D01*
X195151000Y-52849001D01*
X195151000Y-62950999D01*
X191526000Y-62950999D01*
X191501614Y-62953401D01*
X191478165Y-62960514D01*
X191456554Y-62972065D01*
X191437612Y-62987611D01*
X191422066Y-63006553D01*
X191418124Y-63013928D01*
X191401000Y-63001244D01*
X191366316Y-62975552D01*
X191345294Y-62962969D01*
X191322217Y-62954727D01*
X191291916Y-62950999D01*
X184799000Y-62950999D01*
X184799000Y-61239393D01*
X188770832Y-61239393D01*
X188774413Y-61263634D01*
X188782655Y-61286711D01*
X188795240Y-61307736D01*
X188811686Y-61325902D01*
X188821275Y-61333771D01*
X188838963Y-61346874D01*
X188849599Y-61354752D01*
X188870625Y-61367337D01*
X188893702Y-61375578D01*
X188917943Y-61379159D01*
X188942417Y-61377942D01*
X188966183Y-61371973D01*
X188988328Y-61361483D01*
X189008002Y-61346874D01*
X189024446Y-61328707D01*
X189037031Y-61307681D01*
X189045272Y-61284604D01*
X189049000Y-61254306D01*
X189049000Y-61212359D01*
X189046598Y-61187973D01*
X189039485Y-61164524D01*
X189027934Y-61142913D01*
X189012388Y-61123971D01*
X188993446Y-61108425D01*
X188971835Y-61096874D01*
X188948386Y-61089761D01*
X188924000Y-61087359D01*
X188899614Y-61089761D01*
X188876165Y-61096874D01*
X188849597Y-61111914D01*
X188821282Y-61132888D01*
X188803116Y-61149334D01*
X188788507Y-61169007D01*
X188778017Y-61191152D01*
X188772049Y-61214919D01*
X188770832Y-61239393D01*
X184799000Y-61239393D01*
X184799000Y-57906060D01*
X188770832Y-57906060D01*
X188774413Y-57930301D01*
X188782655Y-57953378D01*
X188795240Y-57974403D01*
X188811686Y-57992569D01*
X188821275Y-58000438D01*
X188838963Y-58013541D01*
X188849599Y-58021419D01*
X188870625Y-58034004D01*
X188893702Y-58042245D01*
X188917943Y-58045826D01*
X188942417Y-58044609D01*
X188966183Y-58038640D01*
X188988328Y-58028150D01*
X189008002Y-58013541D01*
X189024446Y-57995374D01*
X189037031Y-57974348D01*
X189045272Y-57951271D01*
X189049000Y-57920973D01*
X189049000Y-57879026D01*
X189046598Y-57854640D01*
X189039485Y-57831191D01*
X189027934Y-57809580D01*
X189012388Y-57790638D01*
X188993446Y-57775092D01*
X188971835Y-57763541D01*
X188948386Y-57756428D01*
X188924000Y-57754026D01*
X188899614Y-57756428D01*
X188876165Y-57763541D01*
X188849597Y-57778581D01*
X188821282Y-57799555D01*
X188803116Y-57816001D01*
X188788507Y-57835674D01*
X188778017Y-57857819D01*
X188772049Y-57881586D01*
X188770832Y-57906060D01*
X184799000Y-57906060D01*
X184799000Y-54572727D01*
X188770832Y-54572727D01*
X188774413Y-54596968D01*
X188782655Y-54620045D01*
X188795240Y-54641070D01*
X188811686Y-54659236D01*
X188821275Y-54667105D01*
X188838963Y-54680208D01*
X188849599Y-54688086D01*
X188870625Y-54700671D01*
X188893702Y-54708912D01*
X188917943Y-54712493D01*
X188942417Y-54711276D01*
X188966183Y-54705307D01*
X188988328Y-54694817D01*
X189008002Y-54680208D01*
X189024446Y-54662041D01*
X189037031Y-54641015D01*
X189045272Y-54617938D01*
X189049000Y-54587640D01*
X189049000Y-54545693D01*
X189046598Y-54521307D01*
X189039485Y-54497858D01*
X189027934Y-54476247D01*
X189012388Y-54457305D01*
X188993446Y-54441759D01*
X188971835Y-54430208D01*
X188948386Y-54423095D01*
X188924000Y-54420693D01*
X188899614Y-54423095D01*
X188876165Y-54430208D01*
X188849598Y-54445248D01*
X188837160Y-54454461D01*
X188821282Y-54466222D01*
X188803116Y-54482668D01*
X188788507Y-54502341D01*
X188778017Y-54524486D01*
X188772049Y-54548253D01*
X188770832Y-54572727D01*
X184799000Y-54572727D01*
X184799000Y-52849001D01*
X185816717Y-52849001D01*
X185816727Y-52849000D01*
X191291918Y-52849000D01*
X191316304Y-52846598D01*
X191339753Y-52839485D01*
X191366316Y-52824448D01*
X191401000Y-52798756D01*
X191401000Y-52798757D01*
X191418124Y-52786072D01*
X191422066Y-52793447D01*
X191422066Y-52793447D01*
G37*
G36*
X229129591Y-58478085D02*
X229163569Y-58488393D01*
X229194887Y-58505133D01*
X229222339Y-58527661D01*
X229244867Y-58555113D01*
X229261607Y-58586431D01*
X229271915Y-58620409D01*
X229276000Y-58661890D01*
X229276000Y-59338110D01*
X229271915Y-59379591D01*
X229261607Y-59413569D01*
X229244867Y-59444887D01*
X229222339Y-59472339D01*
X229194887Y-59494867D01*
X229163569Y-59511607D01*
X229129591Y-59521915D01*
X229088110Y-59526000D01*
X228486890Y-59526000D01*
X228445409Y-59521915D01*
X228411431Y-59511607D01*
X228380113Y-59494867D01*
X228352661Y-59472339D01*
X228330133Y-59444887D01*
X228313393Y-59413569D01*
X228303085Y-59379591D01*
X228299000Y-59338110D01*
X228299000Y-58661890D01*
X228303085Y-58620409D01*
X228313393Y-58586431D01*
X228330133Y-58555113D01*
X228352661Y-58527661D01*
X228380113Y-58505133D01*
X228411431Y-58488393D01*
X228445409Y-58478085D01*
X228486890Y-58474000D01*
X229088110Y-58474000D01*
X229129591Y-58478085D01*
X229129591Y-58478085D01*
G37*
G36*
X227554591Y-58478085D02*
X227588569Y-58488393D01*
X227619887Y-58505133D01*
X227647339Y-58527661D01*
X227669867Y-58555113D01*
X227686607Y-58586431D01*
X227696915Y-58620409D01*
X227701000Y-58661890D01*
X227701000Y-59338110D01*
X227696915Y-59379591D01*
X227686607Y-59413569D01*
X227669867Y-59444887D01*
X227647339Y-59472339D01*
X227619887Y-59494867D01*
X227588569Y-59511607D01*
X227554591Y-59521915D01*
X227513110Y-59526000D01*
X226911890Y-59526000D01*
X226870409Y-59521915D01*
X226836431Y-59511607D01*
X226805113Y-59494867D01*
X226777661Y-59472339D01*
X226755133Y-59444887D01*
X226738393Y-59413569D01*
X226728085Y-59379591D01*
X226724000Y-59338110D01*
X226724000Y-58661890D01*
X226728085Y-58620409D01*
X226738393Y-58586431D01*
X226755133Y-58555113D01*
X226777661Y-58527661D01*
X226805113Y-58505133D01*
X226836431Y-58488393D01*
X226870409Y-58478085D01*
X226911890Y-58474000D01*
X227513110Y-58474000D01*
X227554591Y-58478085D01*
X227554591Y-58478085D01*
G37*
G36*
X225551000Y-59501000D02*
X224949000Y-59501000D01*
X224949000Y-58499000D01*
X225551000Y-58499000D01*
X225551000Y-59501000D01*
X225551000Y-59501000D01*
G37*
G36*
X224051000Y-59501000D02*
X223449000Y-59501000D01*
X223449000Y-58499000D01*
X224051000Y-58499000D01*
X224051000Y-59501000D01*
X224051000Y-59501000D01*
G37*
G36*
X229129591Y-53478085D02*
X229163569Y-53488393D01*
X229194887Y-53505133D01*
X229222339Y-53527661D01*
X229244867Y-53555113D01*
X229261607Y-53586431D01*
X229271915Y-53620409D01*
X229276000Y-53661890D01*
X229276000Y-54338110D01*
X229271915Y-54379591D01*
X229261607Y-54413569D01*
X229244867Y-54444887D01*
X229222339Y-54472339D01*
X229194887Y-54494867D01*
X229163569Y-54511607D01*
X229129591Y-54521915D01*
X229088110Y-54526000D01*
X228486890Y-54526000D01*
X228445409Y-54521915D01*
X228411431Y-54511607D01*
X228380113Y-54494867D01*
X228352661Y-54472339D01*
X228330133Y-54444887D01*
X228313393Y-54413569D01*
X228303085Y-54379591D01*
X228299000Y-54338110D01*
X228299000Y-53661890D01*
X228303085Y-53620409D01*
X228313393Y-53586431D01*
X228330133Y-53555113D01*
X228352661Y-53527661D01*
X228380113Y-53505133D01*
X228411431Y-53488393D01*
X228445409Y-53478085D01*
X228486890Y-53474000D01*
X229088110Y-53474000D01*
X229129591Y-53478085D01*
X229129591Y-53478085D01*
G37*
G36*
X227554591Y-53478085D02*
X227588569Y-53488393D01*
X227619887Y-53505133D01*
X227647339Y-53527661D01*
X227669867Y-53555113D01*
X227686607Y-53586431D01*
X227696915Y-53620409D01*
X227701000Y-53661890D01*
X227701000Y-54338110D01*
X227696915Y-54379591D01*
X227686607Y-54413569D01*
X227669867Y-54444887D01*
X227647339Y-54472339D01*
X227619887Y-54494867D01*
X227588569Y-54511607D01*
X227554591Y-54521915D01*
X227513110Y-54526000D01*
X226911890Y-54526000D01*
X226870409Y-54521915D01*
X226836431Y-54511607D01*
X226805113Y-54494867D01*
X226777661Y-54472339D01*
X226755133Y-54444887D01*
X226738393Y-54413569D01*
X226728085Y-54379591D01*
X226724000Y-54338110D01*
X226724000Y-53661890D01*
X226728085Y-53620409D01*
X226738393Y-53586431D01*
X226755133Y-53555113D01*
X226777661Y-53527661D01*
X226805113Y-53505133D01*
X226836431Y-53488393D01*
X226870409Y-53478085D01*
X226911890Y-53474000D01*
X227513110Y-53474000D01*
X227554591Y-53478085D01*
X227554591Y-53478085D01*
G37*
G36*
X225551000Y-54501000D02*
X224949000Y-54501000D01*
X224949000Y-53499000D01*
X225551000Y-53499000D01*
X225551000Y-54501000D01*
X225551000Y-54501000D01*
G37*
G36*
X224051000Y-54501000D02*
X223449000Y-54501000D01*
X223449000Y-53499000D01*
X224051000Y-53499000D01*
X224051000Y-54501000D01*
X224051000Y-54501000D01*
G37*
G36*
X204170442Y-51005518D02*
X204236627Y-51012037D01*
X204349853Y-51046384D01*
X204406467Y-51063557D01*
X204545087Y-51137652D01*
X204562991Y-51147222D01*
X204598729Y-51176552D01*
X204700186Y-51259814D01*
X204783448Y-51361271D01*
X204812778Y-51397009D01*
X204812779Y-51397011D01*
X204896443Y-51553533D01*
X204904075Y-51578693D01*
X204947963Y-51723373D01*
X204965359Y-51900000D01*
X204947963Y-52076627D01*
X204913616Y-52189853D01*
X204896443Y-52246467D01*
X204824132Y-52381750D01*
X204812778Y-52402991D01*
X204791104Y-52429401D01*
X204700186Y-52540186D01*
X204613158Y-52611607D01*
X204562991Y-52652778D01*
X204562989Y-52652779D01*
X204406467Y-52736443D01*
X204349853Y-52753616D01*
X204236627Y-52787963D01*
X204180946Y-52793447D01*
X204104260Y-52801000D01*
X204015740Y-52801000D01*
X203939054Y-52793447D01*
X203883373Y-52787963D01*
X203770147Y-52753616D01*
X203713533Y-52736443D01*
X203557011Y-52652779D01*
X203557009Y-52652778D01*
X203506842Y-52611607D01*
X203419814Y-52540186D01*
X203328896Y-52429401D01*
X203307222Y-52402991D01*
X203295868Y-52381750D01*
X203223557Y-52246467D01*
X203206384Y-52189853D01*
X203172037Y-52076627D01*
X203154641Y-51900000D01*
X203172037Y-51723373D01*
X203215925Y-51578693D01*
X203223557Y-51553533D01*
X203307221Y-51397011D01*
X203307222Y-51397009D01*
X203336552Y-51361271D01*
X203419814Y-51259814D01*
X203521271Y-51176552D01*
X203557009Y-51147222D01*
X203574913Y-51137652D01*
X203713533Y-51063557D01*
X203770147Y-51046384D01*
X203883373Y-51012037D01*
X203949557Y-51005519D01*
X204015740Y-50999000D01*
X204104260Y-50999000D01*
X204170442Y-51005518D01*
X204170442Y-51005518D01*
G37*
G36*
X207501000Y-52801000D02*
X205699000Y-52801000D01*
X205699000Y-50999000D01*
X207501000Y-50999000D01*
X207501000Y-52801000D01*
X207501000Y-52801000D01*
G37*
G36*
X200242091Y-51578085D02*
X200276069Y-51588393D01*
X200307387Y-51605133D01*
X200334839Y-51627661D01*
X200357367Y-51655113D01*
X200374107Y-51686431D01*
X200384415Y-51720409D01*
X200388500Y-51761890D01*
X200388500Y-52438110D01*
X200384415Y-52479591D01*
X200374107Y-52513569D01*
X200357367Y-52544887D01*
X200334839Y-52572339D01*
X200307387Y-52594867D01*
X200276069Y-52611607D01*
X200242091Y-52621915D01*
X200200610Y-52626000D01*
X199599390Y-52626000D01*
X199557909Y-52621915D01*
X199523931Y-52611607D01*
X199492613Y-52594867D01*
X199465161Y-52572339D01*
X199442633Y-52544887D01*
X199425893Y-52513569D01*
X199415585Y-52479591D01*
X199411500Y-52438110D01*
X199411500Y-51761890D01*
X199415585Y-51720409D01*
X199425893Y-51686431D01*
X199442633Y-51655113D01*
X199465161Y-51627661D01*
X199492613Y-51605133D01*
X199523931Y-51588393D01*
X199557909Y-51578085D01*
X199599390Y-51574000D01*
X200200610Y-51574000D01*
X200242091Y-51578085D01*
X200242091Y-51578085D01*
G37*
G36*
X198667091Y-51578085D02*
X198701069Y-51588393D01*
X198732387Y-51605133D01*
X198759839Y-51627661D01*
X198782367Y-51655113D01*
X198799107Y-51686431D01*
X198809415Y-51720409D01*
X198813500Y-51761890D01*
X198813500Y-52438110D01*
X198809415Y-52479591D01*
X198799107Y-52513569D01*
X198782367Y-52544887D01*
X198759839Y-52572339D01*
X198732387Y-52594867D01*
X198701069Y-52611607D01*
X198667091Y-52621915D01*
X198625610Y-52626000D01*
X198024390Y-52626000D01*
X197982909Y-52621915D01*
X197948931Y-52611607D01*
X197917613Y-52594867D01*
X197890161Y-52572339D01*
X197867633Y-52544887D01*
X197850893Y-52513569D01*
X197840585Y-52479591D01*
X197836500Y-52438110D01*
X197836500Y-51761890D01*
X197840585Y-51720409D01*
X197850893Y-51686431D01*
X197867633Y-51655113D01*
X197890161Y-51627661D01*
X197917613Y-51605133D01*
X197948931Y-51588393D01*
X197982909Y-51578085D01*
X198024390Y-51574000D01*
X198625610Y-51574000D01*
X198667091Y-51578085D01*
X198667091Y-51578085D01*
G37*
M02*
