G04 #@! TF.GenerationSoftware,KiCad,Pcbnew,5.0.2-bee76a0~70~ubuntu18.04.1*
G04 #@! TF.CreationDate,2019-03-04T23:14:44-05:00*
G04 #@! TF.ProjectId,BalancingBusinessCardLights,42616c61-6e63-4696-9e67-427573696e65,rev?*
G04 #@! TF.SameCoordinates,Original*
G04 #@! TF.FileFunction,Copper,L1,Top*
G04 #@! TF.FilePolarity,Positive*
%FSLAX46Y46*%
G04 Gerber Fmt 4.6, Leading zero omitted, Abs format (unit mm)*
G04 Created by KiCad (PCBNEW 5.0.2-bee76a0~70~ubuntu18.04.1) date Mon 04 Mar 2019 11:14:44 PM EST*
%MOMM*%
%LPD*%
G01*
G04 APERTURE LIST*
G04 #@! TA.AperFunction,SMDPad,CuDef*
%ADD10R,5.000000X21.000000*%
G04 #@! TD*
G04 #@! TA.AperFunction,Conductor*
%ADD11C,0.100000*%
G04 #@! TD*
G04 #@! TA.AperFunction,SMDPad,CuDef*
%ADD12C,0.975000*%
G04 #@! TD*
G04 #@! TA.AperFunction,SMDPad,CuDef*
%ADD13C,0.875000*%
G04 #@! TD*
G04 #@! TA.AperFunction,ComponentPad*
%ADD14O,1.700000X1.700000*%
G04 #@! TD*
G04 #@! TA.AperFunction,ComponentPad*
%ADD15R,1.700000X1.700000*%
G04 #@! TD*
G04 #@! TA.AperFunction,SMDPad,CuDef*
%ADD16R,0.254000X0.355600*%
G04 #@! TD*
G04 #@! TA.AperFunction,SMDPad,CuDef*
%ADD17R,0.355600X0.254000*%
G04 #@! TD*
G04 #@! TA.AperFunction,SMDPad,CuDef*
%ADD18R,0.750000X0.800000*%
G04 #@! TD*
G04 #@! TA.AperFunction,SMDPad,CuDef*
%ADD19R,0.900000X0.500000*%
G04 #@! TD*
G04 #@! TA.AperFunction,SMDPad,CuDef*
%ADD20R,0.500000X0.900000*%
G04 #@! TD*
G04 #@! TA.AperFunction,SMDPad,CuDef*
%ADD21C,1.725000*%
G04 #@! TD*
G04 #@! TA.AperFunction,SMDPad,CuDef*
%ADD22C,0.250000*%
G04 #@! TD*
G04 #@! TA.AperFunction,SMDPad,CuDef*
%ADD23R,0.650000X1.060000*%
G04 #@! TD*
G04 #@! TA.AperFunction,SMDPad,CuDef*
%ADD24C,1.339262*%
G04 #@! TD*
G04 #@! TA.AperFunction,SMDPad,CuDef*
%ADD25R,3.750000X3.333333*%
G04 #@! TD*
G04 #@! TA.AperFunction,BGAPad,CuDef*
%ADD26C,3.000000*%
G04 #@! TD*
G04 #@! TA.AperFunction,ViaPad*
%ADD27C,0.800000*%
G04 #@! TD*
G04 #@! TA.AperFunction,Conductor*
%ADD28C,0.400000*%
G04 #@! TD*
G04 #@! TA.AperFunction,Conductor*
%ADD29C,0.250000*%
G04 #@! TD*
G04 #@! TA.AperFunction,Conductor*
%ADD30C,0.254000*%
G04 #@! TD*
G04 APERTURE END LIST*
D10*
G04 #@! TO.P,BT101,1*
G04 #@! TO.N,+BATT*
X198500000Y-116000000D03*
X212500000Y-116000000D03*
G04 #@! TD*
D11*
G04 #@! TO.N,GND*
G04 #@! TO.C,C101*
G36*
X200330142Y-78301174D02*
X200353803Y-78304684D01*
X200377007Y-78310496D01*
X200399529Y-78318554D01*
X200421153Y-78328782D01*
X200441670Y-78341079D01*
X200460883Y-78355329D01*
X200478607Y-78371393D01*
X200494671Y-78389117D01*
X200508921Y-78408330D01*
X200521218Y-78428847D01*
X200531446Y-78450471D01*
X200539504Y-78472993D01*
X200545316Y-78496197D01*
X200548826Y-78519858D01*
X200550000Y-78543750D01*
X200550000Y-79456250D01*
X200548826Y-79480142D01*
X200545316Y-79503803D01*
X200539504Y-79527007D01*
X200531446Y-79549529D01*
X200521218Y-79571153D01*
X200508921Y-79591670D01*
X200494671Y-79610883D01*
X200478607Y-79628607D01*
X200460883Y-79644671D01*
X200441670Y-79658921D01*
X200421153Y-79671218D01*
X200399529Y-79681446D01*
X200377007Y-79689504D01*
X200353803Y-79695316D01*
X200330142Y-79698826D01*
X200306250Y-79700000D01*
X199818750Y-79700000D01*
X199794858Y-79698826D01*
X199771197Y-79695316D01*
X199747993Y-79689504D01*
X199725471Y-79681446D01*
X199703847Y-79671218D01*
X199683330Y-79658921D01*
X199664117Y-79644671D01*
X199646393Y-79628607D01*
X199630329Y-79610883D01*
X199616079Y-79591670D01*
X199603782Y-79571153D01*
X199593554Y-79549529D01*
X199585496Y-79527007D01*
X199579684Y-79503803D01*
X199576174Y-79480142D01*
X199575000Y-79456250D01*
X199575000Y-78543750D01*
X199576174Y-78519858D01*
X199579684Y-78496197D01*
X199585496Y-78472993D01*
X199593554Y-78450471D01*
X199603782Y-78428847D01*
X199616079Y-78408330D01*
X199630329Y-78389117D01*
X199646393Y-78371393D01*
X199664117Y-78355329D01*
X199683330Y-78341079D01*
X199703847Y-78328782D01*
X199725471Y-78318554D01*
X199747993Y-78310496D01*
X199771197Y-78304684D01*
X199794858Y-78301174D01*
X199818750Y-78300000D01*
X200306250Y-78300000D01*
X200330142Y-78301174D01*
X200330142Y-78301174D01*
G37*
D12*
G04 #@! TD*
G04 #@! TO.P,C101,2*
G04 #@! TO.N,GND*
X200062500Y-79000000D03*
D11*
G04 #@! TO.N,+3V3*
G04 #@! TO.C,C101*
G36*
X202205142Y-78301174D02*
X202228803Y-78304684D01*
X202252007Y-78310496D01*
X202274529Y-78318554D01*
X202296153Y-78328782D01*
X202316670Y-78341079D01*
X202335883Y-78355329D01*
X202353607Y-78371393D01*
X202369671Y-78389117D01*
X202383921Y-78408330D01*
X202396218Y-78428847D01*
X202406446Y-78450471D01*
X202414504Y-78472993D01*
X202420316Y-78496197D01*
X202423826Y-78519858D01*
X202425000Y-78543750D01*
X202425000Y-79456250D01*
X202423826Y-79480142D01*
X202420316Y-79503803D01*
X202414504Y-79527007D01*
X202406446Y-79549529D01*
X202396218Y-79571153D01*
X202383921Y-79591670D01*
X202369671Y-79610883D01*
X202353607Y-79628607D01*
X202335883Y-79644671D01*
X202316670Y-79658921D01*
X202296153Y-79671218D01*
X202274529Y-79681446D01*
X202252007Y-79689504D01*
X202228803Y-79695316D01*
X202205142Y-79698826D01*
X202181250Y-79700000D01*
X201693750Y-79700000D01*
X201669858Y-79698826D01*
X201646197Y-79695316D01*
X201622993Y-79689504D01*
X201600471Y-79681446D01*
X201578847Y-79671218D01*
X201558330Y-79658921D01*
X201539117Y-79644671D01*
X201521393Y-79628607D01*
X201505329Y-79610883D01*
X201491079Y-79591670D01*
X201478782Y-79571153D01*
X201468554Y-79549529D01*
X201460496Y-79527007D01*
X201454684Y-79503803D01*
X201451174Y-79480142D01*
X201450000Y-79456250D01*
X201450000Y-78543750D01*
X201451174Y-78519858D01*
X201454684Y-78496197D01*
X201460496Y-78472993D01*
X201468554Y-78450471D01*
X201478782Y-78428847D01*
X201491079Y-78408330D01*
X201505329Y-78389117D01*
X201521393Y-78371393D01*
X201539117Y-78355329D01*
X201558330Y-78341079D01*
X201578847Y-78328782D01*
X201600471Y-78318554D01*
X201622993Y-78310496D01*
X201646197Y-78304684D01*
X201669858Y-78301174D01*
X201693750Y-78300000D01*
X202181250Y-78300000D01*
X202205142Y-78301174D01*
X202205142Y-78301174D01*
G37*
D12*
G04 #@! TD*
G04 #@! TO.P,C101,1*
G04 #@! TO.N,+3V3*
X201937500Y-79000000D03*
D11*
G04 #@! TO.N,GND*
G04 #@! TO.C,C401*
G36*
X188705142Y-129301174D02*
X188728803Y-129304684D01*
X188752007Y-129310496D01*
X188774529Y-129318554D01*
X188796153Y-129328782D01*
X188816670Y-129341079D01*
X188835883Y-129355329D01*
X188853607Y-129371393D01*
X188869671Y-129389117D01*
X188883921Y-129408330D01*
X188896218Y-129428847D01*
X188906446Y-129450471D01*
X188914504Y-129472993D01*
X188920316Y-129496197D01*
X188923826Y-129519858D01*
X188925000Y-129543750D01*
X188925000Y-130456250D01*
X188923826Y-130480142D01*
X188920316Y-130503803D01*
X188914504Y-130527007D01*
X188906446Y-130549529D01*
X188896218Y-130571153D01*
X188883921Y-130591670D01*
X188869671Y-130610883D01*
X188853607Y-130628607D01*
X188835883Y-130644671D01*
X188816670Y-130658921D01*
X188796153Y-130671218D01*
X188774529Y-130681446D01*
X188752007Y-130689504D01*
X188728803Y-130695316D01*
X188705142Y-130698826D01*
X188681250Y-130700000D01*
X188193750Y-130700000D01*
X188169858Y-130698826D01*
X188146197Y-130695316D01*
X188122993Y-130689504D01*
X188100471Y-130681446D01*
X188078847Y-130671218D01*
X188058330Y-130658921D01*
X188039117Y-130644671D01*
X188021393Y-130628607D01*
X188005329Y-130610883D01*
X187991079Y-130591670D01*
X187978782Y-130571153D01*
X187968554Y-130549529D01*
X187960496Y-130527007D01*
X187954684Y-130503803D01*
X187951174Y-130480142D01*
X187950000Y-130456250D01*
X187950000Y-129543750D01*
X187951174Y-129519858D01*
X187954684Y-129496197D01*
X187960496Y-129472993D01*
X187968554Y-129450471D01*
X187978782Y-129428847D01*
X187991079Y-129408330D01*
X188005329Y-129389117D01*
X188021393Y-129371393D01*
X188039117Y-129355329D01*
X188058330Y-129341079D01*
X188078847Y-129328782D01*
X188100471Y-129318554D01*
X188122993Y-129310496D01*
X188146197Y-129304684D01*
X188169858Y-129301174D01*
X188193750Y-129300000D01*
X188681250Y-129300000D01*
X188705142Y-129301174D01*
X188705142Y-129301174D01*
G37*
D12*
G04 #@! TD*
G04 #@! TO.P,C401,2*
G04 #@! TO.N,GND*
X188437500Y-130000000D03*
D11*
G04 #@! TO.N,+3V3*
G04 #@! TO.C,C401*
G36*
X186830142Y-129301174D02*
X186853803Y-129304684D01*
X186877007Y-129310496D01*
X186899529Y-129318554D01*
X186921153Y-129328782D01*
X186941670Y-129341079D01*
X186960883Y-129355329D01*
X186978607Y-129371393D01*
X186994671Y-129389117D01*
X187008921Y-129408330D01*
X187021218Y-129428847D01*
X187031446Y-129450471D01*
X187039504Y-129472993D01*
X187045316Y-129496197D01*
X187048826Y-129519858D01*
X187050000Y-129543750D01*
X187050000Y-130456250D01*
X187048826Y-130480142D01*
X187045316Y-130503803D01*
X187039504Y-130527007D01*
X187031446Y-130549529D01*
X187021218Y-130571153D01*
X187008921Y-130591670D01*
X186994671Y-130610883D01*
X186978607Y-130628607D01*
X186960883Y-130644671D01*
X186941670Y-130658921D01*
X186921153Y-130671218D01*
X186899529Y-130681446D01*
X186877007Y-130689504D01*
X186853803Y-130695316D01*
X186830142Y-130698826D01*
X186806250Y-130700000D01*
X186318750Y-130700000D01*
X186294858Y-130698826D01*
X186271197Y-130695316D01*
X186247993Y-130689504D01*
X186225471Y-130681446D01*
X186203847Y-130671218D01*
X186183330Y-130658921D01*
X186164117Y-130644671D01*
X186146393Y-130628607D01*
X186130329Y-130610883D01*
X186116079Y-130591670D01*
X186103782Y-130571153D01*
X186093554Y-130549529D01*
X186085496Y-130527007D01*
X186079684Y-130503803D01*
X186076174Y-130480142D01*
X186075000Y-130456250D01*
X186075000Y-129543750D01*
X186076174Y-129519858D01*
X186079684Y-129496197D01*
X186085496Y-129472993D01*
X186093554Y-129450471D01*
X186103782Y-129428847D01*
X186116079Y-129408330D01*
X186130329Y-129389117D01*
X186146393Y-129371393D01*
X186164117Y-129355329D01*
X186183330Y-129341079D01*
X186203847Y-129328782D01*
X186225471Y-129318554D01*
X186247993Y-129310496D01*
X186271197Y-129304684D01*
X186294858Y-129301174D01*
X186318750Y-129300000D01*
X186806250Y-129300000D01*
X186830142Y-129301174D01*
X186830142Y-129301174D01*
G37*
D12*
G04 #@! TD*
G04 #@! TO.P,C401,1*
G04 #@! TO.N,+3V3*
X186562500Y-130000000D03*
D11*
G04 #@! TO.N,GND*
G04 #@! TO.C,C402*
G36*
X188527691Y-127526053D02*
X188548926Y-127529203D01*
X188569750Y-127534419D01*
X188589962Y-127541651D01*
X188609368Y-127550830D01*
X188627781Y-127561866D01*
X188645024Y-127574654D01*
X188660930Y-127589070D01*
X188675346Y-127604976D01*
X188688134Y-127622219D01*
X188699170Y-127640632D01*
X188708349Y-127660038D01*
X188715581Y-127680250D01*
X188720797Y-127701074D01*
X188723947Y-127722309D01*
X188725000Y-127743750D01*
X188725000Y-128256250D01*
X188723947Y-128277691D01*
X188720797Y-128298926D01*
X188715581Y-128319750D01*
X188708349Y-128339962D01*
X188699170Y-128359368D01*
X188688134Y-128377781D01*
X188675346Y-128395024D01*
X188660930Y-128410930D01*
X188645024Y-128425346D01*
X188627781Y-128438134D01*
X188609368Y-128449170D01*
X188589962Y-128458349D01*
X188569750Y-128465581D01*
X188548926Y-128470797D01*
X188527691Y-128473947D01*
X188506250Y-128475000D01*
X188068750Y-128475000D01*
X188047309Y-128473947D01*
X188026074Y-128470797D01*
X188005250Y-128465581D01*
X187985038Y-128458349D01*
X187965632Y-128449170D01*
X187947219Y-128438134D01*
X187929976Y-128425346D01*
X187914070Y-128410930D01*
X187899654Y-128395024D01*
X187886866Y-128377781D01*
X187875830Y-128359368D01*
X187866651Y-128339962D01*
X187859419Y-128319750D01*
X187854203Y-128298926D01*
X187851053Y-128277691D01*
X187850000Y-128256250D01*
X187850000Y-127743750D01*
X187851053Y-127722309D01*
X187854203Y-127701074D01*
X187859419Y-127680250D01*
X187866651Y-127660038D01*
X187875830Y-127640632D01*
X187886866Y-127622219D01*
X187899654Y-127604976D01*
X187914070Y-127589070D01*
X187929976Y-127574654D01*
X187947219Y-127561866D01*
X187965632Y-127550830D01*
X187985038Y-127541651D01*
X188005250Y-127534419D01*
X188026074Y-127529203D01*
X188047309Y-127526053D01*
X188068750Y-127525000D01*
X188506250Y-127525000D01*
X188527691Y-127526053D01*
X188527691Y-127526053D01*
G37*
D13*
G04 #@! TD*
G04 #@! TO.P,C402,2*
G04 #@! TO.N,GND*
X188287500Y-128000000D03*
D11*
G04 #@! TO.N,+3V3*
G04 #@! TO.C,C402*
G36*
X186952691Y-127526053D02*
X186973926Y-127529203D01*
X186994750Y-127534419D01*
X187014962Y-127541651D01*
X187034368Y-127550830D01*
X187052781Y-127561866D01*
X187070024Y-127574654D01*
X187085930Y-127589070D01*
X187100346Y-127604976D01*
X187113134Y-127622219D01*
X187124170Y-127640632D01*
X187133349Y-127660038D01*
X187140581Y-127680250D01*
X187145797Y-127701074D01*
X187148947Y-127722309D01*
X187150000Y-127743750D01*
X187150000Y-128256250D01*
X187148947Y-128277691D01*
X187145797Y-128298926D01*
X187140581Y-128319750D01*
X187133349Y-128339962D01*
X187124170Y-128359368D01*
X187113134Y-128377781D01*
X187100346Y-128395024D01*
X187085930Y-128410930D01*
X187070024Y-128425346D01*
X187052781Y-128438134D01*
X187034368Y-128449170D01*
X187014962Y-128458349D01*
X186994750Y-128465581D01*
X186973926Y-128470797D01*
X186952691Y-128473947D01*
X186931250Y-128475000D01*
X186493750Y-128475000D01*
X186472309Y-128473947D01*
X186451074Y-128470797D01*
X186430250Y-128465581D01*
X186410038Y-128458349D01*
X186390632Y-128449170D01*
X186372219Y-128438134D01*
X186354976Y-128425346D01*
X186339070Y-128410930D01*
X186324654Y-128395024D01*
X186311866Y-128377781D01*
X186300830Y-128359368D01*
X186291651Y-128339962D01*
X186284419Y-128319750D01*
X186279203Y-128298926D01*
X186276053Y-128277691D01*
X186275000Y-128256250D01*
X186275000Y-127743750D01*
X186276053Y-127722309D01*
X186279203Y-127701074D01*
X186284419Y-127680250D01*
X186291651Y-127660038D01*
X186300830Y-127640632D01*
X186311866Y-127622219D01*
X186324654Y-127604976D01*
X186339070Y-127589070D01*
X186354976Y-127574654D01*
X186372219Y-127561866D01*
X186390632Y-127550830D01*
X186410038Y-127541651D01*
X186430250Y-127534419D01*
X186451074Y-127529203D01*
X186472309Y-127526053D01*
X186493750Y-127525000D01*
X186931250Y-127525000D01*
X186952691Y-127526053D01*
X186952691Y-127526053D01*
G37*
D13*
G04 #@! TD*
G04 #@! TO.P,C402,1*
G04 #@! TO.N,+3V3*
X186712500Y-128000000D03*
D11*
G04 #@! TO.N,Net-(D301-Pad2)*
G04 #@! TO.C,D301*
G36*
X227452691Y-53526053D02*
X227473926Y-53529203D01*
X227494750Y-53534419D01*
X227514962Y-53541651D01*
X227534368Y-53550830D01*
X227552781Y-53561866D01*
X227570024Y-53574654D01*
X227585930Y-53589070D01*
X227600346Y-53604976D01*
X227613134Y-53622219D01*
X227624170Y-53640632D01*
X227633349Y-53660038D01*
X227640581Y-53680250D01*
X227645797Y-53701074D01*
X227648947Y-53722309D01*
X227650000Y-53743750D01*
X227650000Y-54256250D01*
X227648947Y-54277691D01*
X227645797Y-54298926D01*
X227640581Y-54319750D01*
X227633349Y-54339962D01*
X227624170Y-54359368D01*
X227613134Y-54377781D01*
X227600346Y-54395024D01*
X227585930Y-54410930D01*
X227570024Y-54425346D01*
X227552781Y-54438134D01*
X227534368Y-54449170D01*
X227514962Y-54458349D01*
X227494750Y-54465581D01*
X227473926Y-54470797D01*
X227452691Y-54473947D01*
X227431250Y-54475000D01*
X226993750Y-54475000D01*
X226972309Y-54473947D01*
X226951074Y-54470797D01*
X226930250Y-54465581D01*
X226910038Y-54458349D01*
X226890632Y-54449170D01*
X226872219Y-54438134D01*
X226854976Y-54425346D01*
X226839070Y-54410930D01*
X226824654Y-54395024D01*
X226811866Y-54377781D01*
X226800830Y-54359368D01*
X226791651Y-54339962D01*
X226784419Y-54319750D01*
X226779203Y-54298926D01*
X226776053Y-54277691D01*
X226775000Y-54256250D01*
X226775000Y-53743750D01*
X226776053Y-53722309D01*
X226779203Y-53701074D01*
X226784419Y-53680250D01*
X226791651Y-53660038D01*
X226800830Y-53640632D01*
X226811866Y-53622219D01*
X226824654Y-53604976D01*
X226839070Y-53589070D01*
X226854976Y-53574654D01*
X226872219Y-53561866D01*
X226890632Y-53550830D01*
X226910038Y-53541651D01*
X226930250Y-53534419D01*
X226951074Y-53529203D01*
X226972309Y-53526053D01*
X226993750Y-53525000D01*
X227431250Y-53525000D01*
X227452691Y-53526053D01*
X227452691Y-53526053D01*
G37*
D13*
G04 #@! TD*
G04 #@! TO.P,D301,2*
G04 #@! TO.N,Net-(D301-Pad2)*
X227212500Y-54000000D03*
D11*
G04 #@! TO.N,GND*
G04 #@! TO.C,D301*
G36*
X229027691Y-53526053D02*
X229048926Y-53529203D01*
X229069750Y-53534419D01*
X229089962Y-53541651D01*
X229109368Y-53550830D01*
X229127781Y-53561866D01*
X229145024Y-53574654D01*
X229160930Y-53589070D01*
X229175346Y-53604976D01*
X229188134Y-53622219D01*
X229199170Y-53640632D01*
X229208349Y-53660038D01*
X229215581Y-53680250D01*
X229220797Y-53701074D01*
X229223947Y-53722309D01*
X229225000Y-53743750D01*
X229225000Y-54256250D01*
X229223947Y-54277691D01*
X229220797Y-54298926D01*
X229215581Y-54319750D01*
X229208349Y-54339962D01*
X229199170Y-54359368D01*
X229188134Y-54377781D01*
X229175346Y-54395024D01*
X229160930Y-54410930D01*
X229145024Y-54425346D01*
X229127781Y-54438134D01*
X229109368Y-54449170D01*
X229089962Y-54458349D01*
X229069750Y-54465581D01*
X229048926Y-54470797D01*
X229027691Y-54473947D01*
X229006250Y-54475000D01*
X228568750Y-54475000D01*
X228547309Y-54473947D01*
X228526074Y-54470797D01*
X228505250Y-54465581D01*
X228485038Y-54458349D01*
X228465632Y-54449170D01*
X228447219Y-54438134D01*
X228429976Y-54425346D01*
X228414070Y-54410930D01*
X228399654Y-54395024D01*
X228386866Y-54377781D01*
X228375830Y-54359368D01*
X228366651Y-54339962D01*
X228359419Y-54319750D01*
X228354203Y-54298926D01*
X228351053Y-54277691D01*
X228350000Y-54256250D01*
X228350000Y-53743750D01*
X228351053Y-53722309D01*
X228354203Y-53701074D01*
X228359419Y-53680250D01*
X228366651Y-53660038D01*
X228375830Y-53640632D01*
X228386866Y-53622219D01*
X228399654Y-53604976D01*
X228414070Y-53589070D01*
X228429976Y-53574654D01*
X228447219Y-53561866D01*
X228465632Y-53550830D01*
X228485038Y-53541651D01*
X228505250Y-53534419D01*
X228526074Y-53529203D01*
X228547309Y-53526053D01*
X228568750Y-53525000D01*
X229006250Y-53525000D01*
X229027691Y-53526053D01*
X229027691Y-53526053D01*
G37*
D13*
G04 #@! TD*
G04 #@! TO.P,D301,1*
G04 #@! TO.N,GND*
X228787500Y-54000000D03*
D11*
G04 #@! TO.N,Net-(D302-Pad2)*
G04 #@! TO.C,D302*
G36*
X227452691Y-58526053D02*
X227473926Y-58529203D01*
X227494750Y-58534419D01*
X227514962Y-58541651D01*
X227534368Y-58550830D01*
X227552781Y-58561866D01*
X227570024Y-58574654D01*
X227585930Y-58589070D01*
X227600346Y-58604976D01*
X227613134Y-58622219D01*
X227624170Y-58640632D01*
X227633349Y-58660038D01*
X227640581Y-58680250D01*
X227645797Y-58701074D01*
X227648947Y-58722309D01*
X227650000Y-58743750D01*
X227650000Y-59256250D01*
X227648947Y-59277691D01*
X227645797Y-59298926D01*
X227640581Y-59319750D01*
X227633349Y-59339962D01*
X227624170Y-59359368D01*
X227613134Y-59377781D01*
X227600346Y-59395024D01*
X227585930Y-59410930D01*
X227570024Y-59425346D01*
X227552781Y-59438134D01*
X227534368Y-59449170D01*
X227514962Y-59458349D01*
X227494750Y-59465581D01*
X227473926Y-59470797D01*
X227452691Y-59473947D01*
X227431250Y-59475000D01*
X226993750Y-59475000D01*
X226972309Y-59473947D01*
X226951074Y-59470797D01*
X226930250Y-59465581D01*
X226910038Y-59458349D01*
X226890632Y-59449170D01*
X226872219Y-59438134D01*
X226854976Y-59425346D01*
X226839070Y-59410930D01*
X226824654Y-59395024D01*
X226811866Y-59377781D01*
X226800830Y-59359368D01*
X226791651Y-59339962D01*
X226784419Y-59319750D01*
X226779203Y-59298926D01*
X226776053Y-59277691D01*
X226775000Y-59256250D01*
X226775000Y-58743750D01*
X226776053Y-58722309D01*
X226779203Y-58701074D01*
X226784419Y-58680250D01*
X226791651Y-58660038D01*
X226800830Y-58640632D01*
X226811866Y-58622219D01*
X226824654Y-58604976D01*
X226839070Y-58589070D01*
X226854976Y-58574654D01*
X226872219Y-58561866D01*
X226890632Y-58550830D01*
X226910038Y-58541651D01*
X226930250Y-58534419D01*
X226951074Y-58529203D01*
X226972309Y-58526053D01*
X226993750Y-58525000D01*
X227431250Y-58525000D01*
X227452691Y-58526053D01*
X227452691Y-58526053D01*
G37*
D13*
G04 #@! TD*
G04 #@! TO.P,D302,2*
G04 #@! TO.N,Net-(D302-Pad2)*
X227212500Y-59000000D03*
D11*
G04 #@! TO.N,GND*
G04 #@! TO.C,D302*
G36*
X229027691Y-58526053D02*
X229048926Y-58529203D01*
X229069750Y-58534419D01*
X229089962Y-58541651D01*
X229109368Y-58550830D01*
X229127781Y-58561866D01*
X229145024Y-58574654D01*
X229160930Y-58589070D01*
X229175346Y-58604976D01*
X229188134Y-58622219D01*
X229199170Y-58640632D01*
X229208349Y-58660038D01*
X229215581Y-58680250D01*
X229220797Y-58701074D01*
X229223947Y-58722309D01*
X229225000Y-58743750D01*
X229225000Y-59256250D01*
X229223947Y-59277691D01*
X229220797Y-59298926D01*
X229215581Y-59319750D01*
X229208349Y-59339962D01*
X229199170Y-59359368D01*
X229188134Y-59377781D01*
X229175346Y-59395024D01*
X229160930Y-59410930D01*
X229145024Y-59425346D01*
X229127781Y-59438134D01*
X229109368Y-59449170D01*
X229089962Y-59458349D01*
X229069750Y-59465581D01*
X229048926Y-59470797D01*
X229027691Y-59473947D01*
X229006250Y-59475000D01*
X228568750Y-59475000D01*
X228547309Y-59473947D01*
X228526074Y-59470797D01*
X228505250Y-59465581D01*
X228485038Y-59458349D01*
X228465632Y-59449170D01*
X228447219Y-59438134D01*
X228429976Y-59425346D01*
X228414070Y-59410930D01*
X228399654Y-59395024D01*
X228386866Y-59377781D01*
X228375830Y-59359368D01*
X228366651Y-59339962D01*
X228359419Y-59319750D01*
X228354203Y-59298926D01*
X228351053Y-59277691D01*
X228350000Y-59256250D01*
X228350000Y-58743750D01*
X228351053Y-58722309D01*
X228354203Y-58701074D01*
X228359419Y-58680250D01*
X228366651Y-58660038D01*
X228375830Y-58640632D01*
X228386866Y-58622219D01*
X228399654Y-58604976D01*
X228414070Y-58589070D01*
X228429976Y-58574654D01*
X228447219Y-58561866D01*
X228465632Y-58550830D01*
X228485038Y-58541651D01*
X228505250Y-58534419D01*
X228526074Y-58529203D01*
X228547309Y-58526053D01*
X228568750Y-58525000D01*
X229006250Y-58525000D01*
X229027691Y-58526053D01*
X229027691Y-58526053D01*
G37*
D13*
G04 #@! TD*
G04 #@! TO.P,D302,1*
G04 #@! TO.N,GND*
X228787500Y-59000000D03*
D11*
G04 #@! TO.N,Net-(D303-Pad2)*
G04 #@! TO.C,D303*
G36*
X227452691Y-63526053D02*
X227473926Y-63529203D01*
X227494750Y-63534419D01*
X227514962Y-63541651D01*
X227534368Y-63550830D01*
X227552781Y-63561866D01*
X227570024Y-63574654D01*
X227585930Y-63589070D01*
X227600346Y-63604976D01*
X227613134Y-63622219D01*
X227624170Y-63640632D01*
X227633349Y-63660038D01*
X227640581Y-63680250D01*
X227645797Y-63701074D01*
X227648947Y-63722309D01*
X227650000Y-63743750D01*
X227650000Y-64256250D01*
X227648947Y-64277691D01*
X227645797Y-64298926D01*
X227640581Y-64319750D01*
X227633349Y-64339962D01*
X227624170Y-64359368D01*
X227613134Y-64377781D01*
X227600346Y-64395024D01*
X227585930Y-64410930D01*
X227570024Y-64425346D01*
X227552781Y-64438134D01*
X227534368Y-64449170D01*
X227514962Y-64458349D01*
X227494750Y-64465581D01*
X227473926Y-64470797D01*
X227452691Y-64473947D01*
X227431250Y-64475000D01*
X226993750Y-64475000D01*
X226972309Y-64473947D01*
X226951074Y-64470797D01*
X226930250Y-64465581D01*
X226910038Y-64458349D01*
X226890632Y-64449170D01*
X226872219Y-64438134D01*
X226854976Y-64425346D01*
X226839070Y-64410930D01*
X226824654Y-64395024D01*
X226811866Y-64377781D01*
X226800830Y-64359368D01*
X226791651Y-64339962D01*
X226784419Y-64319750D01*
X226779203Y-64298926D01*
X226776053Y-64277691D01*
X226775000Y-64256250D01*
X226775000Y-63743750D01*
X226776053Y-63722309D01*
X226779203Y-63701074D01*
X226784419Y-63680250D01*
X226791651Y-63660038D01*
X226800830Y-63640632D01*
X226811866Y-63622219D01*
X226824654Y-63604976D01*
X226839070Y-63589070D01*
X226854976Y-63574654D01*
X226872219Y-63561866D01*
X226890632Y-63550830D01*
X226910038Y-63541651D01*
X226930250Y-63534419D01*
X226951074Y-63529203D01*
X226972309Y-63526053D01*
X226993750Y-63525000D01*
X227431250Y-63525000D01*
X227452691Y-63526053D01*
X227452691Y-63526053D01*
G37*
D13*
G04 #@! TD*
G04 #@! TO.P,D303,2*
G04 #@! TO.N,Net-(D303-Pad2)*
X227212500Y-64000000D03*
D11*
G04 #@! TO.N,GND*
G04 #@! TO.C,D303*
G36*
X229027691Y-63526053D02*
X229048926Y-63529203D01*
X229069750Y-63534419D01*
X229089962Y-63541651D01*
X229109368Y-63550830D01*
X229127781Y-63561866D01*
X229145024Y-63574654D01*
X229160930Y-63589070D01*
X229175346Y-63604976D01*
X229188134Y-63622219D01*
X229199170Y-63640632D01*
X229208349Y-63660038D01*
X229215581Y-63680250D01*
X229220797Y-63701074D01*
X229223947Y-63722309D01*
X229225000Y-63743750D01*
X229225000Y-64256250D01*
X229223947Y-64277691D01*
X229220797Y-64298926D01*
X229215581Y-64319750D01*
X229208349Y-64339962D01*
X229199170Y-64359368D01*
X229188134Y-64377781D01*
X229175346Y-64395024D01*
X229160930Y-64410930D01*
X229145024Y-64425346D01*
X229127781Y-64438134D01*
X229109368Y-64449170D01*
X229089962Y-64458349D01*
X229069750Y-64465581D01*
X229048926Y-64470797D01*
X229027691Y-64473947D01*
X229006250Y-64475000D01*
X228568750Y-64475000D01*
X228547309Y-64473947D01*
X228526074Y-64470797D01*
X228505250Y-64465581D01*
X228485038Y-64458349D01*
X228465632Y-64449170D01*
X228447219Y-64438134D01*
X228429976Y-64425346D01*
X228414070Y-64410930D01*
X228399654Y-64395024D01*
X228386866Y-64377781D01*
X228375830Y-64359368D01*
X228366651Y-64339962D01*
X228359419Y-64319750D01*
X228354203Y-64298926D01*
X228351053Y-64277691D01*
X228350000Y-64256250D01*
X228350000Y-63743750D01*
X228351053Y-63722309D01*
X228354203Y-63701074D01*
X228359419Y-63680250D01*
X228366651Y-63660038D01*
X228375830Y-63640632D01*
X228386866Y-63622219D01*
X228399654Y-63604976D01*
X228414070Y-63589070D01*
X228429976Y-63574654D01*
X228447219Y-63561866D01*
X228465632Y-63550830D01*
X228485038Y-63541651D01*
X228505250Y-63534419D01*
X228526074Y-63529203D01*
X228547309Y-63526053D01*
X228568750Y-63525000D01*
X229006250Y-63525000D01*
X229027691Y-63526053D01*
X229027691Y-63526053D01*
G37*
D13*
G04 #@! TD*
G04 #@! TO.P,D303,1*
G04 #@! TO.N,GND*
X228787500Y-64000000D03*
D11*
G04 #@! TO.N,Net-(D304-Pad2)*
G04 #@! TO.C,D304*
G36*
X227452691Y-68526053D02*
X227473926Y-68529203D01*
X227494750Y-68534419D01*
X227514962Y-68541651D01*
X227534368Y-68550830D01*
X227552781Y-68561866D01*
X227570024Y-68574654D01*
X227585930Y-68589070D01*
X227600346Y-68604976D01*
X227613134Y-68622219D01*
X227624170Y-68640632D01*
X227633349Y-68660038D01*
X227640581Y-68680250D01*
X227645797Y-68701074D01*
X227648947Y-68722309D01*
X227650000Y-68743750D01*
X227650000Y-69256250D01*
X227648947Y-69277691D01*
X227645797Y-69298926D01*
X227640581Y-69319750D01*
X227633349Y-69339962D01*
X227624170Y-69359368D01*
X227613134Y-69377781D01*
X227600346Y-69395024D01*
X227585930Y-69410930D01*
X227570024Y-69425346D01*
X227552781Y-69438134D01*
X227534368Y-69449170D01*
X227514962Y-69458349D01*
X227494750Y-69465581D01*
X227473926Y-69470797D01*
X227452691Y-69473947D01*
X227431250Y-69475000D01*
X226993750Y-69475000D01*
X226972309Y-69473947D01*
X226951074Y-69470797D01*
X226930250Y-69465581D01*
X226910038Y-69458349D01*
X226890632Y-69449170D01*
X226872219Y-69438134D01*
X226854976Y-69425346D01*
X226839070Y-69410930D01*
X226824654Y-69395024D01*
X226811866Y-69377781D01*
X226800830Y-69359368D01*
X226791651Y-69339962D01*
X226784419Y-69319750D01*
X226779203Y-69298926D01*
X226776053Y-69277691D01*
X226775000Y-69256250D01*
X226775000Y-68743750D01*
X226776053Y-68722309D01*
X226779203Y-68701074D01*
X226784419Y-68680250D01*
X226791651Y-68660038D01*
X226800830Y-68640632D01*
X226811866Y-68622219D01*
X226824654Y-68604976D01*
X226839070Y-68589070D01*
X226854976Y-68574654D01*
X226872219Y-68561866D01*
X226890632Y-68550830D01*
X226910038Y-68541651D01*
X226930250Y-68534419D01*
X226951074Y-68529203D01*
X226972309Y-68526053D01*
X226993750Y-68525000D01*
X227431250Y-68525000D01*
X227452691Y-68526053D01*
X227452691Y-68526053D01*
G37*
D13*
G04 #@! TD*
G04 #@! TO.P,D304,2*
G04 #@! TO.N,Net-(D304-Pad2)*
X227212500Y-69000000D03*
D11*
G04 #@! TO.N,GND*
G04 #@! TO.C,D304*
G36*
X229027691Y-68526053D02*
X229048926Y-68529203D01*
X229069750Y-68534419D01*
X229089962Y-68541651D01*
X229109368Y-68550830D01*
X229127781Y-68561866D01*
X229145024Y-68574654D01*
X229160930Y-68589070D01*
X229175346Y-68604976D01*
X229188134Y-68622219D01*
X229199170Y-68640632D01*
X229208349Y-68660038D01*
X229215581Y-68680250D01*
X229220797Y-68701074D01*
X229223947Y-68722309D01*
X229225000Y-68743750D01*
X229225000Y-69256250D01*
X229223947Y-69277691D01*
X229220797Y-69298926D01*
X229215581Y-69319750D01*
X229208349Y-69339962D01*
X229199170Y-69359368D01*
X229188134Y-69377781D01*
X229175346Y-69395024D01*
X229160930Y-69410930D01*
X229145024Y-69425346D01*
X229127781Y-69438134D01*
X229109368Y-69449170D01*
X229089962Y-69458349D01*
X229069750Y-69465581D01*
X229048926Y-69470797D01*
X229027691Y-69473947D01*
X229006250Y-69475000D01*
X228568750Y-69475000D01*
X228547309Y-69473947D01*
X228526074Y-69470797D01*
X228505250Y-69465581D01*
X228485038Y-69458349D01*
X228465632Y-69449170D01*
X228447219Y-69438134D01*
X228429976Y-69425346D01*
X228414070Y-69410930D01*
X228399654Y-69395024D01*
X228386866Y-69377781D01*
X228375830Y-69359368D01*
X228366651Y-69339962D01*
X228359419Y-69319750D01*
X228354203Y-69298926D01*
X228351053Y-69277691D01*
X228350000Y-69256250D01*
X228350000Y-68743750D01*
X228351053Y-68722309D01*
X228354203Y-68701074D01*
X228359419Y-68680250D01*
X228366651Y-68660038D01*
X228375830Y-68640632D01*
X228386866Y-68622219D01*
X228399654Y-68604976D01*
X228414070Y-68589070D01*
X228429976Y-68574654D01*
X228447219Y-68561866D01*
X228465632Y-68550830D01*
X228485038Y-68541651D01*
X228505250Y-68534419D01*
X228526074Y-68529203D01*
X228547309Y-68526053D01*
X228568750Y-68525000D01*
X229006250Y-68525000D01*
X229027691Y-68526053D01*
X229027691Y-68526053D01*
G37*
D13*
G04 #@! TD*
G04 #@! TO.P,D304,1*
G04 #@! TO.N,GND*
X228787500Y-69000000D03*
D11*
G04 #@! TO.N,Net-(D305-Pad2)*
G04 #@! TO.C,D305*
G36*
X227452691Y-73526053D02*
X227473926Y-73529203D01*
X227494750Y-73534419D01*
X227514962Y-73541651D01*
X227534368Y-73550830D01*
X227552781Y-73561866D01*
X227570024Y-73574654D01*
X227585930Y-73589070D01*
X227600346Y-73604976D01*
X227613134Y-73622219D01*
X227624170Y-73640632D01*
X227633349Y-73660038D01*
X227640581Y-73680250D01*
X227645797Y-73701074D01*
X227648947Y-73722309D01*
X227650000Y-73743750D01*
X227650000Y-74256250D01*
X227648947Y-74277691D01*
X227645797Y-74298926D01*
X227640581Y-74319750D01*
X227633349Y-74339962D01*
X227624170Y-74359368D01*
X227613134Y-74377781D01*
X227600346Y-74395024D01*
X227585930Y-74410930D01*
X227570024Y-74425346D01*
X227552781Y-74438134D01*
X227534368Y-74449170D01*
X227514962Y-74458349D01*
X227494750Y-74465581D01*
X227473926Y-74470797D01*
X227452691Y-74473947D01*
X227431250Y-74475000D01*
X226993750Y-74475000D01*
X226972309Y-74473947D01*
X226951074Y-74470797D01*
X226930250Y-74465581D01*
X226910038Y-74458349D01*
X226890632Y-74449170D01*
X226872219Y-74438134D01*
X226854976Y-74425346D01*
X226839070Y-74410930D01*
X226824654Y-74395024D01*
X226811866Y-74377781D01*
X226800830Y-74359368D01*
X226791651Y-74339962D01*
X226784419Y-74319750D01*
X226779203Y-74298926D01*
X226776053Y-74277691D01*
X226775000Y-74256250D01*
X226775000Y-73743750D01*
X226776053Y-73722309D01*
X226779203Y-73701074D01*
X226784419Y-73680250D01*
X226791651Y-73660038D01*
X226800830Y-73640632D01*
X226811866Y-73622219D01*
X226824654Y-73604976D01*
X226839070Y-73589070D01*
X226854976Y-73574654D01*
X226872219Y-73561866D01*
X226890632Y-73550830D01*
X226910038Y-73541651D01*
X226930250Y-73534419D01*
X226951074Y-73529203D01*
X226972309Y-73526053D01*
X226993750Y-73525000D01*
X227431250Y-73525000D01*
X227452691Y-73526053D01*
X227452691Y-73526053D01*
G37*
D13*
G04 #@! TD*
G04 #@! TO.P,D305,2*
G04 #@! TO.N,Net-(D305-Pad2)*
X227212500Y-74000000D03*
D11*
G04 #@! TO.N,GND*
G04 #@! TO.C,D305*
G36*
X229027691Y-73526053D02*
X229048926Y-73529203D01*
X229069750Y-73534419D01*
X229089962Y-73541651D01*
X229109368Y-73550830D01*
X229127781Y-73561866D01*
X229145024Y-73574654D01*
X229160930Y-73589070D01*
X229175346Y-73604976D01*
X229188134Y-73622219D01*
X229199170Y-73640632D01*
X229208349Y-73660038D01*
X229215581Y-73680250D01*
X229220797Y-73701074D01*
X229223947Y-73722309D01*
X229225000Y-73743750D01*
X229225000Y-74256250D01*
X229223947Y-74277691D01*
X229220797Y-74298926D01*
X229215581Y-74319750D01*
X229208349Y-74339962D01*
X229199170Y-74359368D01*
X229188134Y-74377781D01*
X229175346Y-74395024D01*
X229160930Y-74410930D01*
X229145024Y-74425346D01*
X229127781Y-74438134D01*
X229109368Y-74449170D01*
X229089962Y-74458349D01*
X229069750Y-74465581D01*
X229048926Y-74470797D01*
X229027691Y-74473947D01*
X229006250Y-74475000D01*
X228568750Y-74475000D01*
X228547309Y-74473947D01*
X228526074Y-74470797D01*
X228505250Y-74465581D01*
X228485038Y-74458349D01*
X228465632Y-74449170D01*
X228447219Y-74438134D01*
X228429976Y-74425346D01*
X228414070Y-74410930D01*
X228399654Y-74395024D01*
X228386866Y-74377781D01*
X228375830Y-74359368D01*
X228366651Y-74339962D01*
X228359419Y-74319750D01*
X228354203Y-74298926D01*
X228351053Y-74277691D01*
X228350000Y-74256250D01*
X228350000Y-73743750D01*
X228351053Y-73722309D01*
X228354203Y-73701074D01*
X228359419Y-73680250D01*
X228366651Y-73660038D01*
X228375830Y-73640632D01*
X228386866Y-73622219D01*
X228399654Y-73604976D01*
X228414070Y-73589070D01*
X228429976Y-73574654D01*
X228447219Y-73561866D01*
X228465632Y-73550830D01*
X228485038Y-73541651D01*
X228505250Y-73534419D01*
X228526074Y-73529203D01*
X228547309Y-73526053D01*
X228568750Y-73525000D01*
X229006250Y-73525000D01*
X229027691Y-73526053D01*
X229027691Y-73526053D01*
G37*
D13*
G04 #@! TD*
G04 #@! TO.P,D305,1*
G04 #@! TO.N,GND*
X228787500Y-74000000D03*
D11*
G04 #@! TO.N,Net-(D306-Pad2)*
G04 #@! TO.C,D306*
G36*
X227452691Y-78526053D02*
X227473926Y-78529203D01*
X227494750Y-78534419D01*
X227514962Y-78541651D01*
X227534368Y-78550830D01*
X227552781Y-78561866D01*
X227570024Y-78574654D01*
X227585930Y-78589070D01*
X227600346Y-78604976D01*
X227613134Y-78622219D01*
X227624170Y-78640632D01*
X227633349Y-78660038D01*
X227640581Y-78680250D01*
X227645797Y-78701074D01*
X227648947Y-78722309D01*
X227650000Y-78743750D01*
X227650000Y-79256250D01*
X227648947Y-79277691D01*
X227645797Y-79298926D01*
X227640581Y-79319750D01*
X227633349Y-79339962D01*
X227624170Y-79359368D01*
X227613134Y-79377781D01*
X227600346Y-79395024D01*
X227585930Y-79410930D01*
X227570024Y-79425346D01*
X227552781Y-79438134D01*
X227534368Y-79449170D01*
X227514962Y-79458349D01*
X227494750Y-79465581D01*
X227473926Y-79470797D01*
X227452691Y-79473947D01*
X227431250Y-79475000D01*
X226993750Y-79475000D01*
X226972309Y-79473947D01*
X226951074Y-79470797D01*
X226930250Y-79465581D01*
X226910038Y-79458349D01*
X226890632Y-79449170D01*
X226872219Y-79438134D01*
X226854976Y-79425346D01*
X226839070Y-79410930D01*
X226824654Y-79395024D01*
X226811866Y-79377781D01*
X226800830Y-79359368D01*
X226791651Y-79339962D01*
X226784419Y-79319750D01*
X226779203Y-79298926D01*
X226776053Y-79277691D01*
X226775000Y-79256250D01*
X226775000Y-78743750D01*
X226776053Y-78722309D01*
X226779203Y-78701074D01*
X226784419Y-78680250D01*
X226791651Y-78660038D01*
X226800830Y-78640632D01*
X226811866Y-78622219D01*
X226824654Y-78604976D01*
X226839070Y-78589070D01*
X226854976Y-78574654D01*
X226872219Y-78561866D01*
X226890632Y-78550830D01*
X226910038Y-78541651D01*
X226930250Y-78534419D01*
X226951074Y-78529203D01*
X226972309Y-78526053D01*
X226993750Y-78525000D01*
X227431250Y-78525000D01*
X227452691Y-78526053D01*
X227452691Y-78526053D01*
G37*
D13*
G04 #@! TD*
G04 #@! TO.P,D306,2*
G04 #@! TO.N,Net-(D306-Pad2)*
X227212500Y-79000000D03*
D11*
G04 #@! TO.N,GND*
G04 #@! TO.C,D306*
G36*
X229027691Y-78526053D02*
X229048926Y-78529203D01*
X229069750Y-78534419D01*
X229089962Y-78541651D01*
X229109368Y-78550830D01*
X229127781Y-78561866D01*
X229145024Y-78574654D01*
X229160930Y-78589070D01*
X229175346Y-78604976D01*
X229188134Y-78622219D01*
X229199170Y-78640632D01*
X229208349Y-78660038D01*
X229215581Y-78680250D01*
X229220797Y-78701074D01*
X229223947Y-78722309D01*
X229225000Y-78743750D01*
X229225000Y-79256250D01*
X229223947Y-79277691D01*
X229220797Y-79298926D01*
X229215581Y-79319750D01*
X229208349Y-79339962D01*
X229199170Y-79359368D01*
X229188134Y-79377781D01*
X229175346Y-79395024D01*
X229160930Y-79410930D01*
X229145024Y-79425346D01*
X229127781Y-79438134D01*
X229109368Y-79449170D01*
X229089962Y-79458349D01*
X229069750Y-79465581D01*
X229048926Y-79470797D01*
X229027691Y-79473947D01*
X229006250Y-79475000D01*
X228568750Y-79475000D01*
X228547309Y-79473947D01*
X228526074Y-79470797D01*
X228505250Y-79465581D01*
X228485038Y-79458349D01*
X228465632Y-79449170D01*
X228447219Y-79438134D01*
X228429976Y-79425346D01*
X228414070Y-79410930D01*
X228399654Y-79395024D01*
X228386866Y-79377781D01*
X228375830Y-79359368D01*
X228366651Y-79339962D01*
X228359419Y-79319750D01*
X228354203Y-79298926D01*
X228351053Y-79277691D01*
X228350000Y-79256250D01*
X228350000Y-78743750D01*
X228351053Y-78722309D01*
X228354203Y-78701074D01*
X228359419Y-78680250D01*
X228366651Y-78660038D01*
X228375830Y-78640632D01*
X228386866Y-78622219D01*
X228399654Y-78604976D01*
X228414070Y-78589070D01*
X228429976Y-78574654D01*
X228447219Y-78561866D01*
X228465632Y-78550830D01*
X228485038Y-78541651D01*
X228505250Y-78534419D01*
X228526074Y-78529203D01*
X228547309Y-78526053D01*
X228568750Y-78525000D01*
X229006250Y-78525000D01*
X229027691Y-78526053D01*
X229027691Y-78526053D01*
G37*
D13*
G04 #@! TD*
G04 #@! TO.P,D306,1*
G04 #@! TO.N,GND*
X228787500Y-79000000D03*
D11*
G04 #@! TO.N,Net-(D307-Pad2)*
G04 #@! TO.C,D307*
G36*
X227452691Y-83526053D02*
X227473926Y-83529203D01*
X227494750Y-83534419D01*
X227514962Y-83541651D01*
X227534368Y-83550830D01*
X227552781Y-83561866D01*
X227570024Y-83574654D01*
X227585930Y-83589070D01*
X227600346Y-83604976D01*
X227613134Y-83622219D01*
X227624170Y-83640632D01*
X227633349Y-83660038D01*
X227640581Y-83680250D01*
X227645797Y-83701074D01*
X227648947Y-83722309D01*
X227650000Y-83743750D01*
X227650000Y-84256250D01*
X227648947Y-84277691D01*
X227645797Y-84298926D01*
X227640581Y-84319750D01*
X227633349Y-84339962D01*
X227624170Y-84359368D01*
X227613134Y-84377781D01*
X227600346Y-84395024D01*
X227585930Y-84410930D01*
X227570024Y-84425346D01*
X227552781Y-84438134D01*
X227534368Y-84449170D01*
X227514962Y-84458349D01*
X227494750Y-84465581D01*
X227473926Y-84470797D01*
X227452691Y-84473947D01*
X227431250Y-84475000D01*
X226993750Y-84475000D01*
X226972309Y-84473947D01*
X226951074Y-84470797D01*
X226930250Y-84465581D01*
X226910038Y-84458349D01*
X226890632Y-84449170D01*
X226872219Y-84438134D01*
X226854976Y-84425346D01*
X226839070Y-84410930D01*
X226824654Y-84395024D01*
X226811866Y-84377781D01*
X226800830Y-84359368D01*
X226791651Y-84339962D01*
X226784419Y-84319750D01*
X226779203Y-84298926D01*
X226776053Y-84277691D01*
X226775000Y-84256250D01*
X226775000Y-83743750D01*
X226776053Y-83722309D01*
X226779203Y-83701074D01*
X226784419Y-83680250D01*
X226791651Y-83660038D01*
X226800830Y-83640632D01*
X226811866Y-83622219D01*
X226824654Y-83604976D01*
X226839070Y-83589070D01*
X226854976Y-83574654D01*
X226872219Y-83561866D01*
X226890632Y-83550830D01*
X226910038Y-83541651D01*
X226930250Y-83534419D01*
X226951074Y-83529203D01*
X226972309Y-83526053D01*
X226993750Y-83525000D01*
X227431250Y-83525000D01*
X227452691Y-83526053D01*
X227452691Y-83526053D01*
G37*
D13*
G04 #@! TD*
G04 #@! TO.P,D307,2*
G04 #@! TO.N,Net-(D307-Pad2)*
X227212500Y-84000000D03*
D11*
G04 #@! TO.N,GND*
G04 #@! TO.C,D307*
G36*
X229027691Y-83526053D02*
X229048926Y-83529203D01*
X229069750Y-83534419D01*
X229089962Y-83541651D01*
X229109368Y-83550830D01*
X229127781Y-83561866D01*
X229145024Y-83574654D01*
X229160930Y-83589070D01*
X229175346Y-83604976D01*
X229188134Y-83622219D01*
X229199170Y-83640632D01*
X229208349Y-83660038D01*
X229215581Y-83680250D01*
X229220797Y-83701074D01*
X229223947Y-83722309D01*
X229225000Y-83743750D01*
X229225000Y-84256250D01*
X229223947Y-84277691D01*
X229220797Y-84298926D01*
X229215581Y-84319750D01*
X229208349Y-84339962D01*
X229199170Y-84359368D01*
X229188134Y-84377781D01*
X229175346Y-84395024D01*
X229160930Y-84410930D01*
X229145024Y-84425346D01*
X229127781Y-84438134D01*
X229109368Y-84449170D01*
X229089962Y-84458349D01*
X229069750Y-84465581D01*
X229048926Y-84470797D01*
X229027691Y-84473947D01*
X229006250Y-84475000D01*
X228568750Y-84475000D01*
X228547309Y-84473947D01*
X228526074Y-84470797D01*
X228505250Y-84465581D01*
X228485038Y-84458349D01*
X228465632Y-84449170D01*
X228447219Y-84438134D01*
X228429976Y-84425346D01*
X228414070Y-84410930D01*
X228399654Y-84395024D01*
X228386866Y-84377781D01*
X228375830Y-84359368D01*
X228366651Y-84339962D01*
X228359419Y-84319750D01*
X228354203Y-84298926D01*
X228351053Y-84277691D01*
X228350000Y-84256250D01*
X228350000Y-83743750D01*
X228351053Y-83722309D01*
X228354203Y-83701074D01*
X228359419Y-83680250D01*
X228366651Y-83660038D01*
X228375830Y-83640632D01*
X228386866Y-83622219D01*
X228399654Y-83604976D01*
X228414070Y-83589070D01*
X228429976Y-83574654D01*
X228447219Y-83561866D01*
X228465632Y-83550830D01*
X228485038Y-83541651D01*
X228505250Y-83534419D01*
X228526074Y-83529203D01*
X228547309Y-83526053D01*
X228568750Y-83525000D01*
X229006250Y-83525000D01*
X229027691Y-83526053D01*
X229027691Y-83526053D01*
G37*
D13*
G04 #@! TD*
G04 #@! TO.P,D307,1*
G04 #@! TO.N,GND*
X228787500Y-84000000D03*
D11*
G04 #@! TO.N,Net-(D308-Pad2)*
G04 #@! TO.C,D308*
G36*
X227452691Y-88526053D02*
X227473926Y-88529203D01*
X227494750Y-88534419D01*
X227514962Y-88541651D01*
X227534368Y-88550830D01*
X227552781Y-88561866D01*
X227570024Y-88574654D01*
X227585930Y-88589070D01*
X227600346Y-88604976D01*
X227613134Y-88622219D01*
X227624170Y-88640632D01*
X227633349Y-88660038D01*
X227640581Y-88680250D01*
X227645797Y-88701074D01*
X227648947Y-88722309D01*
X227650000Y-88743750D01*
X227650000Y-89256250D01*
X227648947Y-89277691D01*
X227645797Y-89298926D01*
X227640581Y-89319750D01*
X227633349Y-89339962D01*
X227624170Y-89359368D01*
X227613134Y-89377781D01*
X227600346Y-89395024D01*
X227585930Y-89410930D01*
X227570024Y-89425346D01*
X227552781Y-89438134D01*
X227534368Y-89449170D01*
X227514962Y-89458349D01*
X227494750Y-89465581D01*
X227473926Y-89470797D01*
X227452691Y-89473947D01*
X227431250Y-89475000D01*
X226993750Y-89475000D01*
X226972309Y-89473947D01*
X226951074Y-89470797D01*
X226930250Y-89465581D01*
X226910038Y-89458349D01*
X226890632Y-89449170D01*
X226872219Y-89438134D01*
X226854976Y-89425346D01*
X226839070Y-89410930D01*
X226824654Y-89395024D01*
X226811866Y-89377781D01*
X226800830Y-89359368D01*
X226791651Y-89339962D01*
X226784419Y-89319750D01*
X226779203Y-89298926D01*
X226776053Y-89277691D01*
X226775000Y-89256250D01*
X226775000Y-88743750D01*
X226776053Y-88722309D01*
X226779203Y-88701074D01*
X226784419Y-88680250D01*
X226791651Y-88660038D01*
X226800830Y-88640632D01*
X226811866Y-88622219D01*
X226824654Y-88604976D01*
X226839070Y-88589070D01*
X226854976Y-88574654D01*
X226872219Y-88561866D01*
X226890632Y-88550830D01*
X226910038Y-88541651D01*
X226930250Y-88534419D01*
X226951074Y-88529203D01*
X226972309Y-88526053D01*
X226993750Y-88525000D01*
X227431250Y-88525000D01*
X227452691Y-88526053D01*
X227452691Y-88526053D01*
G37*
D13*
G04 #@! TD*
G04 #@! TO.P,D308,2*
G04 #@! TO.N,Net-(D308-Pad2)*
X227212500Y-89000000D03*
D11*
G04 #@! TO.N,GND*
G04 #@! TO.C,D308*
G36*
X229027691Y-88526053D02*
X229048926Y-88529203D01*
X229069750Y-88534419D01*
X229089962Y-88541651D01*
X229109368Y-88550830D01*
X229127781Y-88561866D01*
X229145024Y-88574654D01*
X229160930Y-88589070D01*
X229175346Y-88604976D01*
X229188134Y-88622219D01*
X229199170Y-88640632D01*
X229208349Y-88660038D01*
X229215581Y-88680250D01*
X229220797Y-88701074D01*
X229223947Y-88722309D01*
X229225000Y-88743750D01*
X229225000Y-89256250D01*
X229223947Y-89277691D01*
X229220797Y-89298926D01*
X229215581Y-89319750D01*
X229208349Y-89339962D01*
X229199170Y-89359368D01*
X229188134Y-89377781D01*
X229175346Y-89395024D01*
X229160930Y-89410930D01*
X229145024Y-89425346D01*
X229127781Y-89438134D01*
X229109368Y-89449170D01*
X229089962Y-89458349D01*
X229069750Y-89465581D01*
X229048926Y-89470797D01*
X229027691Y-89473947D01*
X229006250Y-89475000D01*
X228568750Y-89475000D01*
X228547309Y-89473947D01*
X228526074Y-89470797D01*
X228505250Y-89465581D01*
X228485038Y-89458349D01*
X228465632Y-89449170D01*
X228447219Y-89438134D01*
X228429976Y-89425346D01*
X228414070Y-89410930D01*
X228399654Y-89395024D01*
X228386866Y-89377781D01*
X228375830Y-89359368D01*
X228366651Y-89339962D01*
X228359419Y-89319750D01*
X228354203Y-89298926D01*
X228351053Y-89277691D01*
X228350000Y-89256250D01*
X228350000Y-88743750D01*
X228351053Y-88722309D01*
X228354203Y-88701074D01*
X228359419Y-88680250D01*
X228366651Y-88660038D01*
X228375830Y-88640632D01*
X228386866Y-88622219D01*
X228399654Y-88604976D01*
X228414070Y-88589070D01*
X228429976Y-88574654D01*
X228447219Y-88561866D01*
X228465632Y-88550830D01*
X228485038Y-88541651D01*
X228505250Y-88534419D01*
X228526074Y-88529203D01*
X228547309Y-88526053D01*
X228568750Y-88525000D01*
X229006250Y-88525000D01*
X229027691Y-88526053D01*
X229027691Y-88526053D01*
G37*
D13*
G04 #@! TD*
G04 #@! TO.P,D308,1*
G04 #@! TO.N,GND*
X228787500Y-89000000D03*
D11*
G04 #@! TO.N,Net-(D309-Pad2)*
G04 #@! TO.C,D309*
G36*
X227452691Y-93526053D02*
X227473926Y-93529203D01*
X227494750Y-93534419D01*
X227514962Y-93541651D01*
X227534368Y-93550830D01*
X227552781Y-93561866D01*
X227570024Y-93574654D01*
X227585930Y-93589070D01*
X227600346Y-93604976D01*
X227613134Y-93622219D01*
X227624170Y-93640632D01*
X227633349Y-93660038D01*
X227640581Y-93680250D01*
X227645797Y-93701074D01*
X227648947Y-93722309D01*
X227650000Y-93743750D01*
X227650000Y-94256250D01*
X227648947Y-94277691D01*
X227645797Y-94298926D01*
X227640581Y-94319750D01*
X227633349Y-94339962D01*
X227624170Y-94359368D01*
X227613134Y-94377781D01*
X227600346Y-94395024D01*
X227585930Y-94410930D01*
X227570024Y-94425346D01*
X227552781Y-94438134D01*
X227534368Y-94449170D01*
X227514962Y-94458349D01*
X227494750Y-94465581D01*
X227473926Y-94470797D01*
X227452691Y-94473947D01*
X227431250Y-94475000D01*
X226993750Y-94475000D01*
X226972309Y-94473947D01*
X226951074Y-94470797D01*
X226930250Y-94465581D01*
X226910038Y-94458349D01*
X226890632Y-94449170D01*
X226872219Y-94438134D01*
X226854976Y-94425346D01*
X226839070Y-94410930D01*
X226824654Y-94395024D01*
X226811866Y-94377781D01*
X226800830Y-94359368D01*
X226791651Y-94339962D01*
X226784419Y-94319750D01*
X226779203Y-94298926D01*
X226776053Y-94277691D01*
X226775000Y-94256250D01*
X226775000Y-93743750D01*
X226776053Y-93722309D01*
X226779203Y-93701074D01*
X226784419Y-93680250D01*
X226791651Y-93660038D01*
X226800830Y-93640632D01*
X226811866Y-93622219D01*
X226824654Y-93604976D01*
X226839070Y-93589070D01*
X226854976Y-93574654D01*
X226872219Y-93561866D01*
X226890632Y-93550830D01*
X226910038Y-93541651D01*
X226930250Y-93534419D01*
X226951074Y-93529203D01*
X226972309Y-93526053D01*
X226993750Y-93525000D01*
X227431250Y-93525000D01*
X227452691Y-93526053D01*
X227452691Y-93526053D01*
G37*
D13*
G04 #@! TD*
G04 #@! TO.P,D309,2*
G04 #@! TO.N,Net-(D309-Pad2)*
X227212500Y-94000000D03*
D11*
G04 #@! TO.N,GND*
G04 #@! TO.C,D309*
G36*
X229027691Y-93526053D02*
X229048926Y-93529203D01*
X229069750Y-93534419D01*
X229089962Y-93541651D01*
X229109368Y-93550830D01*
X229127781Y-93561866D01*
X229145024Y-93574654D01*
X229160930Y-93589070D01*
X229175346Y-93604976D01*
X229188134Y-93622219D01*
X229199170Y-93640632D01*
X229208349Y-93660038D01*
X229215581Y-93680250D01*
X229220797Y-93701074D01*
X229223947Y-93722309D01*
X229225000Y-93743750D01*
X229225000Y-94256250D01*
X229223947Y-94277691D01*
X229220797Y-94298926D01*
X229215581Y-94319750D01*
X229208349Y-94339962D01*
X229199170Y-94359368D01*
X229188134Y-94377781D01*
X229175346Y-94395024D01*
X229160930Y-94410930D01*
X229145024Y-94425346D01*
X229127781Y-94438134D01*
X229109368Y-94449170D01*
X229089962Y-94458349D01*
X229069750Y-94465581D01*
X229048926Y-94470797D01*
X229027691Y-94473947D01*
X229006250Y-94475000D01*
X228568750Y-94475000D01*
X228547309Y-94473947D01*
X228526074Y-94470797D01*
X228505250Y-94465581D01*
X228485038Y-94458349D01*
X228465632Y-94449170D01*
X228447219Y-94438134D01*
X228429976Y-94425346D01*
X228414070Y-94410930D01*
X228399654Y-94395024D01*
X228386866Y-94377781D01*
X228375830Y-94359368D01*
X228366651Y-94339962D01*
X228359419Y-94319750D01*
X228354203Y-94298926D01*
X228351053Y-94277691D01*
X228350000Y-94256250D01*
X228350000Y-93743750D01*
X228351053Y-93722309D01*
X228354203Y-93701074D01*
X228359419Y-93680250D01*
X228366651Y-93660038D01*
X228375830Y-93640632D01*
X228386866Y-93622219D01*
X228399654Y-93604976D01*
X228414070Y-93589070D01*
X228429976Y-93574654D01*
X228447219Y-93561866D01*
X228465632Y-93550830D01*
X228485038Y-93541651D01*
X228505250Y-93534419D01*
X228526074Y-93529203D01*
X228547309Y-93526053D01*
X228568750Y-93525000D01*
X229006250Y-93525000D01*
X229027691Y-93526053D01*
X229027691Y-93526053D01*
G37*
D13*
G04 #@! TD*
G04 #@! TO.P,D309,1*
G04 #@! TO.N,GND*
X228787500Y-94000000D03*
D14*
G04 #@! TO.P,ICSP1,6*
G04 #@! TO.N,GND*
X189040000Y-120080000D03*
G04 #@! TO.P,ICSP1,5*
G04 #@! TO.N,/RESET*
X186500000Y-120080000D03*
G04 #@! TO.P,ICSP1,4*
G04 #@! TO.N,/MOSI*
X189040000Y-117540000D03*
G04 #@! TO.P,ICSP1,3*
G04 #@! TO.N,/SCK*
X186500000Y-117540000D03*
G04 #@! TO.P,ICSP1,2*
G04 #@! TO.N,+3V3*
X189040000Y-115000000D03*
D15*
G04 #@! TO.P,ICSP1,1*
G04 #@! TO.N,/MISO*
X186500000Y-115000000D03*
G04 #@! TD*
D16*
G04 #@! TO.P,U401,16*
G04 #@! TO.N,N/C*
X184575002Y-131908801D03*
G04 #@! TO.P,U401,15*
X185075001Y-131908801D03*
G04 #@! TO.P,U401,14*
G04 #@! TO.N,+3V3*
X185575000Y-131908801D03*
D17*
G04 #@! TO.P,U401,13*
G04 #@! TO.N,N/C*
X186421201Y-132255000D03*
G04 #@! TO.P,U401,12*
G04 #@! TO.N,GND*
X186421201Y-132755002D03*
G04 #@! TO.P,U401,11*
G04 #@! TO.N,N/C*
X186421201Y-133255001D03*
G04 #@! TO.P,U401,10*
G04 #@! TO.N,GND*
X186421201Y-133755000D03*
G04 #@! TO.P,U401,9*
G04 #@! TO.N,N/C*
X186421201Y-134255002D03*
D16*
G04 #@! TO.P,U401,8*
G04 #@! TO.N,+3V3*
X185575000Y-134601201D03*
G04 #@! TO.P,U401,7*
G04 #@! TO.N,GND*
X185075001Y-134601201D03*
G04 #@! TO.P,U401,6*
G04 #@! TO.N,/SDA*
X184575002Y-134601201D03*
D17*
G04 #@! TO.P,U401,5*
G04 #@! TO.N,GND*
X183728801Y-134255002D03*
G04 #@! TO.P,U401,4*
G04 #@! TO.N,/SCL*
X183728801Y-133755000D03*
G04 #@! TO.P,U401,3*
G04 #@! TO.N,N/C*
X183728801Y-133255001D03*
G04 #@! TO.P,U401,2*
X183728801Y-132755002D03*
G04 #@! TO.P,U401,1*
G04 #@! TO.N,+3V3*
X183728801Y-132255000D03*
G04 #@! TD*
D18*
G04 #@! TO.P,C403,1*
G04 #@! TO.N,+BATT*
X221500000Y-109750000D03*
G04 #@! TO.P,C403,2*
G04 #@! TO.N,GND*
X221500000Y-111250000D03*
G04 #@! TD*
G04 #@! TO.P,C404,2*
G04 #@! TO.N,GND*
X227500000Y-111250000D03*
G04 #@! TO.P,C404,1*
G04 #@! TO.N,+3V3*
X227500000Y-109750000D03*
G04 #@! TD*
D19*
G04 #@! TO.P,L401,2*
G04 #@! TO.N,+BATT*
X219500000Y-109750000D03*
G04 #@! TO.P,L401,1*
G04 #@! TO.N,Net-(L401-Pad1)*
X219500000Y-111250000D03*
G04 #@! TD*
D20*
G04 #@! TO.P,R201,2*
G04 #@! TO.N,Net-(D301-Pad2)*
X225250000Y-54000000D03*
G04 #@! TO.P,R201,1*
G04 #@! TO.N,/LED_0*
X223750000Y-54000000D03*
G04 #@! TD*
G04 #@! TO.P,R202,1*
G04 #@! TO.N,/LED_1*
X223750000Y-59000000D03*
G04 #@! TO.P,R202,2*
G04 #@! TO.N,Net-(D302-Pad2)*
X225250000Y-59000000D03*
G04 #@! TD*
G04 #@! TO.P,R203,2*
G04 #@! TO.N,Net-(D303-Pad2)*
X225250000Y-64000000D03*
G04 #@! TO.P,R203,1*
G04 #@! TO.N,/LED_2*
X223750000Y-64000000D03*
G04 #@! TD*
G04 #@! TO.P,R204,1*
G04 #@! TO.N,/LED_3*
X223750000Y-69000000D03*
G04 #@! TO.P,R204,2*
G04 #@! TO.N,Net-(D304-Pad2)*
X225250000Y-69000000D03*
G04 #@! TD*
G04 #@! TO.P,R205,2*
G04 #@! TO.N,Net-(D305-Pad2)*
X225250000Y-74000000D03*
G04 #@! TO.P,R205,1*
G04 #@! TO.N,/LED_4*
X223750000Y-74000000D03*
G04 #@! TD*
G04 #@! TO.P,R206,1*
G04 #@! TO.N,/LED_5*
X223750000Y-79000000D03*
G04 #@! TO.P,R206,2*
G04 #@! TO.N,Net-(D306-Pad2)*
X225250000Y-79000000D03*
G04 #@! TD*
G04 #@! TO.P,R207,2*
G04 #@! TO.N,Net-(D307-Pad2)*
X225250000Y-84000000D03*
G04 #@! TO.P,R207,1*
G04 #@! TO.N,/LED_6*
X223750000Y-84000000D03*
G04 #@! TD*
G04 #@! TO.P,R208,1*
G04 #@! TO.N,/LED_7*
X223750000Y-89000000D03*
G04 #@! TO.P,R208,2*
G04 #@! TO.N,Net-(D308-Pad2)*
X225250000Y-89000000D03*
G04 #@! TD*
G04 #@! TO.P,R209,1*
G04 #@! TO.N,/LED_8*
X223750000Y-94000000D03*
G04 #@! TO.P,R209,2*
G04 #@! TO.N,Net-(D309-Pad2)*
X225250000Y-94000000D03*
G04 #@! TD*
G04 #@! TO.P,R401,2*
G04 #@! TO.N,Net-(R401-Pad2)*
X225750000Y-107500000D03*
G04 #@! TO.P,R401,1*
G04 #@! TO.N,+3V3*
X227250000Y-107500000D03*
G04 #@! TD*
G04 #@! TO.P,R402,1*
G04 #@! TO.N,Net-(R401-Pad2)*
X224750000Y-107500000D03*
G04 #@! TO.P,R402,2*
G04 #@! TO.N,GND*
X223250000Y-107500000D03*
G04 #@! TD*
D21*
G04 #@! TO.P,U101,33*
G04 #@! TO.N,GND*
X204280241Y-75000000D03*
D11*
G04 #@! TD*
G04 #@! TO.N,GND*
G04 #@! TO.C,U101*
G36*
X204280241Y-76219759D02*
X203060482Y-75000000D01*
X204280241Y-73780241D01*
X205500000Y-75000000D01*
X204280241Y-76219759D01*
X204280241Y-76219759D01*
G37*
D21*
G04 #@! TO.P,U101,33*
G04 #@! TO.N,GND*
X205500000Y-76219759D03*
D11*
G04 #@! TD*
G04 #@! TO.N,GND*
G04 #@! TO.C,U101*
G36*
X205500000Y-77439518D02*
X204280241Y-76219759D01*
X205500000Y-75000000D01*
X206719759Y-76219759D01*
X205500000Y-77439518D01*
X205500000Y-77439518D01*
G37*
D21*
G04 #@! TO.P,U101,33*
G04 #@! TO.N,GND*
X205500000Y-73780241D03*
D11*
G04 #@! TD*
G04 #@! TO.N,GND*
G04 #@! TO.C,U101*
G36*
X205500000Y-75000000D02*
X204280241Y-73780241D01*
X205500000Y-72560482D01*
X206719759Y-73780241D01*
X205500000Y-75000000D01*
X205500000Y-75000000D01*
G37*
D21*
G04 #@! TO.P,U101,33*
G04 #@! TO.N,GND*
X206719759Y-75000000D03*
D11*
G04 #@! TD*
G04 #@! TO.N,GND*
G04 #@! TO.C,U101*
G36*
X206719759Y-76219759D02*
X205500000Y-75000000D01*
X206719759Y-73780241D01*
X207939518Y-75000000D01*
X206719759Y-76219759D01*
X206719759Y-76219759D01*
G37*
D22*
G04 #@! TO.P,U101,32*
G04 #@! TO.N,/SCK*
X202565507Y-74540381D03*
D11*
G04 #@! TD*
G04 #@! TO.N,/SCK*
G04 #@! TO.C,U101*
G36*
X202901383Y-74699480D02*
X202724606Y-74876257D01*
X202229631Y-74381282D01*
X202406408Y-74204505D01*
X202901383Y-74699480D01*
X202901383Y-74699480D01*
G37*
D22*
G04 #@! TO.P,U101,31*
G04 #@! TO.N,/MISO*
X202919060Y-74186827D03*
D11*
G04 #@! TD*
G04 #@! TO.N,/MISO*
G04 #@! TO.C,U101*
G36*
X203254936Y-74345926D02*
X203078159Y-74522703D01*
X202583184Y-74027728D01*
X202759961Y-73850951D01*
X203254936Y-74345926D01*
X203254936Y-74345926D01*
G37*
D22*
G04 #@! TO.P,U101,30*
G04 #@! TO.N,/MOSI*
X203272614Y-73833274D03*
D11*
G04 #@! TD*
G04 #@! TO.N,/MOSI*
G04 #@! TO.C,U101*
G36*
X203608490Y-73992373D02*
X203431713Y-74169150D01*
X202936738Y-73674175D01*
X203113515Y-73497398D01*
X203608490Y-73992373D01*
X203608490Y-73992373D01*
G37*
D22*
G04 #@! TO.P,U101,29*
G04 #@! TO.N,N/C*
X203626167Y-73479720D03*
D11*
G04 #@! TD*
G04 #@! TO.N,N/C*
G04 #@! TO.C,U101*
G36*
X203962043Y-73638819D02*
X203785266Y-73815596D01*
X203290291Y-73320621D01*
X203467068Y-73143844D01*
X203962043Y-73638819D01*
X203962043Y-73638819D01*
G37*
D22*
G04 #@! TO.P,U101,28*
G04 #@! TO.N,N/C*
X203979720Y-73126167D03*
D11*
G04 #@! TD*
G04 #@! TO.N,N/C*
G04 #@! TO.C,U101*
G36*
X204315596Y-73285266D02*
X204138819Y-73462043D01*
X203643844Y-72967068D01*
X203820621Y-72790291D01*
X204315596Y-73285266D01*
X204315596Y-73285266D01*
G37*
D22*
G04 #@! TO.P,U101,27*
G04 #@! TO.N,N/C*
X204333274Y-72772614D03*
D11*
G04 #@! TD*
G04 #@! TO.N,N/C*
G04 #@! TO.C,U101*
G36*
X204669150Y-72931713D02*
X204492373Y-73108490D01*
X203997398Y-72613515D01*
X204174175Y-72436738D01*
X204669150Y-72931713D01*
X204669150Y-72931713D01*
G37*
D22*
G04 #@! TO.P,U101,26*
G04 #@! TO.N,/SDA*
X204686827Y-72419060D03*
D11*
G04 #@! TD*
G04 #@! TO.N,/SDA*
G04 #@! TO.C,U101*
G36*
X205022703Y-72578159D02*
X204845926Y-72754936D01*
X204350951Y-72259961D01*
X204527728Y-72083184D01*
X205022703Y-72578159D01*
X205022703Y-72578159D01*
G37*
D22*
G04 #@! TO.P,U101,25*
G04 #@! TO.N,/TOUCH*
X205040381Y-72065507D03*
D11*
G04 #@! TD*
G04 #@! TO.N,/TOUCH*
G04 #@! TO.C,U101*
G36*
X205376257Y-72224606D02*
X205199480Y-72401383D01*
X204704505Y-71906408D01*
X204881282Y-71729631D01*
X205376257Y-72224606D01*
X205376257Y-72224606D01*
G37*
D22*
G04 #@! TO.P,U101,24*
G04 #@! TO.N,N/C*
X205959619Y-72065507D03*
D11*
G04 #@! TD*
G04 #@! TO.N,N/C*
G04 #@! TO.C,U101*
G36*
X205800520Y-72401383D02*
X205623743Y-72224606D01*
X206118718Y-71729631D01*
X206295495Y-71906408D01*
X205800520Y-72401383D01*
X205800520Y-72401383D01*
G37*
D22*
G04 #@! TO.P,U101,23*
G04 #@! TO.N,/SCL*
X206313173Y-72419060D03*
D11*
G04 #@! TD*
G04 #@! TO.N,/SCL*
G04 #@! TO.C,U101*
G36*
X206154074Y-72754936D02*
X205977297Y-72578159D01*
X206472272Y-72083184D01*
X206649049Y-72259961D01*
X206154074Y-72754936D01*
X206154074Y-72754936D01*
G37*
D22*
G04 #@! TO.P,U101,22*
G04 #@! TO.N,/LED_0*
X206666726Y-72772614D03*
D11*
G04 #@! TD*
G04 #@! TO.N,/LED_0*
G04 #@! TO.C,U101*
G36*
X206507627Y-73108490D02*
X206330850Y-72931713D01*
X206825825Y-72436738D01*
X207002602Y-72613515D01*
X206507627Y-73108490D01*
X206507627Y-73108490D01*
G37*
D22*
G04 #@! TO.P,U101,21*
G04 #@! TO.N,GND*
X207020280Y-73126167D03*
D11*
G04 #@! TD*
G04 #@! TO.N,GND*
G04 #@! TO.C,U101*
G36*
X206861181Y-73462043D02*
X206684404Y-73285266D01*
X207179379Y-72790291D01*
X207356156Y-72967068D01*
X206861181Y-73462043D01*
X206861181Y-73462043D01*
G37*
D22*
G04 #@! TO.P,U101,20*
G04 #@! TO.N,N/C*
X207373833Y-73479720D03*
D11*
G04 #@! TD*
G04 #@! TO.N,N/C*
G04 #@! TO.C,U101*
G36*
X207214734Y-73815596D02*
X207037957Y-73638819D01*
X207532932Y-73143844D01*
X207709709Y-73320621D01*
X207214734Y-73815596D01*
X207214734Y-73815596D01*
G37*
D22*
G04 #@! TO.P,U101,19*
G04 #@! TO.N,N/C*
X207727386Y-73833274D03*
D11*
G04 #@! TD*
G04 #@! TO.N,N/C*
G04 #@! TO.C,U101*
G36*
X207568287Y-74169150D02*
X207391510Y-73992373D01*
X207886485Y-73497398D01*
X208063262Y-73674175D01*
X207568287Y-74169150D01*
X207568287Y-74169150D01*
G37*
D22*
G04 #@! TO.P,U101,18*
G04 #@! TO.N,+3V3*
X208080940Y-74186827D03*
D11*
G04 #@! TD*
G04 #@! TO.N,+3V3*
G04 #@! TO.C,U101*
G36*
X207921841Y-74522703D02*
X207745064Y-74345926D01*
X208240039Y-73850951D01*
X208416816Y-74027728D01*
X207921841Y-74522703D01*
X207921841Y-74522703D01*
G37*
D22*
G04 #@! TO.P,U101,17*
G04 #@! TO.N,/LED_1*
X208434493Y-74540381D03*
D11*
G04 #@! TD*
G04 #@! TO.N,/LED_1*
G04 #@! TO.C,U101*
G36*
X208275394Y-74876257D02*
X208098617Y-74699480D01*
X208593592Y-74204505D01*
X208770369Y-74381282D01*
X208275394Y-74876257D01*
X208275394Y-74876257D01*
G37*
D22*
G04 #@! TO.P,U101,16*
G04 #@! TO.N,N/C*
X208434493Y-75459619D03*
D11*
G04 #@! TD*
G04 #@! TO.N,N/C*
G04 #@! TO.C,U101*
G36*
X208770369Y-75618718D02*
X208593592Y-75795495D01*
X208098617Y-75300520D01*
X208275394Y-75123743D01*
X208770369Y-75618718D01*
X208770369Y-75618718D01*
G37*
D22*
G04 #@! TO.P,U101,15*
G04 #@! TO.N,/LED_2*
X208080940Y-75813173D03*
D11*
G04 #@! TD*
G04 #@! TO.N,/LED_2*
G04 #@! TO.C,U101*
G36*
X208416816Y-75972272D02*
X208240039Y-76149049D01*
X207745064Y-75654074D01*
X207921841Y-75477297D01*
X208416816Y-75972272D01*
X208416816Y-75972272D01*
G37*
D22*
G04 #@! TO.P,U101,14*
G04 #@! TO.N,/LED_3*
X207727386Y-76166726D03*
D11*
G04 #@! TD*
G04 #@! TO.N,/LED_3*
G04 #@! TO.C,U101*
G36*
X208063262Y-76325825D02*
X207886485Y-76502602D01*
X207391510Y-76007627D01*
X207568287Y-75830850D01*
X208063262Y-76325825D01*
X208063262Y-76325825D01*
G37*
D22*
G04 #@! TO.P,U101,13*
G04 #@! TO.N,/LED_4*
X207373833Y-76520280D03*
D11*
G04 #@! TD*
G04 #@! TO.N,/LED_4*
G04 #@! TO.C,U101*
G36*
X207709709Y-76679379D02*
X207532932Y-76856156D01*
X207037957Y-76361181D01*
X207214734Y-76184404D01*
X207709709Y-76679379D01*
X207709709Y-76679379D01*
G37*
D22*
G04 #@! TO.P,U101,12*
G04 #@! TO.N,N/C*
X207020280Y-76873833D03*
D11*
G04 #@! TD*
G04 #@! TO.N,N/C*
G04 #@! TO.C,U101*
G36*
X207356156Y-77032932D02*
X207179379Y-77209709D01*
X206684404Y-76714734D01*
X206861181Y-76537957D01*
X207356156Y-77032932D01*
X207356156Y-77032932D01*
G37*
D22*
G04 #@! TO.P,U101,11*
G04 #@! TO.N,/RESET*
X206666726Y-77227386D03*
D11*
G04 #@! TD*
G04 #@! TO.N,/RESET*
G04 #@! TO.C,U101*
G36*
X207002602Y-77386485D02*
X206825825Y-77563262D01*
X206330850Y-77068287D01*
X206507627Y-76891510D01*
X207002602Y-77386485D01*
X207002602Y-77386485D01*
G37*
D22*
G04 #@! TO.P,U101,10*
G04 #@! TO.N,/LED_5*
X206313173Y-77580940D03*
D11*
G04 #@! TD*
G04 #@! TO.N,/LED_5*
G04 #@! TO.C,U101*
G36*
X206649049Y-77740039D02*
X206472272Y-77916816D01*
X205977297Y-77421841D01*
X206154074Y-77245064D01*
X206649049Y-77740039D01*
X206649049Y-77740039D01*
G37*
D22*
G04 #@! TO.P,U101,9*
G04 #@! TO.N,N/C*
X205959619Y-77934493D03*
D11*
G04 #@! TD*
G04 #@! TO.N,N/C*
G04 #@! TO.C,U101*
G36*
X206295495Y-78093592D02*
X206118718Y-78270369D01*
X205623743Y-77775394D01*
X205800520Y-77598617D01*
X206295495Y-78093592D01*
X206295495Y-78093592D01*
G37*
D22*
G04 #@! TO.P,U101,8*
G04 #@! TO.N,/LED_6*
X205040381Y-77934493D03*
D11*
G04 #@! TD*
G04 #@! TO.N,/LED_6*
G04 #@! TO.C,U101*
G36*
X204881282Y-78270369D02*
X204704505Y-78093592D01*
X205199480Y-77598617D01*
X205376257Y-77775394D01*
X204881282Y-78270369D01*
X204881282Y-78270369D01*
G37*
D22*
G04 #@! TO.P,U101,7*
G04 #@! TO.N,/LED_7*
X204686827Y-77580940D03*
D11*
G04 #@! TD*
G04 #@! TO.N,/LED_7*
G04 #@! TO.C,U101*
G36*
X204527728Y-77916816D02*
X204350951Y-77740039D01*
X204845926Y-77245064D01*
X205022703Y-77421841D01*
X204527728Y-77916816D01*
X204527728Y-77916816D01*
G37*
D22*
G04 #@! TO.P,U101,6*
G04 #@! TO.N,N/C*
X204333274Y-77227386D03*
D11*
G04 #@! TD*
G04 #@! TO.N,N/C*
G04 #@! TO.C,U101*
G36*
X204174175Y-77563262D02*
X203997398Y-77386485D01*
X204492373Y-76891510D01*
X204669150Y-77068287D01*
X204174175Y-77563262D01*
X204174175Y-77563262D01*
G37*
D22*
G04 #@! TO.P,U101,5*
G04 #@! TO.N,GND*
X203979720Y-76873833D03*
D11*
G04 #@! TD*
G04 #@! TO.N,GND*
G04 #@! TO.C,U101*
G36*
X203820621Y-77209709D02*
X203643844Y-77032932D01*
X204138819Y-76537957D01*
X204315596Y-76714734D01*
X203820621Y-77209709D01*
X203820621Y-77209709D01*
G37*
D22*
G04 #@! TO.P,U101,4*
G04 #@! TO.N,+3V3*
X203626167Y-76520280D03*
D11*
G04 #@! TD*
G04 #@! TO.N,+3V3*
G04 #@! TO.C,U101*
G36*
X203467068Y-76856156D02*
X203290291Y-76679379D01*
X203785266Y-76184404D01*
X203962043Y-76361181D01*
X203467068Y-76856156D01*
X203467068Y-76856156D01*
G37*
D22*
G04 #@! TO.P,U101,3*
G04 #@! TO.N,N/C*
X203272614Y-76166726D03*
D11*
G04 #@! TD*
G04 #@! TO.N,N/C*
G04 #@! TO.C,U101*
G36*
X203113515Y-76502602D02*
X202936738Y-76325825D01*
X203431713Y-75830850D01*
X203608490Y-76007627D01*
X203113515Y-76502602D01*
X203113515Y-76502602D01*
G37*
D22*
G04 #@! TO.P,U101,2*
G04 #@! TO.N,/LED_8*
X202919060Y-75813173D03*
D11*
G04 #@! TD*
G04 #@! TO.N,/LED_8*
G04 #@! TO.C,U101*
G36*
X202759961Y-76149049D02*
X202583184Y-75972272D01*
X203078159Y-75477297D01*
X203254936Y-75654074D01*
X202759961Y-76149049D01*
X202759961Y-76149049D01*
G37*
D22*
G04 #@! TO.P,U101,1*
G04 #@! TO.N,N/C*
X202565507Y-75459619D03*
D11*
G04 #@! TD*
G04 #@! TO.N,N/C*
G04 #@! TO.C,U101*
G36*
X202406408Y-75795495D02*
X202229631Y-75618718D01*
X202724606Y-75123743D01*
X202901383Y-75300520D01*
X202406408Y-75795495D01*
X202406408Y-75795495D01*
G37*
D23*
G04 #@! TO.P,U402,5*
G04 #@! TO.N,+3V3*
X224500000Y-109400000D03*
G04 #@! TO.P,U402,6*
G04 #@! TO.N,+BATT*
X223550000Y-109400000D03*
G04 #@! TO.P,U402,4*
G04 #@! TO.N,Net-(R401-Pad2)*
X225450000Y-109400000D03*
G04 #@! TO.P,U402,3*
G04 #@! TO.N,+BATT*
X225450000Y-111600000D03*
G04 #@! TO.P,U402,2*
G04 #@! TO.N,GND*
X224500000Y-111600000D03*
G04 #@! TO.P,U402,1*
G04 #@! TO.N,Net-(L401-Pad1)*
X223550000Y-111600000D03*
G04 #@! TD*
D20*
G04 #@! TO.P,R102,2*
G04 #@! TO.N,/SCL*
X205250000Y-68500000D03*
G04 #@! TO.P,R102,1*
G04 #@! TO.N,+3V3*
X206750000Y-68500000D03*
G04 #@! TD*
G04 #@! TO.P,R103,1*
G04 #@! TO.N,+3V3*
X198750000Y-70000000D03*
G04 #@! TO.P,R103,2*
G04 #@! TO.N,/SDA*
X200250000Y-70000000D03*
G04 #@! TD*
D15*
G04 #@! TO.P,J101,1*
G04 #@! TO.N,GND*
X206600000Y-51900000D03*
D14*
G04 #@! TO.P,J101,2*
G04 #@! TO.N,+3V3*
X204060000Y-51900000D03*
G04 #@! TD*
D11*
G04 #@! TO.N,/TOUCH*
G04 #@! TO.C,R101*
G36*
X198565191Y-51626053D02*
X198586426Y-51629203D01*
X198607250Y-51634419D01*
X198627462Y-51641651D01*
X198646868Y-51650830D01*
X198665281Y-51661866D01*
X198682524Y-51674654D01*
X198698430Y-51689070D01*
X198712846Y-51704976D01*
X198725634Y-51722219D01*
X198736670Y-51740632D01*
X198745849Y-51760038D01*
X198753081Y-51780250D01*
X198758297Y-51801074D01*
X198761447Y-51822309D01*
X198762500Y-51843750D01*
X198762500Y-52356250D01*
X198761447Y-52377691D01*
X198758297Y-52398926D01*
X198753081Y-52419750D01*
X198745849Y-52439962D01*
X198736670Y-52459368D01*
X198725634Y-52477781D01*
X198712846Y-52495024D01*
X198698430Y-52510930D01*
X198682524Y-52525346D01*
X198665281Y-52538134D01*
X198646868Y-52549170D01*
X198627462Y-52558349D01*
X198607250Y-52565581D01*
X198586426Y-52570797D01*
X198565191Y-52573947D01*
X198543750Y-52575000D01*
X198106250Y-52575000D01*
X198084809Y-52573947D01*
X198063574Y-52570797D01*
X198042750Y-52565581D01*
X198022538Y-52558349D01*
X198003132Y-52549170D01*
X197984719Y-52538134D01*
X197967476Y-52525346D01*
X197951570Y-52510930D01*
X197937154Y-52495024D01*
X197924366Y-52477781D01*
X197913330Y-52459368D01*
X197904151Y-52439962D01*
X197896919Y-52419750D01*
X197891703Y-52398926D01*
X197888553Y-52377691D01*
X197887500Y-52356250D01*
X197887500Y-51843750D01*
X197888553Y-51822309D01*
X197891703Y-51801074D01*
X197896919Y-51780250D01*
X197904151Y-51760038D01*
X197913330Y-51740632D01*
X197924366Y-51722219D01*
X197937154Y-51704976D01*
X197951570Y-51689070D01*
X197967476Y-51674654D01*
X197984719Y-51661866D01*
X198003132Y-51650830D01*
X198022538Y-51641651D01*
X198042750Y-51634419D01*
X198063574Y-51629203D01*
X198084809Y-51626053D01*
X198106250Y-51625000D01*
X198543750Y-51625000D01*
X198565191Y-51626053D01*
X198565191Y-51626053D01*
G37*
D13*
G04 #@! TD*
G04 #@! TO.P,R101,1*
G04 #@! TO.N,/TOUCH*
X198325000Y-52100000D03*
D11*
G04 #@! TO.N,+3V3*
G04 #@! TO.C,R101*
G36*
X200140191Y-51626053D02*
X200161426Y-51629203D01*
X200182250Y-51634419D01*
X200202462Y-51641651D01*
X200221868Y-51650830D01*
X200240281Y-51661866D01*
X200257524Y-51674654D01*
X200273430Y-51689070D01*
X200287846Y-51704976D01*
X200300634Y-51722219D01*
X200311670Y-51740632D01*
X200320849Y-51760038D01*
X200328081Y-51780250D01*
X200333297Y-51801074D01*
X200336447Y-51822309D01*
X200337500Y-51843750D01*
X200337500Y-52356250D01*
X200336447Y-52377691D01*
X200333297Y-52398926D01*
X200328081Y-52419750D01*
X200320849Y-52439962D01*
X200311670Y-52459368D01*
X200300634Y-52477781D01*
X200287846Y-52495024D01*
X200273430Y-52510930D01*
X200257524Y-52525346D01*
X200240281Y-52538134D01*
X200221868Y-52549170D01*
X200202462Y-52558349D01*
X200182250Y-52565581D01*
X200161426Y-52570797D01*
X200140191Y-52573947D01*
X200118750Y-52575000D01*
X199681250Y-52575000D01*
X199659809Y-52573947D01*
X199638574Y-52570797D01*
X199617750Y-52565581D01*
X199597538Y-52558349D01*
X199578132Y-52549170D01*
X199559719Y-52538134D01*
X199542476Y-52525346D01*
X199526570Y-52510930D01*
X199512154Y-52495024D01*
X199499366Y-52477781D01*
X199488330Y-52459368D01*
X199479151Y-52439962D01*
X199471919Y-52419750D01*
X199466703Y-52398926D01*
X199463553Y-52377691D01*
X199462500Y-52356250D01*
X199462500Y-51843750D01*
X199463553Y-51822309D01*
X199466703Y-51801074D01*
X199471919Y-51780250D01*
X199479151Y-51760038D01*
X199488330Y-51740632D01*
X199499366Y-51722219D01*
X199512154Y-51704976D01*
X199526570Y-51689070D01*
X199542476Y-51674654D01*
X199559719Y-51661866D01*
X199578132Y-51650830D01*
X199597538Y-51641651D01*
X199617750Y-51634419D01*
X199638574Y-51629203D01*
X199659809Y-51626053D01*
X199681250Y-51625000D01*
X200118750Y-51625000D01*
X200140191Y-51626053D01*
X200140191Y-51626053D01*
G37*
D13*
G04 #@! TD*
G04 #@! TO.P,R101,2*
G04 #@! TO.N,+3V3*
X199900000Y-52100000D03*
D24*
G04 #@! TO.P,SW101,2*
G04 #@! TO.N,GND*
X190225000Y-61233333D03*
D11*
G04 #@! TD*
G04 #@! TO.N,GND*
G04 #@! TO.C,SW101*
G36*
X189100000Y-61233334D02*
X189100000Y-61233332D01*
X191350000Y-59566668D01*
X191350000Y-62899998D01*
X189100000Y-61233334D01*
X189100000Y-61233334D01*
G37*
D25*
G04 #@! TO.P,SW101,2*
G04 #@! TO.N,GND*
X193225000Y-61233333D03*
D24*
G04 #@! TO.P,SW101,1*
G04 #@! TO.N,/TOUCH*
X188600000Y-60399999D03*
D11*
G04 #@! TD*
G04 #@! TO.N,/TOUCH*
G04 #@! TO.C,SW101*
G36*
X188599999Y-61233332D02*
X186350001Y-59566666D01*
X190849999Y-59566666D01*
X188600001Y-61233332D01*
X188599999Y-61233332D01*
X188599999Y-61233332D01*
G37*
D24*
G04 #@! TO.P,SW101,1*
G04 #@! TO.N,/TOUCH*
X188600000Y-62066666D03*
D11*
G04 #@! TD*
G04 #@! TO.N,/TOUCH*
G04 #@! TO.C,SW101*
G36*
X186350001Y-62899999D02*
X188599999Y-61233333D01*
X188600001Y-61233333D01*
X190849999Y-62899999D01*
X186350001Y-62899999D01*
X186350001Y-62899999D01*
G37*
D25*
G04 #@! TO.P,SW101,1*
G04 #@! TO.N,/TOUCH*
X186725000Y-61233333D03*
D24*
G04 #@! TO.P,SW101,2*
G04 #@! TO.N,GND*
X190225000Y-57900000D03*
D11*
G04 #@! TD*
G04 #@! TO.N,GND*
G04 #@! TO.C,SW101*
G36*
X189100000Y-57900001D02*
X189100000Y-57899999D01*
X191350000Y-56233335D01*
X191350000Y-59566665D01*
X189100000Y-57900001D01*
X189100000Y-57900001D01*
G37*
D25*
G04 #@! TO.P,SW101,2*
G04 #@! TO.N,GND*
X193225000Y-57900000D03*
D24*
G04 #@! TO.P,SW101,1*
G04 #@! TO.N,/TOUCH*
X188600000Y-57066666D03*
D11*
G04 #@! TD*
G04 #@! TO.N,/TOUCH*
G04 #@! TO.C,SW101*
G36*
X188599999Y-57899999D02*
X186350001Y-56233333D01*
X190849999Y-56233333D01*
X188600001Y-57899999D01*
X188599999Y-57899999D01*
X188599999Y-57899999D01*
G37*
D24*
G04 #@! TO.P,SW101,1*
G04 #@! TO.N,/TOUCH*
X188600000Y-58733333D03*
D11*
G04 #@! TD*
G04 #@! TO.N,/TOUCH*
G04 #@! TO.C,SW101*
G36*
X186350001Y-59566666D02*
X188599999Y-57900000D01*
X188600001Y-57900000D01*
X190849999Y-59566666D01*
X186350001Y-59566666D01*
X186350001Y-59566666D01*
G37*
D25*
G04 #@! TO.P,SW101,1*
G04 #@! TO.N,/TOUCH*
X186725000Y-57900000D03*
D24*
G04 #@! TO.P,SW101,2*
G04 #@! TO.N,GND*
X190225000Y-54566667D03*
D11*
G04 #@! TD*
G04 #@! TO.N,GND*
G04 #@! TO.C,SW101*
G36*
X189100000Y-54566668D02*
X189100000Y-54566666D01*
X191350000Y-52900002D01*
X191350000Y-56233332D01*
X189100000Y-54566668D01*
X189100000Y-54566668D01*
G37*
D25*
G04 #@! TO.P,SW101,2*
G04 #@! TO.N,GND*
X193225000Y-54566667D03*
D24*
G04 #@! TO.P,SW101,1*
G04 #@! TO.N,/TOUCH*
X188600000Y-53733333D03*
D11*
G04 #@! TD*
G04 #@! TO.N,/TOUCH*
G04 #@! TO.C,SW101*
G36*
X188599999Y-54566666D02*
X186350001Y-52900000D01*
X190849999Y-52900000D01*
X188600001Y-54566666D01*
X188599999Y-54566666D01*
X188599999Y-54566666D01*
G37*
D24*
G04 #@! TO.P,SW101,1*
G04 #@! TO.N,/TOUCH*
X188600000Y-55400000D03*
D11*
G04 #@! TD*
G04 #@! TO.N,/TOUCH*
G04 #@! TO.C,SW101*
G36*
X186350001Y-56233333D02*
X188599999Y-54566667D01*
X188600001Y-54566667D01*
X190849999Y-56233333D01*
X186350001Y-56233333D01*
X186350001Y-56233333D01*
G37*
D25*
G04 #@! TO.P,SW101,1*
G04 #@! TO.N,/TOUCH*
X186725000Y-54566667D03*
G04 #@! TD*
D26*
G04 #@! TO.P,TP101,1*
G04 #@! TO.N,/SDA*
X184200000Y-71700000D03*
G04 #@! TD*
G04 #@! TO.P,TP102,1*
G04 #@! TO.N,/SCL*
X184400000Y-78800000D03*
G04 #@! TD*
D27*
G04 #@! TO.N,+BATT*
X225500000Y-113000000D03*
X221500000Y-108000000D03*
G04 #@! TO.N,GND*
X206500000Y-75000000D03*
X204500000Y-75000000D03*
X205500000Y-76000000D03*
X205500000Y-74000000D03*
X223500000Y-106250000D03*
X219000000Y-114000000D03*
X219000000Y-116000000D03*
X219000000Y-118000000D03*
X221000000Y-116000000D03*
X221000000Y-118000000D03*
X221000000Y-114000000D03*
X225000000Y-118000000D03*
X225000000Y-116000000D03*
X223000000Y-116000000D03*
X223000000Y-118000000D03*
X223000000Y-114000000D03*
X227000000Y-116000000D03*
X227000000Y-118000000D03*
X203500000Y-78000000D03*
X208157706Y-72921497D03*
X190000000Y-130000000D03*
X185500000Y-136000000D03*
X183225010Y-134500000D03*
X228500000Y-55500000D03*
X228500000Y-60500000D03*
X228500000Y-65500000D03*
X228500000Y-70500000D03*
X228500000Y-75500000D03*
X228500000Y-80500000D03*
X228500000Y-85500000D03*
X228500000Y-90500000D03*
X228500000Y-95500000D03*
X199000228Y-79500229D03*
X197300000Y-54600000D03*
G04 #@! TO.N,/LED_8*
X201750229Y-76750229D03*
X203362340Y-79362340D03*
G04 #@! TO.N,/RESET*
X204000000Y-81500000D03*
X208500000Y-78250000D03*
G04 #@! TO.N,+3V3*
X209000000Y-72000000D03*
X202750000Y-80750000D03*
G04 #@! TO.N,/SCL*
X204000000Y-69500000D03*
X202012672Y-72012647D03*
G04 #@! TD*
D28*
G04 #@! TO.N,+BATT*
X222825000Y-109400000D02*
X222500000Y-109075000D01*
X223550000Y-109400000D02*
X222825000Y-109400000D01*
X222500000Y-109075000D02*
X222500000Y-108750000D01*
X222500000Y-108750000D02*
X221750000Y-108750000D01*
X221750000Y-108750000D02*
X221500000Y-109000000D01*
X221500000Y-109000000D02*
X221500000Y-109750000D01*
X221500000Y-109000000D02*
X221250000Y-108750000D01*
X221250000Y-108750000D02*
X219750000Y-108750000D01*
X219750000Y-108750000D02*
X219500000Y-109000000D01*
X219500000Y-109000000D02*
X219500000Y-109750000D01*
D29*
X225450000Y-111600000D02*
X225450000Y-112950000D01*
X225450000Y-112950000D02*
X225500000Y-113000000D01*
X221500000Y-108000000D02*
X221500000Y-109750000D01*
G04 #@! TO.N,GND*
X223250000Y-107500000D02*
X223250000Y-106500000D01*
X223250000Y-106500000D02*
X223500000Y-106250000D01*
D28*
X224500000Y-110974998D02*
X224500000Y-111600000D01*
X222855001Y-110669999D02*
X224195001Y-110669999D01*
X222275000Y-111250000D02*
X222855001Y-110669999D01*
X221500000Y-111250000D02*
X222275000Y-111250000D01*
X224195001Y-110669999D02*
X224500000Y-110974998D01*
X227500000Y-113500000D02*
X227500000Y-111250000D01*
X227000000Y-114000000D02*
X227500000Y-113500000D01*
X224750000Y-114000000D02*
X227000000Y-114000000D01*
X224500000Y-111600000D02*
X224500000Y-113750000D01*
X224500000Y-113750000D02*
X224750000Y-114000000D01*
D29*
X203979720Y-76873833D02*
X203500000Y-77353553D01*
X203500000Y-77353553D02*
X203500000Y-78000000D01*
X208044179Y-72807970D02*
X208157706Y-72921497D01*
X207020280Y-73126167D02*
X207338477Y-72807970D01*
X207338477Y-72807970D02*
X208044179Y-72807970D01*
X186849001Y-132755002D02*
X186421201Y-132755002D01*
X187881263Y-131722740D02*
X186849001Y-132755002D01*
X187881263Y-130556237D02*
X187881263Y-131722740D01*
X188437500Y-130000000D02*
X187881263Y-130556237D01*
X188437500Y-130000000D02*
X190000000Y-130000000D01*
D28*
X188287500Y-129850000D02*
X188437500Y-130000000D01*
X188287500Y-128000000D02*
X188287500Y-129850000D01*
D29*
X186924002Y-132830003D02*
X186849001Y-132755002D01*
X186924002Y-133679999D02*
X186924002Y-132830003D01*
X186849001Y-133755000D02*
X186924002Y-133679999D01*
X186421201Y-133755000D02*
X186849001Y-133755000D01*
X185075001Y-134601201D02*
X185075001Y-135575001D01*
X185075001Y-135575001D02*
X185500000Y-136000000D01*
X183728801Y-134255002D02*
X183301001Y-134255002D01*
X183301001Y-134255002D02*
X183225010Y-134330993D01*
X183225010Y-134330993D02*
X183225010Y-134500000D01*
X228787500Y-54000000D02*
X228787500Y-55212500D01*
X228787500Y-55212500D02*
X228500000Y-55500000D01*
X228787500Y-59000000D02*
X228787500Y-60212500D01*
X228787500Y-60212500D02*
X228500000Y-60500000D01*
X228787500Y-64000000D02*
X228787500Y-65212500D01*
X228787500Y-65212500D02*
X228500000Y-65500000D01*
X228787500Y-69000000D02*
X228787500Y-70212500D01*
X228787500Y-70212500D02*
X228500000Y-70500000D01*
X228787500Y-74000000D02*
X228787500Y-75212500D01*
X228787500Y-75212500D02*
X228500000Y-75500000D01*
X228787500Y-79000000D02*
X228787500Y-80212500D01*
X228787500Y-80212500D02*
X228500000Y-80500000D01*
X228787500Y-84000000D02*
X228787500Y-85212500D01*
X228787500Y-85212500D02*
X228500000Y-85500000D01*
X228787500Y-89000000D02*
X228787500Y-90212500D01*
X228787500Y-90212500D02*
X228500000Y-90500000D01*
X228787500Y-94000000D02*
X228787500Y-95212500D01*
X228787500Y-95212500D02*
X228500000Y-95500000D01*
D28*
X199475000Y-79000000D02*
X199000228Y-79474772D01*
X199000228Y-79474772D02*
X199000228Y-79500229D01*
X200062500Y-79000000D02*
X199475000Y-79000000D01*
D29*
X193225000Y-54566667D02*
X197266667Y-54566667D01*
X197266667Y-54566667D02*
X197300000Y-54600000D01*
X193225000Y-54566667D02*
X190225000Y-54566667D01*
X193225000Y-57900000D02*
X190225000Y-57900000D01*
X193225000Y-61233333D02*
X190225000Y-61233333D01*
X193225000Y-61233333D02*
X193225000Y-57900000D01*
X193225000Y-57900000D02*
X193225000Y-54566667D01*
G04 #@! TO.N,/LED_1*
X208752690Y-74222184D02*
X208434493Y-74540381D01*
X211777816Y-74222184D02*
X208752690Y-74222184D01*
X223750000Y-59000000D02*
X223750000Y-62250000D01*
X223750000Y-62250000D02*
X211777816Y-74222184D01*
G04 #@! TO.N,/LED_2*
X223250000Y-64000000D02*
X223750000Y-64000000D01*
X222727179Y-64000000D02*
X223250000Y-64000000D01*
X213627201Y-73099978D02*
X222727179Y-64000000D01*
X210595809Y-76131370D02*
X213627201Y-73099978D01*
X208080940Y-75813173D02*
X208399137Y-76131370D01*
X208399137Y-76131370D02*
X210595809Y-76131370D01*
G04 #@! TO.N,/LED_3*
X223250000Y-69000000D02*
X223750000Y-69000000D01*
X218363590Y-69000000D02*
X223250000Y-69000000D01*
X210413579Y-76950011D02*
X218363590Y-69000000D01*
X207727386Y-76166726D02*
X208510671Y-76950011D01*
X208510671Y-76950011D02*
X210413579Y-76950011D01*
G04 #@! TO.N,/LED_4*
X207692030Y-76838477D02*
X207373833Y-76520280D01*
X208253575Y-77400022D02*
X207692030Y-76838477D01*
X210599978Y-77400022D02*
X208253575Y-77400022D01*
X223750000Y-74000000D02*
X214000000Y-74000000D01*
X214000000Y-74000000D02*
X210599978Y-77400022D01*
G04 #@! TO.N,/LED_5*
X207732233Y-79000000D02*
X223750000Y-79000000D01*
X206313173Y-77580940D02*
X207732233Y-79000000D01*
G04 #@! TO.N,/LED_6*
X223250000Y-84000000D02*
X223750000Y-84000000D01*
X209500000Y-84000000D02*
X223250000Y-84000000D01*
X205040381Y-77934493D02*
X205040381Y-79540381D01*
X205040381Y-79540381D02*
X209500000Y-84000000D01*
G04 #@! TO.N,/LED_7*
X204368630Y-77899137D02*
X204368630Y-79618630D01*
X204686827Y-77580940D02*
X204368630Y-77899137D01*
X223250000Y-89000000D02*
X223750000Y-89000000D01*
X204368630Y-79618630D02*
X213750000Y-89000000D01*
X213750000Y-89000000D02*
X223250000Y-89000000D01*
G04 #@! TO.N,/LED_8*
X201982004Y-76750229D02*
X201750229Y-76750229D01*
X202919060Y-75813173D02*
X201982004Y-76750229D01*
X223750000Y-94000000D02*
X218000000Y-94000000D01*
X218000000Y-94000000D02*
X203762339Y-79762339D01*
X203762339Y-79762339D02*
X203362340Y-79362340D01*
G04 #@! TO.N,/SCK*
X187750000Y-116290000D02*
X186500000Y-117540000D01*
X187750000Y-113964998D02*
X187750000Y-116290000D01*
X184535002Y-110750000D02*
X187750000Y-113964998D01*
X202565507Y-74469686D02*
X202045833Y-73950010D01*
X202565507Y-74540381D02*
X202565507Y-74469686D01*
X202045833Y-73950010D02*
X201049990Y-73950010D01*
X201049990Y-73950010D02*
X184500000Y-90500000D01*
X184500000Y-90500000D02*
X184500000Y-110750000D01*
X184500000Y-110750000D02*
X184535002Y-110750000D01*
G04 #@! TO.N,/RESET*
X207689340Y-78250000D02*
X206666726Y-77227386D01*
X208500000Y-78250000D02*
X207689340Y-78250000D01*
X190500000Y-95000000D02*
X204000000Y-81500000D01*
X187349999Y-119230001D02*
X188150997Y-119230001D01*
X186500000Y-120080000D02*
X187349999Y-119230001D01*
X188150997Y-119230001D02*
X188665997Y-118715001D01*
X188665997Y-118715001D02*
X189604001Y-118715001D01*
X189604001Y-118715001D02*
X190500000Y-117819002D01*
X190500000Y-117819002D02*
X190500000Y-95000000D01*
D28*
G04 #@! TO.N,+3V3*
X225925000Y-110550000D02*
X226725000Y-109750000D01*
X226725000Y-109750000D02*
X227500000Y-109750000D01*
X224500000Y-110126455D02*
X224923545Y-110550000D01*
X224500000Y-109400000D02*
X224500000Y-110126455D01*
X224923545Y-110550000D02*
X225925000Y-110550000D01*
D29*
X202000000Y-78000000D02*
X202000000Y-77500000D01*
X201937500Y-79000000D02*
X202000000Y-78000000D01*
X202000000Y-77500000D02*
X203307970Y-76838477D01*
X203307970Y-76838477D02*
X203626167Y-76520280D01*
X185575000Y-130987500D02*
X186562500Y-130000000D01*
X185575000Y-131908801D02*
X185575000Y-130987500D01*
D28*
X186712500Y-129850000D02*
X186562500Y-130000000D01*
X186712500Y-128000000D02*
X186712500Y-129850000D01*
D29*
X184619301Y-130987500D02*
X185575000Y-130987500D01*
X183728801Y-131878000D02*
X184619301Y-130987500D01*
X183728801Y-132255000D02*
X183728801Y-131878000D01*
X185575000Y-134601201D02*
X185575000Y-131908801D01*
X208080940Y-74186827D02*
X209000000Y-73267767D01*
X209000000Y-73267767D02*
X209000000Y-72000000D01*
X201937500Y-79000000D02*
X201937500Y-79937500D01*
X201937500Y-79937500D02*
X202750000Y-80750000D01*
X203860000Y-52100000D02*
X204060000Y-51900000D01*
X199900000Y-52100000D02*
X203860000Y-52100000D01*
G04 #@! TO.N,Net-(D301-Pad2)*
X225250000Y-54000000D02*
X227212500Y-54000000D01*
G04 #@! TO.N,Net-(D302-Pad2)*
X225250000Y-59000000D02*
X227212500Y-59000000D01*
G04 #@! TO.N,Net-(D303-Pad2)*
X225250000Y-64000000D02*
X227212500Y-64000000D01*
G04 #@! TO.N,Net-(D304-Pad2)*
X225250000Y-69000000D02*
X227212500Y-69000000D01*
G04 #@! TO.N,Net-(D305-Pad2)*
X225250000Y-74000000D02*
X227212500Y-74000000D01*
G04 #@! TO.N,Net-(D306-Pad2)*
X225250000Y-79000000D02*
X227212500Y-79000000D01*
G04 #@! TO.N,Net-(D307-Pad2)*
X225250000Y-84000000D02*
X227212500Y-84000000D01*
G04 #@! TO.N,Net-(D308-Pad2)*
X225250000Y-89000000D02*
X227212500Y-89000000D01*
G04 #@! TO.N,Net-(D309-Pad2)*
X225250000Y-94000000D02*
X227212500Y-94000000D01*
G04 #@! TO.N,/LED_0*
X223750000Y-55689340D02*
X223750000Y-54000000D01*
X206666726Y-72772614D02*
X223750000Y-55689340D01*
G04 #@! TO.N,Net-(R401-Pad2)*
X224750000Y-107500000D02*
X225750000Y-107500000D01*
X225750000Y-109100000D02*
X225450000Y-109400000D01*
X225750000Y-107500000D02*
X225750000Y-109100000D01*
G04 #@! TO.N,/MOSI*
X187830000Y-118750000D02*
X189040000Y-117540000D01*
X202439340Y-73000000D02*
X200500000Y-73000000D01*
X203272614Y-73833274D02*
X202439340Y-73000000D01*
X200500000Y-73000000D02*
X183500000Y-90000000D01*
X183500000Y-90000000D02*
X183500000Y-116279002D01*
X183500000Y-116279002D02*
X185970998Y-118750000D01*
X185970998Y-118750000D02*
X187830000Y-118750000D01*
G04 #@! TO.N,/MISO*
X202232232Y-73499999D02*
X202600863Y-73868630D01*
X200863590Y-73499999D02*
X202232232Y-73499999D01*
X186500000Y-115000000D02*
X185038590Y-115000000D01*
X185038590Y-115000000D02*
X184049989Y-114011399D01*
X202600863Y-73868630D02*
X202919060Y-74186827D01*
X184049989Y-90313600D02*
X200863590Y-73499999D01*
X184049989Y-114011399D02*
X184049989Y-90313600D01*
D28*
G04 #@! TO.N,Net-(L401-Pad1)*
X222825000Y-111600000D02*
X223550000Y-111600000D01*
X222374999Y-112050001D02*
X222825000Y-111600000D01*
X219650001Y-112050001D02*
X222374999Y-112050001D01*
X219500000Y-111900000D02*
X219650001Y-112050001D01*
X219500000Y-111250000D02*
X219500000Y-111900000D01*
D29*
G04 #@! TO.N,/SDA*
X203267767Y-71000000D02*
X204686827Y-72419060D01*
X201500000Y-71000000D02*
X203267767Y-71000000D01*
X200250000Y-70200000D02*
X200250000Y-70000000D01*
X201050000Y-71000000D02*
X200250000Y-70200000D01*
X201500000Y-71000000D02*
X201050000Y-71000000D01*
X188500000Y-71000000D02*
X201500000Y-71000000D01*
X182500000Y-135500000D02*
X182500000Y-77000000D01*
X183727003Y-135500000D02*
X182500000Y-135500000D01*
X184575002Y-134601201D02*
X184575002Y-134652001D01*
X184575002Y-134652001D02*
X183727003Y-135500000D01*
X184200000Y-71700000D02*
X187800000Y-71700000D01*
X182500000Y-77000000D02*
X187800000Y-71700000D01*
X187800000Y-71700000D02*
X188500000Y-71000000D01*
G04 #@! TO.N,/SCL*
X204348722Y-69500000D02*
X204000000Y-69500000D01*
X206631370Y-71782648D02*
X204348722Y-69500000D01*
X206313173Y-72419060D02*
X206631370Y-72100863D01*
X206631370Y-72100863D02*
X206631370Y-71782648D01*
X204250000Y-69500000D02*
X205250000Y-68500000D01*
X204000000Y-69500000D02*
X204250000Y-69500000D01*
X194487353Y-72012647D02*
X201446987Y-72012647D01*
X183000000Y-133453999D02*
X183000000Y-83500000D01*
X183728801Y-133755000D02*
X183301001Y-133755000D01*
X201446987Y-72012647D02*
X202012672Y-72012647D01*
X183301001Y-133755000D02*
X183000000Y-133453999D01*
X186000000Y-80400000D02*
X186000000Y-80500000D01*
X184400000Y-78800000D02*
X186000000Y-80400000D01*
X183000000Y-83500000D02*
X186000000Y-80500000D01*
X186000000Y-80500000D02*
X194487353Y-72012647D01*
G04 #@! TO.N,/TOUCH*
X189504043Y-62970709D02*
X188600000Y-62066666D01*
X195758333Y-69224999D02*
X189504043Y-62970709D01*
X202199873Y-69224999D02*
X195758333Y-69224999D01*
X205040381Y-72065507D02*
X202199873Y-69224999D01*
X187766666Y-61233333D02*
X188600000Y-60399999D01*
X186725000Y-61233333D02*
X187766666Y-61233333D01*
X188600000Y-60399999D02*
X188600000Y-58733333D01*
X187766666Y-57900000D02*
X188600000Y-57066666D01*
X186725000Y-57900000D02*
X187766666Y-57900000D01*
X188600000Y-57066666D02*
X188600000Y-55400000D01*
X187766666Y-54566667D02*
X188600000Y-53733333D01*
X186725000Y-54566667D02*
X187766666Y-54566667D01*
X190233333Y-52100000D02*
X198325000Y-52100000D01*
X188600000Y-53733333D02*
X190233333Y-52100000D01*
G04 #@! TD*
D30*
G04 #@! TO.N,+3V3*
G36*
X202864817Y-51018642D02*
X202618514Y-51543108D01*
X202739181Y-51773000D01*
X203933000Y-51773000D01*
X203933000Y-51753000D01*
X204187000Y-51753000D01*
X204187000Y-51773000D01*
X204207000Y-51773000D01*
X204207000Y-52027000D01*
X204187000Y-52027000D01*
X204187000Y-53220155D01*
X204416890Y-53341476D01*
X204826924Y-53171645D01*
X205131261Y-52894292D01*
X205151843Y-52997765D01*
X205292191Y-53207809D01*
X205502235Y-53348157D01*
X205750000Y-53397440D01*
X207450000Y-53397440D01*
X207697765Y-53348157D01*
X207907809Y-53207809D01*
X208048157Y-52997765D01*
X208097440Y-52750000D01*
X208097440Y-51050000D01*
X208048157Y-50802235D01*
X207986527Y-50710000D01*
X227958753Y-50710000D01*
X228525708Y-50776100D01*
X229023212Y-50956685D01*
X229465835Y-51246881D01*
X229829823Y-51631116D01*
X230095658Y-52088784D01*
X230251892Y-52604629D01*
X230290001Y-53031629D01*
X230290000Y-135958752D01*
X230223900Y-136525708D01*
X230043315Y-137023212D01*
X229753118Y-137465834D01*
X229368884Y-137829823D01*
X228911216Y-138095658D01*
X228395371Y-138251892D01*
X227968382Y-138290000D01*
X183041248Y-138290000D01*
X182474292Y-138223900D01*
X181976788Y-138043315D01*
X181534166Y-137753118D01*
X181170177Y-137368884D01*
X180904342Y-136911216D01*
X180748108Y-136395371D01*
X180710000Y-135968382D01*
X180710000Y-135500000D01*
X181725111Y-135500000D01*
X181784096Y-135796537D01*
X181877874Y-135936885D01*
X181952071Y-136047929D01*
X182203463Y-136215904D01*
X182500000Y-136274889D01*
X182574852Y-136260000D01*
X183652156Y-136260000D01*
X183727003Y-136274888D01*
X183801850Y-136260000D01*
X183801855Y-136260000D01*
X184023540Y-136215904D01*
X184274932Y-136047929D01*
X184317334Y-135984470D01*
X184387604Y-135914200D01*
X184465000Y-136030032D01*
X184465000Y-136205874D01*
X184622569Y-136586280D01*
X184913720Y-136877431D01*
X185294126Y-137035000D01*
X185705874Y-137035000D01*
X186086280Y-136877431D01*
X186377431Y-136586280D01*
X186535000Y-136205874D01*
X186535000Y-135794126D01*
X186377431Y-135413720D01*
X186171369Y-135207658D01*
X186240327Y-135138700D01*
X186285583Y-135029442D01*
X186599001Y-135029442D01*
X186846766Y-134980159D01*
X187056810Y-134839811D01*
X187197158Y-134629767D01*
X187241513Y-134406775D01*
X187396930Y-134302929D01*
X187426971Y-134257969D01*
X187471931Y-134227928D01*
X187639906Y-133976536D01*
X187684002Y-133754851D01*
X187684002Y-133754847D01*
X187698890Y-133680000D01*
X187684002Y-133605153D01*
X187684002Y-132994802D01*
X188365736Y-132313069D01*
X188429192Y-132270669D01*
X188597167Y-132019277D01*
X188641263Y-131797592D01*
X188641263Y-131797587D01*
X188656151Y-131722740D01*
X188641263Y-131647893D01*
X188641263Y-131347440D01*
X188681250Y-131347440D01*
X189022294Y-131279602D01*
X189311416Y-131086416D01*
X189442963Y-130889544D01*
X189794126Y-131035000D01*
X190205874Y-131035000D01*
X190586280Y-130877431D01*
X190877431Y-130586280D01*
X191035000Y-130205874D01*
X191035000Y-129794126D01*
X190877431Y-129413720D01*
X190586280Y-129122569D01*
X190205874Y-128965000D01*
X189794126Y-128965000D01*
X189442963Y-129110456D01*
X189311416Y-128913584D01*
X189157495Y-128810737D01*
X189306505Y-128587727D01*
X189372440Y-128256250D01*
X189372440Y-127743750D01*
X189306505Y-127412273D01*
X189118739Y-127131261D01*
X188837727Y-126943495D01*
X188506250Y-126877560D01*
X188068750Y-126877560D01*
X187737273Y-126943495D01*
X187574969Y-127051943D01*
X187509698Y-126986673D01*
X187276309Y-126890000D01*
X186998250Y-126890000D01*
X186839500Y-127048750D01*
X186839500Y-127873000D01*
X186859500Y-127873000D01*
X186859500Y-128127000D01*
X186839500Y-128127000D01*
X186839500Y-128147000D01*
X186585500Y-128147000D01*
X186585500Y-128127000D01*
X185798750Y-128127000D01*
X185640000Y-128285750D01*
X185640000Y-128601310D01*
X185709025Y-128767950D01*
X185536673Y-128940301D01*
X185440000Y-129173690D01*
X185440000Y-129714250D01*
X185598750Y-129873000D01*
X186435500Y-129873000D01*
X186435500Y-129853000D01*
X186689500Y-129853000D01*
X186689500Y-129873000D01*
X186709500Y-129873000D01*
X186709500Y-130127000D01*
X186689500Y-130127000D01*
X186689500Y-131176250D01*
X186848250Y-131335000D01*
X187121264Y-131335000D01*
X187121264Y-131407938D01*
X186938238Y-131590963D01*
X186846766Y-131529843D01*
X186599001Y-131480560D01*
X186285583Y-131480560D01*
X186240327Y-131371302D01*
X186204025Y-131335000D01*
X186276750Y-131335000D01*
X186435500Y-131176250D01*
X186435500Y-130127000D01*
X185598750Y-130127000D01*
X185440000Y-130285750D01*
X185440000Y-130826310D01*
X185536673Y-131059699D01*
X185572975Y-131096001D01*
X185447998Y-131096001D01*
X185447998Y-131132492D01*
X185374652Y-131117903D01*
X185352750Y-131096001D01*
X185321691Y-131096001D01*
X185303151Y-131103681D01*
X185202001Y-131083561D01*
X184948001Y-131083561D01*
X184825002Y-131108027D01*
X184702002Y-131083561D01*
X184448002Y-131083561D01*
X184200237Y-131132844D01*
X183990193Y-131273192D01*
X183849845Y-131483236D01*
X183847903Y-131493000D01*
X183760000Y-131493000D01*
X183760000Y-127398690D01*
X185640000Y-127398690D01*
X185640000Y-127714250D01*
X185798750Y-127873000D01*
X186585500Y-127873000D01*
X186585500Y-127048750D01*
X186426750Y-126890000D01*
X186148691Y-126890000D01*
X185915302Y-126986673D01*
X185736673Y-127165301D01*
X185640000Y-127398690D01*
X183760000Y-127398690D01*
X183760000Y-117613803D01*
X185319705Y-119173508D01*
X185101161Y-119500582D01*
X184985908Y-120080000D01*
X185101161Y-120659418D01*
X185429375Y-121150625D01*
X185920582Y-121478839D01*
X186353744Y-121565000D01*
X186646256Y-121565000D01*
X187079418Y-121478839D01*
X187570625Y-121150625D01*
X187770000Y-120852239D01*
X187969375Y-121150625D01*
X188460582Y-121478839D01*
X188893744Y-121565000D01*
X189186256Y-121565000D01*
X189619418Y-121478839D01*
X190110625Y-121150625D01*
X190438839Y-120659418D01*
X190554092Y-120080000D01*
X190438839Y-119500582D01*
X190220295Y-119173508D01*
X190984473Y-118409331D01*
X191047929Y-118366931D01*
X191215904Y-118115539D01*
X191260000Y-117893854D01*
X191260000Y-117893849D01*
X191274888Y-117819002D01*
X191260000Y-117744155D01*
X191260000Y-95314801D01*
X204039802Y-82535000D01*
X204205874Y-82535000D01*
X204586280Y-82377431D01*
X204877431Y-82086280D01*
X204916693Y-81991494D01*
X215790198Y-92865000D01*
X196000000Y-92865000D01*
X195756996Y-92913336D01*
X195550987Y-93050987D01*
X195413336Y-93256996D01*
X195365000Y-93500000D01*
X195365000Y-99315000D01*
X195067461Y-99315000D01*
X195000000Y-99301581D01*
X194932538Y-99315000D01*
X194732727Y-99354745D01*
X194506143Y-99506143D01*
X194354745Y-99732727D01*
X194301581Y-100000000D01*
X194315000Y-100067462D01*
X194315001Y-128567462D01*
X194316881Y-128576914D01*
X194320724Y-128714500D01*
X194321865Y-128722832D01*
X194321396Y-128731226D01*
X194329655Y-128807254D01*
X194453129Y-129553097D01*
X194462786Y-129587684D01*
X194468526Y-129623125D01*
X194492918Y-129695606D01*
X194773670Y-130397536D01*
X194790526Y-130429238D01*
X194803745Y-130462625D01*
X194843124Y-130528163D01*
X194843132Y-130528177D01*
X194843137Y-130528183D01*
X195268066Y-131153447D01*
X195291336Y-131180790D01*
X195311416Y-131210559D01*
X195363961Y-131266124D01*
X195913248Y-131785558D01*
X195941848Y-131807267D01*
X195967851Y-131832029D01*
X196031102Y-131875015D01*
X196679118Y-132264381D01*
X196711708Y-132279440D01*
X196742424Y-132298042D01*
X196813422Y-132326439D01*
X196813432Y-132326443D01*
X196813438Y-132326444D01*
X197529939Y-132567574D01*
X197565006Y-132575284D01*
X197598998Y-132586856D01*
X197674428Y-132599343D01*
X197674446Y-132599347D01*
X197674455Y-132599347D01*
X198426021Y-132680993D01*
X198434428Y-132680993D01*
X198442680Y-132682597D01*
X198519125Y-132684733D01*
X198714500Y-132679276D01*
X198722832Y-132678135D01*
X198731226Y-132678604D01*
X198807254Y-132670345D01*
X199553097Y-132546871D01*
X199587684Y-132537214D01*
X199623125Y-132531474D01*
X199695606Y-132507082D01*
X200397536Y-132226330D01*
X200429238Y-132209474D01*
X200462625Y-132196255D01*
X200528163Y-132156876D01*
X200528177Y-132156868D01*
X200528183Y-132156863D01*
X201153447Y-131731934D01*
X201180790Y-131708664D01*
X201210559Y-131688584D01*
X201266124Y-131636039D01*
X201785558Y-131086752D01*
X201807267Y-131058152D01*
X201832029Y-131032149D01*
X201875015Y-130968898D01*
X202264381Y-130320882D01*
X202279440Y-130288292D01*
X202298042Y-130257576D01*
X202326439Y-130186578D01*
X202326443Y-130186568D01*
X202326444Y-130186562D01*
X202567574Y-129470061D01*
X202575284Y-129434994D01*
X202586856Y-129401002D01*
X202599343Y-129325572D01*
X202599347Y-129325554D01*
X202599347Y-129325545D01*
X202677731Y-128604005D01*
X202685000Y-128567462D01*
X202685000Y-104537095D01*
X202754603Y-103896386D01*
X202948264Y-103320936D01*
X203260977Y-102800491D01*
X203678153Y-102359339D01*
X204180328Y-102018061D01*
X204744074Y-101792579D01*
X205343089Y-101693413D01*
X205949421Y-101725189D01*
X206534788Y-101886427D01*
X207071874Y-102169600D01*
X207535623Y-102561498D01*
X207904404Y-103043843D01*
X208161002Y-103594120D01*
X208297400Y-104204327D01*
X208315001Y-104519152D01*
X208315000Y-128567461D01*
X208316881Y-128576919D01*
X208320724Y-128714500D01*
X208321865Y-128722832D01*
X208321396Y-128731226D01*
X208329655Y-128807254D01*
X208453129Y-129553097D01*
X208462786Y-129587684D01*
X208468526Y-129623125D01*
X208492918Y-129695606D01*
X208773670Y-130397536D01*
X208790526Y-130429238D01*
X208803745Y-130462625D01*
X208843124Y-130528163D01*
X208843132Y-130528177D01*
X208843137Y-130528183D01*
X209268066Y-131153447D01*
X209291336Y-131180790D01*
X209311416Y-131210559D01*
X209363961Y-131266124D01*
X209913248Y-131785558D01*
X209941848Y-131807267D01*
X209967851Y-131832029D01*
X210031102Y-131875015D01*
X210679118Y-132264381D01*
X210711708Y-132279440D01*
X210742424Y-132298042D01*
X210813422Y-132326439D01*
X210813432Y-132326443D01*
X210813438Y-132326444D01*
X211529939Y-132567574D01*
X211565006Y-132575284D01*
X211598998Y-132586856D01*
X211674428Y-132599343D01*
X211674446Y-132599347D01*
X211674455Y-132599347D01*
X212426021Y-132680993D01*
X212434428Y-132680993D01*
X212442680Y-132682597D01*
X212519125Y-132684733D01*
X212714500Y-132679276D01*
X212722832Y-132678135D01*
X212731226Y-132678604D01*
X212807254Y-132670345D01*
X213553097Y-132546871D01*
X213587684Y-132537214D01*
X213623125Y-132531474D01*
X213695606Y-132507082D01*
X214397536Y-132226330D01*
X214429238Y-132209474D01*
X214462625Y-132196255D01*
X214528163Y-132156876D01*
X214528177Y-132156868D01*
X214528183Y-132156863D01*
X215153447Y-131731934D01*
X215180790Y-131708664D01*
X215210559Y-131688584D01*
X215266124Y-131636039D01*
X215785558Y-131086752D01*
X215807267Y-131058152D01*
X215832029Y-131032149D01*
X215875015Y-130968898D01*
X216264381Y-130320882D01*
X216279440Y-130288292D01*
X216298042Y-130257576D01*
X216326439Y-130186578D01*
X216326443Y-130186568D01*
X216326444Y-130186562D01*
X216567574Y-129470061D01*
X216575284Y-129434994D01*
X216586856Y-129401002D01*
X216599343Y-129325572D01*
X216599347Y-129325554D01*
X216599347Y-129325545D01*
X216677731Y-128604005D01*
X216685000Y-128567462D01*
X216685000Y-111135000D01*
X218402560Y-111135000D01*
X218402560Y-111500000D01*
X218451843Y-111747765D01*
X218592191Y-111957809D01*
X218670557Y-112010172D01*
X218685441Y-112085000D01*
X218713448Y-112225800D01*
X218802898Y-112359671D01*
X218898000Y-112502001D01*
X218967717Y-112548584D01*
X219001415Y-112582282D01*
X219048000Y-112652002D01*
X219324200Y-112836553D01*
X219467212Y-112865000D01*
X218500000Y-112865000D01*
X218256996Y-112913336D01*
X218050987Y-113050987D01*
X217913336Y-113256996D01*
X217865000Y-113500000D01*
X217865000Y-118500000D01*
X217913336Y-118743004D01*
X218050987Y-118949013D01*
X218256996Y-119086664D01*
X218500000Y-119135000D01*
X229000000Y-119135000D01*
X229243004Y-119086664D01*
X229449013Y-118949013D01*
X229586664Y-118743004D01*
X229635000Y-118500000D01*
X229635000Y-110500000D01*
X229586664Y-110256996D01*
X229449013Y-110050987D01*
X229243004Y-109913336D01*
X229000000Y-109865000D01*
X226500000Y-109865000D01*
X226422440Y-109880427D01*
X226422440Y-109461585D01*
X226465904Y-109396537D01*
X226490000Y-109275399D01*
X226490000Y-109464250D01*
X226648750Y-109623000D01*
X227373000Y-109623000D01*
X227373000Y-108873750D01*
X227627000Y-108873750D01*
X227627000Y-109623000D01*
X228351250Y-109623000D01*
X228510000Y-109464250D01*
X228510000Y-109223691D01*
X228413327Y-108990302D01*
X228234699Y-108811673D01*
X228001310Y-108715000D01*
X227785750Y-108715000D01*
X227627000Y-108873750D01*
X227373000Y-108873750D01*
X227214250Y-108715000D01*
X226998690Y-108715000D01*
X226765301Y-108811673D01*
X226586673Y-108990302D01*
X226509788Y-109175919D01*
X226510000Y-109174852D01*
X226510000Y-109174848D01*
X226524888Y-109100001D01*
X226510000Y-109025154D01*
X226510000Y-108358026D01*
X226640302Y-108488327D01*
X226873691Y-108585000D01*
X226966250Y-108585000D01*
X227125000Y-108426250D01*
X227125000Y-107627000D01*
X227375000Y-107627000D01*
X227375000Y-108426250D01*
X227533750Y-108585000D01*
X227626309Y-108585000D01*
X227859698Y-108488327D01*
X228038327Y-108309699D01*
X228135000Y-108076310D01*
X228135000Y-107785750D01*
X227976250Y-107627000D01*
X227375000Y-107627000D01*
X227125000Y-107627000D01*
X227103000Y-107627000D01*
X227103000Y-107373000D01*
X227125000Y-107373000D01*
X227125000Y-106573750D01*
X227375000Y-106573750D01*
X227375000Y-107373000D01*
X227976250Y-107373000D01*
X228135000Y-107214250D01*
X228135000Y-106923690D01*
X228038327Y-106690301D01*
X227859698Y-106511673D01*
X227626309Y-106415000D01*
X227533750Y-106415000D01*
X227375000Y-106573750D01*
X227125000Y-106573750D01*
X226966250Y-106415000D01*
X226873691Y-106415000D01*
X226640302Y-106511673D01*
X226498654Y-106653320D01*
X226457809Y-106592191D01*
X226247765Y-106451843D01*
X226000000Y-106402560D01*
X225500000Y-106402560D01*
X225252235Y-106451843D01*
X225250000Y-106453336D01*
X225247765Y-106451843D01*
X225000000Y-106402560D01*
X224535000Y-106402560D01*
X224535000Y-106044126D01*
X224377431Y-105663720D01*
X224086280Y-105372569D01*
X223705874Y-105215000D01*
X223294126Y-105215000D01*
X223135000Y-105280912D01*
X223135000Y-94969822D01*
X223252235Y-95048157D01*
X223500000Y-95097440D01*
X224000000Y-95097440D01*
X224247765Y-95048157D01*
X224457809Y-94907809D01*
X224500000Y-94844666D01*
X224542191Y-94907809D01*
X224752235Y-95048157D01*
X225000000Y-95097440D01*
X225500000Y-95097440D01*
X225747765Y-95048157D01*
X225957809Y-94907809D01*
X226056573Y-94760000D01*
X226308604Y-94760000D01*
X226381261Y-94868739D01*
X226662273Y-95056505D01*
X226993750Y-95122440D01*
X227431250Y-95122440D01*
X227545530Y-95099708D01*
X227465000Y-95294126D01*
X227465000Y-95705874D01*
X227622569Y-96086280D01*
X227913720Y-96377431D01*
X228294126Y-96535000D01*
X228705874Y-96535000D01*
X229086280Y-96377431D01*
X229377431Y-96086280D01*
X229535000Y-95705874D01*
X229535000Y-95350194D01*
X229547500Y-95287352D01*
X229547500Y-95287348D01*
X229562388Y-95212501D01*
X229547500Y-95137654D01*
X229547500Y-94916339D01*
X229618739Y-94868739D01*
X229806505Y-94587727D01*
X229872440Y-94256250D01*
X229872440Y-93743750D01*
X229806505Y-93412273D01*
X229618739Y-93131261D01*
X229337727Y-92943495D01*
X229006250Y-92877560D01*
X228568750Y-92877560D01*
X228237273Y-92943495D01*
X228000000Y-93102036D01*
X227762727Y-92943495D01*
X227431250Y-92877560D01*
X226993750Y-92877560D01*
X226662273Y-92943495D01*
X226381261Y-93131261D01*
X226308604Y-93240000D01*
X226056573Y-93240000D01*
X225957809Y-93092191D01*
X225747765Y-92951843D01*
X225500000Y-92902560D01*
X225000000Y-92902560D01*
X224752235Y-92951843D01*
X224542191Y-93092191D01*
X224500000Y-93155334D01*
X224457809Y-93092191D01*
X224247765Y-92951843D01*
X224000000Y-92902560D01*
X223500000Y-92902560D01*
X223252235Y-92951843D01*
X223042191Y-93092191D01*
X223009368Y-93141314D01*
X222949013Y-93050987D01*
X222743004Y-92913336D01*
X222500000Y-92865000D01*
X217939802Y-92865000D01*
X214834802Y-89760000D01*
X222943427Y-89760000D01*
X223042191Y-89907809D01*
X223252235Y-90048157D01*
X223500000Y-90097440D01*
X224000000Y-90097440D01*
X224247765Y-90048157D01*
X224457809Y-89907809D01*
X224500000Y-89844666D01*
X224542191Y-89907809D01*
X224752235Y-90048157D01*
X225000000Y-90097440D01*
X225500000Y-90097440D01*
X225747765Y-90048157D01*
X225957809Y-89907809D01*
X226056573Y-89760000D01*
X226308604Y-89760000D01*
X226381261Y-89868739D01*
X226662273Y-90056505D01*
X226993750Y-90122440D01*
X227431250Y-90122440D01*
X227545530Y-90099708D01*
X227465000Y-90294126D01*
X227465000Y-90705874D01*
X227622569Y-91086280D01*
X227913720Y-91377431D01*
X228294126Y-91535000D01*
X228705874Y-91535000D01*
X229086280Y-91377431D01*
X229377431Y-91086280D01*
X229535000Y-90705874D01*
X229535000Y-90350194D01*
X229547500Y-90287352D01*
X229547500Y-90287348D01*
X229562388Y-90212501D01*
X229547500Y-90137654D01*
X229547500Y-89916339D01*
X229618739Y-89868739D01*
X229806505Y-89587727D01*
X229872440Y-89256250D01*
X229872440Y-88743750D01*
X229806505Y-88412273D01*
X229618739Y-88131261D01*
X229337727Y-87943495D01*
X229006250Y-87877560D01*
X228568750Y-87877560D01*
X228237273Y-87943495D01*
X228000000Y-88102036D01*
X227762727Y-87943495D01*
X227431250Y-87877560D01*
X226993750Y-87877560D01*
X226662273Y-87943495D01*
X226381261Y-88131261D01*
X226308604Y-88240000D01*
X226056573Y-88240000D01*
X225957809Y-88092191D01*
X225747765Y-87951843D01*
X225500000Y-87902560D01*
X225000000Y-87902560D01*
X224752235Y-87951843D01*
X224542191Y-88092191D01*
X224500000Y-88155334D01*
X224457809Y-88092191D01*
X224247765Y-87951843D01*
X224000000Y-87902560D01*
X223500000Y-87902560D01*
X223252235Y-87951843D01*
X223042191Y-88092191D01*
X222943427Y-88240000D01*
X214064802Y-88240000D01*
X210584802Y-84760000D01*
X222943427Y-84760000D01*
X223042191Y-84907809D01*
X223252235Y-85048157D01*
X223500000Y-85097440D01*
X224000000Y-85097440D01*
X224247765Y-85048157D01*
X224457809Y-84907809D01*
X224500000Y-84844666D01*
X224542191Y-84907809D01*
X224752235Y-85048157D01*
X225000000Y-85097440D01*
X225500000Y-85097440D01*
X225747765Y-85048157D01*
X225957809Y-84907809D01*
X226056573Y-84760000D01*
X226308604Y-84760000D01*
X226381261Y-84868739D01*
X226662273Y-85056505D01*
X226993750Y-85122440D01*
X227431250Y-85122440D01*
X227545530Y-85099708D01*
X227465000Y-85294126D01*
X227465000Y-85705874D01*
X227622569Y-86086280D01*
X227913720Y-86377431D01*
X228294126Y-86535000D01*
X228705874Y-86535000D01*
X229086280Y-86377431D01*
X229377431Y-86086280D01*
X229535000Y-85705874D01*
X229535000Y-85350194D01*
X229547500Y-85287352D01*
X229547500Y-85287348D01*
X229562388Y-85212501D01*
X229547500Y-85137654D01*
X229547500Y-84916339D01*
X229618739Y-84868739D01*
X229806505Y-84587727D01*
X229872440Y-84256250D01*
X229872440Y-83743750D01*
X229806505Y-83412273D01*
X229618739Y-83131261D01*
X229337727Y-82943495D01*
X229006250Y-82877560D01*
X228568750Y-82877560D01*
X228237273Y-82943495D01*
X228000000Y-83102036D01*
X227762727Y-82943495D01*
X227431250Y-82877560D01*
X226993750Y-82877560D01*
X226662273Y-82943495D01*
X226381261Y-83131261D01*
X226308604Y-83240000D01*
X226056573Y-83240000D01*
X225957809Y-83092191D01*
X225747765Y-82951843D01*
X225500000Y-82902560D01*
X225000000Y-82902560D01*
X224752235Y-82951843D01*
X224542191Y-83092191D01*
X224500000Y-83155334D01*
X224457809Y-83092191D01*
X224247765Y-82951843D01*
X224000000Y-82902560D01*
X223500000Y-82902560D01*
X223252235Y-82951843D01*
X223042191Y-83092191D01*
X222943427Y-83240000D01*
X209814802Y-83240000D01*
X205800381Y-79225580D01*
X205800381Y-78821371D01*
X205870953Y-78868526D01*
X206118718Y-78917809D01*
X206366483Y-78868526D01*
X206462081Y-78804649D01*
X207141904Y-79484473D01*
X207184304Y-79547929D01*
X207435696Y-79715904D01*
X207657381Y-79760000D01*
X207657386Y-79760000D01*
X207732233Y-79774888D01*
X207807080Y-79760000D01*
X222943427Y-79760000D01*
X223042191Y-79907809D01*
X223252235Y-80048157D01*
X223500000Y-80097440D01*
X224000000Y-80097440D01*
X224247765Y-80048157D01*
X224457809Y-79907809D01*
X224500000Y-79844666D01*
X224542191Y-79907809D01*
X224752235Y-80048157D01*
X225000000Y-80097440D01*
X225500000Y-80097440D01*
X225747765Y-80048157D01*
X225957809Y-79907809D01*
X226056573Y-79760000D01*
X226308604Y-79760000D01*
X226381261Y-79868739D01*
X226662273Y-80056505D01*
X226993750Y-80122440D01*
X227431250Y-80122440D01*
X227545530Y-80099708D01*
X227465000Y-80294126D01*
X227465000Y-80705874D01*
X227622569Y-81086280D01*
X227913720Y-81377431D01*
X228294126Y-81535000D01*
X228705874Y-81535000D01*
X229086280Y-81377431D01*
X229377431Y-81086280D01*
X229535000Y-80705874D01*
X229535000Y-80350194D01*
X229547500Y-80287352D01*
X229547500Y-80287348D01*
X229562388Y-80212501D01*
X229547500Y-80137654D01*
X229547500Y-79916339D01*
X229618739Y-79868739D01*
X229806505Y-79587727D01*
X229872440Y-79256250D01*
X229872440Y-78743750D01*
X229806505Y-78412273D01*
X229618739Y-78131261D01*
X229337727Y-77943495D01*
X229006250Y-77877560D01*
X228568750Y-77877560D01*
X228237273Y-77943495D01*
X228000000Y-78102036D01*
X227762727Y-77943495D01*
X227431250Y-77877560D01*
X226993750Y-77877560D01*
X226662273Y-77943495D01*
X226381261Y-78131261D01*
X226308604Y-78240000D01*
X226056573Y-78240000D01*
X225957809Y-78092191D01*
X225747765Y-77951843D01*
X225500000Y-77902560D01*
X225000000Y-77902560D01*
X224752235Y-77951843D01*
X224542191Y-78092191D01*
X224500000Y-78155334D01*
X224457809Y-78092191D01*
X224247765Y-77951843D01*
X224000000Y-77902560D01*
X223500000Y-77902560D01*
X223252235Y-77951843D01*
X223042191Y-78092191D01*
X222943427Y-78240000D01*
X209535000Y-78240000D01*
X209535000Y-78160022D01*
X210525131Y-78160022D01*
X210599978Y-78174910D01*
X210674825Y-78160022D01*
X210674830Y-78160022D01*
X210896515Y-78115926D01*
X211147907Y-77947951D01*
X211190309Y-77884492D01*
X214314802Y-74760000D01*
X222943427Y-74760000D01*
X223042191Y-74907809D01*
X223252235Y-75048157D01*
X223500000Y-75097440D01*
X224000000Y-75097440D01*
X224247765Y-75048157D01*
X224457809Y-74907809D01*
X224500000Y-74844666D01*
X224542191Y-74907809D01*
X224752235Y-75048157D01*
X225000000Y-75097440D01*
X225500000Y-75097440D01*
X225747765Y-75048157D01*
X225957809Y-74907809D01*
X226056573Y-74760000D01*
X226308604Y-74760000D01*
X226381261Y-74868739D01*
X226662273Y-75056505D01*
X226993750Y-75122440D01*
X227431250Y-75122440D01*
X227545530Y-75099708D01*
X227465000Y-75294126D01*
X227465000Y-75705874D01*
X227622569Y-76086280D01*
X227913720Y-76377431D01*
X228294126Y-76535000D01*
X228705874Y-76535000D01*
X229086280Y-76377431D01*
X229377431Y-76086280D01*
X229535000Y-75705874D01*
X229535000Y-75350194D01*
X229547500Y-75287352D01*
X229547500Y-75287348D01*
X229562388Y-75212501D01*
X229547500Y-75137654D01*
X229547500Y-74916339D01*
X229618739Y-74868739D01*
X229806505Y-74587727D01*
X229872440Y-74256250D01*
X229872440Y-73743750D01*
X229806505Y-73412273D01*
X229618739Y-73131261D01*
X229337727Y-72943495D01*
X229006250Y-72877560D01*
X228568750Y-72877560D01*
X228237273Y-72943495D01*
X228000000Y-73102036D01*
X227762727Y-72943495D01*
X227431250Y-72877560D01*
X226993750Y-72877560D01*
X226662273Y-72943495D01*
X226381261Y-73131261D01*
X226308604Y-73240000D01*
X226056573Y-73240000D01*
X225957809Y-73092191D01*
X225747765Y-72951843D01*
X225500000Y-72902560D01*
X225000000Y-72902560D01*
X224752235Y-72951843D01*
X224542191Y-73092191D01*
X224500000Y-73155334D01*
X224457809Y-73092191D01*
X224247765Y-72951843D01*
X224000000Y-72902560D01*
X223500000Y-72902560D01*
X223252235Y-72951843D01*
X223042191Y-73092191D01*
X222943427Y-73240000D01*
X215198392Y-73240000D01*
X218678393Y-69760000D01*
X222943427Y-69760000D01*
X223042191Y-69907809D01*
X223252235Y-70048157D01*
X223500000Y-70097440D01*
X224000000Y-70097440D01*
X224247765Y-70048157D01*
X224457809Y-69907809D01*
X224500000Y-69844666D01*
X224542191Y-69907809D01*
X224752235Y-70048157D01*
X225000000Y-70097440D01*
X225500000Y-70097440D01*
X225747765Y-70048157D01*
X225957809Y-69907809D01*
X226056573Y-69760000D01*
X226308604Y-69760000D01*
X226381261Y-69868739D01*
X226662273Y-70056505D01*
X226993750Y-70122440D01*
X227431250Y-70122440D01*
X227545530Y-70099708D01*
X227465000Y-70294126D01*
X227465000Y-70705874D01*
X227622569Y-71086280D01*
X227913720Y-71377431D01*
X228294126Y-71535000D01*
X228705874Y-71535000D01*
X229086280Y-71377431D01*
X229377431Y-71086280D01*
X229535000Y-70705874D01*
X229535000Y-70350194D01*
X229547500Y-70287352D01*
X229547500Y-70287348D01*
X229562388Y-70212501D01*
X229547500Y-70137654D01*
X229547500Y-69916339D01*
X229618739Y-69868739D01*
X229806505Y-69587727D01*
X229872440Y-69256250D01*
X229872440Y-68743750D01*
X229806505Y-68412273D01*
X229618739Y-68131261D01*
X229337727Y-67943495D01*
X229006250Y-67877560D01*
X228568750Y-67877560D01*
X228237273Y-67943495D01*
X228000000Y-68102036D01*
X227762727Y-67943495D01*
X227431250Y-67877560D01*
X226993750Y-67877560D01*
X226662273Y-67943495D01*
X226381261Y-68131261D01*
X226308604Y-68240000D01*
X226056573Y-68240000D01*
X225957809Y-68092191D01*
X225747765Y-67951843D01*
X225500000Y-67902560D01*
X225000000Y-67902560D01*
X224752235Y-67951843D01*
X224542191Y-68092191D01*
X224500000Y-68155334D01*
X224457809Y-68092191D01*
X224247765Y-67951843D01*
X224000000Y-67902560D01*
X223500000Y-67902560D01*
X223252235Y-67951843D01*
X223042191Y-68092191D01*
X222943427Y-68240000D01*
X219561981Y-68240000D01*
X222982903Y-64819079D01*
X223042191Y-64907809D01*
X223252235Y-65048157D01*
X223500000Y-65097440D01*
X224000000Y-65097440D01*
X224247765Y-65048157D01*
X224457809Y-64907809D01*
X224500000Y-64844666D01*
X224542191Y-64907809D01*
X224752235Y-65048157D01*
X225000000Y-65097440D01*
X225500000Y-65097440D01*
X225747765Y-65048157D01*
X225957809Y-64907809D01*
X226056573Y-64760000D01*
X226308604Y-64760000D01*
X226381261Y-64868739D01*
X226662273Y-65056505D01*
X226993750Y-65122440D01*
X227431250Y-65122440D01*
X227545530Y-65099708D01*
X227465000Y-65294126D01*
X227465000Y-65705874D01*
X227622569Y-66086280D01*
X227913720Y-66377431D01*
X228294126Y-66535000D01*
X228705874Y-66535000D01*
X229086280Y-66377431D01*
X229377431Y-66086280D01*
X229535000Y-65705874D01*
X229535000Y-65350194D01*
X229547500Y-65287352D01*
X229547500Y-65287348D01*
X229562388Y-65212501D01*
X229547500Y-65137654D01*
X229547500Y-64916339D01*
X229618739Y-64868739D01*
X229806505Y-64587727D01*
X229872440Y-64256250D01*
X229872440Y-63743750D01*
X229806505Y-63412273D01*
X229618739Y-63131261D01*
X229337727Y-62943495D01*
X229006250Y-62877560D01*
X228568750Y-62877560D01*
X228237273Y-62943495D01*
X228000000Y-63102036D01*
X227762727Y-62943495D01*
X227431250Y-62877560D01*
X226993750Y-62877560D01*
X226662273Y-62943495D01*
X226381261Y-63131261D01*
X226308604Y-63240000D01*
X226056573Y-63240000D01*
X225957809Y-63092191D01*
X225747765Y-62951843D01*
X225500000Y-62902560D01*
X225000000Y-62902560D01*
X224752235Y-62951843D01*
X224542191Y-63092191D01*
X224500000Y-63155334D01*
X224457809Y-63092191D01*
X224247765Y-62951843D01*
X224143665Y-62931137D01*
X224234473Y-62840329D01*
X224297929Y-62797929D01*
X224465904Y-62546537D01*
X224510000Y-62324852D01*
X224510000Y-62324847D01*
X224524888Y-62250000D01*
X224510000Y-62175153D01*
X224510000Y-59859632D01*
X224542191Y-59907809D01*
X224752235Y-60048157D01*
X225000000Y-60097440D01*
X225500000Y-60097440D01*
X225747765Y-60048157D01*
X225957809Y-59907809D01*
X226056573Y-59760000D01*
X226308604Y-59760000D01*
X226381261Y-59868739D01*
X226662273Y-60056505D01*
X226993750Y-60122440D01*
X227431250Y-60122440D01*
X227545530Y-60099708D01*
X227465000Y-60294126D01*
X227465000Y-60705874D01*
X227622569Y-61086280D01*
X227913720Y-61377431D01*
X228294126Y-61535000D01*
X228705874Y-61535000D01*
X229086280Y-61377431D01*
X229377431Y-61086280D01*
X229535000Y-60705874D01*
X229535000Y-60350194D01*
X229547500Y-60287352D01*
X229547500Y-60287348D01*
X229562388Y-60212501D01*
X229547500Y-60137654D01*
X229547500Y-59916339D01*
X229618739Y-59868739D01*
X229806505Y-59587727D01*
X229872440Y-59256250D01*
X229872440Y-58743750D01*
X229806505Y-58412273D01*
X229618739Y-58131261D01*
X229337727Y-57943495D01*
X229006250Y-57877560D01*
X228568750Y-57877560D01*
X228237273Y-57943495D01*
X228000000Y-58102036D01*
X227762727Y-57943495D01*
X227431250Y-57877560D01*
X226993750Y-57877560D01*
X226662273Y-57943495D01*
X226381261Y-58131261D01*
X226308604Y-58240000D01*
X226056573Y-58240000D01*
X225957809Y-58092191D01*
X225747765Y-57951843D01*
X225500000Y-57902560D01*
X225000000Y-57902560D01*
X224752235Y-57951843D01*
X224542191Y-58092191D01*
X224500000Y-58155334D01*
X224457809Y-58092191D01*
X224247765Y-57951843D01*
X224000000Y-57902560D01*
X223500000Y-57902560D01*
X223252235Y-57951843D01*
X223042191Y-58092191D01*
X222901843Y-58302235D01*
X222852560Y-58550000D01*
X222852560Y-59450000D01*
X222901843Y-59697765D01*
X222990000Y-59829701D01*
X222990001Y-61935197D01*
X211463015Y-73462184D01*
X209054022Y-73462184D01*
X209192706Y-73127371D01*
X209192706Y-72715623D01*
X209035137Y-72335217D01*
X208743986Y-72044066D01*
X208550302Y-71963839D01*
X224234473Y-56279669D01*
X224297929Y-56237269D01*
X224364287Y-56137958D01*
X224465904Y-55985878D01*
X224493337Y-55847961D01*
X224510000Y-55764192D01*
X224510000Y-55764188D01*
X224524888Y-55689340D01*
X224510000Y-55614492D01*
X224510000Y-54859632D01*
X224542191Y-54907809D01*
X224752235Y-55048157D01*
X225000000Y-55097440D01*
X225500000Y-55097440D01*
X225747765Y-55048157D01*
X225957809Y-54907809D01*
X226056573Y-54760000D01*
X226308604Y-54760000D01*
X226381261Y-54868739D01*
X226662273Y-55056505D01*
X226993750Y-55122440D01*
X227431250Y-55122440D01*
X227545530Y-55099708D01*
X227465000Y-55294126D01*
X227465000Y-55705874D01*
X227622569Y-56086280D01*
X227913720Y-56377431D01*
X228294126Y-56535000D01*
X228705874Y-56535000D01*
X229086280Y-56377431D01*
X229377431Y-56086280D01*
X229535000Y-55705874D01*
X229535000Y-55350194D01*
X229547500Y-55287352D01*
X229547500Y-55287348D01*
X229562388Y-55212501D01*
X229547500Y-55137654D01*
X229547500Y-54916339D01*
X229618739Y-54868739D01*
X229806505Y-54587727D01*
X229872440Y-54256250D01*
X229872440Y-53743750D01*
X229806505Y-53412273D01*
X229618739Y-53131261D01*
X229337727Y-52943495D01*
X229006250Y-52877560D01*
X228568750Y-52877560D01*
X228237273Y-52943495D01*
X228000000Y-53102036D01*
X227762727Y-52943495D01*
X227431250Y-52877560D01*
X226993750Y-52877560D01*
X226662273Y-52943495D01*
X226381261Y-53131261D01*
X226308604Y-53240000D01*
X226056573Y-53240000D01*
X225957809Y-53092191D01*
X225747765Y-52951843D01*
X225500000Y-52902560D01*
X225000000Y-52902560D01*
X224752235Y-52951843D01*
X224542191Y-53092191D01*
X224500000Y-53155334D01*
X224457809Y-53092191D01*
X224247765Y-52951843D01*
X224000000Y-52902560D01*
X223500000Y-52902560D01*
X223252235Y-52951843D01*
X223042191Y-53092191D01*
X222901843Y-53302235D01*
X222852560Y-53550000D01*
X222852560Y-54450000D01*
X222901843Y-54697765D01*
X222990001Y-54829701D01*
X222990000Y-55374538D01*
X207149638Y-71214900D01*
X207115843Y-71192319D01*
X205517485Y-69593962D01*
X205747765Y-69548157D01*
X205957809Y-69407809D01*
X205998654Y-69346680D01*
X206140302Y-69488327D01*
X206373691Y-69585000D01*
X206466250Y-69585000D01*
X206625000Y-69426250D01*
X206625000Y-68627000D01*
X206875000Y-68627000D01*
X206875000Y-69426250D01*
X207033750Y-69585000D01*
X207126309Y-69585000D01*
X207359698Y-69488327D01*
X207538327Y-69309699D01*
X207635000Y-69076310D01*
X207635000Y-68785750D01*
X207476250Y-68627000D01*
X206875000Y-68627000D01*
X206625000Y-68627000D01*
X206603000Y-68627000D01*
X206603000Y-68373000D01*
X206625000Y-68373000D01*
X206625000Y-67573750D01*
X206875000Y-67573750D01*
X206875000Y-68373000D01*
X207476250Y-68373000D01*
X207635000Y-68214250D01*
X207635000Y-67923690D01*
X207538327Y-67690301D01*
X207359698Y-67511673D01*
X207126309Y-67415000D01*
X207033750Y-67415000D01*
X206875000Y-67573750D01*
X206625000Y-67573750D01*
X206466250Y-67415000D01*
X206373691Y-67415000D01*
X206140302Y-67511673D01*
X205998654Y-67653320D01*
X205957809Y-67592191D01*
X205747765Y-67451843D01*
X205500000Y-67402560D01*
X205000000Y-67402560D01*
X204752235Y-67451843D01*
X204542191Y-67592191D01*
X204401843Y-67802235D01*
X204352560Y-68050000D01*
X204352560Y-68322638D01*
X204208932Y-68466267D01*
X204205874Y-68465000D01*
X203794126Y-68465000D01*
X203413720Y-68622569D01*
X203122569Y-68913720D01*
X203075948Y-69026273D01*
X202790204Y-68740529D01*
X202747802Y-68677070D01*
X202496410Y-68509095D01*
X202274725Y-68464999D01*
X202274720Y-68464999D01*
X202199873Y-68450111D01*
X202125026Y-68464999D01*
X196073135Y-68464999D01*
X191107298Y-63499163D01*
X191350000Y-63547439D01*
X195100000Y-63547439D01*
X195347765Y-63498156D01*
X195557809Y-63357808D01*
X195698157Y-63147764D01*
X195747440Y-62899999D01*
X195747440Y-55326667D01*
X196562956Y-55326667D01*
X196713720Y-55477431D01*
X197094126Y-55635000D01*
X197505874Y-55635000D01*
X197886280Y-55477431D01*
X198177431Y-55186280D01*
X198335000Y-54805874D01*
X198335000Y-54394126D01*
X198177431Y-54013720D01*
X197886280Y-53722569D01*
X197505874Y-53565000D01*
X197094126Y-53565000D01*
X196713720Y-53722569D01*
X196629622Y-53806667D01*
X195747440Y-53806667D01*
X195747440Y-52900001D01*
X195739483Y-52860000D01*
X197421104Y-52860000D01*
X197493761Y-52968739D01*
X197774773Y-53156505D01*
X198106250Y-53222440D01*
X198543750Y-53222440D01*
X198875227Y-53156505D01*
X199037531Y-53048057D01*
X199102802Y-53113327D01*
X199336191Y-53210000D01*
X199614250Y-53210000D01*
X199773000Y-53051250D01*
X199773000Y-52227000D01*
X200027000Y-52227000D01*
X200027000Y-53051250D01*
X200185750Y-53210000D01*
X200463809Y-53210000D01*
X200697198Y-53113327D01*
X200875827Y-52934699D01*
X200972500Y-52701310D01*
X200972500Y-52385750D01*
X200843642Y-52256892D01*
X202618514Y-52256892D01*
X202864817Y-52781358D01*
X203293076Y-53171645D01*
X203703110Y-53341476D01*
X203933000Y-53220155D01*
X203933000Y-52027000D01*
X202739181Y-52027000D01*
X202618514Y-52256892D01*
X200843642Y-52256892D01*
X200813750Y-52227000D01*
X200027000Y-52227000D01*
X199773000Y-52227000D01*
X199753000Y-52227000D01*
X199753000Y-51973000D01*
X199773000Y-51973000D01*
X199773000Y-51148750D01*
X200027000Y-51148750D01*
X200027000Y-51973000D01*
X200813750Y-51973000D01*
X200972500Y-51814250D01*
X200972500Y-51498690D01*
X200875827Y-51265301D01*
X200697198Y-51086673D01*
X200463809Y-50990000D01*
X200185750Y-50990000D01*
X200027000Y-51148750D01*
X199773000Y-51148750D01*
X199614250Y-50990000D01*
X199336191Y-50990000D01*
X199102802Y-51086673D01*
X199037531Y-51151943D01*
X198875227Y-51043495D01*
X198543750Y-50977560D01*
X198106250Y-50977560D01*
X197774773Y-51043495D01*
X197493761Y-51231261D01*
X197421104Y-51340000D01*
X190308181Y-51340000D01*
X190233333Y-51325112D01*
X190158485Y-51340000D01*
X190158481Y-51340000D01*
X189984938Y-51374520D01*
X189936795Y-51384096D01*
X189791892Y-51480918D01*
X189685404Y-51552071D01*
X189643004Y-51615527D01*
X189005971Y-52252560D01*
X186350001Y-52252560D01*
X186349997Y-52252561D01*
X184850000Y-52252561D01*
X184602235Y-52301844D01*
X184392191Y-52442192D01*
X184251843Y-52652236D01*
X184202560Y-52900001D01*
X184202560Y-62899999D01*
X184251843Y-63147764D01*
X184392191Y-63357808D01*
X184602235Y-63498156D01*
X184850000Y-63547439D01*
X189005971Y-63547439D01*
X189019570Y-63561038D01*
X189019573Y-63561040D01*
X195168003Y-69709471D01*
X195210404Y-69772928D01*
X195273860Y-69815328D01*
X195461795Y-69940903D01*
X195509938Y-69950479D01*
X195683481Y-69984999D01*
X195683485Y-69984999D01*
X195758333Y-69999887D01*
X195833181Y-69984999D01*
X198897000Y-69984999D01*
X198897000Y-70127000D01*
X198875000Y-70127000D01*
X198875000Y-70147000D01*
X198625000Y-70147000D01*
X198625000Y-70127000D01*
X198023750Y-70127000D01*
X197910750Y-70240000D01*
X188574846Y-70240000D01*
X188499999Y-70225112D01*
X188425152Y-70240000D01*
X188425148Y-70240000D01*
X188203463Y-70284096D01*
X188188452Y-70294126D01*
X188015526Y-70409671D01*
X188015524Y-70409673D01*
X187952071Y-70452071D01*
X187909672Y-70515525D01*
X187485198Y-70940000D01*
X186196105Y-70940000D01*
X186009966Y-70490620D01*
X185409380Y-69890034D01*
X184624678Y-69565000D01*
X183775322Y-69565000D01*
X182990620Y-69890034D01*
X182390034Y-70490620D01*
X182065000Y-71275322D01*
X182065000Y-72124678D01*
X182390034Y-72909380D01*
X182990620Y-73509966D01*
X183775322Y-73835000D01*
X184590199Y-73835000D01*
X182015528Y-76409671D01*
X181952072Y-76452071D01*
X181909672Y-76515527D01*
X181909671Y-76515528D01*
X181784097Y-76703463D01*
X181725112Y-77000000D01*
X181740001Y-77074852D01*
X181740000Y-135425148D01*
X181725111Y-135500000D01*
X180710000Y-135500000D01*
X180710000Y-53041247D01*
X180776100Y-52474292D01*
X180956685Y-51976788D01*
X181246881Y-51534165D01*
X181631116Y-51170177D01*
X182088784Y-50904342D01*
X182604629Y-50748108D01*
X183031618Y-50710000D01*
X203203488Y-50710000D01*
X202864817Y-51018642D01*
X202864817Y-51018642D01*
G37*
X202864817Y-51018642D02*
X202618514Y-51543108D01*
X202739181Y-51773000D01*
X203933000Y-51773000D01*
X203933000Y-51753000D01*
X204187000Y-51753000D01*
X204187000Y-51773000D01*
X204207000Y-51773000D01*
X204207000Y-52027000D01*
X204187000Y-52027000D01*
X204187000Y-53220155D01*
X204416890Y-53341476D01*
X204826924Y-53171645D01*
X205131261Y-52894292D01*
X205151843Y-52997765D01*
X205292191Y-53207809D01*
X205502235Y-53348157D01*
X205750000Y-53397440D01*
X207450000Y-53397440D01*
X207697765Y-53348157D01*
X207907809Y-53207809D01*
X208048157Y-52997765D01*
X208097440Y-52750000D01*
X208097440Y-51050000D01*
X208048157Y-50802235D01*
X207986527Y-50710000D01*
X227958753Y-50710000D01*
X228525708Y-50776100D01*
X229023212Y-50956685D01*
X229465835Y-51246881D01*
X229829823Y-51631116D01*
X230095658Y-52088784D01*
X230251892Y-52604629D01*
X230290001Y-53031629D01*
X230290000Y-135958752D01*
X230223900Y-136525708D01*
X230043315Y-137023212D01*
X229753118Y-137465834D01*
X229368884Y-137829823D01*
X228911216Y-138095658D01*
X228395371Y-138251892D01*
X227968382Y-138290000D01*
X183041248Y-138290000D01*
X182474292Y-138223900D01*
X181976788Y-138043315D01*
X181534166Y-137753118D01*
X181170177Y-137368884D01*
X180904342Y-136911216D01*
X180748108Y-136395371D01*
X180710000Y-135968382D01*
X180710000Y-135500000D01*
X181725111Y-135500000D01*
X181784096Y-135796537D01*
X181877874Y-135936885D01*
X181952071Y-136047929D01*
X182203463Y-136215904D01*
X182500000Y-136274889D01*
X182574852Y-136260000D01*
X183652156Y-136260000D01*
X183727003Y-136274888D01*
X183801850Y-136260000D01*
X183801855Y-136260000D01*
X184023540Y-136215904D01*
X184274932Y-136047929D01*
X184317334Y-135984470D01*
X184387604Y-135914200D01*
X184465000Y-136030032D01*
X184465000Y-136205874D01*
X184622569Y-136586280D01*
X184913720Y-136877431D01*
X185294126Y-137035000D01*
X185705874Y-137035000D01*
X186086280Y-136877431D01*
X186377431Y-136586280D01*
X186535000Y-136205874D01*
X186535000Y-135794126D01*
X186377431Y-135413720D01*
X186171369Y-135207658D01*
X186240327Y-135138700D01*
X186285583Y-135029442D01*
X186599001Y-135029442D01*
X186846766Y-134980159D01*
X187056810Y-134839811D01*
X187197158Y-134629767D01*
X187241513Y-134406775D01*
X187396930Y-134302929D01*
X187426971Y-134257969D01*
X187471931Y-134227928D01*
X187639906Y-133976536D01*
X187684002Y-133754851D01*
X187684002Y-133754847D01*
X187698890Y-133680000D01*
X187684002Y-133605153D01*
X187684002Y-132994802D01*
X188365736Y-132313069D01*
X188429192Y-132270669D01*
X188597167Y-132019277D01*
X188641263Y-131797592D01*
X188641263Y-131797587D01*
X188656151Y-131722740D01*
X188641263Y-131647893D01*
X188641263Y-131347440D01*
X188681250Y-131347440D01*
X189022294Y-131279602D01*
X189311416Y-131086416D01*
X189442963Y-130889544D01*
X189794126Y-131035000D01*
X190205874Y-131035000D01*
X190586280Y-130877431D01*
X190877431Y-130586280D01*
X191035000Y-130205874D01*
X191035000Y-129794126D01*
X190877431Y-129413720D01*
X190586280Y-129122569D01*
X190205874Y-128965000D01*
X189794126Y-128965000D01*
X189442963Y-129110456D01*
X189311416Y-128913584D01*
X189157495Y-128810737D01*
X189306505Y-128587727D01*
X189372440Y-128256250D01*
X189372440Y-127743750D01*
X189306505Y-127412273D01*
X189118739Y-127131261D01*
X188837727Y-126943495D01*
X188506250Y-126877560D01*
X188068750Y-126877560D01*
X187737273Y-126943495D01*
X187574969Y-127051943D01*
X187509698Y-126986673D01*
X187276309Y-126890000D01*
X186998250Y-126890000D01*
X186839500Y-127048750D01*
X186839500Y-127873000D01*
X186859500Y-127873000D01*
X186859500Y-128127000D01*
X186839500Y-128127000D01*
X186839500Y-128147000D01*
X186585500Y-128147000D01*
X186585500Y-128127000D01*
X185798750Y-128127000D01*
X185640000Y-128285750D01*
X185640000Y-128601310D01*
X185709025Y-128767950D01*
X185536673Y-128940301D01*
X185440000Y-129173690D01*
X185440000Y-129714250D01*
X185598750Y-129873000D01*
X186435500Y-129873000D01*
X186435500Y-129853000D01*
X186689500Y-129853000D01*
X186689500Y-129873000D01*
X186709500Y-129873000D01*
X186709500Y-130127000D01*
X186689500Y-130127000D01*
X186689500Y-131176250D01*
X186848250Y-131335000D01*
X187121264Y-131335000D01*
X187121264Y-131407938D01*
X186938238Y-131590963D01*
X186846766Y-131529843D01*
X186599001Y-131480560D01*
X186285583Y-131480560D01*
X186240327Y-131371302D01*
X186204025Y-131335000D01*
X186276750Y-131335000D01*
X186435500Y-131176250D01*
X186435500Y-130127000D01*
X185598750Y-130127000D01*
X185440000Y-130285750D01*
X185440000Y-130826310D01*
X185536673Y-131059699D01*
X185572975Y-131096001D01*
X185447998Y-131096001D01*
X185447998Y-131132492D01*
X185374652Y-131117903D01*
X185352750Y-131096001D01*
X185321691Y-131096001D01*
X185303151Y-131103681D01*
X185202001Y-131083561D01*
X184948001Y-131083561D01*
X184825002Y-131108027D01*
X184702002Y-131083561D01*
X184448002Y-131083561D01*
X184200237Y-131132844D01*
X183990193Y-131273192D01*
X183849845Y-131483236D01*
X183847903Y-131493000D01*
X183760000Y-131493000D01*
X183760000Y-127398690D01*
X185640000Y-127398690D01*
X185640000Y-127714250D01*
X185798750Y-127873000D01*
X186585500Y-127873000D01*
X186585500Y-127048750D01*
X186426750Y-126890000D01*
X186148691Y-126890000D01*
X185915302Y-126986673D01*
X185736673Y-127165301D01*
X185640000Y-127398690D01*
X183760000Y-127398690D01*
X183760000Y-117613803D01*
X185319705Y-119173508D01*
X185101161Y-119500582D01*
X184985908Y-120080000D01*
X185101161Y-120659418D01*
X185429375Y-121150625D01*
X185920582Y-121478839D01*
X186353744Y-121565000D01*
X186646256Y-121565000D01*
X187079418Y-121478839D01*
X187570625Y-121150625D01*
X187770000Y-120852239D01*
X187969375Y-121150625D01*
X188460582Y-121478839D01*
X188893744Y-121565000D01*
X189186256Y-121565000D01*
X189619418Y-121478839D01*
X190110625Y-121150625D01*
X190438839Y-120659418D01*
X190554092Y-120080000D01*
X190438839Y-119500582D01*
X190220295Y-119173508D01*
X190984473Y-118409331D01*
X191047929Y-118366931D01*
X191215904Y-118115539D01*
X191260000Y-117893854D01*
X191260000Y-117893849D01*
X191274888Y-117819002D01*
X191260000Y-117744155D01*
X191260000Y-95314801D01*
X204039802Y-82535000D01*
X204205874Y-82535000D01*
X204586280Y-82377431D01*
X204877431Y-82086280D01*
X204916693Y-81991494D01*
X215790198Y-92865000D01*
X196000000Y-92865000D01*
X195756996Y-92913336D01*
X195550987Y-93050987D01*
X195413336Y-93256996D01*
X195365000Y-93500000D01*
X195365000Y-99315000D01*
X195067461Y-99315000D01*
X195000000Y-99301581D01*
X194932538Y-99315000D01*
X194732727Y-99354745D01*
X194506143Y-99506143D01*
X194354745Y-99732727D01*
X194301581Y-100000000D01*
X194315000Y-100067462D01*
X194315001Y-128567462D01*
X194316881Y-128576914D01*
X194320724Y-128714500D01*
X194321865Y-128722832D01*
X194321396Y-128731226D01*
X194329655Y-128807254D01*
X194453129Y-129553097D01*
X194462786Y-129587684D01*
X194468526Y-129623125D01*
X194492918Y-129695606D01*
X194773670Y-130397536D01*
X194790526Y-130429238D01*
X194803745Y-130462625D01*
X194843124Y-130528163D01*
X194843132Y-130528177D01*
X194843137Y-130528183D01*
X195268066Y-131153447D01*
X195291336Y-131180790D01*
X195311416Y-131210559D01*
X195363961Y-131266124D01*
X195913248Y-131785558D01*
X195941848Y-131807267D01*
X195967851Y-131832029D01*
X196031102Y-131875015D01*
X196679118Y-132264381D01*
X196711708Y-132279440D01*
X196742424Y-132298042D01*
X196813422Y-132326439D01*
X196813432Y-132326443D01*
X196813438Y-132326444D01*
X197529939Y-132567574D01*
X197565006Y-132575284D01*
X197598998Y-132586856D01*
X197674428Y-132599343D01*
X197674446Y-132599347D01*
X197674455Y-132599347D01*
X198426021Y-132680993D01*
X198434428Y-132680993D01*
X198442680Y-132682597D01*
X198519125Y-132684733D01*
X198714500Y-132679276D01*
X198722832Y-132678135D01*
X198731226Y-132678604D01*
X198807254Y-132670345D01*
X199553097Y-132546871D01*
X199587684Y-132537214D01*
X199623125Y-132531474D01*
X199695606Y-132507082D01*
X200397536Y-132226330D01*
X200429238Y-132209474D01*
X200462625Y-132196255D01*
X200528163Y-132156876D01*
X200528177Y-132156868D01*
X200528183Y-132156863D01*
X201153447Y-131731934D01*
X201180790Y-131708664D01*
X201210559Y-131688584D01*
X201266124Y-131636039D01*
X201785558Y-131086752D01*
X201807267Y-131058152D01*
X201832029Y-131032149D01*
X201875015Y-130968898D01*
X202264381Y-130320882D01*
X202279440Y-130288292D01*
X202298042Y-130257576D01*
X202326439Y-130186578D01*
X202326443Y-130186568D01*
X202326444Y-130186562D01*
X202567574Y-129470061D01*
X202575284Y-129434994D01*
X202586856Y-129401002D01*
X202599343Y-129325572D01*
X202599347Y-129325554D01*
X202599347Y-129325545D01*
X202677731Y-128604005D01*
X202685000Y-128567462D01*
X202685000Y-104537095D01*
X202754603Y-103896386D01*
X202948264Y-103320936D01*
X203260977Y-102800491D01*
X203678153Y-102359339D01*
X204180328Y-102018061D01*
X204744074Y-101792579D01*
X205343089Y-101693413D01*
X205949421Y-101725189D01*
X206534788Y-101886427D01*
X207071874Y-102169600D01*
X207535623Y-102561498D01*
X207904404Y-103043843D01*
X208161002Y-103594120D01*
X208297400Y-104204327D01*
X208315001Y-104519152D01*
X208315000Y-128567461D01*
X208316881Y-128576919D01*
X208320724Y-128714500D01*
X208321865Y-128722832D01*
X208321396Y-128731226D01*
X208329655Y-128807254D01*
X208453129Y-129553097D01*
X208462786Y-129587684D01*
X208468526Y-129623125D01*
X208492918Y-129695606D01*
X208773670Y-130397536D01*
X208790526Y-130429238D01*
X208803745Y-130462625D01*
X208843124Y-130528163D01*
X208843132Y-130528177D01*
X208843137Y-130528183D01*
X209268066Y-131153447D01*
X209291336Y-131180790D01*
X209311416Y-131210559D01*
X209363961Y-131266124D01*
X209913248Y-131785558D01*
X209941848Y-131807267D01*
X209967851Y-131832029D01*
X210031102Y-131875015D01*
X210679118Y-132264381D01*
X210711708Y-132279440D01*
X210742424Y-132298042D01*
X210813422Y-132326439D01*
X210813432Y-132326443D01*
X210813438Y-132326444D01*
X211529939Y-132567574D01*
X211565006Y-132575284D01*
X211598998Y-132586856D01*
X211674428Y-132599343D01*
X211674446Y-132599347D01*
X211674455Y-132599347D01*
X212426021Y-132680993D01*
X212434428Y-132680993D01*
X212442680Y-132682597D01*
X212519125Y-132684733D01*
X212714500Y-132679276D01*
X212722832Y-132678135D01*
X212731226Y-132678604D01*
X212807254Y-132670345D01*
X213553097Y-132546871D01*
X213587684Y-132537214D01*
X213623125Y-132531474D01*
X213695606Y-132507082D01*
X214397536Y-132226330D01*
X214429238Y-132209474D01*
X214462625Y-132196255D01*
X214528163Y-132156876D01*
X214528177Y-132156868D01*
X214528183Y-132156863D01*
X215153447Y-131731934D01*
X215180790Y-131708664D01*
X215210559Y-131688584D01*
X215266124Y-131636039D01*
X215785558Y-131086752D01*
X215807267Y-131058152D01*
X215832029Y-131032149D01*
X215875015Y-130968898D01*
X216264381Y-130320882D01*
X216279440Y-130288292D01*
X216298042Y-130257576D01*
X216326439Y-130186578D01*
X216326443Y-130186568D01*
X216326444Y-130186562D01*
X216567574Y-129470061D01*
X216575284Y-129434994D01*
X216586856Y-129401002D01*
X216599343Y-129325572D01*
X216599347Y-129325554D01*
X216599347Y-129325545D01*
X216677731Y-128604005D01*
X216685000Y-128567462D01*
X216685000Y-111135000D01*
X218402560Y-111135000D01*
X218402560Y-111500000D01*
X218451843Y-111747765D01*
X218592191Y-111957809D01*
X218670557Y-112010172D01*
X218685441Y-112085000D01*
X218713448Y-112225800D01*
X218802898Y-112359671D01*
X218898000Y-112502001D01*
X218967717Y-112548584D01*
X219001415Y-112582282D01*
X219048000Y-112652002D01*
X219324200Y-112836553D01*
X219467212Y-112865000D01*
X218500000Y-112865000D01*
X218256996Y-112913336D01*
X218050987Y-113050987D01*
X217913336Y-113256996D01*
X217865000Y-113500000D01*
X217865000Y-118500000D01*
X217913336Y-118743004D01*
X218050987Y-118949013D01*
X218256996Y-119086664D01*
X218500000Y-119135000D01*
X229000000Y-119135000D01*
X229243004Y-119086664D01*
X229449013Y-118949013D01*
X229586664Y-118743004D01*
X229635000Y-118500000D01*
X229635000Y-110500000D01*
X229586664Y-110256996D01*
X229449013Y-110050987D01*
X229243004Y-109913336D01*
X229000000Y-109865000D01*
X226500000Y-109865000D01*
X226422440Y-109880427D01*
X226422440Y-109461585D01*
X226465904Y-109396537D01*
X226490000Y-109275399D01*
X226490000Y-109464250D01*
X226648750Y-109623000D01*
X227373000Y-109623000D01*
X227373000Y-108873750D01*
X227627000Y-108873750D01*
X227627000Y-109623000D01*
X228351250Y-109623000D01*
X228510000Y-109464250D01*
X228510000Y-109223691D01*
X228413327Y-108990302D01*
X228234699Y-108811673D01*
X228001310Y-108715000D01*
X227785750Y-108715000D01*
X227627000Y-108873750D01*
X227373000Y-108873750D01*
X227214250Y-108715000D01*
X226998690Y-108715000D01*
X226765301Y-108811673D01*
X226586673Y-108990302D01*
X226509788Y-109175919D01*
X226510000Y-109174852D01*
X226510000Y-109174848D01*
X226524888Y-109100001D01*
X226510000Y-109025154D01*
X226510000Y-108358026D01*
X226640302Y-108488327D01*
X226873691Y-108585000D01*
X226966250Y-108585000D01*
X227125000Y-108426250D01*
X227125000Y-107627000D01*
X227375000Y-107627000D01*
X227375000Y-108426250D01*
X227533750Y-108585000D01*
X227626309Y-108585000D01*
X227859698Y-108488327D01*
X228038327Y-108309699D01*
X228135000Y-108076310D01*
X228135000Y-107785750D01*
X227976250Y-107627000D01*
X227375000Y-107627000D01*
X227125000Y-107627000D01*
X227103000Y-107627000D01*
X227103000Y-107373000D01*
X227125000Y-107373000D01*
X227125000Y-106573750D01*
X227375000Y-106573750D01*
X227375000Y-107373000D01*
X227976250Y-107373000D01*
X228135000Y-107214250D01*
X228135000Y-106923690D01*
X228038327Y-106690301D01*
X227859698Y-106511673D01*
X227626309Y-106415000D01*
X227533750Y-106415000D01*
X227375000Y-106573750D01*
X227125000Y-106573750D01*
X226966250Y-106415000D01*
X226873691Y-106415000D01*
X226640302Y-106511673D01*
X226498654Y-106653320D01*
X226457809Y-106592191D01*
X226247765Y-106451843D01*
X226000000Y-106402560D01*
X225500000Y-106402560D01*
X225252235Y-106451843D01*
X225250000Y-106453336D01*
X225247765Y-106451843D01*
X225000000Y-106402560D01*
X224535000Y-106402560D01*
X224535000Y-106044126D01*
X224377431Y-105663720D01*
X224086280Y-105372569D01*
X223705874Y-105215000D01*
X223294126Y-105215000D01*
X223135000Y-105280912D01*
X223135000Y-94969822D01*
X223252235Y-95048157D01*
X223500000Y-95097440D01*
X224000000Y-95097440D01*
X224247765Y-95048157D01*
X224457809Y-94907809D01*
X224500000Y-94844666D01*
X224542191Y-94907809D01*
X224752235Y-95048157D01*
X225000000Y-95097440D01*
X225500000Y-95097440D01*
X225747765Y-95048157D01*
X225957809Y-94907809D01*
X226056573Y-94760000D01*
X226308604Y-94760000D01*
X226381261Y-94868739D01*
X226662273Y-95056505D01*
X226993750Y-95122440D01*
X227431250Y-95122440D01*
X227545530Y-95099708D01*
X227465000Y-95294126D01*
X227465000Y-95705874D01*
X227622569Y-96086280D01*
X227913720Y-96377431D01*
X228294126Y-96535000D01*
X228705874Y-96535000D01*
X229086280Y-96377431D01*
X229377431Y-96086280D01*
X229535000Y-95705874D01*
X229535000Y-95350194D01*
X229547500Y-95287352D01*
X229547500Y-95287348D01*
X229562388Y-95212501D01*
X229547500Y-95137654D01*
X229547500Y-94916339D01*
X229618739Y-94868739D01*
X229806505Y-94587727D01*
X229872440Y-94256250D01*
X229872440Y-93743750D01*
X229806505Y-93412273D01*
X229618739Y-93131261D01*
X229337727Y-92943495D01*
X229006250Y-92877560D01*
X228568750Y-92877560D01*
X228237273Y-92943495D01*
X228000000Y-93102036D01*
X227762727Y-92943495D01*
X227431250Y-92877560D01*
X226993750Y-92877560D01*
X226662273Y-92943495D01*
X226381261Y-93131261D01*
X226308604Y-93240000D01*
X226056573Y-93240000D01*
X225957809Y-93092191D01*
X225747765Y-92951843D01*
X225500000Y-92902560D01*
X225000000Y-92902560D01*
X224752235Y-92951843D01*
X224542191Y-93092191D01*
X224500000Y-93155334D01*
X224457809Y-93092191D01*
X224247765Y-92951843D01*
X224000000Y-92902560D01*
X223500000Y-92902560D01*
X223252235Y-92951843D01*
X223042191Y-93092191D01*
X223009368Y-93141314D01*
X222949013Y-93050987D01*
X222743004Y-92913336D01*
X222500000Y-92865000D01*
X217939802Y-92865000D01*
X214834802Y-89760000D01*
X222943427Y-89760000D01*
X223042191Y-89907809D01*
X223252235Y-90048157D01*
X223500000Y-90097440D01*
X224000000Y-90097440D01*
X224247765Y-90048157D01*
X224457809Y-89907809D01*
X224500000Y-89844666D01*
X224542191Y-89907809D01*
X224752235Y-90048157D01*
X225000000Y-90097440D01*
X225500000Y-90097440D01*
X225747765Y-90048157D01*
X225957809Y-89907809D01*
X226056573Y-89760000D01*
X226308604Y-89760000D01*
X226381261Y-89868739D01*
X226662273Y-90056505D01*
X226993750Y-90122440D01*
X227431250Y-90122440D01*
X227545530Y-90099708D01*
X227465000Y-90294126D01*
X227465000Y-90705874D01*
X227622569Y-91086280D01*
X227913720Y-91377431D01*
X228294126Y-91535000D01*
X228705874Y-91535000D01*
X229086280Y-91377431D01*
X229377431Y-91086280D01*
X229535000Y-90705874D01*
X229535000Y-90350194D01*
X229547500Y-90287352D01*
X229547500Y-90287348D01*
X229562388Y-90212501D01*
X229547500Y-90137654D01*
X229547500Y-89916339D01*
X229618739Y-89868739D01*
X229806505Y-89587727D01*
X229872440Y-89256250D01*
X229872440Y-88743750D01*
X229806505Y-88412273D01*
X229618739Y-88131261D01*
X229337727Y-87943495D01*
X229006250Y-87877560D01*
X228568750Y-87877560D01*
X228237273Y-87943495D01*
X228000000Y-88102036D01*
X227762727Y-87943495D01*
X227431250Y-87877560D01*
X226993750Y-87877560D01*
X226662273Y-87943495D01*
X226381261Y-88131261D01*
X226308604Y-88240000D01*
X226056573Y-88240000D01*
X225957809Y-88092191D01*
X225747765Y-87951843D01*
X225500000Y-87902560D01*
X225000000Y-87902560D01*
X224752235Y-87951843D01*
X224542191Y-88092191D01*
X224500000Y-88155334D01*
X224457809Y-88092191D01*
X224247765Y-87951843D01*
X224000000Y-87902560D01*
X223500000Y-87902560D01*
X223252235Y-87951843D01*
X223042191Y-88092191D01*
X222943427Y-88240000D01*
X214064802Y-88240000D01*
X210584802Y-84760000D01*
X222943427Y-84760000D01*
X223042191Y-84907809D01*
X223252235Y-85048157D01*
X223500000Y-85097440D01*
X224000000Y-85097440D01*
X224247765Y-85048157D01*
X224457809Y-84907809D01*
X224500000Y-84844666D01*
X224542191Y-84907809D01*
X224752235Y-85048157D01*
X225000000Y-85097440D01*
X225500000Y-85097440D01*
X225747765Y-85048157D01*
X225957809Y-84907809D01*
X226056573Y-84760000D01*
X226308604Y-84760000D01*
X226381261Y-84868739D01*
X226662273Y-85056505D01*
X226993750Y-85122440D01*
X227431250Y-85122440D01*
X227545530Y-85099708D01*
X227465000Y-85294126D01*
X227465000Y-85705874D01*
X227622569Y-86086280D01*
X227913720Y-86377431D01*
X228294126Y-86535000D01*
X228705874Y-86535000D01*
X229086280Y-86377431D01*
X229377431Y-86086280D01*
X229535000Y-85705874D01*
X229535000Y-85350194D01*
X229547500Y-85287352D01*
X229547500Y-85287348D01*
X229562388Y-85212501D01*
X229547500Y-85137654D01*
X229547500Y-84916339D01*
X229618739Y-84868739D01*
X229806505Y-84587727D01*
X229872440Y-84256250D01*
X229872440Y-83743750D01*
X229806505Y-83412273D01*
X229618739Y-83131261D01*
X229337727Y-82943495D01*
X229006250Y-82877560D01*
X228568750Y-82877560D01*
X228237273Y-82943495D01*
X228000000Y-83102036D01*
X227762727Y-82943495D01*
X227431250Y-82877560D01*
X226993750Y-82877560D01*
X226662273Y-82943495D01*
X226381261Y-83131261D01*
X226308604Y-83240000D01*
X226056573Y-83240000D01*
X225957809Y-83092191D01*
X225747765Y-82951843D01*
X225500000Y-82902560D01*
X225000000Y-82902560D01*
X224752235Y-82951843D01*
X224542191Y-83092191D01*
X224500000Y-83155334D01*
X224457809Y-83092191D01*
X224247765Y-82951843D01*
X224000000Y-82902560D01*
X223500000Y-82902560D01*
X223252235Y-82951843D01*
X223042191Y-83092191D01*
X222943427Y-83240000D01*
X209814802Y-83240000D01*
X205800381Y-79225580D01*
X205800381Y-78821371D01*
X205870953Y-78868526D01*
X206118718Y-78917809D01*
X206366483Y-78868526D01*
X206462081Y-78804649D01*
X207141904Y-79484473D01*
X207184304Y-79547929D01*
X207435696Y-79715904D01*
X207657381Y-79760000D01*
X207657386Y-79760000D01*
X207732233Y-79774888D01*
X207807080Y-79760000D01*
X222943427Y-79760000D01*
X223042191Y-79907809D01*
X223252235Y-80048157D01*
X223500000Y-80097440D01*
X224000000Y-80097440D01*
X224247765Y-80048157D01*
X224457809Y-79907809D01*
X224500000Y-79844666D01*
X224542191Y-79907809D01*
X224752235Y-80048157D01*
X225000000Y-80097440D01*
X225500000Y-80097440D01*
X225747765Y-80048157D01*
X225957809Y-79907809D01*
X226056573Y-79760000D01*
X226308604Y-79760000D01*
X226381261Y-79868739D01*
X226662273Y-80056505D01*
X226993750Y-80122440D01*
X227431250Y-80122440D01*
X227545530Y-80099708D01*
X227465000Y-80294126D01*
X227465000Y-80705874D01*
X227622569Y-81086280D01*
X227913720Y-81377431D01*
X228294126Y-81535000D01*
X228705874Y-81535000D01*
X229086280Y-81377431D01*
X229377431Y-81086280D01*
X229535000Y-80705874D01*
X229535000Y-80350194D01*
X229547500Y-80287352D01*
X229547500Y-80287348D01*
X229562388Y-80212501D01*
X229547500Y-80137654D01*
X229547500Y-79916339D01*
X229618739Y-79868739D01*
X229806505Y-79587727D01*
X229872440Y-79256250D01*
X229872440Y-78743750D01*
X229806505Y-78412273D01*
X229618739Y-78131261D01*
X229337727Y-77943495D01*
X229006250Y-77877560D01*
X228568750Y-77877560D01*
X228237273Y-77943495D01*
X228000000Y-78102036D01*
X227762727Y-77943495D01*
X227431250Y-77877560D01*
X226993750Y-77877560D01*
X226662273Y-77943495D01*
X226381261Y-78131261D01*
X226308604Y-78240000D01*
X226056573Y-78240000D01*
X225957809Y-78092191D01*
X225747765Y-77951843D01*
X225500000Y-77902560D01*
X225000000Y-77902560D01*
X224752235Y-77951843D01*
X224542191Y-78092191D01*
X224500000Y-78155334D01*
X224457809Y-78092191D01*
X224247765Y-77951843D01*
X224000000Y-77902560D01*
X223500000Y-77902560D01*
X223252235Y-77951843D01*
X223042191Y-78092191D01*
X222943427Y-78240000D01*
X209535000Y-78240000D01*
X209535000Y-78160022D01*
X210525131Y-78160022D01*
X210599978Y-78174910D01*
X210674825Y-78160022D01*
X210674830Y-78160022D01*
X210896515Y-78115926D01*
X211147907Y-77947951D01*
X211190309Y-77884492D01*
X214314802Y-74760000D01*
X222943427Y-74760000D01*
X223042191Y-74907809D01*
X223252235Y-75048157D01*
X223500000Y-75097440D01*
X224000000Y-75097440D01*
X224247765Y-75048157D01*
X224457809Y-74907809D01*
X224500000Y-74844666D01*
X224542191Y-74907809D01*
X224752235Y-75048157D01*
X225000000Y-75097440D01*
X225500000Y-75097440D01*
X225747765Y-75048157D01*
X225957809Y-74907809D01*
X226056573Y-74760000D01*
X226308604Y-74760000D01*
X226381261Y-74868739D01*
X226662273Y-75056505D01*
X226993750Y-75122440D01*
X227431250Y-75122440D01*
X227545530Y-75099708D01*
X227465000Y-75294126D01*
X227465000Y-75705874D01*
X227622569Y-76086280D01*
X227913720Y-76377431D01*
X228294126Y-76535000D01*
X228705874Y-76535000D01*
X229086280Y-76377431D01*
X229377431Y-76086280D01*
X229535000Y-75705874D01*
X229535000Y-75350194D01*
X229547500Y-75287352D01*
X229547500Y-75287348D01*
X229562388Y-75212501D01*
X229547500Y-75137654D01*
X229547500Y-74916339D01*
X229618739Y-74868739D01*
X229806505Y-74587727D01*
X229872440Y-74256250D01*
X229872440Y-73743750D01*
X229806505Y-73412273D01*
X229618739Y-73131261D01*
X229337727Y-72943495D01*
X229006250Y-72877560D01*
X228568750Y-72877560D01*
X228237273Y-72943495D01*
X228000000Y-73102036D01*
X227762727Y-72943495D01*
X227431250Y-72877560D01*
X226993750Y-72877560D01*
X226662273Y-72943495D01*
X226381261Y-73131261D01*
X226308604Y-73240000D01*
X226056573Y-73240000D01*
X225957809Y-73092191D01*
X225747765Y-72951843D01*
X225500000Y-72902560D01*
X225000000Y-72902560D01*
X224752235Y-72951843D01*
X224542191Y-73092191D01*
X224500000Y-73155334D01*
X224457809Y-73092191D01*
X224247765Y-72951843D01*
X224000000Y-72902560D01*
X223500000Y-72902560D01*
X223252235Y-72951843D01*
X223042191Y-73092191D01*
X222943427Y-73240000D01*
X215198392Y-73240000D01*
X218678393Y-69760000D01*
X222943427Y-69760000D01*
X223042191Y-69907809D01*
X223252235Y-70048157D01*
X223500000Y-70097440D01*
X224000000Y-70097440D01*
X224247765Y-70048157D01*
X224457809Y-69907809D01*
X224500000Y-69844666D01*
X224542191Y-69907809D01*
X224752235Y-70048157D01*
X225000000Y-70097440D01*
X225500000Y-70097440D01*
X225747765Y-70048157D01*
X225957809Y-69907809D01*
X226056573Y-69760000D01*
X226308604Y-69760000D01*
X226381261Y-69868739D01*
X226662273Y-70056505D01*
X226993750Y-70122440D01*
X227431250Y-70122440D01*
X227545530Y-70099708D01*
X227465000Y-70294126D01*
X227465000Y-70705874D01*
X227622569Y-71086280D01*
X227913720Y-71377431D01*
X228294126Y-71535000D01*
X228705874Y-71535000D01*
X229086280Y-71377431D01*
X229377431Y-71086280D01*
X229535000Y-70705874D01*
X229535000Y-70350194D01*
X229547500Y-70287352D01*
X229547500Y-70287348D01*
X229562388Y-70212501D01*
X229547500Y-70137654D01*
X229547500Y-69916339D01*
X229618739Y-69868739D01*
X229806505Y-69587727D01*
X229872440Y-69256250D01*
X229872440Y-68743750D01*
X229806505Y-68412273D01*
X229618739Y-68131261D01*
X229337727Y-67943495D01*
X229006250Y-67877560D01*
X228568750Y-67877560D01*
X228237273Y-67943495D01*
X228000000Y-68102036D01*
X227762727Y-67943495D01*
X227431250Y-67877560D01*
X226993750Y-67877560D01*
X226662273Y-67943495D01*
X226381261Y-68131261D01*
X226308604Y-68240000D01*
X226056573Y-68240000D01*
X225957809Y-68092191D01*
X225747765Y-67951843D01*
X225500000Y-67902560D01*
X225000000Y-67902560D01*
X224752235Y-67951843D01*
X224542191Y-68092191D01*
X224500000Y-68155334D01*
X224457809Y-68092191D01*
X224247765Y-67951843D01*
X224000000Y-67902560D01*
X223500000Y-67902560D01*
X223252235Y-67951843D01*
X223042191Y-68092191D01*
X222943427Y-68240000D01*
X219561981Y-68240000D01*
X222982903Y-64819079D01*
X223042191Y-64907809D01*
X223252235Y-65048157D01*
X223500000Y-65097440D01*
X224000000Y-65097440D01*
X224247765Y-65048157D01*
X224457809Y-64907809D01*
X224500000Y-64844666D01*
X224542191Y-64907809D01*
X224752235Y-65048157D01*
X225000000Y-65097440D01*
X225500000Y-65097440D01*
X225747765Y-65048157D01*
X225957809Y-64907809D01*
X226056573Y-64760000D01*
X226308604Y-64760000D01*
X226381261Y-64868739D01*
X226662273Y-65056505D01*
X226993750Y-65122440D01*
X227431250Y-65122440D01*
X227545530Y-65099708D01*
X227465000Y-65294126D01*
X227465000Y-65705874D01*
X227622569Y-66086280D01*
X227913720Y-66377431D01*
X228294126Y-66535000D01*
X228705874Y-66535000D01*
X229086280Y-66377431D01*
X229377431Y-66086280D01*
X229535000Y-65705874D01*
X229535000Y-65350194D01*
X229547500Y-65287352D01*
X229547500Y-65287348D01*
X229562388Y-65212501D01*
X229547500Y-65137654D01*
X229547500Y-64916339D01*
X229618739Y-64868739D01*
X229806505Y-64587727D01*
X229872440Y-64256250D01*
X229872440Y-63743750D01*
X229806505Y-63412273D01*
X229618739Y-63131261D01*
X229337727Y-62943495D01*
X229006250Y-62877560D01*
X228568750Y-62877560D01*
X228237273Y-62943495D01*
X228000000Y-63102036D01*
X227762727Y-62943495D01*
X227431250Y-62877560D01*
X226993750Y-62877560D01*
X226662273Y-62943495D01*
X226381261Y-63131261D01*
X226308604Y-63240000D01*
X226056573Y-63240000D01*
X225957809Y-63092191D01*
X225747765Y-62951843D01*
X225500000Y-62902560D01*
X225000000Y-62902560D01*
X224752235Y-62951843D01*
X224542191Y-63092191D01*
X224500000Y-63155334D01*
X224457809Y-63092191D01*
X224247765Y-62951843D01*
X224143665Y-62931137D01*
X224234473Y-62840329D01*
X224297929Y-62797929D01*
X224465904Y-62546537D01*
X224510000Y-62324852D01*
X224510000Y-62324847D01*
X224524888Y-62250000D01*
X224510000Y-62175153D01*
X224510000Y-59859632D01*
X224542191Y-59907809D01*
X224752235Y-60048157D01*
X225000000Y-60097440D01*
X225500000Y-60097440D01*
X225747765Y-60048157D01*
X225957809Y-59907809D01*
X226056573Y-59760000D01*
X226308604Y-59760000D01*
X226381261Y-59868739D01*
X226662273Y-60056505D01*
X226993750Y-60122440D01*
X227431250Y-60122440D01*
X227545530Y-60099708D01*
X227465000Y-60294126D01*
X227465000Y-60705874D01*
X227622569Y-61086280D01*
X227913720Y-61377431D01*
X228294126Y-61535000D01*
X228705874Y-61535000D01*
X229086280Y-61377431D01*
X229377431Y-61086280D01*
X229535000Y-60705874D01*
X229535000Y-60350194D01*
X229547500Y-60287352D01*
X229547500Y-60287348D01*
X229562388Y-60212501D01*
X229547500Y-60137654D01*
X229547500Y-59916339D01*
X229618739Y-59868739D01*
X229806505Y-59587727D01*
X229872440Y-59256250D01*
X229872440Y-58743750D01*
X229806505Y-58412273D01*
X229618739Y-58131261D01*
X229337727Y-57943495D01*
X229006250Y-57877560D01*
X228568750Y-57877560D01*
X228237273Y-57943495D01*
X228000000Y-58102036D01*
X227762727Y-57943495D01*
X227431250Y-57877560D01*
X226993750Y-57877560D01*
X226662273Y-57943495D01*
X226381261Y-58131261D01*
X226308604Y-58240000D01*
X226056573Y-58240000D01*
X225957809Y-58092191D01*
X225747765Y-57951843D01*
X225500000Y-57902560D01*
X225000000Y-57902560D01*
X224752235Y-57951843D01*
X224542191Y-58092191D01*
X224500000Y-58155334D01*
X224457809Y-58092191D01*
X224247765Y-57951843D01*
X224000000Y-57902560D01*
X223500000Y-57902560D01*
X223252235Y-57951843D01*
X223042191Y-58092191D01*
X222901843Y-58302235D01*
X222852560Y-58550000D01*
X222852560Y-59450000D01*
X222901843Y-59697765D01*
X222990000Y-59829701D01*
X222990001Y-61935197D01*
X211463015Y-73462184D01*
X209054022Y-73462184D01*
X209192706Y-73127371D01*
X209192706Y-72715623D01*
X209035137Y-72335217D01*
X208743986Y-72044066D01*
X208550302Y-71963839D01*
X224234473Y-56279669D01*
X224297929Y-56237269D01*
X224364287Y-56137958D01*
X224465904Y-55985878D01*
X224493337Y-55847961D01*
X224510000Y-55764192D01*
X224510000Y-55764188D01*
X224524888Y-55689340D01*
X224510000Y-55614492D01*
X224510000Y-54859632D01*
X224542191Y-54907809D01*
X224752235Y-55048157D01*
X225000000Y-55097440D01*
X225500000Y-55097440D01*
X225747765Y-55048157D01*
X225957809Y-54907809D01*
X226056573Y-54760000D01*
X226308604Y-54760000D01*
X226381261Y-54868739D01*
X226662273Y-55056505D01*
X226993750Y-55122440D01*
X227431250Y-55122440D01*
X227545530Y-55099708D01*
X227465000Y-55294126D01*
X227465000Y-55705874D01*
X227622569Y-56086280D01*
X227913720Y-56377431D01*
X228294126Y-56535000D01*
X228705874Y-56535000D01*
X229086280Y-56377431D01*
X229377431Y-56086280D01*
X229535000Y-55705874D01*
X229535000Y-55350194D01*
X229547500Y-55287352D01*
X229547500Y-55287348D01*
X229562388Y-55212501D01*
X229547500Y-55137654D01*
X229547500Y-54916339D01*
X229618739Y-54868739D01*
X229806505Y-54587727D01*
X229872440Y-54256250D01*
X229872440Y-53743750D01*
X229806505Y-53412273D01*
X229618739Y-53131261D01*
X229337727Y-52943495D01*
X229006250Y-52877560D01*
X228568750Y-52877560D01*
X228237273Y-52943495D01*
X228000000Y-53102036D01*
X227762727Y-52943495D01*
X227431250Y-52877560D01*
X226993750Y-52877560D01*
X226662273Y-52943495D01*
X226381261Y-53131261D01*
X226308604Y-53240000D01*
X226056573Y-53240000D01*
X225957809Y-53092191D01*
X225747765Y-52951843D01*
X225500000Y-52902560D01*
X225000000Y-52902560D01*
X224752235Y-52951843D01*
X224542191Y-53092191D01*
X224500000Y-53155334D01*
X224457809Y-53092191D01*
X224247765Y-52951843D01*
X224000000Y-52902560D01*
X223500000Y-52902560D01*
X223252235Y-52951843D01*
X223042191Y-53092191D01*
X222901843Y-53302235D01*
X222852560Y-53550000D01*
X222852560Y-54450000D01*
X222901843Y-54697765D01*
X222990001Y-54829701D01*
X222990000Y-55374538D01*
X207149638Y-71214900D01*
X207115843Y-71192319D01*
X205517485Y-69593962D01*
X205747765Y-69548157D01*
X205957809Y-69407809D01*
X205998654Y-69346680D01*
X206140302Y-69488327D01*
X206373691Y-69585000D01*
X206466250Y-69585000D01*
X206625000Y-69426250D01*
X206625000Y-68627000D01*
X206875000Y-68627000D01*
X206875000Y-69426250D01*
X207033750Y-69585000D01*
X207126309Y-69585000D01*
X207359698Y-69488327D01*
X207538327Y-69309699D01*
X207635000Y-69076310D01*
X207635000Y-68785750D01*
X207476250Y-68627000D01*
X206875000Y-68627000D01*
X206625000Y-68627000D01*
X206603000Y-68627000D01*
X206603000Y-68373000D01*
X206625000Y-68373000D01*
X206625000Y-67573750D01*
X206875000Y-67573750D01*
X206875000Y-68373000D01*
X207476250Y-68373000D01*
X207635000Y-68214250D01*
X207635000Y-67923690D01*
X207538327Y-67690301D01*
X207359698Y-67511673D01*
X207126309Y-67415000D01*
X207033750Y-67415000D01*
X206875000Y-67573750D01*
X206625000Y-67573750D01*
X206466250Y-67415000D01*
X206373691Y-67415000D01*
X206140302Y-67511673D01*
X205998654Y-67653320D01*
X205957809Y-67592191D01*
X205747765Y-67451843D01*
X205500000Y-67402560D01*
X205000000Y-67402560D01*
X204752235Y-67451843D01*
X204542191Y-67592191D01*
X204401843Y-67802235D01*
X204352560Y-68050000D01*
X204352560Y-68322638D01*
X204208932Y-68466267D01*
X204205874Y-68465000D01*
X203794126Y-68465000D01*
X203413720Y-68622569D01*
X203122569Y-68913720D01*
X203075948Y-69026273D01*
X202790204Y-68740529D01*
X202747802Y-68677070D01*
X202496410Y-68509095D01*
X202274725Y-68464999D01*
X202274720Y-68464999D01*
X202199873Y-68450111D01*
X202125026Y-68464999D01*
X196073135Y-68464999D01*
X191107298Y-63499163D01*
X191350000Y-63547439D01*
X195100000Y-63547439D01*
X195347765Y-63498156D01*
X195557809Y-63357808D01*
X195698157Y-63147764D01*
X195747440Y-62899999D01*
X195747440Y-55326667D01*
X196562956Y-55326667D01*
X196713720Y-55477431D01*
X197094126Y-55635000D01*
X197505874Y-55635000D01*
X197886280Y-55477431D01*
X198177431Y-55186280D01*
X198335000Y-54805874D01*
X198335000Y-54394126D01*
X198177431Y-54013720D01*
X197886280Y-53722569D01*
X197505874Y-53565000D01*
X197094126Y-53565000D01*
X196713720Y-53722569D01*
X196629622Y-53806667D01*
X195747440Y-53806667D01*
X195747440Y-52900001D01*
X195739483Y-52860000D01*
X197421104Y-52860000D01*
X197493761Y-52968739D01*
X197774773Y-53156505D01*
X198106250Y-53222440D01*
X198543750Y-53222440D01*
X198875227Y-53156505D01*
X199037531Y-53048057D01*
X199102802Y-53113327D01*
X199336191Y-53210000D01*
X199614250Y-53210000D01*
X199773000Y-53051250D01*
X199773000Y-52227000D01*
X200027000Y-52227000D01*
X200027000Y-53051250D01*
X200185750Y-53210000D01*
X200463809Y-53210000D01*
X200697198Y-53113327D01*
X200875827Y-52934699D01*
X200972500Y-52701310D01*
X200972500Y-52385750D01*
X200843642Y-52256892D01*
X202618514Y-52256892D01*
X202864817Y-52781358D01*
X203293076Y-53171645D01*
X203703110Y-53341476D01*
X203933000Y-53220155D01*
X203933000Y-52027000D01*
X202739181Y-52027000D01*
X202618514Y-52256892D01*
X200843642Y-52256892D01*
X200813750Y-52227000D01*
X200027000Y-52227000D01*
X199773000Y-52227000D01*
X199753000Y-52227000D01*
X199753000Y-51973000D01*
X199773000Y-51973000D01*
X199773000Y-51148750D01*
X200027000Y-51148750D01*
X200027000Y-51973000D01*
X200813750Y-51973000D01*
X200972500Y-51814250D01*
X200972500Y-51498690D01*
X200875827Y-51265301D01*
X200697198Y-51086673D01*
X200463809Y-50990000D01*
X200185750Y-50990000D01*
X200027000Y-51148750D01*
X199773000Y-51148750D01*
X199614250Y-50990000D01*
X199336191Y-50990000D01*
X199102802Y-51086673D01*
X199037531Y-51151943D01*
X198875227Y-51043495D01*
X198543750Y-50977560D01*
X198106250Y-50977560D01*
X197774773Y-51043495D01*
X197493761Y-51231261D01*
X197421104Y-51340000D01*
X190308181Y-51340000D01*
X190233333Y-51325112D01*
X190158485Y-51340000D01*
X190158481Y-51340000D01*
X189984938Y-51374520D01*
X189936795Y-51384096D01*
X189791892Y-51480918D01*
X189685404Y-51552071D01*
X189643004Y-51615527D01*
X189005971Y-52252560D01*
X186350001Y-52252560D01*
X186349997Y-52252561D01*
X184850000Y-52252561D01*
X184602235Y-52301844D01*
X184392191Y-52442192D01*
X184251843Y-52652236D01*
X184202560Y-52900001D01*
X184202560Y-62899999D01*
X184251843Y-63147764D01*
X184392191Y-63357808D01*
X184602235Y-63498156D01*
X184850000Y-63547439D01*
X189005971Y-63547439D01*
X189019570Y-63561038D01*
X189019573Y-63561040D01*
X195168003Y-69709471D01*
X195210404Y-69772928D01*
X195273860Y-69815328D01*
X195461795Y-69940903D01*
X195509938Y-69950479D01*
X195683481Y-69984999D01*
X195683485Y-69984999D01*
X195758333Y-69999887D01*
X195833181Y-69984999D01*
X198897000Y-69984999D01*
X198897000Y-70127000D01*
X198875000Y-70127000D01*
X198875000Y-70147000D01*
X198625000Y-70147000D01*
X198625000Y-70127000D01*
X198023750Y-70127000D01*
X197910750Y-70240000D01*
X188574846Y-70240000D01*
X188499999Y-70225112D01*
X188425152Y-70240000D01*
X188425148Y-70240000D01*
X188203463Y-70284096D01*
X188188452Y-70294126D01*
X188015526Y-70409671D01*
X188015524Y-70409673D01*
X187952071Y-70452071D01*
X187909672Y-70515525D01*
X187485198Y-70940000D01*
X186196105Y-70940000D01*
X186009966Y-70490620D01*
X185409380Y-69890034D01*
X184624678Y-69565000D01*
X183775322Y-69565000D01*
X182990620Y-69890034D01*
X182390034Y-70490620D01*
X182065000Y-71275322D01*
X182065000Y-72124678D01*
X182390034Y-72909380D01*
X182990620Y-73509966D01*
X183775322Y-73835000D01*
X184590199Y-73835000D01*
X182015528Y-76409671D01*
X181952072Y-76452071D01*
X181909672Y-76515527D01*
X181909671Y-76515528D01*
X181784097Y-76703463D01*
X181725112Y-77000000D01*
X181740001Y-77074852D01*
X181740000Y-135425148D01*
X181725111Y-135500000D01*
X180710000Y-135500000D01*
X180710000Y-53041247D01*
X180776100Y-52474292D01*
X180956685Y-51976788D01*
X181246881Y-51534165D01*
X181631116Y-51170177D01*
X182088784Y-50904342D01*
X182604629Y-50748108D01*
X183031618Y-50710000D01*
X203203488Y-50710000D01*
X202864817Y-51018642D01*
G36*
X201771822Y-74839091D02*
X201932731Y-75000000D01*
X201771822Y-75160909D01*
X201631474Y-75370953D01*
X201582191Y-75618718D01*
X201601388Y-75715229D01*
X201544355Y-75715229D01*
X201163949Y-75872798D01*
X200872798Y-76163949D01*
X200715229Y-76544355D01*
X200715229Y-76956103D01*
X200872798Y-77336509D01*
X201163949Y-77627660D01*
X201288894Y-77679414D01*
X201090302Y-77761673D01*
X200937207Y-77914767D01*
X200936416Y-77913584D01*
X200647294Y-77720398D01*
X200306250Y-77652560D01*
X199818750Y-77652560D01*
X199477706Y-77720398D01*
X199188584Y-77913584D01*
X198995398Y-78202706D01*
X198969359Y-78333613D01*
X198872999Y-78397999D01*
X198828077Y-78465229D01*
X198794354Y-78465229D01*
X198413948Y-78622798D01*
X198122797Y-78913949D01*
X197965228Y-79294355D01*
X197965228Y-79706103D01*
X198122797Y-80086509D01*
X198413948Y-80377660D01*
X198794354Y-80535229D01*
X199206102Y-80535229D01*
X199586508Y-80377660D01*
X199650246Y-80313922D01*
X199818750Y-80347440D01*
X200306250Y-80347440D01*
X200647294Y-80279602D01*
X200936416Y-80086416D01*
X200937207Y-80085233D01*
X201090302Y-80238327D01*
X201323691Y-80335000D01*
X201651750Y-80335000D01*
X201810500Y-80176250D01*
X201810500Y-79127000D01*
X201790500Y-79127000D01*
X201790500Y-78873000D01*
X201810500Y-78873000D01*
X201810500Y-78853000D01*
X202064500Y-78853000D01*
X202064500Y-78873000D01*
X202084500Y-78873000D01*
X202084500Y-79127000D01*
X202064500Y-79127000D01*
X202064500Y-80176250D01*
X202223250Y-80335000D01*
X202551309Y-80335000D01*
X202778636Y-80240838D01*
X203156466Y-80397340D01*
X203322539Y-80397340D01*
X203508506Y-80583307D01*
X203413720Y-80622569D01*
X203122569Y-80913720D01*
X202965000Y-81294126D01*
X202965000Y-81460198D01*
X190015528Y-94409671D01*
X189952072Y-94452071D01*
X189909672Y-94515527D01*
X189909671Y-94515528D01*
X189784097Y-94703463D01*
X189725112Y-95000000D01*
X189740001Y-95074852D01*
X189740000Y-113719647D01*
X189396892Y-113558514D01*
X189167000Y-113679181D01*
X189167000Y-114873000D01*
X189187000Y-114873000D01*
X189187000Y-115127000D01*
X189167000Y-115127000D01*
X189167000Y-115147000D01*
X188913000Y-115147000D01*
X188913000Y-115127000D01*
X188893000Y-115127000D01*
X188893000Y-114873000D01*
X188913000Y-114873000D01*
X188913000Y-113679181D01*
X188683108Y-113558514D01*
X188461865Y-113662415D01*
X188340329Y-113480525D01*
X188297929Y-113417069D01*
X188234473Y-113374669D01*
X185260000Y-110400197D01*
X185260000Y-90814801D01*
X201364793Y-74710010D01*
X201685572Y-74710010D01*
X201771822Y-74839091D01*
X201771822Y-74839091D01*
G37*
X201771822Y-74839091D02*
X201932731Y-75000000D01*
X201771822Y-75160909D01*
X201631474Y-75370953D01*
X201582191Y-75618718D01*
X201601388Y-75715229D01*
X201544355Y-75715229D01*
X201163949Y-75872798D01*
X200872798Y-76163949D01*
X200715229Y-76544355D01*
X200715229Y-76956103D01*
X200872798Y-77336509D01*
X201163949Y-77627660D01*
X201288894Y-77679414D01*
X201090302Y-77761673D01*
X200937207Y-77914767D01*
X200936416Y-77913584D01*
X200647294Y-77720398D01*
X200306250Y-77652560D01*
X199818750Y-77652560D01*
X199477706Y-77720398D01*
X199188584Y-77913584D01*
X198995398Y-78202706D01*
X198969359Y-78333613D01*
X198872999Y-78397999D01*
X198828077Y-78465229D01*
X198794354Y-78465229D01*
X198413948Y-78622798D01*
X198122797Y-78913949D01*
X197965228Y-79294355D01*
X197965228Y-79706103D01*
X198122797Y-80086509D01*
X198413948Y-80377660D01*
X198794354Y-80535229D01*
X199206102Y-80535229D01*
X199586508Y-80377660D01*
X199650246Y-80313922D01*
X199818750Y-80347440D01*
X200306250Y-80347440D01*
X200647294Y-80279602D01*
X200936416Y-80086416D01*
X200937207Y-80085233D01*
X201090302Y-80238327D01*
X201323691Y-80335000D01*
X201651750Y-80335000D01*
X201810500Y-80176250D01*
X201810500Y-79127000D01*
X201790500Y-79127000D01*
X201790500Y-78873000D01*
X201810500Y-78873000D01*
X201810500Y-78853000D01*
X202064500Y-78853000D01*
X202064500Y-78873000D01*
X202084500Y-78873000D01*
X202084500Y-79127000D01*
X202064500Y-79127000D01*
X202064500Y-80176250D01*
X202223250Y-80335000D01*
X202551309Y-80335000D01*
X202778636Y-80240838D01*
X203156466Y-80397340D01*
X203322539Y-80397340D01*
X203508506Y-80583307D01*
X203413720Y-80622569D01*
X203122569Y-80913720D01*
X202965000Y-81294126D01*
X202965000Y-81460198D01*
X190015528Y-94409671D01*
X189952072Y-94452071D01*
X189909672Y-94515527D01*
X189909671Y-94515528D01*
X189784097Y-94703463D01*
X189725112Y-95000000D01*
X189740001Y-95074852D01*
X189740000Y-113719647D01*
X189396892Y-113558514D01*
X189167000Y-113679181D01*
X189167000Y-114873000D01*
X189187000Y-114873000D01*
X189187000Y-115127000D01*
X189167000Y-115127000D01*
X189167000Y-115147000D01*
X188913000Y-115147000D01*
X188913000Y-115127000D01*
X188893000Y-115127000D01*
X188893000Y-114873000D01*
X188913000Y-114873000D01*
X188913000Y-113679181D01*
X188683108Y-113558514D01*
X188461865Y-113662415D01*
X188340329Y-113480525D01*
X188297929Y-113417069D01*
X188234473Y-113374669D01*
X185260000Y-110400197D01*
X185260000Y-90814801D01*
X201364793Y-74710010D01*
X201685572Y-74710010D01*
X201771822Y-74839091D01*
G36*
X202064502Y-77823748D02*
X202064502Y-77740329D01*
X202206907Y-77681343D01*
X202064502Y-77823748D01*
X202064502Y-77823748D01*
G37*
X202064502Y-77823748D02*
X202064502Y-77740329D01*
X202206907Y-77681343D01*
X202064502Y-77823748D01*
G04 #@! TO.N,GND*
G36*
X228873000Y-118373000D02*
X218627000Y-118373000D01*
X218627000Y-113627000D01*
X224250000Y-113627000D01*
X224298601Y-113617333D01*
X224339803Y-113589803D01*
X224367333Y-113548601D01*
X224377000Y-113500000D01*
X224377000Y-112765000D01*
X224477064Y-112765000D01*
X224465000Y-112794126D01*
X224465000Y-113205874D01*
X224622569Y-113586280D01*
X224913720Y-113877431D01*
X225294126Y-114035000D01*
X225705874Y-114035000D01*
X226086280Y-113877431D01*
X226336711Y-113627000D01*
X226500000Y-113627000D01*
X226548601Y-113617333D01*
X226589803Y-113589803D01*
X226617333Y-113548601D01*
X226627000Y-113500000D01*
X226627000Y-112050025D01*
X226765301Y-112188327D01*
X226998690Y-112285000D01*
X227214250Y-112285000D01*
X227373000Y-112126250D01*
X227373000Y-111377000D01*
X227627000Y-111377000D01*
X227627000Y-112126250D01*
X227785750Y-112285000D01*
X228001310Y-112285000D01*
X228234699Y-112188327D01*
X228413327Y-112009698D01*
X228510000Y-111776309D01*
X228510000Y-111535750D01*
X228351250Y-111377000D01*
X227627000Y-111377000D01*
X227373000Y-111377000D01*
X227353000Y-111377000D01*
X227353000Y-111123000D01*
X227373000Y-111123000D01*
X227373000Y-111103000D01*
X227627000Y-111103000D01*
X227627000Y-111123000D01*
X228351250Y-111123000D01*
X228510000Y-110964250D01*
X228510000Y-110723691D01*
X228469949Y-110627000D01*
X228873000Y-110627000D01*
X228873000Y-118373000D01*
X228873000Y-118373000D01*
G37*
X228873000Y-118373000D02*
X218627000Y-118373000D01*
X218627000Y-113627000D01*
X224250000Y-113627000D01*
X224298601Y-113617333D01*
X224339803Y-113589803D01*
X224367333Y-113548601D01*
X224377000Y-113500000D01*
X224377000Y-112765000D01*
X224477064Y-112765000D01*
X224465000Y-112794126D01*
X224465000Y-113205874D01*
X224622569Y-113586280D01*
X224913720Y-113877431D01*
X225294126Y-114035000D01*
X225705874Y-114035000D01*
X226086280Y-113877431D01*
X226336711Y-113627000D01*
X226500000Y-113627000D01*
X226548601Y-113617333D01*
X226589803Y-113589803D01*
X226617333Y-113548601D01*
X226627000Y-113500000D01*
X226627000Y-112050025D01*
X226765301Y-112188327D01*
X226998690Y-112285000D01*
X227214250Y-112285000D01*
X227373000Y-112126250D01*
X227373000Y-111377000D01*
X227627000Y-111377000D01*
X227627000Y-112126250D01*
X227785750Y-112285000D01*
X228001310Y-112285000D01*
X228234699Y-112188327D01*
X228413327Y-112009698D01*
X228510000Y-111776309D01*
X228510000Y-111535750D01*
X228351250Y-111377000D01*
X227627000Y-111377000D01*
X227373000Y-111377000D01*
X227353000Y-111377000D01*
X227353000Y-111123000D01*
X227373000Y-111123000D01*
X227373000Y-111103000D01*
X227627000Y-111103000D01*
X227627000Y-111123000D01*
X228351250Y-111123000D01*
X228510000Y-110964250D01*
X228510000Y-110723691D01*
X228469949Y-110627000D01*
X228873000Y-110627000D01*
X228873000Y-118373000D01*
G04 #@! TO.N,+BATT*
G36*
X217409671Y-94484473D02*
X217452071Y-94547929D01*
X217703463Y-94715904D01*
X217925148Y-94760000D01*
X217925152Y-94760000D01*
X217999999Y-94774888D01*
X218074846Y-94760000D01*
X222373000Y-94760000D01*
X222373000Y-106947240D01*
X222352560Y-107050000D01*
X222352560Y-107950000D01*
X222373000Y-108052760D01*
X222373000Y-108500000D01*
X222382667Y-108548601D01*
X222410197Y-108589803D01*
X222451399Y-108617333D01*
X222500000Y-108627000D01*
X222873000Y-108627000D01*
X222873000Y-109000000D01*
X222882667Y-109048601D01*
X222910197Y-109089803D01*
X222951399Y-109117333D01*
X223000000Y-109127000D01*
X223527560Y-109127000D01*
X223527560Y-109623000D01*
X222377000Y-109623000D01*
X222377000Y-109000000D01*
X222367333Y-108951399D01*
X222339803Y-108910197D01*
X222298601Y-108882667D01*
X222250000Y-108873000D01*
X221750000Y-108873000D01*
X221701399Y-108882667D01*
X221660197Y-108910197D01*
X221632667Y-108951399D01*
X221623000Y-109000000D01*
X221623000Y-109373000D01*
X221377000Y-109373000D01*
X221377000Y-109000000D01*
X221367333Y-108951399D01*
X221339803Y-108910197D01*
X221298601Y-108882667D01*
X221250000Y-108873000D01*
X219750000Y-108873000D01*
X219701399Y-108882667D01*
X219660197Y-108910197D01*
X219632667Y-108951399D01*
X219623000Y-109000000D01*
X219623000Y-109623000D01*
X219377000Y-109623000D01*
X219377000Y-109000000D01*
X219367333Y-108951399D01*
X219339803Y-108910197D01*
X219298601Y-108882667D01*
X219250000Y-108873000D01*
X218500000Y-108873000D01*
X218451399Y-108882667D01*
X218410197Y-108910197D01*
X218382667Y-108951399D01*
X218373000Y-109000000D01*
X218373000Y-110373000D01*
X216685000Y-110373000D01*
X216685000Y-100067462D01*
X216698419Y-100000000D01*
X216645255Y-99732727D01*
X216493857Y-99506143D01*
X216267273Y-99354745D01*
X216067462Y-99315000D01*
X216067461Y-99315000D01*
X216000000Y-99301581D01*
X215932538Y-99315000D01*
X215067462Y-99315000D01*
X215000000Y-99301581D01*
X214932539Y-99315000D01*
X214932538Y-99315000D01*
X214732727Y-99354745D01*
X214506143Y-99506143D01*
X214354745Y-99732727D01*
X214301581Y-100000000D01*
X214315001Y-100067467D01*
X214315000Y-126373000D01*
X210685000Y-126373000D01*
X210685000Y-104432538D01*
X210683354Y-104424264D01*
X210679424Y-104263441D01*
X210678530Y-104255996D01*
X210678896Y-104248505D01*
X210672539Y-104181883D01*
X210549882Y-103335935D01*
X210542374Y-103305135D01*
X210537905Y-103273736D01*
X210519065Y-103209519D01*
X210238656Y-102402027D01*
X210225456Y-102373196D01*
X210215133Y-102343215D01*
X210184491Y-102283719D01*
X210184491Y-102283718D01*
X210184488Y-102283714D01*
X210127000Y-102184342D01*
X210127000Y-100000000D01*
X210117333Y-99951399D01*
X210089803Y-99910197D01*
X210048601Y-99882667D01*
X210000000Y-99873000D01*
X207795775Y-99873000D01*
X207484798Y-99712837D01*
X207455359Y-99701062D01*
X207427206Y-99686469D01*
X207363985Y-99664515D01*
X206543759Y-99423887D01*
X206512625Y-99417892D01*
X206482220Y-99408885D01*
X206416013Y-99399287D01*
X206415989Y-99399282D01*
X206415978Y-99399282D01*
X205565059Y-99318097D01*
X205557567Y-99318097D01*
X205550169Y-99316839D01*
X205483266Y-99315204D01*
X205263441Y-99320576D01*
X205255996Y-99321470D01*
X205248505Y-99321104D01*
X205181883Y-99327461D01*
X204335935Y-99450118D01*
X204305135Y-99457626D01*
X204273736Y-99462095D01*
X204209519Y-99480935D01*
X203402027Y-99761344D01*
X203373196Y-99774544D01*
X203343215Y-99784867D01*
X203283727Y-99815505D01*
X203283718Y-99815509D01*
X203283717Y-99815510D01*
X203184342Y-99873000D01*
X201000000Y-99873000D01*
X200951399Y-99882667D01*
X200910197Y-99910197D01*
X200882667Y-99951399D01*
X200873000Y-100000000D01*
X200873000Y-102204226D01*
X200712837Y-102515202D01*
X200701062Y-102544641D01*
X200686469Y-102572794D01*
X200664515Y-102636015D01*
X200423887Y-103456241D01*
X200417892Y-103487375D01*
X200408885Y-103517780D01*
X200399287Y-103583987D01*
X200399282Y-103584011D01*
X200399282Y-103584022D01*
X200321392Y-104400403D01*
X200315000Y-104432539D01*
X200315001Y-126373000D01*
X196685000Y-126373000D01*
X196685000Y-100067462D01*
X196698419Y-100000000D01*
X196645255Y-99732727D01*
X196493857Y-99506143D01*
X196267273Y-99354745D01*
X196127000Y-99326843D01*
X196127000Y-93627000D01*
X216552198Y-93627000D01*
X217409671Y-94484473D01*
X217409671Y-94484473D01*
G37*
X217409671Y-94484473D02*
X217452071Y-94547929D01*
X217703463Y-94715904D01*
X217925148Y-94760000D01*
X217925152Y-94760000D01*
X217999999Y-94774888D01*
X218074846Y-94760000D01*
X222373000Y-94760000D01*
X222373000Y-106947240D01*
X222352560Y-107050000D01*
X222352560Y-107950000D01*
X222373000Y-108052760D01*
X222373000Y-108500000D01*
X222382667Y-108548601D01*
X222410197Y-108589803D01*
X222451399Y-108617333D01*
X222500000Y-108627000D01*
X222873000Y-108627000D01*
X222873000Y-109000000D01*
X222882667Y-109048601D01*
X222910197Y-109089803D01*
X222951399Y-109117333D01*
X223000000Y-109127000D01*
X223527560Y-109127000D01*
X223527560Y-109623000D01*
X222377000Y-109623000D01*
X222377000Y-109000000D01*
X222367333Y-108951399D01*
X222339803Y-108910197D01*
X222298601Y-108882667D01*
X222250000Y-108873000D01*
X221750000Y-108873000D01*
X221701399Y-108882667D01*
X221660197Y-108910197D01*
X221632667Y-108951399D01*
X221623000Y-109000000D01*
X221623000Y-109373000D01*
X221377000Y-109373000D01*
X221377000Y-109000000D01*
X221367333Y-108951399D01*
X221339803Y-108910197D01*
X221298601Y-108882667D01*
X221250000Y-108873000D01*
X219750000Y-108873000D01*
X219701399Y-108882667D01*
X219660197Y-108910197D01*
X219632667Y-108951399D01*
X219623000Y-109000000D01*
X219623000Y-109623000D01*
X219377000Y-109623000D01*
X219377000Y-109000000D01*
X219367333Y-108951399D01*
X219339803Y-108910197D01*
X219298601Y-108882667D01*
X219250000Y-108873000D01*
X218500000Y-108873000D01*
X218451399Y-108882667D01*
X218410197Y-108910197D01*
X218382667Y-108951399D01*
X218373000Y-109000000D01*
X218373000Y-110373000D01*
X216685000Y-110373000D01*
X216685000Y-100067462D01*
X216698419Y-100000000D01*
X216645255Y-99732727D01*
X216493857Y-99506143D01*
X216267273Y-99354745D01*
X216067462Y-99315000D01*
X216067461Y-99315000D01*
X216000000Y-99301581D01*
X215932538Y-99315000D01*
X215067462Y-99315000D01*
X215000000Y-99301581D01*
X214932539Y-99315000D01*
X214932538Y-99315000D01*
X214732727Y-99354745D01*
X214506143Y-99506143D01*
X214354745Y-99732727D01*
X214301581Y-100000000D01*
X214315001Y-100067467D01*
X214315000Y-126373000D01*
X210685000Y-126373000D01*
X210685000Y-104432538D01*
X210683354Y-104424264D01*
X210679424Y-104263441D01*
X210678530Y-104255996D01*
X210678896Y-104248505D01*
X210672539Y-104181883D01*
X210549882Y-103335935D01*
X210542374Y-103305135D01*
X210537905Y-103273736D01*
X210519065Y-103209519D01*
X210238656Y-102402027D01*
X210225456Y-102373196D01*
X210215133Y-102343215D01*
X210184491Y-102283719D01*
X210184491Y-102283718D01*
X210184488Y-102283714D01*
X210127000Y-102184342D01*
X210127000Y-100000000D01*
X210117333Y-99951399D01*
X210089803Y-99910197D01*
X210048601Y-99882667D01*
X210000000Y-99873000D01*
X207795775Y-99873000D01*
X207484798Y-99712837D01*
X207455359Y-99701062D01*
X207427206Y-99686469D01*
X207363985Y-99664515D01*
X206543759Y-99423887D01*
X206512625Y-99417892D01*
X206482220Y-99408885D01*
X206416013Y-99399287D01*
X206415989Y-99399282D01*
X206415978Y-99399282D01*
X205565059Y-99318097D01*
X205557567Y-99318097D01*
X205550169Y-99316839D01*
X205483266Y-99315204D01*
X205263441Y-99320576D01*
X205255996Y-99321470D01*
X205248505Y-99321104D01*
X205181883Y-99327461D01*
X204335935Y-99450118D01*
X204305135Y-99457626D01*
X204273736Y-99462095D01*
X204209519Y-99480935D01*
X203402027Y-99761344D01*
X203373196Y-99774544D01*
X203343215Y-99784867D01*
X203283727Y-99815505D01*
X203283718Y-99815509D01*
X203283717Y-99815510D01*
X203184342Y-99873000D01*
X201000000Y-99873000D01*
X200951399Y-99882667D01*
X200910197Y-99910197D01*
X200882667Y-99951399D01*
X200873000Y-100000000D01*
X200873000Y-102204226D01*
X200712837Y-102515202D01*
X200701062Y-102544641D01*
X200686469Y-102572794D01*
X200664515Y-102636015D01*
X200423887Y-103456241D01*
X200417892Y-103487375D01*
X200408885Y-103517780D01*
X200399287Y-103583987D01*
X200399282Y-103584011D01*
X200399282Y-103584022D01*
X200321392Y-104400403D01*
X200315000Y-104432539D01*
X200315001Y-126373000D01*
X196685000Y-126373000D01*
X196685000Y-100067462D01*
X196698419Y-100000000D01*
X196645255Y-99732727D01*
X196493857Y-99506143D01*
X196267273Y-99354745D01*
X196127000Y-99326843D01*
X196127000Y-93627000D01*
X216552198Y-93627000D01*
X217409671Y-94484473D01*
G04 #@! TD*
M02*
