G04 #@! TF.GenerationSoftware,KiCad,Pcbnew,5.1.0-unknown-3692c51~82~ubuntu16.04.1*
G04 #@! TF.CreationDate,2019-03-31T09:50:07-04:00*
G04 #@! TF.ProjectId,BalancingBusinessCardLights,42616c61-6e63-4696-9e67-427573696e65,rev?*
G04 #@! TF.SameCoordinates,Original*
G04 #@! TF.FileFunction,Soldermask,Bot*
G04 #@! TF.FilePolarity,Negative*
%FSLAX46Y46*%
G04 Gerber Fmt 4.6, Leading zero omitted, Abs format (unit mm)*
G04 Created by KiCad (PCBNEW 5.1.0-unknown-3692c51~82~ubuntu16.04.1) date 2019-03-31 09:50:07*
%MOMM*%
%LPD*%
G04 APERTURE LIST*
%ADD10C,0.100000*%
G04 APERTURE END LIST*
D10*
G36*
X213748801Y-86024789D02*
G01*
X206646801Y-86024789D01*
X206646801Y-64922789D01*
X213748801Y-64922789D01*
X213748801Y-86024789D01*
X213748801Y-86024789D01*
G37*
G36*
X226768243Y-83179307D02*
G01*
X226834428Y-83185826D01*
X227004267Y-83237346D01*
X227160792Y-83321011D01*
X227196530Y-83350341D01*
X227297987Y-83433603D01*
X227381249Y-83535060D01*
X227410579Y-83570798D01*
X227494244Y-83727323D01*
X227545764Y-83897162D01*
X227563160Y-84073789D01*
X227545764Y-84250416D01*
X227494244Y-84420255D01*
X227410579Y-84576780D01*
X227381249Y-84612518D01*
X227297987Y-84713975D01*
X227196530Y-84797237D01*
X227160792Y-84826567D01*
X227004267Y-84910232D01*
X226834428Y-84961752D01*
X226768244Y-84968270D01*
X226702061Y-84974789D01*
X226613541Y-84974789D01*
X226547358Y-84968270D01*
X226481174Y-84961752D01*
X226311335Y-84910232D01*
X226154810Y-84826567D01*
X226119072Y-84797237D01*
X226017615Y-84713975D01*
X225934353Y-84612518D01*
X225905023Y-84576780D01*
X225821358Y-84420255D01*
X225769838Y-84250416D01*
X225752442Y-84073789D01*
X225769838Y-83897162D01*
X225821358Y-83727323D01*
X225905023Y-83570798D01*
X225934353Y-83535060D01*
X226017615Y-83433603D01*
X226119072Y-83350341D01*
X226154810Y-83321011D01*
X226311335Y-83237346D01*
X226481174Y-83185826D01*
X226547359Y-83179307D01*
X226613541Y-83172789D01*
X226702061Y-83172789D01*
X226768243Y-83179307D01*
X226768243Y-83179307D01*
G37*
G36*
X230098801Y-84974789D02*
G01*
X228296801Y-84974789D01*
X228296801Y-83172789D01*
X230098801Y-83172789D01*
X230098801Y-84974789D01*
X230098801Y-84974789D01*
G37*
G36*
X226768244Y-75579308D02*
G01*
X226834428Y-75585826D01*
X227004267Y-75637346D01*
X227160792Y-75721011D01*
X227196530Y-75750341D01*
X227297987Y-75833603D01*
X227381249Y-75935060D01*
X227410579Y-75970798D01*
X227494244Y-76127323D01*
X227545764Y-76297162D01*
X227563160Y-76473789D01*
X227545764Y-76650416D01*
X227494244Y-76820255D01*
X227410579Y-76976780D01*
X227381249Y-77012518D01*
X227297987Y-77113975D01*
X227196530Y-77197237D01*
X227160792Y-77226567D01*
X227004267Y-77310232D01*
X226834428Y-77361752D01*
X226768244Y-77368270D01*
X226702061Y-77374789D01*
X226613541Y-77374789D01*
X226547358Y-77368270D01*
X226481174Y-77361752D01*
X226311335Y-77310232D01*
X226154810Y-77226567D01*
X226119072Y-77197237D01*
X226017615Y-77113975D01*
X225934353Y-77012518D01*
X225905023Y-76976780D01*
X225821358Y-76820255D01*
X225769838Y-76650416D01*
X225752442Y-76473789D01*
X225769838Y-76297162D01*
X225821358Y-76127323D01*
X225905023Y-75970798D01*
X225934353Y-75935060D01*
X226017615Y-75833603D01*
X226119072Y-75750341D01*
X226154810Y-75721011D01*
X226311335Y-75637346D01*
X226481174Y-75585826D01*
X226547358Y-75579308D01*
X226613541Y-75572789D01*
X226702061Y-75572789D01*
X226768244Y-75579308D01*
X226768244Y-75579308D01*
G37*
G36*
X230098801Y-77374789D02*
G01*
X228296801Y-77374789D01*
X228296801Y-75572789D01*
X230098801Y-75572789D01*
X230098801Y-77374789D01*
X230098801Y-77374789D01*
G37*
G36*
X229308243Y-73039307D02*
G01*
X229374428Y-73045826D01*
X229544267Y-73097346D01*
X229700792Y-73181011D01*
X229736530Y-73210341D01*
X229837987Y-73293603D01*
X229921249Y-73395060D01*
X229950579Y-73430798D01*
X230034244Y-73587323D01*
X230085764Y-73757162D01*
X230103160Y-73933789D01*
X230085764Y-74110416D01*
X230034244Y-74280255D01*
X229950579Y-74436780D01*
X229921249Y-74472518D01*
X229837987Y-74573975D01*
X229736530Y-74657237D01*
X229700792Y-74686567D01*
X229544267Y-74770232D01*
X229374428Y-74821752D01*
X229308243Y-74828271D01*
X229242061Y-74834789D01*
X229153541Y-74834789D01*
X229087359Y-74828271D01*
X229021174Y-74821752D01*
X228851335Y-74770232D01*
X228694810Y-74686567D01*
X228659072Y-74657237D01*
X228557615Y-74573975D01*
X228474353Y-74472518D01*
X228445023Y-74436780D01*
X228361358Y-74280255D01*
X228309838Y-74110416D01*
X228292442Y-73933789D01*
X228309838Y-73757162D01*
X228361358Y-73587323D01*
X228445023Y-73430798D01*
X228474353Y-73395060D01*
X228557615Y-73293603D01*
X228659072Y-73210341D01*
X228694810Y-73181011D01*
X228851335Y-73097346D01*
X229021174Y-73045826D01*
X229087359Y-73039307D01*
X229153541Y-73032789D01*
X229242061Y-73032789D01*
X229308243Y-73039307D01*
X229308243Y-73039307D01*
G37*
G36*
X226768243Y-73039307D02*
G01*
X226834428Y-73045826D01*
X227004267Y-73097346D01*
X227160792Y-73181011D01*
X227196530Y-73210341D01*
X227297987Y-73293603D01*
X227381249Y-73395060D01*
X227410579Y-73430798D01*
X227494244Y-73587323D01*
X227545764Y-73757162D01*
X227563160Y-73933789D01*
X227545764Y-74110416D01*
X227494244Y-74280255D01*
X227410579Y-74436780D01*
X227381249Y-74472518D01*
X227297987Y-74573975D01*
X227196530Y-74657237D01*
X227160792Y-74686567D01*
X227004267Y-74770232D01*
X226834428Y-74821752D01*
X226768243Y-74828271D01*
X226702061Y-74834789D01*
X226613541Y-74834789D01*
X226547359Y-74828271D01*
X226481174Y-74821752D01*
X226311335Y-74770232D01*
X226154810Y-74686567D01*
X226119072Y-74657237D01*
X226017615Y-74573975D01*
X225934353Y-74472518D01*
X225905023Y-74436780D01*
X225821358Y-74280255D01*
X225769838Y-74110416D01*
X225752442Y-73933789D01*
X225769838Y-73757162D01*
X225821358Y-73587323D01*
X225905023Y-73430798D01*
X225934353Y-73395060D01*
X226017615Y-73293603D01*
X226119072Y-73210341D01*
X226154810Y-73181011D01*
X226311335Y-73097346D01*
X226481174Y-73045826D01*
X226547359Y-73039307D01*
X226613541Y-73032789D01*
X226702061Y-73032789D01*
X226768243Y-73039307D01*
X226768243Y-73039307D01*
G37*
G36*
X229308244Y-70499308D02*
G01*
X229374428Y-70505826D01*
X229544267Y-70557346D01*
X229700792Y-70641011D01*
X229736530Y-70670341D01*
X229837987Y-70753603D01*
X229921249Y-70855060D01*
X229950579Y-70890798D01*
X230034244Y-71047323D01*
X230085764Y-71217162D01*
X230103160Y-71393789D01*
X230085764Y-71570416D01*
X230034244Y-71740255D01*
X229950579Y-71896780D01*
X229921249Y-71932518D01*
X229837987Y-72033975D01*
X229736530Y-72117237D01*
X229700792Y-72146567D01*
X229544267Y-72230232D01*
X229374428Y-72281752D01*
X229308244Y-72288270D01*
X229242061Y-72294789D01*
X229153541Y-72294789D01*
X229087358Y-72288270D01*
X229021174Y-72281752D01*
X228851335Y-72230232D01*
X228694810Y-72146567D01*
X228659072Y-72117237D01*
X228557615Y-72033975D01*
X228474353Y-71932518D01*
X228445023Y-71896780D01*
X228361358Y-71740255D01*
X228309838Y-71570416D01*
X228292442Y-71393789D01*
X228309838Y-71217162D01*
X228361358Y-71047323D01*
X228445023Y-70890798D01*
X228474353Y-70855060D01*
X228557615Y-70753603D01*
X228659072Y-70670341D01*
X228694810Y-70641011D01*
X228851335Y-70557346D01*
X229021174Y-70505826D01*
X229087358Y-70499308D01*
X229153541Y-70492789D01*
X229242061Y-70492789D01*
X229308244Y-70499308D01*
X229308244Y-70499308D01*
G37*
G36*
X226768244Y-70499308D02*
G01*
X226834428Y-70505826D01*
X227004267Y-70557346D01*
X227160792Y-70641011D01*
X227196530Y-70670341D01*
X227297987Y-70753603D01*
X227381249Y-70855060D01*
X227410579Y-70890798D01*
X227494244Y-71047323D01*
X227545764Y-71217162D01*
X227563160Y-71393789D01*
X227545764Y-71570416D01*
X227494244Y-71740255D01*
X227410579Y-71896780D01*
X227381249Y-71932518D01*
X227297987Y-72033975D01*
X227196530Y-72117237D01*
X227160792Y-72146567D01*
X227004267Y-72230232D01*
X226834428Y-72281752D01*
X226768244Y-72288270D01*
X226702061Y-72294789D01*
X226613541Y-72294789D01*
X226547358Y-72288270D01*
X226481174Y-72281752D01*
X226311335Y-72230232D01*
X226154810Y-72146567D01*
X226119072Y-72117237D01*
X226017615Y-72033975D01*
X225934353Y-71932518D01*
X225905023Y-71896780D01*
X225821358Y-71740255D01*
X225769838Y-71570416D01*
X225752442Y-71393789D01*
X225769838Y-71217162D01*
X225821358Y-71047323D01*
X225905023Y-70890798D01*
X225934353Y-70855060D01*
X226017615Y-70753603D01*
X226119072Y-70670341D01*
X226154810Y-70641011D01*
X226311335Y-70557346D01*
X226481174Y-70505826D01*
X226547358Y-70499308D01*
X226613541Y-70492789D01*
X226702061Y-70492789D01*
X226768244Y-70499308D01*
X226768244Y-70499308D01*
G37*
M02*
