G04 #@! TF.GenerationSoftware,KiCad,Pcbnew,5.1.0-unknown-3692c51~82~ubuntu16.04.1*
G04 #@! TF.CreationDate,2019-03-31T09:50:07-04:00*
G04 #@! TF.ProjectId,BalancingBusinessCardLights,42616c61-6e63-4696-9e67-427573696e65,rev?*
G04 #@! TF.SameCoordinates,Original*
G04 #@! TF.FileFunction,Paste,Top*
G04 #@! TF.FilePolarity,Positive*
%FSLAX46Y46*%
G04 Gerber Fmt 4.6, Leading zero omitted, Abs format (unit mm)*
G04 Created by KiCad (PCBNEW 5.1.0-unknown-3692c51~82~ubuntu16.04.1) date 2019-03-31 09:50:07*
%MOMM*%
%LPD*%
G04 APERTURE LIST*
%ADD10C,0.100000*%
%ADD11C,0.975000*%
%ADD12C,0.875000*%
%ADD13R,0.254000X0.355600*%
%ADD14R,0.355600X0.254000*%
%ADD15R,0.900000X0.500000*%
%ADD16C,1.035000*%
%ADD17C,0.250000*%
%ADD18R,0.650000X1.060000*%
G04 APERTURE END LIST*
D10*
G36*
X215902943Y-111774963D02*
G01*
X215926604Y-111778473D01*
X215949808Y-111784285D01*
X215972330Y-111792343D01*
X215993954Y-111802571D01*
X216014471Y-111814868D01*
X216033684Y-111829118D01*
X216051408Y-111845182D01*
X216067472Y-111862906D01*
X216081722Y-111882119D01*
X216094019Y-111902636D01*
X216104247Y-111924260D01*
X216112305Y-111946782D01*
X216118117Y-111969986D01*
X216121627Y-111993647D01*
X216122801Y-112017539D01*
X216122801Y-112930039D01*
X216121627Y-112953931D01*
X216118117Y-112977592D01*
X216112305Y-113000796D01*
X216104247Y-113023318D01*
X216094019Y-113044942D01*
X216081722Y-113065459D01*
X216067472Y-113084672D01*
X216051408Y-113102396D01*
X216033684Y-113118460D01*
X216014471Y-113132710D01*
X215993954Y-113145007D01*
X215972330Y-113155235D01*
X215949808Y-113163293D01*
X215926604Y-113169105D01*
X215902943Y-113172615D01*
X215879051Y-113173789D01*
X215391551Y-113173789D01*
X215367659Y-113172615D01*
X215343998Y-113169105D01*
X215320794Y-113163293D01*
X215298272Y-113155235D01*
X215276648Y-113145007D01*
X215256131Y-113132710D01*
X215236918Y-113118460D01*
X215219194Y-113102396D01*
X215203130Y-113084672D01*
X215188880Y-113065459D01*
X215176583Y-113044942D01*
X215166355Y-113023318D01*
X215158297Y-113000796D01*
X215152485Y-112977592D01*
X215148975Y-112953931D01*
X215147801Y-112930039D01*
X215147801Y-112017539D01*
X215148975Y-111993647D01*
X215152485Y-111969986D01*
X215158297Y-111946782D01*
X215166355Y-111924260D01*
X215176583Y-111902636D01*
X215188880Y-111882119D01*
X215203130Y-111862906D01*
X215219194Y-111845182D01*
X215236918Y-111829118D01*
X215256131Y-111814868D01*
X215276648Y-111802571D01*
X215298272Y-111792343D01*
X215320794Y-111784285D01*
X215343998Y-111778473D01*
X215367659Y-111774963D01*
X215391551Y-111773789D01*
X215879051Y-111773789D01*
X215902943Y-111774963D01*
X215902943Y-111774963D01*
G37*
D11*
X215635301Y-112473789D03*
D10*
G36*
X214027943Y-111774963D02*
G01*
X214051604Y-111778473D01*
X214074808Y-111784285D01*
X214097330Y-111792343D01*
X214118954Y-111802571D01*
X214139471Y-111814868D01*
X214158684Y-111829118D01*
X214176408Y-111845182D01*
X214192472Y-111862906D01*
X214206722Y-111882119D01*
X214219019Y-111902636D01*
X214229247Y-111924260D01*
X214237305Y-111946782D01*
X214243117Y-111969986D01*
X214246627Y-111993647D01*
X214247801Y-112017539D01*
X214247801Y-112930039D01*
X214246627Y-112953931D01*
X214243117Y-112977592D01*
X214237305Y-113000796D01*
X214229247Y-113023318D01*
X214219019Y-113044942D01*
X214206722Y-113065459D01*
X214192472Y-113084672D01*
X214176408Y-113102396D01*
X214158684Y-113118460D01*
X214139471Y-113132710D01*
X214118954Y-113145007D01*
X214097330Y-113155235D01*
X214074808Y-113163293D01*
X214051604Y-113169105D01*
X214027943Y-113172615D01*
X214004051Y-113173789D01*
X213516551Y-113173789D01*
X213492659Y-113172615D01*
X213468998Y-113169105D01*
X213445794Y-113163293D01*
X213423272Y-113155235D01*
X213401648Y-113145007D01*
X213381131Y-113132710D01*
X213361918Y-113118460D01*
X213344194Y-113102396D01*
X213328130Y-113084672D01*
X213313880Y-113065459D01*
X213301583Y-113044942D01*
X213291355Y-113023318D01*
X213283297Y-113000796D01*
X213277485Y-112977592D01*
X213273975Y-112953931D01*
X213272801Y-112930039D01*
X213272801Y-112017539D01*
X213273975Y-111993647D01*
X213277485Y-111969986D01*
X213283297Y-111946782D01*
X213291355Y-111924260D01*
X213301583Y-111902636D01*
X213313880Y-111882119D01*
X213328130Y-111862906D01*
X213344194Y-111845182D01*
X213361918Y-111829118D01*
X213381131Y-111814868D01*
X213401648Y-111802571D01*
X213423272Y-111792343D01*
X213445794Y-111784285D01*
X213468998Y-111778473D01*
X213492659Y-111774963D01*
X213516551Y-111773789D01*
X214004051Y-111773789D01*
X214027943Y-111774963D01*
X214027943Y-111774963D01*
G37*
D11*
X213760301Y-112473789D03*
D10*
G36*
X227527943Y-60774963D02*
G01*
X227551604Y-60778473D01*
X227574808Y-60784285D01*
X227597330Y-60792343D01*
X227618954Y-60802571D01*
X227639471Y-60814868D01*
X227658684Y-60829118D01*
X227676408Y-60845182D01*
X227692472Y-60862906D01*
X227706722Y-60882119D01*
X227719019Y-60902636D01*
X227729247Y-60924260D01*
X227737305Y-60946782D01*
X227743117Y-60969986D01*
X227746627Y-60993647D01*
X227747801Y-61017539D01*
X227747801Y-61930039D01*
X227746627Y-61953931D01*
X227743117Y-61977592D01*
X227737305Y-62000796D01*
X227729247Y-62023318D01*
X227719019Y-62044942D01*
X227706722Y-62065459D01*
X227692472Y-62084672D01*
X227676408Y-62102396D01*
X227658684Y-62118460D01*
X227639471Y-62132710D01*
X227618954Y-62145007D01*
X227597330Y-62155235D01*
X227574808Y-62163293D01*
X227551604Y-62169105D01*
X227527943Y-62172615D01*
X227504051Y-62173789D01*
X227016551Y-62173789D01*
X226992659Y-62172615D01*
X226968998Y-62169105D01*
X226945794Y-62163293D01*
X226923272Y-62155235D01*
X226901648Y-62145007D01*
X226881131Y-62132710D01*
X226861918Y-62118460D01*
X226844194Y-62102396D01*
X226828130Y-62084672D01*
X226813880Y-62065459D01*
X226801583Y-62044942D01*
X226791355Y-62023318D01*
X226783297Y-62000796D01*
X226777485Y-61977592D01*
X226773975Y-61953931D01*
X226772801Y-61930039D01*
X226772801Y-61017539D01*
X226773975Y-60993647D01*
X226777485Y-60969986D01*
X226783297Y-60946782D01*
X226791355Y-60924260D01*
X226801583Y-60902636D01*
X226813880Y-60882119D01*
X226828130Y-60862906D01*
X226844194Y-60845182D01*
X226861918Y-60829118D01*
X226881131Y-60814868D01*
X226901648Y-60802571D01*
X226923272Y-60792343D01*
X226945794Y-60784285D01*
X226968998Y-60778473D01*
X226992659Y-60774963D01*
X227016551Y-60773789D01*
X227504051Y-60773789D01*
X227527943Y-60774963D01*
X227527943Y-60774963D01*
G37*
D11*
X227260301Y-61473789D03*
D10*
G36*
X229402943Y-60774963D02*
G01*
X229426604Y-60778473D01*
X229449808Y-60784285D01*
X229472330Y-60792343D01*
X229493954Y-60802571D01*
X229514471Y-60814868D01*
X229533684Y-60829118D01*
X229551408Y-60845182D01*
X229567472Y-60862906D01*
X229581722Y-60882119D01*
X229594019Y-60902636D01*
X229604247Y-60924260D01*
X229612305Y-60946782D01*
X229618117Y-60969986D01*
X229621627Y-60993647D01*
X229622801Y-61017539D01*
X229622801Y-61930039D01*
X229621627Y-61953931D01*
X229618117Y-61977592D01*
X229612305Y-62000796D01*
X229604247Y-62023318D01*
X229594019Y-62044942D01*
X229581722Y-62065459D01*
X229567472Y-62084672D01*
X229551408Y-62102396D01*
X229533684Y-62118460D01*
X229514471Y-62132710D01*
X229493954Y-62145007D01*
X229472330Y-62155235D01*
X229449808Y-62163293D01*
X229426604Y-62169105D01*
X229402943Y-62172615D01*
X229379051Y-62173789D01*
X228891551Y-62173789D01*
X228867659Y-62172615D01*
X228843998Y-62169105D01*
X228820794Y-62163293D01*
X228798272Y-62155235D01*
X228776648Y-62145007D01*
X228756131Y-62132710D01*
X228736918Y-62118460D01*
X228719194Y-62102396D01*
X228703130Y-62084672D01*
X228688880Y-62065459D01*
X228676583Y-62044942D01*
X228666355Y-62023318D01*
X228658297Y-62000796D01*
X228652485Y-61977592D01*
X228648975Y-61953931D01*
X228647801Y-61930039D01*
X228647801Y-61017539D01*
X228648975Y-60993647D01*
X228652485Y-60969986D01*
X228658297Y-60946782D01*
X228666355Y-60924260D01*
X228676583Y-60902636D01*
X228688880Y-60882119D01*
X228703130Y-60862906D01*
X228719194Y-60845182D01*
X228736918Y-60829118D01*
X228756131Y-60814868D01*
X228776648Y-60802571D01*
X228798272Y-60792343D01*
X228820794Y-60784285D01*
X228843998Y-60778473D01*
X228867659Y-60774963D01*
X228891551Y-60773789D01*
X229379051Y-60773789D01*
X229402943Y-60774963D01*
X229402943Y-60774963D01*
G37*
D11*
X229135301Y-61473789D03*
D10*
G36*
X227650492Y-62999842D02*
G01*
X227671727Y-63002992D01*
X227692551Y-63008208D01*
X227712763Y-63015440D01*
X227732169Y-63024619D01*
X227750582Y-63035655D01*
X227767825Y-63048443D01*
X227783731Y-63062859D01*
X227798147Y-63078765D01*
X227810935Y-63096008D01*
X227821971Y-63114421D01*
X227831150Y-63133827D01*
X227838382Y-63154039D01*
X227843598Y-63174863D01*
X227846748Y-63196098D01*
X227847801Y-63217539D01*
X227847801Y-63730039D01*
X227846748Y-63751480D01*
X227843598Y-63772715D01*
X227838382Y-63793539D01*
X227831150Y-63813751D01*
X227821971Y-63833157D01*
X227810935Y-63851570D01*
X227798147Y-63868813D01*
X227783731Y-63884719D01*
X227767825Y-63899135D01*
X227750582Y-63911923D01*
X227732169Y-63922959D01*
X227712763Y-63932138D01*
X227692551Y-63939370D01*
X227671727Y-63944586D01*
X227650492Y-63947736D01*
X227629051Y-63948789D01*
X227191551Y-63948789D01*
X227170110Y-63947736D01*
X227148875Y-63944586D01*
X227128051Y-63939370D01*
X227107839Y-63932138D01*
X227088433Y-63922959D01*
X227070020Y-63911923D01*
X227052777Y-63899135D01*
X227036871Y-63884719D01*
X227022455Y-63868813D01*
X227009667Y-63851570D01*
X226998631Y-63833157D01*
X226989452Y-63813751D01*
X226982220Y-63793539D01*
X226977004Y-63772715D01*
X226973854Y-63751480D01*
X226972801Y-63730039D01*
X226972801Y-63217539D01*
X226973854Y-63196098D01*
X226977004Y-63174863D01*
X226982220Y-63154039D01*
X226989452Y-63133827D01*
X226998631Y-63114421D01*
X227009667Y-63096008D01*
X227022455Y-63078765D01*
X227036871Y-63062859D01*
X227052777Y-63048443D01*
X227070020Y-63035655D01*
X227088433Y-63024619D01*
X227107839Y-63015440D01*
X227128051Y-63008208D01*
X227148875Y-63002992D01*
X227170110Y-62999842D01*
X227191551Y-62998789D01*
X227629051Y-62998789D01*
X227650492Y-62999842D01*
X227650492Y-62999842D01*
G37*
D12*
X227410301Y-63473789D03*
D10*
G36*
X229225492Y-62999842D02*
G01*
X229246727Y-63002992D01*
X229267551Y-63008208D01*
X229287763Y-63015440D01*
X229307169Y-63024619D01*
X229325582Y-63035655D01*
X229342825Y-63048443D01*
X229358731Y-63062859D01*
X229373147Y-63078765D01*
X229385935Y-63096008D01*
X229396971Y-63114421D01*
X229406150Y-63133827D01*
X229413382Y-63154039D01*
X229418598Y-63174863D01*
X229421748Y-63196098D01*
X229422801Y-63217539D01*
X229422801Y-63730039D01*
X229421748Y-63751480D01*
X229418598Y-63772715D01*
X229413382Y-63793539D01*
X229406150Y-63813751D01*
X229396971Y-63833157D01*
X229385935Y-63851570D01*
X229373147Y-63868813D01*
X229358731Y-63884719D01*
X229342825Y-63899135D01*
X229325582Y-63911923D01*
X229307169Y-63922959D01*
X229287763Y-63932138D01*
X229267551Y-63939370D01*
X229246727Y-63944586D01*
X229225492Y-63947736D01*
X229204051Y-63948789D01*
X228766551Y-63948789D01*
X228745110Y-63947736D01*
X228723875Y-63944586D01*
X228703051Y-63939370D01*
X228682839Y-63932138D01*
X228663433Y-63922959D01*
X228645020Y-63911923D01*
X228627777Y-63899135D01*
X228611871Y-63884719D01*
X228597455Y-63868813D01*
X228584667Y-63851570D01*
X228573631Y-63833157D01*
X228564452Y-63813751D01*
X228557220Y-63793539D01*
X228552004Y-63772715D01*
X228548854Y-63751480D01*
X228547801Y-63730039D01*
X228547801Y-63217539D01*
X228548854Y-63196098D01*
X228552004Y-63174863D01*
X228557220Y-63154039D01*
X228564452Y-63133827D01*
X228573631Y-63114421D01*
X228584667Y-63096008D01*
X228597455Y-63078765D01*
X228611871Y-63062859D01*
X228627777Y-63048443D01*
X228645020Y-63035655D01*
X228663433Y-63024619D01*
X228682839Y-63015440D01*
X228703051Y-63008208D01*
X228723875Y-63002992D01*
X228745110Y-62999842D01*
X228766551Y-62998789D01*
X229204051Y-62998789D01*
X229225492Y-62999842D01*
X229225492Y-62999842D01*
G37*
D12*
X228985301Y-63473789D03*
D10*
G36*
X188725492Y-136999842D02*
G01*
X188746727Y-137002992D01*
X188767551Y-137008208D01*
X188787763Y-137015440D01*
X188807169Y-137024619D01*
X188825582Y-137035655D01*
X188842825Y-137048443D01*
X188858731Y-137062859D01*
X188873147Y-137078765D01*
X188885935Y-137096008D01*
X188896971Y-137114421D01*
X188906150Y-137133827D01*
X188913382Y-137154039D01*
X188918598Y-137174863D01*
X188921748Y-137196098D01*
X188922801Y-137217539D01*
X188922801Y-137730039D01*
X188921748Y-137751480D01*
X188918598Y-137772715D01*
X188913382Y-137793539D01*
X188906150Y-137813751D01*
X188896971Y-137833157D01*
X188885935Y-137851570D01*
X188873147Y-137868813D01*
X188858731Y-137884719D01*
X188842825Y-137899135D01*
X188825582Y-137911923D01*
X188807169Y-137922959D01*
X188787763Y-137932138D01*
X188767551Y-137939370D01*
X188746727Y-137944586D01*
X188725492Y-137947736D01*
X188704051Y-137948789D01*
X188266551Y-137948789D01*
X188245110Y-137947736D01*
X188223875Y-137944586D01*
X188203051Y-137939370D01*
X188182839Y-137932138D01*
X188163433Y-137922959D01*
X188145020Y-137911923D01*
X188127777Y-137899135D01*
X188111871Y-137884719D01*
X188097455Y-137868813D01*
X188084667Y-137851570D01*
X188073631Y-137833157D01*
X188064452Y-137813751D01*
X188057220Y-137793539D01*
X188052004Y-137772715D01*
X188048854Y-137751480D01*
X188047801Y-137730039D01*
X188047801Y-137217539D01*
X188048854Y-137196098D01*
X188052004Y-137174863D01*
X188057220Y-137154039D01*
X188064452Y-137133827D01*
X188073631Y-137114421D01*
X188084667Y-137096008D01*
X188097455Y-137078765D01*
X188111871Y-137062859D01*
X188127777Y-137048443D01*
X188145020Y-137035655D01*
X188163433Y-137024619D01*
X188182839Y-137015440D01*
X188203051Y-137008208D01*
X188223875Y-137002992D01*
X188245110Y-136999842D01*
X188266551Y-136998789D01*
X188704051Y-136998789D01*
X188725492Y-136999842D01*
X188725492Y-136999842D01*
G37*
D12*
X188485301Y-137473789D03*
D10*
G36*
X187150492Y-136999842D02*
G01*
X187171727Y-137002992D01*
X187192551Y-137008208D01*
X187212763Y-137015440D01*
X187232169Y-137024619D01*
X187250582Y-137035655D01*
X187267825Y-137048443D01*
X187283731Y-137062859D01*
X187298147Y-137078765D01*
X187310935Y-137096008D01*
X187321971Y-137114421D01*
X187331150Y-137133827D01*
X187338382Y-137154039D01*
X187343598Y-137174863D01*
X187346748Y-137196098D01*
X187347801Y-137217539D01*
X187347801Y-137730039D01*
X187346748Y-137751480D01*
X187343598Y-137772715D01*
X187338382Y-137793539D01*
X187331150Y-137813751D01*
X187321971Y-137833157D01*
X187310935Y-137851570D01*
X187298147Y-137868813D01*
X187283731Y-137884719D01*
X187267825Y-137899135D01*
X187250582Y-137911923D01*
X187232169Y-137922959D01*
X187212763Y-137932138D01*
X187192551Y-137939370D01*
X187171727Y-137944586D01*
X187150492Y-137947736D01*
X187129051Y-137948789D01*
X186691551Y-137948789D01*
X186670110Y-137947736D01*
X186648875Y-137944586D01*
X186628051Y-137939370D01*
X186607839Y-137932138D01*
X186588433Y-137922959D01*
X186570020Y-137911923D01*
X186552777Y-137899135D01*
X186536871Y-137884719D01*
X186522455Y-137868813D01*
X186509667Y-137851570D01*
X186498631Y-137833157D01*
X186489452Y-137813751D01*
X186482220Y-137793539D01*
X186477004Y-137772715D01*
X186473854Y-137751480D01*
X186472801Y-137730039D01*
X186472801Y-137217539D01*
X186473854Y-137196098D01*
X186477004Y-137174863D01*
X186482220Y-137154039D01*
X186489452Y-137133827D01*
X186498631Y-137114421D01*
X186509667Y-137096008D01*
X186522455Y-137078765D01*
X186536871Y-137062859D01*
X186552777Y-137048443D01*
X186570020Y-137035655D01*
X186588433Y-137024619D01*
X186607839Y-137015440D01*
X186628051Y-137008208D01*
X186648875Y-137002992D01*
X186670110Y-136999842D01*
X186691551Y-136998789D01*
X187129051Y-136998789D01*
X187150492Y-136999842D01*
X187150492Y-136999842D01*
G37*
D12*
X186910301Y-137473789D03*
D10*
G36*
X188725492Y-131999842D02*
G01*
X188746727Y-132002992D01*
X188767551Y-132008208D01*
X188787763Y-132015440D01*
X188807169Y-132024619D01*
X188825582Y-132035655D01*
X188842825Y-132048443D01*
X188858731Y-132062859D01*
X188873147Y-132078765D01*
X188885935Y-132096008D01*
X188896971Y-132114421D01*
X188906150Y-132133827D01*
X188913382Y-132154039D01*
X188918598Y-132174863D01*
X188921748Y-132196098D01*
X188922801Y-132217539D01*
X188922801Y-132730039D01*
X188921748Y-132751480D01*
X188918598Y-132772715D01*
X188913382Y-132793539D01*
X188906150Y-132813751D01*
X188896971Y-132833157D01*
X188885935Y-132851570D01*
X188873147Y-132868813D01*
X188858731Y-132884719D01*
X188842825Y-132899135D01*
X188825582Y-132911923D01*
X188807169Y-132922959D01*
X188787763Y-132932138D01*
X188767551Y-132939370D01*
X188746727Y-132944586D01*
X188725492Y-132947736D01*
X188704051Y-132948789D01*
X188266551Y-132948789D01*
X188245110Y-132947736D01*
X188223875Y-132944586D01*
X188203051Y-132939370D01*
X188182839Y-132932138D01*
X188163433Y-132922959D01*
X188145020Y-132911923D01*
X188127777Y-132899135D01*
X188111871Y-132884719D01*
X188097455Y-132868813D01*
X188084667Y-132851570D01*
X188073631Y-132833157D01*
X188064452Y-132813751D01*
X188057220Y-132793539D01*
X188052004Y-132772715D01*
X188048854Y-132751480D01*
X188047801Y-132730039D01*
X188047801Y-132217539D01*
X188048854Y-132196098D01*
X188052004Y-132174863D01*
X188057220Y-132154039D01*
X188064452Y-132133827D01*
X188073631Y-132114421D01*
X188084667Y-132096008D01*
X188097455Y-132078765D01*
X188111871Y-132062859D01*
X188127777Y-132048443D01*
X188145020Y-132035655D01*
X188163433Y-132024619D01*
X188182839Y-132015440D01*
X188203051Y-132008208D01*
X188223875Y-132002992D01*
X188245110Y-131999842D01*
X188266551Y-131998789D01*
X188704051Y-131998789D01*
X188725492Y-131999842D01*
X188725492Y-131999842D01*
G37*
D12*
X188485301Y-132473789D03*
D10*
G36*
X187150492Y-131999842D02*
G01*
X187171727Y-132002992D01*
X187192551Y-132008208D01*
X187212763Y-132015440D01*
X187232169Y-132024619D01*
X187250582Y-132035655D01*
X187267825Y-132048443D01*
X187283731Y-132062859D01*
X187298147Y-132078765D01*
X187310935Y-132096008D01*
X187321971Y-132114421D01*
X187331150Y-132133827D01*
X187338382Y-132154039D01*
X187343598Y-132174863D01*
X187346748Y-132196098D01*
X187347801Y-132217539D01*
X187347801Y-132730039D01*
X187346748Y-132751480D01*
X187343598Y-132772715D01*
X187338382Y-132793539D01*
X187331150Y-132813751D01*
X187321971Y-132833157D01*
X187310935Y-132851570D01*
X187298147Y-132868813D01*
X187283731Y-132884719D01*
X187267825Y-132899135D01*
X187250582Y-132911923D01*
X187232169Y-132922959D01*
X187212763Y-132932138D01*
X187192551Y-132939370D01*
X187171727Y-132944586D01*
X187150492Y-132947736D01*
X187129051Y-132948789D01*
X186691551Y-132948789D01*
X186670110Y-132947736D01*
X186648875Y-132944586D01*
X186628051Y-132939370D01*
X186607839Y-132932138D01*
X186588433Y-132922959D01*
X186570020Y-132911923D01*
X186552777Y-132899135D01*
X186536871Y-132884719D01*
X186522455Y-132868813D01*
X186509667Y-132851570D01*
X186498631Y-132833157D01*
X186489452Y-132813751D01*
X186482220Y-132793539D01*
X186477004Y-132772715D01*
X186473854Y-132751480D01*
X186472801Y-132730039D01*
X186472801Y-132217539D01*
X186473854Y-132196098D01*
X186477004Y-132174863D01*
X186482220Y-132154039D01*
X186489452Y-132133827D01*
X186498631Y-132114421D01*
X186509667Y-132096008D01*
X186522455Y-132078765D01*
X186536871Y-132062859D01*
X186552777Y-132048443D01*
X186570020Y-132035655D01*
X186588433Y-132024619D01*
X186607839Y-132015440D01*
X186628051Y-132008208D01*
X186648875Y-132002992D01*
X186670110Y-131999842D01*
X186691551Y-131998789D01*
X187129051Y-131998789D01*
X187150492Y-131999842D01*
X187150492Y-131999842D01*
G37*
D12*
X186910301Y-132473789D03*
D10*
G36*
X188725492Y-126999842D02*
G01*
X188746727Y-127002992D01*
X188767551Y-127008208D01*
X188787763Y-127015440D01*
X188807169Y-127024619D01*
X188825582Y-127035655D01*
X188842825Y-127048443D01*
X188858731Y-127062859D01*
X188873147Y-127078765D01*
X188885935Y-127096008D01*
X188896971Y-127114421D01*
X188906150Y-127133827D01*
X188913382Y-127154039D01*
X188918598Y-127174863D01*
X188921748Y-127196098D01*
X188922801Y-127217539D01*
X188922801Y-127730039D01*
X188921748Y-127751480D01*
X188918598Y-127772715D01*
X188913382Y-127793539D01*
X188906150Y-127813751D01*
X188896971Y-127833157D01*
X188885935Y-127851570D01*
X188873147Y-127868813D01*
X188858731Y-127884719D01*
X188842825Y-127899135D01*
X188825582Y-127911923D01*
X188807169Y-127922959D01*
X188787763Y-127932138D01*
X188767551Y-127939370D01*
X188746727Y-127944586D01*
X188725492Y-127947736D01*
X188704051Y-127948789D01*
X188266551Y-127948789D01*
X188245110Y-127947736D01*
X188223875Y-127944586D01*
X188203051Y-127939370D01*
X188182839Y-127932138D01*
X188163433Y-127922959D01*
X188145020Y-127911923D01*
X188127777Y-127899135D01*
X188111871Y-127884719D01*
X188097455Y-127868813D01*
X188084667Y-127851570D01*
X188073631Y-127833157D01*
X188064452Y-127813751D01*
X188057220Y-127793539D01*
X188052004Y-127772715D01*
X188048854Y-127751480D01*
X188047801Y-127730039D01*
X188047801Y-127217539D01*
X188048854Y-127196098D01*
X188052004Y-127174863D01*
X188057220Y-127154039D01*
X188064452Y-127133827D01*
X188073631Y-127114421D01*
X188084667Y-127096008D01*
X188097455Y-127078765D01*
X188111871Y-127062859D01*
X188127777Y-127048443D01*
X188145020Y-127035655D01*
X188163433Y-127024619D01*
X188182839Y-127015440D01*
X188203051Y-127008208D01*
X188223875Y-127002992D01*
X188245110Y-126999842D01*
X188266551Y-126998789D01*
X188704051Y-126998789D01*
X188725492Y-126999842D01*
X188725492Y-126999842D01*
G37*
D12*
X188485301Y-127473789D03*
D10*
G36*
X187150492Y-126999842D02*
G01*
X187171727Y-127002992D01*
X187192551Y-127008208D01*
X187212763Y-127015440D01*
X187232169Y-127024619D01*
X187250582Y-127035655D01*
X187267825Y-127048443D01*
X187283731Y-127062859D01*
X187298147Y-127078765D01*
X187310935Y-127096008D01*
X187321971Y-127114421D01*
X187331150Y-127133827D01*
X187338382Y-127154039D01*
X187343598Y-127174863D01*
X187346748Y-127196098D01*
X187347801Y-127217539D01*
X187347801Y-127730039D01*
X187346748Y-127751480D01*
X187343598Y-127772715D01*
X187338382Y-127793539D01*
X187331150Y-127813751D01*
X187321971Y-127833157D01*
X187310935Y-127851570D01*
X187298147Y-127868813D01*
X187283731Y-127884719D01*
X187267825Y-127899135D01*
X187250582Y-127911923D01*
X187232169Y-127922959D01*
X187212763Y-127932138D01*
X187192551Y-127939370D01*
X187171727Y-127944586D01*
X187150492Y-127947736D01*
X187129051Y-127948789D01*
X186691551Y-127948789D01*
X186670110Y-127947736D01*
X186648875Y-127944586D01*
X186628051Y-127939370D01*
X186607839Y-127932138D01*
X186588433Y-127922959D01*
X186570020Y-127911923D01*
X186552777Y-127899135D01*
X186536871Y-127884719D01*
X186522455Y-127868813D01*
X186509667Y-127851570D01*
X186498631Y-127833157D01*
X186489452Y-127813751D01*
X186482220Y-127793539D01*
X186477004Y-127772715D01*
X186473854Y-127751480D01*
X186472801Y-127730039D01*
X186472801Y-127217539D01*
X186473854Y-127196098D01*
X186477004Y-127174863D01*
X186482220Y-127154039D01*
X186489452Y-127133827D01*
X186498631Y-127114421D01*
X186509667Y-127096008D01*
X186522455Y-127078765D01*
X186536871Y-127062859D01*
X186552777Y-127048443D01*
X186570020Y-127035655D01*
X186588433Y-127024619D01*
X186607839Y-127015440D01*
X186628051Y-127008208D01*
X186648875Y-127002992D01*
X186670110Y-126999842D01*
X186691551Y-126998789D01*
X187129051Y-126998789D01*
X187150492Y-126999842D01*
X187150492Y-126999842D01*
G37*
D12*
X186910301Y-127473789D03*
D10*
G36*
X188725492Y-121999842D02*
G01*
X188746727Y-122002992D01*
X188767551Y-122008208D01*
X188787763Y-122015440D01*
X188807169Y-122024619D01*
X188825582Y-122035655D01*
X188842825Y-122048443D01*
X188858731Y-122062859D01*
X188873147Y-122078765D01*
X188885935Y-122096008D01*
X188896971Y-122114421D01*
X188906150Y-122133827D01*
X188913382Y-122154039D01*
X188918598Y-122174863D01*
X188921748Y-122196098D01*
X188922801Y-122217539D01*
X188922801Y-122730039D01*
X188921748Y-122751480D01*
X188918598Y-122772715D01*
X188913382Y-122793539D01*
X188906150Y-122813751D01*
X188896971Y-122833157D01*
X188885935Y-122851570D01*
X188873147Y-122868813D01*
X188858731Y-122884719D01*
X188842825Y-122899135D01*
X188825582Y-122911923D01*
X188807169Y-122922959D01*
X188787763Y-122932138D01*
X188767551Y-122939370D01*
X188746727Y-122944586D01*
X188725492Y-122947736D01*
X188704051Y-122948789D01*
X188266551Y-122948789D01*
X188245110Y-122947736D01*
X188223875Y-122944586D01*
X188203051Y-122939370D01*
X188182839Y-122932138D01*
X188163433Y-122922959D01*
X188145020Y-122911923D01*
X188127777Y-122899135D01*
X188111871Y-122884719D01*
X188097455Y-122868813D01*
X188084667Y-122851570D01*
X188073631Y-122833157D01*
X188064452Y-122813751D01*
X188057220Y-122793539D01*
X188052004Y-122772715D01*
X188048854Y-122751480D01*
X188047801Y-122730039D01*
X188047801Y-122217539D01*
X188048854Y-122196098D01*
X188052004Y-122174863D01*
X188057220Y-122154039D01*
X188064452Y-122133827D01*
X188073631Y-122114421D01*
X188084667Y-122096008D01*
X188097455Y-122078765D01*
X188111871Y-122062859D01*
X188127777Y-122048443D01*
X188145020Y-122035655D01*
X188163433Y-122024619D01*
X188182839Y-122015440D01*
X188203051Y-122008208D01*
X188223875Y-122002992D01*
X188245110Y-121999842D01*
X188266551Y-121998789D01*
X188704051Y-121998789D01*
X188725492Y-121999842D01*
X188725492Y-121999842D01*
G37*
D12*
X188485301Y-122473789D03*
D10*
G36*
X187150492Y-121999842D02*
G01*
X187171727Y-122002992D01*
X187192551Y-122008208D01*
X187212763Y-122015440D01*
X187232169Y-122024619D01*
X187250582Y-122035655D01*
X187267825Y-122048443D01*
X187283731Y-122062859D01*
X187298147Y-122078765D01*
X187310935Y-122096008D01*
X187321971Y-122114421D01*
X187331150Y-122133827D01*
X187338382Y-122154039D01*
X187343598Y-122174863D01*
X187346748Y-122196098D01*
X187347801Y-122217539D01*
X187347801Y-122730039D01*
X187346748Y-122751480D01*
X187343598Y-122772715D01*
X187338382Y-122793539D01*
X187331150Y-122813751D01*
X187321971Y-122833157D01*
X187310935Y-122851570D01*
X187298147Y-122868813D01*
X187283731Y-122884719D01*
X187267825Y-122899135D01*
X187250582Y-122911923D01*
X187232169Y-122922959D01*
X187212763Y-122932138D01*
X187192551Y-122939370D01*
X187171727Y-122944586D01*
X187150492Y-122947736D01*
X187129051Y-122948789D01*
X186691551Y-122948789D01*
X186670110Y-122947736D01*
X186648875Y-122944586D01*
X186628051Y-122939370D01*
X186607839Y-122932138D01*
X186588433Y-122922959D01*
X186570020Y-122911923D01*
X186552777Y-122899135D01*
X186536871Y-122884719D01*
X186522455Y-122868813D01*
X186509667Y-122851570D01*
X186498631Y-122833157D01*
X186489452Y-122813751D01*
X186482220Y-122793539D01*
X186477004Y-122772715D01*
X186473854Y-122751480D01*
X186472801Y-122730039D01*
X186472801Y-122217539D01*
X186473854Y-122196098D01*
X186477004Y-122174863D01*
X186482220Y-122154039D01*
X186489452Y-122133827D01*
X186498631Y-122114421D01*
X186509667Y-122096008D01*
X186522455Y-122078765D01*
X186536871Y-122062859D01*
X186552777Y-122048443D01*
X186570020Y-122035655D01*
X186588433Y-122024619D01*
X186607839Y-122015440D01*
X186628051Y-122008208D01*
X186648875Y-122002992D01*
X186670110Y-121999842D01*
X186691551Y-121998789D01*
X187129051Y-121998789D01*
X187150492Y-121999842D01*
X187150492Y-121999842D01*
G37*
D12*
X186910301Y-122473789D03*
D10*
G36*
X188725492Y-116999842D02*
G01*
X188746727Y-117002992D01*
X188767551Y-117008208D01*
X188787763Y-117015440D01*
X188807169Y-117024619D01*
X188825582Y-117035655D01*
X188842825Y-117048443D01*
X188858731Y-117062859D01*
X188873147Y-117078765D01*
X188885935Y-117096008D01*
X188896971Y-117114421D01*
X188906150Y-117133827D01*
X188913382Y-117154039D01*
X188918598Y-117174863D01*
X188921748Y-117196098D01*
X188922801Y-117217539D01*
X188922801Y-117730039D01*
X188921748Y-117751480D01*
X188918598Y-117772715D01*
X188913382Y-117793539D01*
X188906150Y-117813751D01*
X188896971Y-117833157D01*
X188885935Y-117851570D01*
X188873147Y-117868813D01*
X188858731Y-117884719D01*
X188842825Y-117899135D01*
X188825582Y-117911923D01*
X188807169Y-117922959D01*
X188787763Y-117932138D01*
X188767551Y-117939370D01*
X188746727Y-117944586D01*
X188725492Y-117947736D01*
X188704051Y-117948789D01*
X188266551Y-117948789D01*
X188245110Y-117947736D01*
X188223875Y-117944586D01*
X188203051Y-117939370D01*
X188182839Y-117932138D01*
X188163433Y-117922959D01*
X188145020Y-117911923D01*
X188127777Y-117899135D01*
X188111871Y-117884719D01*
X188097455Y-117868813D01*
X188084667Y-117851570D01*
X188073631Y-117833157D01*
X188064452Y-117813751D01*
X188057220Y-117793539D01*
X188052004Y-117772715D01*
X188048854Y-117751480D01*
X188047801Y-117730039D01*
X188047801Y-117217539D01*
X188048854Y-117196098D01*
X188052004Y-117174863D01*
X188057220Y-117154039D01*
X188064452Y-117133827D01*
X188073631Y-117114421D01*
X188084667Y-117096008D01*
X188097455Y-117078765D01*
X188111871Y-117062859D01*
X188127777Y-117048443D01*
X188145020Y-117035655D01*
X188163433Y-117024619D01*
X188182839Y-117015440D01*
X188203051Y-117008208D01*
X188223875Y-117002992D01*
X188245110Y-116999842D01*
X188266551Y-116998789D01*
X188704051Y-116998789D01*
X188725492Y-116999842D01*
X188725492Y-116999842D01*
G37*
D12*
X188485301Y-117473789D03*
D10*
G36*
X187150492Y-116999842D02*
G01*
X187171727Y-117002992D01*
X187192551Y-117008208D01*
X187212763Y-117015440D01*
X187232169Y-117024619D01*
X187250582Y-117035655D01*
X187267825Y-117048443D01*
X187283731Y-117062859D01*
X187298147Y-117078765D01*
X187310935Y-117096008D01*
X187321971Y-117114421D01*
X187331150Y-117133827D01*
X187338382Y-117154039D01*
X187343598Y-117174863D01*
X187346748Y-117196098D01*
X187347801Y-117217539D01*
X187347801Y-117730039D01*
X187346748Y-117751480D01*
X187343598Y-117772715D01*
X187338382Y-117793539D01*
X187331150Y-117813751D01*
X187321971Y-117833157D01*
X187310935Y-117851570D01*
X187298147Y-117868813D01*
X187283731Y-117884719D01*
X187267825Y-117899135D01*
X187250582Y-117911923D01*
X187232169Y-117922959D01*
X187212763Y-117932138D01*
X187192551Y-117939370D01*
X187171727Y-117944586D01*
X187150492Y-117947736D01*
X187129051Y-117948789D01*
X186691551Y-117948789D01*
X186670110Y-117947736D01*
X186648875Y-117944586D01*
X186628051Y-117939370D01*
X186607839Y-117932138D01*
X186588433Y-117922959D01*
X186570020Y-117911923D01*
X186552777Y-117899135D01*
X186536871Y-117884719D01*
X186522455Y-117868813D01*
X186509667Y-117851570D01*
X186498631Y-117833157D01*
X186489452Y-117813751D01*
X186482220Y-117793539D01*
X186477004Y-117772715D01*
X186473854Y-117751480D01*
X186472801Y-117730039D01*
X186472801Y-117217539D01*
X186473854Y-117196098D01*
X186477004Y-117174863D01*
X186482220Y-117154039D01*
X186489452Y-117133827D01*
X186498631Y-117114421D01*
X186509667Y-117096008D01*
X186522455Y-117078765D01*
X186536871Y-117062859D01*
X186552777Y-117048443D01*
X186570020Y-117035655D01*
X186588433Y-117024619D01*
X186607839Y-117015440D01*
X186628051Y-117008208D01*
X186648875Y-117002992D01*
X186670110Y-116999842D01*
X186691551Y-116998789D01*
X187129051Y-116998789D01*
X187150492Y-116999842D01*
X187150492Y-116999842D01*
G37*
D12*
X186910301Y-117473789D03*
D10*
G36*
X188725492Y-111999842D02*
G01*
X188746727Y-112002992D01*
X188767551Y-112008208D01*
X188787763Y-112015440D01*
X188807169Y-112024619D01*
X188825582Y-112035655D01*
X188842825Y-112048443D01*
X188858731Y-112062859D01*
X188873147Y-112078765D01*
X188885935Y-112096008D01*
X188896971Y-112114421D01*
X188906150Y-112133827D01*
X188913382Y-112154039D01*
X188918598Y-112174863D01*
X188921748Y-112196098D01*
X188922801Y-112217539D01*
X188922801Y-112730039D01*
X188921748Y-112751480D01*
X188918598Y-112772715D01*
X188913382Y-112793539D01*
X188906150Y-112813751D01*
X188896971Y-112833157D01*
X188885935Y-112851570D01*
X188873147Y-112868813D01*
X188858731Y-112884719D01*
X188842825Y-112899135D01*
X188825582Y-112911923D01*
X188807169Y-112922959D01*
X188787763Y-112932138D01*
X188767551Y-112939370D01*
X188746727Y-112944586D01*
X188725492Y-112947736D01*
X188704051Y-112948789D01*
X188266551Y-112948789D01*
X188245110Y-112947736D01*
X188223875Y-112944586D01*
X188203051Y-112939370D01*
X188182839Y-112932138D01*
X188163433Y-112922959D01*
X188145020Y-112911923D01*
X188127777Y-112899135D01*
X188111871Y-112884719D01*
X188097455Y-112868813D01*
X188084667Y-112851570D01*
X188073631Y-112833157D01*
X188064452Y-112813751D01*
X188057220Y-112793539D01*
X188052004Y-112772715D01*
X188048854Y-112751480D01*
X188047801Y-112730039D01*
X188047801Y-112217539D01*
X188048854Y-112196098D01*
X188052004Y-112174863D01*
X188057220Y-112154039D01*
X188064452Y-112133827D01*
X188073631Y-112114421D01*
X188084667Y-112096008D01*
X188097455Y-112078765D01*
X188111871Y-112062859D01*
X188127777Y-112048443D01*
X188145020Y-112035655D01*
X188163433Y-112024619D01*
X188182839Y-112015440D01*
X188203051Y-112008208D01*
X188223875Y-112002992D01*
X188245110Y-111999842D01*
X188266551Y-111998789D01*
X188704051Y-111998789D01*
X188725492Y-111999842D01*
X188725492Y-111999842D01*
G37*
D12*
X188485301Y-112473789D03*
D10*
G36*
X187150492Y-111999842D02*
G01*
X187171727Y-112002992D01*
X187192551Y-112008208D01*
X187212763Y-112015440D01*
X187232169Y-112024619D01*
X187250582Y-112035655D01*
X187267825Y-112048443D01*
X187283731Y-112062859D01*
X187298147Y-112078765D01*
X187310935Y-112096008D01*
X187321971Y-112114421D01*
X187331150Y-112133827D01*
X187338382Y-112154039D01*
X187343598Y-112174863D01*
X187346748Y-112196098D01*
X187347801Y-112217539D01*
X187347801Y-112730039D01*
X187346748Y-112751480D01*
X187343598Y-112772715D01*
X187338382Y-112793539D01*
X187331150Y-112813751D01*
X187321971Y-112833157D01*
X187310935Y-112851570D01*
X187298147Y-112868813D01*
X187283731Y-112884719D01*
X187267825Y-112899135D01*
X187250582Y-112911923D01*
X187232169Y-112922959D01*
X187212763Y-112932138D01*
X187192551Y-112939370D01*
X187171727Y-112944586D01*
X187150492Y-112947736D01*
X187129051Y-112948789D01*
X186691551Y-112948789D01*
X186670110Y-112947736D01*
X186648875Y-112944586D01*
X186628051Y-112939370D01*
X186607839Y-112932138D01*
X186588433Y-112922959D01*
X186570020Y-112911923D01*
X186552777Y-112899135D01*
X186536871Y-112884719D01*
X186522455Y-112868813D01*
X186509667Y-112851570D01*
X186498631Y-112833157D01*
X186489452Y-112813751D01*
X186482220Y-112793539D01*
X186477004Y-112772715D01*
X186473854Y-112751480D01*
X186472801Y-112730039D01*
X186472801Y-112217539D01*
X186473854Y-112196098D01*
X186477004Y-112174863D01*
X186482220Y-112154039D01*
X186489452Y-112133827D01*
X186498631Y-112114421D01*
X186509667Y-112096008D01*
X186522455Y-112078765D01*
X186536871Y-112062859D01*
X186552777Y-112048443D01*
X186570020Y-112035655D01*
X186588433Y-112024619D01*
X186607839Y-112015440D01*
X186628051Y-112008208D01*
X186648875Y-112002992D01*
X186670110Y-111999842D01*
X186691551Y-111998789D01*
X187129051Y-111998789D01*
X187150492Y-111999842D01*
X187150492Y-111999842D01*
G37*
D12*
X186910301Y-112473789D03*
D10*
G36*
X188725492Y-106999842D02*
G01*
X188746727Y-107002992D01*
X188767551Y-107008208D01*
X188787763Y-107015440D01*
X188807169Y-107024619D01*
X188825582Y-107035655D01*
X188842825Y-107048443D01*
X188858731Y-107062859D01*
X188873147Y-107078765D01*
X188885935Y-107096008D01*
X188896971Y-107114421D01*
X188906150Y-107133827D01*
X188913382Y-107154039D01*
X188918598Y-107174863D01*
X188921748Y-107196098D01*
X188922801Y-107217539D01*
X188922801Y-107730039D01*
X188921748Y-107751480D01*
X188918598Y-107772715D01*
X188913382Y-107793539D01*
X188906150Y-107813751D01*
X188896971Y-107833157D01*
X188885935Y-107851570D01*
X188873147Y-107868813D01*
X188858731Y-107884719D01*
X188842825Y-107899135D01*
X188825582Y-107911923D01*
X188807169Y-107922959D01*
X188787763Y-107932138D01*
X188767551Y-107939370D01*
X188746727Y-107944586D01*
X188725492Y-107947736D01*
X188704051Y-107948789D01*
X188266551Y-107948789D01*
X188245110Y-107947736D01*
X188223875Y-107944586D01*
X188203051Y-107939370D01*
X188182839Y-107932138D01*
X188163433Y-107922959D01*
X188145020Y-107911923D01*
X188127777Y-107899135D01*
X188111871Y-107884719D01*
X188097455Y-107868813D01*
X188084667Y-107851570D01*
X188073631Y-107833157D01*
X188064452Y-107813751D01*
X188057220Y-107793539D01*
X188052004Y-107772715D01*
X188048854Y-107751480D01*
X188047801Y-107730039D01*
X188047801Y-107217539D01*
X188048854Y-107196098D01*
X188052004Y-107174863D01*
X188057220Y-107154039D01*
X188064452Y-107133827D01*
X188073631Y-107114421D01*
X188084667Y-107096008D01*
X188097455Y-107078765D01*
X188111871Y-107062859D01*
X188127777Y-107048443D01*
X188145020Y-107035655D01*
X188163433Y-107024619D01*
X188182839Y-107015440D01*
X188203051Y-107008208D01*
X188223875Y-107002992D01*
X188245110Y-106999842D01*
X188266551Y-106998789D01*
X188704051Y-106998789D01*
X188725492Y-106999842D01*
X188725492Y-106999842D01*
G37*
D12*
X188485301Y-107473789D03*
D10*
G36*
X187150492Y-106999842D02*
G01*
X187171727Y-107002992D01*
X187192551Y-107008208D01*
X187212763Y-107015440D01*
X187232169Y-107024619D01*
X187250582Y-107035655D01*
X187267825Y-107048443D01*
X187283731Y-107062859D01*
X187298147Y-107078765D01*
X187310935Y-107096008D01*
X187321971Y-107114421D01*
X187331150Y-107133827D01*
X187338382Y-107154039D01*
X187343598Y-107174863D01*
X187346748Y-107196098D01*
X187347801Y-107217539D01*
X187347801Y-107730039D01*
X187346748Y-107751480D01*
X187343598Y-107772715D01*
X187338382Y-107793539D01*
X187331150Y-107813751D01*
X187321971Y-107833157D01*
X187310935Y-107851570D01*
X187298147Y-107868813D01*
X187283731Y-107884719D01*
X187267825Y-107899135D01*
X187250582Y-107911923D01*
X187232169Y-107922959D01*
X187212763Y-107932138D01*
X187192551Y-107939370D01*
X187171727Y-107944586D01*
X187150492Y-107947736D01*
X187129051Y-107948789D01*
X186691551Y-107948789D01*
X186670110Y-107947736D01*
X186648875Y-107944586D01*
X186628051Y-107939370D01*
X186607839Y-107932138D01*
X186588433Y-107922959D01*
X186570020Y-107911923D01*
X186552777Y-107899135D01*
X186536871Y-107884719D01*
X186522455Y-107868813D01*
X186509667Y-107851570D01*
X186498631Y-107833157D01*
X186489452Y-107813751D01*
X186482220Y-107793539D01*
X186477004Y-107772715D01*
X186473854Y-107751480D01*
X186472801Y-107730039D01*
X186472801Y-107217539D01*
X186473854Y-107196098D01*
X186477004Y-107174863D01*
X186482220Y-107154039D01*
X186489452Y-107133827D01*
X186498631Y-107114421D01*
X186509667Y-107096008D01*
X186522455Y-107078765D01*
X186536871Y-107062859D01*
X186552777Y-107048443D01*
X186570020Y-107035655D01*
X186588433Y-107024619D01*
X186607839Y-107015440D01*
X186628051Y-107008208D01*
X186648875Y-107002992D01*
X186670110Y-106999842D01*
X186691551Y-106998789D01*
X187129051Y-106998789D01*
X187150492Y-106999842D01*
X187150492Y-106999842D01*
G37*
D12*
X186910301Y-107473789D03*
D10*
G36*
X188725492Y-101999842D02*
G01*
X188746727Y-102002992D01*
X188767551Y-102008208D01*
X188787763Y-102015440D01*
X188807169Y-102024619D01*
X188825582Y-102035655D01*
X188842825Y-102048443D01*
X188858731Y-102062859D01*
X188873147Y-102078765D01*
X188885935Y-102096008D01*
X188896971Y-102114421D01*
X188906150Y-102133827D01*
X188913382Y-102154039D01*
X188918598Y-102174863D01*
X188921748Y-102196098D01*
X188922801Y-102217539D01*
X188922801Y-102730039D01*
X188921748Y-102751480D01*
X188918598Y-102772715D01*
X188913382Y-102793539D01*
X188906150Y-102813751D01*
X188896971Y-102833157D01*
X188885935Y-102851570D01*
X188873147Y-102868813D01*
X188858731Y-102884719D01*
X188842825Y-102899135D01*
X188825582Y-102911923D01*
X188807169Y-102922959D01*
X188787763Y-102932138D01*
X188767551Y-102939370D01*
X188746727Y-102944586D01*
X188725492Y-102947736D01*
X188704051Y-102948789D01*
X188266551Y-102948789D01*
X188245110Y-102947736D01*
X188223875Y-102944586D01*
X188203051Y-102939370D01*
X188182839Y-102932138D01*
X188163433Y-102922959D01*
X188145020Y-102911923D01*
X188127777Y-102899135D01*
X188111871Y-102884719D01*
X188097455Y-102868813D01*
X188084667Y-102851570D01*
X188073631Y-102833157D01*
X188064452Y-102813751D01*
X188057220Y-102793539D01*
X188052004Y-102772715D01*
X188048854Y-102751480D01*
X188047801Y-102730039D01*
X188047801Y-102217539D01*
X188048854Y-102196098D01*
X188052004Y-102174863D01*
X188057220Y-102154039D01*
X188064452Y-102133827D01*
X188073631Y-102114421D01*
X188084667Y-102096008D01*
X188097455Y-102078765D01*
X188111871Y-102062859D01*
X188127777Y-102048443D01*
X188145020Y-102035655D01*
X188163433Y-102024619D01*
X188182839Y-102015440D01*
X188203051Y-102008208D01*
X188223875Y-102002992D01*
X188245110Y-101999842D01*
X188266551Y-101998789D01*
X188704051Y-101998789D01*
X188725492Y-101999842D01*
X188725492Y-101999842D01*
G37*
D12*
X188485301Y-102473789D03*
D10*
G36*
X187150492Y-101999842D02*
G01*
X187171727Y-102002992D01*
X187192551Y-102008208D01*
X187212763Y-102015440D01*
X187232169Y-102024619D01*
X187250582Y-102035655D01*
X187267825Y-102048443D01*
X187283731Y-102062859D01*
X187298147Y-102078765D01*
X187310935Y-102096008D01*
X187321971Y-102114421D01*
X187331150Y-102133827D01*
X187338382Y-102154039D01*
X187343598Y-102174863D01*
X187346748Y-102196098D01*
X187347801Y-102217539D01*
X187347801Y-102730039D01*
X187346748Y-102751480D01*
X187343598Y-102772715D01*
X187338382Y-102793539D01*
X187331150Y-102813751D01*
X187321971Y-102833157D01*
X187310935Y-102851570D01*
X187298147Y-102868813D01*
X187283731Y-102884719D01*
X187267825Y-102899135D01*
X187250582Y-102911923D01*
X187232169Y-102922959D01*
X187212763Y-102932138D01*
X187192551Y-102939370D01*
X187171727Y-102944586D01*
X187150492Y-102947736D01*
X187129051Y-102948789D01*
X186691551Y-102948789D01*
X186670110Y-102947736D01*
X186648875Y-102944586D01*
X186628051Y-102939370D01*
X186607839Y-102932138D01*
X186588433Y-102922959D01*
X186570020Y-102911923D01*
X186552777Y-102899135D01*
X186536871Y-102884719D01*
X186522455Y-102868813D01*
X186509667Y-102851570D01*
X186498631Y-102833157D01*
X186489452Y-102813751D01*
X186482220Y-102793539D01*
X186477004Y-102772715D01*
X186473854Y-102751480D01*
X186472801Y-102730039D01*
X186472801Y-102217539D01*
X186473854Y-102196098D01*
X186477004Y-102174863D01*
X186482220Y-102154039D01*
X186489452Y-102133827D01*
X186498631Y-102114421D01*
X186509667Y-102096008D01*
X186522455Y-102078765D01*
X186536871Y-102062859D01*
X186552777Y-102048443D01*
X186570020Y-102035655D01*
X186588433Y-102024619D01*
X186607839Y-102015440D01*
X186628051Y-102008208D01*
X186648875Y-102002992D01*
X186670110Y-101999842D01*
X186691551Y-101998789D01*
X187129051Y-101998789D01*
X187150492Y-101999842D01*
X187150492Y-101999842D01*
G37*
D12*
X186910301Y-102473789D03*
D10*
G36*
X188725492Y-96999842D02*
G01*
X188746727Y-97002992D01*
X188767551Y-97008208D01*
X188787763Y-97015440D01*
X188807169Y-97024619D01*
X188825582Y-97035655D01*
X188842825Y-97048443D01*
X188858731Y-97062859D01*
X188873147Y-97078765D01*
X188885935Y-97096008D01*
X188896971Y-97114421D01*
X188906150Y-97133827D01*
X188913382Y-97154039D01*
X188918598Y-97174863D01*
X188921748Y-97196098D01*
X188922801Y-97217539D01*
X188922801Y-97730039D01*
X188921748Y-97751480D01*
X188918598Y-97772715D01*
X188913382Y-97793539D01*
X188906150Y-97813751D01*
X188896971Y-97833157D01*
X188885935Y-97851570D01*
X188873147Y-97868813D01*
X188858731Y-97884719D01*
X188842825Y-97899135D01*
X188825582Y-97911923D01*
X188807169Y-97922959D01*
X188787763Y-97932138D01*
X188767551Y-97939370D01*
X188746727Y-97944586D01*
X188725492Y-97947736D01*
X188704051Y-97948789D01*
X188266551Y-97948789D01*
X188245110Y-97947736D01*
X188223875Y-97944586D01*
X188203051Y-97939370D01*
X188182839Y-97932138D01*
X188163433Y-97922959D01*
X188145020Y-97911923D01*
X188127777Y-97899135D01*
X188111871Y-97884719D01*
X188097455Y-97868813D01*
X188084667Y-97851570D01*
X188073631Y-97833157D01*
X188064452Y-97813751D01*
X188057220Y-97793539D01*
X188052004Y-97772715D01*
X188048854Y-97751480D01*
X188047801Y-97730039D01*
X188047801Y-97217539D01*
X188048854Y-97196098D01*
X188052004Y-97174863D01*
X188057220Y-97154039D01*
X188064452Y-97133827D01*
X188073631Y-97114421D01*
X188084667Y-97096008D01*
X188097455Y-97078765D01*
X188111871Y-97062859D01*
X188127777Y-97048443D01*
X188145020Y-97035655D01*
X188163433Y-97024619D01*
X188182839Y-97015440D01*
X188203051Y-97008208D01*
X188223875Y-97002992D01*
X188245110Y-96999842D01*
X188266551Y-96998789D01*
X188704051Y-96998789D01*
X188725492Y-96999842D01*
X188725492Y-96999842D01*
G37*
D12*
X188485301Y-97473789D03*
D10*
G36*
X187150492Y-96999842D02*
G01*
X187171727Y-97002992D01*
X187192551Y-97008208D01*
X187212763Y-97015440D01*
X187232169Y-97024619D01*
X187250582Y-97035655D01*
X187267825Y-97048443D01*
X187283731Y-97062859D01*
X187298147Y-97078765D01*
X187310935Y-97096008D01*
X187321971Y-97114421D01*
X187331150Y-97133827D01*
X187338382Y-97154039D01*
X187343598Y-97174863D01*
X187346748Y-97196098D01*
X187347801Y-97217539D01*
X187347801Y-97730039D01*
X187346748Y-97751480D01*
X187343598Y-97772715D01*
X187338382Y-97793539D01*
X187331150Y-97813751D01*
X187321971Y-97833157D01*
X187310935Y-97851570D01*
X187298147Y-97868813D01*
X187283731Y-97884719D01*
X187267825Y-97899135D01*
X187250582Y-97911923D01*
X187232169Y-97922959D01*
X187212763Y-97932138D01*
X187192551Y-97939370D01*
X187171727Y-97944586D01*
X187150492Y-97947736D01*
X187129051Y-97948789D01*
X186691551Y-97948789D01*
X186670110Y-97947736D01*
X186648875Y-97944586D01*
X186628051Y-97939370D01*
X186607839Y-97932138D01*
X186588433Y-97922959D01*
X186570020Y-97911923D01*
X186552777Y-97899135D01*
X186536871Y-97884719D01*
X186522455Y-97868813D01*
X186509667Y-97851570D01*
X186498631Y-97833157D01*
X186489452Y-97813751D01*
X186482220Y-97793539D01*
X186477004Y-97772715D01*
X186473854Y-97751480D01*
X186472801Y-97730039D01*
X186472801Y-97217539D01*
X186473854Y-97196098D01*
X186477004Y-97174863D01*
X186482220Y-97154039D01*
X186489452Y-97133827D01*
X186498631Y-97114421D01*
X186509667Y-97096008D01*
X186522455Y-97078765D01*
X186536871Y-97062859D01*
X186552777Y-97048443D01*
X186570020Y-97035655D01*
X186588433Y-97024619D01*
X186607839Y-97015440D01*
X186628051Y-97008208D01*
X186648875Y-97002992D01*
X186670110Y-96999842D01*
X186691551Y-96998789D01*
X187129051Y-96998789D01*
X187150492Y-96999842D01*
X187150492Y-96999842D01*
G37*
D12*
X186910301Y-97473789D03*
D13*
X231122799Y-59564988D03*
X230622800Y-59564988D03*
X230122801Y-59564988D03*
D14*
X229276600Y-59218789D03*
X229276600Y-58718787D03*
X229276600Y-58218788D03*
X229276600Y-57718789D03*
X229276600Y-57218787D03*
D13*
X230122801Y-56872588D03*
X230622800Y-56872588D03*
X231122799Y-56872588D03*
D14*
X231969000Y-57218787D03*
X231969000Y-57718789D03*
X231969000Y-58218788D03*
X231969000Y-58718787D03*
X231969000Y-59218789D03*
D15*
X196197801Y-81723789D03*
X196197801Y-80223789D03*
D16*
X211417560Y-116473789D03*
D10*
G36*
X211417560Y-115741933D02*
G01*
X212149416Y-116473789D01*
X211417560Y-117205645D01*
X210685704Y-116473789D01*
X211417560Y-115741933D01*
X211417560Y-115741933D01*
G37*
D16*
X210197801Y-115254030D03*
D10*
G36*
X210197801Y-114522174D02*
G01*
X210929657Y-115254030D01*
X210197801Y-115985886D01*
X209465945Y-115254030D01*
X210197801Y-114522174D01*
X210197801Y-114522174D01*
G37*
D16*
X210197801Y-117693548D03*
D10*
G36*
X210197801Y-116961692D02*
G01*
X210929657Y-117693548D01*
X210197801Y-118425404D01*
X209465945Y-117693548D01*
X210197801Y-116961692D01*
X210197801Y-116961692D01*
G37*
D16*
X208978042Y-116473789D03*
D10*
G36*
X208978042Y-115741933D02*
G01*
X209709898Y-116473789D01*
X208978042Y-117205645D01*
X208246186Y-116473789D01*
X208978042Y-115741933D01*
X208978042Y-115741933D01*
G37*
D17*
X213132294Y-116933408D03*
D10*
G36*
X212796418Y-116774309D02*
G01*
X212973195Y-116597532D01*
X213468170Y-117092507D01*
X213291393Y-117269284D01*
X212796418Y-116774309D01*
X212796418Y-116774309D01*
G37*
D17*
X212778741Y-117286962D03*
D10*
G36*
X212442865Y-117127863D02*
G01*
X212619642Y-116951086D01*
X213114617Y-117446061D01*
X212937840Y-117622838D01*
X212442865Y-117127863D01*
X212442865Y-117127863D01*
G37*
D17*
X212425187Y-117640515D03*
D10*
G36*
X212089311Y-117481416D02*
G01*
X212266088Y-117304639D01*
X212761063Y-117799614D01*
X212584286Y-117976391D01*
X212089311Y-117481416D01*
X212089311Y-117481416D01*
G37*
D17*
X212071634Y-117994069D03*
D10*
G36*
X211735758Y-117834970D02*
G01*
X211912535Y-117658193D01*
X212407510Y-118153168D01*
X212230733Y-118329945D01*
X211735758Y-117834970D01*
X211735758Y-117834970D01*
G37*
D17*
X211718081Y-118347622D03*
D10*
G36*
X211382205Y-118188523D02*
G01*
X211558982Y-118011746D01*
X212053957Y-118506721D01*
X211877180Y-118683498D01*
X211382205Y-118188523D01*
X211382205Y-118188523D01*
G37*
D17*
X211364527Y-118701175D03*
D10*
G36*
X211028651Y-118542076D02*
G01*
X211205428Y-118365299D01*
X211700403Y-118860274D01*
X211523626Y-119037051D01*
X211028651Y-118542076D01*
X211028651Y-118542076D01*
G37*
D17*
X211010974Y-119054729D03*
D10*
G36*
X210675098Y-118895630D02*
G01*
X210851875Y-118718853D01*
X211346850Y-119213828D01*
X211170073Y-119390605D01*
X210675098Y-118895630D01*
X210675098Y-118895630D01*
G37*
D17*
X210657420Y-119408282D03*
D10*
G36*
X210321544Y-119249183D02*
G01*
X210498321Y-119072406D01*
X210993296Y-119567381D01*
X210816519Y-119744158D01*
X210321544Y-119249183D01*
X210321544Y-119249183D01*
G37*
D17*
X209738182Y-119408282D03*
D10*
G36*
X209897281Y-119072406D02*
G01*
X210074058Y-119249183D01*
X209579083Y-119744158D01*
X209402306Y-119567381D01*
X209897281Y-119072406D01*
X209897281Y-119072406D01*
G37*
D17*
X209384628Y-119054729D03*
D10*
G36*
X209543727Y-118718853D02*
G01*
X209720504Y-118895630D01*
X209225529Y-119390605D01*
X209048752Y-119213828D01*
X209543727Y-118718853D01*
X209543727Y-118718853D01*
G37*
D17*
X209031075Y-118701175D03*
D10*
G36*
X209190174Y-118365299D02*
G01*
X209366951Y-118542076D01*
X208871976Y-119037051D01*
X208695199Y-118860274D01*
X209190174Y-118365299D01*
X209190174Y-118365299D01*
G37*
D17*
X208677521Y-118347622D03*
D10*
G36*
X208836620Y-118011746D02*
G01*
X209013397Y-118188523D01*
X208518422Y-118683498D01*
X208341645Y-118506721D01*
X208836620Y-118011746D01*
X208836620Y-118011746D01*
G37*
D17*
X208323968Y-117994069D03*
D10*
G36*
X208483067Y-117658193D02*
G01*
X208659844Y-117834970D01*
X208164869Y-118329945D01*
X207988092Y-118153168D01*
X208483067Y-117658193D01*
X208483067Y-117658193D01*
G37*
D17*
X207970415Y-117640515D03*
D10*
G36*
X208129514Y-117304639D02*
G01*
X208306291Y-117481416D01*
X207811316Y-117976391D01*
X207634539Y-117799614D01*
X208129514Y-117304639D01*
X208129514Y-117304639D01*
G37*
D17*
X207616861Y-117286962D03*
D10*
G36*
X207775960Y-116951086D02*
G01*
X207952737Y-117127863D01*
X207457762Y-117622838D01*
X207280985Y-117446061D01*
X207775960Y-116951086D01*
X207775960Y-116951086D01*
G37*
D17*
X207263308Y-116933408D03*
D10*
G36*
X207422407Y-116597532D02*
G01*
X207599184Y-116774309D01*
X207104209Y-117269284D01*
X206927432Y-117092507D01*
X207422407Y-116597532D01*
X207422407Y-116597532D01*
G37*
D17*
X207263308Y-116014170D03*
D10*
G36*
X206927432Y-115855071D02*
G01*
X207104209Y-115678294D01*
X207599184Y-116173269D01*
X207422407Y-116350046D01*
X206927432Y-115855071D01*
X206927432Y-115855071D01*
G37*
D17*
X207616861Y-115660616D03*
D10*
G36*
X207280985Y-115501517D02*
G01*
X207457762Y-115324740D01*
X207952737Y-115819715D01*
X207775960Y-115996492D01*
X207280985Y-115501517D01*
X207280985Y-115501517D01*
G37*
D17*
X207970415Y-115307063D03*
D10*
G36*
X207634539Y-115147964D02*
G01*
X207811316Y-114971187D01*
X208306291Y-115466162D01*
X208129514Y-115642939D01*
X207634539Y-115147964D01*
X207634539Y-115147964D01*
G37*
D17*
X208323968Y-114953509D03*
D10*
G36*
X207988092Y-114794410D02*
G01*
X208164869Y-114617633D01*
X208659844Y-115112608D01*
X208483067Y-115289385D01*
X207988092Y-114794410D01*
X207988092Y-114794410D01*
G37*
D17*
X208677521Y-114599956D03*
D10*
G36*
X208341645Y-114440857D02*
G01*
X208518422Y-114264080D01*
X209013397Y-114759055D01*
X208836620Y-114935832D01*
X208341645Y-114440857D01*
X208341645Y-114440857D01*
G37*
D17*
X209031075Y-114246403D03*
D10*
G36*
X208695199Y-114087304D02*
G01*
X208871976Y-113910527D01*
X209366951Y-114405502D01*
X209190174Y-114582279D01*
X208695199Y-114087304D01*
X208695199Y-114087304D01*
G37*
D17*
X209384628Y-113892849D03*
D10*
G36*
X209048752Y-113733750D02*
G01*
X209225529Y-113556973D01*
X209720504Y-114051948D01*
X209543727Y-114228725D01*
X209048752Y-113733750D01*
X209048752Y-113733750D01*
G37*
D17*
X209738182Y-113539296D03*
D10*
G36*
X209402306Y-113380197D02*
G01*
X209579083Y-113203420D01*
X210074058Y-113698395D01*
X209897281Y-113875172D01*
X209402306Y-113380197D01*
X209402306Y-113380197D01*
G37*
D17*
X210657420Y-113539296D03*
D10*
G36*
X210816519Y-113203420D02*
G01*
X210993296Y-113380197D01*
X210498321Y-113875172D01*
X210321544Y-113698395D01*
X210816519Y-113203420D01*
X210816519Y-113203420D01*
G37*
D17*
X211010974Y-113892849D03*
D10*
G36*
X211170073Y-113556973D02*
G01*
X211346850Y-113733750D01*
X210851875Y-114228725D01*
X210675098Y-114051948D01*
X211170073Y-113556973D01*
X211170073Y-113556973D01*
G37*
D17*
X211364527Y-114246403D03*
D10*
G36*
X211523626Y-113910527D02*
G01*
X211700403Y-114087304D01*
X211205428Y-114582279D01*
X211028651Y-114405502D01*
X211523626Y-113910527D01*
X211523626Y-113910527D01*
G37*
D17*
X211718081Y-114599956D03*
D10*
G36*
X211877180Y-114264080D02*
G01*
X212053957Y-114440857D01*
X211558982Y-114935832D01*
X211382205Y-114759055D01*
X211877180Y-114264080D01*
X211877180Y-114264080D01*
G37*
D17*
X212071634Y-114953509D03*
D10*
G36*
X212230733Y-114617633D02*
G01*
X212407510Y-114794410D01*
X211912535Y-115289385D01*
X211735758Y-115112608D01*
X212230733Y-114617633D01*
X212230733Y-114617633D01*
G37*
D17*
X212425187Y-115307063D03*
D10*
G36*
X212584286Y-114971187D02*
G01*
X212761063Y-115147964D01*
X212266088Y-115642939D01*
X212089311Y-115466162D01*
X212584286Y-114971187D01*
X212584286Y-114971187D01*
G37*
D17*
X212778741Y-115660616D03*
D10*
G36*
X212937840Y-115324740D02*
G01*
X213114617Y-115501517D01*
X212619642Y-115996492D01*
X212442865Y-115819715D01*
X212937840Y-115324740D01*
X212937840Y-115324740D01*
G37*
D17*
X213132294Y-116014170D03*
D10*
G36*
X213291393Y-115678294D02*
G01*
X213468170Y-115855071D01*
X212973195Y-116350046D01*
X212796418Y-116173269D01*
X213291393Y-115678294D01*
X213291393Y-115678294D01*
G37*
D18*
X191197801Y-82073789D03*
X192147801Y-82073789D03*
X190247801Y-82073789D03*
X190247801Y-79873789D03*
X191197801Y-79873789D03*
X192147801Y-79873789D03*
D10*
G36*
X188677943Y-81424963D02*
G01*
X188701604Y-81428473D01*
X188724808Y-81434285D01*
X188747330Y-81442343D01*
X188768954Y-81452571D01*
X188789471Y-81464868D01*
X188808684Y-81479118D01*
X188826408Y-81495182D01*
X188842472Y-81512906D01*
X188856722Y-81532119D01*
X188869019Y-81552636D01*
X188879247Y-81574260D01*
X188887305Y-81596782D01*
X188893117Y-81619986D01*
X188896627Y-81643647D01*
X188897801Y-81667539D01*
X188897801Y-82155039D01*
X188896627Y-82178931D01*
X188893117Y-82202592D01*
X188887305Y-82225796D01*
X188879247Y-82248318D01*
X188869019Y-82269942D01*
X188856722Y-82290459D01*
X188842472Y-82309672D01*
X188826408Y-82327396D01*
X188808684Y-82343460D01*
X188789471Y-82357710D01*
X188768954Y-82370007D01*
X188747330Y-82380235D01*
X188724808Y-82388293D01*
X188701604Y-82394105D01*
X188677943Y-82397615D01*
X188654051Y-82398789D01*
X187741551Y-82398789D01*
X187717659Y-82397615D01*
X187693998Y-82394105D01*
X187670794Y-82388293D01*
X187648272Y-82380235D01*
X187626648Y-82370007D01*
X187606131Y-82357710D01*
X187586918Y-82343460D01*
X187569194Y-82327396D01*
X187553130Y-82309672D01*
X187538880Y-82290459D01*
X187526583Y-82269942D01*
X187516355Y-82248318D01*
X187508297Y-82225796D01*
X187502485Y-82202592D01*
X187498975Y-82178931D01*
X187497801Y-82155039D01*
X187497801Y-81667539D01*
X187498975Y-81643647D01*
X187502485Y-81619986D01*
X187508297Y-81596782D01*
X187516355Y-81574260D01*
X187526583Y-81552636D01*
X187538880Y-81532119D01*
X187553130Y-81512906D01*
X187569194Y-81495182D01*
X187586918Y-81479118D01*
X187606131Y-81464868D01*
X187626648Y-81452571D01*
X187648272Y-81442343D01*
X187670794Y-81434285D01*
X187693998Y-81428473D01*
X187717659Y-81424963D01*
X187741551Y-81423789D01*
X188654051Y-81423789D01*
X188677943Y-81424963D01*
X188677943Y-81424963D01*
G37*
D11*
X188197801Y-81911289D03*
D10*
G36*
X188677943Y-79549963D02*
G01*
X188701604Y-79553473D01*
X188724808Y-79559285D01*
X188747330Y-79567343D01*
X188768954Y-79577571D01*
X188789471Y-79589868D01*
X188808684Y-79604118D01*
X188826408Y-79620182D01*
X188842472Y-79637906D01*
X188856722Y-79657119D01*
X188869019Y-79677636D01*
X188879247Y-79699260D01*
X188887305Y-79721782D01*
X188893117Y-79744986D01*
X188896627Y-79768647D01*
X188897801Y-79792539D01*
X188897801Y-80280039D01*
X188896627Y-80303931D01*
X188893117Y-80327592D01*
X188887305Y-80350796D01*
X188879247Y-80373318D01*
X188869019Y-80394942D01*
X188856722Y-80415459D01*
X188842472Y-80434672D01*
X188826408Y-80452396D01*
X188808684Y-80468460D01*
X188789471Y-80482710D01*
X188768954Y-80495007D01*
X188747330Y-80505235D01*
X188724808Y-80513293D01*
X188701604Y-80519105D01*
X188677943Y-80522615D01*
X188654051Y-80523789D01*
X187741551Y-80523789D01*
X187717659Y-80522615D01*
X187693998Y-80519105D01*
X187670794Y-80513293D01*
X187648272Y-80505235D01*
X187626648Y-80495007D01*
X187606131Y-80482710D01*
X187586918Y-80468460D01*
X187569194Y-80452396D01*
X187553130Y-80434672D01*
X187538880Y-80415459D01*
X187526583Y-80394942D01*
X187516355Y-80373318D01*
X187508297Y-80350796D01*
X187502485Y-80327592D01*
X187498975Y-80303931D01*
X187497801Y-80280039D01*
X187497801Y-79792539D01*
X187498975Y-79768647D01*
X187502485Y-79744986D01*
X187508297Y-79721782D01*
X187516355Y-79699260D01*
X187526583Y-79677636D01*
X187538880Y-79657119D01*
X187553130Y-79637906D01*
X187569194Y-79620182D01*
X187586918Y-79604118D01*
X187606131Y-79589868D01*
X187626648Y-79577571D01*
X187648272Y-79567343D01*
X187670794Y-79559285D01*
X187693998Y-79553473D01*
X187717659Y-79549963D01*
X187741551Y-79548789D01*
X188654051Y-79548789D01*
X188677943Y-79549963D01*
X188677943Y-79549963D01*
G37*
D11*
X188197801Y-80036289D03*
D10*
G36*
X220777691Y-133388553D02*
G01*
X220798926Y-133391703D01*
X220819750Y-133396919D01*
X220839962Y-133404151D01*
X220859368Y-133413330D01*
X220877781Y-133424366D01*
X220895024Y-133437154D01*
X220910930Y-133451570D01*
X220925346Y-133467476D01*
X220938134Y-133484719D01*
X220949170Y-133503132D01*
X220958349Y-133522538D01*
X220965581Y-133542750D01*
X220970797Y-133563574D01*
X220973947Y-133584809D01*
X220975000Y-133606250D01*
X220975000Y-134043750D01*
X220973947Y-134065191D01*
X220970797Y-134086426D01*
X220965581Y-134107250D01*
X220958349Y-134127462D01*
X220949170Y-134146868D01*
X220938134Y-134165281D01*
X220925346Y-134182524D01*
X220910930Y-134198430D01*
X220895024Y-134212846D01*
X220877781Y-134225634D01*
X220859368Y-134236670D01*
X220839962Y-134245849D01*
X220819750Y-134253081D01*
X220798926Y-134258297D01*
X220777691Y-134261447D01*
X220756250Y-134262500D01*
X220243750Y-134262500D01*
X220222309Y-134261447D01*
X220201074Y-134258297D01*
X220180250Y-134253081D01*
X220160038Y-134245849D01*
X220140632Y-134236670D01*
X220122219Y-134225634D01*
X220104976Y-134212846D01*
X220089070Y-134198430D01*
X220074654Y-134182524D01*
X220061866Y-134165281D01*
X220050830Y-134146868D01*
X220041651Y-134127462D01*
X220034419Y-134107250D01*
X220029203Y-134086426D01*
X220026053Y-134065191D01*
X220025000Y-134043750D01*
X220025000Y-133606250D01*
X220026053Y-133584809D01*
X220029203Y-133563574D01*
X220034419Y-133542750D01*
X220041651Y-133522538D01*
X220050830Y-133503132D01*
X220061866Y-133484719D01*
X220074654Y-133467476D01*
X220089070Y-133451570D01*
X220104976Y-133437154D01*
X220122219Y-133424366D01*
X220140632Y-133413330D01*
X220160038Y-133404151D01*
X220180250Y-133396919D01*
X220201074Y-133391703D01*
X220222309Y-133388553D01*
X220243750Y-133387500D01*
X220756250Y-133387500D01*
X220777691Y-133388553D01*
X220777691Y-133388553D01*
G37*
D12*
X220500000Y-133825000D03*
D10*
G36*
X220777691Y-131813553D02*
G01*
X220798926Y-131816703D01*
X220819750Y-131821919D01*
X220839962Y-131829151D01*
X220859368Y-131838330D01*
X220877781Y-131849366D01*
X220895024Y-131862154D01*
X220910930Y-131876570D01*
X220925346Y-131892476D01*
X220938134Y-131909719D01*
X220949170Y-131928132D01*
X220958349Y-131947538D01*
X220965581Y-131967750D01*
X220970797Y-131988574D01*
X220973947Y-132009809D01*
X220975000Y-132031250D01*
X220975000Y-132468750D01*
X220973947Y-132490191D01*
X220970797Y-132511426D01*
X220965581Y-132532250D01*
X220958349Y-132552462D01*
X220949170Y-132571868D01*
X220938134Y-132590281D01*
X220925346Y-132607524D01*
X220910930Y-132623430D01*
X220895024Y-132637846D01*
X220877781Y-132650634D01*
X220859368Y-132661670D01*
X220839962Y-132670849D01*
X220819750Y-132678081D01*
X220798926Y-132683297D01*
X220777691Y-132686447D01*
X220756250Y-132687500D01*
X220243750Y-132687500D01*
X220222309Y-132686447D01*
X220201074Y-132683297D01*
X220180250Y-132678081D01*
X220160038Y-132670849D01*
X220140632Y-132661670D01*
X220122219Y-132650634D01*
X220104976Y-132637846D01*
X220089070Y-132623430D01*
X220074654Y-132607524D01*
X220061866Y-132590281D01*
X220050830Y-132571868D01*
X220041651Y-132552462D01*
X220034419Y-132532250D01*
X220029203Y-132511426D01*
X220026053Y-132490191D01*
X220025000Y-132468750D01*
X220025000Y-132031250D01*
X220026053Y-132009809D01*
X220029203Y-131988574D01*
X220034419Y-131967750D01*
X220041651Y-131947538D01*
X220050830Y-131928132D01*
X220061866Y-131909719D01*
X220074654Y-131892476D01*
X220089070Y-131876570D01*
X220104976Y-131862154D01*
X220122219Y-131849366D01*
X220140632Y-131838330D01*
X220160038Y-131829151D01*
X220180250Y-131821919D01*
X220201074Y-131816703D01*
X220222309Y-131813553D01*
X220243750Y-131812500D01*
X220756250Y-131812500D01*
X220777691Y-131813553D01*
X220777691Y-131813553D01*
G37*
D12*
X220500000Y-132250000D03*
D10*
G36*
X209150492Y-122499842D02*
G01*
X209171727Y-122502992D01*
X209192551Y-122508208D01*
X209212763Y-122515440D01*
X209232169Y-122524619D01*
X209250582Y-122535655D01*
X209267825Y-122548443D01*
X209283731Y-122562859D01*
X209298147Y-122578765D01*
X209310935Y-122596008D01*
X209321971Y-122614421D01*
X209331150Y-122633827D01*
X209338382Y-122654039D01*
X209343598Y-122674863D01*
X209346748Y-122696098D01*
X209347801Y-122717539D01*
X209347801Y-123230039D01*
X209346748Y-123251480D01*
X209343598Y-123272715D01*
X209338382Y-123293539D01*
X209331150Y-123313751D01*
X209321971Y-123333157D01*
X209310935Y-123351570D01*
X209298147Y-123368813D01*
X209283731Y-123384719D01*
X209267825Y-123399135D01*
X209250582Y-123411923D01*
X209232169Y-123422959D01*
X209212763Y-123432138D01*
X209192551Y-123439370D01*
X209171727Y-123444586D01*
X209150492Y-123447736D01*
X209129051Y-123448789D01*
X208691551Y-123448789D01*
X208670110Y-123447736D01*
X208648875Y-123444586D01*
X208628051Y-123439370D01*
X208607839Y-123432138D01*
X208588433Y-123422959D01*
X208570020Y-123411923D01*
X208552777Y-123399135D01*
X208536871Y-123384719D01*
X208522455Y-123368813D01*
X208509667Y-123351570D01*
X208498631Y-123333157D01*
X208489452Y-123313751D01*
X208482220Y-123293539D01*
X208477004Y-123272715D01*
X208473854Y-123251480D01*
X208472801Y-123230039D01*
X208472801Y-122717539D01*
X208473854Y-122696098D01*
X208477004Y-122674863D01*
X208482220Y-122654039D01*
X208489452Y-122633827D01*
X208498631Y-122614421D01*
X208509667Y-122596008D01*
X208522455Y-122578765D01*
X208536871Y-122562859D01*
X208552777Y-122548443D01*
X208570020Y-122535655D01*
X208588433Y-122524619D01*
X208607839Y-122515440D01*
X208628051Y-122508208D01*
X208648875Y-122502992D01*
X208670110Y-122499842D01*
X208691551Y-122498789D01*
X209129051Y-122498789D01*
X209150492Y-122499842D01*
X209150492Y-122499842D01*
G37*
D12*
X208910301Y-122973789D03*
D10*
G36*
X210725492Y-122499842D02*
G01*
X210746727Y-122502992D01*
X210767551Y-122508208D01*
X210787763Y-122515440D01*
X210807169Y-122524619D01*
X210825582Y-122535655D01*
X210842825Y-122548443D01*
X210858731Y-122562859D01*
X210873147Y-122578765D01*
X210885935Y-122596008D01*
X210896971Y-122614421D01*
X210906150Y-122633827D01*
X210913382Y-122654039D01*
X210918598Y-122674863D01*
X210921748Y-122696098D01*
X210922801Y-122717539D01*
X210922801Y-123230039D01*
X210921748Y-123251480D01*
X210918598Y-123272715D01*
X210913382Y-123293539D01*
X210906150Y-123313751D01*
X210896971Y-123333157D01*
X210885935Y-123351570D01*
X210873147Y-123368813D01*
X210858731Y-123384719D01*
X210842825Y-123399135D01*
X210825582Y-123411923D01*
X210807169Y-123422959D01*
X210787763Y-123432138D01*
X210767551Y-123439370D01*
X210746727Y-123444586D01*
X210725492Y-123447736D01*
X210704051Y-123448789D01*
X210266551Y-123448789D01*
X210245110Y-123447736D01*
X210223875Y-123444586D01*
X210203051Y-123439370D01*
X210182839Y-123432138D01*
X210163433Y-123422959D01*
X210145020Y-123411923D01*
X210127777Y-123399135D01*
X210111871Y-123384719D01*
X210097455Y-123368813D01*
X210084667Y-123351570D01*
X210073631Y-123333157D01*
X210064452Y-123313751D01*
X210057220Y-123293539D01*
X210052004Y-123272715D01*
X210048854Y-123251480D01*
X210047801Y-123230039D01*
X210047801Y-122717539D01*
X210048854Y-122696098D01*
X210052004Y-122674863D01*
X210057220Y-122654039D01*
X210064452Y-122633827D01*
X210073631Y-122614421D01*
X210084667Y-122596008D01*
X210097455Y-122578765D01*
X210111871Y-122562859D01*
X210127777Y-122548443D01*
X210145020Y-122535655D01*
X210163433Y-122524619D01*
X210182839Y-122515440D01*
X210203051Y-122508208D01*
X210223875Y-122502992D01*
X210245110Y-122499842D01*
X210266551Y-122498789D01*
X210704051Y-122498789D01*
X210725492Y-122499842D01*
X210725492Y-122499842D01*
G37*
D12*
X210485301Y-122973789D03*
D10*
G36*
X215650492Y-120999842D02*
G01*
X215671727Y-121002992D01*
X215692551Y-121008208D01*
X215712763Y-121015440D01*
X215732169Y-121024619D01*
X215750582Y-121035655D01*
X215767825Y-121048443D01*
X215783731Y-121062859D01*
X215798147Y-121078765D01*
X215810935Y-121096008D01*
X215821971Y-121114421D01*
X215831150Y-121133827D01*
X215838382Y-121154039D01*
X215843598Y-121174863D01*
X215846748Y-121196098D01*
X215847801Y-121217539D01*
X215847801Y-121730039D01*
X215846748Y-121751480D01*
X215843598Y-121772715D01*
X215838382Y-121793539D01*
X215831150Y-121813751D01*
X215821971Y-121833157D01*
X215810935Y-121851570D01*
X215798147Y-121868813D01*
X215783731Y-121884719D01*
X215767825Y-121899135D01*
X215750582Y-121911923D01*
X215732169Y-121922959D01*
X215712763Y-121932138D01*
X215692551Y-121939370D01*
X215671727Y-121944586D01*
X215650492Y-121947736D01*
X215629051Y-121948789D01*
X215191551Y-121948789D01*
X215170110Y-121947736D01*
X215148875Y-121944586D01*
X215128051Y-121939370D01*
X215107839Y-121932138D01*
X215088433Y-121922959D01*
X215070020Y-121911923D01*
X215052777Y-121899135D01*
X215036871Y-121884719D01*
X215022455Y-121868813D01*
X215009667Y-121851570D01*
X214998631Y-121833157D01*
X214989452Y-121813751D01*
X214982220Y-121793539D01*
X214977004Y-121772715D01*
X214973854Y-121751480D01*
X214972801Y-121730039D01*
X214972801Y-121217539D01*
X214973854Y-121196098D01*
X214977004Y-121174863D01*
X214982220Y-121154039D01*
X214989452Y-121133827D01*
X214998631Y-121114421D01*
X215009667Y-121096008D01*
X215022455Y-121078765D01*
X215036871Y-121062859D01*
X215052777Y-121048443D01*
X215070020Y-121035655D01*
X215088433Y-121024619D01*
X215107839Y-121015440D01*
X215128051Y-121008208D01*
X215148875Y-121002992D01*
X215170110Y-120999842D01*
X215191551Y-120998789D01*
X215629051Y-120998789D01*
X215650492Y-120999842D01*
X215650492Y-120999842D01*
G37*
D12*
X215410301Y-121473789D03*
D10*
G36*
X217225492Y-120999842D02*
G01*
X217246727Y-121002992D01*
X217267551Y-121008208D01*
X217287763Y-121015440D01*
X217307169Y-121024619D01*
X217325582Y-121035655D01*
X217342825Y-121048443D01*
X217358731Y-121062859D01*
X217373147Y-121078765D01*
X217385935Y-121096008D01*
X217396971Y-121114421D01*
X217406150Y-121133827D01*
X217413382Y-121154039D01*
X217418598Y-121174863D01*
X217421748Y-121196098D01*
X217422801Y-121217539D01*
X217422801Y-121730039D01*
X217421748Y-121751480D01*
X217418598Y-121772715D01*
X217413382Y-121793539D01*
X217406150Y-121813751D01*
X217396971Y-121833157D01*
X217385935Y-121851570D01*
X217373147Y-121868813D01*
X217358731Y-121884719D01*
X217342825Y-121899135D01*
X217325582Y-121911923D01*
X217307169Y-121922959D01*
X217287763Y-121932138D01*
X217267551Y-121939370D01*
X217246727Y-121944586D01*
X217225492Y-121947736D01*
X217204051Y-121948789D01*
X216766551Y-121948789D01*
X216745110Y-121947736D01*
X216723875Y-121944586D01*
X216703051Y-121939370D01*
X216682839Y-121932138D01*
X216663433Y-121922959D01*
X216645020Y-121911923D01*
X216627777Y-121899135D01*
X216611871Y-121884719D01*
X216597455Y-121868813D01*
X216584667Y-121851570D01*
X216573631Y-121833157D01*
X216564452Y-121813751D01*
X216557220Y-121793539D01*
X216552004Y-121772715D01*
X216548854Y-121751480D01*
X216547801Y-121730039D01*
X216547801Y-121217539D01*
X216548854Y-121196098D01*
X216552004Y-121174863D01*
X216557220Y-121154039D01*
X216564452Y-121133827D01*
X216573631Y-121114421D01*
X216584667Y-121096008D01*
X216597455Y-121078765D01*
X216611871Y-121062859D01*
X216627777Y-121048443D01*
X216645020Y-121035655D01*
X216663433Y-121024619D01*
X216682839Y-121015440D01*
X216703051Y-121008208D01*
X216723875Y-121002992D01*
X216745110Y-120999842D01*
X216766551Y-120998789D01*
X217204051Y-120998789D01*
X217225492Y-120999842D01*
X217225492Y-120999842D01*
G37*
D12*
X216985301Y-121473789D03*
D10*
G36*
X190650492Y-136999842D02*
G01*
X190671727Y-137002992D01*
X190692551Y-137008208D01*
X190712763Y-137015440D01*
X190732169Y-137024619D01*
X190750582Y-137035655D01*
X190767825Y-137048443D01*
X190783731Y-137062859D01*
X190798147Y-137078765D01*
X190810935Y-137096008D01*
X190821971Y-137114421D01*
X190831150Y-137133827D01*
X190838382Y-137154039D01*
X190843598Y-137174863D01*
X190846748Y-137196098D01*
X190847801Y-137217539D01*
X190847801Y-137730039D01*
X190846748Y-137751480D01*
X190843598Y-137772715D01*
X190838382Y-137793539D01*
X190831150Y-137813751D01*
X190821971Y-137833157D01*
X190810935Y-137851570D01*
X190798147Y-137868813D01*
X190783731Y-137884719D01*
X190767825Y-137899135D01*
X190750582Y-137911923D01*
X190732169Y-137922959D01*
X190712763Y-137932138D01*
X190692551Y-137939370D01*
X190671727Y-137944586D01*
X190650492Y-137947736D01*
X190629051Y-137948789D01*
X190191551Y-137948789D01*
X190170110Y-137947736D01*
X190148875Y-137944586D01*
X190128051Y-137939370D01*
X190107839Y-137932138D01*
X190088433Y-137922959D01*
X190070020Y-137911923D01*
X190052777Y-137899135D01*
X190036871Y-137884719D01*
X190022455Y-137868813D01*
X190009667Y-137851570D01*
X189998631Y-137833157D01*
X189989452Y-137813751D01*
X189982220Y-137793539D01*
X189977004Y-137772715D01*
X189973854Y-137751480D01*
X189972801Y-137730039D01*
X189972801Y-137217539D01*
X189973854Y-137196098D01*
X189977004Y-137174863D01*
X189982220Y-137154039D01*
X189989452Y-137133827D01*
X189998631Y-137114421D01*
X190009667Y-137096008D01*
X190022455Y-137078765D01*
X190036871Y-137062859D01*
X190052777Y-137048443D01*
X190070020Y-137035655D01*
X190088433Y-137024619D01*
X190107839Y-137015440D01*
X190128051Y-137008208D01*
X190148875Y-137002992D01*
X190170110Y-136999842D01*
X190191551Y-136998789D01*
X190629051Y-136998789D01*
X190650492Y-136999842D01*
X190650492Y-136999842D01*
G37*
D12*
X190410301Y-137473789D03*
D10*
G36*
X192225492Y-136999842D02*
G01*
X192246727Y-137002992D01*
X192267551Y-137008208D01*
X192287763Y-137015440D01*
X192307169Y-137024619D01*
X192325582Y-137035655D01*
X192342825Y-137048443D01*
X192358731Y-137062859D01*
X192373147Y-137078765D01*
X192385935Y-137096008D01*
X192396971Y-137114421D01*
X192406150Y-137133827D01*
X192413382Y-137154039D01*
X192418598Y-137174863D01*
X192421748Y-137196098D01*
X192422801Y-137217539D01*
X192422801Y-137730039D01*
X192421748Y-137751480D01*
X192418598Y-137772715D01*
X192413382Y-137793539D01*
X192406150Y-137813751D01*
X192396971Y-137833157D01*
X192385935Y-137851570D01*
X192373147Y-137868813D01*
X192358731Y-137884719D01*
X192342825Y-137899135D01*
X192325582Y-137911923D01*
X192307169Y-137922959D01*
X192287763Y-137932138D01*
X192267551Y-137939370D01*
X192246727Y-137944586D01*
X192225492Y-137947736D01*
X192204051Y-137948789D01*
X191766551Y-137948789D01*
X191745110Y-137947736D01*
X191723875Y-137944586D01*
X191703051Y-137939370D01*
X191682839Y-137932138D01*
X191663433Y-137922959D01*
X191645020Y-137911923D01*
X191627777Y-137899135D01*
X191611871Y-137884719D01*
X191597455Y-137868813D01*
X191584667Y-137851570D01*
X191573631Y-137833157D01*
X191564452Y-137813751D01*
X191557220Y-137793539D01*
X191552004Y-137772715D01*
X191548854Y-137751480D01*
X191547801Y-137730039D01*
X191547801Y-137217539D01*
X191548854Y-137196098D01*
X191552004Y-137174863D01*
X191557220Y-137154039D01*
X191564452Y-137133827D01*
X191573631Y-137114421D01*
X191584667Y-137096008D01*
X191597455Y-137078765D01*
X191611871Y-137062859D01*
X191627777Y-137048443D01*
X191645020Y-137035655D01*
X191663433Y-137024619D01*
X191682839Y-137015440D01*
X191703051Y-137008208D01*
X191723875Y-137002992D01*
X191745110Y-136999842D01*
X191766551Y-136998789D01*
X192204051Y-136998789D01*
X192225492Y-136999842D01*
X192225492Y-136999842D01*
G37*
D12*
X191985301Y-137473789D03*
D10*
G36*
X192225492Y-131999842D02*
G01*
X192246727Y-132002992D01*
X192267551Y-132008208D01*
X192287763Y-132015440D01*
X192307169Y-132024619D01*
X192325582Y-132035655D01*
X192342825Y-132048443D01*
X192358731Y-132062859D01*
X192373147Y-132078765D01*
X192385935Y-132096008D01*
X192396971Y-132114421D01*
X192406150Y-132133827D01*
X192413382Y-132154039D01*
X192418598Y-132174863D01*
X192421748Y-132196098D01*
X192422801Y-132217539D01*
X192422801Y-132730039D01*
X192421748Y-132751480D01*
X192418598Y-132772715D01*
X192413382Y-132793539D01*
X192406150Y-132813751D01*
X192396971Y-132833157D01*
X192385935Y-132851570D01*
X192373147Y-132868813D01*
X192358731Y-132884719D01*
X192342825Y-132899135D01*
X192325582Y-132911923D01*
X192307169Y-132922959D01*
X192287763Y-132932138D01*
X192267551Y-132939370D01*
X192246727Y-132944586D01*
X192225492Y-132947736D01*
X192204051Y-132948789D01*
X191766551Y-132948789D01*
X191745110Y-132947736D01*
X191723875Y-132944586D01*
X191703051Y-132939370D01*
X191682839Y-132932138D01*
X191663433Y-132922959D01*
X191645020Y-132911923D01*
X191627777Y-132899135D01*
X191611871Y-132884719D01*
X191597455Y-132868813D01*
X191584667Y-132851570D01*
X191573631Y-132833157D01*
X191564452Y-132813751D01*
X191557220Y-132793539D01*
X191552004Y-132772715D01*
X191548854Y-132751480D01*
X191547801Y-132730039D01*
X191547801Y-132217539D01*
X191548854Y-132196098D01*
X191552004Y-132174863D01*
X191557220Y-132154039D01*
X191564452Y-132133827D01*
X191573631Y-132114421D01*
X191584667Y-132096008D01*
X191597455Y-132078765D01*
X191611871Y-132062859D01*
X191627777Y-132048443D01*
X191645020Y-132035655D01*
X191663433Y-132024619D01*
X191682839Y-132015440D01*
X191703051Y-132008208D01*
X191723875Y-132002992D01*
X191745110Y-131999842D01*
X191766551Y-131998789D01*
X192204051Y-131998789D01*
X192225492Y-131999842D01*
X192225492Y-131999842D01*
G37*
D12*
X191985301Y-132473789D03*
D10*
G36*
X190650492Y-131999842D02*
G01*
X190671727Y-132002992D01*
X190692551Y-132008208D01*
X190712763Y-132015440D01*
X190732169Y-132024619D01*
X190750582Y-132035655D01*
X190767825Y-132048443D01*
X190783731Y-132062859D01*
X190798147Y-132078765D01*
X190810935Y-132096008D01*
X190821971Y-132114421D01*
X190831150Y-132133827D01*
X190838382Y-132154039D01*
X190843598Y-132174863D01*
X190846748Y-132196098D01*
X190847801Y-132217539D01*
X190847801Y-132730039D01*
X190846748Y-132751480D01*
X190843598Y-132772715D01*
X190838382Y-132793539D01*
X190831150Y-132813751D01*
X190821971Y-132833157D01*
X190810935Y-132851570D01*
X190798147Y-132868813D01*
X190783731Y-132884719D01*
X190767825Y-132899135D01*
X190750582Y-132911923D01*
X190732169Y-132922959D01*
X190712763Y-132932138D01*
X190692551Y-132939370D01*
X190671727Y-132944586D01*
X190650492Y-132947736D01*
X190629051Y-132948789D01*
X190191551Y-132948789D01*
X190170110Y-132947736D01*
X190148875Y-132944586D01*
X190128051Y-132939370D01*
X190107839Y-132932138D01*
X190088433Y-132922959D01*
X190070020Y-132911923D01*
X190052777Y-132899135D01*
X190036871Y-132884719D01*
X190022455Y-132868813D01*
X190009667Y-132851570D01*
X189998631Y-132833157D01*
X189989452Y-132813751D01*
X189982220Y-132793539D01*
X189977004Y-132772715D01*
X189973854Y-132751480D01*
X189972801Y-132730039D01*
X189972801Y-132217539D01*
X189973854Y-132196098D01*
X189977004Y-132174863D01*
X189982220Y-132154039D01*
X189989452Y-132133827D01*
X189998631Y-132114421D01*
X190009667Y-132096008D01*
X190022455Y-132078765D01*
X190036871Y-132062859D01*
X190052777Y-132048443D01*
X190070020Y-132035655D01*
X190088433Y-132024619D01*
X190107839Y-132015440D01*
X190128051Y-132008208D01*
X190148875Y-132002992D01*
X190170110Y-131999842D01*
X190191551Y-131998789D01*
X190629051Y-131998789D01*
X190650492Y-131999842D01*
X190650492Y-131999842D01*
G37*
D12*
X190410301Y-132473789D03*
D10*
G36*
X190650492Y-126999842D02*
G01*
X190671727Y-127002992D01*
X190692551Y-127008208D01*
X190712763Y-127015440D01*
X190732169Y-127024619D01*
X190750582Y-127035655D01*
X190767825Y-127048443D01*
X190783731Y-127062859D01*
X190798147Y-127078765D01*
X190810935Y-127096008D01*
X190821971Y-127114421D01*
X190831150Y-127133827D01*
X190838382Y-127154039D01*
X190843598Y-127174863D01*
X190846748Y-127196098D01*
X190847801Y-127217539D01*
X190847801Y-127730039D01*
X190846748Y-127751480D01*
X190843598Y-127772715D01*
X190838382Y-127793539D01*
X190831150Y-127813751D01*
X190821971Y-127833157D01*
X190810935Y-127851570D01*
X190798147Y-127868813D01*
X190783731Y-127884719D01*
X190767825Y-127899135D01*
X190750582Y-127911923D01*
X190732169Y-127922959D01*
X190712763Y-127932138D01*
X190692551Y-127939370D01*
X190671727Y-127944586D01*
X190650492Y-127947736D01*
X190629051Y-127948789D01*
X190191551Y-127948789D01*
X190170110Y-127947736D01*
X190148875Y-127944586D01*
X190128051Y-127939370D01*
X190107839Y-127932138D01*
X190088433Y-127922959D01*
X190070020Y-127911923D01*
X190052777Y-127899135D01*
X190036871Y-127884719D01*
X190022455Y-127868813D01*
X190009667Y-127851570D01*
X189998631Y-127833157D01*
X189989452Y-127813751D01*
X189982220Y-127793539D01*
X189977004Y-127772715D01*
X189973854Y-127751480D01*
X189972801Y-127730039D01*
X189972801Y-127217539D01*
X189973854Y-127196098D01*
X189977004Y-127174863D01*
X189982220Y-127154039D01*
X189989452Y-127133827D01*
X189998631Y-127114421D01*
X190009667Y-127096008D01*
X190022455Y-127078765D01*
X190036871Y-127062859D01*
X190052777Y-127048443D01*
X190070020Y-127035655D01*
X190088433Y-127024619D01*
X190107839Y-127015440D01*
X190128051Y-127008208D01*
X190148875Y-127002992D01*
X190170110Y-126999842D01*
X190191551Y-126998789D01*
X190629051Y-126998789D01*
X190650492Y-126999842D01*
X190650492Y-126999842D01*
G37*
D12*
X190410301Y-127473789D03*
D10*
G36*
X192225492Y-126999842D02*
G01*
X192246727Y-127002992D01*
X192267551Y-127008208D01*
X192287763Y-127015440D01*
X192307169Y-127024619D01*
X192325582Y-127035655D01*
X192342825Y-127048443D01*
X192358731Y-127062859D01*
X192373147Y-127078765D01*
X192385935Y-127096008D01*
X192396971Y-127114421D01*
X192406150Y-127133827D01*
X192413382Y-127154039D01*
X192418598Y-127174863D01*
X192421748Y-127196098D01*
X192422801Y-127217539D01*
X192422801Y-127730039D01*
X192421748Y-127751480D01*
X192418598Y-127772715D01*
X192413382Y-127793539D01*
X192406150Y-127813751D01*
X192396971Y-127833157D01*
X192385935Y-127851570D01*
X192373147Y-127868813D01*
X192358731Y-127884719D01*
X192342825Y-127899135D01*
X192325582Y-127911923D01*
X192307169Y-127922959D01*
X192287763Y-127932138D01*
X192267551Y-127939370D01*
X192246727Y-127944586D01*
X192225492Y-127947736D01*
X192204051Y-127948789D01*
X191766551Y-127948789D01*
X191745110Y-127947736D01*
X191723875Y-127944586D01*
X191703051Y-127939370D01*
X191682839Y-127932138D01*
X191663433Y-127922959D01*
X191645020Y-127911923D01*
X191627777Y-127899135D01*
X191611871Y-127884719D01*
X191597455Y-127868813D01*
X191584667Y-127851570D01*
X191573631Y-127833157D01*
X191564452Y-127813751D01*
X191557220Y-127793539D01*
X191552004Y-127772715D01*
X191548854Y-127751480D01*
X191547801Y-127730039D01*
X191547801Y-127217539D01*
X191548854Y-127196098D01*
X191552004Y-127174863D01*
X191557220Y-127154039D01*
X191564452Y-127133827D01*
X191573631Y-127114421D01*
X191584667Y-127096008D01*
X191597455Y-127078765D01*
X191611871Y-127062859D01*
X191627777Y-127048443D01*
X191645020Y-127035655D01*
X191663433Y-127024619D01*
X191682839Y-127015440D01*
X191703051Y-127008208D01*
X191723875Y-127002992D01*
X191745110Y-126999842D01*
X191766551Y-126998789D01*
X192204051Y-126998789D01*
X192225492Y-126999842D01*
X192225492Y-126999842D01*
G37*
D12*
X191985301Y-127473789D03*
D10*
G36*
X192225492Y-121999842D02*
G01*
X192246727Y-122002992D01*
X192267551Y-122008208D01*
X192287763Y-122015440D01*
X192307169Y-122024619D01*
X192325582Y-122035655D01*
X192342825Y-122048443D01*
X192358731Y-122062859D01*
X192373147Y-122078765D01*
X192385935Y-122096008D01*
X192396971Y-122114421D01*
X192406150Y-122133827D01*
X192413382Y-122154039D01*
X192418598Y-122174863D01*
X192421748Y-122196098D01*
X192422801Y-122217539D01*
X192422801Y-122730039D01*
X192421748Y-122751480D01*
X192418598Y-122772715D01*
X192413382Y-122793539D01*
X192406150Y-122813751D01*
X192396971Y-122833157D01*
X192385935Y-122851570D01*
X192373147Y-122868813D01*
X192358731Y-122884719D01*
X192342825Y-122899135D01*
X192325582Y-122911923D01*
X192307169Y-122922959D01*
X192287763Y-122932138D01*
X192267551Y-122939370D01*
X192246727Y-122944586D01*
X192225492Y-122947736D01*
X192204051Y-122948789D01*
X191766551Y-122948789D01*
X191745110Y-122947736D01*
X191723875Y-122944586D01*
X191703051Y-122939370D01*
X191682839Y-122932138D01*
X191663433Y-122922959D01*
X191645020Y-122911923D01*
X191627777Y-122899135D01*
X191611871Y-122884719D01*
X191597455Y-122868813D01*
X191584667Y-122851570D01*
X191573631Y-122833157D01*
X191564452Y-122813751D01*
X191557220Y-122793539D01*
X191552004Y-122772715D01*
X191548854Y-122751480D01*
X191547801Y-122730039D01*
X191547801Y-122217539D01*
X191548854Y-122196098D01*
X191552004Y-122174863D01*
X191557220Y-122154039D01*
X191564452Y-122133827D01*
X191573631Y-122114421D01*
X191584667Y-122096008D01*
X191597455Y-122078765D01*
X191611871Y-122062859D01*
X191627777Y-122048443D01*
X191645020Y-122035655D01*
X191663433Y-122024619D01*
X191682839Y-122015440D01*
X191703051Y-122008208D01*
X191723875Y-122002992D01*
X191745110Y-121999842D01*
X191766551Y-121998789D01*
X192204051Y-121998789D01*
X192225492Y-121999842D01*
X192225492Y-121999842D01*
G37*
D12*
X191985301Y-122473789D03*
D10*
G36*
X190650492Y-121999842D02*
G01*
X190671727Y-122002992D01*
X190692551Y-122008208D01*
X190712763Y-122015440D01*
X190732169Y-122024619D01*
X190750582Y-122035655D01*
X190767825Y-122048443D01*
X190783731Y-122062859D01*
X190798147Y-122078765D01*
X190810935Y-122096008D01*
X190821971Y-122114421D01*
X190831150Y-122133827D01*
X190838382Y-122154039D01*
X190843598Y-122174863D01*
X190846748Y-122196098D01*
X190847801Y-122217539D01*
X190847801Y-122730039D01*
X190846748Y-122751480D01*
X190843598Y-122772715D01*
X190838382Y-122793539D01*
X190831150Y-122813751D01*
X190821971Y-122833157D01*
X190810935Y-122851570D01*
X190798147Y-122868813D01*
X190783731Y-122884719D01*
X190767825Y-122899135D01*
X190750582Y-122911923D01*
X190732169Y-122922959D01*
X190712763Y-122932138D01*
X190692551Y-122939370D01*
X190671727Y-122944586D01*
X190650492Y-122947736D01*
X190629051Y-122948789D01*
X190191551Y-122948789D01*
X190170110Y-122947736D01*
X190148875Y-122944586D01*
X190128051Y-122939370D01*
X190107839Y-122932138D01*
X190088433Y-122922959D01*
X190070020Y-122911923D01*
X190052777Y-122899135D01*
X190036871Y-122884719D01*
X190022455Y-122868813D01*
X190009667Y-122851570D01*
X189998631Y-122833157D01*
X189989452Y-122813751D01*
X189982220Y-122793539D01*
X189977004Y-122772715D01*
X189973854Y-122751480D01*
X189972801Y-122730039D01*
X189972801Y-122217539D01*
X189973854Y-122196098D01*
X189977004Y-122174863D01*
X189982220Y-122154039D01*
X189989452Y-122133827D01*
X189998631Y-122114421D01*
X190009667Y-122096008D01*
X190022455Y-122078765D01*
X190036871Y-122062859D01*
X190052777Y-122048443D01*
X190070020Y-122035655D01*
X190088433Y-122024619D01*
X190107839Y-122015440D01*
X190128051Y-122008208D01*
X190148875Y-122002992D01*
X190170110Y-121999842D01*
X190191551Y-121998789D01*
X190629051Y-121998789D01*
X190650492Y-121999842D01*
X190650492Y-121999842D01*
G37*
D12*
X190410301Y-122473789D03*
D10*
G36*
X190650492Y-116999842D02*
G01*
X190671727Y-117002992D01*
X190692551Y-117008208D01*
X190712763Y-117015440D01*
X190732169Y-117024619D01*
X190750582Y-117035655D01*
X190767825Y-117048443D01*
X190783731Y-117062859D01*
X190798147Y-117078765D01*
X190810935Y-117096008D01*
X190821971Y-117114421D01*
X190831150Y-117133827D01*
X190838382Y-117154039D01*
X190843598Y-117174863D01*
X190846748Y-117196098D01*
X190847801Y-117217539D01*
X190847801Y-117730039D01*
X190846748Y-117751480D01*
X190843598Y-117772715D01*
X190838382Y-117793539D01*
X190831150Y-117813751D01*
X190821971Y-117833157D01*
X190810935Y-117851570D01*
X190798147Y-117868813D01*
X190783731Y-117884719D01*
X190767825Y-117899135D01*
X190750582Y-117911923D01*
X190732169Y-117922959D01*
X190712763Y-117932138D01*
X190692551Y-117939370D01*
X190671727Y-117944586D01*
X190650492Y-117947736D01*
X190629051Y-117948789D01*
X190191551Y-117948789D01*
X190170110Y-117947736D01*
X190148875Y-117944586D01*
X190128051Y-117939370D01*
X190107839Y-117932138D01*
X190088433Y-117922959D01*
X190070020Y-117911923D01*
X190052777Y-117899135D01*
X190036871Y-117884719D01*
X190022455Y-117868813D01*
X190009667Y-117851570D01*
X189998631Y-117833157D01*
X189989452Y-117813751D01*
X189982220Y-117793539D01*
X189977004Y-117772715D01*
X189973854Y-117751480D01*
X189972801Y-117730039D01*
X189972801Y-117217539D01*
X189973854Y-117196098D01*
X189977004Y-117174863D01*
X189982220Y-117154039D01*
X189989452Y-117133827D01*
X189998631Y-117114421D01*
X190009667Y-117096008D01*
X190022455Y-117078765D01*
X190036871Y-117062859D01*
X190052777Y-117048443D01*
X190070020Y-117035655D01*
X190088433Y-117024619D01*
X190107839Y-117015440D01*
X190128051Y-117008208D01*
X190148875Y-117002992D01*
X190170110Y-116999842D01*
X190191551Y-116998789D01*
X190629051Y-116998789D01*
X190650492Y-116999842D01*
X190650492Y-116999842D01*
G37*
D12*
X190410301Y-117473789D03*
D10*
G36*
X192225492Y-116999842D02*
G01*
X192246727Y-117002992D01*
X192267551Y-117008208D01*
X192287763Y-117015440D01*
X192307169Y-117024619D01*
X192325582Y-117035655D01*
X192342825Y-117048443D01*
X192358731Y-117062859D01*
X192373147Y-117078765D01*
X192385935Y-117096008D01*
X192396971Y-117114421D01*
X192406150Y-117133827D01*
X192413382Y-117154039D01*
X192418598Y-117174863D01*
X192421748Y-117196098D01*
X192422801Y-117217539D01*
X192422801Y-117730039D01*
X192421748Y-117751480D01*
X192418598Y-117772715D01*
X192413382Y-117793539D01*
X192406150Y-117813751D01*
X192396971Y-117833157D01*
X192385935Y-117851570D01*
X192373147Y-117868813D01*
X192358731Y-117884719D01*
X192342825Y-117899135D01*
X192325582Y-117911923D01*
X192307169Y-117922959D01*
X192287763Y-117932138D01*
X192267551Y-117939370D01*
X192246727Y-117944586D01*
X192225492Y-117947736D01*
X192204051Y-117948789D01*
X191766551Y-117948789D01*
X191745110Y-117947736D01*
X191723875Y-117944586D01*
X191703051Y-117939370D01*
X191682839Y-117932138D01*
X191663433Y-117922959D01*
X191645020Y-117911923D01*
X191627777Y-117899135D01*
X191611871Y-117884719D01*
X191597455Y-117868813D01*
X191584667Y-117851570D01*
X191573631Y-117833157D01*
X191564452Y-117813751D01*
X191557220Y-117793539D01*
X191552004Y-117772715D01*
X191548854Y-117751480D01*
X191547801Y-117730039D01*
X191547801Y-117217539D01*
X191548854Y-117196098D01*
X191552004Y-117174863D01*
X191557220Y-117154039D01*
X191564452Y-117133827D01*
X191573631Y-117114421D01*
X191584667Y-117096008D01*
X191597455Y-117078765D01*
X191611871Y-117062859D01*
X191627777Y-117048443D01*
X191645020Y-117035655D01*
X191663433Y-117024619D01*
X191682839Y-117015440D01*
X191703051Y-117008208D01*
X191723875Y-117002992D01*
X191745110Y-116999842D01*
X191766551Y-116998789D01*
X192204051Y-116998789D01*
X192225492Y-116999842D01*
X192225492Y-116999842D01*
G37*
D12*
X191985301Y-117473789D03*
D10*
G36*
X192225492Y-111999842D02*
G01*
X192246727Y-112002992D01*
X192267551Y-112008208D01*
X192287763Y-112015440D01*
X192307169Y-112024619D01*
X192325582Y-112035655D01*
X192342825Y-112048443D01*
X192358731Y-112062859D01*
X192373147Y-112078765D01*
X192385935Y-112096008D01*
X192396971Y-112114421D01*
X192406150Y-112133827D01*
X192413382Y-112154039D01*
X192418598Y-112174863D01*
X192421748Y-112196098D01*
X192422801Y-112217539D01*
X192422801Y-112730039D01*
X192421748Y-112751480D01*
X192418598Y-112772715D01*
X192413382Y-112793539D01*
X192406150Y-112813751D01*
X192396971Y-112833157D01*
X192385935Y-112851570D01*
X192373147Y-112868813D01*
X192358731Y-112884719D01*
X192342825Y-112899135D01*
X192325582Y-112911923D01*
X192307169Y-112922959D01*
X192287763Y-112932138D01*
X192267551Y-112939370D01*
X192246727Y-112944586D01*
X192225492Y-112947736D01*
X192204051Y-112948789D01*
X191766551Y-112948789D01*
X191745110Y-112947736D01*
X191723875Y-112944586D01*
X191703051Y-112939370D01*
X191682839Y-112932138D01*
X191663433Y-112922959D01*
X191645020Y-112911923D01*
X191627777Y-112899135D01*
X191611871Y-112884719D01*
X191597455Y-112868813D01*
X191584667Y-112851570D01*
X191573631Y-112833157D01*
X191564452Y-112813751D01*
X191557220Y-112793539D01*
X191552004Y-112772715D01*
X191548854Y-112751480D01*
X191547801Y-112730039D01*
X191547801Y-112217539D01*
X191548854Y-112196098D01*
X191552004Y-112174863D01*
X191557220Y-112154039D01*
X191564452Y-112133827D01*
X191573631Y-112114421D01*
X191584667Y-112096008D01*
X191597455Y-112078765D01*
X191611871Y-112062859D01*
X191627777Y-112048443D01*
X191645020Y-112035655D01*
X191663433Y-112024619D01*
X191682839Y-112015440D01*
X191703051Y-112008208D01*
X191723875Y-112002992D01*
X191745110Y-111999842D01*
X191766551Y-111998789D01*
X192204051Y-111998789D01*
X192225492Y-111999842D01*
X192225492Y-111999842D01*
G37*
D12*
X191985301Y-112473789D03*
D10*
G36*
X190650492Y-111999842D02*
G01*
X190671727Y-112002992D01*
X190692551Y-112008208D01*
X190712763Y-112015440D01*
X190732169Y-112024619D01*
X190750582Y-112035655D01*
X190767825Y-112048443D01*
X190783731Y-112062859D01*
X190798147Y-112078765D01*
X190810935Y-112096008D01*
X190821971Y-112114421D01*
X190831150Y-112133827D01*
X190838382Y-112154039D01*
X190843598Y-112174863D01*
X190846748Y-112196098D01*
X190847801Y-112217539D01*
X190847801Y-112730039D01*
X190846748Y-112751480D01*
X190843598Y-112772715D01*
X190838382Y-112793539D01*
X190831150Y-112813751D01*
X190821971Y-112833157D01*
X190810935Y-112851570D01*
X190798147Y-112868813D01*
X190783731Y-112884719D01*
X190767825Y-112899135D01*
X190750582Y-112911923D01*
X190732169Y-112922959D01*
X190712763Y-112932138D01*
X190692551Y-112939370D01*
X190671727Y-112944586D01*
X190650492Y-112947736D01*
X190629051Y-112948789D01*
X190191551Y-112948789D01*
X190170110Y-112947736D01*
X190148875Y-112944586D01*
X190128051Y-112939370D01*
X190107839Y-112932138D01*
X190088433Y-112922959D01*
X190070020Y-112911923D01*
X190052777Y-112899135D01*
X190036871Y-112884719D01*
X190022455Y-112868813D01*
X190009667Y-112851570D01*
X189998631Y-112833157D01*
X189989452Y-112813751D01*
X189982220Y-112793539D01*
X189977004Y-112772715D01*
X189973854Y-112751480D01*
X189972801Y-112730039D01*
X189972801Y-112217539D01*
X189973854Y-112196098D01*
X189977004Y-112174863D01*
X189982220Y-112154039D01*
X189989452Y-112133827D01*
X189998631Y-112114421D01*
X190009667Y-112096008D01*
X190022455Y-112078765D01*
X190036871Y-112062859D01*
X190052777Y-112048443D01*
X190070020Y-112035655D01*
X190088433Y-112024619D01*
X190107839Y-112015440D01*
X190128051Y-112008208D01*
X190148875Y-112002992D01*
X190170110Y-111999842D01*
X190191551Y-111998789D01*
X190629051Y-111998789D01*
X190650492Y-111999842D01*
X190650492Y-111999842D01*
G37*
D12*
X190410301Y-112473789D03*
D10*
G36*
X190650492Y-106999842D02*
G01*
X190671727Y-107002992D01*
X190692551Y-107008208D01*
X190712763Y-107015440D01*
X190732169Y-107024619D01*
X190750582Y-107035655D01*
X190767825Y-107048443D01*
X190783731Y-107062859D01*
X190798147Y-107078765D01*
X190810935Y-107096008D01*
X190821971Y-107114421D01*
X190831150Y-107133827D01*
X190838382Y-107154039D01*
X190843598Y-107174863D01*
X190846748Y-107196098D01*
X190847801Y-107217539D01*
X190847801Y-107730039D01*
X190846748Y-107751480D01*
X190843598Y-107772715D01*
X190838382Y-107793539D01*
X190831150Y-107813751D01*
X190821971Y-107833157D01*
X190810935Y-107851570D01*
X190798147Y-107868813D01*
X190783731Y-107884719D01*
X190767825Y-107899135D01*
X190750582Y-107911923D01*
X190732169Y-107922959D01*
X190712763Y-107932138D01*
X190692551Y-107939370D01*
X190671727Y-107944586D01*
X190650492Y-107947736D01*
X190629051Y-107948789D01*
X190191551Y-107948789D01*
X190170110Y-107947736D01*
X190148875Y-107944586D01*
X190128051Y-107939370D01*
X190107839Y-107932138D01*
X190088433Y-107922959D01*
X190070020Y-107911923D01*
X190052777Y-107899135D01*
X190036871Y-107884719D01*
X190022455Y-107868813D01*
X190009667Y-107851570D01*
X189998631Y-107833157D01*
X189989452Y-107813751D01*
X189982220Y-107793539D01*
X189977004Y-107772715D01*
X189973854Y-107751480D01*
X189972801Y-107730039D01*
X189972801Y-107217539D01*
X189973854Y-107196098D01*
X189977004Y-107174863D01*
X189982220Y-107154039D01*
X189989452Y-107133827D01*
X189998631Y-107114421D01*
X190009667Y-107096008D01*
X190022455Y-107078765D01*
X190036871Y-107062859D01*
X190052777Y-107048443D01*
X190070020Y-107035655D01*
X190088433Y-107024619D01*
X190107839Y-107015440D01*
X190128051Y-107008208D01*
X190148875Y-107002992D01*
X190170110Y-106999842D01*
X190191551Y-106998789D01*
X190629051Y-106998789D01*
X190650492Y-106999842D01*
X190650492Y-106999842D01*
G37*
D12*
X190410301Y-107473789D03*
D10*
G36*
X192225492Y-106999842D02*
G01*
X192246727Y-107002992D01*
X192267551Y-107008208D01*
X192287763Y-107015440D01*
X192307169Y-107024619D01*
X192325582Y-107035655D01*
X192342825Y-107048443D01*
X192358731Y-107062859D01*
X192373147Y-107078765D01*
X192385935Y-107096008D01*
X192396971Y-107114421D01*
X192406150Y-107133827D01*
X192413382Y-107154039D01*
X192418598Y-107174863D01*
X192421748Y-107196098D01*
X192422801Y-107217539D01*
X192422801Y-107730039D01*
X192421748Y-107751480D01*
X192418598Y-107772715D01*
X192413382Y-107793539D01*
X192406150Y-107813751D01*
X192396971Y-107833157D01*
X192385935Y-107851570D01*
X192373147Y-107868813D01*
X192358731Y-107884719D01*
X192342825Y-107899135D01*
X192325582Y-107911923D01*
X192307169Y-107922959D01*
X192287763Y-107932138D01*
X192267551Y-107939370D01*
X192246727Y-107944586D01*
X192225492Y-107947736D01*
X192204051Y-107948789D01*
X191766551Y-107948789D01*
X191745110Y-107947736D01*
X191723875Y-107944586D01*
X191703051Y-107939370D01*
X191682839Y-107932138D01*
X191663433Y-107922959D01*
X191645020Y-107911923D01*
X191627777Y-107899135D01*
X191611871Y-107884719D01*
X191597455Y-107868813D01*
X191584667Y-107851570D01*
X191573631Y-107833157D01*
X191564452Y-107813751D01*
X191557220Y-107793539D01*
X191552004Y-107772715D01*
X191548854Y-107751480D01*
X191547801Y-107730039D01*
X191547801Y-107217539D01*
X191548854Y-107196098D01*
X191552004Y-107174863D01*
X191557220Y-107154039D01*
X191564452Y-107133827D01*
X191573631Y-107114421D01*
X191584667Y-107096008D01*
X191597455Y-107078765D01*
X191611871Y-107062859D01*
X191627777Y-107048443D01*
X191645020Y-107035655D01*
X191663433Y-107024619D01*
X191682839Y-107015440D01*
X191703051Y-107008208D01*
X191723875Y-107002992D01*
X191745110Y-106999842D01*
X191766551Y-106998789D01*
X192204051Y-106998789D01*
X192225492Y-106999842D01*
X192225492Y-106999842D01*
G37*
D12*
X191985301Y-107473789D03*
D10*
G36*
X192225492Y-101999842D02*
G01*
X192246727Y-102002992D01*
X192267551Y-102008208D01*
X192287763Y-102015440D01*
X192307169Y-102024619D01*
X192325582Y-102035655D01*
X192342825Y-102048443D01*
X192358731Y-102062859D01*
X192373147Y-102078765D01*
X192385935Y-102096008D01*
X192396971Y-102114421D01*
X192406150Y-102133827D01*
X192413382Y-102154039D01*
X192418598Y-102174863D01*
X192421748Y-102196098D01*
X192422801Y-102217539D01*
X192422801Y-102730039D01*
X192421748Y-102751480D01*
X192418598Y-102772715D01*
X192413382Y-102793539D01*
X192406150Y-102813751D01*
X192396971Y-102833157D01*
X192385935Y-102851570D01*
X192373147Y-102868813D01*
X192358731Y-102884719D01*
X192342825Y-102899135D01*
X192325582Y-102911923D01*
X192307169Y-102922959D01*
X192287763Y-102932138D01*
X192267551Y-102939370D01*
X192246727Y-102944586D01*
X192225492Y-102947736D01*
X192204051Y-102948789D01*
X191766551Y-102948789D01*
X191745110Y-102947736D01*
X191723875Y-102944586D01*
X191703051Y-102939370D01*
X191682839Y-102932138D01*
X191663433Y-102922959D01*
X191645020Y-102911923D01*
X191627777Y-102899135D01*
X191611871Y-102884719D01*
X191597455Y-102868813D01*
X191584667Y-102851570D01*
X191573631Y-102833157D01*
X191564452Y-102813751D01*
X191557220Y-102793539D01*
X191552004Y-102772715D01*
X191548854Y-102751480D01*
X191547801Y-102730039D01*
X191547801Y-102217539D01*
X191548854Y-102196098D01*
X191552004Y-102174863D01*
X191557220Y-102154039D01*
X191564452Y-102133827D01*
X191573631Y-102114421D01*
X191584667Y-102096008D01*
X191597455Y-102078765D01*
X191611871Y-102062859D01*
X191627777Y-102048443D01*
X191645020Y-102035655D01*
X191663433Y-102024619D01*
X191682839Y-102015440D01*
X191703051Y-102008208D01*
X191723875Y-102002992D01*
X191745110Y-101999842D01*
X191766551Y-101998789D01*
X192204051Y-101998789D01*
X192225492Y-101999842D01*
X192225492Y-101999842D01*
G37*
D12*
X191985301Y-102473789D03*
D10*
G36*
X190650492Y-101999842D02*
G01*
X190671727Y-102002992D01*
X190692551Y-102008208D01*
X190712763Y-102015440D01*
X190732169Y-102024619D01*
X190750582Y-102035655D01*
X190767825Y-102048443D01*
X190783731Y-102062859D01*
X190798147Y-102078765D01*
X190810935Y-102096008D01*
X190821971Y-102114421D01*
X190831150Y-102133827D01*
X190838382Y-102154039D01*
X190843598Y-102174863D01*
X190846748Y-102196098D01*
X190847801Y-102217539D01*
X190847801Y-102730039D01*
X190846748Y-102751480D01*
X190843598Y-102772715D01*
X190838382Y-102793539D01*
X190831150Y-102813751D01*
X190821971Y-102833157D01*
X190810935Y-102851570D01*
X190798147Y-102868813D01*
X190783731Y-102884719D01*
X190767825Y-102899135D01*
X190750582Y-102911923D01*
X190732169Y-102922959D01*
X190712763Y-102932138D01*
X190692551Y-102939370D01*
X190671727Y-102944586D01*
X190650492Y-102947736D01*
X190629051Y-102948789D01*
X190191551Y-102948789D01*
X190170110Y-102947736D01*
X190148875Y-102944586D01*
X190128051Y-102939370D01*
X190107839Y-102932138D01*
X190088433Y-102922959D01*
X190070020Y-102911923D01*
X190052777Y-102899135D01*
X190036871Y-102884719D01*
X190022455Y-102868813D01*
X190009667Y-102851570D01*
X189998631Y-102833157D01*
X189989452Y-102813751D01*
X189982220Y-102793539D01*
X189977004Y-102772715D01*
X189973854Y-102751480D01*
X189972801Y-102730039D01*
X189972801Y-102217539D01*
X189973854Y-102196098D01*
X189977004Y-102174863D01*
X189982220Y-102154039D01*
X189989452Y-102133827D01*
X189998631Y-102114421D01*
X190009667Y-102096008D01*
X190022455Y-102078765D01*
X190036871Y-102062859D01*
X190052777Y-102048443D01*
X190070020Y-102035655D01*
X190088433Y-102024619D01*
X190107839Y-102015440D01*
X190128051Y-102008208D01*
X190148875Y-102002992D01*
X190170110Y-101999842D01*
X190191551Y-101998789D01*
X190629051Y-101998789D01*
X190650492Y-101999842D01*
X190650492Y-101999842D01*
G37*
D12*
X190410301Y-102473789D03*
D10*
G36*
X192225492Y-96999842D02*
G01*
X192246727Y-97002992D01*
X192267551Y-97008208D01*
X192287763Y-97015440D01*
X192307169Y-97024619D01*
X192325582Y-97035655D01*
X192342825Y-97048443D01*
X192358731Y-97062859D01*
X192373147Y-97078765D01*
X192385935Y-97096008D01*
X192396971Y-97114421D01*
X192406150Y-97133827D01*
X192413382Y-97154039D01*
X192418598Y-97174863D01*
X192421748Y-97196098D01*
X192422801Y-97217539D01*
X192422801Y-97730039D01*
X192421748Y-97751480D01*
X192418598Y-97772715D01*
X192413382Y-97793539D01*
X192406150Y-97813751D01*
X192396971Y-97833157D01*
X192385935Y-97851570D01*
X192373147Y-97868813D01*
X192358731Y-97884719D01*
X192342825Y-97899135D01*
X192325582Y-97911923D01*
X192307169Y-97922959D01*
X192287763Y-97932138D01*
X192267551Y-97939370D01*
X192246727Y-97944586D01*
X192225492Y-97947736D01*
X192204051Y-97948789D01*
X191766551Y-97948789D01*
X191745110Y-97947736D01*
X191723875Y-97944586D01*
X191703051Y-97939370D01*
X191682839Y-97932138D01*
X191663433Y-97922959D01*
X191645020Y-97911923D01*
X191627777Y-97899135D01*
X191611871Y-97884719D01*
X191597455Y-97868813D01*
X191584667Y-97851570D01*
X191573631Y-97833157D01*
X191564452Y-97813751D01*
X191557220Y-97793539D01*
X191552004Y-97772715D01*
X191548854Y-97751480D01*
X191547801Y-97730039D01*
X191547801Y-97217539D01*
X191548854Y-97196098D01*
X191552004Y-97174863D01*
X191557220Y-97154039D01*
X191564452Y-97133827D01*
X191573631Y-97114421D01*
X191584667Y-97096008D01*
X191597455Y-97078765D01*
X191611871Y-97062859D01*
X191627777Y-97048443D01*
X191645020Y-97035655D01*
X191663433Y-97024619D01*
X191682839Y-97015440D01*
X191703051Y-97008208D01*
X191723875Y-97002992D01*
X191745110Y-96999842D01*
X191766551Y-96998789D01*
X192204051Y-96998789D01*
X192225492Y-96999842D01*
X192225492Y-96999842D01*
G37*
D12*
X191985301Y-97473789D03*
D10*
G36*
X190650492Y-96999842D02*
G01*
X190671727Y-97002992D01*
X190692551Y-97008208D01*
X190712763Y-97015440D01*
X190732169Y-97024619D01*
X190750582Y-97035655D01*
X190767825Y-97048443D01*
X190783731Y-97062859D01*
X190798147Y-97078765D01*
X190810935Y-97096008D01*
X190821971Y-97114421D01*
X190831150Y-97133827D01*
X190838382Y-97154039D01*
X190843598Y-97174863D01*
X190846748Y-97196098D01*
X190847801Y-97217539D01*
X190847801Y-97730039D01*
X190846748Y-97751480D01*
X190843598Y-97772715D01*
X190838382Y-97793539D01*
X190831150Y-97813751D01*
X190821971Y-97833157D01*
X190810935Y-97851570D01*
X190798147Y-97868813D01*
X190783731Y-97884719D01*
X190767825Y-97899135D01*
X190750582Y-97911923D01*
X190732169Y-97922959D01*
X190712763Y-97932138D01*
X190692551Y-97939370D01*
X190671727Y-97944586D01*
X190650492Y-97947736D01*
X190629051Y-97948789D01*
X190191551Y-97948789D01*
X190170110Y-97947736D01*
X190148875Y-97944586D01*
X190128051Y-97939370D01*
X190107839Y-97932138D01*
X190088433Y-97922959D01*
X190070020Y-97911923D01*
X190052777Y-97899135D01*
X190036871Y-97884719D01*
X190022455Y-97868813D01*
X190009667Y-97851570D01*
X189998631Y-97833157D01*
X189989452Y-97813751D01*
X189982220Y-97793539D01*
X189977004Y-97772715D01*
X189973854Y-97751480D01*
X189972801Y-97730039D01*
X189972801Y-97217539D01*
X189973854Y-97196098D01*
X189977004Y-97174863D01*
X189982220Y-97154039D01*
X189989452Y-97133827D01*
X189998631Y-97114421D01*
X190009667Y-97096008D01*
X190022455Y-97078765D01*
X190036871Y-97062859D01*
X190052777Y-97048443D01*
X190070020Y-97035655D01*
X190088433Y-97024619D01*
X190107839Y-97015440D01*
X190128051Y-97008208D01*
X190148875Y-97002992D01*
X190170110Y-96999842D01*
X190191551Y-96998789D01*
X190629051Y-96998789D01*
X190650492Y-96999842D01*
X190650492Y-96999842D01*
G37*
D12*
X190410301Y-97473789D03*
D10*
G36*
X189627691Y-83499842D02*
G01*
X189648926Y-83502992D01*
X189669750Y-83508208D01*
X189689962Y-83515440D01*
X189709368Y-83524619D01*
X189727781Y-83535655D01*
X189745024Y-83548443D01*
X189760930Y-83562859D01*
X189775346Y-83578765D01*
X189788134Y-83596008D01*
X189799170Y-83614421D01*
X189808349Y-83633827D01*
X189815581Y-83654039D01*
X189820797Y-83674863D01*
X189823947Y-83696098D01*
X189825000Y-83717539D01*
X189825000Y-84230039D01*
X189823947Y-84251480D01*
X189820797Y-84272715D01*
X189815581Y-84293539D01*
X189808349Y-84313751D01*
X189799170Y-84333157D01*
X189788134Y-84351570D01*
X189775346Y-84368813D01*
X189760930Y-84384719D01*
X189745024Y-84399135D01*
X189727781Y-84411923D01*
X189709368Y-84422959D01*
X189689962Y-84432138D01*
X189669750Y-84439370D01*
X189648926Y-84444586D01*
X189627691Y-84447736D01*
X189606250Y-84448789D01*
X189168750Y-84448789D01*
X189147309Y-84447736D01*
X189126074Y-84444586D01*
X189105250Y-84439370D01*
X189085038Y-84432138D01*
X189065632Y-84422959D01*
X189047219Y-84411923D01*
X189029976Y-84399135D01*
X189014070Y-84384719D01*
X188999654Y-84368813D01*
X188986866Y-84351570D01*
X188975830Y-84333157D01*
X188966651Y-84313751D01*
X188959419Y-84293539D01*
X188954203Y-84272715D01*
X188951053Y-84251480D01*
X188950000Y-84230039D01*
X188950000Y-83717539D01*
X188951053Y-83696098D01*
X188954203Y-83674863D01*
X188959419Y-83654039D01*
X188966651Y-83633827D01*
X188975830Y-83614421D01*
X188986866Y-83596008D01*
X188999654Y-83578765D01*
X189014070Y-83562859D01*
X189029976Y-83548443D01*
X189047219Y-83535655D01*
X189065632Y-83524619D01*
X189085038Y-83515440D01*
X189105250Y-83508208D01*
X189126074Y-83502992D01*
X189147309Y-83499842D01*
X189168750Y-83498789D01*
X189606250Y-83498789D01*
X189627691Y-83499842D01*
X189627691Y-83499842D01*
G37*
D12*
X189387500Y-83973789D03*
D10*
G36*
X188052691Y-83499842D02*
G01*
X188073926Y-83502992D01*
X188094750Y-83508208D01*
X188114962Y-83515440D01*
X188134368Y-83524619D01*
X188152781Y-83535655D01*
X188170024Y-83548443D01*
X188185930Y-83562859D01*
X188200346Y-83578765D01*
X188213134Y-83596008D01*
X188224170Y-83614421D01*
X188233349Y-83633827D01*
X188240581Y-83654039D01*
X188245797Y-83674863D01*
X188248947Y-83696098D01*
X188250000Y-83717539D01*
X188250000Y-84230039D01*
X188248947Y-84251480D01*
X188245797Y-84272715D01*
X188240581Y-84293539D01*
X188233349Y-84313751D01*
X188224170Y-84333157D01*
X188213134Y-84351570D01*
X188200346Y-84368813D01*
X188185930Y-84384719D01*
X188170024Y-84399135D01*
X188152781Y-84411923D01*
X188134368Y-84422959D01*
X188114962Y-84432138D01*
X188094750Y-84439370D01*
X188073926Y-84444586D01*
X188052691Y-84447736D01*
X188031250Y-84448789D01*
X187593750Y-84448789D01*
X187572309Y-84447736D01*
X187551074Y-84444586D01*
X187530250Y-84439370D01*
X187510038Y-84432138D01*
X187490632Y-84422959D01*
X187472219Y-84411923D01*
X187454976Y-84399135D01*
X187439070Y-84384719D01*
X187424654Y-84368813D01*
X187411866Y-84351570D01*
X187400830Y-84333157D01*
X187391651Y-84313751D01*
X187384419Y-84293539D01*
X187379203Y-84272715D01*
X187376053Y-84251480D01*
X187375000Y-84230039D01*
X187375000Y-83717539D01*
X187376053Y-83696098D01*
X187379203Y-83674863D01*
X187384419Y-83654039D01*
X187391651Y-83633827D01*
X187400830Y-83614421D01*
X187411866Y-83596008D01*
X187424654Y-83578765D01*
X187439070Y-83562859D01*
X187454976Y-83548443D01*
X187472219Y-83535655D01*
X187490632Y-83524619D01*
X187510038Y-83515440D01*
X187530250Y-83508208D01*
X187551074Y-83502992D01*
X187572309Y-83499842D01*
X187593750Y-83498789D01*
X188031250Y-83498789D01*
X188052691Y-83499842D01*
X188052691Y-83499842D01*
G37*
D12*
X187812500Y-83973789D03*
D10*
G36*
X192725492Y-83499842D02*
G01*
X192746727Y-83502992D01*
X192767551Y-83508208D01*
X192787763Y-83515440D01*
X192807169Y-83524619D01*
X192825582Y-83535655D01*
X192842825Y-83548443D01*
X192858731Y-83562859D01*
X192873147Y-83578765D01*
X192885935Y-83596008D01*
X192896971Y-83614421D01*
X192906150Y-83633827D01*
X192913382Y-83654039D01*
X192918598Y-83674863D01*
X192921748Y-83696098D01*
X192922801Y-83717539D01*
X192922801Y-84230039D01*
X192921748Y-84251480D01*
X192918598Y-84272715D01*
X192913382Y-84293539D01*
X192906150Y-84313751D01*
X192896971Y-84333157D01*
X192885935Y-84351570D01*
X192873147Y-84368813D01*
X192858731Y-84384719D01*
X192842825Y-84399135D01*
X192825582Y-84411923D01*
X192807169Y-84422959D01*
X192787763Y-84432138D01*
X192767551Y-84439370D01*
X192746727Y-84444586D01*
X192725492Y-84447736D01*
X192704051Y-84448789D01*
X192266551Y-84448789D01*
X192245110Y-84447736D01*
X192223875Y-84444586D01*
X192203051Y-84439370D01*
X192182839Y-84432138D01*
X192163433Y-84422959D01*
X192145020Y-84411923D01*
X192127777Y-84399135D01*
X192111871Y-84384719D01*
X192097455Y-84368813D01*
X192084667Y-84351570D01*
X192073631Y-84333157D01*
X192064452Y-84313751D01*
X192057220Y-84293539D01*
X192052004Y-84272715D01*
X192048854Y-84251480D01*
X192047801Y-84230039D01*
X192047801Y-83717539D01*
X192048854Y-83696098D01*
X192052004Y-83674863D01*
X192057220Y-83654039D01*
X192064452Y-83633827D01*
X192073631Y-83614421D01*
X192084667Y-83596008D01*
X192097455Y-83578765D01*
X192111871Y-83562859D01*
X192127777Y-83548443D01*
X192145020Y-83535655D01*
X192163433Y-83524619D01*
X192182839Y-83515440D01*
X192203051Y-83508208D01*
X192223875Y-83502992D01*
X192245110Y-83499842D01*
X192266551Y-83498789D01*
X192704051Y-83498789D01*
X192725492Y-83499842D01*
X192725492Y-83499842D01*
G37*
D12*
X192485301Y-83973789D03*
D10*
G36*
X191150492Y-83499842D02*
G01*
X191171727Y-83502992D01*
X191192551Y-83508208D01*
X191212763Y-83515440D01*
X191232169Y-83524619D01*
X191250582Y-83535655D01*
X191267825Y-83548443D01*
X191283731Y-83562859D01*
X191298147Y-83578765D01*
X191310935Y-83596008D01*
X191321971Y-83614421D01*
X191331150Y-83633827D01*
X191338382Y-83654039D01*
X191343598Y-83674863D01*
X191346748Y-83696098D01*
X191347801Y-83717539D01*
X191347801Y-84230039D01*
X191346748Y-84251480D01*
X191343598Y-84272715D01*
X191338382Y-84293539D01*
X191331150Y-84313751D01*
X191321971Y-84333157D01*
X191310935Y-84351570D01*
X191298147Y-84368813D01*
X191283731Y-84384719D01*
X191267825Y-84399135D01*
X191250582Y-84411923D01*
X191232169Y-84422959D01*
X191212763Y-84432138D01*
X191192551Y-84439370D01*
X191171727Y-84444586D01*
X191150492Y-84447736D01*
X191129051Y-84448789D01*
X190691551Y-84448789D01*
X190670110Y-84447736D01*
X190648875Y-84444586D01*
X190628051Y-84439370D01*
X190607839Y-84432138D01*
X190588433Y-84422959D01*
X190570020Y-84411923D01*
X190552777Y-84399135D01*
X190536871Y-84384719D01*
X190522455Y-84368813D01*
X190509667Y-84351570D01*
X190498631Y-84333157D01*
X190489452Y-84313751D01*
X190482220Y-84293539D01*
X190477004Y-84272715D01*
X190473854Y-84251480D01*
X190472801Y-84230039D01*
X190472801Y-83717539D01*
X190473854Y-83696098D01*
X190477004Y-83674863D01*
X190482220Y-83654039D01*
X190489452Y-83633827D01*
X190498631Y-83614421D01*
X190509667Y-83596008D01*
X190522455Y-83578765D01*
X190536871Y-83562859D01*
X190552777Y-83548443D01*
X190570020Y-83535655D01*
X190588433Y-83524619D01*
X190607839Y-83515440D01*
X190628051Y-83508208D01*
X190648875Y-83502992D01*
X190670110Y-83499842D01*
X190691551Y-83498789D01*
X191129051Y-83498789D01*
X191150492Y-83499842D01*
X191150492Y-83499842D01*
G37*
D12*
X190910301Y-83973789D03*
D10*
G36*
X220777691Y-136638553D02*
G01*
X220798926Y-136641703D01*
X220819750Y-136646919D01*
X220839962Y-136654151D01*
X220859368Y-136663330D01*
X220877781Y-136674366D01*
X220895024Y-136687154D01*
X220910930Y-136701570D01*
X220925346Y-136717476D01*
X220938134Y-136734719D01*
X220949170Y-136753132D01*
X220958349Y-136772538D01*
X220965581Y-136792750D01*
X220970797Y-136813574D01*
X220973947Y-136834809D01*
X220975000Y-136856250D01*
X220975000Y-137293750D01*
X220973947Y-137315191D01*
X220970797Y-137336426D01*
X220965581Y-137357250D01*
X220958349Y-137377462D01*
X220949170Y-137396868D01*
X220938134Y-137415281D01*
X220925346Y-137432524D01*
X220910930Y-137448430D01*
X220895024Y-137462846D01*
X220877781Y-137475634D01*
X220859368Y-137486670D01*
X220839962Y-137495849D01*
X220819750Y-137503081D01*
X220798926Y-137508297D01*
X220777691Y-137511447D01*
X220756250Y-137512500D01*
X220243750Y-137512500D01*
X220222309Y-137511447D01*
X220201074Y-137508297D01*
X220180250Y-137503081D01*
X220160038Y-137495849D01*
X220140632Y-137486670D01*
X220122219Y-137475634D01*
X220104976Y-137462846D01*
X220089070Y-137448430D01*
X220074654Y-137432524D01*
X220061866Y-137415281D01*
X220050830Y-137396868D01*
X220041651Y-137377462D01*
X220034419Y-137357250D01*
X220029203Y-137336426D01*
X220026053Y-137315191D01*
X220025000Y-137293750D01*
X220025000Y-136856250D01*
X220026053Y-136834809D01*
X220029203Y-136813574D01*
X220034419Y-136792750D01*
X220041651Y-136772538D01*
X220050830Y-136753132D01*
X220061866Y-136734719D01*
X220074654Y-136717476D01*
X220089070Y-136701570D01*
X220104976Y-136687154D01*
X220122219Y-136674366D01*
X220140632Y-136663330D01*
X220160038Y-136654151D01*
X220180250Y-136646919D01*
X220201074Y-136641703D01*
X220222309Y-136638553D01*
X220243750Y-136637500D01*
X220756250Y-136637500D01*
X220777691Y-136638553D01*
X220777691Y-136638553D01*
G37*
D12*
X220500000Y-137075000D03*
D10*
G36*
X220777691Y-135063553D02*
G01*
X220798926Y-135066703D01*
X220819750Y-135071919D01*
X220839962Y-135079151D01*
X220859368Y-135088330D01*
X220877781Y-135099366D01*
X220895024Y-135112154D01*
X220910930Y-135126570D01*
X220925346Y-135142476D01*
X220938134Y-135159719D01*
X220949170Y-135178132D01*
X220958349Y-135197538D01*
X220965581Y-135217750D01*
X220970797Y-135238574D01*
X220973947Y-135259809D01*
X220975000Y-135281250D01*
X220975000Y-135718750D01*
X220973947Y-135740191D01*
X220970797Y-135761426D01*
X220965581Y-135782250D01*
X220958349Y-135802462D01*
X220949170Y-135821868D01*
X220938134Y-135840281D01*
X220925346Y-135857524D01*
X220910930Y-135873430D01*
X220895024Y-135887846D01*
X220877781Y-135900634D01*
X220859368Y-135911670D01*
X220839962Y-135920849D01*
X220819750Y-135928081D01*
X220798926Y-135933297D01*
X220777691Y-135936447D01*
X220756250Y-135937500D01*
X220243750Y-135937500D01*
X220222309Y-135936447D01*
X220201074Y-135933297D01*
X220180250Y-135928081D01*
X220160038Y-135920849D01*
X220140632Y-135911670D01*
X220122219Y-135900634D01*
X220104976Y-135887846D01*
X220089070Y-135873430D01*
X220074654Y-135857524D01*
X220061866Y-135840281D01*
X220050830Y-135821868D01*
X220041651Y-135802462D01*
X220034419Y-135782250D01*
X220029203Y-135761426D01*
X220026053Y-135740191D01*
X220025000Y-135718750D01*
X220025000Y-135281250D01*
X220026053Y-135259809D01*
X220029203Y-135238574D01*
X220034419Y-135217750D01*
X220041651Y-135197538D01*
X220050830Y-135178132D01*
X220061866Y-135159719D01*
X220074654Y-135142476D01*
X220089070Y-135126570D01*
X220104976Y-135112154D01*
X220122219Y-135099366D01*
X220140632Y-135088330D01*
X220160038Y-135079151D01*
X220180250Y-135071919D01*
X220201074Y-135066703D01*
X220222309Y-135063553D01*
X220243750Y-135062500D01*
X220756250Y-135062500D01*
X220777691Y-135063553D01*
X220777691Y-135063553D01*
G37*
D12*
X220500000Y-135500000D03*
D10*
G36*
X194475492Y-81324842D02*
G01*
X194496727Y-81327992D01*
X194517551Y-81333208D01*
X194537763Y-81340440D01*
X194557169Y-81349619D01*
X194575582Y-81360655D01*
X194592825Y-81373443D01*
X194608731Y-81387859D01*
X194623147Y-81403765D01*
X194635935Y-81421008D01*
X194646971Y-81439421D01*
X194656150Y-81458827D01*
X194663382Y-81479039D01*
X194668598Y-81499863D01*
X194671748Y-81521098D01*
X194672801Y-81542539D01*
X194672801Y-81980039D01*
X194671748Y-82001480D01*
X194668598Y-82022715D01*
X194663382Y-82043539D01*
X194656150Y-82063751D01*
X194646971Y-82083157D01*
X194635935Y-82101570D01*
X194623147Y-82118813D01*
X194608731Y-82134719D01*
X194592825Y-82149135D01*
X194575582Y-82161923D01*
X194557169Y-82172959D01*
X194537763Y-82182138D01*
X194517551Y-82189370D01*
X194496727Y-82194586D01*
X194475492Y-82197736D01*
X194454051Y-82198789D01*
X193941551Y-82198789D01*
X193920110Y-82197736D01*
X193898875Y-82194586D01*
X193878051Y-82189370D01*
X193857839Y-82182138D01*
X193838433Y-82172959D01*
X193820020Y-82161923D01*
X193802777Y-82149135D01*
X193786871Y-82134719D01*
X193772455Y-82118813D01*
X193759667Y-82101570D01*
X193748631Y-82083157D01*
X193739452Y-82063751D01*
X193732220Y-82043539D01*
X193727004Y-82022715D01*
X193723854Y-82001480D01*
X193722801Y-81980039D01*
X193722801Y-81542539D01*
X193723854Y-81521098D01*
X193727004Y-81499863D01*
X193732220Y-81479039D01*
X193739452Y-81458827D01*
X193748631Y-81439421D01*
X193759667Y-81421008D01*
X193772455Y-81403765D01*
X193786871Y-81387859D01*
X193802777Y-81373443D01*
X193820020Y-81360655D01*
X193838433Y-81349619D01*
X193857839Y-81340440D01*
X193878051Y-81333208D01*
X193898875Y-81327992D01*
X193920110Y-81324842D01*
X193941551Y-81323789D01*
X194454051Y-81323789D01*
X194475492Y-81324842D01*
X194475492Y-81324842D01*
G37*
D12*
X194197801Y-81761289D03*
D10*
G36*
X194475492Y-79749842D02*
G01*
X194496727Y-79752992D01*
X194517551Y-79758208D01*
X194537763Y-79765440D01*
X194557169Y-79774619D01*
X194575582Y-79785655D01*
X194592825Y-79798443D01*
X194608731Y-79812859D01*
X194623147Y-79828765D01*
X194635935Y-79846008D01*
X194646971Y-79864421D01*
X194656150Y-79883827D01*
X194663382Y-79904039D01*
X194668598Y-79924863D01*
X194671748Y-79946098D01*
X194672801Y-79967539D01*
X194672801Y-80405039D01*
X194671748Y-80426480D01*
X194668598Y-80447715D01*
X194663382Y-80468539D01*
X194656150Y-80488751D01*
X194646971Y-80508157D01*
X194635935Y-80526570D01*
X194623147Y-80543813D01*
X194608731Y-80559719D01*
X194592825Y-80574135D01*
X194575582Y-80586923D01*
X194557169Y-80597959D01*
X194537763Y-80607138D01*
X194517551Y-80614370D01*
X194496727Y-80619586D01*
X194475492Y-80622736D01*
X194454051Y-80623789D01*
X193941551Y-80623789D01*
X193920110Y-80622736D01*
X193898875Y-80619586D01*
X193878051Y-80614370D01*
X193857839Y-80607138D01*
X193838433Y-80597959D01*
X193820020Y-80586923D01*
X193802777Y-80574135D01*
X193786871Y-80559719D01*
X193772455Y-80543813D01*
X193759667Y-80526570D01*
X193748631Y-80508157D01*
X193739452Y-80488751D01*
X193732220Y-80468539D01*
X193727004Y-80447715D01*
X193723854Y-80426480D01*
X193722801Y-80405039D01*
X193722801Y-79967539D01*
X193723854Y-79946098D01*
X193727004Y-79924863D01*
X193732220Y-79904039D01*
X193739452Y-79883827D01*
X193748631Y-79864421D01*
X193759667Y-79846008D01*
X193772455Y-79828765D01*
X193786871Y-79812859D01*
X193802777Y-79798443D01*
X193820020Y-79785655D01*
X193838433Y-79774619D01*
X193857839Y-79765440D01*
X193878051Y-79758208D01*
X193898875Y-79752992D01*
X193920110Y-79749842D01*
X193941551Y-79748789D01*
X194454051Y-79748789D01*
X194475492Y-79749842D01*
X194475492Y-79749842D01*
G37*
D12*
X194197801Y-80186289D03*
M02*
