G04 #@! TF.GenerationSoftware,KiCad,Pcbnew,5.1.0-unknown-3692c51~82~ubuntu16.04.1*
G04 #@! TF.CreationDate,2019-03-31T09:50:07-04:00*
G04 #@! TF.ProjectId,BalancingBusinessCardLights,42616c61-6e63-4696-9e67-427573696e65,rev?*
G04 #@! TF.SameCoordinates,Original*
G04 #@! TF.FileFunction,Copper,L2,Bot*
G04 #@! TF.FilePolarity,Positive*
%FSLAX46Y46*%
G04 Gerber Fmt 4.6, Leading zero omitted, Abs format (unit mm)*
G04 Created by KiCad (PCBNEW 5.1.0-unknown-3692c51~82~ubuntu16.04.1) date 2019-03-31 09:50:07*
%MOMM*%
%LPD*%
G04 APERTURE LIST*
%ADD10R,7.000000X21.000000*%
%ADD11O,1.700000X1.700000*%
%ADD12R,1.700000X1.700000*%
%ADD13C,0.800000*%
%ADD14C,0.250000*%
%ADD15C,0.400000*%
%ADD16C,0.254000*%
G04 APERTURE END LIST*
D10*
X210197801Y-75473789D03*
D11*
X226657801Y-71393789D03*
X229197801Y-71393789D03*
X226657801Y-73933789D03*
X229197801Y-73933789D03*
X226657801Y-76473789D03*
D12*
X229197801Y-76473789D03*
X229197801Y-84073789D03*
D11*
X226657801Y-84073789D03*
D13*
X190197801Y-78473789D03*
X194197801Y-83473789D03*
X209197801Y-116473789D03*
X211197801Y-116473789D03*
X210197801Y-115473789D03*
X210197801Y-117473789D03*
X207540095Y-118552292D03*
X216697573Y-111973560D03*
X187999980Y-74000000D03*
X190000000Y-74000000D03*
X192000000Y-74000000D03*
X194000000Y-74000000D03*
X196000000Y-74000000D03*
X196000000Y-77000000D03*
X194000000Y-77000000D03*
X192000000Y-77000000D03*
X190000000Y-77000000D03*
X188000000Y-77000000D03*
X192000000Y-86000000D03*
X187000000Y-96000000D03*
X187000000Y-101000000D03*
X187000000Y-106000000D03*
X187000000Y-111000000D03*
X187000000Y-116000000D03*
X187000000Y-121000000D03*
X187000000Y-126000000D03*
X187000000Y-131000000D03*
X187000000Y-136000000D03*
X219000000Y-137000000D03*
X225750000Y-61000000D03*
X230000000Y-55750000D03*
X232750000Y-56750000D03*
X212400995Y-112285632D03*
X213381880Y-114157868D03*
X207197801Y-113223789D03*
X212234686Y-109816788D03*
X206697801Y-119473789D03*
X212947801Y-110723789D03*
X208250000Y-121750000D03*
X215000000Y-118473759D03*
X216737293Y-119774990D03*
X211697801Y-121973789D03*
X213685129Y-119461142D03*
D14*
X190197801Y-78473789D02*
X194197801Y-82473789D01*
X194197801Y-82473789D02*
X194197801Y-83473789D01*
D15*
X191250000Y-57000000D02*
X187999980Y-60250020D01*
X187999980Y-60250020D02*
X187999980Y-74000000D01*
X210250000Y-57000000D02*
X191250000Y-57000000D01*
X210250000Y-75421590D02*
X210250000Y-57000000D01*
X210197801Y-75473789D02*
X210250000Y-75421590D01*
X190000000Y-74000000D02*
X192000000Y-74000000D01*
X194000000Y-74000000D02*
X196000000Y-74000000D01*
X196000000Y-77000000D02*
X194000000Y-77000000D01*
X192000000Y-77000000D02*
X190000000Y-77000000D01*
X188000000Y-74000020D02*
X187999980Y-74000000D01*
X187999980Y-76999980D02*
X188000000Y-77000000D01*
X187999980Y-74000000D02*
X187999980Y-76999980D01*
X188000000Y-77000000D02*
X188000000Y-82000000D01*
X188000000Y-82000000D02*
X192000000Y-86000000D01*
X192000000Y-86000000D02*
X192000000Y-91000000D01*
X192000000Y-91000000D02*
X187000000Y-96000000D01*
X187000000Y-96000000D02*
X187000000Y-101000000D01*
X187000000Y-101000000D02*
X187000000Y-106000000D01*
X187000000Y-106000000D02*
X187000000Y-111000000D01*
X187000000Y-111000000D02*
X187000000Y-116000000D01*
X187000000Y-116000000D02*
X187000000Y-121000000D01*
X187000000Y-121000000D02*
X187000000Y-126000000D01*
X187000000Y-126000000D02*
X187000000Y-131000000D01*
X187000000Y-131000000D02*
X187000000Y-136000000D01*
X192000000Y-87275987D02*
X216697573Y-111973560D01*
X192000000Y-86000000D02*
X192000000Y-87275987D01*
X216697573Y-111973560D02*
X210118841Y-118552292D01*
X210118841Y-118552292D02*
X207540095Y-118552292D01*
X218297584Y-136297584D02*
X219000000Y-137000000D01*
X216697573Y-111973560D02*
X218297584Y-113573571D01*
X218297584Y-113573571D02*
X218297584Y-136297584D01*
X216779047Y-57000000D02*
X217029047Y-56750000D01*
X210250000Y-57000000D02*
X216779047Y-57000000D01*
X217029047Y-56750000D02*
X224500000Y-56750000D01*
X224500000Y-56750000D02*
X226657801Y-58907801D01*
X229197801Y-82823789D02*
X229197801Y-84073789D01*
X227947800Y-81573788D02*
X229197801Y-82823789D01*
X227947800Y-72683788D02*
X227947800Y-81573788D01*
X226657801Y-71393789D02*
X227947800Y-72683788D01*
X226500000Y-60250000D02*
X226657801Y-60250000D01*
X225750000Y-61000000D02*
X226500000Y-60250000D01*
X226657801Y-58907801D02*
X226657801Y-60250000D01*
X226657801Y-60250000D02*
X226657801Y-71393789D01*
D14*
X229000000Y-56750000D02*
X224500000Y-56750000D01*
X230000000Y-55750000D02*
X229000000Y-56750000D01*
X231750000Y-55750000D02*
X230000000Y-55750000D01*
X232750000Y-56750000D02*
X231750000Y-55750000D01*
X212400995Y-112285632D02*
X212400995Y-113176983D01*
X212400995Y-113176983D02*
X212981881Y-113757869D01*
X212981881Y-113757869D02*
X213381880Y-114157868D01*
X211834687Y-110216787D02*
X212234686Y-109816788D01*
X208827685Y-113223789D02*
X211834687Y-110216787D01*
X207197801Y-113223789D02*
X208827685Y-113223789D01*
D15*
X212297802Y-111123788D02*
X206697801Y-116723789D01*
X206697801Y-116723789D02*
X206697801Y-119473789D01*
X212947801Y-110723789D02*
X212547802Y-111123788D01*
X212547802Y-111123788D02*
X212297802Y-111123788D01*
X206697801Y-119473789D02*
X206697801Y-120197801D01*
X206697801Y-120197801D02*
X208250000Y-121750000D01*
X226657801Y-82871708D02*
X226657801Y-76473789D01*
X226657801Y-84073789D02*
X226657801Y-82871708D01*
D14*
X216301231Y-119774990D02*
X216737293Y-119774990D01*
X215000000Y-118473759D02*
X216301231Y-119774990D01*
X213685129Y-119986461D02*
X213685129Y-119461142D01*
X211697801Y-121973789D02*
X213685129Y-119986461D01*
D16*
G36*
X233141935Y-53230742D02*
G01*
X233569156Y-53359727D01*
X233963185Y-53569235D01*
X234309015Y-53851288D01*
X234593474Y-54195140D01*
X234805730Y-54587699D01*
X234937693Y-55014002D01*
X234987802Y-55490763D01*
X234987801Y-138439068D01*
X234940849Y-138917922D01*
X234811864Y-139345142D01*
X234602355Y-139739173D01*
X234320302Y-140085003D01*
X233976452Y-140369461D01*
X233583894Y-140581716D01*
X233157589Y-140713680D01*
X232680837Y-140763789D01*
X187732522Y-140763789D01*
X187253668Y-140716837D01*
X186826448Y-140587852D01*
X186432417Y-140378343D01*
X186086587Y-140096290D01*
X185802129Y-139752440D01*
X185589874Y-139359882D01*
X185457910Y-138933577D01*
X185407801Y-138456825D01*
X185407801Y-119371850D01*
X205662801Y-119371850D01*
X205662801Y-119575728D01*
X205702575Y-119775687D01*
X205780596Y-119964045D01*
X205862801Y-120087074D01*
X205862801Y-120156783D01*
X205858761Y-120197801D01*
X205874883Y-120361489D01*
X205922629Y-120518887D01*
X206000165Y-120663946D01*
X206000166Y-120663947D01*
X206104511Y-120791092D01*
X206136375Y-120817242D01*
X207225908Y-121906776D01*
X207254774Y-122051898D01*
X207332795Y-122240256D01*
X207446063Y-122409774D01*
X207590226Y-122553937D01*
X207759744Y-122667205D01*
X207948102Y-122745226D01*
X208148061Y-122785000D01*
X208351939Y-122785000D01*
X208551898Y-122745226D01*
X208740256Y-122667205D01*
X208909774Y-122553937D01*
X209053937Y-122409774D01*
X209167205Y-122240256D01*
X209245226Y-122051898D01*
X209281039Y-121871850D01*
X210662801Y-121871850D01*
X210662801Y-122075728D01*
X210702575Y-122275687D01*
X210780596Y-122464045D01*
X210893864Y-122633563D01*
X211038027Y-122777726D01*
X211207545Y-122890994D01*
X211395903Y-122969015D01*
X211595862Y-123008789D01*
X211799740Y-123008789D01*
X211999699Y-122969015D01*
X212188057Y-122890994D01*
X212357575Y-122777726D01*
X212501738Y-122633563D01*
X212615006Y-122464045D01*
X212693027Y-122275687D01*
X212732801Y-122075728D01*
X212732801Y-122013590D01*
X214196133Y-120550259D01*
X214225130Y-120526462D01*
X214320103Y-120410737D01*
X214390675Y-120278708D01*
X214416540Y-120193442D01*
X214489066Y-120120916D01*
X214602334Y-119951398D01*
X214680355Y-119763040D01*
X214720129Y-119563081D01*
X214720129Y-119473366D01*
X214898061Y-119508759D01*
X214960199Y-119508759D01*
X215737432Y-120285993D01*
X215761230Y-120314991D01*
X215790228Y-120338789D01*
X215876955Y-120409964D01*
X215944844Y-120446252D01*
X216077519Y-120578927D01*
X216247037Y-120692195D01*
X216435395Y-120770216D01*
X216635354Y-120809990D01*
X216839232Y-120809990D01*
X217039191Y-120770216D01*
X217227549Y-120692195D01*
X217397067Y-120578927D01*
X217541230Y-120434764D01*
X217654498Y-120265246D01*
X217732519Y-120076888D01*
X217772293Y-119876929D01*
X217772293Y-119673051D01*
X217732519Y-119473092D01*
X217654498Y-119284734D01*
X217541230Y-119115216D01*
X217397067Y-118971053D01*
X217227549Y-118857785D01*
X217039191Y-118779764D01*
X216839232Y-118739990D01*
X216635354Y-118739990D01*
X216435395Y-118779764D01*
X216396795Y-118795753D01*
X216035000Y-118433958D01*
X216035000Y-118371820D01*
X215995226Y-118171861D01*
X215917205Y-117983503D01*
X215803937Y-117813985D01*
X215659774Y-117669822D01*
X215490256Y-117556554D01*
X215301898Y-117478533D01*
X215101939Y-117438759D01*
X214898061Y-117438759D01*
X214698102Y-117478533D01*
X214509744Y-117556554D01*
X214340226Y-117669822D01*
X214196063Y-117813985D01*
X214082795Y-117983503D01*
X214004774Y-118171861D01*
X213965000Y-118371820D01*
X213965000Y-118461535D01*
X213787068Y-118426142D01*
X213583190Y-118426142D01*
X213383231Y-118465916D01*
X213194873Y-118543937D01*
X213025355Y-118657205D01*
X212881192Y-118801368D01*
X212767924Y-118970886D01*
X212689903Y-119159244D01*
X212650129Y-119359203D01*
X212650129Y-119563081D01*
X212689903Y-119763040D01*
X212732035Y-119864754D01*
X211658000Y-120938789D01*
X211595862Y-120938789D01*
X211395903Y-120978563D01*
X211207545Y-121056584D01*
X211038027Y-121169852D01*
X210893864Y-121314015D01*
X210780596Y-121483533D01*
X210702575Y-121671891D01*
X210662801Y-121871850D01*
X209281039Y-121871850D01*
X209285000Y-121851939D01*
X209285000Y-121648061D01*
X209245226Y-121448102D01*
X209167205Y-121259744D01*
X209053937Y-121090226D01*
X208909774Y-120946063D01*
X208740256Y-120832795D01*
X208551898Y-120754774D01*
X208406776Y-120725908D01*
X207623765Y-119942898D01*
X207693027Y-119775687D01*
X207732801Y-119575728D01*
X207732801Y-119371850D01*
X207693027Y-119171891D01*
X207615006Y-118983533D01*
X207532801Y-118860504D01*
X207532801Y-117069656D01*
X211627055Y-112975403D01*
X211640995Y-112989343D01*
X211640995Y-113139661D01*
X211637319Y-113176983D01*
X211640995Y-113214305D01*
X211640995Y-113214316D01*
X211651467Y-113320632D01*
X211651993Y-113325968D01*
X211695449Y-113469229D01*
X211766021Y-113601259D01*
X211820476Y-113667612D01*
X211860995Y-113716984D01*
X211889993Y-113740782D01*
X212346880Y-114197670D01*
X212346880Y-114259807D01*
X212386654Y-114459766D01*
X212464675Y-114648124D01*
X212577943Y-114817642D01*
X212722106Y-114961805D01*
X212891624Y-115075073D01*
X213079982Y-115153094D01*
X213279941Y-115192868D01*
X213483819Y-115192868D01*
X213683778Y-115153094D01*
X213872136Y-115075073D01*
X214041654Y-114961805D01*
X214185817Y-114817642D01*
X214299085Y-114648124D01*
X214377106Y-114459766D01*
X214416880Y-114259807D01*
X214416880Y-114055929D01*
X214377106Y-113855970D01*
X214299085Y-113667612D01*
X214185817Y-113498094D01*
X214041654Y-113353931D01*
X213872136Y-113240663D01*
X213683778Y-113162642D01*
X213483819Y-113122868D01*
X213421682Y-113122868D01*
X213220668Y-112921855D01*
X213318200Y-112775888D01*
X213396221Y-112587530D01*
X213435995Y-112387571D01*
X213435995Y-112183693D01*
X213396221Y-111983734D01*
X213318200Y-111795376D01*
X213263389Y-111713345D01*
X213438057Y-111640994D01*
X213607575Y-111527726D01*
X213751738Y-111383563D01*
X213865006Y-111214045D01*
X213943027Y-111025687D01*
X213982801Y-110825728D01*
X213982801Y-110621850D01*
X213943027Y-110421891D01*
X213865006Y-110233533D01*
X213751738Y-110064015D01*
X213607575Y-109919852D01*
X213438057Y-109806584D01*
X213269686Y-109736842D01*
X213269686Y-109714849D01*
X213229912Y-109514890D01*
X213151891Y-109326532D01*
X213038623Y-109157014D01*
X212894460Y-109012851D01*
X212724942Y-108899583D01*
X212536584Y-108821562D01*
X212336625Y-108781788D01*
X212132747Y-108781788D01*
X211932788Y-108821562D01*
X211744430Y-108899583D01*
X211574912Y-109012851D01*
X211430749Y-109157014D01*
X211317481Y-109326532D01*
X211239460Y-109514890D01*
X211199686Y-109714849D01*
X211199686Y-109776986D01*
X208512884Y-112463789D01*
X207901512Y-112463789D01*
X207857575Y-112419852D01*
X207688057Y-112306584D01*
X207499699Y-112228563D01*
X207299740Y-112188789D01*
X207095862Y-112188789D01*
X206895903Y-112228563D01*
X206707545Y-112306584D01*
X206538027Y-112419852D01*
X206393864Y-112564015D01*
X206280596Y-112733533D01*
X206202575Y-112921891D01*
X206162801Y-113121850D01*
X206162801Y-113325728D01*
X206202575Y-113525687D01*
X206280596Y-113714045D01*
X206393864Y-113883563D01*
X206538027Y-114027726D01*
X206707545Y-114140994D01*
X206895903Y-114219015D01*
X207095862Y-114258789D01*
X207299740Y-114258789D01*
X207499699Y-114219015D01*
X207688057Y-114140994D01*
X207857575Y-114027726D01*
X207901512Y-113983789D01*
X208256934Y-113983789D01*
X206136380Y-116104343D01*
X206104510Y-116130498D01*
X206000166Y-116257643D01*
X206000165Y-116257644D01*
X205922629Y-116402703D01*
X205874883Y-116560101D01*
X205858761Y-116723789D01*
X205862801Y-116764808D01*
X205862802Y-118860503D01*
X205780596Y-118983533D01*
X205702575Y-119171891D01*
X205662801Y-119371850D01*
X185407801Y-119371850D01*
X185407801Y-91473789D01*
X199009487Y-91473789D01*
X199022713Y-91608072D01*
X199061882Y-91737195D01*
X199125489Y-91856196D01*
X199211090Y-91960500D01*
X199315394Y-92046101D01*
X199434395Y-92109708D01*
X199563518Y-92148877D01*
X199632721Y-92155693D01*
X199697801Y-92162103D01*
X199731448Y-92158789D01*
X200664154Y-92158789D01*
X200697801Y-92162103D01*
X200762882Y-92155693D01*
X200832084Y-92148877D01*
X200961207Y-92109708D01*
X201080208Y-92046101D01*
X201184512Y-91960500D01*
X201270113Y-91856196D01*
X201333720Y-91737195D01*
X201372889Y-91608072D01*
X201386115Y-91473789D01*
X201382801Y-91440142D01*
X201382801Y-65007293D01*
X201420590Y-64621892D01*
X201522788Y-64283396D01*
X201688785Y-63971201D01*
X201912261Y-63697192D01*
X202184703Y-63471809D01*
X202495732Y-63303636D01*
X202833509Y-63199077D01*
X203185150Y-63162118D01*
X203537285Y-63194165D01*
X203876482Y-63293996D01*
X204189832Y-63457812D01*
X204465391Y-63679367D01*
X204692671Y-63950228D01*
X204863011Y-64260076D01*
X204969926Y-64597116D01*
X205012802Y-64979365D01*
X205012801Y-87007435D01*
X205013622Y-87015770D01*
X205018377Y-87210348D01*
X205019271Y-87217793D01*
X205018905Y-87225284D01*
X205025262Y-87291906D01*
X205147919Y-88137854D01*
X205155427Y-88168654D01*
X205159896Y-88200053D01*
X205178736Y-88264270D01*
X205459145Y-89071762D01*
X205472344Y-89100591D01*
X205482668Y-89130574D01*
X205513307Y-89190062D01*
X205513311Y-89190071D01*
X205513314Y-89190075D01*
X205941353Y-89929970D01*
X205959761Y-89955778D01*
X205975572Y-89983273D01*
X206016913Y-90035901D01*
X206577145Y-90681511D01*
X206600106Y-90703377D01*
X206620826Y-90727381D01*
X206671361Y-90771233D01*
X206671373Y-90771244D01*
X206671380Y-90771248D01*
X207343580Y-91299270D01*
X207370263Y-91316400D01*
X207395148Y-91336053D01*
X207453067Y-91369559D01*
X207453076Y-91369565D01*
X207453080Y-91369567D01*
X208213003Y-91760952D01*
X208242443Y-91772727D01*
X208270595Y-91787320D01*
X208333808Y-91809271D01*
X208333815Y-91809274D01*
X208333818Y-91809275D01*
X209154042Y-92049902D01*
X209185176Y-92055897D01*
X209215581Y-92064904D01*
X209281788Y-92074502D01*
X209281812Y-92074507D01*
X209281823Y-92074507D01*
X210132741Y-92155692D01*
X210140234Y-92155692D01*
X210147632Y-92156950D01*
X210214536Y-92158585D01*
X210434360Y-92153213D01*
X210441805Y-92152319D01*
X210449296Y-92152685D01*
X210515918Y-92146328D01*
X211361866Y-92023671D01*
X211392666Y-92016163D01*
X211424065Y-92011694D01*
X211488282Y-91992854D01*
X212295774Y-91712445D01*
X212324603Y-91699246D01*
X212354586Y-91688922D01*
X212414074Y-91658283D01*
X212414083Y-91658279D01*
X212414087Y-91658276D01*
X213153982Y-91230237D01*
X213179790Y-91211829D01*
X213207285Y-91196018D01*
X213259913Y-91154677D01*
X213905523Y-90594445D01*
X213927389Y-90571484D01*
X213951393Y-90550764D01*
X213995245Y-90500229D01*
X213995256Y-90500217D01*
X213995260Y-90500210D01*
X214523282Y-89828010D01*
X214540412Y-89801327D01*
X214560065Y-89776442D01*
X214593571Y-89718523D01*
X214593577Y-89718514D01*
X214593579Y-89718510D01*
X214984964Y-88958587D01*
X214996739Y-88929147D01*
X215011332Y-88900995D01*
X215033286Y-88837774D01*
X215273914Y-88017548D01*
X215279909Y-87986414D01*
X215288916Y-87956009D01*
X215298514Y-87889802D01*
X215298519Y-87889778D01*
X215298519Y-87889767D01*
X215379611Y-87039828D01*
X215382801Y-87007436D01*
X215382801Y-65007293D01*
X215420590Y-64621892D01*
X215522788Y-64283396D01*
X215688785Y-63971201D01*
X215912261Y-63697192D01*
X216184703Y-63471809D01*
X216495732Y-63303636D01*
X216833509Y-63199077D01*
X217185150Y-63162118D01*
X217537285Y-63194165D01*
X217876482Y-63293996D01*
X218189832Y-63457812D01*
X218465391Y-63679367D01*
X218692671Y-63950228D01*
X218863011Y-64260076D01*
X218969926Y-64597116D01*
X219012801Y-64979356D01*
X219012802Y-91440132D01*
X219009487Y-91473789D01*
X219022713Y-91608072D01*
X219061882Y-91737195D01*
X219125489Y-91856196D01*
X219211090Y-91960500D01*
X219315394Y-92046101D01*
X219434395Y-92109708D01*
X219563518Y-92148877D01*
X219664154Y-92158789D01*
X219697801Y-92162103D01*
X219731448Y-92158789D01*
X220664154Y-92158789D01*
X220697801Y-92162103D01*
X220731448Y-92158789D01*
X220832084Y-92148877D01*
X220961207Y-92109708D01*
X221080208Y-92046101D01*
X221184512Y-91960500D01*
X221270113Y-91856196D01*
X221333720Y-91737195D01*
X221372889Y-91608072D01*
X221386115Y-91473789D01*
X221382801Y-91440142D01*
X221382801Y-73933789D01*
X225165616Y-73933789D01*
X225194288Y-74224900D01*
X225279202Y-74504823D01*
X225417095Y-74762803D01*
X225602667Y-74988923D01*
X225828787Y-75174495D01*
X225883592Y-75203789D01*
X225828787Y-75233083D01*
X225602667Y-75418655D01*
X225417095Y-75644775D01*
X225279202Y-75902755D01*
X225194288Y-76182678D01*
X225165616Y-76473789D01*
X225194288Y-76764900D01*
X225279202Y-77044823D01*
X225417095Y-77302803D01*
X225602667Y-77528923D01*
X225822802Y-77709583D01*
X225822801Y-82837996D01*
X225602667Y-83018655D01*
X225417095Y-83244775D01*
X225279202Y-83502755D01*
X225194288Y-83782678D01*
X225165616Y-84073789D01*
X225194288Y-84364900D01*
X225279202Y-84644823D01*
X225417095Y-84902803D01*
X225602667Y-85128923D01*
X225828787Y-85314495D01*
X226086767Y-85452388D01*
X226366690Y-85537302D01*
X226584851Y-85558789D01*
X226730751Y-85558789D01*
X226948912Y-85537302D01*
X227228835Y-85452388D01*
X227486815Y-85314495D01*
X227712935Y-85128923D01*
X227737408Y-85099102D01*
X227758299Y-85167969D01*
X227817264Y-85278283D01*
X227896616Y-85374974D01*
X227993307Y-85454326D01*
X228103621Y-85513291D01*
X228223319Y-85549601D01*
X228347801Y-85561861D01*
X228912051Y-85558789D01*
X229070801Y-85400039D01*
X229070801Y-84200789D01*
X229324801Y-84200789D01*
X229324801Y-85400039D01*
X229483551Y-85558789D01*
X230047801Y-85561861D01*
X230172283Y-85549601D01*
X230291981Y-85513291D01*
X230402295Y-85454326D01*
X230498986Y-85374974D01*
X230578338Y-85278283D01*
X230637303Y-85167969D01*
X230673613Y-85048271D01*
X230685873Y-84923789D01*
X230682801Y-84359539D01*
X230524051Y-84200789D01*
X229324801Y-84200789D01*
X229070801Y-84200789D01*
X229050801Y-84200789D01*
X229050801Y-83946789D01*
X229070801Y-83946789D01*
X229070801Y-82747539D01*
X229324801Y-82747539D01*
X229324801Y-83946789D01*
X230524051Y-83946789D01*
X230682801Y-83788039D01*
X230685873Y-83223789D01*
X230673613Y-83099307D01*
X230637303Y-82979609D01*
X230578338Y-82869295D01*
X230498986Y-82772604D01*
X230402295Y-82693252D01*
X230291981Y-82634287D01*
X230172283Y-82597977D01*
X230047801Y-82585717D01*
X229483551Y-82588789D01*
X229324801Y-82747539D01*
X229070801Y-82747539D01*
X228912051Y-82588789D01*
X228347801Y-82585717D01*
X228223319Y-82597977D01*
X228103621Y-82634287D01*
X227993307Y-82693252D01*
X227896616Y-82772604D01*
X227817264Y-82869295D01*
X227758299Y-82979609D01*
X227737408Y-83048476D01*
X227712935Y-83018655D01*
X227492801Y-82837996D01*
X227492801Y-77709582D01*
X227712935Y-77528923D01*
X227737408Y-77499102D01*
X227758299Y-77567969D01*
X227817264Y-77678283D01*
X227896616Y-77774974D01*
X227993307Y-77854326D01*
X228103621Y-77913291D01*
X228223319Y-77949601D01*
X228347801Y-77961861D01*
X230047801Y-77961861D01*
X230172283Y-77949601D01*
X230291981Y-77913291D01*
X230402295Y-77854326D01*
X230498986Y-77774974D01*
X230578338Y-77678283D01*
X230637303Y-77567969D01*
X230673613Y-77448271D01*
X230685873Y-77323789D01*
X230685873Y-75623789D01*
X230673613Y-75499307D01*
X230637303Y-75379609D01*
X230578338Y-75269295D01*
X230498986Y-75172604D01*
X230402295Y-75093252D01*
X230291981Y-75034287D01*
X230223114Y-75013396D01*
X230252935Y-74988923D01*
X230438507Y-74762803D01*
X230576400Y-74504823D01*
X230661314Y-74224900D01*
X230689986Y-73933789D01*
X230661314Y-73642678D01*
X230576400Y-73362755D01*
X230438507Y-73104775D01*
X230252935Y-72878655D01*
X230026815Y-72693083D01*
X229972010Y-72663789D01*
X230026815Y-72634495D01*
X230252935Y-72448923D01*
X230438507Y-72222803D01*
X230576400Y-71964823D01*
X230661314Y-71684900D01*
X230689986Y-71393789D01*
X230661314Y-71102678D01*
X230576400Y-70822755D01*
X230438507Y-70564775D01*
X230252935Y-70338655D01*
X230026815Y-70153083D01*
X229768835Y-70015190D01*
X229488912Y-69930276D01*
X229270751Y-69908789D01*
X229124851Y-69908789D01*
X228906690Y-69930276D01*
X228626767Y-70015190D01*
X228368787Y-70153083D01*
X228142667Y-70338655D01*
X227957095Y-70564775D01*
X227926217Y-70622545D01*
X227755389Y-70393520D01*
X227539156Y-70198611D01*
X227289053Y-70049632D01*
X227014692Y-69952308D01*
X226784801Y-70072975D01*
X226784801Y-71266789D01*
X226804801Y-71266789D01*
X226804801Y-71520789D01*
X226784801Y-71520789D01*
X226784801Y-71540789D01*
X226530801Y-71540789D01*
X226530801Y-71520789D01*
X225337646Y-71520789D01*
X225216325Y-71750679D01*
X225260976Y-71897888D01*
X225386160Y-72160709D01*
X225560213Y-72394058D01*
X225776446Y-72588967D01*
X225893324Y-72658588D01*
X225828787Y-72693083D01*
X225602667Y-72878655D01*
X225417095Y-73104775D01*
X225279202Y-73362755D01*
X225194288Y-73642678D01*
X225165616Y-73933789D01*
X221382801Y-73933789D01*
X221382801Y-71036899D01*
X225216325Y-71036899D01*
X225337646Y-71266789D01*
X226530801Y-71266789D01*
X226530801Y-70072975D01*
X226300910Y-69952308D01*
X226026549Y-70049632D01*
X225776446Y-70198611D01*
X225560213Y-70393520D01*
X225386160Y-70626869D01*
X225260976Y-70889690D01*
X225216325Y-71036899D01*
X221382801Y-71036899D01*
X221382801Y-62940142D01*
X221379745Y-62909110D01*
X221379897Y-62887271D01*
X221378963Y-62877752D01*
X221307561Y-62198413D01*
X221295083Y-62137625D01*
X221283444Y-62076612D01*
X221280680Y-62067456D01*
X221078688Y-61414924D01*
X221054624Y-61357678D01*
X221031372Y-61300127D01*
X221026882Y-61291682D01*
X220701992Y-60690812D01*
X220667274Y-60639340D01*
X220633279Y-60587391D01*
X220627235Y-60579979D01*
X220191823Y-60053656D01*
X220147749Y-60009889D01*
X220104329Y-59965550D01*
X220096960Y-59959453D01*
X219567610Y-59527727D01*
X219515877Y-59493356D01*
X219464672Y-59458295D01*
X219456262Y-59453747D01*
X219456254Y-59453743D01*
X218853135Y-59133059D01*
X218795725Y-59109396D01*
X218738670Y-59084943D01*
X218729534Y-59082114D01*
X218075608Y-58884682D01*
X218014675Y-58872617D01*
X217953977Y-58859715D01*
X217944465Y-58858715D01*
X217264645Y-58792058D01*
X217234720Y-58792058D01*
X217204982Y-58788827D01*
X217195418Y-58788793D01*
X217170984Y-58788878D01*
X217141212Y-58791902D01*
X217111283Y-58791693D01*
X217101764Y-58792627D01*
X216422425Y-58864029D01*
X216361637Y-58876507D01*
X216300624Y-58888146D01*
X216291468Y-58890910D01*
X215638936Y-59092902D01*
X215581690Y-59116966D01*
X215524139Y-59140218D01*
X215515694Y-59144708D01*
X214914824Y-59469598D01*
X214863352Y-59504316D01*
X214811403Y-59538311D01*
X214803991Y-59544355D01*
X214277668Y-59979767D01*
X214233901Y-60023841D01*
X214189562Y-60067261D01*
X214183465Y-60074630D01*
X213751739Y-60603980D01*
X213717368Y-60655713D01*
X213682307Y-60706918D01*
X213677758Y-60715331D01*
X213357071Y-61318455D01*
X213333408Y-61375865D01*
X213308955Y-61432920D01*
X213306126Y-61442056D01*
X213108694Y-62095982D01*
X213096629Y-62156915D01*
X213083727Y-62217613D01*
X213082727Y-62227125D01*
X213016070Y-62906945D01*
X213016070Y-62906953D01*
X213012801Y-62940143D01*
X213012802Y-86940275D01*
X212955967Y-87519920D01*
X212797360Y-88045251D01*
X212539738Y-88529767D01*
X212192912Y-88955020D01*
X211770093Y-89304806D01*
X211287389Y-89565804D01*
X210763172Y-89728076D01*
X210217433Y-89785436D01*
X209670937Y-89735700D01*
X209144517Y-89580766D01*
X208658210Y-89326531D01*
X208230546Y-88982682D01*
X207877817Y-88562315D01*
X207613454Y-88081442D01*
X207447528Y-87558376D01*
X207382874Y-86981975D01*
X207382801Y-86971428D01*
X207382801Y-62940142D01*
X207379745Y-62909110D01*
X207379897Y-62887271D01*
X207378963Y-62877752D01*
X207307561Y-62198413D01*
X207295083Y-62137625D01*
X207283444Y-62076612D01*
X207280680Y-62067456D01*
X207078688Y-61414924D01*
X207054624Y-61357678D01*
X207031372Y-61300127D01*
X207026882Y-61291682D01*
X206701992Y-60690812D01*
X206667274Y-60639340D01*
X206633279Y-60587391D01*
X206627235Y-60579979D01*
X206191823Y-60053656D01*
X206147749Y-60009889D01*
X206104329Y-59965550D01*
X206096960Y-59959453D01*
X205567610Y-59527727D01*
X205515877Y-59493356D01*
X205464672Y-59458295D01*
X205456262Y-59453747D01*
X205456254Y-59453743D01*
X204853135Y-59133059D01*
X204795725Y-59109396D01*
X204738670Y-59084943D01*
X204729534Y-59082114D01*
X204075608Y-58884682D01*
X204014675Y-58872617D01*
X203953977Y-58859715D01*
X203944465Y-58858715D01*
X203264645Y-58792058D01*
X203234720Y-58792058D01*
X203204982Y-58788827D01*
X203195418Y-58788793D01*
X203170984Y-58788878D01*
X203141212Y-58791902D01*
X203111283Y-58791693D01*
X203101764Y-58792627D01*
X202422425Y-58864029D01*
X202361637Y-58876507D01*
X202300624Y-58888146D01*
X202291468Y-58890910D01*
X201638936Y-59092902D01*
X201581690Y-59116966D01*
X201524139Y-59140218D01*
X201515694Y-59144708D01*
X200914824Y-59469598D01*
X200863352Y-59504316D01*
X200811403Y-59538311D01*
X200803991Y-59544355D01*
X200277668Y-59979767D01*
X200233901Y-60023841D01*
X200189562Y-60067261D01*
X200183465Y-60074630D01*
X199751739Y-60603980D01*
X199717368Y-60655713D01*
X199682307Y-60706918D01*
X199677758Y-60715331D01*
X199357071Y-61318455D01*
X199333408Y-61375865D01*
X199308955Y-61432920D01*
X199306126Y-61442056D01*
X199108694Y-62095982D01*
X199096629Y-62156915D01*
X199083727Y-62217613D01*
X199082727Y-62227125D01*
X199016070Y-62906945D01*
X199016070Y-62906962D01*
X199012802Y-62940142D01*
X199012801Y-91440142D01*
X199009487Y-91473789D01*
X185407801Y-91473789D01*
X185407801Y-78371850D01*
X189162801Y-78371850D01*
X189162801Y-78575728D01*
X189202575Y-78775687D01*
X189280596Y-78964045D01*
X189393864Y-79133563D01*
X189538027Y-79277726D01*
X189707545Y-79390994D01*
X189895903Y-79469015D01*
X190095862Y-79508789D01*
X190158000Y-79508789D01*
X193428545Y-82779334D01*
X193393864Y-82814015D01*
X193280596Y-82983533D01*
X193202575Y-83171891D01*
X193162801Y-83371850D01*
X193162801Y-83575728D01*
X193202575Y-83775687D01*
X193280596Y-83964045D01*
X193393864Y-84133563D01*
X193538027Y-84277726D01*
X193707545Y-84390994D01*
X193895903Y-84469015D01*
X194095862Y-84508789D01*
X194299740Y-84508789D01*
X194499699Y-84469015D01*
X194688057Y-84390994D01*
X194857575Y-84277726D01*
X195001738Y-84133563D01*
X195115006Y-83964045D01*
X195193027Y-83775687D01*
X195232801Y-83575728D01*
X195232801Y-83371850D01*
X195193027Y-83171891D01*
X195115006Y-82983533D01*
X195001738Y-82814015D01*
X194957801Y-82770078D01*
X194957801Y-82511111D01*
X194961477Y-82473788D01*
X194957801Y-82436465D01*
X194957801Y-82436456D01*
X194946804Y-82324803D01*
X194903347Y-82181542D01*
X194832775Y-82049513D01*
X194737802Y-81933788D01*
X194708805Y-81909991D01*
X191232801Y-78433988D01*
X191232801Y-78371850D01*
X191193027Y-78171891D01*
X191115006Y-77983533D01*
X191001738Y-77814015D01*
X190857575Y-77669852D01*
X190688057Y-77556584D01*
X190499699Y-77478563D01*
X190299740Y-77438789D01*
X190095862Y-77438789D01*
X189895903Y-77478563D01*
X189707545Y-77556584D01*
X189538027Y-77669852D01*
X189393864Y-77814015D01*
X189280596Y-77983533D01*
X189202575Y-78171891D01*
X189162801Y-78371850D01*
X185407801Y-78371850D01*
X185407801Y-55508510D01*
X185454754Y-55029655D01*
X185583739Y-54602434D01*
X185793247Y-54208405D01*
X186075300Y-53862575D01*
X186419152Y-53578116D01*
X186811711Y-53365860D01*
X187238014Y-53233897D01*
X187714765Y-53183789D01*
X232663080Y-53183789D01*
X233141935Y-53230742D01*
X233141935Y-53230742D01*
G37*
X233141935Y-53230742D02*
X233569156Y-53359727D01*
X233963185Y-53569235D01*
X234309015Y-53851288D01*
X234593474Y-54195140D01*
X234805730Y-54587699D01*
X234937693Y-55014002D01*
X234987802Y-55490763D01*
X234987801Y-138439068D01*
X234940849Y-138917922D01*
X234811864Y-139345142D01*
X234602355Y-139739173D01*
X234320302Y-140085003D01*
X233976452Y-140369461D01*
X233583894Y-140581716D01*
X233157589Y-140713680D01*
X232680837Y-140763789D01*
X187732522Y-140763789D01*
X187253668Y-140716837D01*
X186826448Y-140587852D01*
X186432417Y-140378343D01*
X186086587Y-140096290D01*
X185802129Y-139752440D01*
X185589874Y-139359882D01*
X185457910Y-138933577D01*
X185407801Y-138456825D01*
X185407801Y-119371850D01*
X205662801Y-119371850D01*
X205662801Y-119575728D01*
X205702575Y-119775687D01*
X205780596Y-119964045D01*
X205862801Y-120087074D01*
X205862801Y-120156783D01*
X205858761Y-120197801D01*
X205874883Y-120361489D01*
X205922629Y-120518887D01*
X206000165Y-120663946D01*
X206000166Y-120663947D01*
X206104511Y-120791092D01*
X206136375Y-120817242D01*
X207225908Y-121906776D01*
X207254774Y-122051898D01*
X207332795Y-122240256D01*
X207446063Y-122409774D01*
X207590226Y-122553937D01*
X207759744Y-122667205D01*
X207948102Y-122745226D01*
X208148061Y-122785000D01*
X208351939Y-122785000D01*
X208551898Y-122745226D01*
X208740256Y-122667205D01*
X208909774Y-122553937D01*
X209053937Y-122409774D01*
X209167205Y-122240256D01*
X209245226Y-122051898D01*
X209281039Y-121871850D01*
X210662801Y-121871850D01*
X210662801Y-122075728D01*
X210702575Y-122275687D01*
X210780596Y-122464045D01*
X210893864Y-122633563D01*
X211038027Y-122777726D01*
X211207545Y-122890994D01*
X211395903Y-122969015D01*
X211595862Y-123008789D01*
X211799740Y-123008789D01*
X211999699Y-122969015D01*
X212188057Y-122890994D01*
X212357575Y-122777726D01*
X212501738Y-122633563D01*
X212615006Y-122464045D01*
X212693027Y-122275687D01*
X212732801Y-122075728D01*
X212732801Y-122013590D01*
X214196133Y-120550259D01*
X214225130Y-120526462D01*
X214320103Y-120410737D01*
X214390675Y-120278708D01*
X214416540Y-120193442D01*
X214489066Y-120120916D01*
X214602334Y-119951398D01*
X214680355Y-119763040D01*
X214720129Y-119563081D01*
X214720129Y-119473366D01*
X214898061Y-119508759D01*
X214960199Y-119508759D01*
X215737432Y-120285993D01*
X215761230Y-120314991D01*
X215790228Y-120338789D01*
X215876955Y-120409964D01*
X215944844Y-120446252D01*
X216077519Y-120578927D01*
X216247037Y-120692195D01*
X216435395Y-120770216D01*
X216635354Y-120809990D01*
X216839232Y-120809990D01*
X217039191Y-120770216D01*
X217227549Y-120692195D01*
X217397067Y-120578927D01*
X217541230Y-120434764D01*
X217654498Y-120265246D01*
X217732519Y-120076888D01*
X217772293Y-119876929D01*
X217772293Y-119673051D01*
X217732519Y-119473092D01*
X217654498Y-119284734D01*
X217541230Y-119115216D01*
X217397067Y-118971053D01*
X217227549Y-118857785D01*
X217039191Y-118779764D01*
X216839232Y-118739990D01*
X216635354Y-118739990D01*
X216435395Y-118779764D01*
X216396795Y-118795753D01*
X216035000Y-118433958D01*
X216035000Y-118371820D01*
X215995226Y-118171861D01*
X215917205Y-117983503D01*
X215803937Y-117813985D01*
X215659774Y-117669822D01*
X215490256Y-117556554D01*
X215301898Y-117478533D01*
X215101939Y-117438759D01*
X214898061Y-117438759D01*
X214698102Y-117478533D01*
X214509744Y-117556554D01*
X214340226Y-117669822D01*
X214196063Y-117813985D01*
X214082795Y-117983503D01*
X214004774Y-118171861D01*
X213965000Y-118371820D01*
X213965000Y-118461535D01*
X213787068Y-118426142D01*
X213583190Y-118426142D01*
X213383231Y-118465916D01*
X213194873Y-118543937D01*
X213025355Y-118657205D01*
X212881192Y-118801368D01*
X212767924Y-118970886D01*
X212689903Y-119159244D01*
X212650129Y-119359203D01*
X212650129Y-119563081D01*
X212689903Y-119763040D01*
X212732035Y-119864754D01*
X211658000Y-120938789D01*
X211595862Y-120938789D01*
X211395903Y-120978563D01*
X211207545Y-121056584D01*
X211038027Y-121169852D01*
X210893864Y-121314015D01*
X210780596Y-121483533D01*
X210702575Y-121671891D01*
X210662801Y-121871850D01*
X209281039Y-121871850D01*
X209285000Y-121851939D01*
X209285000Y-121648061D01*
X209245226Y-121448102D01*
X209167205Y-121259744D01*
X209053937Y-121090226D01*
X208909774Y-120946063D01*
X208740256Y-120832795D01*
X208551898Y-120754774D01*
X208406776Y-120725908D01*
X207623765Y-119942898D01*
X207693027Y-119775687D01*
X207732801Y-119575728D01*
X207732801Y-119371850D01*
X207693027Y-119171891D01*
X207615006Y-118983533D01*
X207532801Y-118860504D01*
X207532801Y-117069656D01*
X211627055Y-112975403D01*
X211640995Y-112989343D01*
X211640995Y-113139661D01*
X211637319Y-113176983D01*
X211640995Y-113214305D01*
X211640995Y-113214316D01*
X211651467Y-113320632D01*
X211651993Y-113325968D01*
X211695449Y-113469229D01*
X211766021Y-113601259D01*
X211820476Y-113667612D01*
X211860995Y-113716984D01*
X211889993Y-113740782D01*
X212346880Y-114197670D01*
X212346880Y-114259807D01*
X212386654Y-114459766D01*
X212464675Y-114648124D01*
X212577943Y-114817642D01*
X212722106Y-114961805D01*
X212891624Y-115075073D01*
X213079982Y-115153094D01*
X213279941Y-115192868D01*
X213483819Y-115192868D01*
X213683778Y-115153094D01*
X213872136Y-115075073D01*
X214041654Y-114961805D01*
X214185817Y-114817642D01*
X214299085Y-114648124D01*
X214377106Y-114459766D01*
X214416880Y-114259807D01*
X214416880Y-114055929D01*
X214377106Y-113855970D01*
X214299085Y-113667612D01*
X214185817Y-113498094D01*
X214041654Y-113353931D01*
X213872136Y-113240663D01*
X213683778Y-113162642D01*
X213483819Y-113122868D01*
X213421682Y-113122868D01*
X213220668Y-112921855D01*
X213318200Y-112775888D01*
X213396221Y-112587530D01*
X213435995Y-112387571D01*
X213435995Y-112183693D01*
X213396221Y-111983734D01*
X213318200Y-111795376D01*
X213263389Y-111713345D01*
X213438057Y-111640994D01*
X213607575Y-111527726D01*
X213751738Y-111383563D01*
X213865006Y-111214045D01*
X213943027Y-111025687D01*
X213982801Y-110825728D01*
X213982801Y-110621850D01*
X213943027Y-110421891D01*
X213865006Y-110233533D01*
X213751738Y-110064015D01*
X213607575Y-109919852D01*
X213438057Y-109806584D01*
X213269686Y-109736842D01*
X213269686Y-109714849D01*
X213229912Y-109514890D01*
X213151891Y-109326532D01*
X213038623Y-109157014D01*
X212894460Y-109012851D01*
X212724942Y-108899583D01*
X212536584Y-108821562D01*
X212336625Y-108781788D01*
X212132747Y-108781788D01*
X211932788Y-108821562D01*
X211744430Y-108899583D01*
X211574912Y-109012851D01*
X211430749Y-109157014D01*
X211317481Y-109326532D01*
X211239460Y-109514890D01*
X211199686Y-109714849D01*
X211199686Y-109776986D01*
X208512884Y-112463789D01*
X207901512Y-112463789D01*
X207857575Y-112419852D01*
X207688057Y-112306584D01*
X207499699Y-112228563D01*
X207299740Y-112188789D01*
X207095862Y-112188789D01*
X206895903Y-112228563D01*
X206707545Y-112306584D01*
X206538027Y-112419852D01*
X206393864Y-112564015D01*
X206280596Y-112733533D01*
X206202575Y-112921891D01*
X206162801Y-113121850D01*
X206162801Y-113325728D01*
X206202575Y-113525687D01*
X206280596Y-113714045D01*
X206393864Y-113883563D01*
X206538027Y-114027726D01*
X206707545Y-114140994D01*
X206895903Y-114219015D01*
X207095862Y-114258789D01*
X207299740Y-114258789D01*
X207499699Y-114219015D01*
X207688057Y-114140994D01*
X207857575Y-114027726D01*
X207901512Y-113983789D01*
X208256934Y-113983789D01*
X206136380Y-116104343D01*
X206104510Y-116130498D01*
X206000166Y-116257643D01*
X206000165Y-116257644D01*
X205922629Y-116402703D01*
X205874883Y-116560101D01*
X205858761Y-116723789D01*
X205862801Y-116764808D01*
X205862802Y-118860503D01*
X205780596Y-118983533D01*
X205702575Y-119171891D01*
X205662801Y-119371850D01*
X185407801Y-119371850D01*
X185407801Y-91473789D01*
X199009487Y-91473789D01*
X199022713Y-91608072D01*
X199061882Y-91737195D01*
X199125489Y-91856196D01*
X199211090Y-91960500D01*
X199315394Y-92046101D01*
X199434395Y-92109708D01*
X199563518Y-92148877D01*
X199632721Y-92155693D01*
X199697801Y-92162103D01*
X199731448Y-92158789D01*
X200664154Y-92158789D01*
X200697801Y-92162103D01*
X200762882Y-92155693D01*
X200832084Y-92148877D01*
X200961207Y-92109708D01*
X201080208Y-92046101D01*
X201184512Y-91960500D01*
X201270113Y-91856196D01*
X201333720Y-91737195D01*
X201372889Y-91608072D01*
X201386115Y-91473789D01*
X201382801Y-91440142D01*
X201382801Y-65007293D01*
X201420590Y-64621892D01*
X201522788Y-64283396D01*
X201688785Y-63971201D01*
X201912261Y-63697192D01*
X202184703Y-63471809D01*
X202495732Y-63303636D01*
X202833509Y-63199077D01*
X203185150Y-63162118D01*
X203537285Y-63194165D01*
X203876482Y-63293996D01*
X204189832Y-63457812D01*
X204465391Y-63679367D01*
X204692671Y-63950228D01*
X204863011Y-64260076D01*
X204969926Y-64597116D01*
X205012802Y-64979365D01*
X205012801Y-87007435D01*
X205013622Y-87015770D01*
X205018377Y-87210348D01*
X205019271Y-87217793D01*
X205018905Y-87225284D01*
X205025262Y-87291906D01*
X205147919Y-88137854D01*
X205155427Y-88168654D01*
X205159896Y-88200053D01*
X205178736Y-88264270D01*
X205459145Y-89071762D01*
X205472344Y-89100591D01*
X205482668Y-89130574D01*
X205513307Y-89190062D01*
X205513311Y-89190071D01*
X205513314Y-89190075D01*
X205941353Y-89929970D01*
X205959761Y-89955778D01*
X205975572Y-89983273D01*
X206016913Y-90035901D01*
X206577145Y-90681511D01*
X206600106Y-90703377D01*
X206620826Y-90727381D01*
X206671361Y-90771233D01*
X206671373Y-90771244D01*
X206671380Y-90771248D01*
X207343580Y-91299270D01*
X207370263Y-91316400D01*
X207395148Y-91336053D01*
X207453067Y-91369559D01*
X207453076Y-91369565D01*
X207453080Y-91369567D01*
X208213003Y-91760952D01*
X208242443Y-91772727D01*
X208270595Y-91787320D01*
X208333808Y-91809271D01*
X208333815Y-91809274D01*
X208333818Y-91809275D01*
X209154042Y-92049902D01*
X209185176Y-92055897D01*
X209215581Y-92064904D01*
X209281788Y-92074502D01*
X209281812Y-92074507D01*
X209281823Y-92074507D01*
X210132741Y-92155692D01*
X210140234Y-92155692D01*
X210147632Y-92156950D01*
X210214536Y-92158585D01*
X210434360Y-92153213D01*
X210441805Y-92152319D01*
X210449296Y-92152685D01*
X210515918Y-92146328D01*
X211361866Y-92023671D01*
X211392666Y-92016163D01*
X211424065Y-92011694D01*
X211488282Y-91992854D01*
X212295774Y-91712445D01*
X212324603Y-91699246D01*
X212354586Y-91688922D01*
X212414074Y-91658283D01*
X212414083Y-91658279D01*
X212414087Y-91658276D01*
X213153982Y-91230237D01*
X213179790Y-91211829D01*
X213207285Y-91196018D01*
X213259913Y-91154677D01*
X213905523Y-90594445D01*
X213927389Y-90571484D01*
X213951393Y-90550764D01*
X213995245Y-90500229D01*
X213995256Y-90500217D01*
X213995260Y-90500210D01*
X214523282Y-89828010D01*
X214540412Y-89801327D01*
X214560065Y-89776442D01*
X214593571Y-89718523D01*
X214593577Y-89718514D01*
X214593579Y-89718510D01*
X214984964Y-88958587D01*
X214996739Y-88929147D01*
X215011332Y-88900995D01*
X215033286Y-88837774D01*
X215273914Y-88017548D01*
X215279909Y-87986414D01*
X215288916Y-87956009D01*
X215298514Y-87889802D01*
X215298519Y-87889778D01*
X215298519Y-87889767D01*
X215379611Y-87039828D01*
X215382801Y-87007436D01*
X215382801Y-65007293D01*
X215420590Y-64621892D01*
X215522788Y-64283396D01*
X215688785Y-63971201D01*
X215912261Y-63697192D01*
X216184703Y-63471809D01*
X216495732Y-63303636D01*
X216833509Y-63199077D01*
X217185150Y-63162118D01*
X217537285Y-63194165D01*
X217876482Y-63293996D01*
X218189832Y-63457812D01*
X218465391Y-63679367D01*
X218692671Y-63950228D01*
X218863011Y-64260076D01*
X218969926Y-64597116D01*
X219012801Y-64979356D01*
X219012802Y-91440132D01*
X219009487Y-91473789D01*
X219022713Y-91608072D01*
X219061882Y-91737195D01*
X219125489Y-91856196D01*
X219211090Y-91960500D01*
X219315394Y-92046101D01*
X219434395Y-92109708D01*
X219563518Y-92148877D01*
X219664154Y-92158789D01*
X219697801Y-92162103D01*
X219731448Y-92158789D01*
X220664154Y-92158789D01*
X220697801Y-92162103D01*
X220731448Y-92158789D01*
X220832084Y-92148877D01*
X220961207Y-92109708D01*
X221080208Y-92046101D01*
X221184512Y-91960500D01*
X221270113Y-91856196D01*
X221333720Y-91737195D01*
X221372889Y-91608072D01*
X221386115Y-91473789D01*
X221382801Y-91440142D01*
X221382801Y-73933789D01*
X225165616Y-73933789D01*
X225194288Y-74224900D01*
X225279202Y-74504823D01*
X225417095Y-74762803D01*
X225602667Y-74988923D01*
X225828787Y-75174495D01*
X225883592Y-75203789D01*
X225828787Y-75233083D01*
X225602667Y-75418655D01*
X225417095Y-75644775D01*
X225279202Y-75902755D01*
X225194288Y-76182678D01*
X225165616Y-76473789D01*
X225194288Y-76764900D01*
X225279202Y-77044823D01*
X225417095Y-77302803D01*
X225602667Y-77528923D01*
X225822802Y-77709583D01*
X225822801Y-82837996D01*
X225602667Y-83018655D01*
X225417095Y-83244775D01*
X225279202Y-83502755D01*
X225194288Y-83782678D01*
X225165616Y-84073789D01*
X225194288Y-84364900D01*
X225279202Y-84644823D01*
X225417095Y-84902803D01*
X225602667Y-85128923D01*
X225828787Y-85314495D01*
X226086767Y-85452388D01*
X226366690Y-85537302D01*
X226584851Y-85558789D01*
X226730751Y-85558789D01*
X226948912Y-85537302D01*
X227228835Y-85452388D01*
X227486815Y-85314495D01*
X227712935Y-85128923D01*
X227737408Y-85099102D01*
X227758299Y-85167969D01*
X227817264Y-85278283D01*
X227896616Y-85374974D01*
X227993307Y-85454326D01*
X228103621Y-85513291D01*
X228223319Y-85549601D01*
X228347801Y-85561861D01*
X228912051Y-85558789D01*
X229070801Y-85400039D01*
X229070801Y-84200789D01*
X229324801Y-84200789D01*
X229324801Y-85400039D01*
X229483551Y-85558789D01*
X230047801Y-85561861D01*
X230172283Y-85549601D01*
X230291981Y-85513291D01*
X230402295Y-85454326D01*
X230498986Y-85374974D01*
X230578338Y-85278283D01*
X230637303Y-85167969D01*
X230673613Y-85048271D01*
X230685873Y-84923789D01*
X230682801Y-84359539D01*
X230524051Y-84200789D01*
X229324801Y-84200789D01*
X229070801Y-84200789D01*
X229050801Y-84200789D01*
X229050801Y-83946789D01*
X229070801Y-83946789D01*
X229070801Y-82747539D01*
X229324801Y-82747539D01*
X229324801Y-83946789D01*
X230524051Y-83946789D01*
X230682801Y-83788039D01*
X230685873Y-83223789D01*
X230673613Y-83099307D01*
X230637303Y-82979609D01*
X230578338Y-82869295D01*
X230498986Y-82772604D01*
X230402295Y-82693252D01*
X230291981Y-82634287D01*
X230172283Y-82597977D01*
X230047801Y-82585717D01*
X229483551Y-82588789D01*
X229324801Y-82747539D01*
X229070801Y-82747539D01*
X228912051Y-82588789D01*
X228347801Y-82585717D01*
X228223319Y-82597977D01*
X228103621Y-82634287D01*
X227993307Y-82693252D01*
X227896616Y-82772604D01*
X227817264Y-82869295D01*
X227758299Y-82979609D01*
X227737408Y-83048476D01*
X227712935Y-83018655D01*
X227492801Y-82837996D01*
X227492801Y-77709582D01*
X227712935Y-77528923D01*
X227737408Y-77499102D01*
X227758299Y-77567969D01*
X227817264Y-77678283D01*
X227896616Y-77774974D01*
X227993307Y-77854326D01*
X228103621Y-77913291D01*
X228223319Y-77949601D01*
X228347801Y-77961861D01*
X230047801Y-77961861D01*
X230172283Y-77949601D01*
X230291981Y-77913291D01*
X230402295Y-77854326D01*
X230498986Y-77774974D01*
X230578338Y-77678283D01*
X230637303Y-77567969D01*
X230673613Y-77448271D01*
X230685873Y-77323789D01*
X230685873Y-75623789D01*
X230673613Y-75499307D01*
X230637303Y-75379609D01*
X230578338Y-75269295D01*
X230498986Y-75172604D01*
X230402295Y-75093252D01*
X230291981Y-75034287D01*
X230223114Y-75013396D01*
X230252935Y-74988923D01*
X230438507Y-74762803D01*
X230576400Y-74504823D01*
X230661314Y-74224900D01*
X230689986Y-73933789D01*
X230661314Y-73642678D01*
X230576400Y-73362755D01*
X230438507Y-73104775D01*
X230252935Y-72878655D01*
X230026815Y-72693083D01*
X229972010Y-72663789D01*
X230026815Y-72634495D01*
X230252935Y-72448923D01*
X230438507Y-72222803D01*
X230576400Y-71964823D01*
X230661314Y-71684900D01*
X230689986Y-71393789D01*
X230661314Y-71102678D01*
X230576400Y-70822755D01*
X230438507Y-70564775D01*
X230252935Y-70338655D01*
X230026815Y-70153083D01*
X229768835Y-70015190D01*
X229488912Y-69930276D01*
X229270751Y-69908789D01*
X229124851Y-69908789D01*
X228906690Y-69930276D01*
X228626767Y-70015190D01*
X228368787Y-70153083D01*
X228142667Y-70338655D01*
X227957095Y-70564775D01*
X227926217Y-70622545D01*
X227755389Y-70393520D01*
X227539156Y-70198611D01*
X227289053Y-70049632D01*
X227014692Y-69952308D01*
X226784801Y-70072975D01*
X226784801Y-71266789D01*
X226804801Y-71266789D01*
X226804801Y-71520789D01*
X226784801Y-71520789D01*
X226784801Y-71540789D01*
X226530801Y-71540789D01*
X226530801Y-71520789D01*
X225337646Y-71520789D01*
X225216325Y-71750679D01*
X225260976Y-71897888D01*
X225386160Y-72160709D01*
X225560213Y-72394058D01*
X225776446Y-72588967D01*
X225893324Y-72658588D01*
X225828787Y-72693083D01*
X225602667Y-72878655D01*
X225417095Y-73104775D01*
X225279202Y-73362755D01*
X225194288Y-73642678D01*
X225165616Y-73933789D01*
X221382801Y-73933789D01*
X221382801Y-71036899D01*
X225216325Y-71036899D01*
X225337646Y-71266789D01*
X226530801Y-71266789D01*
X226530801Y-70072975D01*
X226300910Y-69952308D01*
X226026549Y-70049632D01*
X225776446Y-70198611D01*
X225560213Y-70393520D01*
X225386160Y-70626869D01*
X225260976Y-70889690D01*
X225216325Y-71036899D01*
X221382801Y-71036899D01*
X221382801Y-62940142D01*
X221379745Y-62909110D01*
X221379897Y-62887271D01*
X221378963Y-62877752D01*
X221307561Y-62198413D01*
X221295083Y-62137625D01*
X221283444Y-62076612D01*
X221280680Y-62067456D01*
X221078688Y-61414924D01*
X221054624Y-61357678D01*
X221031372Y-61300127D01*
X221026882Y-61291682D01*
X220701992Y-60690812D01*
X220667274Y-60639340D01*
X220633279Y-60587391D01*
X220627235Y-60579979D01*
X220191823Y-60053656D01*
X220147749Y-60009889D01*
X220104329Y-59965550D01*
X220096960Y-59959453D01*
X219567610Y-59527727D01*
X219515877Y-59493356D01*
X219464672Y-59458295D01*
X219456262Y-59453747D01*
X219456254Y-59453743D01*
X218853135Y-59133059D01*
X218795725Y-59109396D01*
X218738670Y-59084943D01*
X218729534Y-59082114D01*
X218075608Y-58884682D01*
X218014675Y-58872617D01*
X217953977Y-58859715D01*
X217944465Y-58858715D01*
X217264645Y-58792058D01*
X217234720Y-58792058D01*
X217204982Y-58788827D01*
X217195418Y-58788793D01*
X217170984Y-58788878D01*
X217141212Y-58791902D01*
X217111283Y-58791693D01*
X217101764Y-58792627D01*
X216422425Y-58864029D01*
X216361637Y-58876507D01*
X216300624Y-58888146D01*
X216291468Y-58890910D01*
X215638936Y-59092902D01*
X215581690Y-59116966D01*
X215524139Y-59140218D01*
X215515694Y-59144708D01*
X214914824Y-59469598D01*
X214863352Y-59504316D01*
X214811403Y-59538311D01*
X214803991Y-59544355D01*
X214277668Y-59979767D01*
X214233901Y-60023841D01*
X214189562Y-60067261D01*
X214183465Y-60074630D01*
X213751739Y-60603980D01*
X213717368Y-60655713D01*
X213682307Y-60706918D01*
X213677758Y-60715331D01*
X213357071Y-61318455D01*
X213333408Y-61375865D01*
X213308955Y-61432920D01*
X213306126Y-61442056D01*
X213108694Y-62095982D01*
X213096629Y-62156915D01*
X213083727Y-62217613D01*
X213082727Y-62227125D01*
X213016070Y-62906945D01*
X213016070Y-62906953D01*
X213012801Y-62940143D01*
X213012802Y-86940275D01*
X212955967Y-87519920D01*
X212797360Y-88045251D01*
X212539738Y-88529767D01*
X212192912Y-88955020D01*
X211770093Y-89304806D01*
X211287389Y-89565804D01*
X210763172Y-89728076D01*
X210217433Y-89785436D01*
X209670937Y-89735700D01*
X209144517Y-89580766D01*
X208658210Y-89326531D01*
X208230546Y-88982682D01*
X207877817Y-88562315D01*
X207613454Y-88081442D01*
X207447528Y-87558376D01*
X207382874Y-86981975D01*
X207382801Y-86971428D01*
X207382801Y-62940142D01*
X207379745Y-62909110D01*
X207379897Y-62887271D01*
X207378963Y-62877752D01*
X207307561Y-62198413D01*
X207295083Y-62137625D01*
X207283444Y-62076612D01*
X207280680Y-62067456D01*
X207078688Y-61414924D01*
X207054624Y-61357678D01*
X207031372Y-61300127D01*
X207026882Y-61291682D01*
X206701992Y-60690812D01*
X206667274Y-60639340D01*
X206633279Y-60587391D01*
X206627235Y-60579979D01*
X206191823Y-60053656D01*
X206147749Y-60009889D01*
X206104329Y-59965550D01*
X206096960Y-59959453D01*
X205567610Y-59527727D01*
X205515877Y-59493356D01*
X205464672Y-59458295D01*
X205456262Y-59453747D01*
X205456254Y-59453743D01*
X204853135Y-59133059D01*
X204795725Y-59109396D01*
X204738670Y-59084943D01*
X204729534Y-59082114D01*
X204075608Y-58884682D01*
X204014675Y-58872617D01*
X203953977Y-58859715D01*
X203944465Y-58858715D01*
X203264645Y-58792058D01*
X203234720Y-58792058D01*
X203204982Y-58788827D01*
X203195418Y-58788793D01*
X203170984Y-58788878D01*
X203141212Y-58791902D01*
X203111283Y-58791693D01*
X203101764Y-58792627D01*
X202422425Y-58864029D01*
X202361637Y-58876507D01*
X202300624Y-58888146D01*
X202291468Y-58890910D01*
X201638936Y-59092902D01*
X201581690Y-59116966D01*
X201524139Y-59140218D01*
X201515694Y-59144708D01*
X200914824Y-59469598D01*
X200863352Y-59504316D01*
X200811403Y-59538311D01*
X200803991Y-59544355D01*
X200277668Y-59979767D01*
X200233901Y-60023841D01*
X200189562Y-60067261D01*
X200183465Y-60074630D01*
X199751739Y-60603980D01*
X199717368Y-60655713D01*
X199682307Y-60706918D01*
X199677758Y-60715331D01*
X199357071Y-61318455D01*
X199333408Y-61375865D01*
X199308955Y-61432920D01*
X199306126Y-61442056D01*
X199108694Y-62095982D01*
X199096629Y-62156915D01*
X199083727Y-62217613D01*
X199082727Y-62227125D01*
X199016070Y-62906945D01*
X199016070Y-62906962D01*
X199012802Y-62940142D01*
X199012801Y-91440142D01*
X199009487Y-91473789D01*
X185407801Y-91473789D01*
X185407801Y-78371850D01*
X189162801Y-78371850D01*
X189162801Y-78575728D01*
X189202575Y-78775687D01*
X189280596Y-78964045D01*
X189393864Y-79133563D01*
X189538027Y-79277726D01*
X189707545Y-79390994D01*
X189895903Y-79469015D01*
X190095862Y-79508789D01*
X190158000Y-79508789D01*
X193428545Y-82779334D01*
X193393864Y-82814015D01*
X193280596Y-82983533D01*
X193202575Y-83171891D01*
X193162801Y-83371850D01*
X193162801Y-83575728D01*
X193202575Y-83775687D01*
X193280596Y-83964045D01*
X193393864Y-84133563D01*
X193538027Y-84277726D01*
X193707545Y-84390994D01*
X193895903Y-84469015D01*
X194095862Y-84508789D01*
X194299740Y-84508789D01*
X194499699Y-84469015D01*
X194688057Y-84390994D01*
X194857575Y-84277726D01*
X195001738Y-84133563D01*
X195115006Y-83964045D01*
X195193027Y-83775687D01*
X195232801Y-83575728D01*
X195232801Y-83371850D01*
X195193027Y-83171891D01*
X195115006Y-82983533D01*
X195001738Y-82814015D01*
X194957801Y-82770078D01*
X194957801Y-82511111D01*
X194961477Y-82473788D01*
X194957801Y-82436465D01*
X194957801Y-82436456D01*
X194946804Y-82324803D01*
X194903347Y-82181542D01*
X194832775Y-82049513D01*
X194737802Y-81933788D01*
X194708805Y-81909991D01*
X191232801Y-78433988D01*
X191232801Y-78371850D01*
X191193027Y-78171891D01*
X191115006Y-77983533D01*
X191001738Y-77814015D01*
X190857575Y-77669852D01*
X190688057Y-77556584D01*
X190499699Y-77478563D01*
X190299740Y-77438789D01*
X190095862Y-77438789D01*
X189895903Y-77478563D01*
X189707545Y-77556584D01*
X189538027Y-77669852D01*
X189393864Y-77814015D01*
X189280596Y-77983533D01*
X189202575Y-78171891D01*
X189162801Y-78371850D01*
X185407801Y-78371850D01*
X185407801Y-55508510D01*
X185454754Y-55029655D01*
X185583739Y-54602434D01*
X185793247Y-54208405D01*
X186075300Y-53862575D01*
X186419152Y-53578116D01*
X186811711Y-53365860D01*
X187238014Y-53233897D01*
X187714765Y-53183789D01*
X232663080Y-53183789D01*
X233141935Y-53230742D01*
G36*
X227957095Y-72222803D02*
G01*
X228142667Y-72448923D01*
X228368787Y-72634495D01*
X228423592Y-72663789D01*
X228368787Y-72693083D01*
X228142667Y-72878655D01*
X227957095Y-73104775D01*
X227927801Y-73159580D01*
X227898507Y-73104775D01*
X227712935Y-72878655D01*
X227486815Y-72693083D01*
X227422278Y-72658588D01*
X227539156Y-72588967D01*
X227755389Y-72394058D01*
X227926217Y-72165033D01*
X227957095Y-72222803D01*
X227957095Y-72222803D01*
G37*
X227957095Y-72222803D02*
X228142667Y-72448923D01*
X228368787Y-72634495D01*
X228423592Y-72663789D01*
X228368787Y-72693083D01*
X228142667Y-72878655D01*
X227957095Y-73104775D01*
X227927801Y-73159580D01*
X227898507Y-73104775D01*
X227712935Y-72878655D01*
X227486815Y-72693083D01*
X227422278Y-72658588D01*
X227539156Y-72588967D01*
X227755389Y-72394058D01*
X227926217Y-72165033D01*
X227957095Y-72222803D01*
M02*
