G04 #@! TF.GenerationSoftware,KiCad,Pcbnew,(5.0.0-rc2-dev-668-g07e7340a9)*
G04 #@! TF.CreationDate,2018-10-23T00:23:44-04:00*
G04 #@! TF.ProjectId,BalancingBusinessCard,42616C616E63696E67427573696E6573,rev?*
G04 #@! TF.SameCoordinates,Original*
G04 #@! TF.FileFunction,Soldermask,Top*
G04 #@! TF.FilePolarity,Negative*
%FSLAX46Y46*%
G04 Gerber Fmt 4.6, Leading zero omitted, Abs format (unit mm)*
G04 Created by KiCad (PCBNEW (5.0.0-rc2-dev-668-g07e7340a9)) date 10/23/18 00:23:44*
%MOMM*%
%LPD*%
G01*
G04 APERTURE LIST*
%ADD10C,0.100000*%
G04 APERTURE END LIST*
D10*
G36*
X195379591Y-134915585D02*
X195413569Y-134925893D01*
X195444887Y-134942633D01*
X195472339Y-134965161D01*
X195494867Y-134992613D01*
X195511607Y-135023931D01*
X195521915Y-135057909D01*
X195526000Y-135099390D01*
X195526000Y-135700610D01*
X195521915Y-135742091D01*
X195511607Y-135776069D01*
X195494867Y-135807387D01*
X195472339Y-135834839D01*
X195444887Y-135857367D01*
X195413569Y-135874107D01*
X195379591Y-135884415D01*
X195338110Y-135888500D01*
X194661890Y-135888500D01*
X194620409Y-135884415D01*
X194586431Y-135874107D01*
X194555113Y-135857367D01*
X194527661Y-135834839D01*
X194505133Y-135807387D01*
X194488393Y-135776069D01*
X194478085Y-135742091D01*
X194474000Y-135700610D01*
X194474000Y-135099390D01*
X194478085Y-135057909D01*
X194488393Y-135023931D01*
X194505133Y-134992613D01*
X194527661Y-134965161D01*
X194555113Y-134942633D01*
X194586431Y-134925893D01*
X194620409Y-134915585D01*
X194661890Y-134911500D01*
X195338110Y-134911500D01*
X195379591Y-134915585D01*
X195379591Y-134915585D01*
G37*
G36*
X198779591Y-134903085D02*
X198813569Y-134913393D01*
X198844887Y-134930133D01*
X198872339Y-134952661D01*
X198894867Y-134980113D01*
X198911607Y-135011431D01*
X198921915Y-135045409D01*
X198926000Y-135086890D01*
X198926000Y-135688110D01*
X198921915Y-135729591D01*
X198911607Y-135763569D01*
X198894867Y-135794887D01*
X198872339Y-135822339D01*
X198844887Y-135844867D01*
X198813569Y-135861607D01*
X198779591Y-135871915D01*
X198738110Y-135876000D01*
X198061890Y-135876000D01*
X198020409Y-135871915D01*
X197986431Y-135861607D01*
X197955113Y-135844867D01*
X197927661Y-135822339D01*
X197905133Y-135794887D01*
X197888393Y-135763569D01*
X197878085Y-135729591D01*
X197874000Y-135688110D01*
X197874000Y-135086890D01*
X197878085Y-135045409D01*
X197888393Y-135011431D01*
X197905133Y-134980113D01*
X197927661Y-134952661D01*
X197955113Y-134930133D01*
X197986431Y-134913393D01*
X198020409Y-134903085D01*
X198061890Y-134899000D01*
X198738110Y-134899000D01*
X198779591Y-134903085D01*
X198779591Y-134903085D01*
G37*
G36*
X185753000Y-134830001D02*
X184397002Y-134830001D01*
X184397002Y-134372401D01*
X185753000Y-134372401D01*
X185753000Y-134830001D01*
X185753000Y-134830001D01*
G37*
G36*
X189814592Y-133533086D02*
X189848570Y-133543394D01*
X189879888Y-133560134D01*
X189907340Y-133582662D01*
X189929868Y-133610114D01*
X189946608Y-133641432D01*
X189956916Y-133675410D01*
X189961001Y-133716891D01*
X189961001Y-134393111D01*
X189956916Y-134434592D01*
X189946608Y-134468570D01*
X189929868Y-134499888D01*
X189907340Y-134527340D01*
X189879888Y-134549868D01*
X189848570Y-134566608D01*
X189814592Y-134576916D01*
X189773111Y-134581001D01*
X189171891Y-134581001D01*
X189130410Y-134576916D01*
X189096432Y-134566608D01*
X189065114Y-134549868D01*
X189037662Y-134527340D01*
X189015134Y-134499888D01*
X188998394Y-134468570D01*
X188988086Y-134434592D01*
X188984001Y-134393111D01*
X188984001Y-133716891D01*
X188988086Y-133675410D01*
X188998394Y-133641432D01*
X189015134Y-133610114D01*
X189037662Y-133582662D01*
X189065114Y-133560134D01*
X189096432Y-133543394D01*
X189130410Y-133533086D01*
X189171891Y-133529001D01*
X189773111Y-133529001D01*
X189814592Y-133533086D01*
X189814592Y-133533086D01*
G37*
G36*
X188239592Y-133533086D02*
X188273570Y-133543394D01*
X188304888Y-133560134D01*
X188332340Y-133582662D01*
X188354868Y-133610114D01*
X188371608Y-133641432D01*
X188381916Y-133675410D01*
X188386001Y-133716891D01*
X188386001Y-134393111D01*
X188381916Y-134434592D01*
X188371608Y-134468570D01*
X188354868Y-134499888D01*
X188332340Y-134527340D01*
X188304888Y-134549868D01*
X188273570Y-134566608D01*
X188239592Y-134576916D01*
X188198111Y-134581001D01*
X187596891Y-134581001D01*
X187555410Y-134576916D01*
X187521432Y-134566608D01*
X187490114Y-134549868D01*
X187462662Y-134527340D01*
X187440134Y-134499888D01*
X187423394Y-134468570D01*
X187413086Y-134434592D01*
X187409001Y-134393111D01*
X187409001Y-133716891D01*
X187413086Y-133675410D01*
X187423394Y-133641432D01*
X187440134Y-133610114D01*
X187462662Y-133582662D01*
X187490114Y-133560134D01*
X187521432Y-133543394D01*
X187555410Y-133533086D01*
X187596891Y-133529001D01*
X188198111Y-133529001D01*
X188239592Y-133533086D01*
X188239592Y-133533086D01*
G37*
G36*
X183957601Y-134433002D02*
X183500001Y-134433002D01*
X183500001Y-132077000D01*
X183957601Y-132077000D01*
X183957601Y-134433002D01*
X183957601Y-134433002D01*
G37*
G36*
X186650001Y-134433002D02*
X186192401Y-134433002D01*
X186192401Y-132077000D01*
X186650001Y-132077000D01*
X186650001Y-134433002D01*
X186650001Y-134433002D01*
G37*
G36*
X195379591Y-133340585D02*
X195413569Y-133350893D01*
X195444887Y-133367633D01*
X195472339Y-133390161D01*
X195494867Y-133417613D01*
X195511607Y-133448931D01*
X195521915Y-133482909D01*
X195526000Y-133524390D01*
X195526000Y-134125610D01*
X195521915Y-134167091D01*
X195511607Y-134201069D01*
X195494867Y-134232387D01*
X195472339Y-134259839D01*
X195444887Y-134282367D01*
X195413569Y-134299107D01*
X195379591Y-134309415D01*
X195338110Y-134313500D01*
X194661890Y-134313500D01*
X194620409Y-134309415D01*
X194586431Y-134299107D01*
X194555113Y-134282367D01*
X194527661Y-134259839D01*
X194505133Y-134232387D01*
X194488393Y-134201069D01*
X194478085Y-134167091D01*
X194474000Y-134125610D01*
X194474000Y-133524390D01*
X194478085Y-133482909D01*
X194488393Y-133448931D01*
X194505133Y-133417613D01*
X194527661Y-133390161D01*
X194555113Y-133367633D01*
X194586431Y-133350893D01*
X194620409Y-133340585D01*
X194661890Y-133336500D01*
X195338110Y-133336500D01*
X195379591Y-133340585D01*
X195379591Y-133340585D01*
G37*
G36*
X198779591Y-133328085D02*
X198813569Y-133338393D01*
X198844887Y-133355133D01*
X198872339Y-133377661D01*
X198894867Y-133405113D01*
X198911607Y-133436431D01*
X198921915Y-133470409D01*
X198926000Y-133511890D01*
X198926000Y-134113110D01*
X198921915Y-134154591D01*
X198911607Y-134188569D01*
X198894867Y-134219887D01*
X198872339Y-134247339D01*
X198844887Y-134269867D01*
X198813569Y-134286607D01*
X198779591Y-134296915D01*
X198738110Y-134301000D01*
X198061890Y-134301000D01*
X198020409Y-134296915D01*
X197986431Y-134286607D01*
X197955113Y-134269867D01*
X197927661Y-134247339D01*
X197905133Y-134219887D01*
X197888393Y-134188569D01*
X197878085Y-134154591D01*
X197874000Y-134113110D01*
X197874000Y-133511890D01*
X197878085Y-133470409D01*
X197888393Y-133436431D01*
X197905133Y-133405113D01*
X197927661Y-133377661D01*
X197955113Y-133355133D01*
X197986431Y-133338393D01*
X198020409Y-133328085D01*
X198061890Y-133324000D01*
X198738110Y-133324000D01*
X198779591Y-133328085D01*
X198779591Y-133328085D01*
G37*
G36*
X225450442Y-131705518D02*
X225516627Y-131712037D01*
X225609511Y-131740213D01*
X225686467Y-131763557D01*
X225730117Y-131786889D01*
X225842991Y-131847222D01*
X225878729Y-131876552D01*
X225980186Y-131959814D01*
X226063448Y-132061271D01*
X226092778Y-132097009D01*
X226092779Y-132097011D01*
X226176443Y-132253533D01*
X226176443Y-132253534D01*
X226227963Y-132423373D01*
X226245359Y-132600000D01*
X226227963Y-132776627D01*
X226218825Y-132806751D01*
X226176443Y-132946467D01*
X226115915Y-133059705D01*
X226092778Y-133102991D01*
X226063448Y-133138729D01*
X225980186Y-133240186D01*
X225878729Y-133323448D01*
X225842991Y-133352778D01*
X225842989Y-133352779D01*
X225686467Y-133436443D01*
X225658086Y-133445052D01*
X225516627Y-133487963D01*
X225450442Y-133494482D01*
X225384260Y-133501000D01*
X225295740Y-133501000D01*
X225229558Y-133494482D01*
X225163373Y-133487963D01*
X225021914Y-133445052D01*
X224993533Y-133436443D01*
X224837011Y-133352779D01*
X224837009Y-133352778D01*
X224801271Y-133323448D01*
X224699814Y-133240186D01*
X224616552Y-133138729D01*
X224587222Y-133102991D01*
X224564085Y-133059705D01*
X224503557Y-132946467D01*
X224461175Y-132806751D01*
X224452037Y-132776627D01*
X224434641Y-132600000D01*
X224452037Y-132423373D01*
X224503557Y-132253534D01*
X224503557Y-132253533D01*
X224587221Y-132097011D01*
X224587222Y-132097009D01*
X224616552Y-132061271D01*
X224699814Y-131959814D01*
X224801271Y-131876552D01*
X224837009Y-131847222D01*
X224949883Y-131786889D01*
X224993533Y-131763557D01*
X225070489Y-131740213D01*
X225163373Y-131712037D01*
X225229558Y-131705518D01*
X225295740Y-131699000D01*
X225384260Y-131699000D01*
X225450442Y-131705518D01*
X225450442Y-131705518D01*
G37*
G36*
X222910442Y-131705518D02*
X222976627Y-131712037D01*
X223069511Y-131740213D01*
X223146467Y-131763557D01*
X223190117Y-131786889D01*
X223302991Y-131847222D01*
X223338729Y-131876552D01*
X223440186Y-131959814D01*
X223523448Y-132061271D01*
X223552778Y-132097009D01*
X223552779Y-132097011D01*
X223636443Y-132253533D01*
X223636443Y-132253534D01*
X223687963Y-132423373D01*
X223705359Y-132600000D01*
X223687963Y-132776627D01*
X223678825Y-132806751D01*
X223636443Y-132946467D01*
X223575915Y-133059705D01*
X223552778Y-133102991D01*
X223523448Y-133138729D01*
X223440186Y-133240186D01*
X223338729Y-133323448D01*
X223302991Y-133352778D01*
X223302989Y-133352779D01*
X223146467Y-133436443D01*
X223118086Y-133445052D01*
X222976627Y-133487963D01*
X222910442Y-133494482D01*
X222844260Y-133501000D01*
X222755740Y-133501000D01*
X222689558Y-133494482D01*
X222623373Y-133487963D01*
X222481914Y-133445052D01*
X222453533Y-133436443D01*
X222297011Y-133352779D01*
X222297009Y-133352778D01*
X222261271Y-133323448D01*
X222159814Y-133240186D01*
X222076552Y-133138729D01*
X222047222Y-133102991D01*
X222024085Y-133059705D01*
X221963557Y-132946467D01*
X221921175Y-132806751D01*
X221912037Y-132776627D01*
X221894641Y-132600000D01*
X221912037Y-132423373D01*
X221963557Y-132253534D01*
X221963557Y-132253533D01*
X222047221Y-132097011D01*
X222047222Y-132097009D01*
X222076552Y-132061271D01*
X222159814Y-131959814D01*
X222261271Y-131876552D01*
X222297009Y-131847222D01*
X222409883Y-131786889D01*
X222453533Y-131763557D01*
X222530489Y-131740213D01*
X222623373Y-131712037D01*
X222689558Y-131705518D01*
X222755740Y-131699000D01*
X222844260Y-131699000D01*
X222910442Y-131705518D01*
X222910442Y-131705518D01*
G37*
G36*
X220370442Y-131705518D02*
X220436627Y-131712037D01*
X220529511Y-131740213D01*
X220606467Y-131763557D01*
X220650117Y-131786889D01*
X220762991Y-131847222D01*
X220798729Y-131876552D01*
X220900186Y-131959814D01*
X220983448Y-132061271D01*
X221012778Y-132097009D01*
X221012779Y-132097011D01*
X221096443Y-132253533D01*
X221096443Y-132253534D01*
X221147963Y-132423373D01*
X221165359Y-132600000D01*
X221147963Y-132776627D01*
X221138825Y-132806751D01*
X221096443Y-132946467D01*
X221035915Y-133059705D01*
X221012778Y-133102991D01*
X220983448Y-133138729D01*
X220900186Y-133240186D01*
X220798729Y-133323448D01*
X220762991Y-133352778D01*
X220762989Y-133352779D01*
X220606467Y-133436443D01*
X220578086Y-133445052D01*
X220436627Y-133487963D01*
X220370442Y-133494482D01*
X220304260Y-133501000D01*
X220215740Y-133501000D01*
X220149558Y-133494482D01*
X220083373Y-133487963D01*
X219941914Y-133445052D01*
X219913533Y-133436443D01*
X219757011Y-133352779D01*
X219757009Y-133352778D01*
X219721271Y-133323448D01*
X219619814Y-133240186D01*
X219536552Y-133138729D01*
X219507222Y-133102991D01*
X219484085Y-133059705D01*
X219423557Y-132946467D01*
X219381175Y-132806751D01*
X219372037Y-132776627D01*
X219354641Y-132600000D01*
X219372037Y-132423373D01*
X219423557Y-132253534D01*
X219423557Y-132253533D01*
X219507221Y-132097011D01*
X219507222Y-132097009D01*
X219536552Y-132061271D01*
X219619814Y-131959814D01*
X219721271Y-131876552D01*
X219757009Y-131847222D01*
X219869883Y-131786889D01*
X219913533Y-131763557D01*
X219990489Y-131740213D01*
X220083373Y-131712037D01*
X220149558Y-131705518D01*
X220215740Y-131699000D01*
X220304260Y-131699000D01*
X220370442Y-131705518D01*
X220370442Y-131705518D01*
G37*
G36*
X188319467Y-131578566D02*
X188358138Y-131590297D01*
X188393780Y-131609349D01*
X188425018Y-131634984D01*
X188450653Y-131666222D01*
X188469705Y-131701864D01*
X188481436Y-131740535D01*
X188486001Y-131786889D01*
X188486001Y-132863113D01*
X188481436Y-132909467D01*
X188469705Y-132948138D01*
X188450653Y-132983780D01*
X188425018Y-133015018D01*
X188393780Y-133040653D01*
X188358138Y-133059705D01*
X188319467Y-133071436D01*
X188273113Y-133076001D01*
X187621889Y-133076001D01*
X187575535Y-133071436D01*
X187536864Y-133059705D01*
X187501222Y-133040653D01*
X187469984Y-133015018D01*
X187444349Y-132983780D01*
X187425297Y-132948138D01*
X187413566Y-132909467D01*
X187409001Y-132863113D01*
X187409001Y-131786889D01*
X187413566Y-131740535D01*
X187425297Y-131701864D01*
X187444349Y-131666222D01*
X187469984Y-131634984D01*
X187501222Y-131609349D01*
X187536864Y-131590297D01*
X187575535Y-131578566D01*
X187621889Y-131574001D01*
X188273113Y-131574001D01*
X188319467Y-131578566D01*
X188319467Y-131578566D01*
G37*
G36*
X190194467Y-131578566D02*
X190233138Y-131590297D01*
X190268780Y-131609349D01*
X190300018Y-131634984D01*
X190325653Y-131666222D01*
X190344705Y-131701864D01*
X190356436Y-131740535D01*
X190361001Y-131786889D01*
X190361001Y-132863113D01*
X190356436Y-132909467D01*
X190344705Y-132948138D01*
X190325653Y-132983780D01*
X190300018Y-133015018D01*
X190268780Y-133040653D01*
X190233138Y-133059705D01*
X190194467Y-133071436D01*
X190148113Y-133076001D01*
X189496889Y-133076001D01*
X189450535Y-133071436D01*
X189411864Y-133059705D01*
X189376222Y-133040653D01*
X189344984Y-133015018D01*
X189319349Y-132983780D01*
X189300297Y-132948138D01*
X189288566Y-132909467D01*
X189284001Y-132863113D01*
X189284001Y-131786889D01*
X189288566Y-131740535D01*
X189300297Y-131701864D01*
X189319349Y-131666222D01*
X189344984Y-131634984D01*
X189376222Y-131609349D01*
X189411864Y-131590297D01*
X189450535Y-131578566D01*
X189496889Y-131574001D01*
X190148113Y-131574001D01*
X190194467Y-131578566D01*
X190194467Y-131578566D01*
G37*
G36*
X185753000Y-132137601D02*
X184397002Y-132137601D01*
X184397002Y-131680001D01*
X185753000Y-131680001D01*
X185753000Y-132137601D01*
X185753000Y-132137601D01*
G37*
G36*
X222910442Y-129165518D02*
X222976627Y-129172037D01*
X223089853Y-129206384D01*
X223146467Y-129223557D01*
X223285087Y-129297652D01*
X223302991Y-129307222D01*
X223338729Y-129336552D01*
X223440186Y-129419814D01*
X223523448Y-129521271D01*
X223552778Y-129557009D01*
X223552779Y-129557011D01*
X223636443Y-129713533D01*
X223636443Y-129713534D01*
X223687963Y-129883373D01*
X223705359Y-130060000D01*
X223687963Y-130236627D01*
X223653616Y-130349853D01*
X223636443Y-130406467D01*
X223562348Y-130545087D01*
X223552778Y-130562991D01*
X223523448Y-130598729D01*
X223440186Y-130700186D01*
X223338729Y-130783448D01*
X223302991Y-130812778D01*
X223302989Y-130812779D01*
X223146467Y-130896443D01*
X223089853Y-130913616D01*
X222976627Y-130947963D01*
X222910442Y-130954482D01*
X222844260Y-130961000D01*
X222755740Y-130961000D01*
X222689558Y-130954482D01*
X222623373Y-130947963D01*
X222510147Y-130913616D01*
X222453533Y-130896443D01*
X222297011Y-130812779D01*
X222297009Y-130812778D01*
X222261271Y-130783448D01*
X222159814Y-130700186D01*
X222076552Y-130598729D01*
X222047222Y-130562991D01*
X222037652Y-130545087D01*
X221963557Y-130406467D01*
X221946384Y-130349853D01*
X221912037Y-130236627D01*
X221894641Y-130060000D01*
X221912037Y-129883373D01*
X221963557Y-129713534D01*
X221963557Y-129713533D01*
X222047221Y-129557011D01*
X222047222Y-129557009D01*
X222076552Y-129521271D01*
X222159814Y-129419814D01*
X222261271Y-129336552D01*
X222297009Y-129307222D01*
X222314913Y-129297652D01*
X222453533Y-129223557D01*
X222510147Y-129206384D01*
X222623373Y-129172037D01*
X222689558Y-129165518D01*
X222755740Y-129159000D01*
X222844260Y-129159000D01*
X222910442Y-129165518D01*
X222910442Y-129165518D01*
G37*
G36*
X226241000Y-130961000D02*
X224439000Y-130961000D01*
X224439000Y-129159000D01*
X226241000Y-129159000D01*
X226241000Y-130961000D01*
X226241000Y-130961000D01*
G37*
G36*
X220370442Y-129165518D02*
X220436627Y-129172037D01*
X220549853Y-129206384D01*
X220606467Y-129223557D01*
X220745087Y-129297652D01*
X220762991Y-129307222D01*
X220798729Y-129336552D01*
X220900186Y-129419814D01*
X220983448Y-129521271D01*
X221012778Y-129557009D01*
X221012779Y-129557011D01*
X221096443Y-129713533D01*
X221096443Y-129713534D01*
X221147963Y-129883373D01*
X221165359Y-130060000D01*
X221147963Y-130236627D01*
X221113616Y-130349853D01*
X221096443Y-130406467D01*
X221022348Y-130545087D01*
X221012778Y-130562991D01*
X220983448Y-130598729D01*
X220900186Y-130700186D01*
X220798729Y-130783448D01*
X220762991Y-130812778D01*
X220762989Y-130812779D01*
X220606467Y-130896443D01*
X220549853Y-130913616D01*
X220436627Y-130947963D01*
X220370442Y-130954482D01*
X220304260Y-130961000D01*
X220215740Y-130961000D01*
X220149558Y-130954482D01*
X220083373Y-130947963D01*
X219970147Y-130913616D01*
X219913533Y-130896443D01*
X219757011Y-130812779D01*
X219757009Y-130812778D01*
X219721271Y-130783448D01*
X219619814Y-130700186D01*
X219536552Y-130598729D01*
X219507222Y-130562991D01*
X219497652Y-130545087D01*
X219423557Y-130406467D01*
X219406384Y-130349853D01*
X219372037Y-130236627D01*
X219354641Y-130060000D01*
X219372037Y-129883373D01*
X219423557Y-129713534D01*
X219423557Y-129713533D01*
X219507221Y-129557011D01*
X219507222Y-129557009D01*
X219536552Y-129521271D01*
X219619814Y-129419814D01*
X219721271Y-129336552D01*
X219757009Y-129307222D01*
X219774913Y-129297652D01*
X219913533Y-129223557D01*
X219970147Y-129206384D01*
X220083373Y-129172037D01*
X220149558Y-129165518D01*
X220215740Y-129159000D01*
X220304260Y-129159000D01*
X220370442Y-129165518D01*
X220370442Y-129165518D01*
G37*
G36*
X201051000Y-126551000D02*
X195949000Y-126551000D01*
X195949000Y-105449000D01*
X201051000Y-105449000D01*
X201051000Y-126551000D01*
X201051000Y-126551000D01*
G37*
G36*
X215051000Y-126551000D02*
X209949000Y-126551000D01*
X209949000Y-105449000D01*
X215051000Y-105449000D01*
X215051000Y-126551000D01*
X215051000Y-126551000D01*
G37*
G36*
X183542091Y-123378085D02*
X183576069Y-123388393D01*
X183607387Y-123405133D01*
X183634839Y-123427661D01*
X183657367Y-123455113D01*
X183674107Y-123486431D01*
X183684415Y-123520409D01*
X183688500Y-123561890D01*
X183688500Y-124238110D01*
X183684415Y-124279591D01*
X183674107Y-124313569D01*
X183657367Y-124344887D01*
X183634839Y-124372339D01*
X183607387Y-124394867D01*
X183576069Y-124411607D01*
X183542091Y-124421915D01*
X183500610Y-124426000D01*
X182899390Y-124426000D01*
X182857909Y-124421915D01*
X182823931Y-124411607D01*
X182792613Y-124394867D01*
X182765161Y-124372339D01*
X182742633Y-124344887D01*
X182725893Y-124313569D01*
X182715585Y-124279591D01*
X182711500Y-124238110D01*
X182711500Y-123561890D01*
X182715585Y-123520409D01*
X182725893Y-123486431D01*
X182742633Y-123455113D01*
X182765161Y-123427661D01*
X182792613Y-123405133D01*
X182823931Y-123388393D01*
X182857909Y-123378085D01*
X182899390Y-123374000D01*
X183500610Y-123374000D01*
X183542091Y-123378085D01*
X183542091Y-123378085D01*
G37*
G36*
X185117091Y-123378085D02*
X185151069Y-123388393D01*
X185182387Y-123405133D01*
X185209839Y-123427661D01*
X185232367Y-123455113D01*
X185249107Y-123486431D01*
X185259415Y-123520409D01*
X185263500Y-123561890D01*
X185263500Y-124238110D01*
X185259415Y-124279591D01*
X185249107Y-124313569D01*
X185232367Y-124344887D01*
X185209839Y-124372339D01*
X185182387Y-124394867D01*
X185151069Y-124411607D01*
X185117091Y-124421915D01*
X185075610Y-124426000D01*
X184474390Y-124426000D01*
X184432909Y-124421915D01*
X184398931Y-124411607D01*
X184367613Y-124394867D01*
X184340161Y-124372339D01*
X184317633Y-124344887D01*
X184300893Y-124313569D01*
X184290585Y-124279591D01*
X184286500Y-124238110D01*
X184286500Y-123561890D01*
X184290585Y-123520409D01*
X184300893Y-123486431D01*
X184317633Y-123455113D01*
X184340161Y-123427661D01*
X184367613Y-123405133D01*
X184398931Y-123388393D01*
X184432909Y-123378085D01*
X184474390Y-123374000D01*
X185075610Y-123374000D01*
X185117091Y-123378085D01*
X185117091Y-123378085D01*
G37*
G36*
X225596966Y-121153565D02*
X225635637Y-121165296D01*
X225671279Y-121184348D01*
X225702517Y-121209983D01*
X225728152Y-121241221D01*
X225747204Y-121276863D01*
X225758935Y-121315534D01*
X225763500Y-121361888D01*
X225763500Y-122438112D01*
X225758935Y-122484466D01*
X225747204Y-122523137D01*
X225728152Y-122558779D01*
X225702517Y-122590017D01*
X225671279Y-122615652D01*
X225635637Y-122634704D01*
X225596966Y-122646435D01*
X225550612Y-122651000D01*
X224899388Y-122651000D01*
X224853034Y-122646435D01*
X224814363Y-122634704D01*
X224778721Y-122615652D01*
X224747483Y-122590017D01*
X224721848Y-122558779D01*
X224702796Y-122523137D01*
X224691065Y-122484466D01*
X224686500Y-122438112D01*
X224686500Y-121361888D01*
X224691065Y-121315534D01*
X224702796Y-121276863D01*
X224721848Y-121241221D01*
X224747483Y-121209983D01*
X224778721Y-121184348D01*
X224814363Y-121165296D01*
X224853034Y-121153565D01*
X224899388Y-121149000D01*
X225550612Y-121149000D01*
X225596966Y-121153565D01*
X225596966Y-121153565D01*
G37*
G36*
X227471966Y-121153565D02*
X227510637Y-121165296D01*
X227546279Y-121184348D01*
X227577517Y-121209983D01*
X227603152Y-121241221D01*
X227622204Y-121276863D01*
X227633935Y-121315534D01*
X227638500Y-121361888D01*
X227638500Y-122438112D01*
X227633935Y-122484466D01*
X227622204Y-122523137D01*
X227603152Y-122558779D01*
X227577517Y-122590017D01*
X227546279Y-122615652D01*
X227510637Y-122634704D01*
X227471966Y-122646435D01*
X227425612Y-122651000D01*
X226774388Y-122651000D01*
X226728034Y-122646435D01*
X226689363Y-122634704D01*
X226653721Y-122615652D01*
X226622483Y-122590017D01*
X226596848Y-122558779D01*
X226577796Y-122523137D01*
X226566065Y-122484466D01*
X226561500Y-122438112D01*
X226561500Y-121361888D01*
X226566065Y-121315534D01*
X226577796Y-121276863D01*
X226596848Y-121241221D01*
X226622483Y-121209983D01*
X226653721Y-121184348D01*
X226689363Y-121165296D01*
X226728034Y-121153565D01*
X226774388Y-121149000D01*
X227425612Y-121149000D01*
X227471966Y-121153565D01*
X227471966Y-121153565D01*
G37*
G36*
X183567091Y-120378085D02*
X183601069Y-120388393D01*
X183632387Y-120405133D01*
X183659839Y-120427661D01*
X183682367Y-120455113D01*
X183699107Y-120486431D01*
X183709415Y-120520409D01*
X183713500Y-120561890D01*
X183713500Y-121238110D01*
X183709415Y-121279591D01*
X183699107Y-121313569D01*
X183682367Y-121344887D01*
X183659839Y-121372339D01*
X183632387Y-121394867D01*
X183601069Y-121411607D01*
X183567091Y-121421915D01*
X183525610Y-121426000D01*
X182924390Y-121426000D01*
X182882909Y-121421915D01*
X182848931Y-121411607D01*
X182817613Y-121394867D01*
X182790161Y-121372339D01*
X182767633Y-121344887D01*
X182750893Y-121313569D01*
X182740585Y-121279591D01*
X182736500Y-121238110D01*
X182736500Y-120561890D01*
X182740585Y-120520409D01*
X182750893Y-120486431D01*
X182767633Y-120455113D01*
X182790161Y-120427661D01*
X182817613Y-120405133D01*
X182848931Y-120388393D01*
X182882909Y-120378085D01*
X182924390Y-120374000D01*
X183525610Y-120374000D01*
X183567091Y-120378085D01*
X183567091Y-120378085D01*
G37*
G36*
X185142091Y-120378085D02*
X185176069Y-120388393D01*
X185207387Y-120405133D01*
X185234839Y-120427661D01*
X185257367Y-120455113D01*
X185274107Y-120486431D01*
X185284415Y-120520409D01*
X185288500Y-120561890D01*
X185288500Y-121238110D01*
X185284415Y-121279591D01*
X185274107Y-121313569D01*
X185257367Y-121344887D01*
X185234839Y-121372339D01*
X185207387Y-121394867D01*
X185176069Y-121411607D01*
X185142091Y-121421915D01*
X185100610Y-121426000D01*
X184499390Y-121426000D01*
X184457909Y-121421915D01*
X184423931Y-121411607D01*
X184392613Y-121394867D01*
X184365161Y-121372339D01*
X184342633Y-121344887D01*
X184325893Y-121313569D01*
X184315585Y-121279591D01*
X184311500Y-121238110D01*
X184311500Y-120561890D01*
X184315585Y-120520409D01*
X184325893Y-120486431D01*
X184342633Y-120455113D01*
X184365161Y-120427661D01*
X184392613Y-120405133D01*
X184423931Y-120388393D01*
X184457909Y-120378085D01*
X184499390Y-120374000D01*
X185100610Y-120374000D01*
X185142091Y-120378085D01*
X185142091Y-120378085D01*
G37*
G36*
X187681000Y-121026000D02*
X186519000Y-121026000D01*
X186519000Y-120274000D01*
X187681000Y-120274000D01*
X187681000Y-121026000D01*
X187681000Y-121026000D01*
G37*
G36*
X189881000Y-121026000D02*
X188719000Y-121026000D01*
X188719000Y-118374000D01*
X189881000Y-118374000D01*
X189881000Y-121026000D01*
X189881000Y-121026000D01*
G37*
G36*
X183542091Y-118278085D02*
X183576069Y-118288393D01*
X183607387Y-118305133D01*
X183634839Y-118327661D01*
X183657367Y-118355113D01*
X183674107Y-118386431D01*
X183684415Y-118420409D01*
X183688500Y-118461890D01*
X183688500Y-119138110D01*
X183684415Y-119179591D01*
X183674107Y-119213569D01*
X183657367Y-119244887D01*
X183634839Y-119272339D01*
X183607387Y-119294867D01*
X183576069Y-119311607D01*
X183542091Y-119321915D01*
X183500610Y-119326000D01*
X182899390Y-119326000D01*
X182857909Y-119321915D01*
X182823931Y-119311607D01*
X182792613Y-119294867D01*
X182765161Y-119272339D01*
X182742633Y-119244887D01*
X182725893Y-119213569D01*
X182715585Y-119179591D01*
X182711500Y-119138110D01*
X182711500Y-118461890D01*
X182715585Y-118420409D01*
X182725893Y-118386431D01*
X182742633Y-118355113D01*
X182765161Y-118327661D01*
X182792613Y-118305133D01*
X182823931Y-118288393D01*
X182857909Y-118278085D01*
X182899390Y-118274000D01*
X183500610Y-118274000D01*
X183542091Y-118278085D01*
X183542091Y-118278085D01*
G37*
G36*
X185117091Y-118278085D02*
X185151069Y-118288393D01*
X185182387Y-118305133D01*
X185209839Y-118327661D01*
X185232367Y-118355113D01*
X185249107Y-118386431D01*
X185259415Y-118420409D01*
X185263500Y-118461890D01*
X185263500Y-119138110D01*
X185259415Y-119179591D01*
X185249107Y-119213569D01*
X185232367Y-119244887D01*
X185209839Y-119272339D01*
X185182387Y-119294867D01*
X185151069Y-119311607D01*
X185117091Y-119321915D01*
X185075610Y-119326000D01*
X184474390Y-119326000D01*
X184432909Y-119321915D01*
X184398931Y-119311607D01*
X184367613Y-119294867D01*
X184340161Y-119272339D01*
X184317633Y-119244887D01*
X184300893Y-119213569D01*
X184290585Y-119179591D01*
X184286500Y-119138110D01*
X184286500Y-118461890D01*
X184290585Y-118420409D01*
X184300893Y-118386431D01*
X184317633Y-118355113D01*
X184340161Y-118327661D01*
X184367613Y-118305133D01*
X184398931Y-118288393D01*
X184432909Y-118278085D01*
X184474390Y-118274000D01*
X185075610Y-118274000D01*
X185117091Y-118278085D01*
X185117091Y-118278085D01*
G37*
G36*
X187681000Y-119126000D02*
X186519000Y-119126000D01*
X186519000Y-118374000D01*
X187681000Y-118374000D01*
X187681000Y-119126000D01*
X187681000Y-119126000D01*
G37*
G36*
X185984466Y-115841065D02*
X186023137Y-115852796D01*
X186058779Y-115871848D01*
X186090017Y-115897483D01*
X186115652Y-115928721D01*
X186134704Y-115964363D01*
X186146435Y-116003034D01*
X186151000Y-116049388D01*
X186151000Y-116700612D01*
X186146435Y-116746966D01*
X186134704Y-116785637D01*
X186115652Y-116821279D01*
X186090017Y-116852517D01*
X186058779Y-116878152D01*
X186023137Y-116897204D01*
X185984466Y-116908935D01*
X185938112Y-116913500D01*
X184861888Y-116913500D01*
X184815534Y-116908935D01*
X184776863Y-116897204D01*
X184741221Y-116878152D01*
X184709983Y-116852517D01*
X184684348Y-116821279D01*
X184665296Y-116785637D01*
X184653565Y-116746966D01*
X184649000Y-116700612D01*
X184649000Y-116049388D01*
X184653565Y-116003034D01*
X184665296Y-115964363D01*
X184684348Y-115928721D01*
X184709983Y-115897483D01*
X184741221Y-115871848D01*
X184776863Y-115852796D01*
X184815534Y-115841065D01*
X184861888Y-115836500D01*
X185938112Y-115836500D01*
X185984466Y-115841065D01*
X185984466Y-115841065D01*
G37*
G36*
X192117091Y-115378085D02*
X192151069Y-115388393D01*
X192182387Y-115405133D01*
X192209839Y-115427661D01*
X192232367Y-115455113D01*
X192249107Y-115486431D01*
X192259415Y-115520409D01*
X192263500Y-115561890D01*
X192263500Y-116238110D01*
X192259415Y-116279591D01*
X192249107Y-116313569D01*
X192232367Y-116344887D01*
X192209839Y-116372339D01*
X192182387Y-116394867D01*
X192151069Y-116411607D01*
X192117091Y-116421915D01*
X192075610Y-116426000D01*
X191474390Y-116426000D01*
X191432909Y-116421915D01*
X191398931Y-116411607D01*
X191367613Y-116394867D01*
X191340161Y-116372339D01*
X191317633Y-116344887D01*
X191300893Y-116313569D01*
X191290585Y-116279591D01*
X191286500Y-116238110D01*
X191286500Y-115561890D01*
X191290585Y-115520409D01*
X191300893Y-115486431D01*
X191317633Y-115455113D01*
X191340161Y-115427661D01*
X191367613Y-115405133D01*
X191398931Y-115388393D01*
X191432909Y-115378085D01*
X191474390Y-115374000D01*
X192075610Y-115374000D01*
X192117091Y-115378085D01*
X192117091Y-115378085D01*
G37*
G36*
X190542091Y-115378085D02*
X190576069Y-115388393D01*
X190607387Y-115405133D01*
X190634839Y-115427661D01*
X190657367Y-115455113D01*
X190674107Y-115486431D01*
X190684415Y-115520409D01*
X190688500Y-115561890D01*
X190688500Y-116238110D01*
X190684415Y-116279591D01*
X190674107Y-116313569D01*
X190657367Y-116344887D01*
X190634839Y-116372339D01*
X190607387Y-116394867D01*
X190576069Y-116411607D01*
X190542091Y-116421915D01*
X190500610Y-116426000D01*
X189899390Y-116426000D01*
X189857909Y-116421915D01*
X189823931Y-116411607D01*
X189792613Y-116394867D01*
X189765161Y-116372339D01*
X189742633Y-116344887D01*
X189725893Y-116313569D01*
X189715585Y-116279591D01*
X189711500Y-116238110D01*
X189711500Y-115561890D01*
X189715585Y-115520409D01*
X189725893Y-115486431D01*
X189742633Y-115455113D01*
X189765161Y-115427661D01*
X189792613Y-115405133D01*
X189823931Y-115388393D01*
X189857909Y-115378085D01*
X189899390Y-115374000D01*
X190500610Y-115374000D01*
X190542091Y-115378085D01*
X190542091Y-115378085D01*
G37*
G36*
X228626000Y-116066000D02*
X226574000Y-116066000D01*
X226574000Y-115364000D01*
X228626000Y-115364000D01*
X228626000Y-116066000D01*
X228626000Y-116066000D01*
G37*
G36*
X219226000Y-116066000D02*
X217174000Y-116066000D01*
X217174000Y-115364000D01*
X219226000Y-115364000D01*
X219226000Y-116066000D01*
X219226000Y-116066000D01*
G37*
G36*
X185984466Y-113966065D02*
X186023137Y-113977796D01*
X186058779Y-113996848D01*
X186090017Y-114022483D01*
X186115652Y-114053721D01*
X186134704Y-114089363D01*
X186146435Y-114128034D01*
X186151000Y-114174388D01*
X186151000Y-114825612D01*
X186146435Y-114871966D01*
X186134704Y-114910637D01*
X186115652Y-114946279D01*
X186090017Y-114977517D01*
X186058779Y-115003152D01*
X186023137Y-115022204D01*
X185984466Y-115033935D01*
X185938112Y-115038500D01*
X184861888Y-115038500D01*
X184815534Y-115033935D01*
X184776863Y-115022204D01*
X184741221Y-115003152D01*
X184709983Y-114977517D01*
X184684348Y-114946279D01*
X184665296Y-114910637D01*
X184653565Y-114871966D01*
X184649000Y-114825612D01*
X184649000Y-114174388D01*
X184653565Y-114128034D01*
X184665296Y-114089363D01*
X184684348Y-114053721D01*
X184709983Y-114022483D01*
X184741221Y-113996848D01*
X184776863Y-113977796D01*
X184815534Y-113966065D01*
X184861888Y-113961500D01*
X185938112Y-113961500D01*
X185984466Y-113966065D01*
X185984466Y-113966065D01*
G37*
G36*
X228626000Y-114796000D02*
X226574000Y-114796000D01*
X226574000Y-114094000D01*
X228626000Y-114094000D01*
X228626000Y-114796000D01*
X228626000Y-114796000D01*
G37*
G36*
X219226000Y-114796000D02*
X217174000Y-114796000D01*
X217174000Y-114094000D01*
X219226000Y-114094000D01*
X219226000Y-114796000D01*
X219226000Y-114796000D01*
G37*
G36*
X219226000Y-113526000D02*
X217174000Y-113526000D01*
X217174000Y-112824000D01*
X219226000Y-112824000D01*
X219226000Y-113526000D01*
X219226000Y-113526000D01*
G37*
G36*
X228626000Y-113526000D02*
X226574000Y-113526000D01*
X226574000Y-112824000D01*
X228626000Y-112824000D01*
X228626000Y-113526000D01*
X228626000Y-113526000D01*
G37*
G36*
X190471966Y-111853565D02*
X190510637Y-111865296D01*
X190546279Y-111884348D01*
X190577517Y-111909983D01*
X190603152Y-111941221D01*
X190622204Y-111976863D01*
X190633935Y-112015534D01*
X190638500Y-112061888D01*
X190638500Y-113138112D01*
X190633935Y-113184466D01*
X190622204Y-113223137D01*
X190603152Y-113258779D01*
X190577517Y-113290017D01*
X190546279Y-113315652D01*
X190510637Y-113334704D01*
X190471966Y-113346435D01*
X190425612Y-113351000D01*
X189774388Y-113351000D01*
X189728034Y-113346435D01*
X189689363Y-113334704D01*
X189653721Y-113315652D01*
X189622483Y-113290017D01*
X189596848Y-113258779D01*
X189577796Y-113223137D01*
X189566065Y-113184466D01*
X189561500Y-113138112D01*
X189561500Y-112061888D01*
X189566065Y-112015534D01*
X189577796Y-111976863D01*
X189596848Y-111941221D01*
X189622483Y-111909983D01*
X189653721Y-111884348D01*
X189689363Y-111865296D01*
X189728034Y-111853565D01*
X189774388Y-111849000D01*
X190425612Y-111849000D01*
X190471966Y-111853565D01*
X190471966Y-111853565D01*
G37*
G36*
X192346966Y-111853565D02*
X192385637Y-111865296D01*
X192421279Y-111884348D01*
X192452517Y-111909983D01*
X192478152Y-111941221D01*
X192497204Y-111976863D01*
X192508935Y-112015534D01*
X192513500Y-112061888D01*
X192513500Y-113138112D01*
X192508935Y-113184466D01*
X192497204Y-113223137D01*
X192478152Y-113258779D01*
X192452517Y-113290017D01*
X192421279Y-113315652D01*
X192385637Y-113334704D01*
X192346966Y-113346435D01*
X192300612Y-113351000D01*
X191649388Y-113351000D01*
X191603034Y-113346435D01*
X191564363Y-113334704D01*
X191528721Y-113315652D01*
X191497483Y-113290017D01*
X191471848Y-113258779D01*
X191452796Y-113223137D01*
X191441065Y-113184466D01*
X191436500Y-113138112D01*
X191436500Y-112061888D01*
X191441065Y-112015534D01*
X191452796Y-111976863D01*
X191471848Y-111941221D01*
X191497483Y-111909983D01*
X191528721Y-111884348D01*
X191564363Y-111865296D01*
X191603034Y-111853565D01*
X191649388Y-111849000D01*
X192300612Y-111849000D01*
X192346966Y-111853565D01*
X192346966Y-111853565D01*
G37*
G36*
X228626000Y-112256000D02*
X226574000Y-112256000D01*
X226574000Y-111554000D01*
X228626000Y-111554000D01*
X228626000Y-112256000D01*
X228626000Y-112256000D01*
G37*
G36*
X219226000Y-112256000D02*
X217174000Y-112256000D01*
X217174000Y-111554000D01*
X219226000Y-111554000D01*
X219226000Y-112256000D01*
X219226000Y-112256000D01*
G37*
G36*
X184171966Y-109753565D02*
X184210637Y-109765296D01*
X184246279Y-109784348D01*
X184277517Y-109809983D01*
X184303152Y-109841221D01*
X184322204Y-109876863D01*
X184333935Y-109915534D01*
X184338500Y-109961888D01*
X184338500Y-111038112D01*
X184333935Y-111084466D01*
X184322204Y-111123137D01*
X184303152Y-111158779D01*
X184277517Y-111190017D01*
X184246279Y-111215652D01*
X184210637Y-111234704D01*
X184171966Y-111246435D01*
X184125612Y-111251000D01*
X183474388Y-111251000D01*
X183428034Y-111246435D01*
X183389363Y-111234704D01*
X183353721Y-111215652D01*
X183322483Y-111190017D01*
X183296848Y-111158779D01*
X183277796Y-111123137D01*
X183266065Y-111084466D01*
X183261500Y-111038112D01*
X183261500Y-109961888D01*
X183266065Y-109915534D01*
X183277796Y-109876863D01*
X183296848Y-109841221D01*
X183322483Y-109809983D01*
X183353721Y-109784348D01*
X183389363Y-109765296D01*
X183428034Y-109753565D01*
X183474388Y-109749000D01*
X184125612Y-109749000D01*
X184171966Y-109753565D01*
X184171966Y-109753565D01*
G37*
G36*
X186046966Y-109753565D02*
X186085637Y-109765296D01*
X186121279Y-109784348D01*
X186152517Y-109809983D01*
X186178152Y-109841221D01*
X186197204Y-109876863D01*
X186208935Y-109915534D01*
X186213500Y-109961888D01*
X186213500Y-111038112D01*
X186208935Y-111084466D01*
X186197204Y-111123137D01*
X186178152Y-111158779D01*
X186152517Y-111190017D01*
X186121279Y-111215652D01*
X186085637Y-111234704D01*
X186046966Y-111246435D01*
X186000612Y-111251000D01*
X185349388Y-111251000D01*
X185303034Y-111246435D01*
X185264363Y-111234704D01*
X185228721Y-111215652D01*
X185197483Y-111190017D01*
X185171848Y-111158779D01*
X185152796Y-111123137D01*
X185141065Y-111084466D01*
X185136500Y-111038112D01*
X185136500Y-109961888D01*
X185141065Y-109915534D01*
X185152796Y-109876863D01*
X185171848Y-109841221D01*
X185197483Y-109809983D01*
X185228721Y-109784348D01*
X185264363Y-109765296D01*
X185303034Y-109753565D01*
X185349388Y-109749000D01*
X186000612Y-109749000D01*
X186046966Y-109753565D01*
X186046966Y-109753565D01*
G37*
G36*
X228626000Y-110986000D02*
X226574000Y-110986000D01*
X226574000Y-110284000D01*
X228626000Y-110284000D01*
X228626000Y-110986000D01*
X228626000Y-110986000D01*
G37*
G36*
X219226000Y-110986000D02*
X217174000Y-110986000D01*
X217174000Y-110284000D01*
X219226000Y-110284000D01*
X219226000Y-110986000D01*
X219226000Y-110986000D01*
G37*
G36*
X219226000Y-109716000D02*
X217174000Y-109716000D01*
X217174000Y-109014000D01*
X219226000Y-109014000D01*
X219226000Y-109716000D01*
X219226000Y-109716000D01*
G37*
G36*
X228626000Y-109716000D02*
X226574000Y-109716000D01*
X226574000Y-109014000D01*
X228626000Y-109014000D01*
X228626000Y-109716000D01*
X228626000Y-109716000D01*
G37*
G36*
X228626000Y-108446000D02*
X226574000Y-108446000D01*
X226574000Y-107744000D01*
X228626000Y-107744000D01*
X228626000Y-108446000D01*
X228626000Y-108446000D01*
G37*
G36*
X219226000Y-108446000D02*
X217174000Y-108446000D01*
X217174000Y-107744000D01*
X219226000Y-107744000D01*
X219226000Y-108446000D01*
X219226000Y-108446000D01*
G37*
G36*
X228626000Y-107176000D02*
X226574000Y-107176000D01*
X226574000Y-106474000D01*
X228626000Y-106474000D01*
X228626000Y-107176000D01*
X228626000Y-107176000D01*
G37*
G36*
X219226000Y-107176000D02*
X217174000Y-107176000D01*
X217174000Y-106474000D01*
X219226000Y-106474000D01*
X219226000Y-107176000D01*
X219226000Y-107176000D01*
G37*
G36*
X228626000Y-105906000D02*
X226574000Y-105906000D01*
X226574000Y-105204000D01*
X228626000Y-105204000D01*
X228626000Y-105906000D01*
X228626000Y-105906000D01*
G37*
G36*
X219226000Y-105906000D02*
X217174000Y-105906000D01*
X217174000Y-105204000D01*
X219226000Y-105204000D01*
X219226000Y-105906000D01*
X219226000Y-105906000D01*
G37*
G36*
X192471966Y-103953565D02*
X192510637Y-103965296D01*
X192546279Y-103984348D01*
X192577517Y-104009983D01*
X192603152Y-104041221D01*
X192622204Y-104076863D01*
X192633935Y-104115534D01*
X192638500Y-104161888D01*
X192638500Y-105238112D01*
X192633935Y-105284466D01*
X192622204Y-105323137D01*
X192603152Y-105358779D01*
X192577517Y-105390017D01*
X192546279Y-105415652D01*
X192510637Y-105434704D01*
X192471966Y-105446435D01*
X192425612Y-105451000D01*
X191774388Y-105451000D01*
X191728034Y-105446435D01*
X191689363Y-105434704D01*
X191653721Y-105415652D01*
X191622483Y-105390017D01*
X191596848Y-105358779D01*
X191577796Y-105323137D01*
X191566065Y-105284466D01*
X191561500Y-105238112D01*
X191561500Y-104161888D01*
X191566065Y-104115534D01*
X191577796Y-104076863D01*
X191596848Y-104041221D01*
X191622483Y-104009983D01*
X191653721Y-103984348D01*
X191689363Y-103965296D01*
X191728034Y-103953565D01*
X191774388Y-103949000D01*
X192425612Y-103949000D01*
X192471966Y-103953565D01*
X192471966Y-103953565D01*
G37*
G36*
X190596966Y-103953565D02*
X190635637Y-103965296D01*
X190671279Y-103984348D01*
X190702517Y-104009983D01*
X190728152Y-104041221D01*
X190747204Y-104076863D01*
X190758935Y-104115534D01*
X190763500Y-104161888D01*
X190763500Y-105238112D01*
X190758935Y-105284466D01*
X190747204Y-105323137D01*
X190728152Y-105358779D01*
X190702517Y-105390017D01*
X190671279Y-105415652D01*
X190635637Y-105434704D01*
X190596966Y-105446435D01*
X190550612Y-105451000D01*
X189899388Y-105451000D01*
X189853034Y-105446435D01*
X189814363Y-105434704D01*
X189778721Y-105415652D01*
X189747483Y-105390017D01*
X189721848Y-105358779D01*
X189702796Y-105323137D01*
X189691065Y-105284466D01*
X189686500Y-105238112D01*
X189686500Y-104161888D01*
X189691065Y-104115534D01*
X189702796Y-104076863D01*
X189721848Y-104041221D01*
X189747483Y-104009983D01*
X189778721Y-103984348D01*
X189814363Y-103965296D01*
X189853034Y-103953565D01*
X189899388Y-103949000D01*
X190550612Y-103949000D01*
X190596966Y-103953565D01*
X190596966Y-103953565D01*
G37*
G36*
X228626000Y-104636000D02*
X226574000Y-104636000D01*
X226574000Y-103934000D01*
X228626000Y-103934000D01*
X228626000Y-104636000D01*
X228626000Y-104636000D01*
G37*
G36*
X219226000Y-104636000D02*
X217174000Y-104636000D01*
X217174000Y-103934000D01*
X219226000Y-103934000D01*
X219226000Y-104636000D01*
X219226000Y-104636000D01*
G37*
G36*
X190642091Y-100178085D02*
X190676069Y-100188393D01*
X190707387Y-100205133D01*
X190734839Y-100227661D01*
X190757367Y-100255113D01*
X190774107Y-100286431D01*
X190784415Y-100320409D01*
X190788500Y-100361890D01*
X190788500Y-101038110D01*
X190784415Y-101079591D01*
X190774107Y-101113569D01*
X190757367Y-101144887D01*
X190734839Y-101172339D01*
X190707387Y-101194867D01*
X190676069Y-101211607D01*
X190642091Y-101221915D01*
X190600610Y-101226000D01*
X189999390Y-101226000D01*
X189957909Y-101221915D01*
X189923931Y-101211607D01*
X189892613Y-101194867D01*
X189865161Y-101172339D01*
X189842633Y-101144887D01*
X189825893Y-101113569D01*
X189815585Y-101079591D01*
X189811500Y-101038110D01*
X189811500Y-100361890D01*
X189815585Y-100320409D01*
X189825893Y-100286431D01*
X189842633Y-100255113D01*
X189865161Y-100227661D01*
X189892613Y-100205133D01*
X189923931Y-100188393D01*
X189957909Y-100178085D01*
X189999390Y-100174000D01*
X190600610Y-100174000D01*
X190642091Y-100178085D01*
X190642091Y-100178085D01*
G37*
G36*
X192217091Y-100178085D02*
X192251069Y-100188393D01*
X192282387Y-100205133D01*
X192309839Y-100227661D01*
X192332367Y-100255113D01*
X192349107Y-100286431D01*
X192359415Y-100320409D01*
X192363500Y-100361890D01*
X192363500Y-101038110D01*
X192359415Y-101079591D01*
X192349107Y-101113569D01*
X192332367Y-101144887D01*
X192309839Y-101172339D01*
X192282387Y-101194867D01*
X192251069Y-101211607D01*
X192217091Y-101221915D01*
X192175610Y-101226000D01*
X191574390Y-101226000D01*
X191532909Y-101221915D01*
X191498931Y-101211607D01*
X191467613Y-101194867D01*
X191440161Y-101172339D01*
X191417633Y-101144887D01*
X191400893Y-101113569D01*
X191390585Y-101079591D01*
X191386500Y-101038110D01*
X191386500Y-100361890D01*
X191390585Y-100320409D01*
X191400893Y-100286431D01*
X191417633Y-100255113D01*
X191440161Y-100227661D01*
X191467613Y-100205133D01*
X191498931Y-100188393D01*
X191532909Y-100178085D01*
X191574390Y-100174000D01*
X192175610Y-100174000D01*
X192217091Y-100178085D01*
X192217091Y-100178085D01*
G37*
G36*
X229129591Y-99478085D02*
X229163569Y-99488393D01*
X229194887Y-99505133D01*
X229222339Y-99527661D01*
X229244867Y-99555113D01*
X229261607Y-99586431D01*
X229271915Y-99620409D01*
X229276000Y-99661890D01*
X229276000Y-100338110D01*
X229271915Y-100379591D01*
X229261607Y-100413569D01*
X229244867Y-100444887D01*
X229222339Y-100472339D01*
X229194887Y-100494867D01*
X229163569Y-100511607D01*
X229129591Y-100521915D01*
X229088110Y-100526000D01*
X228486890Y-100526000D01*
X228445409Y-100521915D01*
X228411431Y-100511607D01*
X228380113Y-100494867D01*
X228352661Y-100472339D01*
X228330133Y-100444887D01*
X228313393Y-100413569D01*
X228303085Y-100379591D01*
X228299000Y-100338110D01*
X228299000Y-99661890D01*
X228303085Y-99620409D01*
X228313393Y-99586431D01*
X228330133Y-99555113D01*
X228352661Y-99527661D01*
X228380113Y-99505133D01*
X228411431Y-99488393D01*
X228445409Y-99478085D01*
X228486890Y-99474000D01*
X229088110Y-99474000D01*
X229129591Y-99478085D01*
X229129591Y-99478085D01*
G37*
G36*
X227554591Y-99478085D02*
X227588569Y-99488393D01*
X227619887Y-99505133D01*
X227647339Y-99527661D01*
X227669867Y-99555113D01*
X227686607Y-99586431D01*
X227696915Y-99620409D01*
X227701000Y-99661890D01*
X227701000Y-100338110D01*
X227696915Y-100379591D01*
X227686607Y-100413569D01*
X227669867Y-100444887D01*
X227647339Y-100472339D01*
X227619887Y-100494867D01*
X227588569Y-100511607D01*
X227554591Y-100521915D01*
X227513110Y-100526000D01*
X226911890Y-100526000D01*
X226870409Y-100521915D01*
X226836431Y-100511607D01*
X226805113Y-100494867D01*
X226777661Y-100472339D01*
X226755133Y-100444887D01*
X226738393Y-100413569D01*
X226728085Y-100379591D01*
X226724000Y-100338110D01*
X226724000Y-99661890D01*
X226728085Y-99620409D01*
X226738393Y-99586431D01*
X226755133Y-99555113D01*
X226777661Y-99527661D01*
X226805113Y-99505133D01*
X226836431Y-99488393D01*
X226870409Y-99478085D01*
X226911890Y-99474000D01*
X227513110Y-99474000D01*
X227554591Y-99478085D01*
X227554591Y-99478085D01*
G37*
G36*
X190676000Y-97451000D02*
X189574000Y-97451000D01*
X189574000Y-95549000D01*
X190676000Y-95549000D01*
X190676000Y-97451000D01*
X190676000Y-97451000D01*
G37*
G36*
X189176000Y-97451000D02*
X188074000Y-97451000D01*
X188074000Y-95549000D01*
X189176000Y-95549000D01*
X189176000Y-97451000D01*
X189176000Y-97451000D01*
G37*
G36*
X229129591Y-94478085D02*
X229163569Y-94488393D01*
X229194887Y-94505133D01*
X229222339Y-94527661D01*
X229244867Y-94555113D01*
X229261607Y-94586431D01*
X229271915Y-94620409D01*
X229276000Y-94661890D01*
X229276000Y-95338110D01*
X229271915Y-95379591D01*
X229261607Y-95413569D01*
X229244867Y-95444887D01*
X229222339Y-95472339D01*
X229194887Y-95494867D01*
X229163569Y-95511607D01*
X229129591Y-95521915D01*
X229088110Y-95526000D01*
X228486890Y-95526000D01*
X228445409Y-95521915D01*
X228411431Y-95511607D01*
X228380113Y-95494867D01*
X228352661Y-95472339D01*
X228330133Y-95444887D01*
X228313393Y-95413569D01*
X228303085Y-95379591D01*
X228299000Y-95338110D01*
X228299000Y-94661890D01*
X228303085Y-94620409D01*
X228313393Y-94586431D01*
X228330133Y-94555113D01*
X228352661Y-94527661D01*
X228380113Y-94505133D01*
X228411431Y-94488393D01*
X228445409Y-94478085D01*
X228486890Y-94474000D01*
X229088110Y-94474000D01*
X229129591Y-94478085D01*
X229129591Y-94478085D01*
G37*
G36*
X227554591Y-94478085D02*
X227588569Y-94488393D01*
X227619887Y-94505133D01*
X227647339Y-94527661D01*
X227669867Y-94555113D01*
X227686607Y-94586431D01*
X227696915Y-94620409D01*
X227701000Y-94661890D01*
X227701000Y-95338110D01*
X227696915Y-95379591D01*
X227686607Y-95413569D01*
X227669867Y-95444887D01*
X227647339Y-95472339D01*
X227619887Y-95494867D01*
X227588569Y-95511607D01*
X227554591Y-95521915D01*
X227513110Y-95526000D01*
X226911890Y-95526000D01*
X226870409Y-95521915D01*
X226836431Y-95511607D01*
X226805113Y-95494867D01*
X226777661Y-95472339D01*
X226755133Y-95444887D01*
X226738393Y-95413569D01*
X226728085Y-95379591D01*
X226724000Y-95338110D01*
X226724000Y-94661890D01*
X226728085Y-94620409D01*
X226738393Y-94586431D01*
X226755133Y-94555113D01*
X226777661Y-94527661D01*
X226805113Y-94505133D01*
X226836431Y-94488393D01*
X226870409Y-94478085D01*
X226911890Y-94474000D01*
X227513110Y-94474000D01*
X227554591Y-94478085D01*
X227554591Y-94478085D01*
G37*
G36*
X181862812Y-89033624D02*
X182026784Y-89101544D01*
X182174354Y-89200147D01*
X182299853Y-89325646D01*
X182398456Y-89473216D01*
X182466376Y-89637188D01*
X182501000Y-89811259D01*
X182501000Y-89988741D01*
X182466376Y-90162812D01*
X182398456Y-90326784D01*
X182299853Y-90474354D01*
X182174354Y-90599853D01*
X182026784Y-90698456D01*
X181862812Y-90766376D01*
X181688741Y-90801000D01*
X181511259Y-90801000D01*
X181337188Y-90766376D01*
X181173216Y-90698456D01*
X181025646Y-90599853D01*
X180900147Y-90474354D01*
X180801544Y-90326784D01*
X180733624Y-90162812D01*
X180699000Y-89988741D01*
X180699000Y-89811259D01*
X180733624Y-89637188D01*
X180801544Y-89473216D01*
X180900147Y-89325646D01*
X181025646Y-89200147D01*
X181173216Y-89101544D01*
X181337188Y-89033624D01*
X181511259Y-88999000D01*
X181688741Y-88999000D01*
X181862812Y-89033624D01*
X181862812Y-89033624D01*
G37*
G36*
X229129591Y-89478085D02*
X229163569Y-89488393D01*
X229194887Y-89505133D01*
X229222339Y-89527661D01*
X229244867Y-89555113D01*
X229261607Y-89586431D01*
X229271915Y-89620409D01*
X229276000Y-89661890D01*
X229276000Y-90338110D01*
X229271915Y-90379591D01*
X229261607Y-90413569D01*
X229244867Y-90444887D01*
X229222339Y-90472339D01*
X229194887Y-90494867D01*
X229163569Y-90511607D01*
X229129591Y-90521915D01*
X229088110Y-90526000D01*
X228486890Y-90526000D01*
X228445409Y-90521915D01*
X228411431Y-90511607D01*
X228380113Y-90494867D01*
X228352661Y-90472339D01*
X228330133Y-90444887D01*
X228313393Y-90413569D01*
X228303085Y-90379591D01*
X228299000Y-90338110D01*
X228299000Y-89661890D01*
X228303085Y-89620409D01*
X228313393Y-89586431D01*
X228330133Y-89555113D01*
X228352661Y-89527661D01*
X228380113Y-89505133D01*
X228411431Y-89488393D01*
X228445409Y-89478085D01*
X228486890Y-89474000D01*
X229088110Y-89474000D01*
X229129591Y-89478085D01*
X229129591Y-89478085D01*
G37*
G36*
X227554591Y-89478085D02*
X227588569Y-89488393D01*
X227619887Y-89505133D01*
X227647339Y-89527661D01*
X227669867Y-89555113D01*
X227686607Y-89586431D01*
X227696915Y-89620409D01*
X227701000Y-89661890D01*
X227701000Y-90338110D01*
X227696915Y-90379591D01*
X227686607Y-90413569D01*
X227669867Y-90444887D01*
X227647339Y-90472339D01*
X227619887Y-90494867D01*
X227588569Y-90511607D01*
X227554591Y-90521915D01*
X227513110Y-90526000D01*
X226911890Y-90526000D01*
X226870409Y-90521915D01*
X226836431Y-90511607D01*
X226805113Y-90494867D01*
X226777661Y-90472339D01*
X226755133Y-90444887D01*
X226738393Y-90413569D01*
X226728085Y-90379591D01*
X226724000Y-90338110D01*
X226724000Y-89661890D01*
X226728085Y-89620409D01*
X226738393Y-89586431D01*
X226755133Y-89555113D01*
X226777661Y-89527661D01*
X226805113Y-89505133D01*
X226836431Y-89488393D01*
X226870409Y-89478085D01*
X226911890Y-89474000D01*
X227513110Y-89474000D01*
X227554591Y-89478085D01*
X227554591Y-89478085D01*
G37*
G36*
X181710443Y-86465519D02*
X181776627Y-86472037D01*
X181889853Y-86506384D01*
X181946467Y-86523557D01*
X182085087Y-86597652D01*
X182102991Y-86607222D01*
X182138729Y-86636552D01*
X182240186Y-86719814D01*
X182323448Y-86821271D01*
X182352778Y-86857009D01*
X182352779Y-86857011D01*
X182436443Y-87013533D01*
X182436443Y-87013534D01*
X182487963Y-87183373D01*
X182505359Y-87360000D01*
X182487963Y-87536627D01*
X182453616Y-87649853D01*
X182436443Y-87706467D01*
X182362348Y-87845087D01*
X182352778Y-87862991D01*
X182323448Y-87898729D01*
X182240186Y-88000186D01*
X182138729Y-88083448D01*
X182102991Y-88112778D01*
X182102989Y-88112779D01*
X181946467Y-88196443D01*
X181889853Y-88213616D01*
X181776627Y-88247963D01*
X181710443Y-88254481D01*
X181644260Y-88261000D01*
X181555740Y-88261000D01*
X181489557Y-88254481D01*
X181423373Y-88247963D01*
X181310147Y-88213616D01*
X181253533Y-88196443D01*
X181097011Y-88112779D01*
X181097009Y-88112778D01*
X181061271Y-88083448D01*
X180959814Y-88000186D01*
X180876552Y-87898729D01*
X180847222Y-87862991D01*
X180837652Y-87845087D01*
X180763557Y-87706467D01*
X180746384Y-87649853D01*
X180712037Y-87536627D01*
X180694641Y-87360000D01*
X180712037Y-87183373D01*
X180763557Y-87013534D01*
X180763557Y-87013533D01*
X180847221Y-86857011D01*
X180847222Y-86857009D01*
X180876552Y-86821271D01*
X180959814Y-86719814D01*
X181061271Y-86636552D01*
X181097009Y-86607222D01*
X181114913Y-86597652D01*
X181253533Y-86523557D01*
X181310147Y-86506384D01*
X181423373Y-86472037D01*
X181489557Y-86465519D01*
X181555740Y-86459000D01*
X181644260Y-86459000D01*
X181710443Y-86465519D01*
X181710443Y-86465519D01*
G37*
G36*
X181710442Y-83925518D02*
X181776627Y-83932037D01*
X181889853Y-83966384D01*
X181946467Y-83983557D01*
X182085087Y-84057652D01*
X182102991Y-84067222D01*
X182138729Y-84096552D01*
X182240186Y-84179814D01*
X182323448Y-84281271D01*
X182352778Y-84317009D01*
X182352779Y-84317011D01*
X182436443Y-84473533D01*
X182449071Y-84515164D01*
X182487963Y-84643373D01*
X182505359Y-84820000D01*
X182487963Y-84996627D01*
X182453616Y-85109853D01*
X182436443Y-85166467D01*
X182374822Y-85281750D01*
X182352778Y-85322991D01*
X182347517Y-85329401D01*
X182240186Y-85460186D01*
X182159990Y-85526000D01*
X182102991Y-85572778D01*
X182102989Y-85572779D01*
X181946467Y-85656443D01*
X181889853Y-85673616D01*
X181776627Y-85707963D01*
X181710443Y-85714481D01*
X181644260Y-85721000D01*
X181555740Y-85721000D01*
X181489557Y-85714481D01*
X181423373Y-85707963D01*
X181310147Y-85673616D01*
X181253533Y-85656443D01*
X181097011Y-85572779D01*
X181097009Y-85572778D01*
X181040010Y-85526000D01*
X180959814Y-85460186D01*
X180852483Y-85329401D01*
X180847222Y-85322991D01*
X180825178Y-85281750D01*
X180763557Y-85166467D01*
X180746384Y-85109853D01*
X180712037Y-84996627D01*
X180694641Y-84820000D01*
X180712037Y-84643373D01*
X180750929Y-84515164D01*
X180763557Y-84473533D01*
X180847221Y-84317011D01*
X180847222Y-84317009D01*
X180876552Y-84281271D01*
X180959814Y-84179814D01*
X181061271Y-84096552D01*
X181097009Y-84067222D01*
X181114913Y-84057652D01*
X181253533Y-83983557D01*
X181310147Y-83966384D01*
X181423373Y-83932037D01*
X181489558Y-83925518D01*
X181555740Y-83919000D01*
X181644260Y-83919000D01*
X181710442Y-83925518D01*
X181710442Y-83925518D01*
G37*
G36*
X227554591Y-84478085D02*
X227588569Y-84488393D01*
X227619887Y-84505133D01*
X227647339Y-84527661D01*
X227669867Y-84555113D01*
X227686607Y-84586431D01*
X227696915Y-84620409D01*
X227701000Y-84661890D01*
X227701000Y-85338110D01*
X227696915Y-85379591D01*
X227686607Y-85413569D01*
X227669867Y-85444887D01*
X227647339Y-85472339D01*
X227619887Y-85494867D01*
X227588569Y-85511607D01*
X227554591Y-85521915D01*
X227513110Y-85526000D01*
X226911890Y-85526000D01*
X226870409Y-85521915D01*
X226836431Y-85511607D01*
X226805113Y-85494867D01*
X226777661Y-85472339D01*
X226755133Y-85444887D01*
X226738393Y-85413569D01*
X226728085Y-85379591D01*
X226724000Y-85338110D01*
X226724000Y-84661890D01*
X226728085Y-84620409D01*
X226738393Y-84586431D01*
X226755133Y-84555113D01*
X226777661Y-84527661D01*
X226805113Y-84505133D01*
X226836431Y-84488393D01*
X226870409Y-84478085D01*
X226911890Y-84474000D01*
X227513110Y-84474000D01*
X227554591Y-84478085D01*
X227554591Y-84478085D01*
G37*
G36*
X229129591Y-84478085D02*
X229163569Y-84488393D01*
X229194887Y-84505133D01*
X229222339Y-84527661D01*
X229244867Y-84555113D01*
X229261607Y-84586431D01*
X229271915Y-84620409D01*
X229276000Y-84661890D01*
X229276000Y-85338110D01*
X229271915Y-85379591D01*
X229261607Y-85413569D01*
X229244867Y-85444887D01*
X229222339Y-85472339D01*
X229194887Y-85494867D01*
X229163569Y-85511607D01*
X229129591Y-85521915D01*
X229088110Y-85526000D01*
X228486890Y-85526000D01*
X228445409Y-85521915D01*
X228411431Y-85511607D01*
X228380113Y-85494867D01*
X228352661Y-85472339D01*
X228330133Y-85444887D01*
X228313393Y-85413569D01*
X228303085Y-85379591D01*
X228299000Y-85338110D01*
X228299000Y-84661890D01*
X228303085Y-84620409D01*
X228313393Y-84586431D01*
X228330133Y-84555113D01*
X228352661Y-84527661D01*
X228380113Y-84505133D01*
X228411431Y-84488393D01*
X228445409Y-84478085D01*
X228486890Y-84474000D01*
X229088110Y-84474000D01*
X229129591Y-84478085D01*
X229129591Y-84478085D01*
G37*
G36*
X181710443Y-81385519D02*
X181776627Y-81392037D01*
X181889853Y-81426384D01*
X181946467Y-81443557D01*
X182085087Y-81517652D01*
X182102991Y-81527222D01*
X182138729Y-81556552D01*
X182240186Y-81639814D01*
X182323448Y-81741271D01*
X182352778Y-81777009D01*
X182352779Y-81777011D01*
X182436443Y-81933533D01*
X182436443Y-81933534D01*
X182487963Y-82103373D01*
X182505359Y-82280000D01*
X182487963Y-82456627D01*
X182453616Y-82569853D01*
X182436443Y-82626467D01*
X182362348Y-82765087D01*
X182352778Y-82782991D01*
X182323448Y-82818729D01*
X182240186Y-82920186D01*
X182138729Y-83003448D01*
X182102991Y-83032778D01*
X182102989Y-83032779D01*
X181946467Y-83116443D01*
X181889853Y-83133616D01*
X181776627Y-83167963D01*
X181710443Y-83174481D01*
X181644260Y-83181000D01*
X181555740Y-83181000D01*
X181489557Y-83174481D01*
X181423373Y-83167963D01*
X181310147Y-83133616D01*
X181253533Y-83116443D01*
X181097011Y-83032779D01*
X181097009Y-83032778D01*
X181061271Y-83003448D01*
X180959814Y-82920186D01*
X180876552Y-82818729D01*
X180847222Y-82782991D01*
X180837652Y-82765087D01*
X180763557Y-82626467D01*
X180746384Y-82569853D01*
X180712037Y-82456627D01*
X180694641Y-82280000D01*
X180712037Y-82103373D01*
X180763557Y-81933534D01*
X180763557Y-81933533D01*
X180847221Y-81777011D01*
X180847222Y-81777009D01*
X180876552Y-81741271D01*
X180959814Y-81639814D01*
X181061271Y-81556552D01*
X181097009Y-81527222D01*
X181114913Y-81517652D01*
X181253533Y-81443557D01*
X181310147Y-81426384D01*
X181423373Y-81392037D01*
X181489557Y-81385519D01*
X181555740Y-81379000D01*
X181644260Y-81379000D01*
X181710443Y-81385519D01*
X181710443Y-81385519D01*
G37*
G36*
X181710443Y-78845519D02*
X181776627Y-78852037D01*
X181889853Y-78886384D01*
X181946467Y-78903557D01*
X182085087Y-78977652D01*
X182102991Y-78987222D01*
X182138729Y-79016552D01*
X182240186Y-79099814D01*
X182323448Y-79201271D01*
X182352778Y-79237009D01*
X182352779Y-79237011D01*
X182436443Y-79393533D01*
X182436443Y-79393534D01*
X182487963Y-79563373D01*
X182505359Y-79740000D01*
X182487963Y-79916627D01*
X182453616Y-80029853D01*
X182436443Y-80086467D01*
X182362348Y-80225087D01*
X182352778Y-80242991D01*
X182323448Y-80278729D01*
X182240186Y-80380186D01*
X182161346Y-80444887D01*
X182102991Y-80492778D01*
X182102989Y-80492779D01*
X181946467Y-80576443D01*
X181889853Y-80593616D01*
X181776627Y-80627963D01*
X181710442Y-80634482D01*
X181644260Y-80641000D01*
X181555740Y-80641000D01*
X181489558Y-80634482D01*
X181423373Y-80627963D01*
X181310147Y-80593616D01*
X181253533Y-80576443D01*
X181097011Y-80492779D01*
X181097009Y-80492778D01*
X181038654Y-80444887D01*
X180959814Y-80380186D01*
X180876552Y-80278729D01*
X180847222Y-80242991D01*
X180837652Y-80225087D01*
X180763557Y-80086467D01*
X180746384Y-80029853D01*
X180712037Y-79916627D01*
X180694641Y-79740000D01*
X180712037Y-79563373D01*
X180763557Y-79393534D01*
X180763557Y-79393533D01*
X180847221Y-79237011D01*
X180847222Y-79237009D01*
X180876552Y-79201271D01*
X180959814Y-79099814D01*
X181061271Y-79016552D01*
X181097009Y-78987222D01*
X181114913Y-78977652D01*
X181253533Y-78903557D01*
X181310147Y-78886384D01*
X181423373Y-78852037D01*
X181489557Y-78845519D01*
X181555740Y-78839000D01*
X181644260Y-78839000D01*
X181710443Y-78845519D01*
X181710443Y-78845519D01*
G37*
G36*
X229129591Y-79478085D02*
X229163569Y-79488393D01*
X229194887Y-79505133D01*
X229222339Y-79527661D01*
X229244867Y-79555113D01*
X229261607Y-79586431D01*
X229271915Y-79620409D01*
X229276000Y-79661890D01*
X229276000Y-80338110D01*
X229271915Y-80379591D01*
X229261607Y-80413569D01*
X229244867Y-80444887D01*
X229222339Y-80472339D01*
X229194887Y-80494867D01*
X229163569Y-80511607D01*
X229129591Y-80521915D01*
X229088110Y-80526000D01*
X228486890Y-80526000D01*
X228445409Y-80521915D01*
X228411431Y-80511607D01*
X228380113Y-80494867D01*
X228352661Y-80472339D01*
X228330133Y-80444887D01*
X228313393Y-80413569D01*
X228303085Y-80379591D01*
X228299000Y-80338110D01*
X228299000Y-79661890D01*
X228303085Y-79620409D01*
X228313393Y-79586431D01*
X228330133Y-79555113D01*
X228352661Y-79527661D01*
X228380113Y-79505133D01*
X228411431Y-79488393D01*
X228445409Y-79478085D01*
X228486890Y-79474000D01*
X229088110Y-79474000D01*
X229129591Y-79478085D01*
X229129591Y-79478085D01*
G37*
G36*
X227554591Y-79478085D02*
X227588569Y-79488393D01*
X227619887Y-79505133D01*
X227647339Y-79527661D01*
X227669867Y-79555113D01*
X227686607Y-79586431D01*
X227696915Y-79620409D01*
X227701000Y-79661890D01*
X227701000Y-80338110D01*
X227696915Y-80379591D01*
X227686607Y-80413569D01*
X227669867Y-80444887D01*
X227647339Y-80472339D01*
X227619887Y-80494867D01*
X227588569Y-80511607D01*
X227554591Y-80521915D01*
X227513110Y-80526000D01*
X226911890Y-80526000D01*
X226870409Y-80521915D01*
X226836431Y-80511607D01*
X226805113Y-80494867D01*
X226777661Y-80472339D01*
X226755133Y-80444887D01*
X226738393Y-80413569D01*
X226728085Y-80379591D01*
X226724000Y-80338110D01*
X226724000Y-79661890D01*
X226728085Y-79620409D01*
X226738393Y-79586431D01*
X226755133Y-79555113D01*
X226777661Y-79527661D01*
X226805113Y-79505133D01*
X226836431Y-79488393D01*
X226870409Y-79478085D01*
X226911890Y-79474000D01*
X227513110Y-79474000D01*
X227554591Y-79478085D01*
X227554591Y-79478085D01*
G37*
G36*
X181710442Y-76305518D02*
X181776627Y-76312037D01*
X181889853Y-76346384D01*
X181946467Y-76363557D01*
X182085087Y-76437652D01*
X182102991Y-76447222D01*
X182138729Y-76476552D01*
X182240186Y-76559814D01*
X182323448Y-76661271D01*
X182352778Y-76697009D01*
X182352779Y-76697011D01*
X182436443Y-76853533D01*
X182436443Y-76853534D01*
X182487963Y-77023373D01*
X182505359Y-77200000D01*
X182487963Y-77376627D01*
X182453616Y-77489853D01*
X182436443Y-77546467D01*
X182362348Y-77685087D01*
X182352778Y-77702991D01*
X182323448Y-77738729D01*
X182240186Y-77840186D01*
X182138729Y-77923448D01*
X182102991Y-77952778D01*
X182102989Y-77952779D01*
X181946467Y-78036443D01*
X181889853Y-78053616D01*
X181776627Y-78087963D01*
X181710443Y-78094481D01*
X181644260Y-78101000D01*
X181555740Y-78101000D01*
X181489557Y-78094481D01*
X181423373Y-78087963D01*
X181310147Y-78053616D01*
X181253533Y-78036443D01*
X181097011Y-77952779D01*
X181097009Y-77952778D01*
X181061271Y-77923448D01*
X180959814Y-77840186D01*
X180876552Y-77738729D01*
X180847222Y-77702991D01*
X180837652Y-77685087D01*
X180763557Y-77546467D01*
X180746384Y-77489853D01*
X180712037Y-77376627D01*
X180694641Y-77200000D01*
X180712037Y-77023373D01*
X180763557Y-76853534D01*
X180763557Y-76853533D01*
X180847221Y-76697011D01*
X180847222Y-76697009D01*
X180876552Y-76661271D01*
X180959814Y-76559814D01*
X181061271Y-76476552D01*
X181097009Y-76447222D01*
X181114913Y-76437652D01*
X181253533Y-76363557D01*
X181310147Y-76346384D01*
X181423373Y-76312037D01*
X181489558Y-76305518D01*
X181555740Y-76299000D01*
X181644260Y-76299000D01*
X181710442Y-76305518D01*
X181710442Y-76305518D01*
G37*
G36*
X181710442Y-73765518D02*
X181776627Y-73772037D01*
X181889853Y-73806384D01*
X181946467Y-73823557D01*
X182085087Y-73897652D01*
X182102991Y-73907222D01*
X182138729Y-73936552D01*
X182240186Y-74019814D01*
X182323448Y-74121271D01*
X182352778Y-74157009D01*
X182352779Y-74157011D01*
X182436443Y-74313533D01*
X182436443Y-74313534D01*
X182487963Y-74483373D01*
X182505359Y-74660000D01*
X182487963Y-74836627D01*
X182453616Y-74949853D01*
X182436443Y-75006467D01*
X182362348Y-75145087D01*
X182352778Y-75162991D01*
X182323448Y-75198729D01*
X182240186Y-75300186D01*
X182148755Y-75375220D01*
X182102991Y-75412778D01*
X182102989Y-75412779D01*
X181946467Y-75496443D01*
X181896477Y-75511607D01*
X181776627Y-75547963D01*
X181710442Y-75554482D01*
X181644260Y-75561000D01*
X181555740Y-75561000D01*
X181489558Y-75554482D01*
X181423373Y-75547963D01*
X181303523Y-75511607D01*
X181253533Y-75496443D01*
X181097011Y-75412779D01*
X181097009Y-75412778D01*
X181051245Y-75375220D01*
X180959814Y-75300186D01*
X180876552Y-75198729D01*
X180847222Y-75162991D01*
X180837652Y-75145087D01*
X180763557Y-75006467D01*
X180746384Y-74949853D01*
X180712037Y-74836627D01*
X180694641Y-74660000D01*
X180712037Y-74483373D01*
X180763557Y-74313534D01*
X180763557Y-74313533D01*
X180847221Y-74157011D01*
X180847222Y-74157009D01*
X180876552Y-74121271D01*
X180959814Y-74019814D01*
X181061271Y-73936552D01*
X181097009Y-73907222D01*
X181114913Y-73897652D01*
X181253533Y-73823557D01*
X181310147Y-73806384D01*
X181423373Y-73772037D01*
X181489558Y-73765518D01*
X181555740Y-73759000D01*
X181644260Y-73759000D01*
X181710442Y-73765518D01*
X181710442Y-73765518D01*
G37*
G36*
X227554591Y-74478085D02*
X227588569Y-74488393D01*
X227619887Y-74505133D01*
X227647339Y-74527661D01*
X227669867Y-74555113D01*
X227686607Y-74586431D01*
X227696915Y-74620409D01*
X227701000Y-74661890D01*
X227701000Y-75338110D01*
X227696915Y-75379591D01*
X227686607Y-75413569D01*
X227669867Y-75444887D01*
X227647339Y-75472339D01*
X227619887Y-75494867D01*
X227588569Y-75511607D01*
X227554591Y-75521915D01*
X227513110Y-75526000D01*
X226911890Y-75526000D01*
X226870409Y-75521915D01*
X226836431Y-75511607D01*
X226805113Y-75494867D01*
X226777661Y-75472339D01*
X226755133Y-75444887D01*
X226738393Y-75413569D01*
X226728085Y-75379591D01*
X226724000Y-75338110D01*
X226724000Y-74661890D01*
X226728085Y-74620409D01*
X226738393Y-74586431D01*
X226755133Y-74555113D01*
X226777661Y-74527661D01*
X226805113Y-74505133D01*
X226836431Y-74488393D01*
X226870409Y-74478085D01*
X226911890Y-74474000D01*
X227513110Y-74474000D01*
X227554591Y-74478085D01*
X227554591Y-74478085D01*
G37*
G36*
X229129591Y-74478085D02*
X229163569Y-74488393D01*
X229194887Y-74505133D01*
X229222339Y-74527661D01*
X229244867Y-74555113D01*
X229261607Y-74586431D01*
X229271915Y-74620409D01*
X229276000Y-74661890D01*
X229276000Y-75338110D01*
X229271915Y-75379591D01*
X229261607Y-75413569D01*
X229244867Y-75444887D01*
X229222339Y-75472339D01*
X229194887Y-75494867D01*
X229163569Y-75511607D01*
X229129591Y-75521915D01*
X229088110Y-75526000D01*
X228486890Y-75526000D01*
X228445409Y-75521915D01*
X228411431Y-75511607D01*
X228380113Y-75494867D01*
X228352661Y-75472339D01*
X228330133Y-75444887D01*
X228313393Y-75413569D01*
X228303085Y-75379591D01*
X228299000Y-75338110D01*
X228299000Y-74661890D01*
X228303085Y-74620409D01*
X228313393Y-74586431D01*
X228330133Y-74555113D01*
X228352661Y-74527661D01*
X228380113Y-74505133D01*
X228411431Y-74488393D01*
X228445409Y-74478085D01*
X228486890Y-74474000D01*
X229088110Y-74474000D01*
X229129591Y-74478085D01*
X229129591Y-74478085D01*
G37*
G36*
X181710443Y-71225519D02*
X181776627Y-71232037D01*
X181889853Y-71266384D01*
X181946467Y-71283557D01*
X182085087Y-71357652D01*
X182102991Y-71367222D01*
X182138729Y-71396552D01*
X182240186Y-71479814D01*
X182323448Y-71581271D01*
X182352778Y-71617009D01*
X182352779Y-71617011D01*
X182436443Y-71773533D01*
X182436443Y-71773534D01*
X182487963Y-71943373D01*
X182505359Y-72120000D01*
X182487963Y-72296627D01*
X182453616Y-72409853D01*
X182436443Y-72466467D01*
X182362348Y-72605087D01*
X182352778Y-72622991D01*
X182323448Y-72658729D01*
X182240186Y-72760186D01*
X182138729Y-72843448D01*
X182102991Y-72872778D01*
X182102989Y-72872779D01*
X181946467Y-72956443D01*
X181889853Y-72973616D01*
X181776627Y-73007963D01*
X181710442Y-73014482D01*
X181644260Y-73021000D01*
X181555740Y-73021000D01*
X181489558Y-73014482D01*
X181423373Y-73007963D01*
X181310147Y-72973616D01*
X181253533Y-72956443D01*
X181097011Y-72872779D01*
X181097009Y-72872778D01*
X181061271Y-72843448D01*
X180959814Y-72760186D01*
X180876552Y-72658729D01*
X180847222Y-72622991D01*
X180837652Y-72605087D01*
X180763557Y-72466467D01*
X180746384Y-72409853D01*
X180712037Y-72296627D01*
X180694641Y-72120000D01*
X180712037Y-71943373D01*
X180763557Y-71773534D01*
X180763557Y-71773533D01*
X180847221Y-71617011D01*
X180847222Y-71617009D01*
X180876552Y-71581271D01*
X180959814Y-71479814D01*
X181061271Y-71396552D01*
X181097009Y-71367222D01*
X181114913Y-71357652D01*
X181253533Y-71283557D01*
X181310147Y-71266384D01*
X181423373Y-71232037D01*
X181489557Y-71225519D01*
X181555740Y-71219000D01*
X181644260Y-71219000D01*
X181710443Y-71225519D01*
X181710443Y-71225519D01*
G37*
G36*
X227554591Y-69478085D02*
X227588569Y-69488393D01*
X227619887Y-69505133D01*
X227647339Y-69527661D01*
X227669867Y-69555113D01*
X227686607Y-69586431D01*
X227696915Y-69620409D01*
X227701000Y-69661890D01*
X227701000Y-70338110D01*
X227696915Y-70379591D01*
X227686607Y-70413569D01*
X227669867Y-70444887D01*
X227647339Y-70472339D01*
X227619887Y-70494867D01*
X227588569Y-70511607D01*
X227554591Y-70521915D01*
X227513110Y-70526000D01*
X226911890Y-70526000D01*
X226870409Y-70521915D01*
X226836431Y-70511607D01*
X226805113Y-70494867D01*
X226777661Y-70472339D01*
X226755133Y-70444887D01*
X226738393Y-70413569D01*
X226728085Y-70379591D01*
X226724000Y-70338110D01*
X226724000Y-69661890D01*
X226728085Y-69620409D01*
X226738393Y-69586431D01*
X226755133Y-69555113D01*
X226777661Y-69527661D01*
X226805113Y-69505133D01*
X226836431Y-69488393D01*
X226870409Y-69478085D01*
X226911890Y-69474000D01*
X227513110Y-69474000D01*
X227554591Y-69478085D01*
X227554591Y-69478085D01*
G37*
G36*
X229129591Y-69478085D02*
X229163569Y-69488393D01*
X229194887Y-69505133D01*
X229222339Y-69527661D01*
X229244867Y-69555113D01*
X229261607Y-69586431D01*
X229271915Y-69620409D01*
X229276000Y-69661890D01*
X229276000Y-70338110D01*
X229271915Y-70379591D01*
X229261607Y-70413569D01*
X229244867Y-70444887D01*
X229222339Y-70472339D01*
X229194887Y-70494867D01*
X229163569Y-70511607D01*
X229129591Y-70521915D01*
X229088110Y-70526000D01*
X228486890Y-70526000D01*
X228445409Y-70521915D01*
X228411431Y-70511607D01*
X228380113Y-70494867D01*
X228352661Y-70472339D01*
X228330133Y-70444887D01*
X228313393Y-70413569D01*
X228303085Y-70379591D01*
X228299000Y-70338110D01*
X228299000Y-69661890D01*
X228303085Y-69620409D01*
X228313393Y-69586431D01*
X228330133Y-69555113D01*
X228352661Y-69527661D01*
X228380113Y-69505133D01*
X228411431Y-69488393D01*
X228445409Y-69478085D01*
X228486890Y-69474000D01*
X229088110Y-69474000D01*
X229129591Y-69478085D01*
X229129591Y-69478085D01*
G37*
G36*
X181710442Y-68685518D02*
X181776627Y-68692037D01*
X181889853Y-68726384D01*
X181946467Y-68743557D01*
X182085087Y-68817652D01*
X182102991Y-68827222D01*
X182138729Y-68856552D01*
X182240186Y-68939814D01*
X182323448Y-69041271D01*
X182352778Y-69077009D01*
X182352779Y-69077011D01*
X182436443Y-69233533D01*
X182436443Y-69233534D01*
X182487963Y-69403373D01*
X182505359Y-69580000D01*
X182487963Y-69756627D01*
X182453616Y-69869853D01*
X182436443Y-69926467D01*
X182362348Y-70065087D01*
X182352778Y-70082991D01*
X182323448Y-70118729D01*
X182240186Y-70220186D01*
X182138729Y-70303448D01*
X182102991Y-70332778D01*
X182102989Y-70332779D01*
X181946467Y-70416443D01*
X181889853Y-70433616D01*
X181776627Y-70467963D01*
X181710443Y-70474481D01*
X181644260Y-70481000D01*
X181555740Y-70481000D01*
X181489557Y-70474481D01*
X181423373Y-70467963D01*
X181310147Y-70433616D01*
X181253533Y-70416443D01*
X181097011Y-70332779D01*
X181097009Y-70332778D01*
X181061271Y-70303448D01*
X180959814Y-70220186D01*
X180876552Y-70118729D01*
X180847222Y-70082991D01*
X180837652Y-70065087D01*
X180763557Y-69926467D01*
X180746384Y-69869853D01*
X180712037Y-69756627D01*
X180694641Y-69580000D01*
X180712037Y-69403373D01*
X180763557Y-69233534D01*
X180763557Y-69233533D01*
X180847221Y-69077011D01*
X180847222Y-69077009D01*
X180876552Y-69041271D01*
X180959814Y-68939814D01*
X181061271Y-68856552D01*
X181097009Y-68827222D01*
X181114913Y-68817652D01*
X181253533Y-68743557D01*
X181310147Y-68726384D01*
X181423373Y-68692037D01*
X181489558Y-68685518D01*
X181555740Y-68679000D01*
X181644260Y-68679000D01*
X181710442Y-68685518D01*
X181710442Y-68685518D01*
G37*
G36*
X181710442Y-66145518D02*
X181776627Y-66152037D01*
X181889853Y-66186384D01*
X181946467Y-66203557D01*
X182085087Y-66277652D01*
X182102991Y-66287222D01*
X182138729Y-66316552D01*
X182240186Y-66399814D01*
X182323448Y-66501271D01*
X182352778Y-66537009D01*
X182352779Y-66537011D01*
X182436443Y-66693533D01*
X182436443Y-66693534D01*
X182487963Y-66863373D01*
X182505359Y-67040000D01*
X182487963Y-67216627D01*
X182453616Y-67329853D01*
X182436443Y-67386467D01*
X182362348Y-67525087D01*
X182352778Y-67542991D01*
X182323448Y-67578729D01*
X182240186Y-67680186D01*
X182138729Y-67763448D01*
X182102991Y-67792778D01*
X182102989Y-67792779D01*
X181946467Y-67876443D01*
X181889853Y-67893616D01*
X181776627Y-67927963D01*
X181710442Y-67934482D01*
X181644260Y-67941000D01*
X181555740Y-67941000D01*
X181489558Y-67934482D01*
X181423373Y-67927963D01*
X181310147Y-67893616D01*
X181253533Y-67876443D01*
X181097011Y-67792779D01*
X181097009Y-67792778D01*
X181061271Y-67763448D01*
X180959814Y-67680186D01*
X180876552Y-67578729D01*
X180847222Y-67542991D01*
X180837652Y-67525087D01*
X180763557Y-67386467D01*
X180746384Y-67329853D01*
X180712037Y-67216627D01*
X180694641Y-67040000D01*
X180712037Y-66863373D01*
X180763557Y-66693534D01*
X180763557Y-66693533D01*
X180847221Y-66537011D01*
X180847222Y-66537009D01*
X180876552Y-66501271D01*
X180959814Y-66399814D01*
X181061271Y-66316552D01*
X181097009Y-66287222D01*
X181114913Y-66277652D01*
X181253533Y-66203557D01*
X181310147Y-66186384D01*
X181423373Y-66152037D01*
X181489558Y-66145518D01*
X181555740Y-66139000D01*
X181644260Y-66139000D01*
X181710442Y-66145518D01*
X181710442Y-66145518D01*
G37*
G36*
X227554591Y-64478085D02*
X227588569Y-64488393D01*
X227619887Y-64505133D01*
X227647339Y-64527661D01*
X227669867Y-64555113D01*
X227686607Y-64586431D01*
X227696915Y-64620409D01*
X227701000Y-64661890D01*
X227701000Y-65338110D01*
X227696915Y-65379591D01*
X227686607Y-65413569D01*
X227669867Y-65444887D01*
X227647339Y-65472339D01*
X227619887Y-65494867D01*
X227588569Y-65511607D01*
X227554591Y-65521915D01*
X227513110Y-65526000D01*
X226911890Y-65526000D01*
X226870409Y-65521915D01*
X226836431Y-65511607D01*
X226805113Y-65494867D01*
X226777661Y-65472339D01*
X226755133Y-65444887D01*
X226738393Y-65413569D01*
X226728085Y-65379591D01*
X226724000Y-65338110D01*
X226724000Y-64661890D01*
X226728085Y-64620409D01*
X226738393Y-64586431D01*
X226755133Y-64555113D01*
X226777661Y-64527661D01*
X226805113Y-64505133D01*
X226836431Y-64488393D01*
X226870409Y-64478085D01*
X226911890Y-64474000D01*
X227513110Y-64474000D01*
X227554591Y-64478085D01*
X227554591Y-64478085D01*
G37*
G36*
X229129591Y-64478085D02*
X229163569Y-64488393D01*
X229194887Y-64505133D01*
X229222339Y-64527661D01*
X229244867Y-64555113D01*
X229261607Y-64586431D01*
X229271915Y-64620409D01*
X229276000Y-64661890D01*
X229276000Y-65338110D01*
X229271915Y-65379591D01*
X229261607Y-65413569D01*
X229244867Y-65444887D01*
X229222339Y-65472339D01*
X229194887Y-65494867D01*
X229163569Y-65511607D01*
X229129591Y-65521915D01*
X229088110Y-65526000D01*
X228486890Y-65526000D01*
X228445409Y-65521915D01*
X228411431Y-65511607D01*
X228380113Y-65494867D01*
X228352661Y-65472339D01*
X228330133Y-65444887D01*
X228313393Y-65413569D01*
X228303085Y-65379591D01*
X228299000Y-65338110D01*
X228299000Y-64661890D01*
X228303085Y-64620409D01*
X228313393Y-64586431D01*
X228330133Y-64555113D01*
X228352661Y-64527661D01*
X228380113Y-64505133D01*
X228411431Y-64488393D01*
X228445409Y-64478085D01*
X228486890Y-64474000D01*
X229088110Y-64474000D01*
X229129591Y-64478085D01*
X229129591Y-64478085D01*
G37*
G36*
X229129591Y-59478085D02*
X229163569Y-59488393D01*
X229194887Y-59505133D01*
X229222339Y-59527661D01*
X229244867Y-59555113D01*
X229261607Y-59586431D01*
X229271915Y-59620409D01*
X229276000Y-59661890D01*
X229276000Y-60338110D01*
X229271915Y-60379591D01*
X229261607Y-60413569D01*
X229244867Y-60444887D01*
X229222339Y-60472339D01*
X229194887Y-60494867D01*
X229163569Y-60511607D01*
X229129591Y-60521915D01*
X229088110Y-60526000D01*
X228486890Y-60526000D01*
X228445409Y-60521915D01*
X228411431Y-60511607D01*
X228380113Y-60494867D01*
X228352661Y-60472339D01*
X228330133Y-60444887D01*
X228313393Y-60413569D01*
X228303085Y-60379591D01*
X228299000Y-60338110D01*
X228299000Y-59661890D01*
X228303085Y-59620409D01*
X228313393Y-59586431D01*
X228330133Y-59555113D01*
X228352661Y-59527661D01*
X228380113Y-59505133D01*
X228411431Y-59488393D01*
X228445409Y-59478085D01*
X228486890Y-59474000D01*
X229088110Y-59474000D01*
X229129591Y-59478085D01*
X229129591Y-59478085D01*
G37*
G36*
X227554591Y-59478085D02*
X227588569Y-59488393D01*
X227619887Y-59505133D01*
X227647339Y-59527661D01*
X227669867Y-59555113D01*
X227686607Y-59586431D01*
X227696915Y-59620409D01*
X227701000Y-59661890D01*
X227701000Y-60338110D01*
X227696915Y-60379591D01*
X227686607Y-60413569D01*
X227669867Y-60444887D01*
X227647339Y-60472339D01*
X227619887Y-60494867D01*
X227588569Y-60511607D01*
X227554591Y-60521915D01*
X227513110Y-60526000D01*
X226911890Y-60526000D01*
X226870409Y-60521915D01*
X226836431Y-60511607D01*
X226805113Y-60494867D01*
X226777661Y-60472339D01*
X226755133Y-60444887D01*
X226738393Y-60413569D01*
X226728085Y-60379591D01*
X226724000Y-60338110D01*
X226724000Y-59661890D01*
X226728085Y-59620409D01*
X226738393Y-59586431D01*
X226755133Y-59555113D01*
X226777661Y-59527661D01*
X226805113Y-59505133D01*
X226836431Y-59488393D01*
X226870409Y-59478085D01*
X226911890Y-59474000D01*
X227513110Y-59474000D01*
X227554591Y-59478085D01*
X227554591Y-59478085D01*
G37*
G36*
X206610443Y-52605519D02*
X206676627Y-52612037D01*
X206789853Y-52646384D01*
X206846467Y-52663557D01*
X206985087Y-52737652D01*
X207002991Y-52747222D01*
X207038729Y-52776552D01*
X207140186Y-52859814D01*
X207223448Y-52961271D01*
X207252778Y-52997009D01*
X207252779Y-52997011D01*
X207336443Y-53153533D01*
X207336443Y-53153534D01*
X207387963Y-53323373D01*
X207405359Y-53500000D01*
X207387963Y-53676627D01*
X207353616Y-53789853D01*
X207336443Y-53846467D01*
X207262348Y-53985087D01*
X207252778Y-54002991D01*
X207223448Y-54038729D01*
X207140186Y-54140186D01*
X207038729Y-54223448D01*
X207002991Y-54252778D01*
X207002989Y-54252779D01*
X206846467Y-54336443D01*
X206789853Y-54353616D01*
X206676627Y-54387963D01*
X206610443Y-54394481D01*
X206544260Y-54401000D01*
X206455740Y-54401000D01*
X206389557Y-54394481D01*
X206323373Y-54387963D01*
X206210147Y-54353616D01*
X206153533Y-54336443D01*
X205997011Y-54252779D01*
X205997009Y-54252778D01*
X205961271Y-54223448D01*
X205859814Y-54140186D01*
X205776552Y-54038729D01*
X205747222Y-54002991D01*
X205737652Y-53985087D01*
X205663557Y-53846467D01*
X205646384Y-53789853D01*
X205612037Y-53676627D01*
X205594641Y-53500000D01*
X205612037Y-53323373D01*
X205663557Y-53153534D01*
X205663557Y-53153533D01*
X205747221Y-52997011D01*
X205747222Y-52997009D01*
X205776552Y-52961271D01*
X205859814Y-52859814D01*
X205961271Y-52776552D01*
X205997009Y-52747222D01*
X206014913Y-52737652D01*
X206153533Y-52663557D01*
X206210147Y-52646384D01*
X206323373Y-52612037D01*
X206389557Y-52605519D01*
X206455740Y-52599000D01*
X206544260Y-52599000D01*
X206610443Y-52605519D01*
X206610443Y-52605519D01*
G37*
G36*
X204861000Y-54401000D02*
X203059000Y-54401000D01*
X203059000Y-52599000D01*
X204861000Y-52599000D01*
X204861000Y-54401000D01*
X204861000Y-54401000D01*
G37*
M02*
