G04 #@! TF.GenerationSoftware,KiCad,Pcbnew,(5.0.0-rc2-dev-668-g07e7340a9)*
G04 #@! TF.CreationDate,2018-10-23T00:23:44-04:00*
G04 #@! TF.ProjectId,BalancingBusinessCard,42616C616E63696E67427573696E6573,rev?*
G04 #@! TF.SameCoordinates,Original*
G04 #@! TF.FileFunction,Profile,NP*
%FSLAX46Y46*%
G04 Gerber Fmt 4.6, Leading zero omitted, Abs format (unit mm)*
G04 Created by KiCad (PCBNEW (5.0.0-rc2-dev-668-g07e7340a9)) date 10/23/18 00:23:44*
%MOMM*%
%LPD*%
G01*
G04 APERTURE LIST*
%ADD10C,0.150000*%
%ADD11C,0.100000*%
G04 APERTURE END LIST*
D10*
X180000000Y-52000000D02*
X180000000Y-50000000D01*
D11*
X201000000Y-104500000D02*
G75*
G02X205500000Y-100000000I4500000J0D01*
G01*
X209000000Y-128500000D02*
X209000000Y-104500000D01*
X215000000Y-126500000D02*
G75*
G02X210000000Y-126500000I-2500000J0D01*
G01*
X196000000Y-100000000D02*
X195000000Y-100000000D01*
X195000000Y-100000000D02*
X195000000Y-128500000D01*
X202000000Y-104500000D02*
G75*
G02X209000000Y-104500000I3500000J0D01*
G01*
X201000000Y-104500000D02*
X201000000Y-126500000D01*
X201000000Y-126500000D02*
G75*
G02X196000000Y-126500000I-2500000J0D01*
G01*
X202000000Y-128500000D02*
X202000000Y-104500000D01*
X210000000Y-104500000D02*
X210000000Y-126500000D01*
X215000000Y-126500000D02*
X215000000Y-100000000D01*
X215000000Y-100000000D02*
X216000000Y-100000000D01*
X198500000Y-132000000D02*
G75*
G02X195000000Y-128500000I0J3500000D01*
G01*
X216000000Y-100000000D02*
X216000000Y-128500000D01*
X202000000Y-128500000D02*
G75*
G02X198500000Y-132000000I-3500000J0D01*
G01*
X205500000Y-100000000D02*
G75*
G02X210000000Y-104500000I0J-4500000D01*
G01*
X216000000Y-128500000D02*
G75*
G02X212500000Y-132000000I-3500000J0D01*
G01*
X212500000Y-132000000D02*
G75*
G02X209000000Y-128500000I0J3500000D01*
G01*
X196000000Y-126500000D02*
X196000000Y-100000000D01*
X206500000Y-56527047D02*
X206500000Y-55525658D01*
X206500000Y-55525658D02*
G75*
G02X206500000Y-94474342I-1000000J-19474342D01*
G01*
X204500000Y-94474342D02*
G75*
G02X204500000Y-55525658I1000000J19474342D01*
G01*
X204500000Y-56527047D02*
X204500000Y-55525658D01*
X206500000Y-56527047D02*
G75*
G02X206500000Y-93472953I-1000000J-18472953D01*
G01*
X206500000Y-93472953D02*
X206500000Y-94474342D01*
X204500000Y-93472953D02*
G75*
G02X204500000Y-56527047I1000000J18472953D01*
G01*
X204500000Y-93472953D02*
X204500000Y-94474342D01*
D10*
X188000000Y-56000000D02*
X180000000Y-56000000D01*
X188000000Y-52000000D02*
X188000000Y-56000000D01*
X180000000Y-52000000D02*
X188000000Y-52000000D01*
X231000000Y-50000000D02*
X180000000Y-50000000D01*
X231000000Y-139000000D02*
X231000000Y-50000000D01*
X180000000Y-139000000D02*
X231000000Y-139000000D01*
X180000000Y-56000000D02*
X180000000Y-139000000D01*
M02*
