G04 #@! TF.GenerationSoftware,KiCad,Pcbnew,(5.0.0-rc2-dev-668-g07e7340a9)*
G04 #@! TF.CreationDate,2018-10-23T00:23:44-04:00*
G04 #@! TF.ProjectId,BalancingBusinessCard,42616C616E63696E67427573696E6573,rev?*
G04 #@! TF.SameCoordinates,Original*
G04 #@! TF.FileFunction,Soldermask,Bot*
G04 #@! TF.FilePolarity,Negative*
%FSLAX46Y46*%
G04 Gerber Fmt 4.6, Leading zero omitted, Abs format (unit mm)*
G04 Created by KiCad (PCBNEW (5.0.0-rc2-dev-668-g07e7340a9)) date 10/23/18 00:23:44*
%MOMM*%
%LPD*%
G01*
G04 APERTURE LIST*
%ADD10C,0.100000*%
G04 APERTURE END LIST*
D10*
G36*
X222910442Y-131705518D02*
X222976627Y-131712037D01*
X223089853Y-131746384D01*
X223146467Y-131763557D01*
X223285087Y-131837652D01*
X223302991Y-131847222D01*
X223338729Y-131876552D01*
X223440186Y-131959814D01*
X223523448Y-132061271D01*
X223552778Y-132097009D01*
X223552779Y-132097011D01*
X223636443Y-132253533D01*
X223636443Y-132253534D01*
X223687963Y-132423373D01*
X223705359Y-132600000D01*
X223687963Y-132776627D01*
X223653616Y-132889853D01*
X223636443Y-132946467D01*
X223562348Y-133085087D01*
X223552778Y-133102991D01*
X223523448Y-133138729D01*
X223440186Y-133240186D01*
X223338729Y-133323448D01*
X223302991Y-133352778D01*
X223302989Y-133352779D01*
X223146467Y-133436443D01*
X223089853Y-133453616D01*
X222976627Y-133487963D01*
X222910442Y-133494482D01*
X222844260Y-133501000D01*
X222755740Y-133501000D01*
X222689558Y-133494482D01*
X222623373Y-133487963D01*
X222510147Y-133453616D01*
X222453533Y-133436443D01*
X222297011Y-133352779D01*
X222297009Y-133352778D01*
X222261271Y-133323448D01*
X222159814Y-133240186D01*
X222076552Y-133138729D01*
X222047222Y-133102991D01*
X222037652Y-133085087D01*
X221963557Y-132946467D01*
X221946384Y-132889853D01*
X221912037Y-132776627D01*
X221894641Y-132600000D01*
X221912037Y-132423373D01*
X221963557Y-132253534D01*
X221963557Y-132253533D01*
X222047221Y-132097011D01*
X222047222Y-132097009D01*
X222076552Y-132061271D01*
X222159814Y-131959814D01*
X222261271Y-131876552D01*
X222297009Y-131847222D01*
X222314913Y-131837652D01*
X222453533Y-131763557D01*
X222510147Y-131746384D01*
X222623373Y-131712037D01*
X222689558Y-131705518D01*
X222755740Y-131699000D01*
X222844260Y-131699000D01*
X222910442Y-131705518D01*
X222910442Y-131705518D01*
G37*
G36*
X220370442Y-131705518D02*
X220436627Y-131712037D01*
X220549853Y-131746384D01*
X220606467Y-131763557D01*
X220745087Y-131837652D01*
X220762991Y-131847222D01*
X220798729Y-131876552D01*
X220900186Y-131959814D01*
X220983448Y-132061271D01*
X221012778Y-132097009D01*
X221012779Y-132097011D01*
X221096443Y-132253533D01*
X221096443Y-132253534D01*
X221147963Y-132423373D01*
X221165359Y-132600000D01*
X221147963Y-132776627D01*
X221113616Y-132889853D01*
X221096443Y-132946467D01*
X221022348Y-133085087D01*
X221012778Y-133102991D01*
X220983448Y-133138729D01*
X220900186Y-133240186D01*
X220798729Y-133323448D01*
X220762991Y-133352778D01*
X220762989Y-133352779D01*
X220606467Y-133436443D01*
X220549853Y-133453616D01*
X220436627Y-133487963D01*
X220370442Y-133494482D01*
X220304260Y-133501000D01*
X220215740Y-133501000D01*
X220149558Y-133494482D01*
X220083373Y-133487963D01*
X219970147Y-133453616D01*
X219913533Y-133436443D01*
X219757011Y-133352779D01*
X219757009Y-133352778D01*
X219721271Y-133323448D01*
X219619814Y-133240186D01*
X219536552Y-133138729D01*
X219507222Y-133102991D01*
X219497652Y-133085087D01*
X219423557Y-132946467D01*
X219406384Y-132889853D01*
X219372037Y-132776627D01*
X219354641Y-132600000D01*
X219372037Y-132423373D01*
X219423557Y-132253534D01*
X219423557Y-132253533D01*
X219507221Y-132097011D01*
X219507222Y-132097009D01*
X219536552Y-132061271D01*
X219619814Y-131959814D01*
X219721271Y-131876552D01*
X219757009Y-131847222D01*
X219774913Y-131837652D01*
X219913533Y-131763557D01*
X219970147Y-131746384D01*
X220083373Y-131712037D01*
X220149558Y-131705518D01*
X220215740Y-131699000D01*
X220304260Y-131699000D01*
X220370442Y-131705518D01*
X220370442Y-131705518D01*
G37*
G36*
X225450442Y-131705518D02*
X225516627Y-131712037D01*
X225629853Y-131746384D01*
X225686467Y-131763557D01*
X225825087Y-131837652D01*
X225842991Y-131847222D01*
X225878729Y-131876552D01*
X225980186Y-131959814D01*
X226063448Y-132061271D01*
X226092778Y-132097009D01*
X226092779Y-132097011D01*
X226176443Y-132253533D01*
X226176443Y-132253534D01*
X226227963Y-132423373D01*
X226245359Y-132600000D01*
X226227963Y-132776627D01*
X226193616Y-132889853D01*
X226176443Y-132946467D01*
X226102348Y-133085087D01*
X226092778Y-133102991D01*
X226063448Y-133138729D01*
X225980186Y-133240186D01*
X225878729Y-133323448D01*
X225842991Y-133352778D01*
X225842989Y-133352779D01*
X225686467Y-133436443D01*
X225629853Y-133453616D01*
X225516627Y-133487963D01*
X225450442Y-133494482D01*
X225384260Y-133501000D01*
X225295740Y-133501000D01*
X225229558Y-133494482D01*
X225163373Y-133487963D01*
X225050147Y-133453616D01*
X224993533Y-133436443D01*
X224837011Y-133352779D01*
X224837009Y-133352778D01*
X224801271Y-133323448D01*
X224699814Y-133240186D01*
X224616552Y-133138729D01*
X224587222Y-133102991D01*
X224577652Y-133085087D01*
X224503557Y-132946467D01*
X224486384Y-132889853D01*
X224452037Y-132776627D01*
X224434641Y-132600000D01*
X224452037Y-132423373D01*
X224503557Y-132253534D01*
X224503557Y-132253533D01*
X224587221Y-132097011D01*
X224587222Y-132097009D01*
X224616552Y-132061271D01*
X224699814Y-131959814D01*
X224801271Y-131876552D01*
X224837009Y-131847222D01*
X224854913Y-131837652D01*
X224993533Y-131763557D01*
X225050147Y-131746384D01*
X225163373Y-131712037D01*
X225229558Y-131705518D01*
X225295740Y-131699000D01*
X225384260Y-131699000D01*
X225450442Y-131705518D01*
X225450442Y-131705518D01*
G37*
G36*
X226241000Y-130961000D02*
X224439000Y-130961000D01*
X224439000Y-129159000D01*
X226241000Y-129159000D01*
X226241000Y-130961000D01*
X226241000Y-130961000D01*
G37*
G36*
X222910442Y-129165518D02*
X222976627Y-129172037D01*
X223089853Y-129206384D01*
X223146467Y-129223557D01*
X223285087Y-129297652D01*
X223302991Y-129307222D01*
X223338729Y-129336552D01*
X223440186Y-129419814D01*
X223523448Y-129521271D01*
X223552778Y-129557009D01*
X223552779Y-129557011D01*
X223636443Y-129713533D01*
X223636443Y-129713534D01*
X223687963Y-129883373D01*
X223705359Y-130060000D01*
X223687963Y-130236627D01*
X223653616Y-130349853D01*
X223636443Y-130406467D01*
X223562348Y-130545087D01*
X223552778Y-130562991D01*
X223523448Y-130598729D01*
X223440186Y-130700186D01*
X223338729Y-130783448D01*
X223302991Y-130812778D01*
X223302989Y-130812779D01*
X223146467Y-130896443D01*
X223089853Y-130913616D01*
X222976627Y-130947963D01*
X222910442Y-130954482D01*
X222844260Y-130961000D01*
X222755740Y-130961000D01*
X222689558Y-130954482D01*
X222623373Y-130947963D01*
X222510147Y-130913616D01*
X222453533Y-130896443D01*
X222297011Y-130812779D01*
X222297009Y-130812778D01*
X222261271Y-130783448D01*
X222159814Y-130700186D01*
X222076552Y-130598729D01*
X222047222Y-130562991D01*
X222037652Y-130545087D01*
X221963557Y-130406467D01*
X221946384Y-130349853D01*
X221912037Y-130236627D01*
X221894641Y-130060000D01*
X221912037Y-129883373D01*
X221963557Y-129713534D01*
X221963557Y-129713533D01*
X222047221Y-129557011D01*
X222047222Y-129557009D01*
X222076552Y-129521271D01*
X222159814Y-129419814D01*
X222261271Y-129336552D01*
X222297009Y-129307222D01*
X222314913Y-129297652D01*
X222453533Y-129223557D01*
X222510147Y-129206384D01*
X222623373Y-129172037D01*
X222689558Y-129165518D01*
X222755740Y-129159000D01*
X222844260Y-129159000D01*
X222910442Y-129165518D01*
X222910442Y-129165518D01*
G37*
G36*
X220370442Y-129165518D02*
X220436627Y-129172037D01*
X220549853Y-129206384D01*
X220606467Y-129223557D01*
X220745087Y-129297652D01*
X220762991Y-129307222D01*
X220798729Y-129336552D01*
X220900186Y-129419814D01*
X220983448Y-129521271D01*
X221012778Y-129557009D01*
X221012779Y-129557011D01*
X221096443Y-129713533D01*
X221096443Y-129713534D01*
X221147963Y-129883373D01*
X221165359Y-130060000D01*
X221147963Y-130236627D01*
X221113616Y-130349853D01*
X221096443Y-130406467D01*
X221022348Y-130545087D01*
X221012778Y-130562991D01*
X220983448Y-130598729D01*
X220900186Y-130700186D01*
X220798729Y-130783448D01*
X220762991Y-130812778D01*
X220762989Y-130812779D01*
X220606467Y-130896443D01*
X220549853Y-130913616D01*
X220436627Y-130947963D01*
X220370442Y-130954482D01*
X220304260Y-130961000D01*
X220215740Y-130961000D01*
X220149558Y-130954482D01*
X220083373Y-130947963D01*
X219970147Y-130913616D01*
X219913533Y-130896443D01*
X219757011Y-130812779D01*
X219757009Y-130812778D01*
X219721271Y-130783448D01*
X219619814Y-130700186D01*
X219536552Y-130598729D01*
X219507222Y-130562991D01*
X219497652Y-130545087D01*
X219423557Y-130406467D01*
X219406384Y-130349853D01*
X219372037Y-130236627D01*
X219354641Y-130060000D01*
X219372037Y-129883373D01*
X219423557Y-129713534D01*
X219423557Y-129713533D01*
X219507221Y-129557011D01*
X219507222Y-129557009D01*
X219536552Y-129521271D01*
X219619814Y-129419814D01*
X219721271Y-129336552D01*
X219757009Y-129307222D01*
X219774913Y-129297652D01*
X219913533Y-129223557D01*
X219970147Y-129206384D01*
X220083373Y-129172037D01*
X220149558Y-129165518D01*
X220215740Y-129159000D01*
X220304260Y-129159000D01*
X220370442Y-129165518D01*
X220370442Y-129165518D01*
G37*
G36*
X209051000Y-126551000D02*
X201949000Y-126551000D01*
X201949000Y-105449000D01*
X209051000Y-105449000D01*
X209051000Y-126551000D01*
X209051000Y-126551000D01*
G37*
G36*
X204861000Y-54401000D02*
X203059000Y-54401000D01*
X203059000Y-52599000D01*
X204861000Y-52599000D01*
X204861000Y-54401000D01*
X204861000Y-54401000D01*
G37*
G36*
X206610443Y-52605519D02*
X206676627Y-52612037D01*
X206789853Y-52646384D01*
X206846467Y-52663557D01*
X206985087Y-52737652D01*
X207002991Y-52747222D01*
X207038729Y-52776552D01*
X207140186Y-52859814D01*
X207223448Y-52961271D01*
X207252778Y-52997009D01*
X207252779Y-52997011D01*
X207336443Y-53153533D01*
X207336443Y-53153534D01*
X207387963Y-53323373D01*
X207405359Y-53500000D01*
X207387963Y-53676627D01*
X207353616Y-53789853D01*
X207336443Y-53846467D01*
X207262348Y-53985087D01*
X207252778Y-54002991D01*
X207223448Y-54038729D01*
X207140186Y-54140186D01*
X207038729Y-54223448D01*
X207002991Y-54252778D01*
X207002989Y-54252779D01*
X206846467Y-54336443D01*
X206789853Y-54353616D01*
X206676627Y-54387963D01*
X206610443Y-54394481D01*
X206544260Y-54401000D01*
X206455740Y-54401000D01*
X206389557Y-54394481D01*
X206323373Y-54387963D01*
X206210147Y-54353616D01*
X206153533Y-54336443D01*
X205997011Y-54252779D01*
X205997009Y-54252778D01*
X205961271Y-54223448D01*
X205859814Y-54140186D01*
X205776552Y-54038729D01*
X205747222Y-54002991D01*
X205737652Y-53985087D01*
X205663557Y-53846467D01*
X205646384Y-53789853D01*
X205612037Y-53676627D01*
X205594641Y-53500000D01*
X205612037Y-53323373D01*
X205663557Y-53153534D01*
X205663557Y-53153533D01*
X205747221Y-52997011D01*
X205747222Y-52997009D01*
X205776552Y-52961271D01*
X205859814Y-52859814D01*
X205961271Y-52776552D01*
X205997009Y-52747222D01*
X206014913Y-52737652D01*
X206153533Y-52663557D01*
X206210147Y-52646384D01*
X206323373Y-52612037D01*
X206389557Y-52605519D01*
X206455740Y-52599000D01*
X206544260Y-52599000D01*
X206610443Y-52605519D01*
X206610443Y-52605519D01*
G37*
M02*
