M48
;DRILL file {KiCad (5.0.0-rc2-dev-668-g07e7340a9)} date 10/23/18 00:23:30
;FORMAT={-:-/ absolute / inch / decimal}
FMAT,2
INCH,TZ
T1C0.0157
T2C0.0276
T3C0.0394
%
G90
G05
M72
T1
X7.1299Y-2.4961
X7.1703Y-3.4764
X7.2087Y-3.5433
X7.2313Y-3.7365
X7.2402Y-4.9331
X7.2402Y-5.3268
X7.2441Y-4.2835
X7.2655Y-2.5232
X7.2756Y-3.7677
X7.2795Y-5.1339
X7.3579Y-3.876
X7.3652Y-3.7519
X7.3937Y-3.9213
X7.4567Y-3.8661
X7.4892Y-4.0118
X7.4894Y-4.6299
X7.5157Y-5.2638
X7.5354Y-3.7794
X7.815Y-3.8976
X7.815Y-4.5669
X8.0709Y-2.2047
X8.0709Y-3.7008
X8.0906Y-4.5669
X8.0906Y-5.2362
X8.1102Y-2.2047
X8.1102Y-3.7008
X8.3661Y-3.8976
X8.3661Y-4.5669
X8.563Y-4.7638
X8.6238Y-4.0461
X8.6486Y-4.1806
X8.6575Y-5.3302
X8.6614Y-4.0157
X8.6614Y-4.5669
X8.6764Y-3.9113
X8.6893Y-3.9879
X8.69Y-4.3809
X8.694Y-3.9484
X8.7008Y-3.8228
X8.749Y-3.9241
X8.7918Y-4.7908
X8.8465Y-4.3898
X8.8655Y-2.3675
X8.874Y-2.2638
X8.8976Y-2.5591
X8.8976Y-2.9528
X8.8976Y-3.1496
X8.8976Y-4.1457
X8.8976Y-4.3307
X8.8981Y-4.2121
X8.8998Y-2.7556
X8.9011Y-4.2797
X8.9134Y-3.811
X8.9134Y-3.9499
X8.9163Y-4.4089
X8.9291Y-2.1299
X8.9341Y-3.3465
X8.9341Y-3.5433
X8.9725Y-4.0787
X8.9725Y-2.2648
X9.0059Y-2.6575
X9.017Y-4.0341
X9.0325Y-4.3701
X9.0354Y-4.5079
X9.0502Y-2.7529
T2
X8.0906Y-2.9528
T3
X8.0299Y-2.1063
X8.1299Y-2.1063
X8.6717Y-5.1205
X8.6717Y-5.2205
X8.7717Y-5.1205
X8.7717Y-5.2205
X8.8717Y-5.1205
X8.8717Y-5.2205
T0
M30
