G04 #@! TF.GenerationSoftware,KiCad,Pcbnew,5.1.0-unknown-3692c51~82~ubuntu16.04.1*
G04 #@! TF.CreationDate,2019-03-31T00:09:47-04:00*
G04 #@! TF.ProjectId,BalancingBusinessCardLights,42616c61-6e63-4696-9e67-427573696e65,rev?*
G04 #@! TF.SameCoordinates,Original*
G04 #@! TF.FileFunction,Profile,NP*
%FSLAX46Y46*%
G04 Gerber Fmt 4.6, Leading zero omitted, Abs format (unit mm)*
G04 Created by KiCad (PCBNEW 5.1.0-unknown-3692c51~82~ubuntu16.04.1) date 2019-03-31 00:09:47*
%MOMM*%
%LPD*%
G04 APERTURE LIST*
%ADD10C,0.150000*%
%ADD11C,0.100000*%
G04 APERTURE END LIST*
D10*
X184697801Y-55473789D02*
G75*
G02X187697801Y-52473789I3000000J0D01*
G01*
X232697801Y-52473789D02*
G75*
G02X235697801Y-55473789I0J-3000000D01*
G01*
X187697801Y-141473789D02*
G75*
G02X184697801Y-138473789I0J3000000D01*
G01*
X235697801Y-138473789D02*
G75*
G02X232697801Y-141473789I-3000000J0D01*
G01*
D11*
X214697801Y-86973789D02*
G75*
G02X210197801Y-91473789I-4500000J0D01*
G01*
X206697801Y-62973789D02*
X206697801Y-86973789D01*
X200697801Y-64973789D02*
G75*
G02X205697801Y-64973789I2500000J0D01*
G01*
X219697801Y-91473789D02*
X220697801Y-91473789D01*
X220697801Y-91473789D02*
X220697801Y-62973789D01*
X213697801Y-86973789D02*
G75*
G02X206697801Y-86973789I-3500000J0D01*
G01*
X214697801Y-86973789D02*
X214697801Y-64973789D01*
X214697801Y-64973789D02*
G75*
G02X219697801Y-64973789I2500000J0D01*
G01*
X213697801Y-62973789D02*
X213697801Y-86973789D01*
X205697801Y-86973789D02*
X205697801Y-64973789D01*
X200697801Y-64973789D02*
X200697801Y-91473789D01*
X200697801Y-91473789D02*
X199697801Y-91473789D01*
X217197801Y-59473789D02*
G75*
G02X220697801Y-62973789I0J-3500000D01*
G01*
X199697801Y-91473789D02*
X199697801Y-62973789D01*
X213697801Y-62973789D02*
G75*
G02X217197801Y-59473789I3500000J0D01*
G01*
X210197801Y-91473789D02*
G75*
G02X205697801Y-86973789I0J4500000D01*
G01*
X199697801Y-62973789D02*
G75*
G02X203197801Y-59473789I3500000J0D01*
G01*
X203197801Y-59473789D02*
G75*
G02X206697801Y-62973789I0J-3500000D01*
G01*
X219697801Y-64973789D02*
X219697801Y-91473789D01*
D10*
X187697801Y-141473789D02*
X232697801Y-141473789D01*
X184697801Y-55473789D02*
X184697801Y-138473789D01*
X232697801Y-52473789D02*
X187697801Y-52473789D01*
X235697801Y-138473789D02*
X235697801Y-55473789D01*
M02*
