M48
; DRILL file {KiCad 5.1.0-unknown-3692c51~82~ubuntu16.04.1} date Sun 31 Mar 2019 09:48:43 AM EDT
; FORMAT={2:4/ absolute / inch / suppress leading zeros}
; #@! TF.CreationDate,2019-03-31T09:48:43-04:00
; #@! TF.GenerationSoftware,Kicad,Pcbnew,5.1.0-unknown-3692c51~82~ubuntu16.04.1
; #@! TF.FileFunction,Plated,1,2,PTH
FMAT,2
INCH,TZ
T1C0.0157
T2C0.0394
%
G90
G05
T1
X73622Y-37795
X73622Y-39764
X73622Y-41732
X73622Y-43701
X73622Y-45669
X73622Y-47638
X73622Y-49606
X73622Y-51575
X73622Y-53543
X74016Y-29134
X74016Y-30315
X74803Y-29134
X74803Y-30315
X74881Y-30895
X75591Y-29134
X75591Y-30315
X75591Y-33858
X76378Y-29134
X76378Y-30315
X76456Y-32864
X77165Y-29134
X77165Y-30315
X81377Y-47037
X81574Y-44576
X81709Y-46674
X81988Y-47933
X82361Y-45856
X82755Y-45462
X82755Y-46250
X83149Y-45856
X83346Y-48021
X83557Y-43235
X83622Y-44207
X83838Y-43592
X84009Y-44944
X84128Y-47032
X84646Y-46643
X85314Y-44084
X85330Y-47156
X86220Y-53937
X88878Y-24016
X90551Y-21949
X91634Y-22343
T2
X89235Y-33100
X90235Y-33100
X89235Y-28108
X89235Y-29108
X89235Y-30108
X90235Y-28108
X90235Y-29108
X90235Y-30108
T0
M30
