M48
;DRILL file {KiCad (5.0.0-rc2-dev-668-g07e7340a9)} date 12/11/18 18:12:08
;FORMAT={-:-/ absolute / inch / decimal}
FMAT,2
INCH,TZ
T1C0.0157
T2C0.0394
%
G90
G05
M72
T1
X7.2136Y-5.2953
X7.3031Y-5.3543
X7.4803Y-5.1181
X7.8347Y-3.1299
X7.9429Y-3.0217
X7.9533Y-2.8351
X7.9823Y-3.1791
X8.0064Y-3.1245
X8.0118Y-3.0709
X8.0315Y-2.7362
X8.0315Y-3.2087
X8.0512Y-2.9528
X8.0906Y-2.9134
X8.0906Y-2.9921
X8.1299Y-2.9528
X8.1952Y-2.8709
X8.2087Y-3.0807
X8.2283Y-2.8346
X8.622Y-4.4882
X8.622Y-4.5669
X8.622Y-4.6457
X8.7008Y-4.4882
X8.7008Y-4.5669
X8.7008Y-4.6457
X8.7205Y-4.252
X8.7795Y-4.4882
X8.7795Y-4.5669
X8.7795Y-4.6457
X8.7992Y-4.1831
X8.8583Y-4.5669
X8.8583Y-4.6457
X8.878Y-4.4488
X8.937Y-4.5669
X8.937Y-4.6457
X8.9961Y-2.185
X8.9961Y-2.3819
X8.9961Y-2.5787
X8.9961Y-2.7756
X8.9961Y-2.9724
X8.9961Y-3.1693
X8.9961Y-3.3661
X8.9961Y-3.563
X8.9961Y-3.7598
T2
X7.3425Y-4.5276
X7.3425Y-4.6276
X7.3425Y-4.7276
X7.4425Y-4.5276
X7.4425Y-4.6276
X7.4425Y-4.7276
X7.7402Y-2.0866
T1
X7.9291Y-2.0354G85X7.9291Y-2.1378
G05
T0
M30
